
<svg xmlns="http://www.w3.org/2000/svg" version="1.1" xmlns:xlink="http://www.w3.org/1999/xlink" preserveAspectRatio="none" x="0px" y="0px" width="120px" height="127px" viewBox="0 0 120 127">
<defs>
<linearGradient id="Gradient_1" gradientUnits="userSpaceOnUse" x1="38.2" y1="53.4875" x2="38.2" y2="26.612499999999997" spreadMethod="pad">
<stop  offset="0%" stop-color="#FFE465"/>

<stop  offset="100%" stop-color="#E0BA00"/>
</linearGradient>

<linearGradient id="Gradient_2" gradientUnits="userSpaceOnUse" x1="38.2" y1="-9.275000000000006" x2="38.2" y2="85.875" spreadMethod="pad">
<stop  offset="0%" stop-color="#1FD6FC"/>

<stop  offset="100%" stop-color="#0261E6"/>
</linearGradient>

<linearGradient id="Gradient_3" gradientUnits="userSpaceOnUse" x1="-0.1" y1="26.924999999999997" x2="-0.1" y2="76.875" spreadMethod="pad">
<stop  offset="0%" stop-color="#1FD6FC" stop-opacity="0.2"/>

<stop  offset="100%" stop-color="#0261E6" stop-opacity="0.9882352941176471"/>
</linearGradient>
</defs>

<g id="Layer_1">
<g id="Layer_6" transform="matrix( 1.2470703125, 0, 0, 1.2470703125, 60.05,59.85) ">
<g id="Layer_2" transform="matrix( 1, 0, 0, 1, -38.2,-38.25) ">
<g>
<g>
<g>
<path fill="url(#Gradient_1)" stroke="none" d="
M 38.25 -7.85
Q 33.9658203125 -7.85 29.95 -7.2 28.9140625 -2.323828125 26.2 1.8 23.55 2.65 21.05 3.9 16.2041015625 2.951953125 12 0.25 8.69453125 2.644140625 5.65 5.7 2.625390625 8.724609375 0.25 12 2.9521484375 16.2201171875 3.9 21.1 2.65 23.55 1.85 26.15 -2.2896484375 28.8744140625 -7.15 29.9 -7.85 33.9666015625 -7.85 38.3 -7.85 42.519921875 -7.2 46.45 -2.277734375 47.5244140625 1.85 50.3 2.7 52.9 3.95 55.4 2.9830078125 60.3068359375 0.2 64.55 2.5875 67.91484375 5.65 71 8.6181640625 73.95703125 11.85 76.25 16.1275390625 73.4728515625 21.1 72.5 23.55 73.75 26.2 74.6 28.9734375 78.8140625 30 83.75 33.9896484375 84.45 38.25 84.45 42.5115234375 84.45 46.5 83.75 47.5349609375 78.786328125 50.35 74.6 52.9 73.75 55.35 72.5 60.30625 73.4767578125 64.55 76.25 67.828515625 73.971484375 70.8 71 73.845703125 67.9318359375 76.2 64.55 73.4212890625 60.328125 72.45 55.4 73.7 52.9 74.55 50.3 78.726171875 47.5158203125 83.65 46.45 84.3 42.516796875 84.3 38.3 84.3 33.971484375 83.6 29.9 78.72421875 28.8875 74.6 26.15 73.75 23.55 72.5 21.1 73.4521484375 16.1986328125 76.15 12 73.8076171875 8.7076171875 70.8 5.7 67.7515625 2.62890625 64.4 0.25 60.2171875 2.94765625 55.35 3.9 52.9 2.65 50.35 1.85 47.5935546875 -2.2845703125 46.5 -7.2 42.5345703125 -7.85 38.25 -7.85
M 57.4 19.1
Q 65.35 27.05 65.35 38.3 65.35 49.55 57.4 57.55 49.45 65.5 38.2 65.5 26.95 65.5 19 57.55 11.05 49.55 11.05 38.3 11.05 27.05 19 19.1 26.95 11.1 38.2 11.1 49.45 11.1 57.4 19.1 Z"/>
</g>
</g>
</g>
</g>
</g>

<g id="Layer_8" transform="matrix( 1.2470703125, 0, 0, 1.2470703125, 60.05,59.85) "/>

<g id="Layer_3" transform="matrix( 1.2470703125, 0, 0, 1.2470703125, 60.05,59.85) ">
<g id="Layer_2" transform="matrix( 1, 0, 0, 1, -38.2,-38.25) "/>

<g id="Layer_1" transform="matrix( 1, 0, 0, 1, -38.2,-38.25) ">
<g>
<g>
<path stroke="url(#Gradient_2)" stroke-width="3" stroke-linejoin="miter" stroke-linecap="square" stroke-miterlimit="3" fill="none" d="
M 74.65 50.45
Q 73.85 53 72.6 55.45 73.55 60.3 76.25 64.55 73.85 67.85 70.8 70.9 67.8 73.9 64.5 76.25 60.3 73.55 55.4 72.6 52.95 73.85 50.35 74.7 47.6 78.8 46.55 83.7 42.55 84.4 38.2 84.4 34 84.4 30 83.75 29 78.85 26.2 74.65 23.6 73.8 21.1 72.55 16.15 73.5 11.9 76.3 8.55 73.95 5.5 70.9 2.55 67.95 0.2 64.7 3 60.4 4 55.45 2.75 53 1.9 50.45 -2.3 47.65 -7.3 46.6 -7.95 42.6 -7.95 38.35 -7.95 34.1 -7.3 30.1 -2.3 29.05 1.9 26.3 2.75 23.65 4 21.2 3.05 16.25 0.2 11.95 2.55 8.7 5.5 5.75 8.6 2.7 11.95 0.35 16.2 3.1 21.1 4.05 23.6 2.8 26.2 1.95 29 -2.2 30 -7.1 34 -7.75 38.2 -7.75 42.55 -7.75 46.55 -7.05 47.65 -2.2 50.35 1.95 52.95 2.75 55.4 4 60.3 3.05 64.45 0.4 67.8 2.75 70.8 5.75 73.85 8.8 76.2 12.15 73.55 16.3 72.6 21.15 73.85 23.65 74.7 26.3 78.8 29 83.65 30.1 84.35 34.05 84.35 38.35 84.35 42.65 83.65 46.65 78.8 47.7 74.65 50.45 Z
M 38.2 65.45
Q 26.95 65.45 18.95 57.5 11 49.55 11 38.3 11 27.05 18.95 19.1 26.95 11.15 38.2 11.15 49.45 11.15 57.4 19.1 65.4 27.05 65.4 38.3 65.4 49.55 57.4 57.5 49.45 65.45 38.2 65.45 Z"/>
</g>
</g>
</g>
</g>

<g id="Layer_5" transform="matrix( 1.2470703125, 0, 0, 1.2470703125, 60.05,59.85) "/>

<g id="Layer_2" transform="matrix( 1.2470703125, 0, 0, 1.2470703125, 60.05,59.85) ">
<g transform="matrix( 1, 0, 0, 1, 0,-42.4) ">
<g>
<g>
<path fill="url(#Gradient_3)" stroke="none" d="
M 26.05 44.5
Q 26.1068359375 44.0287109375 26.1 43.55 26.15 42.9060546875 26.15 42.25 26.15 31.35 18.45 23.65 10.75 15.95 -0.1 15.95 -10.95 15.95 -18.65 23.65 -26.35 31.35 -26.35 42.25 -26.35 42.754296875 -26.35 43.25 -26.2755859375 44.9275390625 -26.05 46.5 -25.09609375 55.0630859375 -21.65 61.95 -17.548046875 70.136328125 -18.25 80 -18.903515625 89.9244140625 -15.25 93.25 -11.5888671875 96.5671875 -7.25 94.45 -2.870703125 92.3841796875 -2.9 81.5 -2.9287109375 70.6212890625 1.4 68.8 5.7794921875 67.0318359375 7.3 73.05 8.81796875 79.0556640625 11.3 81.35 13.7763671875 83.654296875 16.95 81.65 20.1720703125 79.6912109375 19.8 71.5 19.4359375 63.3619140625 22.7 56.4 25.74921875 49.99140625 26.05 44.5 Z"/>
</g>
</g>
</g>

<g transform="matrix( 1, 0, 0, 1, 0.1,-42.3) ">
<g>
<path fill="#1ED4FB" stroke="none" d="
M 26.15 45.25
L 26.15 43.55
Q 26.2 43.45 26.1 43.45
L 26 43.5 25.85 44.85 25.85 45.25 24.85 49.95
Q 24.6 50.85 23.7 53.2
L 22 56.9
Q 21.05 58.8 20.35 61.3
L 20.15 61.9 19.1 68.5 19.1 72.1
Q 19.1 74 19 75 18.95 76.45 18.55 77.85
L 18.2 78.85 18.1 79 18.05 79.15 17.95 79.3 17.9 79.45 17.4 80.2 16.75 80.85 16.7 80.85 16.7 80.9 16.6 80.95 16.55 80.95 16.45 81 16.3 81.1
Q 15.8 81.45 15 81.6 14.3 81.75 13.75 81.7 13.1 81.55 12.55 81.2
L 12.25 81 12.15 80.9 12 80.8 11.6 80.4 11.5 80.25
Q 11 79.75 10.6 79.05 10.15 78.35 9.85 77.65
L 9.05 75.8 7.75 71.3 7.6 71 7.55 70.75 6.8 69.45
Q 6.65 69.15 6.15 68.65 5.85 68.3 5.25 67.95 4.65 67.6 4.15 67.55 3.5 67.4 3 67.45
L 1.95 67.6 1.7 67.7 1.45 67.75 1.4 67.8 1.3 67.8 1.1 67.9 1.05 67.9 1 67.95 0.75 68.05 0.5 68.2 0.25 68.3 -0.15 68.6 -0.35 68.8 -0.45 68.85 -1.1 69.5 -1.4 69.9 -1.95 70.8
Q -2.4 71.5 -2.75 72.55 -3.2 73.85 -3.6 76.25 -3.75 77.55 -3.85 79.95
L -4.2 86.95
Q -4.45 88.8 -5 90.25 -5.2 90.85 -5.65 91.7 -6.05 92.4 -6.55 92.85
L -6.7 93 -7 93.2 -7.1 93.3 -7.2 93.35 -7.3 93.45 -7.35 93.45 -7.4 93.5 -7.6 93.6 -7.65 93.65 -7.75 93.65 -8.45 93.95 -9.2 94.15
Q -10.65 94.5 -12.15 94.05
L -13.5 93.4 -14.1 92.95 -14.2 92.9 -14.55 92.55 -14.6 92.55 -14.7 92.45
Q -15.7 91.55 -16.35 89.95 -16.95 88.3 -17.15 86.95 -17.35 85.4 -17.45 83.8
L -17.4 80.25 -17.35 80.05 -17.8 71.8 -17.8 71.6 -17.85 71.4
Q -18.35 68.55 -19.3 65.9
L -20.15 63.7 -20.6 62.8 -20.7 62.5 -21.4 61.15
Q -22.35 59.25 -23.25 56.9 -23.85 55.3 -24.5 53.05
L -24.95 51.3 -25 50.9 -25.3 49.5 -25.35 49.35 -26.2 43.2
Q -26.2 43.05 -26.3 43.15 -26.45 43.15 -26.35 43.25
L -26.35 44.55 -25.9 49.4 -25.8 49.8 -25.7 50.6 -25.65 50.8 -25.65 51 -25.2 53.25
Q -24.7 55.35 -24.1 57.2 -23.5 59.05 -22.4 61.6
L -21.85 62.7 -21.75 63 -21.6 63.3 -20.45 66.3
Q -19.55 69.2 -19.25 71.65
L -19.2 71.8 -19.2 72 -18.95 74.15 -18.95 79.75 -19 79.95 -19.05 81.35 -19.1 81.75 -19.1 83.85
Q -19.1 85.75 -18.85 87.2 -18.6 89.15 -18 90.6 -17.8 91.2 -17.2 92.3 -16.5 93.3 -16 93.8
L -15.9 93.85 -15.65 94.1 -15.55 94.15 -15.35 94.35 -15.25 94.4 -14.5 94.95
Q -14.25 95.15 -13.65 95.45
L -12.75 95.8
Q -12.1 96 -11.8 96.1
L -9.8 96.2 -8.8 96.05 -6.95 95.45 -6.85 95.4 -6.8 95.35 -6.5 95.2 -6.45 95.2 -6.4 95.15 -6.25 95.1 -6.15 95 -5.8 94.8 -5.6 94.6 -5.4 94.45 -4.85 93.9 -3.95 92.7
Q -3.35 91.5 -3.15 90.9 -2.6 89.45 -2.25 87.25 -2 85.65 -1.9 83.6
L -1.85 80
Q -1.85 78.4 -1.6 76.5 -1.35 74.55 -0.9 73.2
L 0.1 71.1 0.35 70.8 0.45 70.65 0.6 70.55 0.7 70.4 0.8 70.35 0.85 70.3 1.6 69.8 1.75 69.75 1.8 69.75 1.85 69.7 1.95 69.7 2.05 69.65 2.1 69.6 2.45 69.5 3.15 69.4
Q 3.75 69.35 4.3 69.65 4.8 69.95 5.25 70.55
L 5.75 71.45 5.8 71.5 5.85 71.7 5.95 71.9 5.95 72 6 72.05 7.15 76 7.8 77.65 9.05 80
Q 9.55 80.75 10.15 81.45
L 10.75 82.05 10.85 82.1 10.95 82.2 11.05 82.25 11.2 82.4 11.6 82.7
Q 12.6 83.3 13.5 83.35 14.4 83.5 15.45 83.25 16.3 83.05 17.1 82.55
L 17.4 82.4 17.5 82.3 17.6 82.25 17.7 82.15 17.8 82.1 18.85 81 19.1 80.6 19.5 79.8 20.05 78.25
Q 20.3 77.2 20.5 75.1 20.6 73.55 20.5 72.05
L 20.45 70.6 20.4 70.3 20.55 66.55
Q 20.95 61.65 22.8 57.25
L 24.35 53.45
Q 24.85 52.15 25.35 50.1
L 25.55 49.35 25.6 49 25.7 48.65 26.15 45.25 Z"/>
</g>

<use xlink:href="#Circle_icon1_Avatar_Admin_0_Layer2_1_STROKES_1_FILL"/>
</g>
</g>

<mask id="Mask_Mask_1">
<g transform="matrix( 1, 0, 0, 1, 0.1,-42.3) ">
<g>
<g>
<path fill="#FFFFFF" stroke="none" d="
M 26.05 44.5
Q 26.1068359375 44.0287109375 26.1 43.55 26.15 42.9060546875 26.15 42.25 26.15 31.35 18.45 23.65 10.75 15.95 -0.1 15.95 -10.95 15.95 -18.65 23.65 -26.35 31.35 -26.35 42.25 -26.35 42.754296875 -26.35 43.25 -26.2755859375 44.9275390625 -26.05 46.5 -25.09609375 55.0630859375 -21.65 61.95 -17.548046875 70.136328125 -18.25 80 -18.903515625 89.9244140625 -15.25 93.25 -11.5888671875 96.5671875 -7.25 94.45 -2.870703125 92.3841796875 -2.9 81.5 -2.9287109375 70.6212890625 1.4 68.8 5.7794921875 67.0318359375 7.3 73.05 8.81796875 79.0556640625 11.3 81.35 13.7763671875 83.654296875 16.95 81.65 20.1720703125 79.6912109375 19.8 71.5 19.4359375 63.3619140625 22.7 56.4 25.74921875 49.99140625 26.05 44.5 Z"/>
</g>
</g>
</g>
</mask>

<g id="Layer_4" mask="url(#Mask_Mask_1)"/>
</g>
</svg>
