
<svg xmlns="http://www.w3.org/2000/svg" version="1.1" xmlns:xlink="http://www.w3.org/1999/xlink" preserveAspectRatio="none" x="0px" y="0px" width="488px" height="514px" viewBox="0 0 488 514">
<defs>
<linearGradient id="Gradient_1" gradientUnits="userSpaceOnUse" x1="-83.775" y1="0.5" x2="192.07500000000002" y2="0.5" spreadMethod="pad">
<stop  offset="0%" stop-color="#FFE465"/>

<stop  offset="100%" stop-color="#E0BA00"/>
</linearGradient>
</defs>

<g id="Layer_2">
<g transform="matrix( 1, 0, 0, 1, 237.5,256.8) ">
<g>
<g>
<path fill="url(#Gradient_1)" stroke="none" d="
M 215.95 -236.05
Q 215.95 -244.25 209.75 -250 203.6 -255.8 194.85 -255.8
L -215.4 -255.8
Q -224.1 -255.8 -230.3 -250 -236.5 -244.25 -236.5 -236.05
L -236.5 237.05
Q -236.5 245.25 -230.3 251 -224.1 256.8 -215.4 256.8
L 194.85 256.8
Q 203.6 256.8 209.75 251 215.95 245.25 215.95 237.05
L 215.95 31.3 249.55 0.4 215.95 -30.5 215.95 -236.05 Z"/>
</g>
</g>

<g>
<path stroke="#CAA800" stroke-width="2" stroke-linejoin="round" stroke-linecap="round" fill="none" d="
M 215.95 -30.5
L 249.55 0.4 215.95 31.3 215.95 237.05
Q 215.95 245.25 209.75 251 203.6 256.8 194.85 256.8
L -215.4 256.8
Q -224.1 256.8 -230.3 251 -236.5 245.25 -236.5 237.05
L -236.5 -236.05
Q -236.5 -244.25 -230.3 -250 -224.1 -255.8 -215.4 -255.8
L 194.85 -255.8
Q 203.6 -255.8 209.75 -250 215.95 -244.25 215.95 -236.05
L 215.95 -30.5 Z"/>
</g>
</g>
</g>
</svg>
