
<svg xmlns="http://www.w3.org/2000/svg" version="1.1" xmlns:xlink="http://www.w3.org/1999/xlink" preserveAspectRatio="none" x="0px" y="0px" width="122px" height="33px" viewBox="0 0 122 33">
<defs/>

<g id="Layer_1">
<g id="Layer_7" transform="matrix( 1, 0, 0, 1, 61,16.5) ">
<g transform="matrix( 1.10406494140625, 0, 0, 1, -16.1,0) ">
<g>
<g>
<path fill="#0E35A1" stroke="none" d="
M 69.8 -16.5
L -40.65 -16.5
Q -40.641796875 0.8982421875 -40.65 16.5
L 69.8 16.5
Q 69.8146484375 0.9478515625 69.8 -16.5 Z"/>
</g>
</g>
</g>
</g>

<g id="Layer_5" transform="matrix( 1, 0, 0, 1, 61,16.5) ">
<g transform="matrix( 1, 0, 0, 1, -14.25,0) ">
<g>
<g>
<path fill="#FFFFFF" stroke="none" d="
M -5.8 -2.65
Q -7.45 -4.55 -10.35 -4.55 -12.95 -4.55 -14.6 -2.75 -16.3 -0.9 -16.3 2.3 -16.3 5 -15 6.8 -13.4 9 -10 9 -7.9 9 -6.45 8 -5.05 7.05 -4.4 5.15
L -7.8 4.55
Q -8.1 5.55 -8.65 6 -9.2 6.45 -10 6.45 -11.15 6.45 -11.95 5.6 -12.75 4.75 -12.8 3.2
L -4.2 3.2
Q -4.1 -0.75 -5.8 -2.65
M -12 -1.1
Q -11.3 -1.95 -10.15 -1.95 -9.1 -1.95 -8.35 -1.15 -7.65 -0.4 -7.6 1.1
L -12.75 1.1
Q -12.75 -0.3 -12 -1.1
M -21.55 -8.7
Q -22.85 -9.2 -25.7 -9.2
L -33.3 -9.2 -33.3 8.7 -29.7 8.7 -29.7 1.25 -28.95 1.25
Q -27.75 1.25 -27.15 1.45 -26.6 1.65 -26.05 2.2 -25.55 2.7 -24.15 4.8
L -21.55 8.7 -17.25 8.7 -19.4 5.2
Q -20.7 3.1 -21.45 2.3 -22.25 1.5 -23.4 0.8 -21.05 0.45 -19.85 -0.85 -18.7 -2.15 -18.7 -4.2 -18.7 -5.75 -19.45 -7 -20.25 -8.25 -21.55 -8.7
M -29.7 -1.65
L -29.7 -6.15 -26.9 -6.15
Q -24.7 -6.15 -24.25 -6.1 -23.35 -5.95 -22.9 -5.4 -22.4 -4.85 -22.4 -3.95 -22.4 -3.15 -22.75 -2.6 -23.15 -2.05 -23.8 -1.85 -24.45 -1.65 -27.05 -1.65
L -29.7 -1.65
M 58.6 -4.25
L 58.6 -2.45
Q 57.05 -4.55 54.65 -4.55 52.3 -4.55 50.75 -2.85 49.2 -1.1 49.2 2.15 49.2 4.75 50.35 6.5 51.9 8.7 54.5 8.7 56.85 8.7 58.4 6.6
L 58.4 8.5
Q 58.4 9.65 58.25 10.05 58 10.65 57.55 10.95 56.9 11.35 55.55 11.35 54.5 11.35 54 10.95 53.65 10.7 53.55 10.05
L 49.65 9.55
Q 49.6 9.8 49.6 9.95 49.6 11.7 51 12.85 52.35 13.95 55.65 13.95 57.4 13.95 58.55 13.6 59.7 13.25 60.4 12.6 61.05 11.95 61.45 10.8 61.8 9.65 61.8 7.35
L 61.8 -4.25 58.6 -4.25
M 53.5 -0.95
Q 54.3 -1.95 55.5 -1.95 56.8 -1.95 57.6 -0.95 58.45 0 58.45 2.05 58.45 3.95 57.6 4.95 56.7 5.95 55.45 5.95 54.3 5.95 53.5 5 52.7 4 52.7 1.95 52.7 0 53.5 -0.95
M 31.15 -4.25
L 27.75 -4.25 27.75 8.7 31.15 8.7 31.15 -4.25
M 38.35 -0.15
Q 38.65 -0.95 39.35 -1.45 40.05 -1.95 40.95 -1.95 41.65 -1.95 42.15 -1.6 42.6 -1.25 42.85 -0.65 43.05 0 43.05 2.1
L 43.05 8.7 46.5 8.7 46.5 0.65
Q 46.5 -0.85 46.3 -1.65 46.1 -2.45 45.65 -3.1 45.15 -3.75 44.2 -4.15 43.25 -4.55 42.15 -4.55 39.55 -4.55 37.85 -2.35
L 37.85 -4.25 34.65 -4.25 34.65 8.7 38.1 8.7 38.1 2.85
Q 38.1 0.65 38.35 -0.15
M 27.75 -9.2
L 27.75 -6 31.15 -6 31.15 -9.2 27.75 -9.2
M 17.2 -4.55
Q 14.85 -4.55 13.3 -2.85 11.75 -1.15 11.75 2.15 11.75 5.4 13.3 7.2 14.9 9 17.15 9 18.25 9 19.35 8.45 20.4 7.9 21.2 6.8
L 21.2 8.7 24.4 8.7 24.4 -9.2 20.95 -9.2 20.95 -2.75
Q 19.35 -4.55 17.2 -4.55
M 18.1 -1.95
Q 19.35 -1.95 20.15 -0.95 20.95 0.05 20.95 2.25 20.95 4.25 20.15 5.3 19.3 6.3 18.1 6.3 16.65 6.3 15.8 4.95 15.25 4 15.25 1.95 15.25 0 16.05 -0.95 16.9 -1.95 18.1 -1.95
M 1.15 -0.3
Q 1.5 -1.2 2 -1.55 2.5 -1.95 3.4 -1.95 4.75 -1.95 5.25 -1.5 5.75 -1.1 5.75 -0.1
L 5.75 0.25
Q 4.8 0.65 2.4 1.1 0.65 1.4 -0.3 1.9 -1.25 2.35 -1.8 3.2 -2.3 4.05 -2.3 5.15 -2.3 6.8 -1.15 7.9 0 9 2 9 3.15 9 4.15 8.55 5.15 8.15 6 7.3 6.05 7.4 6.15 7.7 6.35 8.35 6.45 8.7
L 9.85 8.7
Q 9.4 7.75 9.25 6.95 9.1 6.15 9.1 4.45
L 9.1 0.45
Q 9.1 -1.8 8.65 -2.65 8.2 -3.45 7.1 -4 5.95 -4.55 3.65 -4.55 1.15 -4.55 -0.15 -3.65 -1.45 -2.75 -1.95 -0.85
L 1.15 -0.3
M 5.75 2.45
L 5.75 3.15
Q 5.75 4.4 5.6 4.85 5.4 5.5 4.8 5.95 3.95 6.6 3.05 6.6 2.2 6.6 1.65 6.05 1.1 5.55 1.1 4.8 1.1 4.05 1.8 3.6 2.25 3.3 3.65 3 5.1 2.7 5.75 2.45 Z"/>
</g>
</g>
</g>
</g>
</g>
</svg>
