
<svg xmlns="http://www.w3.org/2000/svg" version="1.1" xmlns:xlink="http://www.w3.org/1999/xlink" preserveAspectRatio="none" x="0px" y="0px" width="114px" height="33px" viewBox="0 0 114 33">
<defs/>

<g id="Layer_1">
<g id="Layer_7" transform="matrix( 1, 0, 0, 1, 57.25,16.5) ">
<g transform="matrix( 1, 0, 0, 1, -331.2,0) ">
<g>
<g>
<path fill="#0E35A1" stroke="none" d="
M 383.6 -11.7
Q 378.7884765625 -16.50390625 371.95 -16.5
L 273.95 -16.5
Q 273.95 0.1916015625 273.95 16.5
L 371.95 16.5
Q 378.7884765625 16.5037109375 383.6 11.65 388.4537109375 6.8384765625 388.45 0 388.4537109375 -6.838671875 383.6 -11.7 Z"/>
</g>
</g>
</g>
</g>

<g id="Layer_5" transform="matrix( 1, 0, 0, 1, 57.25,16.5) ">
<g transform="matrix( 1, 0, 0, 1, -318.8,0) ">
<g>
<g>
<path fill="#FFFFFF" stroke="none" d="
M 334.2 -6
L 337.6 -6 337.6 -9.2 334.2 -9.2 334.2 -6
M 337.6 -4.25
L 334.2 -4.25 334.2 8.7 337.6 8.7 337.6 -4.25
M 343.6 -3.7
Q 342.05 -2.85 341.2 -1.25 340.35 0.35 340.35 2.05 340.35 4.25 341.2 5.85 342.05 7.4 343.65 8.2 345.25 9 347.05 9 349.95 9 351.85 7.05 353.75 5.1 353.75 2.2 353.75 -0.75 351.85 -2.65 349.95 -4.55 347.05 -4.55 345.1 -4.55 343.6 -3.7
M 344.8 -0.75
Q 345.7 -1.75 347.05 -1.75 348.4 -1.75 349.3 -0.75 350.2 0.3 350.2 2.2 350.2 4.15 349.3 5.15 348.4 6.2 347.05 6.2 345.7 6.2 344.8 5.15 343.85 4.15 343.85 2.2 343.85 0.3 344.8 -0.75
M 315.4 -4.25
L 312 -4.25 312 1.2
Q 312 4 311.75 4.7 311.45 5.4 310.75 5.9 310.1 6.4 309.2 6.4 308.45 6.4 307.95 6.05 307.45 5.65 307.25 5.05 307.05 4.45 307.05 1.7
L 307.05 -4.25 303.6 -4.25 303.6 3.95
Q 303.6 5.75 304.1 6.8 304.55 7.85 305.6 8.4 306.6 9 307.95 9 309.2 9 310.35 8.4 311.5 7.8 312.25 6.75
L 312.25 8.7 315.4 8.7 315.4 -4.25
M 294.65 -9.2
L 290.8 -9.2 283.85 8.7 287.7 8.7 289.15 4.65 296.3 4.65 297.9 8.7 301.8 8.7 294.65 -9.2
M 295.15 1.6
L 290.25 1.6 292.7 -5 295.15 1.6
M 323.65 -4.55
Q 321.3 -4.55 319.75 -2.85 318.2 -1.15 318.2 2.15 318.2 5.4 319.75 7.2 321.35 9 323.6 9 324.7 9 325.8 8.45 326.85 7.9 327.65 6.8
L 327.65 8.7 330.85 8.7 330.85 -9.2 327.4 -9.2 327.4 -2.75
Q 325.8 -4.55 323.65 -4.55
M 324.55 -1.95
Q 325.8 -1.95 326.6 -0.95 327.4 0.05 327.4 2.25 327.4 4.25 326.6 5.3 325.75 6.3 324.55 6.3 323.1 6.3 322.25 4.95 321.7 4 321.7 1.95 321.7 0 322.5 -0.95 323.35 -1.95 324.55 -1.95 Z"/>
</g>
</g>
</g>
</g>
</g>
</svg>
