
<svg xmlns="http://www.w3.org/2000/svg" version="1.1" xmlns:xlink="http://www.w3.org/1999/xlink" preserveAspectRatio="none" x="0px" y="0px" width="123px" height="54px" viewBox="0 0 123 54">
<defs>
<linearGradient id="Gradient_1" gradientUnits="userSpaceOnUse" x1="0" y1="-53.5" x2="0" y2="52" spreadMethod="pad">
<stop  offset="0%" stop-color="#1FD6FC"/>

<stop  offset="100%" stop-color="#0261E6"/>
</linearGradient>
</defs>

<g id="Layer_2">
<g id="Layer_6" transform="matrix( 0.37945556640625, 0, 0, 0.37945556640625, 61.75,27.3) ">
<g>
<g>
<g>
<path fill="url(#Gradient_1)" stroke="none" d="
M 109 -44.85
Q 63.85 -63.45 0 -63.45 -63.85 -63.45 -109.05 -44.85 -154.25 -26.2 -154.25 0.15 -154.25 26.55 -109.05 45.2 -63.85 63.85 0 63.85 63.85 63.85 109 45.2 154.25 26.55 154.25 0.2 154.25 -26.2 109 -44.85 Z"/>
</g>
</g>

<g>
<path stroke="#FFFFFF" stroke-width="17" stroke-linejoin="round" stroke-linecap="round" fill="none" d="
M 154.25 0.2
Q 154.25 26.55 109 45.2 63.85 63.85 0 63.85 -63.85 63.85 -109.05 45.2 -154.25 26.55 -154.25 0.15 -154.25 -26.2 -109.05 -44.85 -63.85 -63.45 0 -63.45 63.85 -63.45 109 -44.85 154.25 -26.2 154.25 0.2 Z"/>
</g>
</g>
</g>

<g id="Layer_4" transform="matrix( 0.37945556640625, 0, 0, 0.37945556640625, 61.75,27.3) "/>

<g id="Layer_5" transform="matrix( 0.37945556640625, 0, 0, 0.37945556640625, 61.75,27.3) ">
<g>
<g>
<g>
<path fill="url(#Gradient_1)" stroke="none" d="
M 109 -44.85
Q 63.85 -63.45 0 -63.45 -63.85 -63.45 -109.05 -44.85 -154.25 -26.2 -154.25 0.15 -154.25 26.55 -109.05 45.2 -63.85 63.85 0 63.85 63.85 63.85 109 45.2 154.25 26.55 154.25 0.2 154.25 -26.2 109 -44.85 Z"/>
</g>
</g>
</g>
</g>

<g id="Layer_2" transform="matrix( 0.37945556640625, 0, 0, 0.37945556640625, 61.75,27.3) ">
<g>
<g>
<g>
<path fill="#FFFFFF" stroke="none" d="
M 80.85 -22.05
L 68.35 -17.35 80.95 2.6 80.95 18.5 93.1 18.5 93.1 3.5 106.25 -18 94.5 -20.6 87.3 -6.9 80.85 -22.05
M 59.25 -20.25
Q 57.3 -20.95 55.35 -21.25 53.45 -21.5 51.9 -21.55 51.1 -21.55 49.75 -21.5 48.45 -21.4 46.9 -21.2 45.35 -20.95 43.7 -20.55 42.05 -20.15 40.5 -19.5
L 39.85 18.05 51.15 18.05 51.15 8 51.75 8
Q 52.35 10.95 54 13.5 55.65 16.05 57.9 17.95 60.2 19.85 62.95 21 65.7 22.1 68.7 22.1 68.95 22.1 69.25 22.1 69.6 22.1 69.85 22.05
L 69.85 11.05 69.45 11.05
Q 67.1 11.05 65.25 9.55 63.4 8.05 62.6 5.9 64.1 5.15 65.5 3.9 66.85 2.6 67.85 1.05 68.85 -0.5 69.45 -2.25 70 -3.95 70 -5.9
L 70 -6.5
Q 69.85 -9.45 68.9 -11.7 67.95 -14 66.4 -15.65 64.9 -17.3 63.1 -18.4 61.25 -19.5 59.25 -20.25
M 57.3 -10.3
Q 58.75 -9.1 58.85 -6.85 58.85 -5.7 58.45 -4.85 57.95 -3.95 57.2 -3.45 56.45 -2.9 55.45 -2.65 54.4 -2.4 53.35 -2.4 52.15 -2.4 51.3 -2.75
L 51.75 -11.15
Q 52.2 -11.3 52.75 -11.4 53.3 -11.5 53.8 -11.5 55.85 -11.5 57.3 -10.3
M 58.85 -6.85
Q 58.75 -9.1 57.3 -10.3 55.85 -11.5 53.8 -11.5 53.3 -11.5 52.75 -11.4 52.2 -11.3 51.75 -11.15
L 51.3 -2.75
Q 52.15 -2.4 53.35 -2.4 54.4 -2.4 55.45 -2.65 56.45 -2.9 57.2 -3.45 57.95 -3.95 58.45 -4.85 58.85 -5.7 58.85 -6.85
M 29.9 -1.85
Q 28.25 -6.5 26.55 -11.25 24.9 -15.95 23.45 -20.7
L 11.25 -20.8 -5.8 14.7 4.25 18.85 8.85 10.1 22.1 10.1 25.15 19.65 36.35 16.95
Q 34.9 12.25 33.25 7.55 31.6 2.85 29.9 -1.85
M 20.6 0.45
L 12.3 0.45 16.95 -9.75 20.6 0.45
M -70.05 -20.7
L -81.35 -20.7 -81.7 18.45 -70.4 18.45 -70.05 -20.7
M -21 -21.25
Q -22.9 -21.5 -24.45 -21.55 -25.25 -21.55 -26.6 -21.5 -27.9 -21.4 -29.45 -21.2 -31 -20.95 -32.65 -20.55 -34.3 -20.15 -35.85 -19.5
L -36.5 18.05 -25.2 18.05 -25.2 8 -24.6 8
Q -24 10.95 -22.35 13.5 -20.7 16.05 -18.45 17.95 -16.15 19.85 -13.4 21 -10.65 22.1 -7.65 22.1 -7.4 22.1 -7.1 22.1 -6.75 22.1 -6.5 22.05
L -6.5 11.05 -6.9 11.05
Q -9.25 11.05 -11.1 9.55 -12.95 8.05 -13.75 5.9 -12.25 5.15 -10.85 3.9 -9.5 2.6 -8.5 1.05 -7.5 -0.5 -6.9 -2.25 -6.35 -3.95 -6.35 -5.9
L -6.35 -6.5
Q -6.5 -9.45 -7.45 -11.7 -8.4 -14 -9.95 -15.65 -11.45 -17.3 -13.25 -18.4 -15.1 -19.5 -17.1 -20.25 -19.05 -20.95 -21 -21.25
M -25.05 -2.75
L -24.6 -11.15
Q -24.15 -11.3 -23.6 -11.4 -23.05 -11.5 -22.55 -11.5 -20.5 -11.5 -19.05 -10.3 -17.6 -9.1 -17.5 -6.85 -17.5 -5.7 -17.9 -4.85 -18.4 -3.95 -19.15 -3.45 -19.9 -2.9 -20.9 -2.65 -21.95 -2.4 -23 -2.4 -24.2 -2.4 -25.05 -2.75
M -24.6 -11.15
L -25.05 -2.75
Q -24.2 -2.4 -23 -2.4 -21.95 -2.4 -20.9 -2.65 -19.9 -2.9 -19.15 -3.45 -18.4 -3.95 -17.9 -4.85 -17.5 -5.7 -17.5 -6.85 -17.6 -9.1 -19.05 -10.3 -20.5 -11.5 -22.55 -11.5 -23.05 -11.5 -23.6 -11.4 -24.15 -11.3 -24.6 -11.15
M -61.45 -20.3
Q -64.85 -19.85 -67.85 -18.3
L -67.85 18.5 -60.85 18.5
Q -58.75 18.5 -56.25 18.45 -53.8 18.4 -51.35 18.1 -48.95 17.8 -46.7 17.15 -44.45 16.45 -42.7 15.2 -41 13.95 -39.95 12 -38.85 10.05 -38.8 7.25 -38.8 4.9 -39.7 2.75 -40.65 0.6 -42.5 -0.9 -41.05 -2.15 -40.15 -4.15 -39.3 -6.15 -39.3 -8.25 -39.3 -11.3 -40.7 -13.6 -42.15 -15.95 -44.4 -17.5 -46.6 -19.15 -49.35 -19.95 -52.1 -20.75 -54.75 -20.75 -58.05 -20.75 -61.45 -20.3
M -57.65 -4.15
L -57.65 -11
Q -57.2 -11.35 -56.4 -11.5 -55.6 -11.7 -54.6 -11.7 -53.7 -11.7 -52.8 -11.55 -51.9 -11.4 -51.15 -11 -50.4 -10.65 -49.95 -10 -49.5 -9.4 -49.5 -8.55 -49.5 -7.4 -50.05 -6.55 -50.7 -5.7 -51.65 -5.15 -52.6 -4.6 -53.75 -4.3 -54.95 -4 -56.05 -4 -56.95 -4 -57.65 -4.15
M -48.9 5.45
Q -48.9 6.6 -49.5 7.5 -50.1 8.4 -51.1 9.05 -52.05 9.65 -53.25 10 -54.45 10.3 -55.6 10.3 -56.85 10.3 -57.65 9.95
L -57.65 2
Q -56.35 1.6 -54.7 1.6 -53.7 1.6 -52.65 1.8 -51.55 2 -50.75 2.5 -49.95 2.9 -49.4 3.65 -48.9 4.35 -48.9 5.45
M -49.5 7.5
Q -48.9 6.6 -48.9 5.45 -48.9 4.35 -49.4 3.65 -49.95 2.9 -50.75 2.5 -51.55 2 -52.65 1.8 -53.7 1.6 -54.7 1.6 -56.35 1.6 -57.65 2
L -57.65 9.95
Q -56.85 10.3 -55.6 10.3 -54.45 10.3 -53.25 10 -52.05 9.65 -51.1 9.05 -50.1 8.4 -49.5 7.5
M -57.65 -11
L -57.65 -4.15
Q -56.95 -4 -56.05 -4 -54.95 -4 -53.75 -4.3 -52.6 -4.6 -51.65 -5.15 -50.7 -5.7 -50.05 -6.55 -49.5 -7.4 -49.5 -8.55 -49.5 -9.4 -49.95 -10 -50.4 -10.65 -51.15 -11 -51.9 -11.4 -52.8 -11.55 -53.7 -11.7 -54.6 -11.7 -55.6 -11.7 -56.4 -11.5 -57.2 -11.35 -57.65 -11
M -96.2 -21.05
L -108 -21.05 -108 18.55 -83.05 18.55 -83.05 6.7 -96.2 6.7 -96.2 -21.05 Z"/>
</g>
</g>

<g>
<path stroke="#FFFFFF" stroke-width="15" stroke-linejoin="round" stroke-linecap="round" fill="none" d="
M -83.05 6.7
L -83.05 18.55 -108 18.55 -108 -21.05 -96.2 -21.05 -96.2 6.7 -83.05 6.7 Z
M -42.5 -0.9
Q -40.65 0.6 -39.7 2.75 -38.8 4.9 -38.8 7.25 -38.85 10.05 -39.95 12 -41 13.95 -42.7 15.2 -44.45 16.45 -46.7 17.15 -48.95 17.8 -51.35 18.1 -53.8 18.4 -56.25 18.45 -58.75 18.5 -60.85 18.5
L -67.85 18.5 -67.85 -18.3
Q -64.85 -19.85 -61.45 -20.3 -58.05 -20.75 -54.75 -20.75 -52.1 -20.75 -49.35 -19.95 -46.6 -19.15 -44.4 -17.5 -42.15 -15.95 -40.7 -13.6 -39.3 -11.3 -39.3 -8.25 -39.3 -6.15 -40.15 -4.15 -41.05 -2.15 -42.5 -0.9 Z
M -57.65 -4.15
Q -56.95 -4 -56.05 -4 -54.95 -4 -53.75 -4.3 -52.6 -4.6 -51.65 -5.15 -50.7 -5.7 -50.05 -6.55 -49.5 -7.4 -49.5 -8.55 -49.5 -9.4 -49.95 -10 -50.4 -10.65 -51.15 -11 -51.9 -11.4 -52.8 -11.55 -53.7 -11.7 -54.6 -11.7 -55.6 -11.7 -56.4 -11.5 -57.2 -11.35 -57.65 -11
L -57.65 -4.15 Z
M -6.35 -6.5
L -6.35 -5.9
Q -6.35 -3.95 -6.9 -2.25 -7.5 -0.5 -8.5 1.05 -9.5 2.6 -10.85 3.9 -12.25 5.15 -13.75 5.9 -12.95 8.05 -11.1 9.55 -9.25 11.05 -6.9 11.05
L -6.5 11.05 -6.5 22.05
Q -6.75 22.1 -7.1 22.1 -7.4 22.1 -7.65 22.1 -10.65 22.1 -13.4 21 -16.15 19.85 -18.45 17.95 -20.7 16.05 -22.35 13.5 -24 10.95 -24.6 8
L -25.2 8 -25.2 18.05 -36.5 18.05 -35.85 -19.5
Q -34.3 -20.15 -32.65 -20.55 -31 -20.95 -29.45 -21.2 -27.9 -21.4 -26.6 -21.5 -25.25 -21.55 -24.45 -21.55 -22.9 -21.5 -21 -21.25 -19.05 -20.95 -17.1 -20.25 -15.1 -19.5 -13.25 -18.4 -11.45 -17.3 -9.95 -15.65 -8.4 -14 -7.45 -11.7 -6.5 -9.45 -6.35 -6.5 Z
M -25.05 -2.75
Q -24.2 -2.4 -23 -2.4 -21.95 -2.4 -20.9 -2.65 -19.9 -2.9 -19.15 -3.45 -18.4 -3.95 -17.9 -4.85 -17.5 -5.7 -17.5 -6.85 -17.6 -9.1 -19.05 -10.3 -20.5 -11.5 -22.55 -11.5 -23.05 -11.5 -23.6 -11.4 -24.15 -11.3 -24.6 -11.15
L -25.05 -2.75 Z
M -81.7 18.45
L -81.35 -20.7 -70.05 -20.7 -70.4 18.45 -81.7 18.45 Z
M 22.1 10.1
L 8.85 10.1 4.25 18.85 -5.8 14.7 11.25 -20.8 23.45 -20.7
Q 24.9 -15.95 26.55 -11.25 28.25 -6.5 29.9 -1.85 31.6 2.85 33.25 7.55 34.9 12.25 36.35 16.95
L 25.15 19.65 22.1 10.1 Z
M 70 -6.5
L 70 -5.9
Q 70 -3.95 69.45 -2.25 68.85 -0.5 67.85 1.05 66.85 2.6 65.5 3.9 64.1 5.15 62.6 5.9 63.4 8.05 65.25 9.55 67.1 11.05 69.45 11.05
L 69.85 11.05 69.85 22.05
Q 69.6 22.1 69.25 22.1 68.95 22.1 68.7 22.1 65.7 22.1 62.95 21 60.2 19.85 57.9 17.95 55.65 16.05 54 13.5 52.35 10.95 51.75 8
L 51.15 8 51.15 18.05 39.85 18.05 40.5 -19.5
Q 42.05 -20.15 43.7 -20.55 45.35 -20.95 46.9 -21.2 48.45 -21.4 49.75 -21.5 51.1 -21.55 51.9 -21.55 53.45 -21.5 55.35 -21.25 57.3 -20.95 59.25 -20.25 61.25 -19.5 63.1 -18.4 64.9 -17.3 66.4 -15.65 67.95 -14 68.9 -11.7 69.85 -9.45 70 -6.5 Z
M 51.3 -2.75
Q 52.15 -2.4 53.35 -2.4 54.4 -2.4 55.45 -2.65 56.45 -2.9 57.2 -3.45 57.95 -3.95 58.45 -4.85 58.85 -5.7 58.85 -6.85 58.75 -9.1 57.3 -10.3 55.85 -11.5 53.8 -11.5 53.3 -11.5 52.75 -11.4 52.2 -11.3 51.75 -11.15
L 51.3 -2.75 Z
M 106.25 -18
L 93.1 3.5 93.1 18.5 80.95 18.5 80.95 2.6 68.35 -17.35 80.85 -22.05 87.3 -6.9 94.5 -20.6 106.25 -18 Z
M 20.6 0.45
L 16.95 -9.75 12.3 0.45 20.6 0.45 Z
M -57.65 9.95
Q -56.85 10.3 -55.6 10.3 -54.45 10.3 -53.25 10 -52.05 9.65 -51.1 9.05 -50.1 8.4 -49.5 7.5 -48.9 6.6 -48.9 5.45 -48.9 4.35 -49.4 3.65 -49.95 2.9 -50.75 2.5 -51.55 2 -52.65 1.8 -53.7 1.6 -54.7 1.6 -56.35 1.6 -57.65 2
L -57.65 9.95 Z"/>
</g>
</g>
</g>

<g id="Layer_7" transform="matrix( 0.37945556640625, 0, 0, 0.37945556640625, 61.75,27.3) "/>

<g id="Layer_3" transform="matrix( 0.37945556640625, 0, 0, 0.37945556640625, 61.75,27.3) ">
<g>
<g>
<g>
<path fill="url(#Gradient_1)" stroke="none" d="
M 80.85 -22.05
L 68.35 -17.35 80.95 2.6 80.95 18.5 93.1 18.5 93.1 3.5 106.25 -18 94.5 -20.6 87.3 -6.9 80.85 -22.05
M 59.25 -20.25
Q 57.3 -20.95 55.35 -21.25 53.45 -21.5 51.9 -21.55 51.1 -21.55 49.75 -21.5 48.45 -21.4 46.9 -21.2 45.35 -20.95 43.7 -20.55 42.05 -20.15 40.5 -19.5
L 39.85 18.05 51.15 18.05 51.15 8 51.75 8
Q 52.35 10.95 54 13.5 55.65 16.05 57.9 17.95 60.2 19.85 62.95 21 65.7 22.1 68.7 22.1 68.95 22.1 69.25 22.1 69.6 22.1 69.85 22.05
L 69.85 11.05 69.45 11.05
Q 67.1 11.05 65.25 9.55 63.4 8.05 62.6 5.9 64.1 5.15 65.5 3.9 66.85 2.6 67.85 1.05 68.85 -0.5 69.45 -2.25 70 -3.95 70 -5.9
L 70 -6.5
Q 69.85 -9.45 68.9 -11.7 67.95 -14 66.4 -15.65 64.9 -17.3 63.1 -18.4 61.25 -19.5 59.25 -20.25
M 57.3 -10.3
Q 58.75 -9.1 58.85 -6.85 58.85 -5.7 58.45 -4.85 57.95 -3.95 57.2 -3.45 56.45 -2.9 55.45 -2.65 54.4 -2.4 53.35 -2.4 52.15 -2.4 51.3 -2.75
L 51.75 -11.15
Q 52.2 -11.3 52.75 -11.4 53.3 -11.5 53.8 -11.5 55.85 -11.5 57.3 -10.3
M 29.9 -1.85
Q 28.25 -6.5 26.55 -11.25 24.9 -15.95 23.45 -20.7
L 11.25 -20.8 -5.8 14.7 4.25 18.85 8.85 10.1 22.1 10.1 25.15 19.65 36.35 16.95
Q 34.9 12.25 33.25 7.55 31.6 2.85 29.9 -1.85
M 20.6 0.45
L 12.3 0.45 16.95 -9.75 20.6 0.45
M -70.05 -20.7
L -81.35 -20.7 -81.7 18.45 -70.4 18.45 -70.05 -20.7
M -21 -21.25
Q -22.9 -21.5 -24.45 -21.55 -25.25 -21.55 -26.6 -21.5 -27.9 -21.4 -29.45 -21.2 -31 -20.95 -32.65 -20.55 -34.3 -20.15 -35.85 -19.5
L -36.5 18.05 -25.2 18.05 -25.2 8 -24.6 8
Q -24 10.95 -22.35 13.5 -20.7 16.05 -18.45 17.95 -16.15 19.85 -13.4 21 -10.65 22.1 -7.65 22.1 -7.4 22.1 -7.1 22.1 -6.75 22.1 -6.5 22.05
L -6.5 11.05 -6.9 11.05
Q -9.25 11.05 -11.1 9.55 -12.95 8.05 -13.75 5.9 -12.25 5.15 -10.85 3.9 -9.5 2.6 -8.5 1.05 -7.5 -0.5 -6.9 -2.25 -6.35 -3.95 -6.35 -5.9
L -6.35 -6.5
Q -6.5 -9.45 -7.45 -11.7 -8.4 -14 -9.95 -15.65 -11.45 -17.3 -13.25 -18.4 -15.1 -19.5 -17.1 -20.25 -19.05 -20.95 -21 -21.25
M -25.05 -2.75
L -24.6 -11.15
Q -24.15 -11.3 -23.6 -11.4 -23.05 -11.5 -22.55 -11.5 -20.5 -11.5 -19.05 -10.3 -17.6 -9.1 -17.5 -6.85 -17.5 -5.7 -17.9 -4.85 -18.4 -3.95 -19.15 -3.45 -19.9 -2.9 -20.9 -2.65 -21.95 -2.4 -23 -2.4 -24.2 -2.4 -25.05 -2.75
M -61.45 -20.3
Q -64.85 -19.85 -67.85 -18.3
L -67.85 18.5 -60.85 18.5
Q -58.75 18.5 -56.25 18.45 -53.8 18.4 -51.35 18.1 -48.95 17.8 -46.7 17.15 -44.45 16.45 -42.7 15.2 -41 13.95 -39.95 12 -38.85 10.05 -38.8 7.25 -38.8 4.9 -39.7 2.75 -40.65 0.6 -42.5 -0.9 -41.05 -2.15 -40.15 -4.15 -39.3 -6.15 -39.3 -8.25 -39.3 -11.3 -40.7 -13.6 -42.15 -15.95 -44.4 -17.5 -46.6 -19.15 -49.35 -19.95 -52.1 -20.75 -54.75 -20.75 -58.05 -20.75 -61.45 -20.3
M -57.65 -4.15
L -57.65 -11
Q -57.2 -11.35 -56.4 -11.5 -55.6 -11.7 -54.6 -11.7 -53.7 -11.7 -52.8 -11.55 -51.9 -11.4 -51.15 -11 -50.4 -10.65 -49.95 -10 -49.5 -9.4 -49.5 -8.55 -49.5 -7.4 -50.05 -6.55 -50.7 -5.7 -51.65 -5.15 -52.6 -4.6 -53.75 -4.3 -54.95 -4 -56.05 -4 -56.95 -4 -57.65 -4.15
M -48.9 5.45
Q -48.9 6.6 -49.5 7.5 -50.1 8.4 -51.1 9.05 -52.05 9.65 -53.25 10 -54.45 10.3 -55.6 10.3 -56.85 10.3 -57.65 9.95
L -57.65 2
Q -56.35 1.6 -54.7 1.6 -53.7 1.6 -52.65 1.8 -51.55 2 -50.75 2.5 -49.95 2.9 -49.4 3.65 -48.9 4.35 -48.9 5.45
M -96.2 -21.05
L -108 -21.05 -108 18.55 -83.05 18.55 -83.05 6.7 -96.2 6.7 -96.2 -21.05 Z"/>
</g>
</g>
</g>
</g>
</g>
</svg>
