
<svg xmlns="http://www.w3.org/2000/svg" version="1.1" xmlns:xlink="http://www.w3.org/1999/xlink" preserveAspectRatio="none" x="0px" y="0px" width="454px" height="98px" viewBox="0 0 454 98">
<defs>
<linearGradient id="Gradient_1" gradientUnits="userSpaceOnUse" x1="210" y1="-15.3125" x2="212" y2="110.5125" spreadMethod="pad">
<stop  offset="0%" stop-color="#FFFFFF"/>

<stop  offset="100%" stop-color="#E6E6E6"/>
</linearGradient>
</defs>

<g id="Layer_2">
<g transform="matrix( 0.899993896484375, 0, 0, 0.899993896484375, 163.25,13.2) ">
<g>
<g>
<path fill="url(#Gradient_1)" stroke="none" d="
M 317.9 -8.85
Q 313.6 -13.55 307.45 -13.55
L -165.55 -13.55
Q -171.65 -13.55 -176 -8.85 -180.35 -4.2 -180.35 2.4
L -180.35 77.7
Q -180.35 84.3 -176 88.95 -171.65 93.65 -165.55 93.65
L 307.45 93.65
Q 313.6 93.65 317.9 88.95 322.2 84.3 322.2 77.7
L 322.2 2.4
Q 322.2 -4.2 317.9 -8.85 Z"/>
</g>
</g>

<g transform="matrix( 1.111114501953125, 0, 0, 1.111114501953125, -181.35,-14.65) ">
<path stroke="#000000" stroke-width="2" stroke-linejoin="round" stroke-linecap="round" fill="none" d="
M 439.95312347412107 1.0050827026367166
L 14.256010437011696 1.0050827026367166
Q 8.76604766845702 1.0050827026367166 4.85107421875 5.235054016113281 0.9361007690429801 9.420025634765624 0.9361007690429801 15.3599853515625
L 0.9361007690429801 83.12952575683595
Q 0.9361007690429801 89.06948547363281 4.85107421875 93.25445709228516 8.76604766845702 97.48442840576173 14.256010437011696 97.48442840576173
L 439.95312347412107 97.48442840576173
Q 445.48808593750005 97.48442840576173 449.35805969238277 93.25445709228516 453.2280334472656 89.06948547363281 453.2280334472656 83.12952575683595
L 453.2280334472656 15.3599853515625
Q 453.2280334472656 9.420025634765624 449.35805969238277 5.235054016113281 445.48808593750005 1.0050827026367166 439.95312347412107 1.0050827026367166 Z"/>
</g>
</g>
</g>
</svg>
