
<svg xmlns="http://www.w3.org/2000/svg" version="1.1" xmlns:xlink="http://www.w3.org/1999/xlink" preserveAspectRatio="none" x="0px" y="0px" width="522px" height="408px" viewBox="0 0 522 408">
<defs/>

<g id="Layer_1">
<g>
<g>
<g>
<path fill="#FFFFFF" stroke="none" d="
M 520.1 67.7
L 520.1 2 447.8 2 447.8 67.7 520.1 67.7
M 371.5 406.1
L 371.5 340.4 299.2 340.4 299.2 406.1 371.5 406.1
M 222.9 137.35
L 150.6 137.35 150.6 203.05 222.9 203.05 222.9 137.35
M 222.9 340.4
L 150.6 340.4 150.6 406.1 222.9 406.1 222.9 340.4
M 297.2 338.4
L 297.2 272.75 224.9 272.75 224.9 338.4 297.2 338.4
M 297.2 340.4
L 224.9 340.4 224.9 406.1 297.2 406.1 297.2 340.4
M 297.2 270.75
L 297.2 205.05 224.9 205.05 224.9 270.75 297.2 270.75
M 148.6 338.4
L 148.6 272.75 76.3 272.75 76.3 338.4 148.6 338.4
M 150.6 272.75
L 150.6 338.4 222.9 338.4 222.9 272.75 150.6 272.75
M 148.6 340.4
L 76.3 340.4 76.3 406.1 148.6 406.1 148.6 340.4
M 74.3 340.4
L 2 340.4 2 406.1 74.3 406.1 74.3 340.4
M 74.3 270.75
L 74.3 205.05 2 205.05 2 270.75 74.3 270.75
M 74.3 272.75
L 2 272.75 2 338.4 74.3 338.4 74.3 272.75
M 148.6 270.75
L 148.6 205.05 76.3 205.05 76.3 270.75 148.6 270.75
M 150.6 205.05
L 150.6 270.75 222.9 270.75 222.9 205.05 150.6 205.05
M 76.3 69.7
L 76.3 135.35 148.6 135.35 148.6 69.7 76.3 69.7
M 148.6 137.35
L 76.3 137.35 76.3 203.05 148.6 203.05 148.6 137.35
M 74.3 137.35
L 2 137.35 2 203.05 74.3 203.05 74.3 137.35
M 74.3 67.7
L 74.3 2 2 2 2 67.7 74.3 67.7
M 74.3 69.7
L 2 69.7 2 135.35 74.3 135.35 74.3 69.7
M 148.6 67.7
L 148.6 2 76.3 2 76.3 67.7 148.6 67.7
M 297.2 135.35
L 297.2 69.7 224.9 69.7 224.9 135.35 297.2 135.35
M 222.9 135.35
L 222.9 69.7 150.6 69.7 150.6 135.35 222.9 135.35
M 297.2 137.35
L 224.9 137.35 224.9 203.05 297.2 203.05 297.2 137.35
M 222.9 67.7
L 222.9 2 150.6 2 150.6 67.7 222.9 67.7
M 297.2 67.7
L 297.2 2 224.9 2 224.9 67.7 297.2 67.7
M 520.1 137.35
L 447.8 137.35 447.8 203.05 520.1 203.05 520.1 137.35
M 520.1 340.4
L 447.8 340.4 447.8 406.1 520.1 406.1 520.1 340.4
M 371.5 203.05
L 371.5 137.35 299.2 137.35 299.2 203.05 371.5 203.05
M 445.8 338.4
L 445.8 272.75 373.5 272.75 373.5 338.4 445.8 338.4
M 447.8 272.75
L 447.8 338.4 520.1 338.4 520.1 272.75 447.8 272.75
M 371.5 338.4
L 371.5 272.75 299.2 272.75 299.2 338.4 371.5 338.4
M 445.8 340.4
L 373.5 340.4 373.5 406.1 445.8 406.1 445.8 340.4
M 371.5 270.75
L 371.5 205.05 299.2 205.05 299.2 270.75 371.5 270.75
M 445.8 270.75
L 445.8 205.05 373.5 205.05 373.5 270.75 445.8 270.75
M 447.8 205.05
L 447.8 270.75 520.1 270.75 520.1 205.05 447.8 205.05
M 373.5 69.7
L 373.5 135.35 445.8 135.35 445.8 69.7 373.5 69.7
M 445.8 137.35
L 373.5 137.35 373.5 203.05 445.8 203.05 445.8 137.35
M 371.5 135.35
L 371.5 69.7 299.2 69.7 299.2 135.35 371.5 135.35
M 371.5 67.7
L 371.5 2 299.2 2 299.2 67.7 371.5 67.7
M 445.8 67.7
L 445.8 2 373.5 2 373.5 67.7 445.8 67.7
M 520.1 135.35
L 520.1 69.7 447.8 69.7 447.8 135.35 520.1 135.35 Z"/>
</g>
</g>
</g>
</g>
</svg>
