
<svg xmlns="http://www.w3.org/2000/svg" version="1.1" xmlns:xlink="http://www.w3.org/1999/xlink" preserveAspectRatio="none" x="0px" y="0px" width="84px" height="50px" viewBox="0 0 84 50">
<defs>
<linearGradient id="Gradient_1" gradientUnits="userSpaceOnUse" x1="0" y1="-41.05" x2="0" y2="59.650000000000006" spreadMethod="pad">
<stop  offset="0%" stop-color="#FFFFFF"/>

<stop  offset="100%" stop-color="#C5C5C5"/>
</linearGradient>

<linearGradient id="Gradient_2" gradientUnits="userSpaceOnUse" x1="0" y1="-41.05" x2="0" y2="59.650000000000006" spreadMethod="pad">
<stop  offset="0%" stop-color="#FFFFFF"/>

<stop  offset="100%" stop-color="#C5C5C5"/>
</linearGradient>
</defs>

<g id="Layer_2">
<g id="Layer_6" transform="matrix( 0.37945556640625, 0, 0, 0.37945556640625, 42.45,25.2) ">
<g>
<g>
<g>
<path fill="url(#Gradient_1)" stroke="none" d="
M 103.35 -34.85
Q 80.2 -37 68.65 -57.85
L -68.65 -57.85
Q -80.2 -37 -103.35 -34.85
L -103.35 34.85
Q -80.2 37 -68.65 57.85
L 68.65 57.85
Q 80.2 37 103.35 34.85
L 103.35 -34.85 Z"/>
</g>
</g>

<g>
<path stroke="#000000" stroke-width="17" stroke-linejoin="round" stroke-linecap="round" fill="none" d="
M -68.65 -57.85
L 68.65 -57.85
Q 80.2 -37 103.35 -34.85
L 103.35 34.85
Q 80.2 37 68.65 57.85
L -68.65 57.85
Q -80.2 37 -103.35 34.85
L -103.35 -34.85
Q -80.2 -37 -68.65 -57.85 Z"/>
</g>
</g>
</g>

<g id="Layer_4" transform="matrix( 0.37945556640625, 0, 0, 0.37945556640625, 42.45,25.2) "/>

<g id="Layer_5" transform="matrix( 0.37945556640625, 0, 0, 0.37945556640625, 42.45,25.2) ">
<g transform="matrix( 0.9182586669921875, 0, 0, 1, 0,0) ">
<g>
<g>
<path fill="url(#Gradient_2)" stroke="none" d="
M 112.55 -34.85
Q 87.35 -37 74.75 -57.85
L -74.75 -57.85
Q -87.35 -37 -112.55 -34.85
L -112.55 34.85
Q -87.35 37 -74.75 57.85
L 74.75 57.85
Q 87.35 37 112.55 34.85
L 112.55 -34.85 Z"/>
</g>
</g>
</g>
</g>

<g id="Layer_2" transform="matrix( 0.37945556640625, 0, 0, 0.37945556640625, 42.45,25.2) ">
<g>
<g>
<g>
<path fill="#CC9900" stroke="none" d="
M -7.3 -19.95
L -21.55 -20.1 -26.6 0.05 -33.8 -20.05 -48.45 -21.05 -48.45 18 -37.3 18 -37.3 -1.6 -31 18.55 -21.9 18.55 -15.75 -3.3 -15.75 18.2 -4.4 18.2 -7.3 -19.95
M 8.25 18.45
L 8.6 -20.7 -2.7 -20.7 -3.05 18.45 8.25 18.45
M 37 -21.5
L 28.5 -9.9 20.45 -21.15 11.45 -15.35 21.4 -1.15 10 14.65 19.7 20.95 28.8 8.35 38.3 20.95 47.5 15.25 35.95 -0.4 46.75 -15.2 37 -21.5 Z"/>
</g>
</g>

<g>
<path stroke="#000000" stroke-width="15" stroke-linejoin="round" stroke-linecap="round" fill="none" d="
M 35.95 -0.4
L 47.5 15.25 38.3 20.95 28.8 8.35 19.7 20.95 10 14.65 21.4 -1.15 11.45 -15.35 20.45 -21.15 28.5 -9.9 37 -21.5 46.75 -15.2 35.95 -0.4 Z
M -3.05 18.45
L -2.7 -20.7 8.6 -20.7 8.25 18.45 -3.05 18.45 Z
M -15.75 18.2
L -15.75 -3.3 -21.9 18.55 -31 18.55 -37.3 -1.6 -37.3 18 -48.45 18 -48.45 -21.05 -33.8 -20.05 -26.6 0.05 -21.55 -20.1 -7.3 -19.95 -4.4 18.2 -15.75 18.2 Z"/>
</g>
</g>
</g>

<g id="Layer_7" transform="matrix( 0.37945556640625, 0, 0, 0.37945556640625, 42.45,25.2) "/>

<g id="Layer_3" transform="matrix( 0.37945556640625, 0, 0, 0.37945556640625, 42.45,25.2) ">
<g>
<g>
<g>
<path fill="url(#Gradient_2)" stroke="none" d="
M -7.3 -19.95
L -21.55 -20.1 -26.6 0.05 -33.8 -20.05 -48.45 -21.05 -48.45 18 -37.3 18 -37.3 -1.6 -31 18.55 -21.9 18.55 -15.75 -3.3 -15.75 18.2 -4.4 18.2 -7.3 -19.95
M 8.25 18.45
L 8.6 -20.7 -2.7 -20.7 -3.05 18.45 8.25 18.45
M 37 -21.5
L 28.5 -9.9 20.45 -21.15 11.45 -15.35 21.4 -1.15 10 14.65 19.7 20.95 28.8 8.35 38.3 20.95 47.5 15.25 35.95 -0.4 46.75 -15.2 37 -21.5 Z"/>
</g>
</g>
</g>
</g>
</g>
</svg>
