
<svg xmlns="http://www.w3.org/2000/svg" version="1.1" xmlns:xlink="http://www.w3.org/1999/xlink" preserveAspectRatio="none" x="0px" y="0px" width="158px" height="57px" viewBox="0 0 158 57">
<defs>
<linearGradient id="Gradient_1" gradientUnits="userSpaceOnUse" x1="-192.925" y1="206.25" x2="-19.974999999999994" y2="206.25" spreadMethod="pad">
<stop  offset="0%" stop-color="#1FD6FC"/>

<stop  offset="100%" stop-color="#0261E6"/>
</linearGradient>
</defs>

<g id="Layer_2">
<g transform="matrix( 0.899993896484375, 0, 0, 0.899993896484375, 175.1,-156.9) ">
<g>
<g>
<path fill="url(#Gradient_1)" stroke="none" d="
M -23.75 178.95
Q -27.6 176 -33 176
L -179.85 176
Q -185.25 176 -189.1 178.95 -192.9 181.9 -192.9 186.1
L -192.9 226.45
Q -192.9 230.65 -189.1 233.6 -185.25 236.55 -179.85 236.55
L -33 236.55
Q -27.6 236.55 -23.75 233.6 -19.95 230.65 -19.95 226.45
L -19.95 186.1
Q -19.95 181.9 -23.75 178.95 Z"/>
</g>
</g>

<g transform="matrix( 1.111114501953125, 0, 0, 1.111114501953125, -194.55,174.3) ">
<path stroke="#FFFFFF" stroke-width="3" stroke-linejoin="round" stroke-linecap="round" fill="none" d="
M 145.40020141601562 1.4989257812499943
L 13.236097717285162 1.4989257812499943
Q 8.376130676269526 1.4989257812499943 4.911154174804693 4.153907775878878 1.4911773681640454 6.808889770507818 1.4911773681640454 10.58886413574217
L 1.4911773681640454 46.90361785888669
Q 1.4911773681640454 50.6835922241211 4.911154174804693 53.33857421874998 8.376130676269526 55.99355621337892 13.236097717285162 55.99355621337892
L 145.40020141601562 55.99355621337892
Q 150.26016845703123 55.99355621337892 153.7251449584961 53.33857421874998 157.1451217651367 50.6835922241211 157.1451217651367 46.90361785888669
L 157.1451217651367 10.58886413574217
Q 157.1451217651367 6.808889770507818 153.7251449584961 4.153907775878878 150.26016845703123 1.4989257812499943 145.40020141601562 1.4989257812499943 Z"/>
</g>
</g>

<g transform="matrix( 1, 0, 0, 1, 2.1,1.25) ">
<g>
<g>
<path fill="#FFFFFF" stroke="none" d="
M 22.45 24
Q 23.1 23.3 24 22.9 24.9 22.5 25.95 22.5 26.6 22.5 27.3 22.65 27.95 22.8 28.55 23.1 29.15 23.4 29.6 23.85 30.1 24.25 30.35 24.85
L 36.05 23.75
Q 35.25 19.95 32.3 17.85 29.4 15.75 24.9 15.75 22.55 15.75 20.65 16.8 18.75 17.8 17.35 19.5 15.95 21.15 15.25 23.3 14.5 25.4 14.5 27.65 14.5 29.95 15.4 31.95 16.3 34 17.85 35.55 19.4 37.05 21.45 37.95 23.5 38.85 25.7 38.85 27.45 38.85 29.15 38.3 30.85 37.75 32.3 36.75 33.75 35.7 34.75 34.3 35.75 32.9 36.05 31.15
L 30.5 29.35
Q 30.35 29.9 29.9 30.35 29.45 30.75 28.85 31 28.25 31.3 27.55 31.45 26.85 31.6 26.25 31.6 25.2 31.6 24.3 31.2 23.4 30.85 22.7 30.25 22 29.65 21.65 28.9 21.25 28.1 21.2 27.2 21.15 26.35 21.5 25.5 21.85 24.65 22.45 24
M 52.35 15.95
L 45.3 15.9 35.4 36.45 41.25 38.9 43.9 33.8 51.6 33.8 53.35 39.35 59.85 37.8
Q 59 35.05 58.05 32.35 57.1 29.6 56.1 26.9 55.15 24.15 54.15 21.45 53.2 18.7 52.35 15.95
M 50.7 28.2
L 45.9 28.2 48.6 22.3 50.7 28.2
M 81.5 38.65
L 81.5 15.7 74.75 15.9 74.8 26.55 66.3 16.75 60.5 16.3 60.7 38.65 67.6 38.65 67.6 29.25 75.65 38.65 81.5 38.65
M 85.6 19.5
Q 84.2 21.15 83.5 23.3 82.75 25.4 82.75 27.65 82.75 29.95 83.65 31.95 84.55 34 86.1 35.55 87.65 37.05 89.7 37.95 91.75 38.85 93.95 38.85 95.7 38.85 97.4 38.3 99.1 37.75 100.55 36.75 102 35.7 103 34.3 104 32.9 104.3 31.15
L 98.75 29.35
Q 98.6 29.9 98.15 30.35 97.7 30.75 97.1 31 96.5 31.3 95.8 31.45 95.1 31.6 94.5 31.6 93.45 31.6 92.55 31.2 91.65 30.85 90.95 30.25 90.25 29.65 89.9 28.9 89.5 28.1 89.45 27.2 89.4 26.35 89.75 25.5 90.1 24.65 90.7 24 91.35 23.3 92.25 22.9 93.15 22.5 94.2 22.5 94.85 22.5 95.55 22.65 96.2 22.8 96.8 23.1 97.4 23.4 97.85 23.85 98.35 24.25 98.6 24.85
L 104.3 23.75
Q 103.5 19.95 100.55 17.85 97.65 15.75 93.15 15.75 90.8 15.75 88.9 16.8 87 17.8 85.6 19.5
M 132.25 15.75
L 125.4 15.75 125.4 38.7 139.9 38.7 139.9 31.8 132.25 31.8 132.25 15.75
M 123.15 21.75
L 122.75 15.7 106.2 16.4 107.65 38.65 124.15 38.65 124.15 32.25 113.45 32.8 113.3 30.15 121.85 29.55 121.55 23.85 112.95 24.45 112.75 21.95 123.15 21.75 Z"/>
</g>
</g>
</g>
</g>
</svg>
