
<svg xmlns="http://www.w3.org/2000/svg" version="1.1" xmlns:xlink="http://www.w3.org/1999/xlink" preserveAspectRatio="none" x="0px" y="0px" width="552px" height="154px" viewBox="0 0 552 154">
<defs/>

<g id="Layer_2">
<g>
<g>
<path fill="#FFFFFF" stroke="none" d="
M 132.7 153
Q 132.6947265625 152.383984375 132.25 151.95 131.816015625 151.5052734375 131.2 151.5
L 125.2 151.5
Q 124.583984375 151.5052734375 124.15 151.95 123.7052734375 152.383984375 123.7 153 123.7052734375 153.616015625 124.15 154.05 124.583984375 154.4947265625 125.2 154.5
L 131.2 154.5
Q 131.816015625 154.4947265625 132.25 154.05 132.6947265625 153.616015625 132.7 153
M 143.2 154.5
Q 143.816015625 154.4947265625 144.25 154.05 144.6947265625 153.616015625 144.7 153 144.6947265625 152.383984375 144.25 151.95 143.816015625 151.5052734375 143.2 151.5
L 137.2 151.5
Q 136.583984375 151.5052734375 136.15 151.95 135.7052734375 152.383984375 135.7 153 135.7052734375 153.616015625 136.15 154.05 136.583984375 154.4947265625 137.2 154.5
L 143.2 154.5
M 156.25 151.95
Q 155.816015625 151.5052734375 155.2 151.5
L 149.2 151.5
Q 148.583984375 151.5052734375 148.15 151.95 147.7052734375 152.383984375 147.7 153 147.7052734375 153.616015625 148.15 154.05 148.583984375 154.4947265625 149.2 154.5
L 155.2 154.5
Q 155.816015625 154.4947265625 156.25 154.05 156.6947265625 153.616015625 156.7 153 156.6947265625 152.383984375 156.25 151.95
M 96.25 151.95
Q 95.816015625 151.5052734375 95.2 151.5
L 89.2 151.5
Q 88.583984375 151.5052734375 88.15 151.95 87.7052734375 152.383984375 87.7 153 87.7052734375 153.616015625 88.15 154.05 88.583984375 154.4947265625 89.2 154.5
L 95.2 154.5
Q 95.816015625 154.4947265625 96.25 154.05 96.6947265625 153.616015625 96.7 153 96.6947265625 152.383984375 96.25 151.95
M 107.2 154.5
Q 107.816015625 154.4947265625 108.25 154.05 108.6947265625 153.616015625 108.7 153 108.6947265625 152.383984375 108.25 151.95 107.816015625 151.5052734375 107.2 151.5
L 101.2 151.5
Q 100.583984375 151.5052734375 100.15 151.95 99.7052734375 152.383984375 99.7 153 99.7052734375 153.616015625 100.15 154.05 100.583984375 154.4947265625 101.2 154.5
L 107.2 154.5
M 119.2 154.5
Q 119.816015625 154.4947265625 120.25 154.05 120.6947265625 153.616015625 120.7 153 120.6947265625 152.383984375 120.25 151.95 119.816015625 151.5052734375 119.2 151.5
L 113.2 151.5
Q 112.583984375 151.5052734375 112.15 151.95 111.7052734375 152.383984375 111.7 153 111.7052734375 153.616015625 112.15 154.05 112.583984375 154.4947265625 113.2 154.5
L 119.2 154.5
M 59.2 154.5
Q 59.816015625 154.4947265625 60.25 154.05 60.6947265625 153.616015625 60.7 153 60.6947265625 152.383984375 60.25 151.95 59.816015625 151.5052734375 59.2 151.5
L 53.2 151.5
Q 52.583984375 151.5052734375 52.15 151.95 51.7052734375 152.383984375 51.7 153 51.7052734375 153.616015625 52.15 154.05 52.583984375 154.4947265625 53.2 154.5
L 59.2 154.5
M 72.25 151.95
Q 71.816015625 151.5052734375 71.2 151.5
L 65.2 151.5
Q 64.583984375 151.5052734375 64.15 151.95 63.7052734375 152.383984375 63.7 153 63.7052734375 153.616015625 64.15 154.05 64.583984375 154.4947265625 65.2 154.5
L 71.2 154.5
Q 71.816015625 154.4947265625 72.25 154.05 72.6947265625 153.616015625 72.7 153 72.6947265625 152.383984375 72.25 151.95
M 76.15 154.05
Q 76.583984375 154.4947265625 77.2 154.5
L 83.2 154.5
Q 83.816015625 154.4947265625 84.25 154.05 84.6947265625 153.616015625 84.7 153 84.6947265625 152.383984375 84.25 151.95 83.816015625 151.5052734375 83.2 151.5
L 77.2 151.5
Q 76.583984375 151.5052734375 76.15 151.95 75.7052734375 152.383984375 75.7 153 75.7052734375 153.616015625 76.15 154.05
M 11.2 154.5
Q 11.816015625 154.4947265625 12.25 154.05 12.6947265625 153.616015625 12.7 153 12.6947265625 152.383984375 12.25 151.95 11.816015625 151.5052734375 11.2 151.5
L 5.2 151.5
Q 4.583984375 151.5052734375 4.15 151.95 3.7052734375 152.383984375 3.7 153 3.7052734375 153.616015625 4.15 154.05 4.583984375 154.4947265625 5.2 154.5
L 11.2 154.5
M 23.2 154.5
Q 23.816015625 154.4947265625 24.25 154.05 24.6947265625 153.616015625 24.7 153 24.6947265625 152.383984375 24.25 151.95 23.816015625 151.5052734375 23.2 151.5
L 17.2 151.5
Q 16.583984375 151.5052734375 16.15 151.95 15.7052734375 152.383984375 15.7 153 15.7052734375 153.616015625 16.15 154.05 16.583984375 154.4947265625 17.2 154.5
L 23.2 154.5
M 39.7 153
Q 39.7052734375 153.616015625 40.15 154.05 40.583984375 154.4947265625 41.2 154.5
L 47.2 154.5
Q 47.816015625 154.4947265625 48.25 154.05 48.6947265625 153.616015625 48.7 153 48.6947265625 152.383984375 48.25 151.95 47.816015625 151.5052734375 47.2 151.5
L 41.2 151.5
Q 40.583984375 151.5052734375 40.15 151.95 39.7052734375 152.383984375 39.7 153
M 35.2 154.5
Q 35.816015625 154.4947265625 36.25 154.05 36.6947265625 153.616015625 36.7 153 36.6947265625 152.383984375 36.25 151.95 35.816015625 151.5052734375 35.2 151.5
L 29.2 151.5
Q 28.583984375 151.5052734375 28.15 151.95 27.7052734375 152.383984375 27.7 153 27.7052734375 153.616015625 28.15 154.05 28.583984375 154.4947265625 29.2 154.5
L 35.2 154.5
M 0.45 145.95
Q 0.0052734375 146.383984375 0 147
L 0 153
Q 0.0052734375 153.616015625 0.45 154.05 0.883984375 154.4947265625 1.5 154.5 2.116015625 154.4947265625 2.55 154.05 2.9947265625 153.616015625 3 153
L 3 147
Q 2.9947265625 146.383984375 2.55 145.95 2.116015625 145.5052734375 1.5 145.5 0.883984375 145.5052734375 0.45 145.95
M 3 135
Q 2.9947265625 134.383984375 2.55 133.95 2.116015625 133.5052734375 1.5 133.5 0.883984375 133.5052734375 0.45 133.95 0.0052734375 134.383984375 0 135
L 0 141
Q 0.0052734375 141.616015625 0.45 142.05 0.883984375 142.4947265625 1.5 142.5 2.116015625 142.4947265625 2.55 142.05 2.9947265625 141.616015625 3 141
L 3 135
M 1.5 121.5
Q 0.883984375 121.5052734375 0.45 121.95 0.0052734375 122.383984375 0 123
L 0 129
Q 0.0052734375 129.616015625 0.45 130.05 0.883984375 130.4947265625 1.5 130.5 2.116015625 130.4947265625 2.55 130.05 2.9947265625 129.616015625 3 129
L 3 123
Q 2.9947265625 122.383984375 2.55 121.95 2.116015625 121.5052734375 1.5 121.5
M 3 111
Q 2.9947265625 110.383984375 2.55 109.95 2.116015625 109.5052734375 1.5 109.5 0.883984375 109.5052734375 0.45 109.95 0.0052734375 110.383984375 0 111
L 0 117
Q 0.0052734375 117.616015625 0.45 118.05 0.883984375 118.4947265625 1.5 118.5 2.116015625 118.4947265625 2.55 118.05 2.9947265625 117.616015625 3 117
L 3 111
M 1.5 97.5
Q 0.883984375 97.5052734375 0.45 97.95 0.0052734375 98.383984375 0 99
L 0 105
Q 0.0052734375 105.616015625 0.45 106.05 0.883984375 106.4947265625 1.5 106.5 2.116015625 106.4947265625 2.55 106.05 2.9947265625 105.616015625 3 105
L 3 99
Q 2.9947265625 98.383984375 2.55 97.95 2.116015625 97.5052734375 1.5 97.5
M 2.55 85.95
Q 2.116015625 85.5052734375 1.5 85.5 0.883984375 85.5052734375 0.45 85.95 0.0052734375 86.383984375 0 87
L 0 93
Q 0.0052734375 93.616015625 0.45 94.05 0.883984375 94.4947265625 1.5 94.5 2.116015625 94.4947265625 2.55 94.05 2.9947265625 93.616015625 3 93
L 3 87
Q 2.9947265625 86.383984375 2.55 85.95
M 1.5 73.5
Q 0.883984375 73.5052734375 0.45 73.95 0.0052734375 74.383984375 0 75
L 0 81
Q 0.0052734375 81.616015625 0.45 82.05 0.883984375 82.4947265625 1.5 82.5 2.116015625 82.4947265625 2.55 82.05 2.9947265625 81.616015625 3 81
L 3 75
Q 2.9947265625 74.383984375 2.55 73.95 2.116015625 73.5052734375 1.5 73.5
M 3 63
Q 2.9947265625 62.383984375 2.55 61.95 2.116015625 61.5052734375 1.5 61.5 0.883984375 61.5052734375 0.45 61.95 0.0052734375 62.383984375 0 63
L 0 69
Q 0.0052734375 69.616015625 0.45 70.05 0.883984375 70.4947265625 1.5 70.5 2.116015625 70.4947265625 2.55 70.05 2.9947265625 69.616015625 3 69
L 3 63
M 0.45 49.95
Q 0.0052734375 50.383984375 0 51
L 0 57
Q 0.0052734375 57.616015625 0.45 58.05 0.883984375 58.4947265625 1.5 58.5 2.116015625 58.4947265625 2.55 58.05 2.9947265625 57.616015625 3 57
L 3 51
Q 2.9947265625 50.383984375 2.55 49.95 2.116015625 49.5052734375 1.5 49.5 0.883984375 49.5052734375 0.45 49.95
M 0.45 37.95
Q 0.0052734375 38.383984375 0 39
L 0 45
Q 0.0052734375 45.616015625 0.45 46.05 0.883984375 46.4947265625 1.5 46.5 2.116015625 46.4947265625 2.55 46.05 2.9947265625 45.616015625 3 45
L 3 39
Q 2.9947265625 38.383984375 2.55 37.95 2.116015625 37.5052734375 1.5 37.5 0.883984375 37.5052734375 0.45 37.95
M 1.5 25.5
Q 0.883984375 25.5052734375 0.45 25.95 0.0052734375 26.383984375 0 27
L 0 33
Q 0.0052734375 33.616015625 0.45 34.05 0.883984375 34.4947265625 1.5 34.5 2.116015625 34.4947265625 2.55 34.05 2.9947265625 33.616015625 3 33
L 3 27
Q 2.9947265625 26.383984375 2.55 25.95 2.116015625 25.5052734375 1.5 25.5
M 1.5 13.5
Q 0.883984375 13.5052734375 0.45 13.95 0.0052734375 14.383984375 0 15
L 0 21
Q 0.0052734375 21.616015625 0.45 22.05 0.883984375 22.4947265625 1.5 22.5 2.116015625 22.4947265625 2.55 22.05 2.9947265625 21.616015625 3 21
L 3 15
Q 2.9947265625 14.383984375 2.55 13.95 2.116015625 13.5052734375 1.5 13.5
M 0.45 1.95
Q 0.0052734375 2.383984375 0 3
L 0 9
Q 0.0052734375 9.616015625 0.45 10.05 0.883984375 10.4947265625 1.5 10.5 2.116015625 10.4947265625 2.55 10.05 2.9947265625 9.616015625 3 9
L 3 3
Q 2.9947265625 2.383984375 2.55 1.95 2.116015625 1.5052734375 1.5 1.5 0.883984375 1.5052734375 0.45 1.95
M 12 3
Q 12.616015625 2.9947265625 13.05 2.55 13.4947265625 2.116015625 13.5 1.5 13.4947265625 0.883984375 13.05 0.45 12.616015625 0.0052734375 12 0
L 6 0
Q 5.383984375 0.0052734375 4.95 0.45 4.5052734375 0.883984375 4.5 1.5 4.5052734375 2.116015625 4.95 2.55 5.383984375 2.9947265625 6 3
L 12 3
M 25.5 1.5
Q 25.4947265625 0.883984375 25.05 0.45 24.616015625 0.0052734375 24 0
L 18 0
Q 17.383984375 0.0052734375 16.95 0.45 16.5052734375 0.883984375 16.5 1.5 16.5052734375 2.116015625 16.95 2.55 17.383984375 2.9947265625 18 3
L 24 3
Q 24.616015625 2.9947265625 25.05 2.55 25.4947265625 2.116015625 25.5 1.5
M 36 3
Q 36.616015625 2.9947265625 37.05 2.55 37.4947265625 2.116015625 37.5 1.5 37.4947265625 0.883984375 37.05 0.45 36.616015625 0.0052734375 36 0
L 30 0
Q 29.383984375 0.0052734375 28.95 0.45 28.5052734375 0.883984375 28.5 1.5 28.5052734375 2.116015625 28.95 2.55 29.383984375 2.9947265625 30 3
L 36 3
M 49.05 2.55
Q 49.4947265625 2.116015625 49.5 1.5 49.4947265625 0.883984375 49.05 0.45 48.616015625 0.0052734375 48 0
L 42 0
Q 41.383984375 0.0052734375 40.95 0.45 40.5052734375 0.883984375 40.5 1.5 40.5052734375 2.116015625 40.95 2.55 41.383984375 2.9947265625 42 3
L 48 3
Q 48.616015625 2.9947265625 49.05 2.55
M 61.5 1.5
Q 61.4947265625 0.883984375 61.05 0.45 60.616015625 0.0052734375 60 0
L 54 0
Q 53.383984375 0.0052734375 52.95 0.45 52.5052734375 0.883984375 52.5 1.5 52.5052734375 2.116015625 52.95 2.55 53.383984375 2.9947265625 54 3
L 60 3
Q 60.616015625 2.9947265625 61.05 2.55 61.4947265625 2.116015625 61.5 1.5
M 72 3
Q 72.616015625 2.9947265625 73.05 2.55 73.4947265625 2.116015625 73.5 1.5 73.4947265625 0.883984375 73.05 0.45 72.616015625 0.0052734375 72 0
L 66 0
Q 65.383984375 0.0052734375 64.95 0.45 64.5052734375 0.883984375 64.5 1.5 64.5052734375 2.116015625 64.95 2.55 65.383984375 2.9947265625 66 3
L 72 3
M 85.05 0.45
Q 84.616015625 0.0052734375 84 0
L 78 0
Q 77.383984375 0.0052734375 76.95 0.45 76.5052734375 0.883984375 76.5 1.5 76.5052734375 2.116015625 76.95 2.55 77.383984375 2.9947265625 78 3
L 84 3
Q 84.616015625 2.9947265625 85.05 2.55 85.4947265625 2.116015625 85.5 1.5 85.4947265625 0.883984375 85.05 0.45
M 96 3
Q 96.616015625 2.9947265625 97.05 2.55 97.4947265625 2.116015625 97.5 1.5 97.4947265625 0.883984375 97.05 0.45 96.616015625 0.0052734375 96 0
L 90 0
Q 89.383984375 0.0052734375 88.95 0.45 88.5052734375 0.883984375 88.5 1.5 88.5052734375 2.116015625 88.95 2.55 89.383984375 2.9947265625 90 3
L 96 3
M 109.5 1.5
Q 109.4947265625 0.883984375 109.05 0.45 108.616015625 0.0052734375 108 0
L 102 0
Q 101.383984375 0.0052734375 100.95 0.45 100.5052734375 0.883984375 100.5 1.5 100.5052734375 2.116015625 100.95 2.55 101.383984375 2.9947265625 102 3
L 108 3
Q 108.616015625 2.9947265625 109.05 2.55 109.4947265625 2.116015625 109.5 1.5
M 112.95 2.55
Q 113.383984375 2.9947265625 114 3
L 120 3
Q 120.616015625 2.9947265625 121.05 2.55 121.4947265625 2.116015625 121.5 1.5 121.4947265625 0.883984375 121.05 0.45 120.616015625 0.0052734375 120 0
L 114 0
Q 113.383984375 0.0052734375 112.95 0.45 112.5052734375 0.883984375 112.5 1.5 112.5052734375 2.116015625 112.95 2.55
M 132 3
Q 132.616015625 2.9947265625 133.05 2.55 133.4947265625 2.116015625 133.5 1.5 133.4947265625 0.883984375 133.05 0.45 132.616015625 0.0052734375 132 0
L 126 0
Q 125.383984375 0.0052734375 124.95 0.45 124.5052734375 0.883984375 124.5 1.5 124.5052734375 2.116015625 124.95 2.55 125.383984375 2.9947265625 126 3
L 132 3
M 145.5 1.5
Q 145.4947265625 0.883984375 145.05 0.45 144.616015625 0.0052734375 144 0
L 138 0
Q 137.383984375 0.0052734375 136.95 0.45 136.5052734375 0.883984375 136.5 1.5 136.5052734375 2.116015625 136.95 2.55 137.383984375 2.9947265625 138 3
L 144 3
Q 144.616015625 2.9947265625 145.05 2.55 145.4947265625 2.116015625 145.5 1.5
M 156 3
Q 156.616015625 2.9947265625 157.05 2.55 157.4947265625 2.116015625 157.5 1.5 157.4947265625 0.883984375 157.05 0.45 156.616015625 0.0052734375 156 0
L 150 0
Q 149.383984375 0.0052734375 148.95 0.45 148.5052734375 0.883984375 148.5 1.5 148.5052734375 2.116015625 148.95 2.55 149.383984375 2.9947265625 150 3
L 156 3
M 300.25 151.95
Q 299.816015625 151.5052734375 299.2 151.5
L 293.2 151.5
Q 292.583984375 151.5052734375 292.15 151.95 291.7052734375 152.383984375 291.7 153 291.7052734375 153.616015625 292.15 154.05 292.583984375 154.4947265625 293.2 154.5
L 299.2 154.5
Q 299.816015625 154.4947265625 300.25 154.05 300.6947265625 153.616015625 300.7 153 300.6947265625 152.383984375 300.25 151.95
M 304.15 154.05
Q 304.583984375 154.4947265625 305.2 154.5
L 311.2 154.5
Q 311.816015625 154.4947265625 312.25 154.05 312.6947265625 153.616015625 312.7 153 312.6947265625 152.383984375 312.25 151.95 311.816015625 151.5052734375 311.2 151.5
L 305.2 151.5
Q 304.583984375 151.5052734375 304.15 151.95 303.7052734375 152.383984375 303.7 153 303.7052734375 153.616015625 304.15 154.05
M 251.2 154.5
Q 251.816015625 154.4947265625 252.25 154.05 252.6947265625 153.616015625 252.7 153 252.6947265625 152.383984375 252.25 151.95 251.816015625 151.5052734375 251.2 151.5
L 245.2 151.5
Q 244.583984375 151.5052734375 244.15 151.95 243.7052734375 152.383984375 243.7 153 243.7052734375 153.616015625 244.15 154.05 244.583984375 154.4947265625 245.2 154.5
L 251.2 154.5
M 264.25 154.05
Q 264.6947265625 153.616015625 264.7 153 264.6947265625 152.383984375 264.25 151.95 263.816015625 151.5052734375 263.2 151.5
L 257.2 151.5
Q 256.583984375 151.5052734375 256.15 151.95 255.7052734375 152.383984375 255.7 153 255.7052734375 153.616015625 256.15 154.05 256.583984375 154.4947265625 257.2 154.5
L 263.2 154.5
Q 263.816015625 154.4947265625 264.25 154.05
M 276.25 151.95
Q 275.816015625 151.5052734375 275.2 151.5
L 269.2 151.5
Q 268.583984375 151.5052734375 268.15 151.95 267.7052734375 152.383984375 267.7 153 267.7052734375 153.616015625 268.15 154.05 268.583984375 154.4947265625 269.2 154.5
L 275.2 154.5
Q 275.816015625 154.4947265625 276.25 154.05 276.6947265625 153.616015625 276.7 153 276.6947265625 152.383984375 276.25 151.95
M 280.15 154.05
Q 280.583984375 154.4947265625 281.2 154.5
L 287.2 154.5
Q 287.816015625 154.4947265625 288.25 154.05 288.6947265625 153.616015625 288.7 153 288.6947265625 152.383984375 288.25 151.95 287.816015625 151.5052734375 287.2 151.5
L 281.2 151.5
Q 280.583984375 151.5052734375 280.15 151.95 279.7052734375 152.383984375 279.7 153 279.7052734375 153.616015625 280.15 154.05
M 216.25 151.95
Q 215.816015625 151.5052734375 215.2 151.5
L 209.2 151.5
Q 208.583984375 151.5052734375 208.15 151.95 207.7052734375 152.383984375 207.7 153 207.7052734375 153.616015625 208.15 154.05 208.583984375 154.4947265625 209.2 154.5
L 215.2 154.5
Q 215.816015625 154.4947265625 216.25 154.05 216.6947265625 153.616015625 216.7 153 216.6947265625 152.383984375 216.25 151.95
M 227.2 154.5
Q 227.816015625 154.4947265625 228.25 154.05 228.6947265625 153.616015625 228.7 153 228.6947265625 152.383984375 228.25 151.95 227.816015625 151.5052734375 227.2 151.5
L 221.2 151.5
Q 220.583984375 151.5052734375 220.15 151.95 219.7052734375 152.383984375 219.7 153 219.7052734375 153.616015625 220.15 154.05 220.583984375 154.4947265625 221.2 154.5
L 227.2 154.5
M 240.25 151.95
Q 239.816015625 151.5052734375 239.2 151.5
L 233.2 151.5
Q 232.583984375 151.5052734375 232.15 151.95 231.7052734375 152.383984375 231.7 153 231.7052734375 153.616015625 232.15 154.05 232.583984375 154.4947265625 233.2 154.5
L 239.2 154.5
Q 239.816015625 154.4947265625 240.25 154.05 240.6947265625 153.616015625 240.7 153 240.6947265625 152.383984375 240.25 151.95
M 168.25 151.95
Q 167.816015625 151.5052734375 167.2 151.5
L 161.2 151.5
Q 160.583984375 151.5052734375 160.15 151.95 159.7052734375 152.383984375 159.7 153 159.7052734375 153.616015625 160.15 154.05 160.583984375 154.4947265625 161.2 154.5
L 167.2 154.5
Q 167.816015625 154.4947265625 168.25 154.05 168.6947265625 153.616015625 168.7 153 168.6947265625 152.383984375 168.25 151.95
M 172.15 154.05
Q 172.583984375 154.4947265625 173.2 154.5
L 179.2 154.5
Q 179.816015625 154.4947265625 180.25 154.05 180.6947265625 153.616015625 180.7 153 180.6947265625 152.383984375 180.25 151.95 179.816015625 151.5052734375 179.2 151.5
L 173.2 151.5
Q 172.583984375 151.5052734375 172.15 151.95 171.7052734375 152.383984375 171.7 153 171.7052734375 153.616015625 172.15 154.05
M 184.15 154.05
Q 184.583984375 154.4947265625 185.2 154.5
L 191.2 154.5
Q 191.816015625 154.4947265625 192.25 154.05 192.6947265625 153.616015625 192.7 153 192.6947265625 152.383984375 192.25 151.95 191.816015625 151.5052734375 191.2 151.5
L 185.2 151.5
Q 184.583984375 151.5052734375 184.15 151.95 183.7052734375 152.383984375 183.7 153 183.7052734375 153.616015625 184.15 154.05
M 196.15 154.05
Q 196.583984375 154.4947265625 197.2 154.5
L 203.2 154.5
Q 203.816015625 154.4947265625 204.25 154.05 204.6947265625 153.616015625 204.7 153 204.6947265625 152.383984375 204.25 151.95 203.816015625 151.5052734375 203.2 151.5
L 197.2 151.5
Q 196.583984375 151.5052734375 196.15 151.95 195.7052734375 152.383984375 195.7 153 195.7052734375 153.616015625 196.15 154.05
M 169.05 0.45
Q 168.616015625 0.0052734375 168 0
L 162 0
Q 161.383984375 0.0052734375 160.95 0.45 160.5052734375 0.883984375 160.5 1.5 160.5052734375 2.116015625 160.95 2.55 161.383984375 2.9947265625 162 3
L 168 3
Q 168.616015625 2.9947265625 169.05 2.55 169.4947265625 2.116015625 169.5 1.5 169.4947265625 0.883984375 169.05 0.45
M 181.5 1.5
Q 181.4947265625 0.883984375 181.05 0.45 180.616015625 0.0052734375 180 0
L 174 0
Q 173.383984375 0.0052734375 172.95 0.45 172.5052734375 0.883984375 172.5 1.5 172.5052734375 2.116015625 172.95 2.55 173.383984375 2.9947265625 174 3
L 180 3
Q 180.616015625 2.9947265625 181.05 2.55 181.4947265625 2.116015625 181.5 1.5
M 193.05 2.55
Q 193.4947265625 2.116015625 193.5 1.5 193.4947265625 0.883984375 193.05 0.45 192.616015625 0.0052734375 192 0
L 186 0
Q 185.383984375 0.0052734375 184.95 0.45 184.5052734375 0.883984375 184.5 1.5 184.5052734375 2.116015625 184.95 2.55 185.383984375 2.9947265625 186 3
L 192 3
Q 192.616015625 2.9947265625 193.05 2.55
M 205.05 0.45
Q 204.616015625 0.0052734375 204 0
L 198 0
Q 197.383984375 0.0052734375 196.95 0.45 196.5052734375 0.883984375 196.5 1.5 196.5052734375 2.116015625 196.95 2.55 197.383984375 2.9947265625 198 3
L 204 3
Q 204.616015625 2.9947265625 205.05 2.55 205.4947265625 2.116015625 205.5 1.5 205.4947265625 0.883984375 205.05 0.45
M 216 3
Q 216.616015625 2.9947265625 217.05 2.55 217.4947265625 2.116015625 217.5 1.5 217.4947265625 0.883984375 217.05 0.45 216.616015625 0.0052734375 216 0
L 210 0
Q 209.383984375 0.0052734375 208.95 0.45 208.5052734375 0.883984375 208.5 1.5 208.5052734375 2.116015625 208.95 2.55 209.383984375 2.9947265625 210 3
L 216 3
M 229.5 1.5
Q 229.4947265625 0.883984375 229.05 0.45 228.616015625 0.0052734375 228 0
L 222 0
Q 221.383984375 0.0052734375 220.95 0.45 220.5052734375 0.883984375 220.5 1.5 220.5052734375 2.116015625 220.95 2.55 221.383984375 2.9947265625 222 3
L 228 3
Q 228.616015625 2.9947265625 229.05 2.55 229.4947265625 2.116015625 229.5 1.5
M 232.95 2.55
Q 233.383984375 2.9947265625 234 3
L 240 3
Q 240.616015625 2.9947265625 241.05 2.55 241.4947265625 2.116015625 241.5 1.5 241.4947265625 0.883984375 241.05 0.45 240.616015625 0.0052734375 240 0
L 234 0
Q 233.383984375 0.0052734375 232.95 0.45 232.5052734375 0.883984375 232.5 1.5 232.5052734375 2.116015625 232.95 2.55
M 253.05 0.45
Q 252.616015625 0.0052734375 252 0
L 246 0
Q 245.383984375 0.0052734375 244.95 0.45 244.5052734375 0.883984375 244.5 1.5 244.5052734375 2.116015625 244.95 2.55 245.383984375 2.9947265625 246 3
L 252 3
Q 252.616015625 2.9947265625 253.05 2.55 253.4947265625 2.116015625 253.5 1.5 253.4947265625 0.883984375 253.05 0.45
M 265.5 1.5
Q 265.4947265625 0.883984375 265.05 0.45 264.616015625 0.0052734375 264 0
L 258 0
Q 257.383984375 0.0052734375 256.95 0.45 256.5052734375 0.883984375 256.5 1.5 256.5052734375 2.116015625 256.95 2.55 257.383984375 2.9947265625 258 3
L 264 3
Q 264.616015625 2.9947265625 265.05 2.55 265.4947265625 2.116015625 265.5 1.5
M 276 3
Q 276.616015625 2.9947265625 277.05 2.55 277.4947265625 2.116015625 277.5 1.5 277.4947265625 0.883984375 277.05 0.45 276.616015625 0.0052734375 276 0
L 270 0
Q 269.383984375 0.0052734375 268.95 0.45 268.5052734375 0.883984375 268.5 1.5 268.5052734375 2.116015625 268.95 2.55 269.383984375 2.9947265625 270 3
L 276 3
M 289.05 0.45
Q 288.616015625 0.0052734375 288 0
L 282 0
Q 281.383984375 0.0052734375 280.95 0.45 280.5052734375 0.883984375 280.5 1.5 280.5052734375 2.116015625 280.95 2.55 281.383984375 2.9947265625 282 3
L 288 3
Q 288.616015625 2.9947265625 289.05 2.55 289.4947265625 2.116015625 289.5 1.5 289.4947265625 0.883984375 289.05 0.45
M 300 0
L 294 0
Q 293.383984375 0.0052734375 292.95 0.45 292.5052734375 0.883984375 292.5 1.5 292.5052734375 2.116015625 292.95 2.55 293.383984375 2.9947265625 294 3
L 300 3
Q 300.616015625 2.9947265625 301.05 2.55 301.4947265625 2.116015625 301.5 1.5 301.4947265625 0.883984375 301.05 0.45 300.616015625 0.0052734375 300 0
M 313.5 1.5
Q 313.4947265625 0.883984375 313.05 0.45 312.616015625 0.0052734375 312 0
L 306 0
Q 305.383984375 0.0052734375 304.95 0.45 304.5052734375 0.883984375 304.5 1.5 304.5052734375 2.116015625 304.95 2.55 305.383984375 2.9947265625 306 3
L 312 3
Q 312.616015625 2.9947265625 313.05 2.55 313.4947265625 2.116015625 313.5 1.5
M 456.7 153
Q 456.6947265625 152.383984375 456.25 151.95 455.816015625 151.5052734375 455.2 151.5
L 449.2 151.5
Q 448.583984375 151.5052734375 448.15 151.95 447.7052734375 152.383984375 447.7 153 447.7052734375 153.616015625 448.15 154.05 448.583984375 154.4947265625 449.2 154.5
L 455.2 154.5
Q 455.816015625 154.4947265625 456.25 154.05 456.6947265625 153.616015625 456.7 153
M 467.2 154.5
Q 467.816015625 154.4947265625 468.25 154.05 468.6947265625 153.616015625 468.7 153 468.6947265625 152.383984375 468.25 151.95 467.816015625 151.5052734375 467.2 151.5
L 461.2 151.5
Q 460.583984375 151.5052734375 460.15 151.95 459.7052734375 152.383984375 459.7 153 459.7052734375 153.616015625 460.15 154.05 460.583984375 154.4947265625 461.2 154.5
L 467.2 154.5
M 480.25 151.95
Q 479.816015625 151.5052734375 479.2 151.5
L 473.2 151.5
Q 472.583984375 151.5052734375 472.15 151.95 471.7052734375 152.383984375 471.7 153 471.7052734375 153.616015625 472.15 154.05 472.583984375 154.4947265625 473.2 154.5
L 479.2 154.5
Q 479.816015625 154.4947265625 480.25 154.05 480.6947265625 153.616015625 480.7 153 480.6947265625 152.383984375 480.25 151.95
M 420.25 151.95
Q 419.816015625 151.5052734375 419.2 151.5
L 413.2 151.5
Q 412.583984375 151.5052734375 412.15 151.95 411.7052734375 152.383984375 411.7 153 411.7052734375 153.616015625 412.15 154.05 412.583984375 154.4947265625 413.2 154.5
L 419.2 154.5
Q 419.816015625 154.4947265625 420.25 154.05 420.6947265625 153.616015625 420.7 153 420.6947265625 152.383984375 420.25 151.95
M 431.2 154.5
Q 431.816015625 154.4947265625 432.25 154.05 432.6947265625 153.616015625 432.7 153 432.6947265625 152.383984375 432.25 151.95 431.816015625 151.5052734375 431.2 151.5
L 425.2 151.5
Q 424.583984375 151.5052734375 424.15 151.95 423.7052734375 152.383984375 423.7 153 423.7052734375 153.616015625 424.15 154.05 424.583984375 154.4947265625 425.2 154.5
L 431.2 154.5
M 443.2 154.5
Q 443.816015625 154.4947265625 444.25 154.05 444.6947265625 153.616015625 444.7 153 444.6947265625 152.383984375 444.25 151.95 443.816015625 151.5052734375 443.2 151.5
L 437.2 151.5
Q 436.583984375 151.5052734375 436.15 151.95 435.7052734375 152.383984375 435.7 153 435.7052734375 153.616015625 436.15 154.05 436.583984375 154.4947265625 437.2 154.5
L 443.2 154.5
M 383.2 154.5
Q 383.816015625 154.4947265625 384.25 154.05 384.6947265625 153.616015625 384.7 153 384.6947265625 152.383984375 384.25 151.95 383.816015625 151.5052734375 383.2 151.5
L 377.2 151.5
Q 376.583984375 151.5052734375 376.15 151.95 375.7052734375 152.383984375 375.7 153 375.7052734375 153.616015625 376.15 154.05 376.583984375 154.4947265625 377.2 154.5
L 383.2 154.5
M 396.25 151.95
Q 395.816015625 151.5052734375 395.2 151.5
L 389.2 151.5
Q 388.583984375 151.5052734375 388.15 151.95 387.7052734375 152.383984375 387.7 153 387.7052734375 153.616015625 388.15 154.05 388.583984375 154.4947265625 389.2 154.5
L 395.2 154.5
Q 395.816015625 154.4947265625 396.25 154.05 396.6947265625 153.616015625 396.7 153 396.6947265625 152.383984375 396.25 151.95
M 400.15 154.05
Q 400.583984375 154.4947265625 401.2 154.5
L 407.2 154.5
Q 407.816015625 154.4947265625 408.25 154.05 408.6947265625 153.616015625 408.7 153 408.6947265625 152.383984375 408.25 151.95 407.816015625 151.5052734375 407.2 151.5
L 401.2 151.5
Q 400.583984375 151.5052734375 400.15 151.95 399.7052734375 152.383984375 399.7 153 399.7052734375 153.616015625 400.15 154.05
M 324.7 153
Q 324.6947265625 152.383984375 324.25 151.95 323.816015625 151.5052734375 323.2 151.5
L 317.2 151.5
Q 316.583984375 151.5052734375 316.15 151.95 315.7052734375 152.383984375 315.7 153 315.7052734375 153.616015625 316.15 154.05 316.583984375 154.4947265625 317.2 154.5
L 323.2 154.5
Q 323.816015625 154.4947265625 324.25 154.05 324.6947265625 153.616015625 324.7 153
M 336.25 151.95
Q 335.816015625 151.5052734375 335.2 151.5
L 329.2 151.5
Q 328.583984375 151.5052734375 328.15 151.95 327.7052734375 152.383984375 327.7 153 327.7052734375 153.616015625 328.15 154.05 328.583984375 154.4947265625 329.2 154.5
L 335.2 154.5
Q 335.816015625 154.4947265625 336.25 154.05 336.6947265625 153.616015625 336.7 153 336.6947265625 152.383984375 336.25 151.95
M 347.2 154.5
Q 347.816015625 154.4947265625 348.25 154.05 348.6947265625 153.616015625 348.7 153 348.6947265625 152.383984375 348.25 151.95 347.816015625 151.5052734375 347.2 151.5
L 341.2 151.5
Q 340.583984375 151.5052734375 340.15 151.95 339.7052734375 152.383984375 339.7 153 339.7052734375 153.616015625 340.15 154.05 340.583984375 154.4947265625 341.2 154.5
L 347.2 154.5
M 360.25 151.95
Q 359.816015625 151.5052734375 359.2 151.5
L 353.2 151.5
Q 352.583984375 151.5052734375 352.15 151.95 351.7052734375 152.383984375 351.7 153 351.7052734375 153.616015625 352.15 154.05 352.583984375 154.4947265625 353.2 154.5
L 359.2 154.5
Q 359.816015625 154.4947265625 360.25 154.05 360.6947265625 153.616015625 360.7 153 360.6947265625 152.383984375 360.25 151.95
M 363.7 153
Q 363.7052734375 153.616015625 364.15 154.05 364.583984375 154.4947265625 365.2 154.5
L 371.2 154.5
Q 371.816015625 154.4947265625 372.25 154.05 372.6947265625 153.616015625 372.7 153 372.6947265625 152.383984375 372.25 151.95 371.816015625 151.5052734375 371.2 151.5
L 365.2 151.5
Q 364.583984375 151.5052734375 364.15 151.95 363.7052734375 152.383984375 363.7 153
M 325.05 0.45
Q 324.616015625 0.0052734375 324 0
L 318 0
Q 317.383984375 0.0052734375 316.95 0.45 316.5052734375 0.883984375 316.5 1.5 316.5052734375 2.116015625 316.95 2.55 317.383984375 2.9947265625 318 3
L 324 3
Q 324.616015625 2.9947265625 325.05 2.55 325.4947265625 2.116015625 325.5 1.5 325.4947265625 0.883984375 325.05 0.45
M 336 3
Q 336.616015625 2.9947265625 337.05 2.55 337.4947265625 2.116015625 337.5 1.5 337.4947265625 0.883984375 337.05 0.45 336.616015625 0.0052734375 336 0
L 330 0
Q 329.383984375 0.0052734375 328.95 0.45 328.5052734375 0.883984375 328.5 1.5 328.5052734375 2.116015625 328.95 2.55 329.383984375 2.9947265625 330 3
L 336 3
M 349.5 1.5
Q 349.4947265625 0.883984375 349.05 0.45 348.616015625 0.0052734375 348 0
L 342 0
Q 341.383984375 0.0052734375 340.95 0.45 340.5052734375 0.883984375 340.5 1.5 340.5052734375 2.116015625 340.95 2.55 341.383984375 2.9947265625 342 3
L 348 3
Q 348.616015625 2.9947265625 349.05 2.55 349.4947265625 2.116015625 349.5 1.5
M 360 3
Q 360.616015625 2.9947265625 361.05 2.55 361.4947265625 2.116015625 361.5 1.5 361.4947265625 0.883984375 361.05 0.45 360.616015625 0.0052734375 360 0
L 354 0
Q 353.383984375 0.0052734375 352.95 0.45 352.5052734375 0.883984375 352.5 1.5 352.5052734375 2.116015625 352.95 2.55 353.383984375 2.9947265625 354 3
L 360 3
M 373.05 2.55
Q 373.4947265625 2.116015625 373.5 1.5 373.4947265625 0.883984375 373.05 0.45 372.616015625 0.0052734375 372 0
L 366 0
Q 365.383984375 0.0052734375 364.95 0.45 364.5052734375 0.883984375 364.5 1.5 364.5052734375 2.116015625 364.95 2.55 365.383984375 2.9947265625 366 3
L 372 3
Q 372.616015625 2.9947265625 373.05 2.55
M 385.5 1.5
Q 385.4947265625 0.883984375 385.05 0.45 384.616015625 0.0052734375 384 0
L 378 0
Q 377.383984375 0.0052734375 376.95 0.45 376.5052734375 0.883984375 376.5 1.5 376.5052734375 2.116015625 376.95 2.55 377.383984375 2.9947265625 378 3
L 384 3
Q 384.616015625 2.9947265625 385.05 2.55 385.4947265625 2.116015625 385.5 1.5
M 396 3
Q 396.616015625 2.9947265625 397.05 2.55 397.4947265625 2.116015625 397.5 1.5 397.4947265625 0.883984375 397.05 0.45 396.616015625 0.0052734375 396 0
L 390 0
Q 389.383984375 0.0052734375 388.95 0.45 388.5052734375 0.883984375 388.5 1.5 388.5052734375 2.116015625 388.95 2.55 389.383984375 2.9947265625 390 3
L 396 3
M 409.05 0.45
Q 408.616015625 0.0052734375 408 0
L 402 0
Q 401.383984375 0.0052734375 400.95 0.45 400.5052734375 0.883984375 400.5 1.5 400.5052734375 2.116015625 400.95 2.55 401.383984375 2.9947265625 402 3
L 408 3
Q 408.616015625 2.9947265625 409.05 2.55 409.4947265625 2.116015625 409.5 1.5 409.4947265625 0.883984375 409.05 0.45
M 420 3
Q 420.616015625 2.9947265625 421.05 2.55 421.4947265625 2.116015625 421.5 1.5 421.4947265625 0.883984375 421.05 0.45 420.616015625 0.0052734375 420 0
L 414 0
Q 413.383984375 0.0052734375 412.95 0.45 412.5052734375 0.883984375 412.5 1.5 412.5052734375 2.116015625 412.95 2.55 413.383984375 2.9947265625 414 3
L 420 3
M 433.5 1.5
Q 433.4947265625 0.883984375 433.05 0.45 432.616015625 0.0052734375 432 0
L 426 0
Q 425.383984375 0.0052734375 424.95 0.45 424.5052734375 0.883984375 424.5 1.5 424.5052734375 2.116015625 424.95 2.55 425.383984375 2.9947265625 426 3
L 432 3
Q 432.616015625 2.9947265625 433.05 2.55 433.4947265625 2.116015625 433.5 1.5
M 436.95 2.55
Q 437.383984375 2.9947265625 438 3
L 444 3
Q 444.616015625 2.9947265625 445.05 2.55 445.4947265625 2.116015625 445.5 1.5 445.4947265625 0.883984375 445.05 0.45 444.616015625 0.0052734375 444 0
L 438 0
Q 437.383984375 0.0052734375 436.95 0.45 436.5052734375 0.883984375 436.5 1.5 436.5052734375 2.116015625 436.95 2.55
M 456 3
Q 456.616015625 2.9947265625 457.05 2.55 457.4947265625 2.116015625 457.5 1.5 457.4947265625 0.883984375 457.05 0.45 456.616015625 0.0052734375 456 0
L 450 0
Q 449.383984375 0.0052734375 448.95 0.45 448.5052734375 0.883984375 448.5 1.5 448.5052734375 2.116015625 448.95 2.55 449.383984375 2.9947265625 450 3
L 456 3
M 469.5 1.5
Q 469.4947265625 0.883984375 469.05 0.45 468.616015625 0.0052734375 468 0
L 462 0
Q 461.383984375 0.0052734375 460.95 0.45 460.5052734375 0.883984375 460.5 1.5 460.5052734375 2.116015625 460.95 2.55 461.383984375 2.9947265625 462 3
L 468 3
Q 468.616015625 2.9947265625 469.05 2.55 469.4947265625 2.116015625 469.5 1.5
M 480 3
Q 480.616015625 2.9947265625 481.05 2.55 481.4947265625 2.116015625 481.5 1.5 481.4947265625 0.883984375 481.05 0.45 480.616015625 0.0052734375 480 0
L 474 0
Q 473.383984375 0.0052734375 472.95 0.45 472.5052734375 0.883984375 472.5 1.5 472.5052734375 2.116015625 472.95 2.55 473.383984375 2.9947265625 474 3
L 480 3
M 540.25 151.95
Q 539.816015625 151.5052734375 539.2 151.5
L 533.2 151.5
Q 532.583984375 151.5052734375 532.15 151.95 531.7052734375 152.383984375 531.7 153 531.7052734375 153.616015625 532.15 154.05 532.583984375 154.4947265625 533.2 154.5
L 539.2 154.5
Q 539.816015625 154.4947265625 540.25 154.05 540.6947265625 153.616015625 540.7 153 540.6947265625 152.383984375 540.25 151.95
M 552.35 153
L 552.35 152.6
Q 552.3447265625 151.983984375 551.9 151.55 551.466015625 151.1052734375 550.85 151.1 550.26953125 151.1048828125 549.85 151.5
L 545.2 151.5
Q 544.583984375 151.5052734375 544.15 151.95 543.7052734375 152.383984375 543.7 153 543.7052734375 153.616015625 544.15 154.05 544.583984375 154.4947265625 545.2 154.5
L 550.85 154.5
Q 551.466015625 154.4947265625 551.9 154.05 552.3447265625 153.616015625 552.35 153
M 492.25 151.95
Q 491.816015625 151.5052734375 491.2 151.5
L 485.2 151.5
Q 484.583984375 151.5052734375 484.15 151.95 483.7052734375 152.383984375 483.7 153 483.7052734375 153.616015625 484.15 154.05 484.583984375 154.4947265625 485.2 154.5
L 491.2 154.5
Q 491.816015625 154.4947265625 492.25 154.05 492.6947265625 153.616015625 492.7 153 492.6947265625 152.383984375 492.25 151.95
M 496.15 154.05
Q 496.583984375 154.4947265625 497.2 154.5
L 503.2 154.5
Q 503.816015625 154.4947265625 504.25 154.05 504.6947265625 153.616015625 504.7 153 504.6947265625 152.383984375 504.25 151.95 503.816015625 151.5052734375 503.2 151.5
L 497.2 151.5
Q 496.583984375 151.5052734375 496.15 151.95 495.7052734375 152.383984375 495.7 153 495.7052734375 153.616015625 496.15 154.05
M 508.15 154.05
Q 508.583984375 154.4947265625 509.2 154.5
L 515.2 154.5
Q 515.816015625 154.4947265625 516.25 154.05 516.6947265625 153.616015625 516.7 153 516.6947265625 152.383984375 516.25 151.95 515.816015625 151.5052734375 515.2 151.5
L 509.2 151.5
Q 508.583984375 151.5052734375 508.15 151.95 507.7052734375 152.383984375 507.7 153 507.7052734375 153.616015625 508.15 154.05
M 520.15 154.05
Q 520.583984375 154.4947265625 521.2 154.5
L 527.2 154.5
Q 527.816015625 154.4947265625 528.25 154.05 528.6947265625 153.616015625 528.7 153 528.6947265625 152.383984375 528.25 151.95 527.816015625 151.5052734375 527.2 151.5
L 521.2 151.5
Q 520.583984375 151.5052734375 520.15 151.95 519.7052734375 152.383984375 519.7 153 519.7052734375 153.616015625 520.15 154.05
M 552.35 140.6
Q 552.3447265625 139.983984375 551.9 139.55 551.466015625 139.1052734375 550.85 139.1 550.233984375 139.1052734375 549.8 139.55 549.3552734375 139.983984375 549.35 140.6
L 549.35 146.6
Q 549.3552734375 147.216015625 549.8 147.65 550.233984375 148.0947265625 550.85 148.1 551.466015625 148.0947265625 551.9 147.65 552.3447265625 147.216015625 552.35 146.6
L 552.35 140.6
M 552.35 128.6
Q 552.3447265625 127.983984375 551.9 127.55 551.466015625 127.1052734375 550.85 127.1 550.233984375 127.1052734375 549.8 127.55 549.3552734375 127.983984375 549.35 128.6
L 549.35 134.6
Q 549.3552734375 135.216015625 549.8 135.65 550.233984375 136.0947265625 550.85 136.1 551.466015625 136.0947265625 551.9 135.65 552.3447265625 135.216015625 552.35 134.6
L 552.35 128.6
M 552.35 116.6
Q 552.3447265625 115.983984375 551.9 115.55 551.466015625 115.1052734375 550.85 115.1 550.233984375 115.1052734375 549.8 115.55 549.3552734375 115.983984375 549.35 116.6
L 549.35 122.6
Q 549.3552734375 123.216015625 549.8 123.65 550.233984375 124.0947265625 550.85 124.1 551.466015625 124.0947265625 551.9 123.65 552.3447265625 123.216015625 552.35 122.6
L 552.35 116.6
M 549.8 103.55
Q 549.3552734375 103.983984375 549.35 104.6
L 549.35 110.6
Q 549.3552734375 111.216015625 549.8 111.65 550.233984375 112.0947265625 550.85 112.1 551.466015625 112.0947265625 551.9 111.65 552.3447265625 111.216015625 552.35 110.6
L 552.35 104.6
Q 552.3447265625 103.983984375 551.9 103.55 551.466015625 103.1052734375 550.85 103.1 550.233984375 103.1052734375 549.8 103.55
M 549.8 91.55
Q 549.3552734375 91.983984375 549.35 92.6
L 549.35 98.6
Q 549.3552734375 99.216015625 549.8 99.65 550.233984375 100.0947265625 550.85 100.1 551.466015625 100.0947265625 551.9 99.65 552.3447265625 99.216015625 552.35 98.6
L 552.35 92.6
Q 552.3447265625 91.983984375 551.9 91.55 551.466015625 91.1052734375 550.85 91.1 550.233984375 91.1052734375 549.8 91.55
M 550.85 79.1
Q 550.233984375 79.1052734375 549.8 79.55 549.3552734375 79.983984375 549.35 80.6
L 549.35 86.6
Q 549.3552734375 87.216015625 549.8 87.65 550.233984375 88.0947265625 550.85 88.1 551.466015625 88.0947265625 551.9 87.65 552.3447265625 87.216015625 552.35 86.6
L 552.35 80.6
Q 552.3447265625 79.983984375 551.9 79.55 551.466015625 79.1052734375 550.85 79.1
M 552.35 68.6
Q 552.3447265625 67.983984375 551.9 67.55 551.466015625 67.1052734375 550.85 67.1 550.233984375 67.1052734375 549.8 67.55 549.3552734375 67.983984375 549.35 68.6
L 549.35 74.6
Q 549.3552734375 75.216015625 549.8 75.65 550.233984375 76.0947265625 550.85 76.1 551.466015625 76.0947265625 551.9 75.65 552.3447265625 75.216015625 552.35 74.6
L 552.35 68.6
M 549.8 55.55
Q 549.3552734375 55.983984375 549.35 56.6
L 549.35 62.6
Q 549.3552734375 63.216015625 549.8 63.65 550.233984375 64.0947265625 550.85 64.1 551.466015625 64.0947265625 551.9 63.65 552.3447265625 63.216015625 552.35 62.6
L 552.35 56.6
Q 552.3447265625 55.983984375 551.9 55.55 551.466015625 55.1052734375 550.85 55.1 550.233984375 55.1052734375 549.8 55.55
M 493.05 0.45
Q 492.616015625 0.0052734375 492 0
L 486 0
Q 485.383984375 0.0052734375 484.95 0.45 484.5052734375 0.883984375 484.5 1.5 484.5052734375 2.116015625 484.95 2.55 485.383984375 2.9947265625 486 3
L 492 3
Q 492.616015625 2.9947265625 493.05 2.55 493.4947265625 2.116015625 493.5 1.5 493.4947265625 0.883984375 493.05 0.45
M 505.5 1.5
Q 505.4947265625 0.883984375 505.05 0.45 504.616015625 0.0052734375 504 0
L 498 0
Q 497.383984375 0.0052734375 496.95 0.45 496.5052734375 0.883984375 496.5 1.5 496.5052734375 2.116015625 496.95 2.55 497.383984375 2.9947265625 498 3
L 504 3
Q 504.616015625 2.9947265625 505.05 2.55 505.4947265625 2.116015625 505.5 1.5
M 517.05 2.55
Q 517.4947265625 2.116015625 517.5 1.5 517.4947265625 0.883984375 517.05 0.45 516.616015625 0.0052734375 516 0
L 510 0
Q 509.383984375 0.0052734375 508.95 0.45 508.5052734375 0.883984375 508.5 1.5 508.5052734375 2.116015625 508.95 2.55 509.383984375 2.9947265625 510 3
L 516 3
Q 516.616015625 2.9947265625 517.05 2.55
M 549.8 43.55
Q 549.3552734375 43.983984375 549.35 44.6
L 549.35 50.6
Q 549.3552734375 51.216015625 549.8 51.65 550.233984375 52.0947265625 550.85 52.1 551.466015625 52.0947265625 551.9 51.65 552.3447265625 51.216015625 552.35 50.6
L 552.35 44.6
Q 552.3447265625 43.983984375 551.9 43.55 551.466015625 43.1052734375 550.85 43.1 550.233984375 43.1052734375 549.8 43.55
M 549.8 31.55
Q 549.3552734375 31.983984375 549.35 32.6
L 549.35 38.6
Q 549.3552734375 39.216015625 549.8 39.65 550.233984375 40.0947265625 550.85 40.1 551.466015625 40.0947265625 551.9 39.65 552.3447265625 39.216015625 552.35 38.6
L 552.35 32.6
Q 552.3447265625 31.983984375 551.9 31.55 551.466015625 31.1052734375 550.85 31.1 550.233984375 31.1052734375 549.8 31.55
M 529.05 0.45
Q 528.616015625 0.0052734375 528 0
L 522 0
Q 521.383984375 0.0052734375 520.95 0.45 520.5052734375 0.883984375 520.5 1.5 520.5052734375 2.116015625 520.95 2.55 521.383984375 2.9947265625 522 3
L 528 3
Q 528.616015625 2.9947265625 529.05 2.55 529.4947265625 2.116015625 529.5 1.5 529.4947265625 0.883984375 529.05 0.45
M 540 3
Q 540.616015625 2.9947265625 541.05 2.55 541.4947265625 2.116015625 541.5 1.5 541.4947265625 0.883984375 541.05 0.45 540.616015625 0.0052734375 540 0
L 534 0
Q 533.383984375 0.0052734375 532.95 0.45 532.5052734375 0.883984375 532.5 1.5 532.5052734375 2.116015625 532.95 2.55 533.383984375 2.9947265625 534 3
L 540 3
M 552.35 20.6
Q 552.3447265625 19.983984375 551.9 19.55 551.466015625 19.1052734375 550.85 19.1 550.233984375 19.1052734375 549.8 19.55 549.3552734375 19.983984375 549.35 20.6
L 549.35 26.6
Q 549.3552734375 27.216015625 549.8 27.65 550.233984375 28.0947265625 550.85 28.1 551.466015625 28.0947265625 551.9 27.65 552.3447265625 27.216015625 552.35 26.6
L 552.35 20.6
M 550.85 7.1
Q 550.233984375 7.1052734375 549.8 7.55 549.3552734375 7.983984375 549.35 8.6
L 549.35 14.6
Q 549.3552734375 15.216015625 549.8 15.65 550.233984375 16.0947265625 550.85 16.1 551.466015625 16.0947265625 551.9 15.65 552.3447265625 15.216015625 552.35 14.6
L 552.35 8.6
Q 552.3447265625 7.983984375 551.9 7.55 551.466015625 7.1052734375 550.85 7.1
M 552.35 1.5
Q 552.3447265625 0.883984375 551.9 0.45 551.466015625 0.0052734375 550.85 0
L 546 0
Q 545.383984375 0.0052734375 544.95 0.45 544.5052734375 0.883984375 544.5 1.5 544.5052734375 2.116015625 544.95 2.55 545.383984375 2.9947265625 546 3
L 549.4 3
Q 549.507421875 3.364453125 549.8 3.65 550.233984375 4.0947265625 550.85 4.1 551.466015625 4.0947265625 551.9 3.65 552.3447265625 3.216015625 552.35 2.6
L 552.35 1.5 Z"/>
</g>

<use xlink:href="#Layer0_0_STROKES_1_FILL"/>
</g>
</g>
</svg>
