
<svg xmlns="http://www.w3.org/2000/svg" version="1.1" xmlns:xlink="http://www.w3.org/1999/xlink" preserveAspectRatio="none" x="0px" y="0px" width="114px" height="33px" viewBox="0 0 114 33">
<defs/>

<g id="Layer_1">
<g id="Layer_7" transform="matrix( 1, 0, 0, 1, 57.1,16.5) ">
<g transform="matrix( 1.03863525390625, 0, 0, 1, -135.55,0) ">
<g>
<g>
<path fill="#0E35A1" stroke="none" d="
M 185.45 -16.5
L 75.55 -16.5
Q 75.55 0.95 75.6 16.5
L 185.45 16.5
Q 185.46171875 0.9734375 185.45 -16.5 Z"/>
</g>
</g>
</g>
</g>

<g id="Layer_5" transform="matrix( 1, 0, 0, 1, 57.1,16.5) ">
<g transform="matrix( 1, 0, 0, 1, -130.4,0) ">
<g>
<g>
<path fill="#FFFFFF" stroke="none" d="
M 177.25 -4.25
L 173 -4.25 169 0.3 169 -9.2 165.55 -9.2 165.55 8.7 169 8.7 169 4.55 170.6 2.9 173.85 8.7 177.55 8.7 172.8 0.45 177.25 -4.25
M 159 -2.4
L 159 -4.25 155.8 -4.25 155.8 8.7 159.25 8.7 159.25 4.7
Q 159.25 1.4 159.5 0.35 159.8 -0.7 160.3 -1.1 160.8 -1.5 161.5 -1.5 162.25 -1.5 163.15 -0.9
L 164.2 -3.9
Q 163.1 -4.55 161.95 -4.55 161.1 -4.55 160.45 -4.15 159.8 -3.75 159 -2.4
M 151.4 -2.65
Q 149.5 -4.55 146.6 -4.55 144.65 -4.55 143.15 -3.7 141.6 -2.85 140.75 -1.25 139.9 0.35 139.9 2.05 139.9 4.25 140.75 5.85 141.6 7.4 143.2 8.2 144.8 9 146.6 9 149.5 9 151.4 7.05 153.3 5.1 153.3 2.2 153.3 -0.75 151.4 -2.65
M 144.35 -0.75
Q 145.25 -1.75 146.6 -1.75 147.95 -1.75 148.85 -0.75 149.75 0.3 149.75 2.2 149.75 4.15 148.85 5.15 147.95 6.2 146.6 6.2 145.25 6.2 144.35 5.15 143.4 4.15 143.4 2.2 143.4 0.3 144.35 -0.75
M 130.85 -4.25
L 127.55 -4.25 125.3 4.25 122.9 -4.25 119.55 -4.25 123.65 8.7 127 8.7 129.2 0.35 131.45 8.7 134.7 8.7 138.9 -4.25 135.5 -4.25 133 4.25 130.85 -4.25
M 111.5 -1.55
L 113.05 -1.55 113.05 4.1
Q 113.05 5.95 113.15 6.55 113.3 7.4 113.65 7.9 114 8.35 114.75 8.7 115.5 9 116.4 9 117.9 9 119.1 8.5
L 118.85 5.8
Q 117.9 6.15 117.45 6.15 117.1 6.15 116.85 6 116.65 5.8 116.55 5.55 116.5 5.3 116.5 3.7
L 116.5 -1.55 118.85 -1.55 118.85 -4.25 116.5 -4.25 116.5 -8.85 113.05 -6.85 113.05 -4.25 111.5 -4.25 111.5 -1.55
M 107.5 -1.1
Q 108 -1.5 108.7 -1.5 109.45 -1.5 110.35 -0.9
L 111.4 -3.9
Q 110.3 -4.55 109.15 -4.55 108.3 -4.55 107.65 -4.15 107 -3.75 106.2 -2.4
L 106.2 -4.25 103 -4.25 103 8.7 106.45 8.7 106.45 4.7
Q 106.45 1.4 106.7 0.35 107 -0.7 107.5 -1.1
M 94.1 -9.2
L 90.25 -9.2 83.3 8.7 87.15 8.7 88.6 4.65 95.75 4.65 97.35 8.7 101.25 8.7 94.1 -9.2
M 94.6 1.6
L 89.7 1.6 92.15 -5 94.6 1.6 Z"/>
</g>
</g>
</g>
</g>
</g>
</svg>
