
<svg xmlns="http://www.w3.org/2000/svg" version="1.1" xmlns:xlink="http://www.w3.org/1999/xlink" preserveAspectRatio="none" x="0px" y="0px" width="84px" height="33px" viewBox="0 0 84 33">
<defs/>

<g id="Layer_1">
<g id="Layer_7" transform="matrix( 1, 0, 0, 1, 42.1,16.5) ">
<g transform="matrix( 1.04852294921875, 0, 0, 1, -241,0) ">
<g>
<g>
<path fill="#0E35A1" stroke="none" d="
M 270 -16.5
L 189.7 -16.5
Q 189.7 0.95 189.75 16.5
L 270.05 16.5
Q 270.0337890625 1.0625 270 -16.5 Z"/>
</g>
</g>
</g>
</g>

<g id="Layer_5" transform="matrix( 1, 0, 0, 1, 42.1,16.5) ">
<g transform="matrix( 1, 0, 0, 1, -231.6,0) ">
<g>
<g>
<path fill="#FFFFFF" stroke="none" d="
M 252.45 -3.4
Q 251.1 -2.25 251.1 -0.6 251.1 1.3 252.65 2.35 253.75 3.1 257.9 4 258.8 4.2 259.05 4.45 259.3 4.7 259.3 5.1 259.3 5.7 258.85 6.05 258.2 6.5 256.85 6.5 255.65 6.5 254.95 6 254.3 5.5 254.1 4.5
L 250.65 5
Q 251.1 6.85 252.65 7.9 254.2 9 256.85 9 259.75 9 261.25 7.7 262.75 6.45 262.75 4.65 262.75 3 261.65 2.1 260.6 1.2 257.85 0.55 255.1 -0.05 254.65 -0.4 254.3 -0.65 254.3 -1 254.3 -1.45 254.7 -1.7 255.25 -2.1 256.65 -2.1 257.7 -2.1 258.3 -1.7 258.85 -1.3 259.05 -0.55
L 262.3 -1.15
Q 261.8 -2.8 260.5 -3.7 259.25 -4.55 256.55 -4.55 253.75 -4.55 252.45 -3.4
M 214.7 -9.2
L 211.35 -9.2 211.35 2.75 204 -9.2 200.5 -9.2 200.5 8.7 203.85 8.7 203.85 -2.95 211.1 8.7 214.7 8.7 214.7 -9.2
M 228 -2.65
Q 226.35 -4.55 223.45 -4.55 220.85 -4.55 219.2 -2.75 217.5 -0.9 217.5 2.3 217.5 5 218.8 6.8 220.4 9 223.8 9 225.9 9 227.35 8 228.75 7.05 229.4 5.15
L 226 4.55
Q 225.7 5.55 225.15 6 224.6 6.45 223.8 6.45 222.65 6.45 221.85 5.6 221.05 4.75 221 3.2
L 229.6 3.2
Q 229.7 -0.75 228 -2.65
M 221.8 -1.1
Q 222.5 -1.95 223.65 -1.95 224.7 -1.95 225.45 -1.15 226.15 -0.4 226.2 1.1
L 221.05 1.1
Q 221.05 -0.3 221.8 -1.1
M 242 -4.25
L 238.7 -4.25 236.45 4.25 234.05 -4.25 230.7 -4.25 234.8 8.7 238.15 8.7 240.35 0.35 242.6 8.7 245.85 8.7 250.05 -4.25 246.65 -4.25 244.15 4.25 242 -4.25 Z"/>
</g>
</g>
</g>
</g>
</g>
</svg>
