
<svg xmlns="http://www.w3.org/2000/svg" version="1.1" xmlns:xlink="http://www.w3.org/1999/xlink" preserveAspectRatio="none" x="0px" y="0px" width="27px" height="26px" viewBox="0 0 27 26">
<defs/>

<g id="Layer_1">
<g id="Layer_5" transform="matrix( 1, 0, 0, 1, 13.5,13.45) ">
<g transform="matrix( 0.9499969482421875, 0, 0, 0.9499969482421875, -388.05,26.35) ">
<g>
<g>
<path fill="#1FD6FC" stroke="none" d="
M 404.65 -39.25
L 404.65 -31.55 396.9 -31.55 396.9 -23.85 404.65 -23.85 404.65 -16.2 412.35 -16.2 412.35 -23.85 420.05 -23.85 420.05 -31.55 412.35 -31.55 412.35 -39.25 404.65 -39.25 Z"/>
</g>
</g>

<g transform="matrix( 1.0526275634765625, 0, 0, 1.0526275634765625, 408.45,-27.7) ">
<path stroke="#FFFFFF" stroke-width="5" stroke-linejoin="round" stroke-linecap="round" fill="none" d="
M 10.996218109130837 3.6925727844238274
L 3.6812416076660384 3.6925727844238274 3.6812416076660384 10.960049438476565 -3.6337348937988736 10.960049438476565 -3.6337348937988736 3.6925727844238274 -10.996211242675827 3.6925727844238274 -10.996211242675827 -3.6224037170410135 -3.6337348937988736 -3.6224037170410135 -3.6337348937988736 -10.937380218505858 3.6812416076660384 -10.937380218505858 3.6812416076660384 -3.6224037170410135 10.996218109130837 -3.6224037170410135 10.996218109130837 3.6925727844238274 Z"/>
</g>
</g>

<g transform="matrix( 0.9499969482421875, 0, 0, 0.9499969482421875, -388.05,26.35) ">
<g>
<g>
<path fill="#1FD6FC" stroke="none" d="
M 404.65 -39.25
L 404.65 -31.55 396.9 -31.55 396.9 -23.85 404.65 -23.85 404.65 -16.2 412.35 -16.2 412.35 -23.85 420.05 -23.85 420.05 -31.55 412.35 -31.55 412.35 -39.25 404.65 -39.25 Z"/>
</g>
</g>
</g>
</g>
</g>
</svg>
