
<svg xmlns="http://www.w3.org/2000/svg" version="1.1" xmlns:xlink="http://www.w3.org/1999/xlink" preserveAspectRatio="none" x="0px" y="0px" width="33px" height="33px" viewBox="0 0 33 33">
<defs/>

<g id="Layer_1">
<g id="Layer_1" transform="matrix( 1, 0, 0, 1, 16.1,16.05) "/>

<g id="Layer_2" transform="matrix( 1, 0, 0, 1, 16.1,16.05) ">
<g>
<g>
<g>
<path fill="#FFE466" stroke="none" d="
M 6.4 -6.45
L 6.4 -6.4
Q 9.101953125 -3.765234375 9.1 0 9.10078125 1.437890625 8.7 2.7
L 11.4 5.4
Q 11.9529296875 4.3076171875 12.25 3.1 14.02109375 2.5943359375 15.9 1.9 16 -0.15 16 -1.95 14.0560546875 -2.69453125 12.2 -3.2 11.785546875 -4.9162109375 10.85 -6.45 11.7880859375 -8.003125 12.65 -9.85 11.25 -11.35 9.95 -12.65 8.0486328125 -11.8232421875 6.4 -10.85 4.8962890625 -11.788671875 3.15 -12.25 2.6578125 -14.0349609375 1.95 -15.95 -0.1 -16.05 -1.9 -16.05 -2.6525390625 -14.08515625 -3.15 -12.25 -4.919921875 -11.78515625 -6.5 -10.85 -8.1185546875 -11.81015625 -10.05 -12.65 -11.35 -11.35 -12.75 -9.85 -11.8642578125 -7.9521484375 -10.9 -6.35 -11.78203125 -4.878125 -12.2 -3.25 -14.099609375 -2.716015625 -16.1 -1.95 -16.1 -0.15 -16 1.9 -14.0650390625 2.6150390625 -12.25 3.1 -11.819140625 4.8205078125 -10.95 6.3 -11.90859375 7.9646484375 -12.75 9.9 -11.45 11.2 -9.95 12.6 -8.0962890625 11.7349609375 -6.55 10.8 -4.9384765625 11.7876953125 -3.15 12.2 -2.636328125 13.992578125 -1.95 15.85 0.1 15.95 1.9 15.95 2.630859375 14.04140625 3.1 12.2 4.3166015625 11.9341796875 5.4 11.4
L 2.7 8.7
Q 1.437890625 9.10078125 0 9.1 -3.765234375 9.101953125 -6.4 6.4
L -6.45 6.4 -6.45 6.4
Q -9.101953125 3.7650390625 -9.1 0 -9.101953125 -3.765234375 -6.45 -6.4
L -6.45 -6.45 -6.4 -6.45
Q -3.765234375 -9.101953125 0 -9.1 3.7650390625 -9.101953125 6.4 -6.45
L 6.4 -6.45 Z"/>
</g>
</g>
</g>
</g>

<g id="Layer_3" transform="matrix( 1, 0, 0, 1, 16.1,16.05) "/>

<g id="Layer_4" transform="matrix( 1, 0, 0, 1, 16.1,16.05) ">
<g id="Layer_1" transform="matrix( 0.70709228515625, -0.70709228515625, 0.70709228515625, 0.70709228515625, 0,0) "/>

<g id="Layer_2" transform="matrix( 0.70709228515625, -0.70709228515625, 0.70709228515625, 0.70709228515625, 0,0) ">
<g>
<g>
<g>
<path fill="#FFE466" stroke="none" d="
M -3.3 -0.85
L -3.3 -6.2
Q -4.184375 -5.715625 -4.95 -4.95 -7 -2.9 -7 0 -7 2.9 -4.95 4.95 -3.9509765625 5.9490234375 -2.75 6.45
L -2.75 18.65
Q -2.752734375 19.791796875 -1.95 20.6 -1.141796875 21.402734375 0 21.4 1.141796875 21.402734375 1.95 20.6 2.752734375 19.791796875 2.75 18.65
L 2.75 6.45
Q 3.9509765625 5.9490234375 4.95 4.95 7 2.9 7 0 7 -2.9 4.95 -4.95 4.184375 -5.715625 3.3 -6.2
L 3.3 -0.85
Q 3.3 -0.1 2.35 0.4 1.4 0.95 0 0.95 -1.4 0.95 -2.35 0.4 -3.3 -0.1 -3.3 -0.85 Z"/>
</g>
</g>
</g>
</g>

<g id="Layer_3" transform="matrix( 0.70709228515625, -0.70709228515625, 0.70709228515625, 0.70709228515625, 0,0) "/>

<g id="Layer_4" transform="matrix( 0.70709228515625, -0.70709228515625, 0.70709228515625, 0.70709228515625, 0,0) "/>
</g>
</g>
</svg>
