
<svg xmlns="http://www.w3.org/2000/svg" version="1.1" xmlns:xlink="http://www.w3.org/1999/xlink" preserveAspectRatio="none" x="0px" y="0px" width="103px" height="33px" viewBox="0 0 103 33">
<defs/>

<g id="Layer_1">
<g id="Layer_7" transform="matrix( 1, 0, 0, 1, 51.55,16.5) ">
<g transform="matrix( 1.0429840087890625, 0, 0, 1, 99.9,0) ">
<g>
<g>
<path fill="#0E35A1" stroke="none" d="
M -46.4 -16.5
L -145.2 -16.5
Q -145.1859375 0.911328125 -145.2 16.5
L -46.35 16.5
Q -46.4 0.9 -46.4 -16.5 Z"/>
</g>
</g>
</g>
</g>

<g id="Layer_5" transform="matrix( 1, 0, 0, 1, 51.55,16.5) ">
<g transform="matrix( 1, 0, 0, 1, 97.7,0) ">
<g>
<g>
<path fill="#FFFFFF" stroke="none" d="
M -65.3 -0.4
Q -65.65 -0.65 -65.65 -1 -65.65 -1.45 -65.25 -1.7 -64.7 -2.1 -63.3 -2.1 -62.25 -2.1 -61.65 -1.7 -61.1 -1.3 -60.9 -0.55
L -57.65 -1.15
Q -58.15 -2.8 -59.45 -3.7 -60.7 -4.55 -63.4 -4.55 -66.2 -4.55 -67.5 -3.4 -68.85 -2.25 -68.85 -0.6 -68.85 1.3 -67.3 2.35 -66.2 3.1 -62.05 4 -61.15 4.2 -60.9 4.45 -60.65 4.7 -60.65 5.1 -60.65 5.7 -61.1 6.05 -61.75 6.5 -63.1 6.5 -64.3 6.5 -65 6 -65.65 5.5 -65.85 4.5
L -69.3 5
Q -68.85 6.85 -67.3 7.9 -65.75 9 -63.1 9 -60.2 9 -58.7 7.7 -57.2 6.45 -57.2 4.65 -57.2 3 -58.3 2.1 -59.35 1.2 -62.1 0.55 -64.85 -0.05 -65.3 -0.4
M -72.5 -2.65
Q -74.15 -4.55 -77.05 -4.55 -79.65 -4.55 -81.3 -2.75 -83 -0.9 -83 2.3 -83 5 -81.7 6.8 -80.1 9 -76.7 9 -74.6 9 -73.15 8 -71.75 7.05 -71.1 5.15
L -74.5 4.55
Q -74.8 5.55 -75.35 6 -75.9 6.45 -76.7 6.45 -77.85 6.45 -78.65 5.6 -79.45 4.75 -79.5 3.2
L -70.9 3.2
Q -70.8 -0.75 -72.5 -2.65
M -78.7 -1.1
Q -78 -1.95 -76.85 -1.95 -75.8 -1.95 -75.05 -1.15 -74.35 -0.4 -74.3 1.1
L -79.45 1.1
Q -79.45 -0.3 -78.7 -1.1
M -101.35 -2.5
L -101.35 -4.25 -104.5 -4.25 -104.5 8.7 -101.1 8.7 -101.1 2.4
Q -101.1 0.55 -100.8 -0.25 -100.55 -1.1 -99.9 -1.5 -99.25 -1.95 -98.45 -1.95 -97.8 -1.95 -97.4 -1.65 -97.05 -1.4 -96.85 -0.85 -96.65 -0.3 -96.65 1.6
L -96.65 8.7 -93.25 8.7 -93.25 2.45
Q -93.25 0.65 -92.95 -0.2 -92.7 -1.05 -92.05 -1.5 -91.4 -1.95 -90.7 -1.95 -89.7 -1.95 -89.25 -1.2 -88.85 -0.65 -88.85 1.3
L -88.85 8.7 -85.45 8.7 -85.45 0.4
Q -85.45 -1.45 -85.8 -2.25 -86.3 -3.4 -87.3 -3.95 -88.25 -4.55 -89.7 -4.55 -90.8 -4.55 -91.8 -4.05 -92.8 -3.55 -93.65 -2.5 -94.25 -3.55 -95.15 -4.05 -96.05 -4.55 -97.3 -4.55 -99.65 -4.55 -101.35 -2.5
M -115.6 -0.3
Q -115.25 -1.2 -114.75 -1.55 -114.25 -1.95 -113.35 -1.95 -112 -1.95 -111.5 -1.5 -111 -1.1 -111 -0.1
L -111 0.25
Q -111.95 0.65 -114.35 1.1 -116.1 1.4 -117.05 1.9 -118 2.35 -118.55 3.2 -119.05 4.05 -119.05 5.15 -119.05 6.8 -117.9 7.9 -116.75 9 -114.75 9 -113.6 9 -112.6 8.55 -111.6 8.15 -110.75 7.3 -110.7 7.4 -110.6 7.7 -110.4 8.35 -110.3 8.7
L -106.9 8.7
Q -107.35 7.75 -107.5 6.95 -107.65 6.15 -107.65 4.45
L -107.65 0.45
Q -107.65 -1.8 -108.1 -2.65 -108.55 -3.45 -109.65 -4 -110.8 -4.55 -113.1 -4.55 -115.6 -4.55 -116.9 -3.65 -118.2 -2.75 -118.7 -0.85
L -115.6 -0.3
M -111 2.45
L -111 3.15
Q -111 4.4 -111.15 4.85 -111.35 5.5 -111.95 5.95 -112.8 6.6 -113.7 6.6 -114.55 6.6 -115.1 6.05 -115.65 5.55 -115.65 4.8 -115.65 4.05 -114.95 3.6 -114.5 3.3 -113.1 3 -111.65 2.7 -111 2.45
M -134.5 -0.45
Q -134.5 -3.4 -133.1 -4.9 -131.7 -6.4 -129.3 -6.4 -127.75 -6.4 -126.7 -5.65 -125.65 -4.9 -125.3 -3.55
L -121.7 -4.25
Q -122.25 -6.7 -124.1 -8.1 -126 -9.5 -129.3 -9.5 -131.9 -9.5 -133.6 -8.6 -135.85 -7.45 -137.05 -5.3 -138.2 -3.1 -138.2 -0.3 -138.2 2.25 -137.15 4.45 -136.1 6.65 -134 7.85 -131.95 9 -129.1 9 -126.9 9 -124.75 8.2 -122.6 7.35 -121.45 6.25
L -121.45 -0.9 -129.25 -0.9 -129.25 2.1 -125.1 2.1 -125.1 4.4
Q -125.95 5.05 -127.05 5.5 -128.2 5.9 -129.35 5.9 -131.65 5.9 -133.05 4.35 -134.5 2.75 -134.5 -0.45 Z"/>
</g>
</g>
</g>
</g>
</g>
</svg>
