
<svg xmlns="http://www.w3.org/2000/svg" version="1.1" xmlns:xlink="http://www.w3.org/1999/xlink" preserveAspectRatio="none" x="0px" y="0px" width="118px" height="60px" viewBox="0 0 118 60">
<defs>
<linearGradient id="Gradient_1" gradientUnits="userSpaceOnUse" x1="-7.4" y1="49.25" x2="-7.4" y2="-55.25" spreadMethod="pad">
<stop  offset="0%" stop-color="#FC1F1F"/>

<stop  offset="100%" stop-color="#670000"/>
</linearGradient>
</defs>

<g id="Layer_2">
<g transform="matrix( 0.37945556640625, 0, 0, 0.3766937255859375, 62.25,30.3) ">
<g>
<g>
<path fill="url(#Gradient_1)" stroke="none" d="
M 126.9 -57.85
L -141.7 -57.85 -141.7 57.85 126.9 57.85 126.9 -57.85 Z"/>
</g>
</g>

<g transform="matrix( 2.635345458984375, 0, 0, 2.6546630859375, -164.05,-80.4) ">
<path stroke="#000000" stroke-width="17" stroke-linejoin="round" stroke-linecap="round" fill="none" d="
M 8.48114624023438 8.508267974853517
L 110.40291137695313 8.508267974853517 110.40291137695313 52.091732025146484 8.48114624023438 52.091732025146484 8.48114624023438 8.508267974853517 Z"/>
</g>
</g>

<g transform="matrix( 0.37945556640625, 0, 0, 0.3766937255859375, 62.25,30.3) ">
<g>
<g>
<path fill="url(#Gradient_1)" stroke="none" d="
M 126.9 -57.85
L -141.7 -57.85 -141.7 57.85 126.9 57.85 126.9 -57.85 Z"/>
</g>
</g>
</g>

<g transform="matrix( 0.37945556640625, 0, 0, 0.37945556640625, 59.9,30.3) ">
<g>
<g>
<path fill="#000000" stroke="none" d="
M -44.7 -6.45
L -45.1 -11.1 -25.8 -11.45 -26.55 -22.65 -57.15 -21.4 -54.55 19.85 -23.95 19.85 -23.95 8 -43.7 9.05 -44 4.1 -28.15 3 -28.8 -7.6 -44.7 -6.45
M 25.5 -21.9
Q 23.15 -21.45 20.95 -20.55
L 19.25 19.95
Q 21.6 20.2 23.75 20.3 25.9 20.4 27.9 20.4 41.3 20.4 48.1 15.45 54.9 10.45 54.9 0.35 54.9 -4.9 52.8 -9.1 50.7 -13.25 47.25 -16.25 43.75 -19.2 39.3 -20.75 34.85 -22.3 30.25 -22.3 27.85 -22.3 25.5 -21.9
M 32.45 -9.5
Q 37.1 -9.5 39.9 -7.3 42.7 -5.1 42.7 -1 42.7 1.5 41.85 3.35 40.95 5.2 39.5 6.4 38.05 7.65 36.25 8.25 34.4 8.9 32.45 8.9 32 8.9 31.6 8.85 31.2 8.85 30.8 8.8
L 31.7 -9.5 32.45 -9.5
M 4.5 -22.25
L 4.55 -2.55 -11.2 -20.7 -21.95 -21.5 -21.55 19.85 -8.8 19.85 -8.8 2.45 6.2 19.85 17 19.85 17 -22.65 4.5 -22.25 Z"/>
</g>
</g>

<g transform="matrix( 2.635345458984375, 0, 0, 2.635345458984375, -157.85,-79.85) ">
<path stroke="#FC1F1F" stroke-width="15" stroke-linejoin="round" stroke-linecap="round" fill="none" d="
M 62.25262451171875 37.832192993164064
L 56.560791015625 31.229666137695315 56.560791015625 37.832192993164064 51.72273254394531 37.832192993164064 51.57095031738281 22.141705322265626 55.65009765625 22.445269775390628 61.626522827148435 29.332388305664065 61.607550048828124 21.857113647460938 66.35074462890626 21.70533142089844 66.35074462890626 37.832192993164064 62.25262451171875 37.832192993164064 Z
M 67.84959411621094 22.50218811035156
Q 68.68439636230468 22.16067810058594 69.57611694335938 21.989923095703126 70.46783752441407 21.838140869140624 71.37853088378907 21.838140869140624 73.12402648925782 21.838140869140624 74.81260375976562 22.426296997070313 76.50118103027344 23.014453125000003 77.82927551269532 24.133847045898438 79.13839721679688 25.272213745117188 79.93525390625 26.846954345703125 80.73211059570312 28.440667724609376 80.73211059570312 30.43280944824219 80.73211059570312 34.26531066894531 78.15181274414063 36.16258850097656 75.57151489257812 38.0408935546875 70.48681030273437 38.0408935546875 69.72789916992187 38.0408935546875 68.91206970214844 38.00294799804688 68.096240234375 37.96500244140625 67.20451965332032 37.870138549804686
L 67.84959411621094 22.50218811035156 Z
M 71.5872314453125 33.639208984375
Q 71.739013671875 33.658181762695314 71.8907958984375 33.658181762695314 72.042578125 33.677154541015625 72.21333312988281 33.677154541015625 72.953271484375 33.677154541015625 73.65526428222657 33.43050842285156 74.33828430175781 33.20283508300781 74.88849487304688 32.728515625 75.43870544433594 32.2731689453125 75.78021545410157 31.57117614746094 76.10275268554688 30.869183349609376 76.10275268554688 29.92054443359375 76.10275268554688 28.364776611328125 75.04027709960937 27.529974365234377 73.97780151367188 26.695172119140626 72.21333312988281 26.695172119140626
L 71.92874145507812 26.695172119140626 71.5872314453125 33.639208984375 Z
M 43.31779174804687 33.734072875976565
L 50.81203918457031 33.33564453125 50.81203918457031 37.832192993164064 39.20069885253906 37.832192993164064 38.214114379882815 22.17965087890625 49.82545471191406 21.70533142089844 50.11004638671875 25.95523376464844 42.78655395507812 26.088043212890625 42.93833618164062 27.852511596679687 48.9716796875 27.4161376953125 49.218325805664065 31.43836669921875 43.203955078125 31.855767822265626 43.31779174804687 33.734072875976565 Z"/>
</g>
</g>

<g transform="matrix( 1, 0, 0, 1, -2.35,0) ">
<g>
<g>
<path fill="#000000" stroke="none" d="
M 52.15 21.65
L 40.55 22.15 41.5 37.8 53.15 37.8 53.15 33.3 45.65 33.7 45.5 31.8 51.55 31.4 51.3 27.4 45.25 27.8 45.1 26.05 52.45 25.9 52.15 21.65
M 68.7 21.65
L 63.95 21.8 63.95 29.3 58 22.4 53.9 22.1 54.05 37.8 58.9 37.8 58.9 31.2 64.55 37.8 68.7 37.8 68.7 21.65
M 83.05 30.4
Q 83.05 28.4 82.25 26.8 81.45 25.25 80.15 24.1 78.85 23 77.15 22.4 75.45 21.8 73.7 21.8 72.8 21.8 71.9 21.95 71 22.1 70.15 22.45
L 69.55 37.85
Q 70.4 37.95 71.25 37.95 72.05 38 72.8 38 77.9 38 80.5 36.1 83.05 34.25 83.05 30.4
M 77.35 27.5
Q 78.45 28.35 78.45 29.9 78.45 30.85 78.1 31.55 77.75 32.25 77.2 32.7 76.65 33.15 76 33.4 75.3 33.65 74.55 33.65 74.35 33.65 74.25 33.65 74.05 33.6 73.9 33.6
L 74.25 26.65 74.55 26.65
Q 76.3 26.65 77.35 27.5 Z"/>
</g>
</g>
</g>
</g>
</svg>
