
<svg xmlns="http://www.w3.org/2000/svg" version="1.1" xmlns:xlink="http://www.w3.org/1999/xlink" preserveAspectRatio="none" x="0px" y="0px" width="114px" height="33px" viewBox="0 0 114 33">
<defs/>

<g id="Layer_1">
<g id="Layer_7" transform="matrix( 1, 0, 0, 1, 57.25,16.5) ">
<g transform="matrix( 1.0466156005859375, 0, 0, 1, 213.65,0) ">
<g>
<g>
<path fill="#0E35A1" stroke="none" d="
M -149.5 -16.5
L -258.85 -16.5
Q -258.843359375 0.8650390625 -258.85 16.5
L -149.45 16.5
Q -149.5 0.9 -149.5 -16.5 Z"/>
</g>
</g>
</g>
</g>

<g id="Layer_5" transform="matrix( 1, 0, 0, 1, 57.25,16.5) ">
<g transform="matrix( 1, 0, 0, 1, 206.45,0) ">
<g>
<g>
<path fill="#FFFFFF" stroke="none" d="
M -169.55 -0.4
Q -169.9 -0.65 -169.9 -1 -169.9 -1.45 -169.5 -1.7 -168.95 -2.1 -167.55 -2.1 -166.5 -2.1 -165.9 -1.7 -165.35 -1.3 -165.15 -0.55
L -161.9 -1.15
Q -162.4 -2.8 -163.7 -3.7 -164.95 -4.55 -167.65 -4.55 -170.45 -4.55 -171.75 -3.4 -173.1 -2.25 -173.1 -0.6 -173.1 1.3 -171.55 2.35 -170.45 3.1 -166.3 4 -165.4 4.2 -165.15 4.45 -164.9 4.7 -164.9 5.1 -164.9 5.7 -165.35 6.05 -166 6.5 -167.35 6.5 -168.55 6.5 -169.25 6 -169.9 5.5 -170.1 4.5
L -173.55 5
Q -173.1 6.85 -171.55 7.9 -170 9 -167.35 9 -164.45 9 -162.95 7.7 -161.45 6.45 -161.45 4.65 -161.45 3 -162.55 2.1 -163.6 1.2 -166.35 0.55 -169.1 -0.05 -169.55 -0.4
M -185.15 -3.7
Q -186.7 -2.85 -187.55 -1.25 -188.4 0.35 -188.4 2.05 -188.4 4.25 -187.55 5.85 -186.7 7.4 -185.1 8.2 -183.5 9 -181.7 9 -178.8 9 -176.9 7.05 -175 5.1 -175 2.2 -175 -0.75 -176.9 -2.65 -178.8 -4.55 -181.7 -4.55 -183.65 -4.55 -185.15 -3.7
M -181.7 -1.75
Q -180.35 -1.75 -179.45 -0.75 -178.55 0.3 -178.55 2.2 -178.55 4.15 -179.45 5.15 -180.35 6.2 -181.7 6.2 -183.05 6.2 -183.95 5.15 -184.9 4.15 -184.9 2.2 -184.9 0.3 -183.95 -0.75 -183.05 -1.75 -181.7 -1.75
M -206.4 -0.25
Q -206.15 -1.1 -205.5 -1.5 -204.85 -1.95 -204.05 -1.95 -203.4 -1.95 -203 -1.65 -202.65 -1.4 -202.45 -0.85 -202.25 -0.3 -202.25 1.6
L -202.25 8.7 -198.85 8.7 -198.85 2.45
Q -198.85 0.65 -198.55 -0.2 -198.3 -1.05 -197.65 -1.5 -197 -1.95 -196.3 -1.95 -195.3 -1.95 -194.85 -1.2 -194.45 -0.65 -194.45 1.3
L -194.45 8.7 -191.05 8.7 -191.05 0.4
Q -191.05 -1.45 -191.4 -2.25 -191.9 -3.4 -192.9 -3.95 -193.85 -4.55 -195.3 -4.55 -196.4 -4.55 -197.4 -4.05 -198.4 -3.55 -199.25 -2.5 -199.85 -3.55 -200.75 -4.05 -201.65 -4.55 -202.9 -4.55 -205.25 -4.55 -206.95 -2.5
L -206.95 -4.25 -210.1 -4.25 -210.1 8.7 -206.7 8.7 -206.7 2.4
Q -206.7 0.55 -206.4 -0.25
M -219.2 -4.55
Q -221.15 -4.55 -222.65 -3.7 -224.2 -2.85 -225.05 -1.25 -225.9 0.35 -225.9 2.05 -225.9 4.25 -225.05 5.85 -224.2 7.4 -222.6 8.2 -221 9 -219.2 9 -216.3 9 -214.4 7.05 -212.5 5.1 -212.5 2.2 -212.5 -0.75 -214.4 -2.65 -216.3 -4.55 -219.2 -4.55
M -219.2 -1.75
Q -217.85 -1.75 -216.95 -0.75 -216.05 0.3 -216.05 2.2 -216.05 4.15 -216.95 5.15 -217.85 6.2 -219.2 6.2 -220.55 6.2 -221.45 5.15 -222.4 4.15 -222.4 2.2 -222.4 0.3 -221.45 -0.75 -220.55 -1.75 -219.2 -1.75
M -230.5 -1.1
Q -230 -1.5 -229.3 -1.5 -228.55 -1.5 -227.65 -0.9
L -226.6 -3.9
Q -227.7 -4.55 -228.85 -4.55 -229.7 -4.55 -230.35 -4.15 -231 -3.75 -231.8 -2.4
L -231.8 -4.25 -235 -4.25 -235 8.7 -231.55 8.7 -231.55 4.7
Q -231.55 1.4 -231.3 0.35 -231 -0.7 -230.5 -1.1
M -245.7 -9.2
L -251.5 -9.2 -251.5 8.7 -247.85 8.7 -247.85 1.95 -245.5 1.95
Q -243.05 1.95 -241.75 1.7 -240.8 1.5 -239.9 0.85 -238.95 0.2 -238.35 -0.9 -237.75 -2.05 -237.75 -3.7 -237.75 -5.85 -238.8 -7.15 -239.85 -8.5 -241.4 -8.95 -242.4 -9.2 -245.7 -9.2
M -247.85 -6.15
L -246.1 -6.15
Q -244.15 -6.15 -243.5 -6.05 -242.65 -5.9 -242.05 -5.25 -241.5 -4.6 -241.5 -3.65 -241.5 -2.85 -241.9 -2.25 -242.3 -1.65 -243.05 -1.35 -243.75 -1.1 -245.9 -1.1
L -247.85 -1.1 -247.85 -6.15 Z"/>
</g>
</g>
</g>
</g>
</g>
</svg>
