
<svg xmlns="http://www.w3.org/2000/svg" version="1.1" xmlns:xlink="http://www.w3.org/1999/xlink" preserveAspectRatio="none" x="0px" y="0px" width="155px" height="35px" viewBox="0 0 155 35">
<defs/>

<g id="Layer_1">
<g id="Layer_1" transform="matrix( 0.899993896484375, 0, 0, 0.899993896484375, 77.8,17.55) "/>

<g id="Layer_7" transform="matrix( 0.899993896484375, 0, 0, 0.899993896484375, 77.8,17.55) ">
<g transform="matrix( 1, 0, 0, 1, -163.2,0) ">
<g>
<g>
<path fill="#CAA800" stroke="none" d="
M 244 -13.8
Q 238.2830078125 -19.5056640625 230.2 -19.5
L 76.75 -19.5 76.75 19.5 230.2 19.5
Q 238.2830078125 19.5056640625 244 13.8 249.7056640625 8.0830078125 249.7 0 249.7056640625 -8.0830078125 244 -13.8 Z"/>
</g>
</g>
</g>
</g>

<g id="Layer_6" transform="matrix( 0.899993896484375, 0, 0, 0.899993896484375, 77.8,17.55) "/>

<g id="Layer_3" transform="matrix( 0.899993896484375, 0, 0, 0.899993896484375, 77.8,17.55) "/>

<g id="Layer_4" transform="matrix( 0.899993896484375, 0, 0, 0.899993896484375, 77.8,17.55) "/>

<g id="Layer_5" transform="matrix( 0.899993896484375, 0, 0, 0.899993896484375, 77.8,17.55) ">
<g>
<g>
<g>
<path fill="#FFFFFF" stroke="none" d="
M 46.3 -0.4
Q 45.95 -0.65 45.95 -1 45.95 -1.45 46.35 -1.7 46.9 -2.1 48.3 -2.1 49.35 -2.1 49.95 -1.7 50.5 -1.3 50.7 -0.55
L 53.95 -1.15
Q 53.45 -2.8 52.15 -3.7 50.9 -4.55 48.2 -4.55 45.4 -4.55 44.1 -3.4 42.75 -2.25 42.75 -0.6 42.75 1.3 44.3 2.35 45.4 3.1 49.55 4 50.45 4.2 50.7 4.45 50.95 4.7 50.95 5.1 50.95 5.7 50.5 6.05 49.85 6.5 48.5 6.5 47.3 6.5 46.6 6 45.95 5.5 45.75 4.5
L 42.3 5
Q 42.75 6.85 44.3 7.9 45.85 9 48.5 9 51.4 9 52.9 7.7 54.4 6.45 54.4 4.65 54.4 3 53.3 2.1 52.25 1.2 49.5 0.55 46.75 -0.05 46.3 -0.4
M 38.9 -3.55
Q 37.5 -4.55 35.1 -4.55 32.25 -4.55 30.55 -2.75 28.85 -1 28.85 2.25 28.85 5.4 30.55 7.2 32.2 9 35.05 9 37.55 9 39.05 7.8 40.55 6.6 41.05 4.3
L 37.7 3.75
Q 37.45 5.1 36.8 5.65 36.2 6.2 35.2 6.2 33.9 6.2 33.15 5.25 32.35 4.3 32.35 2 32.35 -0.1 33.15 -0.95 33.9 -1.85 35.15 -1.85 36.15 -1.85 36.75 -1.35 37.35 -0.85 37.5 0.2
L 40.9 -0.45
Q 40.3 -2.5 38.9 -3.55
M 22.65 -6
L 26.05 -6 26.05 -9.2 22.65 -9.2 22.65 -6
M 26.05 -4.25
L 22.65 -4.25 22.65 8.7 26.05 8.7 26.05 -4.25
M 12.9 -1.55
L 14.45 -1.55 14.45 4.1
Q 14.45 5.95 14.55 6.55 14.7 7.4 15.05 7.9 15.4 8.35 16.15 8.7 16.9 9 17.8 9 19.3 9 20.5 8.5
L 20.25 5.8
Q 19.3 6.15 18.85 6.15 18.5 6.15 18.25 6 18.05 5.8 17.95 5.55 17.9 5.3 17.9 3.7
L 17.9 -1.55 20.25 -1.55 20.25 -4.25 17.9 -4.25 17.9 -8.85 14.45 -6.85 14.45 -4.25 12.9 -4.25 12.9 -1.55
M 12.1 -4.25
L 8.55 -4.25 5.5 4.95 2.4 -4.25 -1.25 -4.25 3.7 8.75
Q 3.4 9.8 2.8 10.55 2.25 11.25 1.05 11.25 0.4 11.25 -0.4 11.05
L -0.1 13.75
Q 0.85 13.95 1.85 13.95 2.8 13.95 3.6 13.75 4.35 13.55 4.9 13.2 5.45 12.8 5.85 12.2 6.25 11.6 6.7 10.45
L 12.1 -4.25
M -3.15 -9.2
L -6.55 -9.2 -6.55 8.7 -3.15 8.7 -3.15 -9.2
M -17.9 -0.3
Q -17.55 -1.2 -17.05 -1.55 -16.55 -1.95 -15.65 -1.95 -14.3 -1.95 -13.8 -1.5 -13.3 -1.1 -13.3 -0.1
L -13.3 0.25
Q -14.25 0.65 -16.65 1.1 -18.4 1.4 -19.35 1.9 -20.3 2.35 -20.85 3.2 -21.35 4.05 -21.35 5.15 -21.35 6.8 -20.2 7.9 -19.05 9 -17.05 9 -15.9 9 -14.9 8.55 -13.9 8.15 -13.05 7.3 -13 7.4 -12.9 7.7 -12.7 8.35 -12.6 8.7
L -9.2 8.7
Q -9.65 7.75 -9.8 6.95 -9.95 6.15 -9.95 4.45
L -9.95 0.45
Q -9.95 -1.8 -10.4 -2.65 -10.85 -3.45 -11.95 -4 -13.1 -4.55 -15.4 -4.55 -17.9 -4.55 -19.2 -3.65 -20.5 -2.75 -21 -0.85
L -17.9 -0.3
M -13.45 4.85
Q -13.65 5.5 -14.25 5.95 -15.1 6.6 -16 6.6 -16.85 6.6 -17.4 6.05 -17.95 5.55 -17.95 4.8 -17.95 4.05 -17.25 3.6 -16.8 3.3 -15.4 3 -13.95 2.7 -13.3 2.45
L -13.3 3.15
Q -13.3 4.4 -13.45 4.85
M -32.55 -2.35
L -32.55 -4.25 -35.75 -4.25 -35.75 8.7 -32.3 8.7 -32.3 2.85
Q -32.3 0.65 -32.05 -0.15 -31.75 -0.95 -31.05 -1.45 -30.35 -1.95 -29.45 -1.95 -28.75 -1.95 -28.25 -1.6 -27.8 -1.25 -27.55 -0.65 -27.35 0 -27.35 2.1
L -27.35 8.7 -23.9 8.7 -23.9 0.65
Q -23.9 -0.85 -24.1 -1.65 -24.3 -2.45 -24.75 -3.1 -25.25 -3.75 -26.2 -4.15 -27.15 -4.55 -28.25 -4.55 -30.85 -4.55 -32.55 -2.35
M -44.75 -9.2
L -48.6 -9.2 -55.55 8.7 -51.7 8.7 -50.25 4.65 -43.1 4.65 -41.5 8.7 -37.6 8.7 -44.75 -9.2
M -44.25 1.6
L -49.15 1.6 -46.7 -5 -44.25 1.6 Z"/>
</g>
</g>
</g>
</g>
</g>
</svg>
