
<svg xmlns="http://www.w3.org/2000/svg" version="1.1" xmlns:xlink="http://www.w3.org/1999/xlink" preserveAspectRatio="none" x="0px" y="0px" width="159px" height="57px" viewBox="0 0 159 57">
<defs>
<linearGradient id="Gradient_1" gradientUnits="userSpaceOnUse" x1="-192.925" y1="206.25" x2="-19.974999999999994" y2="206.25" spreadMethod="pad">
<stop  offset="0%" stop-color="#1FD6FC"/>

<stop  offset="100%" stop-color="#0261E6"/>
</linearGradient>
</defs>

<g id="Layer_2">
<g transform="matrix( 0.899993896484375, 0, 0, 0.899993896484375, 175.4,-156.9) ">
<g>
<g>
<path fill="url(#Gradient_1)" stroke="none" d="
M -23.75 178.95
Q -27.6 176 -33 176
L -179.85 176
Q -185.25 176 -189.1 178.95 -192.9 181.9 -192.9 186.1
L -192.9 226.45
Q -192.9 230.65 -189.1 233.6 -185.25 236.55 -179.85 236.55
L -33 236.55
Q -27.6 236.55 -23.75 233.6 -19.95 230.65 -19.95 226.45
L -19.95 186.1
Q -19.95 181.9 -23.75 178.95 Z"/>
</g>
</g>

<g transform="matrix( 1.111114501953125, 0, 0, 1.111114501953125, -194.85,174.3) ">
<path stroke="#FFFFFF" stroke-width="3" stroke-linejoin="round" stroke-linecap="round" fill="none" d="
M 145.70020141601563 1.4989257812499943
L 13.536097717285173 1.4989257812499943
Q 8.676130676269537 1.4989257812499943 5.2111541748047046 4.153907775878878 1.7911773681640568 6.808889770507818 1.7911773681640568 10.58886413574217
L 1.7911773681640568 46.90361785888669
Q 1.7911773681640568 50.6835922241211 5.2111541748047046 53.33857421874998 8.676130676269537 55.99355621337892 13.536097717285173 55.99355621337892
L 145.70020141601563 55.99355621337892
Q 150.56016845703124 55.99355621337892 154.0251449584961 53.33857421874998 157.44512176513672 50.6835922241211 157.44512176513672 46.90361785888669
L 157.44512176513672 10.58886413574217
Q 157.44512176513672 6.808889770507818 154.0251449584961 4.153907775878878 150.56016845703124 1.4989257812499943 145.70020141601563 1.4989257812499943 Z"/>
</g>
</g>

<g transform="matrix( 1, 0, 0, 1, 0.3,0.5) ">
<g>
<g>
<path fill="#FFFFFF" stroke="none" d="
M 79.6 23.5
Q 78.65 21.45 77 19.9 75.35 18.35 73.15 17.45 71 16.55 68.7 16.55 66.35 16.55 64.15 17.45 62 18.4 60.35 19.95 58.7 21.5 57.7 23.6 56.7 25.7 56.7 28.1 56.7 30.45 57.7 32.55 58.7 34.65 60.35 36.2 62 37.8 64.15 38.7 66.25 39.65 68.55 39.65 70.9 39.65 73.1 38.7 75.3 37.8 76.95 36.25 78.65 34.7 79.6 32.55 80.65 30.45 80.65 28 80.65 25.6 79.6 23.5
M 64.9 24.7
Q 65.6 24.05 66.5 23.6 67.4 23.2 68.4 23.2 69.4 23.2 70.25 23.6 71.15 24 71.85 24.7 72.55 25.35 72.95 26.25 73.35 27.15 73.35 28.1 73.35 29.05 72.95 29.9 72.5 30.75 71.85 31.45 71.15 32.1 70.3 32.45 69.4 32.85 68.5 32.85 67.55 32.85 66.65 32.45 65.75 32.1 65.05 31.45 64.35 30.85 63.9 30 63.4 29.15 63.4 28.2 63.4 27.2 63.85 26.3 64.2 25.4 64.9 24.7
M 100.45 20.55
L 95.6 16.15 87.75 24.15 87.75 16.7 81.65 16.7 81.65 39.35 87.75 39.35 87.75 33.1 89.55 31.5 96.8 40.4 101.9 35.95 94.25 26.95 100.45 20.55 Z"/>
</g>
</g>
</g>
</g>
</svg>
