
<svg xmlns="http://www.w3.org/2000/svg" version="1.1" xmlns:xlink="http://www.w3.org/1999/xlink" preserveAspectRatio="none" x="0px" y="0px" width="155px" height="35px" viewBox="0 0 155 35">
<defs/>

<g id="Layer_1">
<g id="Layer_1" transform="matrix( 0.899993896484375, 0, 0, 0.899993896484375, 77.85,17.55) "/>

<g id="Layer_7" transform="matrix( 0.899993896484375, 0, 0, 0.899993896484375, 77.85,17.55) ">
<g transform="matrix( 1, 0, 0, 1, 163.2,0) ">
<g>
<g>
<path fill="#CAA800" stroke="none" d="
M -230.2 -19.5
Q -238.2830078125 -19.5056640625 -244 -13.8 -249.7056640625 -8.0830078125 -249.7 0 -249.7056640625 8.0830078125 -244 13.8 -238.2830078125 19.5056640625 -230.2 19.5
L -76.7 19.5 -76.7 -19.5 -230.2 -19.5 Z"/>
</g>
</g>
</g>
</g>

<g id="Layer_6" transform="matrix( 0.899993896484375, 0, 0, 0.899993896484375, 77.85,17.55) "/>

<g id="Layer_3" transform="matrix( 0.899993896484375, 0, 0, 0.899993896484375, 77.85,17.55) "/>

<g id="Layer_4" transform="matrix( 0.899993896484375, 0, 0, 0.899993896484375, 77.85,17.55) ">
<g>
<g>
<g>
<path fill="#FFFFFF" stroke="none" d="
M 25 -4.15
Q 24.35 -3.75 23.55 -2.4
L 23.55 -4.25 20.35 -4.25 20.35 8.7 23.8 8.7 23.8 4.7
Q 23.8 1.4 24.05 0.35 24.35 -0.7 24.85 -1.1 25.35 -1.5 26.05 -1.5 26.8 -1.5 27.7 -0.9
L 28.75 -3.9 33.55 8.75
Q 33.25 9.8 32.65 10.55 32.1 11.25 30.9 11.25 30.25 11.25 29.45 11.05
L 29.75 13.75
Q 30.7 13.95 31.7 13.95 32.65 13.95 33.45 13.75 34.2 13.55 34.75 13.2 35.3 12.8 35.7 12.2 36.1 11.6 36.55 10.45
L 41.95 -4.25 38.4 -4.25 35.35 4.95 32.25 -4.25 28.6 -4.25 28.7 -3.9
Q 27.6388671875 -4.55 26.5 -4.55 25.65 -4.55 25 -4.15
M 9.15 -0.3
Q 9.5 -1.2 10 -1.55 10.5 -1.95 11.4 -1.95 12.75 -1.95 13.25 -1.5 13.75 -1.1 13.75 -0.1
L 13.75 0.25
Q 12.8 0.65 10.4 1.1 8.65 1.4 7.7 1.9 6.75 2.35 6.2 3.2 5.7 4.05 5.7 5.15 5.7 6.8 6.85 7.9 8 9 10 9 11.15 9 12.15 8.55 13.15 8.15 14 7.3 14.05 7.4 14.15 7.7 14.35 8.35 14.45 8.7
L 17.85 8.7
Q 17.4 7.75 17.25 6.95 17.1 6.15 17.1 4.45
L 17.1 0.45
Q 17.1 -1.8 16.65 -2.65 16.2 -3.45 15.1 -4 13.95 -4.55 11.65 -4.55 9.15 -4.55 7.85 -3.65 6.55 -2.75 6.05 -0.85
L 9.15 -0.3
M 13.75 2.45
L 13.75 3.15
Q 13.75 4.4 13.6 4.85 13.4 5.5 12.8 5.95 11.95 6.6 11.05 6.6 10.2 6.6 9.65 6.05 9.1 5.55 9.1 4.8 9.1 4.05 9.8 3.6 10.25 3.3 11.65 3 13.1 2.7 13.75 2.45
M 1.2 -1.1
Q 1.7 -1.5 2.4 -1.5 3.15 -1.5 4.05 -0.9
L 5.1 -3.9
Q 4 -4.55 2.85 -4.55 2 -4.55 1.35 -4.15 0.7 -3.75 -0.1 -2.4
L -0.1 -4.25 -3.3 -4.25 -3.3 8.7 0.15 8.7 0.15 4.7
Q 0.15 1.4 0.4 0.35 0.7 -0.7 1.2 -1.1
M -7.45 -2.85
Q -9 -4.55 -11.35 -4.55 -13.55 -4.55 -15.1 -2.75
L -15.1 -9.2 -18.55 -9.2 -18.55 8.7 -15.35 8.7 -15.35 6.8
Q -14.6 7.9 -13.5 8.45 -12.4 9 -11.3 9 -9.05 9 -7.45 7.2 -5.9 5.4 -5.9 2.1 -5.9 -1.15 -7.45 -2.85
M -14.35 -0.95
Q -13.5 -1.95 -12.3 -1.95 -11 -1.95 -10.2 -0.95 -9.4 0.05 -9.4 2.25 -9.4 4.35 -10.2 5.3 -11 6.3 -12.15 6.3 -13.6 6.3 -14.5 4.9 -15.15 3.95 -15.15 1.95 -15.15 0 -14.35 -0.95
M -25.35 -6
L -21.95 -6 -21.95 -9.2 -25.35 -9.2 -25.35 -6
M -21.95 -4.25
L -25.35 -4.25 -25.35 8.7 -21.95 8.7 -21.95 -4.25
M -36.85 -9.05
L -40.5 -9.05 -40.5 8.7 -27.9 8.7 -27.9 5.7 -36.85 5.7 -36.85 -9.05 Z"/>
</g>
</g>
</g>
</g>

<g id="Layer_5" transform="matrix( 0.899993896484375, 0, 0, 0.899993896484375, 77.85,17.55) "/>
</g>
</svg>
