
<svg xmlns="http://www.w3.org/2000/svg" version="1.1" xmlns:xlink="http://www.w3.org/1999/xlink" preserveAspectRatio="none" x="0px" y="0px" width="652px" height="455px" viewBox="0 0 652 455">
<defs>
<linearGradient id="Gradient_1" gradientUnits="userSpaceOnUse" x1="-271.65" y1="-0.05" x2="306.25" y2="-0.05" spreadMethod="pad">
<stop  offset="0%" stop-color="#DEDEDE"/>

<stop  offset="100%" stop-color="#A3A3A3"/>
</linearGradient>
</defs>

<g id="Layer_2">
<g transform="matrix( 1, 0, 0, 1, 326.45,237.9) ">
<g>
<g>
<path fill="url(#Gradient_1)" stroke="none" d="
M 319 -230.2
Q 313.25 -236.4 305.05 -236.4
L -305.55 -236.4
Q -313.5 -236.25 -319.15 -230.2 -324.95 -224 -324.95 -215.3
L -324.95 194.95
Q -324.95 203.7 -319.15 209.85 -313.5 215.9 -305.55 216.05
L 305.05 216.05
Q 313.25 216.05 319 209.85 324.8 203.7 324.8 194.95
L 324.8 -215.3
Q 324.8 -224 319 -230.2 Z"/>
</g>
</g>

<g>
<path stroke="#666666" stroke-width="3" stroke-linejoin="round" stroke-linecap="round" fill="none" d="
M -324.95 194.95
L -324.95 -215.3
Q -324.95 -224 -319.15 -230.2 -313.5 -236.25 -305.55 -236.4
L 305.05 -236.4
Q 313.25 -236.4 319 -230.2 324.8 -224 324.8 -215.3
L 324.8 194.95
Q 324.8 203.7 319 209.85 313.25 216.05 305.05 216.05
L -305.55 216.05
Q -313.5 215.9 -319.15 209.85 -324.95 203.7 -324.95 194.95 Z"/>
</g>
</g>
</g>
</svg>
