
<svg xmlns="http://www.w3.org/2000/svg" version="1.1" xmlns:xlink="http://www.w3.org/1999/xlink" preserveAspectRatio="none" x="0px" y="0px" width="44px" height="108px" viewBox="0 0 44 108">
<defs>
<linearGradient id="Gradient_1" gradientUnits="userSpaceOnUse" x1="608.2" y1="-35.525000000000006" x2="608.2" y2="45.525000000000006" spreadMethod="pad">
<stop  offset="0%" stop-color="#FFE465"/>

<stop  offset="100%" stop-color="#E0BA00"/>
</linearGradient>
</defs>

<g id="Layer_1">
<g transform="matrix( 1.25, 0, 0, 1.25, -738.05,54.35) ">
<g>
<g>
<path fill="url(#Gradient_1)" stroke="none" d="
M 597.6 -41.15
Q 596.95 -42.15 595.85 -42.5 594.75 -42.9 593.65 -42.5 592.6 -42.15 591.9 -41.15 591.25 -40.15 591.25 -38.95
L 591.25 38.95
Q 591.25 40.15 591.9 41.15 592.6 42.15 593.65 42.5 594.75 42.9 595.85 42.5 596.95 42.15 597.6 41.15
L 624.4 2.2
Q 625.1 1.25 625.1 0 625.1 -1.2 624.4 -2.15
L 597.6 -41.15 Z"/>
</g>
</g>

<g transform="matrix( 0.79998779296875, 0, 0, 0.79998779296875, 590.4,-43.45) ">
<path stroke="#CAA800" stroke-width="2" stroke-linejoin="round" stroke-linecap="round" fill="none" d="
M 1.0125000000000455 103.0375
L 1.0125000000000455 5.662500000000001
Q 1.0125000000000455 4.162500000000001 1.8250000000000455 2.9125000000000014 2.7000000000000455 1.6625000000000014 4.0125000000000455 1.2250000000000014 5.3875000000000455 0.7250000000000014 6.7625000000000455 1.2250000000000014 8.137500000000045 1.6625000000000014 8.950000000000045 2.9125000000000014
L 42.450000000000045 51.6625
Q 43.325000000000045 52.85 43.325000000000045 54.35 43.325000000000045 55.9125 42.450000000000045 57.1
L 8.950000000000045 105.7875
Q 8.137500000000045 107.0375 6.7625000000000455 107.475 5.3875000000000455 107.975 4.0125000000000455 107.475 2.7000000000000455 107.0375 1.8250000000000455 105.7875 1.0125000000000455 104.5375 1.0125000000000455 103.0375 Z"/>
</g>
</g>
</g>
</svg>
