
<svg xmlns="http://www.w3.org/2000/svg" version="1.1" xmlns:xlink="http://www.w3.org/1999/xlink" preserveAspectRatio="none" x="0px" y="0px" width="454px" height="98px" viewBox="0 0 454 98">
<defs>
<linearGradient id="Gradient_1" gradientUnits="userSpaceOnUse" x1="210.05" y1="-175.2625" x2="212.05" y2="-49.43749999999999" spreadMethod="pad">
<stop  offset="0%" stop-color="#FFE465"/>

<stop  offset="100%" stop-color="#E0BA00"/>
</linearGradient>
</defs>

<g id="Layer_2">
<g transform="matrix( 0.899993896484375, 0, 0, 0.899993896484375, 163.25,157.2) ">
<g>
<g>
<path fill="url(#Gradient_1)" stroke="none" d="
M 317.95 -168.85
Q 313.65 -173.55 307.5 -173.55
L -165.5 -173.55
Q -171.6 -173.55 -175.95 -168.85 -180.3 -164.2 -180.3 -157.6
L -180.3 -82.3
Q -180.3 -75.7 -175.95 -71.05 -171.6 -66.35 -165.5 -66.35
L 307.5 -66.35
Q 313.65 -66.35 317.95 -71.05 322.25 -75.7 322.25 -82.3
L 322.25 -157.6
Q 322.25 -164.2 317.95 -168.85 Z"/>
</g>
</g>

<g transform="matrix( 1.111114501953125, 0, 0, 1.111114501953125, -181.35,-174.65) ">
<path stroke="#CAA800" stroke-width="2" stroke-linejoin="round" stroke-linecap="round" fill="none" d="
M 439.9981231689453 1.0060592651366846
L 14.301010131835938 1.0060592651366846
Q 8.811047363281261 1.0060592651366846 4.8960739135742415 5.236030578613281 0.9811004638671648 9.421002197265636 0.9811004638671648 15.3609619140625
L 0.9811004638671648 83.13050231933593
Q 0.9811004638671648 89.0704620361328 4.8960739135742415 93.25543365478515 8.811047363281261 97.48540496826172 14.301010131835938 97.48540496826172
L 439.9981231689453 97.48540496826172
Q 445.5330856323242 97.48540496826172 449.403059387207 93.25543365478515 453.27303314208984 89.0704620361328 453.27303314208984 83.13050231933593
L 453.27303314208984 15.3609619140625
Q 453.27303314208984 9.421002197265636 449.403059387207 5.236030578613281 445.5330856323242 1.0060592651366846 439.9981231689453 1.0060592651366846 Z"/>
</g>
</g>
</g>
</svg>
