
<svg xmlns="http://www.w3.org/2000/svg" version="1.1" xmlns:xlink="http://www.w3.org/1999/xlink" preserveAspectRatio="none" x="0px" y="0px" width="124px" height="33px" viewBox="0 0 124 33">
<defs/>

<g id="Layer_1">
<g id="Layer_7" transform="matrix( 1, 0, 0, 1, 62.3,16.5) ">
<g transform="matrix( 1, 0, 0, 1, 326.15,0) ">
<g>
<g>
<path fill="#0E35A1" stroke="none" d="
M -371.95 -16.5
Q -378.788671875 -16.50390625 -383.65 -11.7 -388.45390625 -6.838671875 -388.45 0 -388.45390625 6.8384765625 -383.65 11.65 -378.788671875 16.5037109375 -371.95 16.5
L -263.95 16.5
Q -263.9431640625 0.1931640625 -263.95 -16.5
L -371.95 -16.5 Z"/>
</g>
</g>
</g>
</g>

<g id="Layer_5" transform="matrix( 1, 0, 0, 1, 62.3,16.5) ">
<g transform="matrix( 1, 0, 0, 1, 314.55,0) ">
<g>
<g>
<path fill="#FFFFFF" stroke="none" d="
M -285.65 -3.4
Q -287 -2.25 -287 -0.6 -287 1.3 -285.45 2.35 -284.35 3.1 -280.2 4 -279.3 4.2 -279.05 4.45 -278.8 4.7 -278.8 5.1 -278.8 5.7 -279.25 6.05 -279.9 6.5 -281.25 6.5 -282.45 6.5 -283.15 6 -283.8 5.5 -284 4.5
L -287.45 5
Q -287 6.85 -285.45 7.9 -283.9 9 -281.25 9 -278.35 9 -276.85 7.7 -275.35 6.45 -275.35 4.65 -275.35 3 -276.45 2.1 -277.5 1.2 -280.25 0.55 -283 -0.05 -283.45 -0.4 -283.8 -0.65 -283.8 -1 -283.8 -1.45 -283.4 -1.7 -282.85 -2.1 -281.45 -2.1 -280.4 -2.1 -279.8 -1.7 -279.25 -1.3 -279.05 -0.55
L -275.8 -1.15
Q -276.3 -2.8 -277.6 -3.7 -278.85 -4.55 -281.55 -4.55 -284.35 -4.55 -285.65 -3.4
M -304.05 -4.25
L -307.4 -4.25 -303.3 8.7 -299.95 8.7 -297.75 0.35 -295.5 8.7 -292.25 8.7 -288.05 -4.25 -291.45 -4.25 -293.95 4.25 -296.1 -4.25 -299.4 -4.25 -301.65 4.25 -304.05 -4.25
M -318.5 -3.7
Q -320.05 -2.85 -320.9 -1.25 -321.75 0.35 -321.75 2.05 -321.75 4.25 -320.9 5.85 -320.05 7.4 -318.45 8.2 -316.85 9 -315.05 9 -312.15 9 -310.25 7.05 -308.35 5.1 -308.35 2.2 -308.35 -0.75 -310.25 -2.65 -312.15 -4.55 -315.05 -4.55 -317 -4.55 -318.5 -3.7
M -315.05 -1.75
Q -313.7 -1.75 -312.8 -0.75 -311.9 0.3 -311.9 2.2 -311.9 4.15 -312.8 5.15 -313.7 6.2 -315.05 6.2 -316.4 6.2 -317.3 5.15 -318.25 4.15 -318.25 2.2 -318.25 0.3 -317.3 -0.75 -316.4 -1.75 -315.05 -1.75
M -332.45 -0.25
Q -332.15 -1.1 -331.5 -1.5 -330.8 -1.95 -329.95 -1.95 -329.2 -1.95 -328.7 -1.6 -328.25 -1.3 -328.05 -0.75 -327.85 -0.2 -327.85 1.85
L -327.85 8.7 -324.4 8.7 -324.4 1.1
Q -324.4 -0.65 -324.6 -1.5 -324.75 -2.3 -325.25 -3 -325.75 -3.7 -326.7 -4.1 -327.65 -4.55 -328.8 -4.55 -331.15 -4.55 -332.8 -2.6
L -332.8 -9.2 -336.2 -9.2 -336.2 8.7 -332.8 8.7 -332.8 2.2
Q -332.8 0.55 -332.45 -0.25
M -350.1 -8.9
Q -351.55 -8.25 -352.3 -7.05 -353.1 -5.9 -353.1 -4.5 -353.1 -2.4 -351.45 -0.9 -350.3 0.15 -347.35 0.85 -345.1 1.4 -344.5 1.65 -343.55 1.95 -343.2 2.45 -342.8 2.85 -342.8 3.5 -342.8 4.5 -343.7 5.25 -344.6 5.95 -346.3 5.95 -347.95 5.95 -348.95 5.15 -349.9 4.3 -350.25 2.55
L -353.75 2.9
Q -353.4 5.9 -351.55 7.45 -349.75 9 -346.35 9 -344.05 9 -342.45 8.35 -340.9 7.7 -340.05 6.35 -339.2 5.05 -339.2 3.5 -339.2 1.8 -339.9 0.65 -340.6 -0.5 -341.9 -1.2 -343.15 -1.85 -345.8 -2.45 -348.4 -3.1 -349.1 -3.65 -349.65 -4.1 -349.65 -4.75 -349.65 -5.45 -349.05 -5.85 -348.2 -6.5 -346.6 -6.5 -345.1 -6.5 -344.3 -5.9 -343.55 -5.3 -343.3 -3.9
L -339.7 -4.1
Q -339.8 -6.55 -341.5 -8 -343.2 -9.5 -346.55 -9.5 -348.65 -9.5 -350.1 -8.9 Z"/>
</g>
</g>
</g>
</g>
</g>
</svg>
