
<svg xmlns="http://www.w3.org/2000/svg" version="1.1" xmlns:xlink="http://www.w3.org/1999/xlink" preserveAspectRatio="none" x="0px" y="0px" width="138px" height="35px" viewBox="0 0 138 35">
<defs/>

<g id="Layer_1">
<g id="Layer_1" transform="matrix( 0.899993896484375, 0, 0, 0.899993896484375, 69.05,17.55) "/>

<g id="Layer_7" transform="matrix( 0.899993896484375, 0, 0, 0.899993896484375, 69.05,17.55) ">
<g>
<g>
<g>
<path fill="#CAA800" stroke="none" d="
M 76.75 -19.5
L -76.7 -19.5 -76.7 19.5 76.75 19.5 76.75 -19.5 Z"/>
</g>
</g>
</g>
</g>

<g id="Layer_6" transform="matrix( 0.899993896484375, 0, 0, 0.899993896484375, 69.05,17.55) "/>

<g id="Layer_3" transform="matrix( 0.899993896484375, 0, 0, 0.899993896484375, 69.05,17.55) "/>

<g id="Layer_4" transform="matrix( 0.899993896484375, 0, 0, 0.899993896484375, 69.05,17.55) "/>

<g id="Layer_5" transform="matrix( 0.899993896484375, 0, 0, 0.899993896484375, 69.05,17.55) ">
<g>
<g>
<g>
<path fill="#FFFFFF" stroke="none" d="
M 61.55 -9.2
L 58.1 -9.2 58.1 -2.75
Q 56.5 -4.55 54.35 -4.55 52 -4.55 50.45 -2.85 48.9 -1.15 48.9 2.15 48.9 5.4 50.45 7.2 52.05 9 54.3 9 55.4 9 56.5 8.45 57.55 7.9 58.35 6.8
L 58.35 8.7 61.55 8.7 61.55 -9.2
M 53.2 -0.95
Q 54.05 -1.95 55.25 -1.95 56.5 -1.95 57.3 -0.95 58.1 0.05 58.1 2.25 58.1 4.25 57.3 5.3 56.45 6.3 55.25 6.3 53.8 6.3 52.95 4.95 52.4 4 52.4 1.95 52.4 0 53.2 -0.95
M 45.25 -2.65
Q 43.6 -4.55 40.7 -4.55 38.1 -4.55 36.45 -2.75 34.75 -0.9 34.75 2.3 34.75 5 36.05 6.8 37.65 9 41.05 9 43.15 9 44.6 8 46 7.05 46.65 5.15
L 43.25 4.55
Q 42.95 5.55 42.4 6 41.85 6.45 41.05 6.45 39.9 6.45 39.1 5.6 38.3 4.75 38.25 3.2
L 46.85 3.2
Q 46.95 -0.75 45.25 -2.65
M 40.9 -1.95
Q 41.95 -1.95 42.7 -1.15 43.4 -0.4 43.45 1.1
L 38.3 1.1
Q 38.3 -0.3 39.05 -1.1 39.75 -1.95 40.9 -1.95
M 32.2 -9.2
L 28.8 -9.2 28.8 8.7 32.2 8.7 32.2 -9.2
M 25.25 -4.25
L 21.85 -4.25 21.85 1.2
Q 21.85 4 21.6 4.7 21.3 5.4 20.6 5.9 19.95 6.4 19.05 6.4 18.3 6.4 17.8 6.05 17.3 5.65 17.1 5.05 16.9 4.45 16.9 1.7
L 16.9 -4.25 13.45 -4.25 13.45 3.95
Q 13.45 5.75 13.95 6.8 14.4 7.85 15.45 8.4 16.45 9 17.8 9 19.05 9 20.2 8.4 21.35 7.8 22.1 6.75
L 22.1 8.7 25.25 8.7 25.25 -4.25
M 10.2 -9.2
L 6.75 -9.2 6.75 -2.75
Q 5.15 -4.55 3 -4.55 0.65 -4.55 -0.9 -2.85 -2.45 -1.15 -2.45 2.15 -2.45 5.4 -0.9 7.2 0.7 9 2.95 9 4.05 9 5.15 8.45 6.2 7.9 7 6.8
L 7 8.7 10.2 8.7 10.2 -9.2
M 1.85 -0.95
Q 2.7 -1.95 3.9 -1.95 5.15 -1.95 5.95 -0.95 6.75 0.05 6.75 2.25 6.75 4.25 5.95 5.3 5.1 6.3 3.9 6.3 2.45 6.3 1.6 4.95 1.05 4 1.05 1.95 1.05 0 1.85 -0.95
M -6.1 -2.65
Q -7.75 -4.55 -10.65 -4.55 -13.25 -4.55 -14.9 -2.75 -16.6 -0.9 -16.6 2.3 -16.6 5 -15.3 6.8 -13.7 9 -10.3 9 -8.2 9 -6.75 8 -5.35 7.05 -4.7 5.15
L -8.1 4.55
Q -8.4 5.55 -8.95 6 -9.5 6.45 -10.3 6.45 -11.45 6.45 -12.25 5.6 -13.05 4.75 -13.1 3.2
L -4.5 3.2
Q -4.4 -0.75 -6.1 -2.65
M -12.3 -1.1
Q -11.6 -1.95 -10.45 -1.95 -9.4 -1.95 -8.65 -1.15 -7.95 -0.4 -7.9 1.1
L -13.05 1.1
Q -13.05 -0.3 -12.3 -1.1
M -27.1 -0.25
Q -26.8 -1.1 -26.15 -1.5 -25.45 -1.95 -24.6 -1.95 -23.85 -1.95 -23.35 -1.6 -22.9 -1.3 -22.7 -0.75 -22.5 -0.2 -22.5 1.85
L -22.5 8.7 -19.05 8.7 -19.05 1.1
Q -19.05 -0.65 -19.25 -1.5 -19.4 -2.3 -19.9 -3 -20.4 -3.7 -21.35 -4.1 -22.3 -4.55 -23.45 -4.55 -25.8 -4.55 -27.45 -2.6
L -27.45 -9.2 -30.85 -9.2 -30.85 8.7 -27.45 8.7 -27.45 2.2
Q -27.45 0.55 -27.1 -0.25
M -33.45 -0.45
Q -34.05 -2.5 -35.45 -3.55 -36.85 -4.55 -39.25 -4.55 -42.1 -4.55 -43.8 -2.75 -45.5 -1 -45.5 2.25 -45.5 5.4 -43.8 7.2 -42.15 9 -39.3 9 -36.8 9 -35.3 7.8 -33.8 6.6 -33.3 4.3
L -36.65 3.75
Q -36.9 5.1 -37.55 5.65 -38.15 6.2 -39.15 6.2 -40.45 6.2 -41.2 5.25 -42 4.3 -42 2 -42 -0.1 -41.2 -0.95 -40.45 -1.85 -39.2 -1.85 -38.2 -1.85 -37.6 -1.35 -37 -0.85 -36.85 0.2
L -33.45 -0.45
M -60.85 -7.05
Q -61.65 -5.9 -61.65 -4.5 -61.65 -2.4 -60 -0.9 -58.85 0.15 -55.9 0.85 -53.65 1.4 -53.05 1.65 -52.1 1.95 -51.75 2.45 -51.35 2.85 -51.35 3.5 -51.35 4.5 -52.25 5.25 -53.15 5.95 -54.85 5.95 -56.5 5.95 -57.5 5.15 -58.45 4.3 -58.8 2.55
L -62.3 2.9
Q -61.95 5.9 -60.1 7.45 -58.3 9 -54.9 9 -52.6 9 -51 8.35 -49.45 7.7 -48.6 6.35 -47.75 5.05 -47.75 3.5 -47.75 1.8 -48.45 0.65 -49.15 -0.5 -50.45 -1.2 -51.7 -1.85 -54.35 -2.45 -56.95 -3.1 -57.65 -3.65 -58.2 -4.1 -58.2 -4.75 -58.2 -5.45 -57.6 -5.85 -56.75 -6.5 -55.15 -6.5 -53.65 -6.5 -52.85 -5.9 -52.1 -5.3 -51.85 -3.9
L -48.25 -4.1
Q -48.35 -6.55 -50.05 -8 -51.75 -9.5 -55.1 -9.5 -57.2 -9.5 -58.65 -8.9 -60.1 -8.25 -60.85 -7.05 Z"/>
</g>
</g>
</g>
</g>
</g>
</svg>
