
<svg xmlns="http://www.w3.org/2000/svg" version="1.1" xmlns:xlink="http://www.w3.org/1999/xlink" preserveAspectRatio="none" x="0px" y="0px" width="101px" height="50px" viewBox="0 0 101 50">
<defs>
<linearGradient id="Gradient_1" gradientUnits="userSpaceOnUse" x1="-0.05" y1="-26.7" x2="-0.05" y2="73.8" spreadMethod="pad">
<stop  offset="0%" stop-color="#FFE465"/>

<stop  offset="100%" stop-color="#E0BA00"/>
</linearGradient>

<linearGradient id="Gradient_2" gradientUnits="userSpaceOnUse" x1="4.15" y1="-23.575" x2="4.15" y2="65.175" spreadMethod="pad">
<stop  offset="0%" stop-color="#FFE465"/>

<stop  offset="100%" stop-color="#E0BA00"/>
</linearGradient>
</defs>

<g id="Layer_2">
<g id="Layer_6" transform="matrix( 0.37945556640625, 0, 0, 0.37945556640625, 50.9,25.4) ">
<g transform="matrix( 1.35321044921875, 0, 0, 1, -0.05,0) ">
<g>
<g>
<path fill="url(#Gradient_1)" stroke="none" d="
M 91.6 -53.45
Q 92.35 -54.85 91.45 -56.25 90.45 -57.65 88.4 -58.15 86.3 -58.7 84.25 -58.1
L 30.05 -42.7
Q 16.35 -46.95 -0.05 -46.95 -16.45 -46.95 -30.15 -42.7
L -84.35 -58.1
Q -86.4 -58.7 -88.5 -58.15 -90.55 -57.65 -91.55 -56.25 -92.45 -54.85 -91.7 -53.45
L -73.95 -19.05 -90.95 -4.55
Q -92.15 -3.35 -92.65 -1.7 -93.05 0 -92.65 1.8 -92.15 3.45 -90.95 4.55
L -73.95 19.1 -91.7 53.5
Q -92.45 54.9 -91.55 56.35 -90.55 57.7 -88.5 58.25 -86.4 58.75 -84.35 58.2
L -29.7 42.7
Q -16.2 46.75 -0.05 46.75 16.1 46.75 29.6 42.7
L 84.25 58.2
Q 86.3 58.75 88.4 58.25 90.45 57.7 91.45 56.35 92.35 54.9 91.6 53.5
L 73.8 19.05 90.75 4.55
Q 91.95 3.45 92.45 1.8 92.9 0 92.45 -1.7 91.95 -3.35 90.75 -4.55
L 73.8 -19 91.6 -53.45 Z"/>
</g>
</g>

<g transform="matrix( 0.738983154296875, 0, 0, 0.9999847412109375, 0,0) ">
<path stroke="#FFFFFF" stroke-width="17" stroke-linejoin="round" stroke-linecap="round" fill="none" d="
M -114.19330139160155 -58.1
L -40.84929504394531 -42.7
Q -22.31031188964844 -46.95 -0.1176605224609375 -46.95 22.074990844726564 -46.95 40.61397399902344 -42.7
L 113.95798034667969 -58.1
Q 116.73206176757813 -58.7 119.57380371093751 -58.15 122.34788513183594 -57.65 123.70109558105469 -56.25 124.91898498535156 -54.85 123.9040771484375 -53.45
L 99.81693115234376 -19 122.75384826660157 -4.55
Q 124.37770080566406 -3.35 125.05430603027344 -1.7 125.66325073242189 0 125.05430603027344 1.8 124.37770080566406 3.45 122.75384826660157 4.55
L 99.85076141357422 19.075 123.9040771484375 53.5
Q 124.91898498535156 54.9 123.70109558105469 56.35 122.34788513183594 57.7 119.57380371093751 58.25 116.73206176757813 58.75 113.95798034667969 58.2
L 40.005029296875 42.7
Q 21.736688232421876 46.75 -0.1176605224609375 46.75 -21.97200927734375 46.75 -40.24035034179687 42.7
L -114.19330139160155 58.2
Q -116.9673828125 58.75 -119.80912475585937 58.25 -122.58320617675781 57.7 -123.93641662597656 56.35 -125.15430603027343 54.9 -124.13939819335937 53.5
L -100.0860824584961 19.1 -123.1244903564453 4.55
Q -124.74834289550782 3.45 -125.4249481201172 1.8 -125.96623229980469 0 -125.4249481201172 -1.7 -124.74834289550782 -3.35 -123.1244903564453 -4.55
L -100.0860824584961 -19.05 -124.13939819335937 -53.45
Q -125.15430603027343 -54.85 -123.93641662597656 -56.25 -122.58320617675781 -57.65 -119.80912475585937 -58.15 -116.9673828125 -58.7 -114.19330139160155 -58.1 Z"/>
</g>
</g>
</g>

<g id="Layer_4" transform="matrix( 0.37945556640625, 0, 0, 0.37945556640625, 50.9,25.4) ">
<g transform="matrix( 1.35321044921875, 0, 0, 1, -0.05,0) ">
<g>
<g>
<path fill="url(#Gradient_1)" stroke="none" d="
M 91.6 -53.45
Q 92.35 -54.85 91.45 -56.25 90.45 -57.65 88.4 -58.15 86.3 -58.7 84.25 -58.1
L 30.05 -42.7
Q 16.35 -46.95 -0.05 -46.95 -16.45 -46.95 -30.15 -42.7
L -84.35 -58.1
Q -86.4 -58.7 -88.5 -58.15 -90.55 -57.65 -91.55 -56.25 -92.45 -54.85 -91.7 -53.45
L -73.95 -19.05 -90.95 -4.55
Q -92.15 -3.35 -92.65 -1.7 -93.05 0 -92.65 1.8 -92.15 3.45 -90.95 4.55
L -73.95 19.1 -91.7 53.5
Q -92.45 54.9 -91.55 56.35 -90.55 57.7 -88.5 58.25 -86.4 58.75 -84.35 58.2
L -29.7 42.7
Q -16.2 46.75 -0.05 46.75 16.1 46.75 29.6 42.7
L 84.25 58.2
Q 86.3 58.75 88.4 58.25 90.45 57.7 91.45 56.35 92.35 54.9 91.6 53.5
L 73.8 19.05 90.75 4.55
Q 91.95 3.45 92.45 1.8 92.9 0 92.45 -1.7 91.95 -3.35 90.75 -4.55
L 73.8 -19 91.6 -53.45 Z"/>
</g>
</g>
</g>
</g>

<g id="Layer_5" transform="matrix( 0.37945556640625, 0, 0, 0.37945556640625, 50.9,25.4) ">
<g>
<g>
<g>
<path fill="#FFFFFF" stroke="none" d="
M 38.2 -27.65
L 28.65 -27.65
Q 25.35 -27.65 23 -25.3 22.95 -25.25 22.9 -25.2 22.5 -25.8 21.95 -26.3 20.35 -27.85 18.2 -28.35 16.05 -28.85 14 -28.15
L 8 -26.3 7.95 -26.3
Q 7.75 -26.5 7.5 -26.7 5.1 -28.8 2.05 -28.7 0.15 -28.75 -6 -28.35
L -25.55 -27.55
Q -27.5 -29 -34.8 -28.65 -42.5 -28.3 -44.8 -25.95 -46.1 -24.65 -46.65 -23.05 -47.05 -23.65 -47.55 -24.2 -49.75 -26.7 -53.05 -26.9
L -54.85 -27
Q -60.3 -27.6 -61.85 -27.5 -62.6 -27.65 -63.35 -27.65 -66.7 -27.6 -69 -25.2 -71.35 -22.85 -71.3 -19.55
L -70.95 18.2
Q -70.9 21.5 -68.5 23.8 -66.25 26.05 -63.1 26.1
L -50.55 26.1
Q -47.7 25.85 -45.65 23.75 -44.95 23.05 -44.45 22.3 -44 23.05 -43.3 23.75 -40.95 26.1 -37.65 26.1
L -31.3 26.1
Q -29.1 26.1 -27.3 25.05 -25.5 26.1 -23.3 26.1
L 4.6 26.1
Q 7.9 26.1 10.25 23.75
L 10.3 23.75
Q 12.6 25.95 15.8 25.95
L 20.8 25.95
Q 28.45 26.15 29.8 25.9 31 25.75 32.2 25.2 34.3 26.95 37.15 26.95
L 41.65 26.95
Q 47.65 27.1 49.3 27 51.1 27.05 52.85 26.3 55.9 24.95 57.1 21.9
L 70.6 -12.75
Q 71.8 -15.6 70.75 -18.55 69.6 -21.65 66.65 -23.05
L 54.6 -28.75
Q 51.55 -30.2 48.45 -29.05 45.45 -28 44 -25.15 43.95 -25.2 43.85 -25.3 41.5 -27.65 38.2 -27.65 Z"/>
</g>
</g>
</g>
</g>

<g id="Layer_2" transform="matrix( 0.37945556640625, 0, 0, 0.37945556640625, 50.9,25.4) "/>

<g id="Layer_7" transform="matrix( 0.37945556640625, 0, 0, 0.37945556640625, 50.9,25.4) "/>

<g id="Layer_3" transform="matrix( 0.37945556640625, 0, 0, 0.37945556640625, 50.9,25.4) ">
<g>
<g>
<g>
<path fill="url(#Gradient_2)" stroke="none" d="
M 38.25 -19.65
L 28.7 -19.65 22.6 1.2 16.45 -20.55 4.9 -17 15.85 17.95 28.85 17.95 33.1 0.1 37.2 18.95 49.7 18.95 63.25 -15.85 51.2 -21.55 43.15 2.9 38.25 -19.65
M -14.3 -5.9
L -14.65 -10.15 3 -10.45 2.3 -20.7 -25.65 -19.55 -23.25 18.1 4.65 18.1 4.65 7.3 -13.4 8.2 -13.65 3.7 0.8 2.7 0.25 -6.95 -14.3 -5.9
M -53.45 -18.9
L -63.25 -19.65 -62.9 18.1 -51.25 18.1 -51.25 2.25 -37.6 18.1 -27.7 18.1 -27.7 -20.7 -39.1 -20.35 -39.05 -2.35 -53.45 -18.9 Z"/>
</g>
</g>
</g>
</g>
</g>
</svg>
