
<svg xmlns="http://www.w3.org/2000/svg" version="1.1" xmlns:xlink="http://www.w3.org/1999/xlink" preserveAspectRatio="none" x="0px" y="0px" width="114px" height="135px" viewBox="0 0 114 135">
<defs>
<linearGradient id="Gradient_1" gradientUnits="userSpaceOnUse" x1="-0.15" y1="57.5875" x2="-0.15" y2="30.7125" spreadMethod="pad">
<stop  offset="0%" stop-color="#FFE465"/>

<stop  offset="100%" stop-color="#E0BA00"/>
</linearGradient>

<linearGradient id="Gradient_2" gradientUnits="userSpaceOnUse" x1="-0.15" y1="82.125" x2="-0.15" y2="2.5749999999999957" spreadMethod="pad">
<stop  offset="0%" stop-color="#1FD6FC"/>

<stop  offset="100%" stop-color="#0261E6"/>
</linearGradient>

<linearGradient id="Gradient_3" gradientUnits="userSpaceOnUse" x1="-0.1" y1="26.924999999999997" x2="-0.1" y2="76.875" spreadMethod="pad">
<stop  offset="0%" stop-color="#FEE364" stop-opacity="0"/>

<stop  offset="100%" stop-color="#FEE364" stop-opacity="0.9882352941176471"/>
</linearGradient>
</defs>

<g id="Layer_1">
<g id="Layer_3" transform="matrix( 1.4286956787109375, 0, 0, 1.4286956787109375, 57.7,-2.95) ">
<g transform="matrix( -1, 0, 0, -1, -0.35,84.65) ">
<g>
<g>
<path fill="url(#Gradient_1)" stroke="none" d="
M 38.05 42.35
Q 38.05 26.5 26.9 15.25 15.7 4.05 -0.15 4.05 -16 4.05 -27.2 15.25 -38.35 26.5 -38.35 42.35 -38.35 58.2 -27.2 69.35 -16 80.6 -0.15 80.6 15.7 80.6 26.9 69.35 38.05 58.2 38.05 42.35
M 19.05 23.15
Q 27 31.15 27 42.4 27 53.65 19.05 61.6 11.1 69.6 -0.15 69.6 -11.4 69.6 -19.35 61.6 -27.3 53.65 -27.3 42.4 -27.3 31.15 -19.35 23.15 -11.4 15.2 -0.15 15.2 11.1 15.2 19.05 23.15 Z"/>
</g>
</g>

<g transform="matrix( -1, 0, 0, -1, -0.35,84.65) ">
<path stroke="url(#Gradient_2)" stroke-width="3" stroke-linejoin="miter" stroke-linecap="square" stroke-miterlimit="3" fill="none" d="
M -27.35 42.25000000000001
Q -27.35 31.000000000000007 -19.400000000000002 23.025000000000006 -11.45 15.050000000000011 -0.19999999999999998 15.050000000000011 11.05 15.050000000000011 19 23.025000000000006 26.95 31.000000000000007 26.95 42.25000000000001 26.95 53.50000000000001 19 61.47500000000001 11.05 69.45 -0.19999999999999998 69.45 -11.45 69.45 -19.400000000000002 61.47500000000001 -27.35 53.50000000000001 -27.35 42.25000000000001 Z
M 38 42.300000000000004
Q 38 26.450000000000003 26.849999999999998 15.300000000000011 15.65 4.050000000000011 -0.19999999999999998 4.050000000000011 -16.05 4.050000000000011 -27.25 15.300000000000011 -38.4 26.450000000000003 -38.4 42.300000000000004 -38.4 58.150000000000006 -27.25 69.4 -16.05 80.60000000000001 -0.19999999999999998 80.60000000000001 15.65 80.60000000000001 26.849999999999998 69.4 38 58.150000000000006 38 42.300000000000004 Z"/>
</g>
</g>
</g>

<g id="Layer_6" transform="matrix( 1.4286956787109375, 0, 0, 1.4286956787109375, 57.7,-2.95) "/>

<g id="Layer_5" transform="matrix( 1.4286956787109375, 0, 0, 1.4286956787109375, 57.7,-2.95) "/>

<g id="Layer_2" transform="matrix( 1.4286956787109375, 0, 0, 1.4286956787109375, 57.7,-2.95) ">
<g>
<g>
<g>
<path fill="url(#Gradient_3)" stroke="none" d="
M 26.05 44.5
Q 26.1068359375 44.0287109375 26.1 43.55 26.15 42.9060546875 26.15 42.25 26.15 31.35 18.45 23.65 10.75 15.95 -0.1 15.95 -10.95 15.95 -18.65 23.65 -26.35 31.35 -26.35 42.25 -26.35 42.754296875 -26.35 43.25 -26.2755859375 44.9275390625 -26.05 46.5 -25.09609375 55.0630859375 -21.65 61.95 -17.548046875 70.136328125 -18.25 80 -18.903515625 89.9244140625 -15.25 93.25 -11.5888671875 96.5671875 -7.25 94.45 -2.870703125 92.3841796875 -2.9 81.5 -2.9287109375 70.6212890625 1.4 68.8 5.7794921875 67.0318359375 7.3 73.05 8.81796875 79.0556640625 11.3 81.35 13.7763671875 83.654296875 16.95 81.65 20.1720703125 79.6912109375 19.8 71.5 19.4359375 63.3619140625 22.7 56.4 25.74921875 49.99140625 26.05 44.5 Z"/>
</g>
</g>
</g>
</g>

<g id="Layer_4" transform="matrix( 1.4286956787109375, 0, 0, 1.4286956787109375, 57.7,-2.95) ">
<g>
<g>
<path fill="#0F98F0" stroke="none" d="
M 25.85 44.85
L 25.85 45 24.75 49.9
Q 24.3 51.5 23.55 53.15
L 21.85 56.8
Q 20.9 58.65 20.1 61.25
L 20 61.55 19.95 61.85 19.75 62.45 19.45 63.75 18.8 68.5 18.75 72.1
Q 18.75 74 18.65 74.95 18.5 76.55 18.15 77.75
L 17.85 78.7 17.75 78.85 17.7 79 17.6 79.15 17.55 79.3 17.4 79.55 17.1 79.95 16.55 80.5 16.5 80.5 16.5 80.55 16.45 80.55 16.35 80.6 16.35 80.65 16.25 80.65 16.1 80.75
Q 15.3 81.15 14.9 81.2 14.4 81.35 13.8 81.25 13.35 81.2 12.75 80.85
L 12.65 80.75 12.5 80.65 12.3 80.45 12.2 80.4 12.2 80.35 12.15 80.35 11.8 80
Q 11.3 79.4 10.95 78.8 10.5 78.1 10.25 77.45
L 9.9 76.75 8.3 71.5 8.25 71.25 7.75 70.1 7.2 69.2
Q 6.95 68.75 6.5 68.3 6.1 67.9 5.5 67.55 4.95 67.2 4.25 67.05 3.85 66.95 3 66.95
L 1.55 67.2 1.4 67.25 1.2 67.35 1.15 67.35 0.95 67.45 0.85 67.45 0.8 67.5 0.25 67.75 -0.45 68.2 -0.75 68.5 -0.9 68.6 -1.3 69 -1.8 69.65
Q -2.1 69.95 -2.4 70.55 -2.7 71.05 -3.25 72.4 -3.75 73.9 -4.1 76.2 -4.25 77.4 -4.35 79.9
L -4.7 86.9
Q -4.95 88.65 -5.45 90.05 -6 91.6 -6.9 92.5
L -7 92.65 -7.15 92.75 -7.25 92.85 -7.4 92.9 -7.4 92.95 -7.45 92.95 -7.55 93.05 -7.6 93.05 -7.8 93.15 -7.85 93.2 -7.95 93.25 -9.3 93.7 -10.65 93.85
Q -11.55 93.75 -12 93.6
L -12.6 93.35 -13.85 92.6 -14.25 92.2 -14.3 92.2 -14.4 92.1
Q -14.9 91.6 -15.25 91.05 -15.7 90.45 -15.9 89.8 -16.45 88.55 -16.7 86.85
L -17.05 81.45 -17 80.1 -16.95 79.9 -17.45 71.75 -17.5 71.55 -17.5 71.35 -18.6 66.95 -18.7 66.8 -19 65.8 -19.8 63.9 -19.9 63.6 -21.75 59.95 -21.85 59.7 -22 59.45 -22.2 58.9 -22.35 58.65 -22.4 58.5 -22.45 58.4 -23.9 54.4 -24 54.2 -24.05 53.95 -25.2 49.7
Q -25.7 47.1 -26 44.95
L -26.05 44.55 -26.05 44.2 -26.2 43.2
Q -26.2 43.05 -26.3 43.15 -26.45 43.15 -26.35 43.25
L -26.1 48.35 -25.95 49.45 -25.95 49.65 -25.9 49.85 -25.8 50.65 -25.75 50.85 -25.75 51.05 -24.6 56.25 -24.25 57.3
Q -23.65 59.35 -22.6 61.7
L -22.1 62.85 -21.95 63.1 -20.75 66.4
Q -20 68.8 -19.55 71.7 -19.15 74.5 -19.25 77.5
L -19.35 79.95 -19.4 80.15 -19.55 83.85
Q -19.45 86.15 -19.3 87.25 -19.1 89 -18.4 90.8 -18.15 91.55 -17.55 92.5 -16.95 93.5 -16.3 94.1
L -15.95 94.45 -15.85 94.5 -15.65 94.7 -15.55 94.75 -14.75 95.35 -12.9 96.25 -11.85 96.55 -10.8 96.65
Q -10.25 96.75 -9.75 96.65
L -8.7 96.5 -6.75 95.9 -6.65 95.85 -6.6 95.8 -6.3 95.65 -6.25 95.6 -6.15 95.6 -6 95.5 -5.9 95.4 -5.8 95.35 -5.75 95.35 -5.55 95.15 -5.3 95 -4.9 94.6 -4.7 94.45 -4.6 94.35 -4.5 94.2 -4 93.6 -3.55 92.9
Q -2.95 91.9 -2.7 91.1 -2.1 89.65 -1.75 87.35 -1.5 85.7 -1.4 83.6
L -1.35 80
Q -1.35 78.45 -1.1 76.6 -0.85 74.6 -0.4 73.35 -0.2 72.75 0.15 72
L 0.7 71.1 0.85 71 1.05 70.8 1.1 70.7 1.15 70.65 1.3 70.6 1.4 70.5 1.55 70.4 1.65 70.35 1.8 70.25 1.95 70.2 2 70.2 2.2 70.1 2.25 70.1 2.3 70.05 2.35 70.05 2.4 70 2.6 70
Q 2.8 69.9 3.15 69.9 3.45 69.85 3.65 69.9
L 4.05 70.05
Q 4.45 70.25 4.85 70.8
L 5.2 71.4 5.25 71.55 5.3 71.65 5.35 71.7 5.4 71.9 5.5 72.05 5.5 72.15 5.55 72.25 7.05 77 7.8 78.65
Q 8.2 79.55 8.7 80.25 9.3 81.2 9.85 81.75
L 10 81.95 10.2 82.1 10.35 82.3 10.45 82.35 10.6 82.5 10.65 82.5 10.75 82.6 11.4 83.05
Q 12.45 83.65 13.4 83.8
L 14.5 83.85 15.55 83.65
Q 16.35 83.45 17.3 82.9
L 17.5 82.8 17.6 82.7 17.7 82.65 17.75 82.65 17.9 82.5 18.05 82.4 18.85 81.6 19.65 80.4 19.85 80
Q 20.1 79.45 20.4 78.35 20.8 76.7 20.85 75.1 20.95 73.55 20.85 72.05
L 20.75 67.55 20.8 67.25 20.8 66.6
Q 21.05 63.85 21.6 61.65
L 22.35 59.1 22.4 58.85 24.5 53.5
Q 25 52.05 25.45 50.1
L 25.55 49.75 26.15 45.7 26.15 44.85 26.2 44.5 26.2 43.95 26.15 43.55
Q 26.15 43.45 26.05 43.45
L 26 43.5 25.85 44.85 Z"/>
</g>

<use xlink:href="#Circle_icon1_v2_0_Layer0_0_STROKES_1_FILL"/>
</g>
</g>
</g>
</svg>
