
<svg xmlns="http://www.w3.org/2000/svg" version="1.1" xmlns:xlink="http://www.w3.org/1999/xlink" preserveAspectRatio="none" x="0px" y="0px" width="268px" height="45px" viewBox="0 0 268 45">
<defs>
<linearGradient id="Gradient_1" gradientUnits="userSpaceOnUse" x1="0.05" y1="32.125" x2="0.05" y2="79.275" spreadMethod="pad">
<stop  offset="0%" stop-color="#FFE465"/>

<stop  offset="100%" stop-color="#E0BA00"/>
</linearGradient>
</defs>

<g id="Layer_1">
<g id="Layer_3" transform="matrix( 0.899993896484375, 0, 0, 0.899993896484375, 134.05,22.7) ">
<g transform="matrix( 1, 0, 0, 1, 0,-51.6) ">
<g>
<g>
<path fill="url(#Gradient_1)" stroke="none" d="
M 142.75 32.85
Q 137.6 27.4 130.2 27.4
L -130.15 27.4
Q -137.5 27.4 -142.7 32.85 -147.1125 37.3884765625 -147.85 43.5 -147.9240234375 44.3921875 -147.95 45.3
L -147.95 57.8
Q -147.8 65.2 -142.7 70.45 -137.5 75.85 -130.15 75.85
L 130.2 75.85
Q 137.6 75.85 142.75 70.45 147.83515625 65.21953125 148 57.8
L 148 45.3
Q 147.97421875 44.3921875 147.85 43.5 147.1626953125 37.3888671875 142.75 32.85 Z"/>
</g>
</g>

<g>
<path stroke="#CAA800" stroke-width="2" stroke-linejoin="round" stroke-linecap="round" fill="none" d="
M 130.2 27.4
L -130.15 27.4
Q -137.5 27.4 -142.7 32.85 -147.1125 37.3884765625 -147.825 43.525 -147.9240234375 44.3921875 -147.95 45.3
L -147.95 57.8
Q -147.8 65.2 -142.7 70.45 -137.5 75.85 -130.15 75.85
L 130.2 75.85
Q 137.6 75.85 142.75 70.45 147.83515625 65.21953125 148 57.825
L 148 45.3
Q 147.97421875 44.3921875 147.875 43.525 147.1626953125 37.3888671875 142.75 32.85 137.6 27.4 130.2 27.4 Z"/>
</g>
</g>
</g>

<g id="Layer_2" transform="matrix( 0.899993896484375, 0, 0, 0.899993896484375, 134.05,22.7) ">
<g transform="matrix( 1, 0, 0, 1, 0.9,0) ">
<g>
<g>
<path fill="#FFFFFF" stroke="none" d="
M -8.4 -3.65
L -13.2 -3.65 -12.8 7.9 -8.4 7.9 -8.4 -3.65
M -12.85 -8.55
Q -13.15 -8.2 -13.25 -7.75 -13.4 -7.25 -13.4 -6.9 -13.35 -6.55 -13.2 -6.1 -13.05 -5.65 -12.75 -5.25 -12.45 -4.9 -11.9 -4.65 -11.35 -4.4 -10.5 -4.4 -9.85 -4.4 -9.35 -4.65 -8.95 -4.95 -8.65 -5.3 -8.35 -5.7 -8.2 -6.05 -8.1 -6.45 -8.1 -6.65 -8.1 -9.45 -10.85 -9.45 -11.6 -9.45 -12.05 -9.2 -12.55 -8.95 -12.85 -8.55
M -25.9 -3.85
L -30.7 -3.85 -26.9 7.95 -23.4 7.95 -22.2 3.9 -21 7.95 -17.5 7.95 -13.9 -3.95 -18.05 -3.95 -19.3 1.8 -20.9 -2.3 -23.65 -2.75 -24.85 1.95 -25.9 -3.85
M -41.85 -3.6
Q -42.65 -3.95 -43.55 -3.95 -44.75 -3.95 -45.85 -3.4 -47 -2.85 -47.75 -2.05
L -47.75 -3.85 -51.95 -3.8 -51.95 7.95 -47.7 7.95
Q -47.7 6.35 -47.7 4.7 -47.65 3.1 -47.65 1.5 -47.6 1.2 -47.4 0.9 -47.15 0.65 -46.8 0.45 -46.45 0.25 -46.05 0.1 -45.65 0 -45.25 0 -44.45 0 -43.95 0.5 -43.5 1.05 -43.5 1.85
L -43.65 7.95 -39.3 7.95 -39.3 0.4
Q -39.3 -0.4 -39.6 -1.15 -39.95 -1.95 -40.5 -2.55 -41.05 -3.2 -41.85 -3.6
M -52.95 -3.65
L -57.75 -3.65 -57.35 7.9 -52.95 7.9 -52.95 -3.65
M -52.65 -6.65
Q -52.65 -9.45 -55.4 -9.45 -56.15 -9.45 -56.6 -9.2 -57.1 -8.95 -57.4 -8.55 -57.7 -8.2 -57.8 -7.75 -57.95 -7.25 -57.95 -6.9 -57.9 -6.55 -57.75 -6.1 -57.6 -5.65 -57.3 -5.25 -57 -4.9 -56.45 -4.65 -55.9 -4.4 -55.05 -4.4 -54.4 -4.4 -53.9 -4.65 -53.5 -4.95 -53.2 -5.3 -52.9 -5.7 -52.75 -6.05 -52.65 -6.45 -52.65 -6.65
M -74.8 -3.85
L -79 -3.8 -79 7.95 -74.75 7.95
Q -74.75 6.35 -74.75 4.7 -74.7 3.1 -74.7 1.5 -74.65 1.2 -74.45 0.9 -74.2 0.65 -73.85 0.45 -73.5 0.25 -73.1 0.1 -72.7 0 -72.3 0 -71.5 0 -71 0.5 -70.55 1.05 -70.55 1.85
L -70.7 7.95 -66.35 7.95 -66.35 0.4
Q -66.35 -0.4 -66.65 -1.15 -67 -1.95 -67.55 -2.55 -68.1 -3.2 -68.9 -3.6 -69.7 -3.95 -70.6 -3.95 -71.8 -3.95 -72.9 -3.4 -74.05 -2.85 -74.8 -2.05
L -74.8 -3.85
M -95.95 -3.65
L -100.75 -3.65 -100.35 7.9 -95.95 7.9 -95.95 -3.65
M -91.25 -3.3
Q -92.25 -2.75 -93 -1.9 -93.75 -1.05 -94.15 0 -94.55 1 -94.55 2.1 -94.6 3.25 -94.1 4.2 -93.55 5.15 -92.7 5.8 -91.8 6.5 -90.7 6.85 -89.6 7.25 -88.5 7.3 -87.4 7.3 -86.35 6.95 -85.35 6.6 -84.7 5.8 -84.6 6.3 -84.5 7.05 -84.4 7.85 -84.5 8.6 -84.65 9.35 -85.1 9.95 -85.6 10.55 -86.65 10.65 -87.4 10.75 -88.05 10.65 -88.7 10.55 -89.15 10.25 -89.65 10 -89.95 9.55 -90.25 9.1 -90.25 8.5
L -94.55 7.6
Q -94.65 8.95 -94.1 10.15 -93.5 11.4 -92.45 12.35 -91.45 13.3 -90.05 13.85 -88.7 14.45 -87.25 14.45 -85.2 14.45 -84 14.05 -82.8 13.6 -81.9 12.85 -81.05 12.05 -80.55 10.9 -80.05 9.7 -80.05 8.2 -80.05 5.1 -80.2 2.15 -80.4 -0.8 -80.5 -3.9
L -84.25 -3.9 -84.25 -2.6
Q -85.4 -3.55 -86.65 -3.85 -87.85 -4.15 -89.05 -4 -90.2 -3.85 -91.25 -3.3
M -89 -0.45
Q -88.5 -0.6 -87.95 -0.65 -87.4 -0.7 -86.9 -0.55 -86.35 -0.4 -86.05 0 -85.75 0.3 -85.65 0.75 -85.55 1.2 -85.6 1.7 -85.6 2.2 -85.8 2.65 -86.05 3.1 -86.35 3.5 -86.6 3.7 -87.05 3.8 -87.5 3.9 -88 3.85 -88.5 3.8 -89 3.6 -89.45 3.4 -89.75 3.05 -89.95 2.8 -90.1 2.4 -90.25 2 -90.25 1.55 -90.25 1.15 -90.15 0.75 -90 0.3 -89.75 0 -89.5 -0.25 -89 -0.45
M -98.4 -9.45
Q -99.15 -9.45 -99.6 -9.2 -100.1 -8.95 -100.4 -8.55 -100.7 -8.2 -100.8 -7.75 -100.95 -7.25 -100.95 -6.9 -100.9 -6.55 -100.75 -6.1 -100.6 -5.65 -100.3 -5.25 -100 -4.9 -99.45 -4.65 -98.9 -4.4 -98.05 -4.4 -97.4 -4.4 -96.9 -4.65 -96.5 -4.95 -96.2 -5.3 -95.9 -5.7 -95.75 -6.05 -95.65 -6.45 -95.65 -6.65 -95.65 -9.45 -98.4 -9.45
M -113.4 -7.9
Q -114.5 -7.25 -115.15 -6.25 -115.85 -5.2 -115.85 -3.85 -115.85 -2.65 -115.25 -1.65 -114.7 -0.6 -113.75 0.1 -112.8 0.85 -111.65 1.25 -110.45 1.65 -109.2 1.7 -109 1.7 -108.75 1.65 -108.45 1.65 -108.2 1.65 -107.85 1.65 -107.5 1.7 -107.2 1.75 -106.9 1.8 -106.65 1.9 -106.45 2.05 -106.3 2.25 -106.3 2.5 -106.3 2.8 -106.6 3.05 -106.85 3.25 -107.3 3.35 -107.7 3.5 -108.2 3.6 -108.65 3.65 -109 3.65 -110.15 3.65 -111.25 3.15 -112.35 2.7 -113.15 1.9
L -116.55 5.2
Q -115.85 5.95 -114.9 6.5 -114 7.05 -112.95 7.4 -111.95 7.75 -110.85 7.95 -109.75 8.15 -108.7 8.15 -107.4 8.15 -106.1 7.7 -104.8 7.3 -103.75 6.55 -102.7 5.8 -102.05 4.7 -101.4 3.6 -101.35 2.3 -101.35 0.95 -102 0 -102.6 -1 -103.6 -1.6 -104.55 -2.25 -105.8 -2.55 -107.05 -2.85 -108.25 -2.85 -108.5 -2.85 -108.75 -2.8 -109 -2.8 -109.3 -2.8 -109.5 -2.8 -109.8 -2.85 -110.1 -2.9 -110.3 -3 -110.55 -3.1 -110.7 -3.3 -110.85 -3.45 -110.85 -3.7 -110.85 -4.05 -110.65 -4.25 -110.4 -4.45 -110.05 -4.55 -109.75 -4.6 -109.35 -4.65 -108.95 -4.65 -108.65 -4.65 -107.4 -4.6 -106.35 -4.2 -105.3 -3.75 -104.3 -3.15
L -101.45 -6.55
Q -102.9 -7.8 -104.75 -8.5 -106.55 -9.15 -108.55 -9.2 -109.8 -9.2 -111.05 -8.85 -112.35 -8.55 -113.4 -7.9
M 105.4 -3.5
Q 104.2 -3 103.3 -2.2 102.4 -1.35 101.9 -0.3 101.35 0.8 101.35 2 101.35 3.25 101.95 4.35 102.5 5.5 103.5 6.35 104.5 7.15 105.75 7.65 107 8.15 108.4 8.1 109.4 8.1 110.4 7.8 111.45 7.5 112.3 7 113.15 6.45 113.75 5.7 114.4 4.95 114.6 4.05
L 110.95 3.35
Q 110.55 3.95 109.85 4.25 109.15 4.6 108.4 4.6 107.6 4.55 106.9 4.15 106.2 3.7 105.85 2.8
L 114.75 2.3
Q 114.75 0.65 114.2 -0.6 113.7 -1.85 112.75 -2.6 111.85 -3.4 110.6 -3.75 109.4 -4.1 107.95 -4.05 106.6 -4 105.4 -3.5
M 107.7 -1.15
Q 108.2 -1.15 108.7 -1.05 109.15 -0.9 109.5 -0.6 109.85 -0.25 109.95 0.25
L 105.85 0.35
Q 105.8 -0.1 106.05 -0.45 106.35 -0.75 106.75 -0.95 107.2 -1.1 107.7 -1.15
M 89.55 -3.65
L 84.75 -3.65 85.15 7.9 89.55 7.9 89.55 -3.65
M 90.1 -3.75
L 90.55 -0.3 93.25 -0.3 93.25 7.9 97.95 7.9 97.3 -0.25 101 -0.25 101.3 -3.6 97.25 -3.7
Q 97.25 -3.8 97.25 -4 97.25 -4.85 97.9 -5.4 98.65 -5.95 99.7 -5.95 100.35 -5.95 101 -5.75 101.65 -5.55 102.25 -5.3
L 102.45 -8.4
Q 101.6 -9.1 100.4 -9.4 99.25 -9.7 98.1 -9.7 96.85 -9.7 95.9 -9.3 94.95 -8.9 94.3 -8.2 93.6 -7.55 93.25 -6.65 92.9 -5.75 92.9 -4.8 92.9 -4.55 92.9 -4.3 92.95 -4.05 93 -3.8
L 90.1 -3.75
M 89.85 -6.65
Q 89.85 -9.45 87.1 -9.45 86.35 -9.45 85.9 -9.2 85.4 -8.95 85.1 -8.55 84.8 -8.2 84.7 -7.75 84.55 -7.25 84.55 -6.9 84.6 -6.55 84.75 -6.1 84.9 -5.65 85.2 -5.25 85.5 -4.9 86.05 -4.65 86.6 -4.4 87.45 -4.4 88.1 -4.4 88.6 -4.65 89 -4.95 89.3 -5.3 89.6 -5.7 89.75 -6.05 89.85 -6.45 89.85 -6.65
M 78.25 -9.15
L 72.65 -9.15 72.65 8 84.55 8 84.55 2.85 78.25 2.85 78.25 -9.15
M 60.05 -3.85
L 55.25 -3.85 59.05 7.95 62.55 7.95 63.75 3.9 64.95 7.95 68.45 7.95 72.05 -3.95 67.9 -3.95 66.65 1.8 65.05 -2.3 62.3 -2.75 61.1 1.95 60.05 -3.85
M 43.35 -2.45
Q 42.25 -1.65 41.6 -0.55 40.95 0.6 41 2 41.05 3.25 41.7 4.35 42.3 5.45 43.3 6.3 44.35 7.1 45.6 7.55 46.9 8.05 48.25 8.05 49.6 8.05 50.85 7.55 52.15 7.05 53.1 6.2 54.1 5.35 54.7 4.2 55.25 3.05 55.25 1.8 55.25 0.65 54.7 -0.45 54.1 -1.5 53.15 -2.3 52.2 -3.05 51 -3.55 49.8 -4 48.55 -4.05 47.2 -4.05 45.8 -3.65 44.45 -3.25 43.35 -2.45
M 48.3 4.2
Q 47.15 4.2 46.5 3.55 45.85 2.85 45.85 1.9 45.8 1.4 46.05 1.05 46.25 0.65 46.6 0.4 47 0.15 47.45 0.05 47.95 -0.1 48.45 -0.1 49.45 -0.05 50.05 0.55 50.7 1.2 50.7 2 50.7 2.9 50.05 3.6 49.45 4.25 48.3 4.2
M 39.05 -8.95
L 35.6 -3.05 32.5 -9.6 26.55 -7.55 32.55 1.1 32.55 7.95 38.35 7.95 38.35 1.45 44.65 -7.85 39.05 -8.95
M 2.55 -0.85
L 2 -4.1 -0.7 -4.1 -0.85 -7 -4.8 -6.55 -4.9 -4 -6.9 -4 -6.6 -0.9 -5.05 -0.85
Q -4.95 0.55 -5 1.9 -5.05 3.25 -4.95 4.65 -4.85 5.7 -4.4 6.4 -3.95 7.1 -3.3 7.5 -2.65 7.95 -1.8 8.1 -0.95 8.25 -0.1 8.25 0.55 8.2 1.15 8.15 1.8 8.1 2.35 7.95 2.9 7.75 3.4 7.5 3.9 7.2 4.35 6.7
L 3.3 3.45
Q 3 3.75 2.75 3.95 2.5 4.2 2.25 4.35 1.95 4.5 1.55 4.55 1.2 4.6 0.65 4.6 0.25 4.6 0 4.45 -0.25 4.25 -0.4 4 -0.6 3.7 -0.65 3.4 -0.7 3.05 -0.7 2.7
L -0.7 -0.85 2.55 -0.85
M 9.8 -1.5
L 9.45 -9.8 5.1 -9.8 5.1 7.95 9.85 8 9.9 4.1
Q 9.9 3.55 10 2.95 10.05 2.3 10.3 1.75 10.5 1.2 10.95 0.85 11.4 0.5 12.1 0.5 12.75 0.5 13.15 0.6 13.55 0.75 13.8 1.05 14 1.35 14.1 1.75 14.15 2.15 14.15 2.65
L 14.25 8 18.45 8 18.45 1.4
Q 18.45 0.55 18.15 -0.4 17.8 -1.3 17.25 -2.05 16.65 -2.85 15.8 -3.3 14.95 -3.8 13.85 -3.8 13.25 -3.8 12.6 -3.65 12 -3.5 11.45 -3.2 10.85 -2.9 10.45 -2.5 10 -2.05 9.8 -1.5 Z"/>
</g>
</g>

<g>
<path stroke="#CAA800" stroke-width="6" stroke-linejoin="round" stroke-linecap="round" fill="none" d="
M 14.15 2.65
Q 14.15 2.15 14.1 1.75 14 1.35 13.8 1.05 13.55 0.75 13.15 0.6 12.75 0.5 12.1 0.5 11.4 0.5 10.95 0.85 10.5 1.2 10.3 1.75 10.05 2.3 10 2.95 9.9 3.55 9.9 4.1
L 9.85 8 5.1 7.95 5.1 -9.8 9.45 -9.8 9.8 -1.5
Q 10 -2.05 10.45 -2.5 10.85 -2.9 11.45 -3.2 12 -3.5 12.6 -3.65 13.25 -3.8 13.85 -3.8 14.95 -3.8 15.8 -3.3 16.65 -2.85 17.25 -2.05 17.8 -1.3 18.15 -0.4 18.45 0.55 18.45 1.4
L 18.45 8 14.25 8 14.15 2.65 Z
M -6.9 -4
L -4.9 -4 -4.8 -6.55 -0.85 -7 -0.7 -4.1 2 -4.1 2.55 -0.85 -0.7 -0.85 -0.7 2.7
Q -0.7 3.05 -0.65 3.4 -0.6 3.7 -0.4 4 -0.25 4.25 0 4.45 0.25 4.6 0.65 4.6 1.2 4.6 1.55 4.55 1.95 4.5 2.25 4.35 2.5 4.2 2.75 3.95 3 3.75 3.3 3.45
L 4.35 6.7
Q 3.9 7.2 3.4 7.5 2.9 7.75 2.35 7.95 1.8 8.1 1.15 8.15 0.55 8.2 -0.1 8.25 -0.95 8.25 -1.8 8.1 -2.65 7.95 -3.3 7.5 -3.95 7.1 -4.4 6.4 -4.85 5.7 -4.95 4.65 -5.05 3.25 -5 1.9 -4.95 0.55 -5.05 -0.85
L -6.6 -0.9 -6.9 -4 Z
M 44.65 -7.85
L 38.35 1.45 38.35 7.95 32.55 7.95 32.55 1.1 26.55 -7.55 32.5 -9.6 35.6 -3.05 39.05 -8.95 44.65 -7.85 Z
M 55.25 1.8
Q 55.25 3.05 54.7 4.2 54.1 5.35 53.1 6.2 52.15 7.05 50.85 7.55 49.6 8.05 48.25 8.05 46.9 8.05 45.6 7.55 44.35 7.1 43.3 6.3 42.3 5.45 41.7 4.35 41.05 3.25 41 2 40.95 0.6 41.6 -0.55 42.25 -1.65 43.35 -2.45 44.45 -3.25 45.8 -3.65 47.2 -4.05 48.55 -4.05 49.8 -4 51 -3.55 52.2 -3.05 53.15 -2.3 54.1 -1.5 54.7 -0.45 55.25 0.65 55.25 1.8 Z
M 60.05 -3.85
L 61.1 1.95 62.3 -2.75 65.05 -2.3 66.65 1.8 67.9 -3.95 72.05 -3.95 68.45 7.95 64.95 7.95 63.75 3.9 62.55 7.95 59.05 7.95 55.25 -3.85 60.05 -3.85 Z
M 84.55 2.85
L 84.55 8 72.65 8 72.65 -9.15 78.25 -9.15 78.25 2.85 84.55 2.85 Z
M 84.55 -6.9
Q 84.55 -7.25 84.7 -7.75 84.8 -8.2 85.1 -8.55 85.4 -8.95 85.9 -9.2 86.35 -9.45 87.1 -9.45 89.85 -9.45 89.85 -6.65 89.85 -6.45 89.75 -6.05 89.6 -5.7 89.3 -5.3 89 -4.95 88.6 -4.65 88.1 -4.4 87.45 -4.4 86.6 -4.4 86.05 -4.65 85.5 -4.9 85.2 -5.25 84.9 -5.65 84.75 -6.1 84.6 -6.55 84.55 -6.9 Z
M 90.1 -3.75
L 93 -3.8
Q 92.95 -4.05 92.9 -4.3 92.9 -4.55 92.9 -4.8 92.9 -5.75 93.25 -6.65 93.6 -7.55 94.3 -8.2 94.95 -8.9 95.9 -9.3 96.85 -9.7 98.1 -9.7 99.25 -9.7 100.4 -9.4 101.6 -9.1 102.45 -8.4
L 102.25 -5.3
Q 101.65 -5.55 101 -5.75 100.35 -5.95 99.7 -5.95 98.65 -5.95 97.9 -5.4 97.25 -4.85 97.25 -4 97.25 -3.8 97.25 -3.7
L 101.3 -3.6 101 -0.25 97.3 -0.25 97.95 7.9 93.25 7.9 93.25 -0.3 90.55 -0.3 90.1 -3.75 Z
M 84.75 -3.65
L 89.55 -3.65 89.55 7.9 85.15 7.9 84.75 -3.65 Z
M 114.6 4.05
Q 114.4 4.95 113.75 5.7 113.15 6.45 112.3 7 111.45 7.5 110.4 7.8 109.4 8.1 108.4 8.1 107 8.15 105.75 7.65 104.5 7.15 103.5 6.35 102.5 5.5 101.95 4.35 101.35 3.25 101.35 2 101.35 0.8 101.9 -0.3 102.4 -1.35 103.3 -2.2 104.2 -3 105.4 -3.5 106.6 -4 107.95 -4.05 109.4 -4.1 110.6 -3.75 111.85 -3.4 112.75 -2.6 113.7 -1.85 114.2 -0.6 114.75 0.65 114.75 2.3
L 105.85 2.8
Q 106.2 3.7 106.9 4.15 107.6 4.55 108.4 4.6 109.15 4.6 109.85 4.25 110.55 3.95 110.95 3.35
L 114.6 4.05 Z
M 109.95 0.25
Q 109.85 -0.25 109.5 -0.6 109.15 -0.9 108.7 -1.05 108.2 -1.15 107.7 -1.15 107.2 -1.1 106.75 -0.95 106.35 -0.75 106.05 -0.45 105.8 -0.1 105.85 0.35
L 109.95 0.25 Z
M -104.3 -3.15
Q -105.3 -3.75 -106.35 -4.2 -107.4 -4.6 -108.65 -4.65 -108.95 -4.65 -109.35 -4.65 -109.75 -4.6 -110.05 -4.55 -110.4 -4.45 -110.65 -4.25 -110.85 -4.05 -110.85 -3.7 -110.85 -3.45 -110.7 -3.3 -110.55 -3.1 -110.3 -3 -110.1 -2.9 -109.8 -2.85 -109.5 -2.8 -109.3 -2.8 -109 -2.8 -108.75 -2.8 -108.5 -2.85 -108.25 -2.85 -107.05 -2.85 -105.8 -2.55 -104.55 -2.25 -103.6 -1.6 -102.6 -1 -102 0 -101.35 0.95 -101.35 2.3 -101.4 3.6 -102.05 4.7 -102.7 5.8 -103.75 6.55 -104.8 7.3 -106.1 7.7 -107.4 8.15 -108.7 8.15 -109.75 8.15 -110.85 7.95 -111.95 7.75 -112.95 7.4 -114 7.05 -114.9 6.5 -115.85 5.95 -116.55 5.2
L -113.15 1.9
Q -112.35 2.7 -111.25 3.15 -110.15 3.65 -109 3.65 -108.65 3.65 -108.2 3.6 -107.7 3.5 -107.3 3.35 -106.85 3.25 -106.6 3.05 -106.3 2.8 -106.3 2.5 -106.3 2.25 -106.45 2.05 -106.65 1.9 -106.9 1.8 -107.2 1.75 -107.5 1.7 -107.85 1.65 -108.2 1.65 -108.45 1.65 -108.75 1.65 -109 1.7 -109.2 1.7 -110.45 1.65 -111.65 1.25 -112.8 0.85 -113.75 0.1 -114.7 -0.6 -115.25 -1.65 -115.85 -2.65 -115.85 -3.85 -115.85 -5.2 -115.15 -6.25 -114.5 -7.25 -113.4 -7.9 -112.35 -8.55 -111.05 -8.85 -109.8 -9.2 -108.55 -9.2 -106.55 -9.15 -104.75 -8.5 -102.9 -7.8 -101.45 -6.55
L -104.3 -3.15 Z
M -100.95 -6.9
Q -100.95 -7.25 -100.8 -7.75 -100.7 -8.2 -100.4 -8.55 -100.1 -8.95 -99.6 -9.2 -99.15 -9.45 -98.4 -9.45 -95.65 -9.45 -95.65 -6.65 -95.65 -6.45 -95.75 -6.05 -95.9 -5.7 -96.2 -5.3 -96.5 -4.95 -96.9 -4.65 -97.4 -4.4 -98.05 -4.4 -98.9 -4.4 -99.45 -4.65 -100 -4.9 -100.3 -5.25 -100.6 -5.65 -100.75 -6.1 -100.9 -6.55 -100.95 -6.9 Z
M -80.5 -3.9
Q -80.4 -0.8 -80.2 2.15 -80.05 5.1 -80.05 8.2 -80.05 9.7 -80.55 10.9 -81.05 12.05 -81.9 12.85 -82.8 13.6 -84 14.05 -85.2 14.45 -87.25 14.45 -88.7 14.45 -90.05 13.85 -91.45 13.3 -92.45 12.35 -93.5 11.4 -94.1 10.15 -94.65 8.95 -94.55 7.6
L -90.25 8.5
Q -90.25 9.1 -89.95 9.55 -89.65 10 -89.15 10.25 -88.7 10.55 -88.05 10.65 -87.4 10.75 -86.65 10.65 -85.6 10.55 -85.1 9.95 -84.65 9.35 -84.5 8.6 -84.4 7.85 -84.5 7.05 -84.6 6.3 -84.7 5.8 -85.35 6.6 -86.35 6.95 -87.4 7.3 -88.5 7.3 -89.6 7.25 -90.7 6.85 -91.8 6.5 -92.7 5.8 -93.55 5.15 -94.1 4.2 -94.6 3.25 -94.55 2.1 -94.55 1 -94.15 0 -93.75 -1.05 -93 -1.9 -92.25 -2.75 -91.25 -3.3 -90.2 -3.85 -89.05 -4 -87.85 -4.15 -86.65 -3.85 -85.4 -3.55 -84.25 -2.6
L -84.25 -3.9 -80.5 -3.9 Z
M -100.75 -3.65
L -95.95 -3.65 -95.95 7.9 -100.35 7.9 -100.75 -3.65 Z
M -86.35 3.5
Q -86.05 3.1 -85.8 2.65 -85.6 2.2 -85.6 1.7 -85.55 1.2 -85.65 0.75 -85.75 0.3 -86.05 0 -86.35 -0.4 -86.9 -0.55 -87.4 -0.7 -87.95 -0.65 -88.5 -0.6 -89 -0.45 -89.5 -0.25 -89.75 0 -90 0.3 -90.15 0.75 -90.25 1.15 -90.25 1.55 -90.25 2 -90.1 2.4 -89.95 2.8 -89.75 3.05 -89.45 3.4 -89 3.6 -88.5 3.8 -88 3.85 -87.5 3.9 -87.05 3.8 -86.6 3.7 -86.35 3.5 Z
M -79 -3.8
L -74.8 -3.85 -74.8 -2.05
Q -74.05 -2.85 -72.9 -3.4 -71.8 -3.95 -70.6 -3.95 -69.7 -3.95 -68.9 -3.6 -68.1 -3.2 -67.55 -2.55 -67 -1.95 -66.65 -1.15 -66.35 -0.4 -66.35 0.4
L -66.35 7.95 -70.7 7.95 -70.55 1.85
Q -70.55 1.05 -71 0.5 -71.5 0 -72.3 0 -72.7 0 -73.1 0.1 -73.5 0.25 -73.85 0.45 -74.2 0.65 -74.45 0.9 -74.65 1.2 -74.7 1.5 -74.7 3.1 -74.75 4.7 -74.75 6.35 -74.75 7.95
L -79 7.95 -79 -3.8 Z
M -57.95 -6.9
Q -57.95 -7.25 -57.8 -7.75 -57.7 -8.2 -57.4 -8.55 -57.1 -8.95 -56.6 -9.2 -56.15 -9.45 -55.4 -9.45 -52.65 -9.45 -52.65 -6.65 -52.65 -6.45 -52.75 -6.05 -52.9 -5.7 -53.2 -5.3 -53.5 -4.95 -53.9 -4.65 -54.4 -4.4 -55.05 -4.4 -55.9 -4.4 -56.45 -4.65 -57 -4.9 -57.3 -5.25 -57.6 -5.65 -57.75 -6.1 -57.9 -6.55 -57.95 -6.9 Z
M -57.75 -3.65
L -52.95 -3.65 -52.95 7.9 -57.35 7.9 -57.75 -3.65 Z
M -51.95 -3.8
L -47.75 -3.85 -47.75 -2.05
Q -47 -2.85 -45.85 -3.4 -44.75 -3.95 -43.55 -3.95 -42.65 -3.95 -41.85 -3.6 -41.05 -3.2 -40.5 -2.55 -39.95 -1.95 -39.6 -1.15 -39.3 -0.4 -39.3 0.4
L -39.3 7.95 -43.65 7.95 -43.5 1.85
Q -43.5 1.05 -43.95 0.5 -44.45 0 -45.25 0 -45.65 0 -46.05 0.1 -46.45 0.25 -46.8 0.45 -47.15 0.65 -47.4 0.9 -47.6 1.2 -47.65 1.5 -47.65 3.1 -47.7 4.7 -47.7 6.35 -47.7 7.95
L -51.95 7.95 -51.95 -3.8 Z
M -25.9 -3.85
L -24.85 1.95 -23.65 -2.75 -20.9 -2.3 -19.3 1.8 -18.05 -3.95 -13.9 -3.95 -17.5 7.95 -21 7.95 -22.2 3.9 -23.4 7.95 -26.9 7.95 -30.7 -3.85 -25.9 -3.85 Z
M -13.4 -6.9
Q -13.4 -7.25 -13.25 -7.75 -13.15 -8.2 -12.85 -8.55 -12.55 -8.95 -12.05 -9.2 -11.6 -9.45 -10.85 -9.45 -8.1 -9.45 -8.1 -6.65 -8.1 -6.45 -8.2 -6.05 -8.35 -5.7 -8.65 -5.3 -8.95 -4.95 -9.35 -4.65 -9.85 -4.4 -10.5 -4.4 -11.35 -4.4 -11.9 -4.65 -12.45 -4.9 -12.75 -5.25 -13.05 -5.65 -13.2 -6.1 -13.35 -6.55 -13.4 -6.9 Z
M -13.2 -3.65
L -8.4 -3.65 -8.4 7.9 -12.8 7.9 -13.2 -3.65 Z
M 48.3 4.2
Q 49.45 4.25 50.05 3.6 50.7 2.9 50.7 2 50.7 1.2 50.05 0.55 49.45 -0.05 48.45 -0.1 47.95 -0.1 47.45 0.05 47 0.15 46.6 0.4 46.25 0.65 46.05 1.05 45.8 1.4 45.85 1.9 45.85 2.85 46.5 3.55 47.15 4.2 48.3 4.2 Z"/>
</g>
</g>
</g>

<g id="Layer_1" transform="matrix( 0.899993896484375, 0, 0, 0.899993896484375, 134.05,22.7) ">
<g transform="matrix( 1, 0, 0, 1, 0.9,0) ">
<g>
<g>
<path fill="#FFFFFF" stroke="none" d="
M -8.4 -3.65
L -13.2 -3.65 -12.8 7.9 -8.4 7.9 -8.4 -3.65
M -13.25 -7.75
Q -13.4 -7.25 -13.4 -6.9 -13.35 -6.55 -13.2 -6.1 -13.05 -5.65 -12.75 -5.25 -12.45 -4.9 -11.9 -4.65 -11.35 -4.4 -10.5 -4.4 -9.85 -4.4 -9.35 -4.65 -8.95 -4.95 -8.65 -5.3 -8.35 -5.7 -8.2 -6.05 -8.1 -6.45 -8.1 -6.65 -8.1 -9.45 -10.85 -9.45 -11.6 -9.45 -12.05 -9.2 -12.55 -8.95 -12.85 -8.55 -13.15 -8.2 -13.25 -7.75
M -20.9 -2.3
L -23.65 -2.75 -24.85 1.95 -25.9 -3.85 -30.7 -3.85 -26.9 7.95 -23.4 7.95 -22.2 3.9 -21 7.95 -17.5 7.95 -13.9 -3.95 -18.05 -3.95 -19.3 1.8 -20.9 -2.3
M -41.85 -3.6
Q -42.65 -3.95 -43.55 -3.95 -44.75 -3.95 -45.85 -3.4 -47 -2.85 -47.75 -2.05
L -47.75 -3.85 -51.95 -3.8 -51.95 7.95 -47.7 7.95
Q -47.7 6.35 -47.7 4.7 -47.65 3.1 -47.65 1.5 -47.6 1.2 -47.4 0.9 -47.15 0.65 -46.8 0.45 -46.45 0.25 -46.05 0.1 -45.65 0 -45.25 0 -44.45 0 -43.95 0.5 -43.5 1.05 -43.5 1.85
L -43.65 7.95 -39.3 7.95 -39.3 0.4
Q -39.3 -0.4 -39.6 -1.15 -39.95 -1.95 -40.5 -2.55 -41.05 -3.2 -41.85 -3.6
M -52.95 -3.65
L -57.75 -3.65 -57.35 7.9 -52.95 7.9 -52.95 -3.65
M -52.65 -6.65
Q -52.65 -9.45 -55.4 -9.45 -56.15 -9.45 -56.6 -9.2 -57.1 -8.95 -57.4 -8.55 -57.7 -8.2 -57.8 -7.75 -57.95 -7.25 -57.95 -6.9 -57.9 -6.55 -57.75 -6.1 -57.6 -5.65 -57.3 -5.25 -57 -4.9 -56.45 -4.65 -55.9 -4.4 -55.05 -4.4 -54.4 -4.4 -53.9 -4.65 -53.5 -4.95 -53.2 -5.3 -52.9 -5.7 -52.75 -6.05 -52.65 -6.45 -52.65 -6.65
M -74.8 -3.85
L -79 -3.8 -79 7.95 -74.75 7.95
Q -74.75 6.35 -74.75 4.7 -74.7 3.1 -74.7 1.5 -74.65 1.2 -74.45 0.9 -74.2 0.65 -73.85 0.45 -73.5 0.25 -73.1 0.1 -72.7 0 -72.3 0 -71.5 0 -71 0.5 -70.55 1.05 -70.55 1.85
L -70.7 7.95 -66.35 7.95 -66.35 0.4
Q -66.35 -0.4 -66.65 -1.15 -67 -1.95 -67.55 -2.55 -68.1 -3.2 -68.9 -3.6 -69.7 -3.95 -70.6 -3.95 -71.8 -3.95 -72.9 -3.4 -74.05 -2.85 -74.8 -2.05
L -74.8 -3.85
M -95.95 -3.65
L -100.75 -3.65 -100.35 7.9 -95.95 7.9 -95.95 -3.65
M -91.25 -3.3
Q -92.25 -2.75 -93 -1.9 -93.75 -1.05 -94.15 0 -94.55 1 -94.55 2.1 -94.6 3.25 -94.1 4.2 -93.55 5.15 -92.7 5.8 -91.8 6.5 -90.7 6.85 -89.6 7.25 -88.5 7.3 -87.4 7.3 -86.35 6.95 -85.35 6.6 -84.7 5.8 -84.6 6.3 -84.5 7.05 -84.4 7.85 -84.5 8.6 -84.65 9.35 -85.1 9.95 -85.6 10.55 -86.65 10.65 -87.4 10.75 -88.05 10.65 -88.7 10.55 -89.15 10.25 -89.65 10 -89.95 9.55 -90.25 9.1 -90.25 8.5
L -94.55 7.6
Q -94.65 8.95 -94.1 10.15 -93.5 11.4 -92.45 12.35 -91.45 13.3 -90.05 13.85 -88.7 14.45 -87.25 14.45 -85.2 14.45 -84 14.05 -82.8 13.6 -81.9 12.85 -81.05 12.05 -80.55 10.9 -80.05 9.7 -80.05 8.2 -80.05 5.1 -80.2 2.15 -80.4 -0.8 -80.5 -3.9
L -84.25 -3.9 -84.25 -2.6
Q -85.4 -3.55 -86.65 -3.85 -87.85 -4.15 -89.05 -4 -90.2 -3.85 -91.25 -3.3
M -89 -0.45
Q -88.5 -0.6 -87.95 -0.65 -87.4 -0.7 -86.9 -0.55 -86.35 -0.4 -86.05 0 -85.75 0.3 -85.65 0.75 -85.55 1.2 -85.6 1.7 -85.6 2.2 -85.8 2.65 -86.05 3.1 -86.35 3.5 -86.6 3.7 -87.05 3.8 -87.5 3.9 -88 3.85 -88.5 3.8 -89 3.6 -89.45 3.4 -89.75 3.05 -89.95 2.8 -90.1 2.4 -90.25 2 -90.25 1.55 -90.25 1.15 -90.15 0.75 -90 0.3 -89.75 0 -89.5 -0.25 -89 -0.45
M -98.4 -9.45
Q -99.15 -9.45 -99.6 -9.2 -100.1 -8.95 -100.4 -8.55 -100.7 -8.2 -100.8 -7.75 -100.95 -7.25 -100.95 -6.9 -100.9 -6.55 -100.75 -6.1 -100.6 -5.65 -100.3 -5.25 -100 -4.9 -99.45 -4.65 -98.9 -4.4 -98.05 -4.4 -97.4 -4.4 -96.9 -4.65 -96.5 -4.95 -96.2 -5.3 -95.9 -5.7 -95.75 -6.05 -95.65 -6.45 -95.65 -6.65 -95.65 -9.45 -98.4 -9.45
M -113.4 -7.9
Q -114.5 -7.25 -115.15 -6.25 -115.85 -5.2 -115.85 -3.85 -115.85 -2.65 -115.25 -1.65 -114.7 -0.6 -113.75 0.1 -112.8 0.85 -111.65 1.25 -110.45 1.65 -109.2 1.7 -109 1.7 -108.75 1.65 -108.45 1.65 -108.2 1.65 -107.85 1.65 -107.5 1.7 -107.2 1.75 -106.9 1.8 -106.65 1.9 -106.45 2.05 -106.3 2.25 -106.3 2.5 -106.3 2.8 -106.6 3.05 -106.85 3.25 -107.3 3.35 -107.7 3.5 -108.2 3.6 -108.65 3.65 -109 3.65 -110.15 3.65 -111.25 3.15 -112.35 2.7 -113.15 1.9
L -116.55 5.2
Q -115.85 5.95 -114.9 6.5 -114 7.05 -112.95 7.4 -111.95 7.75 -110.85 7.95 -109.75 8.15 -108.7 8.15 -107.4 8.15 -106.1 7.7 -104.8 7.3 -103.75 6.55 -102.7 5.8 -102.05 4.7 -101.4 3.6 -101.35 2.3 -101.35 0.95 -102 0 -102.6 -1 -103.6 -1.6 -104.55 -2.25 -105.8 -2.55 -107.05 -2.85 -108.25 -2.85 -108.5 -2.85 -108.75 -2.8 -109 -2.8 -109.3 -2.8 -109.5 -2.8 -109.8 -2.85 -110.1 -2.9 -110.3 -3 -110.55 -3.1 -110.7 -3.3 -110.85 -3.45 -110.85 -3.7 -110.85 -4.05 -110.65 -4.25 -110.4 -4.45 -110.05 -4.55 -109.75 -4.6 -109.35 -4.65 -108.95 -4.65 -108.65 -4.65 -107.4 -4.6 -106.35 -4.2 -105.3 -3.75 -104.3 -3.15
L -101.45 -6.55
Q -102.9 -7.8 -104.75 -8.5 -106.55 -9.15 -108.55 -9.2 -109.8 -9.2 -111.05 -8.85 -112.35 -8.55 -113.4 -7.9
M 105.4 -3.5
Q 104.2 -3 103.3 -2.2 102.4 -1.35 101.9 -0.3 101.35 0.8 101.35 2 101.35 3.25 101.95 4.35 102.5 5.5 103.5 6.35 104.5 7.15 105.75 7.65 107 8.15 108.4 8.1 109.4 8.1 110.4 7.8 111.45 7.5 112.3 7 113.15 6.45 113.75 5.7 114.4 4.95 114.6 4.05
L 110.95 3.35
Q 110.55 3.95 109.85 4.25 109.15 4.6 108.4 4.6 107.6 4.55 106.9 4.15 106.2 3.7 105.85 2.8
L 114.75 2.3
Q 114.75 0.65 114.2 -0.6 113.7 -1.85 112.75 -2.6 111.85 -3.4 110.6 -3.75 109.4 -4.1 107.95 -4.05 106.6 -4 105.4 -3.5
M 106.75 -0.95
Q 107.2 -1.1 107.7 -1.15 108.2 -1.15 108.7 -1.05 109.15 -0.9 109.5 -0.6 109.85 -0.25 109.95 0.25
L 105.85 0.35
Q 105.8 -0.1 106.05 -0.45 106.35 -0.75 106.75 -0.95
M 89.55 -3.65
L 84.75 -3.65 85.15 7.9 89.55 7.9 89.55 -3.65
M 90.1 -3.75
L 90.55 -0.3 93.25 -0.3 93.25 7.9 97.95 7.9 97.3 -0.25 101 -0.25 101.3 -3.6 97.25 -3.7
Q 97.25 -3.8 97.25 -4 97.25 -4.85 97.9 -5.4 98.65 -5.95 99.7 -5.95 100.35 -5.95 101 -5.75 101.65 -5.55 102.25 -5.3
L 102.45 -8.4
Q 101.6 -9.1 100.4 -9.4 99.25 -9.7 98.1 -9.7 96.85 -9.7 95.9 -9.3 94.95 -8.9 94.3 -8.2 93.6 -7.55 93.25 -6.65 92.9 -5.75 92.9 -4.8 92.9 -4.55 92.9 -4.3 92.95 -4.05 93 -3.8
L 90.1 -3.75
M 89.85 -6.65
Q 89.85 -9.45 87.1 -9.45 86.35 -9.45 85.9 -9.2 85.4 -8.95 85.1 -8.55 84.8 -8.2 84.7 -7.75 84.55 -7.25 84.55 -6.9 84.6 -6.55 84.75 -6.1 84.9 -5.65 85.2 -5.25 85.5 -4.9 86.05 -4.65 86.6 -4.4 87.45 -4.4 88.1 -4.4 88.6 -4.65 89 -4.95 89.3 -5.3 89.6 -5.7 89.75 -6.05 89.85 -6.45 89.85 -6.65
M 78.25 -9.15
L 72.65 -9.15 72.65 8 84.55 8 84.55 2.85 78.25 2.85 78.25 -9.15
M 60.05 -3.85
L 55.25 -3.85 59.05 7.95 62.55 7.95 63.75 3.9 64.95 7.95 68.45 7.95 72.05 -3.95 67.9 -3.95 66.65 1.8 65.05 -2.3 62.3 -2.75 61.1 1.95 60.05 -3.85
M 43.35 -2.45
Q 42.25 -1.65 41.6 -0.55 40.95 0.6 41 2 41.05 3.25 41.7 4.35 42.3 5.45 43.3 6.3 44.35 7.1 45.6 7.55 46.9 8.05 48.25 8.05 49.6 8.05 50.85 7.55 52.15 7.05 53.1 6.2 54.1 5.35 54.7 4.2 55.25 3.05 55.25 1.8 55.25 0.65 54.7 -0.45 54.1 -1.5 53.15 -2.3 52.2 -3.05 51 -3.55 49.8 -4 48.55 -4.05 47.2 -4.05 45.8 -3.65 44.45 -3.25 43.35 -2.45
M 46.05 1.05
Q 46.25 0.65 46.6 0.4 47 0.15 47.45 0.05 47.95 -0.1 48.45 -0.1 49.45 -0.05 50.05 0.55 50.7 1.2 50.7 2 50.7 2.9 50.05 3.6 49.45 4.25 48.3 4.2 47.15 4.2 46.5 3.55 45.85 2.85 45.85 1.9 45.8 1.4 46.05 1.05
M 32.5 -9.6
L 26.55 -7.55 32.55 1.1 32.55 7.95 38.35 7.95 38.35 1.45 44.65 -7.85 39.05 -8.95 35.6 -3.05 32.5 -9.6
M 9.45 -9.8
L 5.1 -9.8 5.1 7.95 9.85 8 9.9 4.1
Q 9.9 3.55 10 2.95 10.05 2.3 10.3 1.75 10.5 1.2 10.95 0.85 11.4 0.5 12.1 0.5 12.75 0.5 13.15 0.6 13.55 0.75 13.8 1.05 14 1.35 14.1 1.75 14.15 2.15 14.15 2.65
L 14.25 8 18.45 8 18.45 1.4
Q 18.45 0.55 18.15 -0.4 17.8 -1.3 17.25 -2.05 16.65 -2.85 15.8 -3.3 14.95 -3.8 13.85 -3.8 13.25 -3.8 12.6 -3.65 12 -3.5 11.45 -3.2 10.85 -2.9 10.45 -2.5 10 -2.05 9.8 -1.5
L 9.45 -9.8
M 2.55 -0.85
L 2 -4.1 -0.7 -4.1 -0.85 -7 -4.8 -6.55 -4.9 -4 -6.9 -4 -6.6 -0.9 -5.05 -0.85
Q -4.95 0.55 -5 1.9 -5.05 3.25 -4.95 4.65 -4.85 5.7 -4.4 6.4 -3.95 7.1 -3.3 7.5 -2.65 7.95 -1.8 8.1 -0.95 8.25 -0.1 8.25 0.55 8.2 1.15 8.15 1.8 8.1 2.35 7.95 2.9 7.75 3.4 7.5 3.9 7.2 4.35 6.7
L 3.3 3.45
Q 3 3.75 2.75 3.95 2.5 4.2 2.25 4.35 1.95 4.5 1.55 4.55 1.2 4.6 0.65 4.6 0.25 4.6 0 4.45 -0.25 4.25 -0.4 4 -0.6 3.7 -0.65 3.4 -0.7 3.05 -0.7 2.7
L -0.7 -0.85 2.55 -0.85 Z"/>
</g>
</g>
</g>
</g>
</g>
</svg>
