
<svg xmlns="http://www.w3.org/2000/svg" version="1.1" xmlns:xlink="http://www.w3.org/1999/xlink" preserveAspectRatio="none" x="0px" y="0px" width="321px" height="54px" viewBox="0 0 321 54">
<defs>
<linearGradient id="Gradient_1" gradientUnits="userSpaceOnUse" x1="0.05" y1="-23.387500000000003" x2="0.05" y2="33.1875" spreadMethod="pad">
<stop  offset="0%" stop-color="#FFE465"/>

<stop  offset="100%" stop-color="#E0BA00"/>
</linearGradient>
</defs>

<g id="Layer_1">
<g id="Layer_3" transform="matrix( 0.899993896484375, 0, 0, 0.899993896484375, 160.7,27) ">
<g>
<g>
<g>
<path fill="url(#Gradient_1)" stroke="none" d="
M 177.5 -9.65
Q 176.6 -17 171.3 -22.5 165.1 -29 156.25 -29
L -156.2 -29
Q -165 -29 -171.25 -22.5 -176.5 -17 -177.35 -9.65 -177.5 -8.6 -177.55 -7.55
L -177.55 7.45
Q -177.35 16.35 -171.25 22.65 -165 29.1 -156.2 29.1
L 156.25 29.1
Q 165.1 29.1 171.3 22.65 177.4 16.35 177.6 7.5
L 177.6 -7.55
Q 177.55 -8.6 177.5 -9.65 Z"/>
</g>
</g>

<g>
<path stroke="#CAA800" stroke-width="2" stroke-linejoin="round" stroke-linecap="round" fill="none" d="
M 156.25 -29
L -156.2 -29
Q -165 -29 -171.25 -22.5 -176.5 -17 -177.35 -9.65 -177.5 -8.6 -177.55 -7.55
L -177.55 7.45
Q -177.35 16.35 -171.25 22.65 -165 29.1 -156.2 29.1
L 156.25 29.1
Q 165.1 29.1 171.3 22.65 177.4 16.35 177.6 7.5
L 177.6 -7.55
Q 177.55 -8.6 177.5 -9.65 176.6 -17 171.3 -22.5 165.1 -29 156.25 -29 Z"/>
</g>
</g>
</g>

<g id="Layer_2" transform="matrix( 0.899993896484375, 0, 0, 0.899993896484375, 160.7,27) ">
<g transform="matrix( 1, 0, 0, 1, 0.5,0) ">
<g>
<g>
<path fill="#CAA800" stroke="none" d="
M -103.75 2.95
L -106.35 10.25 -102.65 10.85 -98.9 4.6 -103.75 2.95
M -16.85 -3.5
Q -18.05 -3 -18.95 -2.2 -19.85 -1.35 -20.35 -0.3 -20.9 0.8 -20.9 2 -20.9 3.25 -20.3 4.35 -19.75 5.5 -18.75 6.35 -17.75 7.15 -16.5 7.65 -15.25 8.15 -13.85 8.1 -12.85 8.1 -11.85 7.8 -10.8 7.5 -9.95 7 -9.1 6.45 -8.5 5.7 -7.85 4.95 -7.65 4.05
L -11.3 3.35
Q -11.7 3.95 -12.4 4.25 -13.1 4.6 -13.85 4.6 -14.65 4.55 -15.35 4.15 -16.05 3.7 -16.4 2.8
L -7.5 2.3
Q -7.5 0.65 -8.05 -0.6 -8.55 -1.85 -9.5 -2.6 -10.4 -3.4 -11.65 -3.75 -12.85 -4.1 -14.3 -4.05 -15.65 -4 -16.85 -3.5
M -13.55 -1.05
Q -13.1 -0.9 -12.75 -0.6 -12.4 -0.25 -12.3 0.25
L -16.4 0.35
Q -16.45 -0.1 -16.2 -0.45 -15.9 -0.75 -15.5 -0.95 -15.05 -1.1 -14.55 -1.15 -14.05 -1.15 -13.55 -1.05
M -31.4 -4
L -31.1 -0.9 -29.55 -0.85
Q -29.45 0.55 -29.5 1.9 -29.55 3.25 -29.45 4.65 -29.35 5.7 -28.9 6.4 -28.45 7.1 -27.8 7.5 -27.15 7.95 -26.3 8.1 -25.45 8.25 -24.6 8.25 -23.95 8.2 -23.35 8.15 -22.7 8.1 -22.15 7.95 -21.6 7.75 -21.1 7.5 -20.6 7.2 -20.15 6.7
L -21.2 3.45
Q -21.5 3.75 -21.75 3.95 -22 4.2 -22.25 4.35 -22.55 4.5 -22.95 4.55 -23.3 4.6 -23.85 4.6 -24.25 4.6 -24.5 4.45 -24.75 4.25 -24.9 4 -25.1 3.7 -25.15 3.4 -25.2 3.05 -25.2 2.7
L -25.2 -0.85 -21.95 -0.85 -22.5 -4.1 -25.2 -4.1 -25.35 -7 -29.3 -6.55 -29.4 -4 -31.4 -4
M -42.55 -3.6
Q -43.75 -3.1 -44.65 -2.3 -45.55 -1.45 -46 -0.3 -46.5 0.8 -46.5 2.1 -46.5 3.4 -46 4.5 -45.45 5.6 -44.6 6.4 -43.75 7.15 -42.7 7.6 -41.6 8.05 -40.45 8.05 -39.1 8.05 -38.15 7.6 -37.2 7.1 -36.7 6.45
L -36.6 7.95 -32.25 7.95 -32.8 -3.95 -36.75 -3.95 -36.8 -2.7
Q -37.25 -3.45 -38.1 -3.75 -38.95 -4.05 -39.85 -4.05 -41.3 -4.05 -42.55 -3.6
M -40.45 -0.3
Q -39.95 -0.45 -39.4 -0.45 -38.95 -0.45 -38.5 -0.3 -38.1 -0.15 -37.8 0.1 -37.45 0.4 -37.3 0.75 -37.1 1.15 -37.15 1.55 -37.15 2.05 -37.35 2.5 -37.5 3 -37.85 3.35 -38.1 3.75 -38.55 4 -39 4.25 -39.55 4.25 -40.1 4.25 -40.55 4.05 -41.05 3.85 -41.4 3.5 -41.8 3.2 -42 2.75 -42.25 2.35 -42.25 1.85 -42.25 1.35 -42 0.95 -41.75 0.5 -41.35 0.2 -40.95 -0.1 -40.45 -0.3
M -59.05 -2.2
Q -59.95 -1.35 -60.45 -0.3 -61 0.8 -61 2 -61 3.25 -60.4 4.35 -59.85 5.5 -58.85 6.35 -57.85 7.15 -56.6 7.65 -55.35 8.15 -53.95 8.1 -52.95 8.1 -51.95 7.8 -50.9 7.5 -50.05 7 -49.2 6.45 -48.6 5.7 -47.95 4.95 -47.75 4.05
L -51.4 3.35
Q -51.8 3.95 -52.5 4.25 -53.2 4.6 -53.95 4.6 -54.75 4.55 -55.45 4.15 -56.15 3.7 -56.5 2.8
L -47.6 2.3
Q -47.6 0.65 -48.15 -0.6 -48.65 -1.85 -49.6 -2.6 -50.5 -3.4 -51.75 -3.75 -52.95 -4.1 -54.4 -4.05 -55.75 -4 -56.95 -3.5 -58.15 -3 -59.05 -2.2
M -53.65 -1.05
Q -53.2 -0.9 -52.85 -0.6 -52.5 -0.25 -52.4 0.25
L -56.5 0.35
Q -56.55 -0.1 -56.3 -0.45 -56 -0.75 -55.6 -0.95 -55.15 -1.1 -54.65 -1.15 -54.15 -1.15 -53.65 -1.05
M -62.1 -3.7
Q -63.05 -3.95 -63.75 -3.95 -64.15 -3.95 -64.6 -3.85 -65.05 -3.75 -65.45 -3.5 -65.85 -3.3 -66.2 -2.9 -66.55 -2.55 -66.75 -2.05
L -66.75 -3.8 -71.1 -3.8 -71.1 8.1 -66.75 8.1 -66.75 4.75
Q -66.75 4.05 -66.65 3.25 -66.55 2.4 -66.3 1.7 -66 1 -65.5 0.55 -65 0.1 -64.1 0.1 -63.8 0.05 -63.45 0.1 -63.15 0.2 -62.75 0.35 -62.4 0.55 -62.05 0.95
L -60.35 -2.5
Q -61.2 -3.4 -62.1 -3.7
M -85.1 -0.6
Q -85.1 -1.25 -84.85 -1.85 -84.55 -2.5 -84.05 -3 -83.5 -3.5 -82.8 -3.8 -82.05 -4.1 -81.2 -4.1 -80.65 -4.1 -80.05 -4 -79.5 -3.9 -79.05 -3.65 -78.55 -3.45 -78.15 -3.1 -77.8 -2.8 -77.6 -2.35
L -72.85 -3.15
Q -73.55 -6 -75.95 -7.6 -78.35 -9.15 -82.05 -9.15 -84 -9.15 -85.55 -8.4 -87.1 -7.65 -88.25 -6.35 -89.4 -5.15 -90 -3.55 -90.6 -1.95 -90.6 -0.25 -90.6 1.45 -89.85 2.95 -89.1 4.45 -87.85 5.65 -86.55 6.75 -84.9 7.45 -83.2 8.1 -81.35 8.1 -79.95 8.1 -78.55 7.7 -77.15 7.3 -75.95 6.55 -74.75 5.75 -73.95 4.7 -73.1 3.65 -72.85 2.35
L -77.4 1
Q -77.55 1.4 -77.9 1.75 -78.3 2.05 -78.8 2.25 -79.3 2.45 -79.85 2.55 -80.45 2.65 -80.95 2.65 -81.8 2.65 -82.5 2.4 -83.25 2.15 -83.85 1.7 -84.4 1.25 -84.75 0.65 -85.05 0.05 -85.1 -0.6
M -116.5 -1.85
Q -117 -1.1 -117 -0.25 -117 0.55 -116.55 1.25 -116.15 1.9 -115.5 2.4 -114.85 2.85 -114.05 3.1 -113.25 3.35 -112.5 3.35 -111.6 3.35 -111.1 3.45 -110.65 3.5 -110.65 3.95 -110.65 4.2 -110.8 4.3 -111 4.45 -111.25 4.5 -111.5 4.6 -111.8 4.6 -112.1 4.65 -112.35 4.65 -113.15 4.65 -113.85 4.35 -114.6 4.1 -115.1 3.7
L -117.45 6.2
Q -116.5 7.2 -115 7.7 -113.55 8.15 -112.05 8.15 -111.05 8.15 -110.1 7.85 -109.1 7.55 -108.35 7 -107.55 6.45 -107.05 5.7 -106.55 4.95 -106.55 4 -106.55 2.35 -107.85 1.4 -109.1 0.45 -111.35 0.45 -111.65 0.45 -112 0.4 -112.3 0.4 -112.6 0.35 -112.85 0.3 -113.05 0.15 -113.25 0 -113.25 -0.2 -113.25 -0.4 -113.05 -0.55 -112.85 -0.65 -112.6 -0.75 -112.3 -0.8 -112 -0.8 -111.7 -0.85 -111.45 -0.8 -111.15 -0.8 -110.8 -0.75 -110.55 -0.7 -110.15 -0.6 -109.8 -0.5 -109.3 -0.3 -108.85 -0.1 -108.2 0.25
L -106.55 -2.2
Q -107.55 -3.05 -108.85 -3.55 -110.2 -4.1 -111.65 -4.15 -112.6 -4.15 -113.55 -3.9 -114.5 -3.6 -115.25 -3.1 -116 -2.6 -116.5 -1.85
M -122.25 -3.75
Q -123.45 -4.1 -124.9 -4.05 -126.25 -4 -127.45 -3.5 -128.65 -3 -129.55 -2.2 -130.45 -1.35 -130.95 -0.3 -131.5 0.8 -131.5 2 -131.5 3.25 -130.9 4.35 -130.35 5.5 -129.35 6.35 -128.35 7.15 -127.1 7.65 -125.85 8.15 -124.45 8.1 -123.45 8.1 -122.45 7.8 -121.4 7.5 -120.55 7 -119.7 6.45 -119.1 5.7 -118.45 4.95 -118.25 4.05
L -121.9 3.35
Q -122.3 3.95 -123 4.25 -123.7 4.6 -124.45 4.6 -125.25 4.55 -125.95 4.15 -126.65 3.7 -127 2.8
L -118.1 2.3
Q -118.1 0.65 -118.65 -0.6 -119.15 -1.85 -120.1 -2.6 -121 -3.4 -122.25 -3.75
M -126.8 -0.45
Q -126.5 -0.75 -126.1 -0.95 -125.65 -1.1 -125.15 -1.15 -124.65 -1.15 -124.15 -1.05 -123.7 -0.9 -123.35 -0.6 -123 -0.25 -122.9 0.25
L -127 0.35
Q -127.05 -0.1 -126.8 -0.45
M -133.9 -8.95
L -137.35 -3.05 -140.45 -9.6 -146.4 -7.55 -140.4 1.1 -140.4 7.95 -134.6 7.95 -134.6 1.45 -128.3 -7.85 -133.9 -8.95
M 142.85 8.05
Q 143.55 8.05 144.05 7.75 144.5 7.45 144.8 7.05 145.1 6.65 145.2 6.25 145.35 5.85 145.35 5.65 145.35 2.7 142.45 2.7 141.7 2.7 141.2 3 140.7 3.25 140.4 3.65 140.05 4 139.9 4.5 139.8 5 139.8 5.4 139.85 5.75 139.95 6.2 140.1 6.7 140.45 7.1 140.8 7.5 141.35 7.75 141.95 8.05 142.85 8.05
M 145.3 -9.4
L 139.8 -9.4 140.25 2.1 145.2 1.95 145.3 -9.4
M 128.4 -4
L 128.7 -0.9 130.25 -0.85
Q 130.35 0.55 130.3 1.9 130.25 3.25 130.35 4.65 130.45 5.7 130.9 6.4 131.35 7.1 132 7.5 132.65 7.95 133.5 8.1 134.35 8.25 135.2 8.25 135.85 8.2 136.45 8.15 137.1 8.1 137.65 7.95 138.2 7.75 138.7 7.5 139.2 7.2 139.65 6.7
L 138.6 3.45
Q 138.3 3.75 138.05 3.95 137.8 4.2 137.55 4.35 137.25 4.5 136.85 4.55 136.5 4.6 135.95 4.6 135.55 4.6 135.3 4.45 135.05 4.25 134.9 4 134.7 3.7 134.65 3.4 134.6 3.05 134.6 2.7
L 134.6 -0.85 137.85 -0.85 137.3 -4.1 134.6 -4.1 134.45 -7 130.5 -6.55 130.4 -4 128.4 -4
M 120.45 -3.4
Q 119.3 -2.85 118.55 -2.05
L 118.55 -3.85 114.35 -3.8 114.35 7.95 118.6 7.95
Q 118.6 6.35 118.6 4.7 118.65 3.1 118.65 1.5 118.7 1.2 118.9 0.9 119.15 0.65 119.5 0.45 119.85 0.25 120.25 0.1 120.65 0 121.05 0 121.85 0 122.35 0.5 122.8 1.05 122.8 1.85
L 122.65 7.95 127 7.95 127 0.4
Q 127 -0.4 126.7 -1.15 126.35 -1.95 125.8 -2.55 125.25 -3.2 124.45 -3.6 123.65 -3.95 122.75 -3.95 121.55 -3.95 120.45 -3.4
M 113.4 -3.85
L 109.25 -3.85 109.2 2.4
Q 109.15 3.2 108.75 3.7 108.4 4.25 107.6 4.25 107 4.25 106.6 4.05 106.25 3.85 106.05 3.6 105.8 3.3 105.75 2.95 105.65 2.6 105.65 2.2
L 105.65 -3.9 101.35 -3.9 101.25 3.55
Q 101.25 4.5 101.5 5.3 101.75 6.1 102.25 6.7 102.7 7.25 103.5 7.6 104.3 7.9 105.35 7.9 106.25 7.9 106.9 7.8 107.55 7.7 108 7.45 108.4 7.2 108.7 6.9 109 6.55 109.2 6.15
L 109.2 7.8 113.4 7.8 113.4 -3.85
M 88.15 -2.45
Q 87.05 -1.65 86.4 -0.55 85.75 0.6 85.8 2 85.85 3.25 86.5 4.35 87.1 5.45 88.1 6.3 89.15 7.1 90.4 7.55 91.7 8.05 93.05 8.05 94.4 8.05 95.65 7.55 96.95 7.05 97.9 6.2 98.9 5.35 99.5 4.2 100.05 3.05 100.05 1.8 100.05 0.65 99.5 -0.45 98.9 -1.5 97.95 -2.3 97 -3.05 95.8 -3.55 94.6 -4 93.35 -4.05 92 -4.05 90.6 -3.65 89.25 -3.25 88.15 -2.45
M 94.85 3.6
Q 94.25 4.25 93.1 4.2 91.95 4.2 91.3 3.55 90.65 2.85 90.65 1.9 90.6 1.4 90.85 1.05 91.05 0.65 91.4 0.4 91.8 0.15 92.25 0.05 92.75 -0.1 93.25 -0.1 94.25 -0.05 94.85 0.55 95.5 1.2 95.5 2 95.5 2.9 94.85 3.6
M 76.85 -0.1
Q 77.35 -0.4 77.95 -0.45 78.55 -0.5 79.1 -0.35 79.65 -0.2 80.1 0.2 80.55 0.6 80.75 1.2
L 84.95 0.85
Q 84.95 -0.3 84.35 -1.2 83.75 -2.1 82.8 -2.75 81.85 -3.4 80.65 -3.7 79.45 -4.05 78.25 -4.05 76.8 -4.05 75.6 -3.55 74.4 -3.05 73.5 -2.25 72.65 -1.4 72.15 -0.3 71.65 0.8 71.65 1.95 71.65 3.25 72.2 4.35 72.75 5.45 73.7 6.3 74.7 7.15 75.95 7.6 77.25 8.1 78.7 8.1 79.85 8.1 80.95 7.75 82.05 7.35 82.95 6.75 83.8 6.1 84.35 5.25 84.9 4.35 84.9 3.35
L 80.75 3
Q 80.4 3.8 79.55 4.15 78.7 4.5 77.8 4.35 76.95 4.2 76.3 3.6 75.65 2.95 75.7 1.9 75.7 1.2 76.05 0.65 76.35 0.15 76.85 -0.1
M 59.3 -2.25
Q 58.45 -1.4 57.95 -0.3 57.45 0.8 57.45 1.95 57.45 3.25 58 4.35 58.55 5.45 59.5 6.3 60.5 7.15 61.75 7.6 63.05 8.1 64.5 8.1 65.65 8.1 66.75 7.75 67.85 7.35 68.75 6.75 69.6 6.1 70.15 5.25 70.7 4.35 70.7 3.35
L 66.55 3
Q 66.2 3.8 65.35 4.15 64.5 4.5 63.6 4.35 62.75 4.2 62.1 3.6 61.45 2.95 61.5 1.9 61.5 1.2 61.85 0.65 62.15 0.15 62.65 -0.1 63.15 -0.4 63.75 -0.45 64.35 -0.5 64.9 -0.35 65.45 -0.2 65.9 0.2 66.35 0.6 66.55 1.2
L 70.75 0.85
Q 70.75 -0.3 70.15 -1.2 69.55 -2.1 68.6 -2.75 67.65 -3.4 66.45 -3.7 65.25 -4.05 64.05 -4.05 62.6 -4.05 61.4 -3.55 60.2 -3.05 59.3 -2.25
M 48.9 -4.05
Q 47.45 -4.05 46.2 -3.6 45 -3.1 44.1 -2.3 43.2 -1.45 42.75 -0.3 42.25 0.8 42.25 2.1 42.25 3.4 42.75 4.5 43.3 5.6 44.15 6.4 45 7.15 46.05 7.6 47.15 8.05 48.3 8.05 49.65 8.05 50.6 7.6 51.55 7.1 52.05 6.45
L 52.15 7.95 56.5 7.95 55.95 -3.95 52 -3.95 51.95 -2.7
Q 51.5 -3.45 50.65 -3.75 49.8 -4.05 48.9 -4.05
M 48.3 -0.3
Q 48.8 -0.45 49.35 -0.45 49.8 -0.45 50.25 -0.3 50.65 -0.15 50.95 0.1 51.3 0.4 51.45 0.75 51.65 1.15 51.6 1.55 51.6 2.05 51.4 2.5 51.25 3 50.9 3.35 50.65 3.75 50.2 4 49.75 4.25 49.2 4.25 48.65 4.25 48.2 4.05 47.7 3.85 47.35 3.5 46.95 3.2 46.75 2.75 46.5 2.35 46.5 1.85 46.5 1.35 46.75 0.95 47 0.5 47.4 0.2 47.8 -0.1 48.3 -0.3
M 34.1 -4.25
L 29 -4 27.3 3.75 24.95 -4 19.8 -3.85 24.75 8.1
Q 24.85 8.7 24.7 9.15 24.55 9.55 24.2 9.8 23.9 10 23.5 10.1 23.1 10.15 22.75 10.1 22.2 9.95 21.55 9.85 20.95 9.75 20.5 9.4
L 19.55 13.3
Q 21.25 14.1 23.15 14.3 24.3 14.3 25.4 13.95 26.5 13.6 27.45 12.85 28.4 12.1 29.15 10.9 29.85 9.75 30.3 8.15
L 34.1 -4.25
M 9.15 -4.1
Q 8.6 -4.2 8.05 -4.15 7 -4.05 5.9 -3.7 4.8 -3.35 4.1 -2.55
L 4.15 -4.05 0.3 -3.9 0.3 7.95 4.55 7.95 4.55 0.75
Q 4.5 0.45 4.7 0.2 4.85 0 5.1 -0.2 5.35 -0.35 5.65 -0.45 5.95 -0.5 6.25 -0.5 6.65 -0.5 6.95 -0.35 7.25 -0.2 7.4 0.1 7.6 0.35 7.65 0.75 7.7 1.1 7.7 1.5
L 7.75 7.95 12.5 7.9 12.3 0.35
Q 12.25 0.15 12.4 -0.05 12.5 -0.25 12.7 -0.35 12.9 -0.5 13.15 -0.55 13.4 -0.65 13.65 -0.65 14.05 -0.6 14.4 -0.4 14.7 -0.2 14.9 0.1 15.1 0.45 15.25 0.8 15.35 1.2 15.35 1.5
L 15.45 7.95 19.85 7.95 19.85 -0.3
Q 19.9 -1 19.6 -1.7 19.3 -2.4 18.75 -2.95 18.2 -3.5 17.45 -3.85 16.75 -4.15 15.95 -4.2 15.35 -4.2 14.7 -4.15 14.1 -4.05 13.55 -3.8 12.95 -3.6 12.5 -3.25 12.05 -2.9 11.75 -2.4 11.55 -2.85 11.15 -3.2 10.75 -3.55 10.2 -3.75 9.7 -4 9.15 -4.1 Z"/>
</g>
</g>

<g>
<path stroke="#CAA800" stroke-width="6" stroke-linejoin="round" stroke-linecap="round" fill="none" d="
M 11.75 -2.4
Q 12.05 -2.9 12.5 -3.25 12.95 -3.6 13.55 -3.8 14.1 -4.05 14.7 -4.15 15.35 -4.2 15.95 -4.2 16.75 -4.15 17.45 -3.85 18.2 -3.5 18.75 -2.95 19.3 -2.4 19.6 -1.7 19.9 -1 19.85 -0.3
L 19.85 7.95 15.45 7.95 15.35 1.5
Q 15.35 1.2 15.25 0.8 15.1 0.45 14.9 0.1 14.7 -0.2 14.4 -0.4 14.05 -0.6 13.65 -0.65 13.4 -0.65 13.15 -0.55 12.9 -0.5 12.7 -0.35 12.5 -0.25 12.4 -0.05 12.25 0.15 12.3 0.35
L 12.5 7.9 7.75 7.95 7.7 1.5
Q 7.7 1.1 7.65 0.75 7.6 0.35 7.4 0.1 7.25 -0.2 6.95 -0.35 6.65 -0.5 6.25 -0.5 5.95 -0.5 5.65 -0.45 5.35 -0.35 5.1 -0.2 4.85 0 4.7 0.2 4.5 0.45 4.55 0.75
L 4.55 7.95 0.3 7.95 0.3 -3.9 4.15 -4.05 4.1 -2.55
Q 4.8 -3.35 5.9 -3.7 7 -4.05 8.05 -4.15 8.6 -4.2 9.15 -4.1 9.7 -4 10.2 -3.75 10.75 -3.55 11.15 -3.2 11.55 -2.85 11.75 -2.4 Z
M 30.3 8.15
Q 29.85 9.75 29.15 10.9 28.4 12.1 27.45 12.85 26.5 13.6 25.4 13.95 24.3 14.3 23.15 14.3 21.25 14.1 19.55 13.3
L 20.5 9.4
Q 20.95 9.75 21.55 9.85 22.2 9.95 22.75 10.1 23.1 10.15 23.5 10.1 23.9 10 24.2 9.8 24.55 9.55 24.7 9.15 24.85 8.7 24.75 8.1
L 19.8 -3.85 24.95 -4 27.3 3.75 29 -4 34.1 -4.25 30.3 8.15 Z
M 46.5 1.85
Q 46.5 2.35 46.75 2.75 46.95 3.2 47.35 3.5 47.7 3.85 48.2 4.05 48.65 4.25 49.2 4.25 49.75 4.25 50.2 4 50.65 3.75 50.9 3.35 51.25 3 51.4 2.5 51.6 2.05 51.6 1.55 51.65 1.15 51.45 0.75 51.3 0.4 50.95 0.1 50.65 -0.15 50.25 -0.3 49.8 -0.45 49.35 -0.45 48.8 -0.45 48.3 -0.3 47.8 -0.1 47.4 0.2 47 0.5 46.75 0.95 46.5 1.35 46.5 1.85 Z
M 56.5 7.95
L 52.15 7.95 52.05 6.45
Q 51.55 7.1 50.6 7.6 49.65 8.05 48.3 8.05 47.15 8.05 46.05 7.6 45 7.15 44.15 6.4 43.3 5.6 42.75 4.5 42.25 3.4 42.25 2.1 42.25 0.8 42.75 -0.3 43.2 -1.45 44.1 -2.3 45 -3.1 46.2 -3.6 47.45 -4.05 48.9 -4.05 49.8 -4.05 50.65 -3.75 51.5 -3.45 51.95 -2.7
L 52 -3.95 55.95 -3.95 56.5 7.95 Z
M 70.7 3.35
Q 70.7 4.35 70.15 5.25 69.6 6.1 68.75 6.75 67.85 7.35 66.75 7.75 65.65 8.1 64.5 8.1 63.05 8.1 61.75 7.6 60.5 7.15 59.5 6.3 58.55 5.45 58 4.35 57.45 3.25 57.45 1.95 57.45 0.8 57.95 -0.3 58.45 -1.4 59.3 -2.25 60.2 -3.05 61.4 -3.55 62.6 -4.05 64.05 -4.05 65.25 -4.05 66.45 -3.7 67.65 -3.4 68.6 -2.75 69.55 -2.1 70.15 -1.2 70.75 -0.3 70.75 0.85
L 66.55 1.2
Q 66.35 0.6 65.9 0.2 65.45 -0.2 64.9 -0.35 64.35 -0.5 63.75 -0.45 63.15 -0.4 62.65 -0.1 62.15 0.15 61.85 0.65 61.5 1.2 61.5 1.9 61.45 2.95 62.1 3.6 62.75 4.2 63.6 4.35 64.5 4.5 65.35 4.15 66.2 3.8 66.55 3
L 70.7 3.35 Z
M 84.9 3.35
Q 84.9 4.35 84.35 5.25 83.8 6.1 82.95 6.75 82.05 7.35 80.95 7.75 79.85 8.1 78.7 8.1 77.25 8.1 75.95 7.6 74.7 7.15 73.7 6.3 72.75 5.45 72.2 4.35 71.65 3.25 71.65 1.95 71.65 0.8 72.15 -0.3 72.65 -1.4 73.5 -2.25 74.4 -3.05 75.6 -3.55 76.8 -4.05 78.25 -4.05 79.45 -4.05 80.65 -3.7 81.85 -3.4 82.8 -2.75 83.75 -2.1 84.35 -1.2 84.95 -0.3 84.95 0.85
L 80.75 1.2
Q 80.55 0.6 80.1 0.2 79.65 -0.2 79.1 -0.35 78.55 -0.5 77.95 -0.45 77.35 -0.4 76.85 -0.1 76.35 0.15 76.05 0.65 75.7 1.2 75.7 1.9 75.65 2.95 76.3 3.6 76.95 4.2 77.8 4.35 78.7 4.5 79.55 4.15 80.4 3.8 80.75 3
L 84.9 3.35 Z
M 100.05 1.8
Q 100.05 3.05 99.5 4.2 98.9 5.35 97.9 6.2 96.95 7.05 95.65 7.55 94.4 8.05 93.05 8.05 91.7 8.05 90.4 7.55 89.15 7.1 88.1 6.3 87.1 5.45 86.5 4.35 85.85 3.25 85.8 2 85.75 0.6 86.4 -0.55 87.05 -1.65 88.15 -2.45 89.25 -3.25 90.6 -3.65 92 -4.05 93.35 -4.05 94.6 -4 95.8 -3.55 97 -3.05 97.95 -2.3 98.9 -1.5 99.5 -0.45 100.05 0.65 100.05 1.8 Z
M 101.35 -3.9
L 105.65 -3.9 105.65 2.2
Q 105.65 2.6 105.75 2.95 105.8 3.3 106.05 3.6 106.25 3.85 106.6 4.05 107 4.25 107.6 4.25 108.4 4.25 108.75 3.7 109.15 3.2 109.2 2.4
L 109.25 -3.85 113.4 -3.85 113.4 7.8 109.2 7.8 109.2 6.15
Q 109 6.55 108.7 6.9 108.4 7.2 108 7.45 107.55 7.7 106.9 7.8 106.25 7.9 105.35 7.9 104.3 7.9 103.5 7.6 102.7 7.25 102.25 6.7 101.75 6.1 101.5 5.3 101.25 4.5 101.25 3.55
L 101.35 -3.9 Z
M 114.35 -3.8
L 118.55 -3.85 118.55 -2.05
Q 119.3 -2.85 120.45 -3.4 121.55 -3.95 122.75 -3.95 123.65 -3.95 124.45 -3.6 125.25 -3.2 125.8 -2.55 126.35 -1.95 126.7 -1.15 127 -0.4 127 0.4
L 127 7.95 122.65 7.95 122.8 1.85
Q 122.8 1.05 122.35 0.5 121.85 0 121.05 0 120.65 0 120.25 0.1 119.85 0.25 119.5 0.45 119.15 0.65 118.9 0.9 118.7 1.2 118.65 1.5 118.65 3.1 118.6 4.7 118.6 6.35 118.6 7.95
L 114.35 7.95 114.35 -3.8 Z
M 128.4 -4
L 130.4 -4 130.5 -6.55 134.45 -7 134.6 -4.1 137.3 -4.1 137.85 -0.85 134.6 -0.85 134.6 2.7
Q 134.6 3.05 134.65 3.4 134.7 3.7 134.9 4 135.05 4.25 135.3 4.45 135.55 4.6 135.95 4.6 136.5 4.6 136.85 4.55 137.25 4.5 137.55 4.35 137.8 4.2 138.05 3.95 138.3 3.75 138.6 3.45
L 139.65 6.7
Q 139.2 7.2 138.7 7.5 138.2 7.75 137.65 7.95 137.1 8.1 136.45 8.15 135.85 8.2 135.2 8.25 134.35 8.25 133.5 8.1 132.65 7.95 132 7.5 131.35 7.1 130.9 6.4 130.45 5.7 130.35 4.65 130.25 3.25 130.3 1.9 130.35 0.55 130.25 -0.85
L 128.7 -0.9 128.4 -4 Z
M 139.8 -9.4
L 145.3 -9.4 145.2 1.95 140.25 2.1 139.8 -9.4 Z
M 139.8 5.4
Q 139.8 5 139.9 4.5 140.05 4 140.4 3.65 140.7 3.25 141.2 3 141.7 2.7 142.45 2.7 145.35 2.7 145.35 5.65 145.35 5.85 145.2 6.25 145.1 6.65 144.8 7.05 144.5 7.45 144.05 7.75 143.55 8.05 142.85 8.05 141.95 8.05 141.35 7.75 140.8 7.5 140.45 7.1 140.1 6.7 139.95 6.2 139.85 5.75 139.8 5.4 Z
M 93.1 4.2
Q 94.25 4.25 94.85 3.6 95.5 2.9 95.5 2 95.5 1.2 94.85 0.55 94.25 -0.05 93.25 -0.1 92.75 -0.1 92.25 0.05 91.8 0.15 91.4 0.4 91.05 0.65 90.85 1.05 90.6 1.4 90.65 1.9 90.65 2.85 91.3 3.55 91.95 4.2 93.1 4.2 Z
M -128.3 -7.85
L -134.6 1.45 -134.6 7.95 -140.4 7.95 -140.4 1.1 -146.4 -7.55 -140.45 -9.6 -137.35 -3.05 -133.9 -8.95 -128.3 -7.85 Z
M -118.25 4.05
Q -118.45 4.95 -119.1 5.7 -119.7 6.45 -120.55 7 -121.4 7.5 -122.45 7.8 -123.45 8.1 -124.45 8.1 -125.85 8.15 -127.1 7.65 -128.35 7.15 -129.35 6.35 -130.35 5.5 -130.9 4.35 -131.5 3.25 -131.5 2 -131.5 0.8 -130.95 -0.3 -130.45 -1.35 -129.55 -2.2 -128.65 -3 -127.45 -3.5 -126.25 -4 -124.9 -4.05 -123.45 -4.1 -122.25 -3.75 -121 -3.4 -120.1 -2.6 -119.15 -1.85 -118.65 -0.6 -118.1 0.65 -118.1 2.3
L -127 2.8
Q -126.65 3.7 -125.95 4.15 -125.25 4.55 -124.45 4.6 -123.7 4.6 -123 4.25 -122.3 3.95 -121.9 3.35
L -118.25 4.05 Z
M -122.9 0.25
Q -123 -0.25 -123.35 -0.6 -123.7 -0.9 -124.15 -1.05 -124.65 -1.15 -125.15 -1.15 -125.65 -1.1 -126.1 -0.95 -126.5 -0.75 -126.8 -0.45 -127.05 -0.1 -127 0.35
L -122.9 0.25 Z
M -108.2 0.25
Q -108.85 -0.1 -109.3 -0.3 -109.8 -0.5 -110.15 -0.6 -110.55 -0.7 -110.8 -0.75 -111.15 -0.8 -111.45 -0.8 -111.7 -0.85 -112 -0.8 -112.3 -0.8 -112.6 -0.75 -112.85 -0.65 -113.05 -0.55 -113.25 -0.4 -113.25 -0.2 -113.25 0 -113.05 0.15 -112.85 0.3 -112.6 0.35 -112.3 0.4 -112 0.4 -111.65 0.45 -111.35 0.45 -109.1 0.45 -107.85 1.4 -106.55 2.35 -106.55 4 -106.55 4.95 -107.05 5.7 -107.55 6.45 -108.35 7 -109.1 7.55 -110.1 7.85 -111.05 8.15 -112.05 8.15 -113.55 8.15 -115 7.7 -116.5 7.2 -117.45 6.2
L -115.1 3.7
Q -114.6 4.1 -113.85 4.35 -113.15 4.65 -112.35 4.65 -112.1 4.65 -111.8 4.6 -111.5 4.6 -111.25 4.5 -111 4.45 -110.8 4.3 -110.65 4.2 -110.65 3.95 -110.65 3.5 -111.1 3.45 -111.6 3.35 -112.5 3.35 -113.25 3.35 -114.05 3.1 -114.85 2.85 -115.5 2.4 -116.15 1.9 -116.55 1.25 -117 0.55 -117 -0.25 -117 -1.1 -116.5 -1.85 -116 -2.6 -115.25 -3.1 -114.5 -3.6 -113.55 -3.9 -112.6 -4.15 -111.65 -4.15 -110.2 -4.1 -108.85 -3.55 -107.55 -3.05 -106.55 -2.2
L -108.2 0.25 Z
M -72.85 2.35
Q -73.1 3.65 -73.95 4.7 -74.75 5.75 -75.95 6.55 -77.15 7.3 -78.55 7.7 -79.95 8.1 -81.35 8.1 -83.2 8.1 -84.9 7.45 -86.55 6.75 -87.85 5.65 -89.1 4.45 -89.85 2.95 -90.6 1.45 -90.6 -0.25 -90.6 -1.95 -90 -3.55 -89.4 -5.15 -88.25 -6.35 -87.1 -7.65 -85.55 -8.4 -84 -9.15 -82.05 -9.15 -78.35 -9.15 -75.95 -7.6 -73.55 -6 -72.85 -3.15
L -77.6 -2.35
Q -77.8 -2.8 -78.15 -3.1 -78.55 -3.45 -79.05 -3.65 -79.5 -3.9 -80.05 -4 -80.65 -4.1 -81.2 -4.1 -82.05 -4.1 -82.8 -3.8 -83.5 -3.5 -84.05 -3 -84.55 -2.5 -84.85 -1.85 -85.1 -1.25 -85.1 -0.6 -85.05 0.05 -84.75 0.65 -84.4 1.25 -83.85 1.7 -83.25 2.15 -82.5 2.4 -81.8 2.65 -80.95 2.65 -80.45 2.65 -79.85 2.55 -79.3 2.45 -78.8 2.25 -78.3 2.05 -77.9 1.75 -77.55 1.4 -77.4 1
L -72.85 2.35 Z
M -71.1 -3.8
L -66.75 -3.8 -66.75 -2.05
Q -66.55 -2.55 -66.2 -2.9 -65.85 -3.3 -65.45 -3.5 -65.05 -3.75 -64.6 -3.85 -64.15 -3.95 -63.75 -3.95 -63.05 -3.95 -62.1 -3.7 -61.2 -3.4 -60.35 -2.5
L -62.05 0.95
Q -62.4 0.55 -62.75 0.35 -63.15 0.2 -63.45 0.1 -63.8 0.05 -64.1 0.1 -65 0.1 -65.5 0.55 -66 1 -66.3 1.7 -66.55 2.4 -66.65 3.25 -66.75 4.05 -66.75 4.75
L -66.75 8.1 -71.1 8.1 -71.1 -3.8 Z
M -52.4 0.25
Q -52.5 -0.25 -52.85 -0.6 -53.2 -0.9 -53.65 -1.05 -54.15 -1.15 -54.65 -1.15 -55.15 -1.1 -55.6 -0.95 -56 -0.75 -56.3 -0.45 -56.55 -0.1 -56.5 0.35
L -52.4 0.25 Z
M -47.75 4.05
Q -47.95 4.95 -48.6 5.7 -49.2 6.45 -50.05 7 -50.9 7.5 -51.95 7.8 -52.95 8.1 -53.95 8.1 -55.35 8.15 -56.6 7.65 -57.85 7.15 -58.85 6.35 -59.85 5.5 -60.4 4.35 -61 3.25 -61 2 -61 0.8 -60.45 -0.3 -59.95 -1.35 -59.05 -2.2 -58.15 -3 -56.95 -3.5 -55.75 -4 -54.4 -4.05 -52.95 -4.1 -51.75 -3.75 -50.5 -3.4 -49.6 -2.6 -48.65 -1.85 -48.15 -0.6 -47.6 0.65 -47.6 2.3
L -56.5 2.8
Q -56.15 3.7 -55.45 4.15 -54.75 4.55 -53.95 4.6 -53.2 4.6 -52.5 4.25 -51.8 3.95 -51.4 3.35
L -47.75 4.05 Z
M -32.25 7.95
L -36.6 7.95 -36.7 6.45
Q -37.2 7.1 -38.15 7.6 -39.1 8.05 -40.45 8.05 -41.6 8.05 -42.7 7.6 -43.75 7.15 -44.6 6.4 -45.45 5.6 -46 4.5 -46.5 3.4 -46.5 2.1 -46.5 0.8 -46 -0.3 -45.55 -1.45 -44.65 -2.3 -43.75 -3.1 -42.55 -3.6 -41.3 -4.05 -39.85 -4.05 -38.95 -4.05 -38.1 -3.75 -37.25 -3.45 -36.8 -2.7
L -36.75 -3.95 -32.8 -3.95 -32.25 7.95 Z
M -42.25 1.85
Q -42.25 2.35 -42 2.75 -41.8 3.2 -41.4 3.5 -41.05 3.85 -40.55 4.05 -40.1 4.25 -39.55 4.25 -39 4.25 -38.55 4 -38.1 3.75 -37.85 3.35 -37.5 3 -37.35 2.5 -37.15 2.05 -37.15 1.55 -37.1 1.15 -37.3 0.75 -37.45 0.4 -37.8 0.1 -38.1 -0.15 -38.5 -0.3 -38.95 -0.45 -39.4 -0.45 -39.95 -0.45 -40.45 -0.3 -40.95 -0.1 -41.35 0.2 -41.75 0.5 -42 0.95 -42.25 1.35 -42.25 1.85 Z
M -31.4 -4
L -29.4 -4 -29.3 -6.55 -25.35 -7 -25.2 -4.1 -22.5 -4.1 -21.95 -0.85 -25.2 -0.85 -25.2 2.7
Q -25.2 3.05 -25.15 3.4 -25.1 3.7 -24.9 4 -24.75 4.25 -24.5 4.45 -24.25 4.6 -23.85 4.6 -23.3 4.6 -22.95 4.55 -22.55 4.5 -22.25 4.35 -22 4.2 -21.75 3.95 -21.5 3.75 -21.2 3.45
L -20.15 6.7
Q -20.6 7.2 -21.1 7.5 -21.6 7.75 -22.15 7.95 -22.7 8.1 -23.35 8.15 -23.95 8.2 -24.6 8.25 -25.45 8.25 -26.3 8.1 -27.15 7.95 -27.8 7.5 -28.45 7.1 -28.9 6.4 -29.35 5.7 -29.45 4.65 -29.55 3.25 -29.5 1.9 -29.45 0.55 -29.55 -0.85
L -31.1 -0.9 -31.4 -4 Z
M -12.3 0.25
Q -12.4 -0.25 -12.75 -0.6 -13.1 -0.9 -13.55 -1.05 -14.05 -1.15 -14.55 -1.15 -15.05 -1.1 -15.5 -0.95 -15.9 -0.75 -16.2 -0.45 -16.45 -0.1 -16.4 0.35
L -12.3 0.25 Z
M -7.65 4.05
Q -7.85 4.95 -8.5 5.7 -9.1 6.45 -9.95 7 -10.8 7.5 -11.85 7.8 -12.85 8.1 -13.85 8.1 -15.25 8.15 -16.5 7.65 -17.75 7.15 -18.75 6.35 -19.75 5.5 -20.3 4.35 -20.9 3.25 -20.9 2 -20.9 0.8 -20.35 -0.3 -19.85 -1.35 -18.95 -2.2 -18.05 -3 -16.85 -3.5 -15.65 -4 -14.3 -4.05 -12.85 -4.1 -11.65 -3.75 -10.4 -3.4 -9.5 -2.6 -8.55 -1.85 -8.05 -0.6 -7.5 0.65 -7.5 2.3
L -16.4 2.8
Q -16.05 3.7 -15.35 4.15 -14.65 4.55 -13.85 4.6 -13.1 4.6 -12.4 4.25 -11.7 3.95 -11.3 3.35
L -7.65 4.05 Z
M -102.65 10.85
L -106.35 10.25 -103.75 2.95 -98.9 4.6 -102.65 10.85 Z"/>
</g>
</g>
</g>

<g id="Layer_1" transform="matrix( 0.899993896484375, 0, 0, 0.899993896484375, 160.7,27) ">
<g transform="matrix( 1, 0, 0, 1, 0.5,0) ">
<g>
<g>
<path fill="#FFFFFF" stroke="none" d="
M -103.75 2.95
L -106.35 10.25 -102.65 10.85 -98.9 4.6 -103.75 2.95
M -16.85 -3.5
Q -18.05 -3 -18.95 -2.2 -19.85 -1.35 -20.35 -0.3 -20.9 0.8 -20.9 2 -20.9 3.25 -20.3 4.35 -19.75 5.5 -18.75 6.35 -17.75 7.15 -16.5 7.65 -15.25 8.15 -13.85 8.1 -12.85 8.1 -11.85 7.8 -10.8 7.5 -9.95 7 -9.1 6.45 -8.5 5.7 -7.85 4.95 -7.65 4.05
L -11.3 3.35
Q -11.7 3.95 -12.4 4.25 -13.1 4.6 -13.85 4.6 -14.65 4.55 -15.35 4.15 -16.05 3.7 -16.4 2.8
L -7.5 2.3
Q -7.5 0.65 -8.05 -0.6 -8.55 -1.85 -9.5 -2.6 -10.4 -3.4 -11.65 -3.75 -12.85 -4.1 -14.3 -4.05 -15.65 -4 -16.85 -3.5
M -16.2 -0.45
Q -15.9 -0.75 -15.5 -0.95 -15.05 -1.1 -14.55 -1.15 -14.05 -1.15 -13.55 -1.05 -13.1 -0.9 -12.75 -0.6 -12.4 -0.25 -12.3 0.25
L -16.4 0.35
Q -16.45 -0.1 -16.2 -0.45
M -31.4 -4
L -31.1 -0.9 -29.55 -0.85
Q -29.45 0.55 -29.5 1.9 -29.55 3.25 -29.45 4.65 -29.35 5.7 -28.9 6.4 -28.45 7.1 -27.8 7.5 -27.15 7.95 -26.3 8.1 -25.45 8.25 -24.6 8.25 -23.95 8.2 -23.35 8.15 -22.7 8.1 -22.15 7.95 -21.6 7.75 -21.1 7.5 -20.6 7.2 -20.15 6.7
L -21.2 3.45
Q -21.5 3.75 -21.75 3.95 -22 4.2 -22.25 4.35 -22.55 4.5 -22.95 4.55 -23.3 4.6 -23.85 4.6 -24.25 4.6 -24.5 4.45 -24.75 4.25 -24.9 4 -25.1 3.7 -25.15 3.4 -25.2 3.05 -25.2 2.7
L -25.2 -0.85 -21.95 -0.85 -22.5 -4.1 -25.2 -4.1 -25.35 -7 -29.3 -6.55 -29.4 -4 -31.4 -4
M -42.55 -3.6
Q -43.75 -3.1 -44.65 -2.3 -45.55 -1.45 -46 -0.3 -46.5 0.8 -46.5 2.1 -46.5 3.4 -46 4.5 -45.45 5.6 -44.6 6.4 -43.75 7.15 -42.7 7.6 -41.6 8.05 -40.45 8.05 -39.1 8.05 -38.15 7.6 -37.2 7.1 -36.7 6.45
L -36.6 7.95 -32.25 7.95 -32.8 -3.95 -36.75 -3.95 -36.8 -2.7
Q -37.25 -3.45 -38.1 -3.75 -38.95 -4.05 -39.85 -4.05 -41.3 -4.05 -42.55 -3.6
M -40.45 -0.3
Q -39.95 -0.45 -39.4 -0.45 -38.95 -0.45 -38.5 -0.3 -38.1 -0.15 -37.8 0.1 -37.45 0.4 -37.3 0.75 -37.1 1.15 -37.15 1.55 -37.15 2.05 -37.35 2.5 -37.5 3 -37.85 3.35 -38.1 3.75 -38.55 4 -39 4.25 -39.55 4.25 -40.1 4.25 -40.55 4.05 -41.05 3.85 -41.4 3.5 -41.8 3.2 -42 2.75 -42.25 2.35 -42.25 1.85 -42.25 1.35 -42 0.95 -41.75 0.5 -41.35 0.2 -40.95 -0.1 -40.45 -0.3
M -59.05 -2.2
Q -59.95 -1.35 -60.45 -0.3 -61 0.8 -61 2 -61 3.25 -60.4 4.35 -59.85 5.5 -58.85 6.35 -57.85 7.15 -56.6 7.65 -55.35 8.15 -53.95 8.1 -52.95 8.1 -51.95 7.8 -50.9 7.5 -50.05 7 -49.2 6.45 -48.6 5.7 -47.95 4.95 -47.75 4.05
L -51.4 3.35
Q -51.8 3.95 -52.5 4.25 -53.2 4.6 -53.95 4.6 -54.75 4.55 -55.45 4.15 -56.15 3.7 -56.5 2.8
L -47.6 2.3
Q -47.6 0.65 -48.15 -0.6 -48.65 -1.85 -49.6 -2.6 -50.5 -3.4 -51.75 -3.75 -52.95 -4.1 -54.4 -4.05 -55.75 -4 -56.95 -3.5 -58.15 -3 -59.05 -2.2
M -53.65 -1.05
Q -53.2 -0.9 -52.85 -0.6 -52.5 -0.25 -52.4 0.25
L -56.5 0.35
Q -56.55 -0.1 -56.3 -0.45 -56 -0.75 -55.6 -0.95 -55.15 -1.1 -54.65 -1.15 -54.15 -1.15 -53.65 -1.05
M -62.1 -3.7
Q -63.05 -3.95 -63.75 -3.95 -64.15 -3.95 -64.6 -3.85 -65.05 -3.75 -65.45 -3.5 -65.85 -3.3 -66.2 -2.9 -66.55 -2.55 -66.75 -2.05
L -66.75 -3.8 -71.1 -3.8 -71.1 8.1 -66.75 8.1 -66.75 4.75
Q -66.75 4.05 -66.65 3.25 -66.55 2.4 -66.3 1.7 -66 1 -65.5 0.55 -65 0.1 -64.1 0.1 -63.8 0.05 -63.45 0.1 -63.15 0.2 -62.75 0.35 -62.4 0.55 -62.05 0.95
L -60.35 -2.5
Q -61.2 -3.4 -62.1 -3.7
M -85.1 -0.6
Q -85.1 -1.25 -84.85 -1.85 -84.55 -2.5 -84.05 -3 -83.5 -3.5 -82.8 -3.8 -82.05 -4.1 -81.2 -4.1 -80.65 -4.1 -80.05 -4 -79.5 -3.9 -79.05 -3.65 -78.55 -3.45 -78.15 -3.1 -77.8 -2.8 -77.6 -2.35
L -72.85 -3.15
Q -73.55 -6 -75.95 -7.6 -78.35 -9.15 -82.05 -9.15 -84 -9.15 -85.55 -8.4 -87.1 -7.65 -88.25 -6.35 -89.4 -5.15 -90 -3.55 -90.6 -1.95 -90.6 -0.25 -90.6 1.45 -89.85 2.95 -89.1 4.45 -87.85 5.65 -86.55 6.75 -84.9 7.45 -83.2 8.1 -81.35 8.1 -79.95 8.1 -78.55 7.7 -77.15 7.3 -75.95 6.55 -74.75 5.75 -73.95 4.7 -73.1 3.65 -72.85 2.35
L -77.4 1
Q -77.55 1.4 -77.9 1.75 -78.3 2.05 -78.8 2.25 -79.3 2.45 -79.85 2.55 -80.45 2.65 -80.95 2.65 -81.8 2.65 -82.5 2.4 -83.25 2.15 -83.85 1.7 -84.4 1.25 -84.75 0.65 -85.05 0.05 -85.1 -0.6
M -116.5 -1.85
Q -117 -1.1 -117 -0.25 -117 0.55 -116.55 1.25 -116.15 1.9 -115.5 2.4 -114.85 2.85 -114.05 3.1 -113.25 3.35 -112.5 3.35 -111.6 3.35 -111.1 3.45 -110.65 3.5 -110.65 3.95 -110.65 4.2 -110.8 4.3 -111 4.45 -111.25 4.5 -111.5 4.6 -111.8 4.6 -112.1 4.65 -112.35 4.65 -113.15 4.65 -113.85 4.35 -114.6 4.1 -115.1 3.7
L -117.45 6.2
Q -116.5 7.2 -115 7.7 -113.55 8.15 -112.05 8.15 -111.05 8.15 -110.1 7.85 -109.1 7.55 -108.35 7 -107.55 6.45 -107.05 5.7 -106.55 4.95 -106.55 4 -106.55 2.35 -107.85 1.4 -109.1 0.45 -111.35 0.45 -111.65 0.45 -112 0.4 -112.3 0.4 -112.6 0.35 -112.85 0.3 -113.05 0.15 -113.25 0 -113.25 -0.2 -113.25 -0.4 -113.05 -0.55 -112.85 -0.65 -112.6 -0.75 -112.3 -0.8 -112 -0.8 -111.7 -0.85 -111.45 -0.8 -111.15 -0.8 -110.8 -0.75 -110.55 -0.7 -110.15 -0.6 -109.8 -0.5 -109.3 -0.3 -108.85 -0.1 -108.2 0.25
L -106.55 -2.2
Q -107.55 -3.05 -108.85 -3.55 -110.2 -4.1 -111.65 -4.15 -112.6 -4.15 -113.55 -3.9 -114.5 -3.6 -115.25 -3.1 -116 -2.6 -116.5 -1.85
M -122.25 -3.75
Q -123.45 -4.1 -124.9 -4.05 -126.25 -4 -127.45 -3.5 -128.65 -3 -129.55 -2.2 -130.45 -1.35 -130.95 -0.3 -131.5 0.8 -131.5 2 -131.5 3.25 -130.9 4.35 -130.35 5.5 -129.35 6.35 -128.35 7.15 -127.1 7.65 -125.85 8.15 -124.45 8.1 -123.45 8.1 -122.45 7.8 -121.4 7.5 -120.55 7 -119.7 6.45 -119.1 5.7 -118.45 4.95 -118.25 4.05
L -121.9 3.35
Q -122.3 3.95 -123 4.25 -123.7 4.6 -124.45 4.6 -125.25 4.55 -125.95 4.15 -126.65 3.7 -127 2.8
L -118.1 2.3
Q -118.1 0.65 -118.65 -0.6 -119.15 -1.85 -120.1 -2.6 -121 -3.4 -122.25 -3.75
M -126.8 -0.45
Q -126.5 -0.75 -126.1 -0.95 -125.65 -1.1 -125.15 -1.15 -124.65 -1.15 -124.15 -1.05 -123.7 -0.9 -123.35 -0.6 -123 -0.25 -122.9 0.25
L -127 0.35
Q -127.05 -0.1 -126.8 -0.45
M -133.9 -8.95
L -137.35 -3.05 -140.45 -9.6 -146.4 -7.55 -140.4 1.1 -140.4 7.95 -134.6 7.95 -134.6 1.45 -128.3 -7.85 -133.9 -8.95
M 144.05 7.75
Q 144.5 7.45 144.8 7.05 145.1 6.65 145.2 6.25 145.35 5.85 145.35 5.65 145.35 2.7 142.45 2.7 141.7 2.7 141.2 3 140.7 3.25 140.4 3.65 140.05 4 139.9 4.5 139.8 5 139.8 5.4 139.85 5.75 139.95 6.2 140.1 6.7 140.45 7.1 140.8 7.5 141.35 7.75 141.95 8.05 142.85 8.05 143.55 8.05 144.05 7.75
M 145.3 -9.4
L 139.8 -9.4 140.25 2.1 145.2 1.95 145.3 -9.4
M 128.4 -4
L 128.7 -0.9 130.25 -0.85
Q 130.35 0.55 130.3 1.9 130.25 3.25 130.35 4.65 130.45 5.7 130.9 6.4 131.35 7.1 132 7.5 132.65 7.95 133.5 8.1 134.35 8.25 135.2 8.25 135.85 8.2 136.45 8.15 137.1 8.1 137.65 7.95 138.2 7.75 138.7 7.5 139.2 7.2 139.65 6.7
L 138.6 3.45
Q 138.3 3.75 138.05 3.95 137.8 4.2 137.55 4.35 137.25 4.5 136.85 4.55 136.5 4.6 135.95 4.6 135.55 4.6 135.3 4.45 135.05 4.25 134.9 4 134.7 3.7 134.65 3.4 134.6 3.05 134.6 2.7
L 134.6 -0.85 137.85 -0.85 137.3 -4.1 134.6 -4.1 134.45 -7 130.5 -6.55 130.4 -4 128.4 -4
M 113.4 -3.85
L 109.25 -3.85 109.2 2.4
Q 109.15 3.2 108.75 3.7 108.4 4.25 107.6 4.25 107 4.25 106.6 4.05 106.25 3.85 106.05 3.6 105.8 3.3 105.75 2.95 105.65 2.6 105.65 2.2
L 105.65 -3.9 101.35 -3.9 101.25 3.55
Q 101.25 4.5 101.5 5.3 101.75 6.1 102.25 6.7 102.7 7.25 103.5 7.6 104.3 7.9 105.35 7.9 106.25 7.9 106.9 7.8 107.55 7.7 108 7.45 108.4 7.2 108.7 6.9 109 6.55 109.2 6.15
L 109.2 7.8 113.4 7.8 113.4 -3.85
M 118.55 -2.05
L 118.55 -3.85 114.35 -3.8 114.35 7.95 118.6 7.95
Q 118.6 6.35 118.6 4.7 118.65 3.1 118.65 1.5 118.7 1.2 118.9 0.9 119.15 0.65 119.5 0.45 119.85 0.25 120.25 0.1 120.65 0 121.05 0 121.85 0 122.35 0.5 122.8 1.05 122.8 1.85
L 122.65 7.95 127 7.95 127 0.4
Q 127 -0.4 126.7 -1.15 126.35 -1.95 125.8 -2.55 125.25 -3.2 124.45 -3.6 123.65 -3.95 122.75 -3.95 121.55 -3.95 120.45 -3.4 119.3 -2.85 118.55 -2.05
M 88.15 -2.45
Q 87.05 -1.65 86.4 -0.55 85.75 0.6 85.8 2 85.85 3.25 86.5 4.35 87.1 5.45 88.1 6.3 89.15 7.1 90.4 7.55 91.7 8.05 93.05 8.05 94.4 8.05 95.65 7.55 96.95 7.05 97.9 6.2 98.9 5.35 99.5 4.2 100.05 3.05 100.05 1.8 100.05 0.65 99.5 -0.45 98.9 -1.5 97.95 -2.3 97 -3.05 95.8 -3.55 94.6 -4 93.35 -4.05 92 -4.05 90.6 -3.65 89.25 -3.25 88.15 -2.45
M 93.1 4.2
Q 91.95 4.2 91.3 3.55 90.65 2.85 90.65 1.9 90.6 1.4 90.85 1.05 91.05 0.65 91.4 0.4 91.8 0.15 92.25 0.05 92.75 -0.1 93.25 -0.1 94.25 -0.05 94.85 0.55 95.5 1.2 95.5 2 95.5 2.9 94.85 3.6 94.25 4.25 93.1 4.2
M 73.5 -2.25
Q 72.65 -1.4 72.15 -0.3 71.65 0.8 71.65 1.95 71.65 3.25 72.2 4.35 72.75 5.45 73.7 6.3 74.7 7.15 75.95 7.6 77.25 8.1 78.7 8.1 79.85 8.1 80.95 7.75 82.05 7.35 82.95 6.75 83.8 6.1 84.35 5.25 84.9 4.35 84.9 3.35
L 80.75 3
Q 80.4 3.8 79.55 4.15 78.7 4.5 77.8 4.35 76.95 4.2 76.3 3.6 75.65 2.95 75.7 1.9 75.7 1.2 76.05 0.65 76.35 0.15 76.85 -0.1 77.35 -0.4 77.95 -0.45 78.55 -0.5 79.1 -0.35 79.65 -0.2 80.1 0.2 80.55 0.6 80.75 1.2
L 84.95 0.85
Q 84.95 -0.3 84.35 -1.2 83.75 -2.1 82.8 -2.75 81.85 -3.4 80.65 -3.7 79.45 -4.05 78.25 -4.05 76.8 -4.05 75.6 -3.55 74.4 -3.05 73.5 -2.25
M 59.3 -2.25
Q 58.45 -1.4 57.95 -0.3 57.45 0.8 57.45 1.95 57.45 3.25 58 4.35 58.55 5.45 59.5 6.3 60.5 7.15 61.75 7.6 63.05 8.1 64.5 8.1 65.65 8.1 66.75 7.75 67.85 7.35 68.75 6.75 69.6 6.1 70.15 5.25 70.7 4.35 70.7 3.35
L 66.55 3
Q 66.2 3.8 65.35 4.15 64.5 4.5 63.6 4.35 62.75 4.2 62.1 3.6 61.45 2.95 61.5 1.9 61.5 1.2 61.85 0.65 62.15 0.15 62.65 -0.1 63.15 -0.4 63.75 -0.45 64.35 -0.5 64.9 -0.35 65.45 -0.2 65.9 0.2 66.35 0.6 66.55 1.2
L 70.75 0.85
Q 70.75 -0.3 70.15 -1.2 69.55 -2.1 68.6 -2.75 67.65 -3.4 66.45 -3.7 65.25 -4.05 64.05 -4.05 62.6 -4.05 61.4 -3.55 60.2 -3.05 59.3 -2.25
M 44.1 -2.3
Q 43.2 -1.45 42.75 -0.3 42.25 0.8 42.25 2.1 42.25 3.4 42.75 4.5 43.3 5.6 44.15 6.4 45 7.15 46.05 7.6 47.15 8.05 48.3 8.05 49.65 8.05 50.6 7.6 51.55 7.1 52.05 6.45
L 52.15 7.95 56.5 7.95 55.95 -3.95 52 -3.95 51.95 -2.7
Q 51.5 -3.45 50.65 -3.75 49.8 -4.05 48.9 -4.05 47.45 -4.05 46.2 -3.6 45 -3.1 44.1 -2.3
M 49.35 -0.45
Q 49.8 -0.45 50.25 -0.3 50.65 -0.15 50.95 0.1 51.3 0.4 51.45 0.75 51.65 1.15 51.6 1.55 51.6 2.05 51.4 2.5 51.25 3 50.9 3.35 50.65 3.75 50.2 4 49.75 4.25 49.2 4.25 48.65 4.25 48.2 4.05 47.7 3.85 47.35 3.5 46.95 3.2 46.75 2.75 46.5 2.35 46.5 1.85 46.5 1.35 46.75 0.95 47 0.5 47.4 0.2 47.8 -0.1 48.3 -0.3 48.8 -0.45 49.35 -0.45
M 34.1 -4.25
L 29 -4 27.3 3.75 24.95 -4 19.8 -3.85 24.75 8.1
Q 24.85 8.7 24.7 9.15 24.55 9.55 24.2 9.8 23.9 10 23.5 10.1 23.1 10.15 22.75 10.1 22.2 9.95 21.55 9.85 20.95 9.75 20.5 9.4
L 19.55 13.3
Q 21.25 14.1 23.15 14.3 24.3 14.3 25.4 13.95 26.5 13.6 27.45 12.85 28.4 12.1 29.15 10.9 29.85 9.75 30.3 8.15
L 34.1 -4.25
M 9.15 -4.1
Q 8.6 -4.2 8.05 -4.15 7 -4.05 5.9 -3.7 4.8 -3.35 4.1 -2.55
L 4.15 -4.05 0.3 -3.9 0.3 7.95 4.55 7.95 4.55 0.75
Q 4.5 0.45 4.7 0.2 4.85 0 5.1 -0.2 5.35 -0.35 5.65 -0.45 5.95 -0.5 6.25 -0.5 6.65 -0.5 6.95 -0.35 7.25 -0.2 7.4 0.1 7.6 0.35 7.65 0.75 7.7 1.1 7.7 1.5
L 7.75 7.95 12.5 7.9 12.3 0.35
Q 12.25 0.15 12.4 -0.05 12.5 -0.25 12.7 -0.35 12.9 -0.5 13.15 -0.55 13.4 -0.65 13.65 -0.65 14.05 -0.6 14.4 -0.4 14.7 -0.2 14.9 0.1 15.1 0.45 15.25 0.8 15.35 1.2 15.35 1.5
L 15.45 7.95 19.85 7.95 19.85 -0.3
Q 19.9 -1 19.6 -1.7 19.3 -2.4 18.75 -2.95 18.2 -3.5 17.45 -3.85 16.75 -4.15 15.95 -4.2 15.35 -4.2 14.7 -4.15 14.1 -4.05 13.55 -3.8 12.95 -3.6 12.5 -3.25 12.05 -2.9 11.75 -2.4 11.55 -2.85 11.15 -3.2 10.75 -3.55 10.2 -3.75 9.7 -4 9.15 -4.1 Z"/>
</g>
</g>
</g>
</g>
</g>
</svg>
