
<svg xmlns="http://www.w3.org/2000/svg" version="1.1" xmlns:xlink="http://www.w3.org/1999/xlink" preserveAspectRatio="none" x="0px" y="0px" width="708px" height="305px" viewBox="0 0 708 305">
<defs>
<linearGradient id="Gradient_1" gradientUnits="userSpaceOnUse" x1="354" y1="292.25" x2="354" y2="-46.45000000000002" spreadMethod="pad">
<stop  offset="0%" stop-color="#1FD6FC"/>

<stop  offset="100%" stop-color="#0261E6"/>
</linearGradient>
</defs>

<g id="Layer_1">
<g>
<g>
<g>
<path fill="url(#Gradient_1)" stroke="none" d="
M 700.85 280.55
Q 704.9951171875 276.3865234375 705 270.55
L 3 270.55
Q 3.0048828125 276.3865234375 7.1 280.55
L 7.1 280.55
Q 11.2181640625 284.657421875 17.1 284.65
L 311.6 284.65
Q 311.9234375 284.645703125 312.2 284.75
L 348.15 301
Q 350.9744140625 302.294921875 354 302.3 356.992578125 302.2951171875 359.85 301
L 359.8 301 395.8 284.75
Q 396.125390625 284.646484375 396.45 284.65
L 690.9 284.65
Q 696.781640625 284.657421875 700.9 280.55
L 700.85 280.55 Z"/>

<path fill="#FFFFFF" stroke="none" d="
M 690.9 287.65
Q 698.0181640625 287.6423828125 703 282.65
L 703 282.65
Q 708.0048828125 277.61328125 708 270.55
L 705 270.55
Q 704.9951171875 276.3865234375 700.85 280.55
L 700.9 280.55
Q 696.781640625 284.657421875 690.9 284.65
L 396.45 284.65
Q 396.125390625 284.646484375 395.8 284.75
L 359.8 301 359.85 301
Q 356.992578125 302.2951171875 354 302.3 350.9744140625 302.294921875 348.15 301
L 312.2 284.75
Q 311.9234375 284.645703125 311.6 284.65
L 17.1 284.65
Q 11.2181640625 284.657421875 7.1 280.55
L 7.1 280.55
Q 3.0048828125 276.3865234375 3 270.55
L 0 270.55
Q -0.0048828125 277.61328125 4.95 282.65
L 5 282.65
Q 9.981640625 287.6423828125 17.1 287.65
L 311.25 287.65 346.9 303.75
Q 350.325390625 305.3048828125 354 305.3 357.6072265625 305.3048828125 361.05 303.75
L 361.05 303.75 396.8 287.65 690.9 287.65 Z"/>
</g>
</g>
</g>
</g>
</svg>
