
<svg xmlns="http://www.w3.org/2000/svg" version="1.1" xmlns:xlink="http://www.w3.org/1999/xlink" preserveAspectRatio="none" x="0px" y="0px" width="708px" height="305px" viewBox="0 0 708 305">
<defs>
<linearGradient id="Gradient_1" gradientUnits="userSpaceOnUse" x1="354" y1="292.25" x2="354" y2="-46.45000000000002" spreadMethod="pad">
<stop  offset="0%" stop-color="#1FD6FC"/>

<stop  offset="100%" stop-color="#0261E6"/>
</linearGradient>
</defs>

<g id="Layer_5">
<g>
<g>
<g>
<path fill="#FFFFFF" stroke="none" d="
M 0 17.1
L 3 17.1
Q 2.9923828125 11.2181640625 7.1 7.1 11.2181640625 2.9923828125 17.1 3
L 690.9 3
Q 696.781640625 2.9923828125 700.9 7.1 705.007421875 11.2181640625 705 17.1
L 708 17.1
Q 707.9923828125 9.981640625 703 5 698.0181640625 0.007421875 690.9 0
L 17.1 0
Q 9.981640625 0.007421875 5 5 0.007421875 9.981640625 0 17.1 Z"/>

<path fill="url(#Gradient_1)" stroke="none" d="
M 17.1 3
Q 11.2181640625 2.9923828125 7.1 7.1 2.9923828125 11.2181640625 3 17.1
L 705 17.1
Q 705.007421875 11.2181640625 700.9 7.1 696.781640625 2.9923828125 690.9 3
L 17.1 3 Z"/>
</g>
</g>
</g>
</g>
</svg>
