
<svg xmlns="http://www.w3.org/2000/svg" version="1.1" xmlns:xlink="http://www.w3.org/1999/xlink" preserveAspectRatio="none" x="0px" y="0px" width="708px" height="322px" viewBox="0 0 708 322">
<defs>
<linearGradient id="Gradient_1" gradientUnits="userSpaceOnUse" x1="0" y1="148.50000000000003" x2="0" y2="-190.20000000000002" spreadMethod="pad">
<stop  offset="0%" stop-color="#1FD6FC"/>

<stop  offset="100%" stop-color="#0261E6"/>
</linearGradient>
</defs>

<g id="Layer_1">
<g transform="matrix( 1, 0, 0, 1, 354,160.55) ">
<g>
<g>
<path fill="url(#Gradient_1)" stroke="none" d="
M -336.9 -142.25
Q -343.4 -142.25 -347.95 -137.7 -352.5 -133.15 -352.5 -126.65
L -352.5 126.8
Q -352.5 133.25 -347.95 137.85 -343.4 142.4 -336.9 142.4
L -42.4 142.4 -6.45 158.65
Q -3.35 160.05 0 160.05 3.3 160.05 6.45 158.65
L 42.45 142.4 336.9 142.4
Q 343.4 142.4 347.95 137.85 352.5 133.25 352.5 126.8
L 352.5 -126.65
Q 352.5 -133.15 347.95 -137.7 343.4 -142.25 336.9 -142.25
L -336.9 -142.25 Z"/>
</g>
</g>

<g>
<path stroke="#FFFFFF" stroke-width="3" stroke-linejoin="round" stroke-linecap="round" fill="none" d="
M -6.45 158.65
L -42.4 142.4 -336.9 142.4
Q -343.4 142.4 -347.95 137.85 -352.5 133.25 -352.5 126.8
L -352.5 -126.65
Q -352.5 -133.15 -347.95 -137.7 -343.4 -142.25 -336.9 -142.25
L 336.9 -142.25
Q 343.4 -142.25 347.95 -137.7 352.5 -133.15 352.5 -126.65
L 352.5 126.8
Q 352.5 133.25 347.95 137.85 343.4 142.4 336.9 142.4
L 42.45 142.4 6.45 158.65
Q 3.3 160.05 0 160.05 -3.35 160.05 -6.45 158.65 Z"/>
</g>
</g>
</g>
</svg>
