
<svg xmlns="http://www.w3.org/2000/svg" version="1.1" xmlns:xlink="http://www.w3.org/1999/xlink" preserveAspectRatio="none" x="0px" y="0px" width="100px" height="117px" viewBox="0 0 100 117">
<defs>
<linearGradient id="Gradient_1" gradientUnits="userSpaceOnUse" x1="-0.15" y1="82.125" x2="-0.15" y2="2.5749999999999957" spreadMethod="pad">
<stop  offset="0%" stop-color="#1FD6FC"/>

<stop  offset="100%" stop-color="#0261E6"/>
</linearGradient>
</defs>

<g id="Layer_2"/>

<g id="Layer_1"/>

<g id="Layer_5">
<g transform="matrix( 1.2470703125, 0, 0, 1.2470703125, 50.3,-2.55) ">
<g>
<g>
<path fill="url(#Gradient_1)" stroke="none" d="
M 6.3 70.4
Q 4.632421875 67.5041015625 1.4 68.8 -0.05078125 69.433984375 -1.05 71.1 -0.5896484375 71.0998046875 -0.15 71.1 3.2166015625 71.0984375 6.3 70.4
M 10.65 80.65
Q 9.7505859375 79.584765625 9 77.95 4.6416015625 79.0515625 -0.15 79.05 -1.51328125 79.050390625 -2.85 78.95 -2.903515625 80.1634765625 -2.9 81.5 -2.8994140625 81.734765625 -2.9 81.95 -1.5427734375 82.049609375 -0.15 82.05 5.530859375 82.0482421875 10.65 80.65
M 39.55 42.3
Q 39.54453125 25.8337890625 27.9 14.2 16.2654296875 2.5546875 -0.15 2.55 -16.565625 2.5546875 -28.2 14.2 -39.8447265625 25.8337890625 -39.85 42.3 -39.8447265625 58.766015625 -28.2 70.4 -23.5490234375 75.0552734375 -18.15 77.85 -18.1001953125 76.0923828125 -18.25 74.4 -22.4236328125 71.97265625 -26.1 68.3 -36.85546875 57.5337890625 -36.85 42.3 -36.85546875 27.066015625 -26.1 16.3 -15.3345703125 5.5451171875 -0.15 5.55 15.034375 5.5451171875 25.8 16.3 36.5552734375 27.066015625 36.55 42.3 36.5552734375 57.5337890625 25.8 68.3 22.9712890625 71.12578125 19.85 73.2 19.833984375 75.2943359375 19.55 76.9 23.995703125 74.3078125 27.9 70.4 39.54453125 58.766015625 39.55 42.3
M 20.1 22.15
L 20.1 22.15
Q 11.7291015625 13.703125 -0.15 13.7 -12.0291015625 13.703125 -20.45 22.15
L -20.4 22.15
Q -28.79453125 30.53359375 -28.8 42.4 -28.8052734375 52.8994140625 -22.25 60.7 -25.178515625 54.3046875 -26.05 46.5 -26.2755859375 44.9275390625 -26.35 43.25 -26.35 42.754296875 -26.35 42.25 -26.35 31.35 -18.65 23.65 -10.95 15.95 -0.1 15.95 10.75 15.95 18.45 23.65 26.15 31.35 26.15 42.25 26.15 42.9060546875 26.1 43.55 26.1068359375 44.0287109375 26.05 44.5 25.74921875 49.99140625 22.7 56.4 21.4189453125 59.164453125 20.7 62.1 28.505859375 53.858203125 28.5 42.4 28.4943359375 30.53359375 20.1 22.15 Z"/>
</g>
</g>
</g>
</g>

<g id="Layer_4"/>
</svg>
