
<svg xmlns="http://www.w3.org/2000/svg" version="1.1" xmlns:xlink="http://www.w3.org/1999/xlink" preserveAspectRatio="none" x="0px" y="0px" width="31px" height="31px" viewBox="0 0 31 31">
<defs>
<filter id="Filter_1" x="-20%" y="-20%" width="140%" height="140%" color-interpolation-filters="sRGB">
<feColorMatrix in="SourceGraphic" type="matrix" values="1 0 0 0 0 0 1 0 0 0 0 0 1 0 0 0 0 0 0.75 0" result="result1"/>
</filter>
</defs>

<g id="Layer_2"/>

<g id="Layer_1"/>

<g id="Layer_5"/>

<g id="Layer_4">
<g id="Layer_1" transform="matrix( 0.71246337890625, 0, 0, 0.71246337890625, 14.2,17.3) "/>

<g id="Layer_4" transform="matrix( 0.71246337890625, 0, 0, 0.71246337890625, 14.2,17.3) "/>

<g id="Layer_3" transform="matrix( 0.71246337890625, 0, 0, 0.71246337890625, 14.2,17.3) ">
<g transform="matrix( 0.899993896484375, 0, 0, 0.899993896484375, 0.75,-0.85) ">
<g filter="url(#Filter_1)">
<g>
<path fill="#FFFFFF" stroke="none" d="
M 9.05 -26
L 9.05 -18.15
Q -7.13203125 -12.424609375 -10.15 9.55 -2.5197265625 -2.6396484375 9.05 -4.65
L 9.05 3.2 25.55 -11.4 9.05 -26 Z"/>
</g>
</g>
</g>
</g>

<g id="Layer_2" transform="matrix( 0.71246337890625, 0, 0, 0.71246337890625, 14.2,17.3) ">
<g transform="matrix( 1, 0, 0, 1, 0.7,-22.3) ">
<g filter="url(#Filter_1)">
<path stroke="#FFFFFF" stroke-width="5" stroke-linejoin="round" stroke-linecap="round" fill="none" d="
M 16.7 22.45
L 16.7 39.65 -18.1 39.65 -18.1 4.95 -0.8 4.95"/>
</g>
</g>
</g>
</g>
</svg>
