
<svg xmlns="http://www.w3.org/2000/svg" version="1.1" xmlns:xlink="http://www.w3.org/1999/xlink" preserveAspectRatio="none" x="0px" y="0px" width="60px" height="60px" viewBox="0 0 60 60">
<defs>
<filter id="Filter_1" x="-20%" y="-20%" width="140%" height="140%" color-interpolation-filters="sRGB">
<feColorMatrix in="SourceGraphic" type="matrix" values="1 0 0 0 0 0 1 0 0 0 0 0 1 0 0 0 0 0 0.75 0" result="result1"/>
</filter>
</defs>

<g id="Layer_2">
<g id="Layer_1" transform="matrix( 0.90203857421875, 0.90203857421875, -0.90203857421875, 0.90203857421875, 49.55,10.5) ">
<g transform="matrix( 1, 0, 0, 1, 0,11.2) ">
<g filter="url(#Filter_1)">
<g>
<path fill="#FFFFFF" stroke="none" d="
M 4.95 16.85
L 4.95 -6.7 -4.95 -6.7 -4.95 16.85 4.95 16.85
M 0 24.7
L 4.95 18.55 -4.95 18.55 0 24.7
M 4.95 -8.35
L 4.95 -15.05 -4.95 -15.05 -4.95 -8.35 4.95 -8.35 Z"/>
</g>
</g>
</g>
</g>

<g id="Layer_2" transform="matrix( 0.90203857421875, 0.90203857421875, -0.90203857421875, 0.90203857421875, 49.55,10.5) ">
<g>
<g filter="url(#Filter_1)">
<path stroke="#FFFFFF" stroke-width="5" stroke-linejoin="round" stroke-linecap="round" fill="none" d="
M 12.4 10.35
L 24.55 22.5 -0.05 47.1 -24.6 22.55 -12.4 10.35"/>
</g>
</g>
</g>
</g>
</svg>
