
<svg xmlns="http://www.w3.org/2000/svg" version="1.1" xmlns:xlink="http://www.w3.org/1999/xlink" preserveAspectRatio="none" x="0px" y="0px" width="86px" height="70px" viewBox="0 0 86 70">
<defs/>

<g id="Layer_2"/>

<g id="Layer_1">
<g id="Layer_1" transform="matrix( 1, 0, 0, 1, 44.1,30.5) ">
<g transform="matrix( 0.899993896484375, 0, 0, 0.899993896484375, -0.1,0.45) ">
<g>
<g>
<path fill="#FFFFFF" stroke="none" d="
M 25.65 -23.95
Q 21.8 -27.75 16.4 -27.75
L -29.2 -27.75
Q -34.6 -27.75 -38.45 -23.95 -42.25 -20.1 -42.25 -14.7
L -42.25 15.65
Q -42.25 21.05 -38.45 24.9 -34.6 28.7 -29.2 28.7
L 12.4 28.7
Q 17.6986328125 34.4591796875 24.6 36.25 32.85 38.5 40.6 34.55 30.1494140625 26.766796875 29.45 13.9
L 29.45 -14.7
Q 29.45 -20.1 25.65 -23.95 Z"/>
</g>
</g>

<g transform="matrix( 1.111114501953125, 0, 0, 1.111114501953125, 0.1,-0.5) ">
<path stroke="#FF3273" stroke-width="12" stroke-linejoin="round" stroke-linecap="round" fill="none" d="
M 26.40482025146484 -12.779910278320312
Q 26.40482025146484 -17.63987731933594 22.984843444824214 -21.10485382080078 19.519866943359375 -24.524830627441407 14.65989990234375 -24.524830627441407
L -26.37982177734375 -24.524830627441407
Q -31.23978881835938 -24.524830627441407 -34.704765319824226 -21.10485382080078 -38.124742126464845 -17.63987731933594 -38.124742126464845 -12.779910278320312
L -38.124742126464845 14.534904479980469
Q -38.124742126464845 19.394871520996094 -34.704765319824226 22.859848022460934 -31.23978881835938 26.27982482910156 -26.37982177734375 26.27982482910156
L 11.059924316406251 26.27982482910156
Q 15.82866150736809 31.46305139660835 22.039849853515626 33.0747787475586 29.46479949951172 35.09976501464844 36.439752197265626 31.544789123535153 27.034288638830184 24.539953815937043 26.40482025146484 12.959915161132812
L 26.40482025146484 -12.779910278320312 Z"/>
</g>
</g>
</g>

<g id="Layer_2" transform="matrix( 1, 0, 0, 1, 44.1,30.5) ">
<g transform="matrix( 0.899993896484375, 0, 0, 0.899993896484375, -0.1,0.45) ">
<g>
<g>
<path fill="#FFFFFF" stroke="none" d="
M 25.65 -23.95
Q 21.8 -27.75 16.4 -27.75
L -29.2 -27.75
Q -34.6 -27.75 -38.45 -23.95 -42.25 -20.1 -42.25 -14.7
L -42.25 15.65
Q -42.25 21.05 -38.45 24.9 -34.6 28.7 -29.2 28.7
L 12.4 28.7
Q 17.6986328125 34.4591796875 24.6 36.25 32.85 38.5 40.6 34.55 30.1494140625 26.766796875 29.45 13.9
L 29.45 -14.7
Q 29.45 -20.1 25.65 -23.95 Z"/>
</g>
</g>

<g transform="matrix( 1.111114501953125, 0, 0, 1.111114501953125, 0.1,-0.5) ">
<path stroke="#FF81FF" stroke-width="4" stroke-linejoin="round" stroke-linecap="round" fill="none" d="
M 26.40482025146484 -12.779910278320312
Q 26.40482025146484 -17.63987731933594 22.984843444824214 -21.10485382080078 19.519866943359375 -24.524830627441407 14.65989990234375 -24.524830627441407
L -26.37982177734375 -24.524830627441407
Q -31.23978881835938 -24.524830627441407 -34.704765319824226 -21.10485382080078 -38.124742126464845 -17.63987731933594 -38.124742126464845 -12.779910278320312
L -38.124742126464845 14.534904479980469
Q -38.124742126464845 19.394871520996094 -34.704765319824226 22.859848022460934 -31.23978881835938 26.27982482910156 -26.37982177734375 26.27982482910156
L 11.059924316406251 26.27982482910156
Q 15.82866150736809 31.46305139660835 22.039849853515626 33.0747787475586 29.46479949951172 35.09976501464844 36.439752197265626 31.544789123535153 27.034288638830184 24.539953815937043 26.40482025146484 12.959915161132812
L 26.40482025146484 -12.779910278320312 Z"/>
</g>
</g>

<g transform="matrix( 1.07244873046875, 0, 0, 1.267578125, 0.85,2) ">
<g transform="matrix( 0.93243408203125, 0, 0, 0.7888946533203125, -0.75,-1.55) ">
<path stroke="#FF81FF" stroke-width="6" stroke-linejoin="round" stroke-linecap="round" fill="none" d="
M -33.09300231933594 -19.358691406250003
L -5.9064270019531255 2 21.280148315429688 -19.358691406250003"/>
</g>
</g>
</g>

<g id="Layer_3" transform="matrix( 1, 0, 0, 1, 44.1,30.5) "/>
</g>
</svg>
