
<svg xmlns="http://www.w3.org/2000/svg" version="1.1" xmlns:xlink="http://www.w3.org/1999/xlink" preserveAspectRatio="none" x="0px" y="0px" width="29px" height="29px" viewBox="0 0 29 29">
<defs/>

<g id="Layer_2">
<g transform="matrix( 3.0316162109375, 0, 0, 3.0316162109375, 1050.85,-949.3) ">
<g>
<g>
<path fill="#FFFFFF" fill-opacity="0.4980392156862745" stroke="none" d="
M -338.05 314.25
Q -338.3392578125 313.953515625 -338.75 313.95
L -344.8 313.95
Q -345.2107421875 313.953515625 -345.5 314.25 -345.796484375 314.5392578125 -345.8 314.95
L -345.8 321
Q -345.796484375 321.4107421875 -345.5 321.7 -345.2107421875 321.996484375 -344.8 322
L -338.75 322
Q -338.3392578125 321.996484375 -338.05 321.7 -337.753515625 321.4107421875 -337.75 321
L -337.75 314.95
Q -337.753515625 314.5392578125 -338.05 314.25 Z"/>
</g>
</g>

<g transform="matrix( 0.3298492431640625, 0, 0, 0.3298492431640625, -346.6,313.1) ">
<path stroke="#000000" stroke-width="5" stroke-linejoin="round" stroke-linecap="round" fill="none" d="
M 23.890008544921784 2.4759094238281705
L 5.548730468749909 2.4759094238281705
Q 4.303517794608979 2.4865674495698613 3.426599121093659 3.3853942871094205 2.527772283553986 4.26231296062474 2.517114257812409 5.5075256347656705
L 2.517114257812409 23.848803710937545
Q 2.527772283553986 25.094016385078362 3.426599121093659 25.970935058593795 4.303517794608979 26.869761896133582 5.548730468749909 26.880419921875045
L 23.890008544921784 26.880419921875045
Q 25.135221219062714 26.869761896133582 26.012139892578034 25.970935058593795 26.91096673011782 25.094016385078362 26.921624755859284 23.848803710937545
L 26.921624755859284 5.5075256347656705
Q 26.91096673011782 4.26231296062474 26.012139892578034 3.3853942871094205 25.135221219062714 2.4865674495698613 23.890008544921784 2.4759094238281705 Z"/>
</g>
</g>
</g>
</svg>
