
<svg xmlns="http://www.w3.org/2000/svg" version="1.1" xmlns:xlink="http://www.w3.org/1999/xlink" preserveAspectRatio="none" x="0px" y="0px" width="55px" height="55px" viewBox="0 0 55 55">
<defs/>

<g id="Layer_1">
<g id="Layer_1" transform="matrix( 0.5408935546875, -0.5408935546875, 0.5408935546875, 0.5408935546875, 28.75,28.9) ">
<g transform="matrix( 0.6717376708984375, -0.6717376708984375, 0.6717376708984375, 0.6717376708984375, 7.65,-3.6) ">
<g transform="matrix( 0.74432373046875, 0.74432373046875, -0.74432373046875, 0.74432373046875, -8.35,-3) ">
<path stroke="#FFFFFF" stroke-width="9" stroke-linejoin="round" stroke-linecap="round" fill="none" d="
M 13.225422668457032 -24.356694030761723
Q 18.666497802734376 -18.915618896484375 18.666497802734376 -11.257809448242188 18.666497802734376 -3.6 13.259009552001952 1.8074882507324213 7.851521301269531 7.214976501464845 0.19371185302734517 7.214976501464843 -7.464097595214843 7.214976501464845 -12.905172729492188 1.7739013671875 -18.346247863769534 -3.6671737670898428 -18.346247863769534 -11.324983215332033 -18.346247863769534 -18.982792663574223 -12.938759613037112 -24.390280914306643 -7.53127136230469 -29.797769165039064 0.1265380859375007 -29.797769165039064 7.784347534179689 -29.797769165039064 13.225422668457032 -24.356694030761723 Z"/>
</g>
</g>
</g>

<g id="Layer_2" transform="matrix( 0.5408935546875, -0.5408935546875, 0.5408935546875, 0.5408935546875, 28.75,28.9) ">
<g>
<g>
<path stroke="#FFFFFF" stroke-width="10" stroke-linejoin="round" stroke-linecap="round" fill="none" d="
M 0 8.15
L 0 30.9"/>
</g>
</g>
</g>
</g>
</svg>
