
<svg xmlns="http://www.w3.org/2000/svg" version="1.1" xmlns:xlink="http://www.w3.org/1999/xlink" preserveAspectRatio="none" x="0px" y="0px" width="205px" height="73px" viewBox="0 0 205 73">
<defs>
<linearGradient id="Gradient_1" gradientUnits="userSpaceOnUse" x1="24.1" y1="-234.775" x2="24.1" y2="-178.225" spreadMethod="pad">
<stop  offset="0%" stop-color="#FFE465"/>

<stop  offset="100%" stop-color="#E0BA00"/>
</linearGradient>
</defs>

<g id="Layer_2"/>

<g id="Layer_1"/>

<g id="Layer_5"/>

<g id="Layer_4">
<g transform="matrix( 0.9499969482421875, 0, 0, 0.9499969482421875, 104.1,231.8) ">
<g>
<g>
<path fill="#FFFFFF" stroke="none" d="
M -29.65 -199.45
L -8.8 -200.9 -9.6 -214.85 -30.55 -213.35 -31.1 -219.4 -5.65 -219.9 -6.7 -234.65 -46.95 -233 -43.55 -178.7 -3.25 -178.7 -3.25 -194.3 -29.3 -192.95 -29.65 -199.45
M -87.05 -232.1
L -101.15 -233.15 -100.65 -178.7 -83.85 -178.7 -83.85 -201.6 -64.15 -178.7 -49.9 -178.7 -49.9 -234.65 -66.35 -234.15 -66.25 -208.2 -87.05 -232.1
M 51.65 -233.65
L 52.7 -219.2 67.75 -219.95 67.45 -177.35 83.9 -179 84.2 -220.45 98.45 -221.2 97.25 -235.6 51.65 -233.65
M 36.8 -235.25
L 24.8 -218.85 13.4 -234.75 0.65 -226.55 14.75 -206.45 -1.4 -184.05 12.35 -175.2 25.25 -193 38.7 -175.2 51.7 -183.2 35.3 -205.4 50.6 -226.3 36.8 -235.25 Z"/>
</g>
</g>

<g transform="matrix( 1.0526275634765625, 0, 0, 1.0526275634765625, -109.55,-244) ">
<path stroke="#0E35A1" stroke-width="16" stroke-linejoin="round" stroke-linecap="round" fill="none" d="
M 137.6348922729492 36.670626831054705
L 153.2148422241211 57.76055908203128 140.86488189697266 65.36053466796878 128.08742294311523 48.450588989257824 115.83246231079102 65.36053466796878 102.77000427246094 56.953061676025385 118.11245498657226 35.67313003540042 104.71749801635741 16.578191375732416 116.8299591064453 8.788216400146496 127.65992431640625 23.89316787719727 139.05988769531248 8.313217926025402 152.1698455810547 16.815690612792963 137.6348922729492 36.670626831054705 Z
M 197.62719955444334 21.660675048828153
L 184.08974304199216 22.373172760009794 183.80474395751952 61.75054626464845 168.17729415893552 63.31804122924805 168.4622932434082 22.848171234130888 154.1648391723633 23.56066894531253 153.16734237670897 9.833213043212908 196.48720321655273 7.980718994140631 197.62719955444334 21.660675048828153 Z
M 43.15769577026366 62.03554534912112
L 24.44275588989258 40.280615234375006 24.44275588989258 62.03554534912112 8.482807159423814 62.03554534912112 8.00780868530272 10.308211517334001 21.40276565551757 11.305708312988287 41.16270217895507 34.01063537597659 41.06770248413086 9.358214569091814 56.69515228271484 8.88321609497072 56.69515228271484 62.03554534912112 43.15769577026366 62.03554534912112 Z
M 76.2650894165039 48.49808883666995
L 101.01250991821288 47.21559295654296 101.01250991821288 62.03554534912112 62.72763290405273 62.03554534912112 59.49764328002929 10.450711059570324 97.73502044677734 8.88321609497072 98.73251724243164 22.895671081542986 74.55509490966796 23.37066955566408 75.07759323120116 29.118151092529303 94.98002929687499 27.69315567016602 95.74002685546874 40.94561309814455 75.93259048461914 42.32310867309573 76.2650894165039 48.49808883666995 Z"/>
</g>
</g>

<g transform="matrix( 0.9499969482421875, 0, 0, 0.9499969482421875, 104.1,231.8) ">
<g>
<g>
<path fill="url(#Gradient_1)" stroke="none" d="
M -29.65 -199.45
L -8.8 -200.9 -9.6 -214.85 -30.55 -213.35 -31.1 -219.4 -5.65 -219.9 -6.7 -234.65 -46.95 -233 -43.55 -178.7 -3.25 -178.7 -3.25 -194.3 -29.3 -192.95 -29.65 -199.45
M -87.05 -232.1
L -101.15 -233.15 -100.65 -178.7 -83.85 -178.7 -83.85 -201.6 -64.15 -178.7 -49.9 -178.7 -49.9 -234.65 -66.35 -234.15 -66.25 -208.2 -87.05 -232.1
M 51.65 -233.65
L 52.7 -219.2 67.75 -219.95 67.45 -177.35 83.9 -179 84.2 -220.45 98.45 -221.2 97.25 -235.6 51.65 -233.65
M 36.8 -235.25
L 24.8 -218.85 13.4 -234.75 0.65 -226.55 14.75 -206.45 -1.4 -184.05 12.35 -175.2 25.25 -193 38.7 -175.2 51.7 -183.2 35.3 -205.4 50.6 -226.3 36.8 -235.25 Z"/>
</g>
</g>

<g transform="matrix( 1.0526275634765625, 0, 0, 1.0526275634765625, -109.55,-244) ">
<path stroke="#FFFFFF" stroke-width="8" stroke-linejoin="round" stroke-linecap="round" fill="none" d="
M 137.6348922729492 36.670626831054705
L 153.2148422241211 57.76055908203128 140.86488189697266 65.36053466796878 128.08742294311523 48.450588989257824 115.83246231079102 65.36053466796878 102.77000427246094 56.953061676025385 118.11245498657226 35.67313003540042 104.71749801635741 16.578191375732416 116.8299591064453 8.788216400146496 127.65992431640625 23.89316787719727 139.05988769531248 8.313217926025402 152.1698455810547 16.815690612792963 137.6348922729492 36.670626831054705 Z
M 197.62719955444334 21.660675048828153
L 184.08974304199216 22.373172760009794 183.80474395751952 61.75054626464845 168.17729415893552 63.31804122924805 168.4622932434082 22.848171234130888 154.1648391723633 23.56066894531253 153.16734237670897 9.833213043212908 196.48720321655273 7.980718994140631 197.62719955444334 21.660675048828153 Z
M 43.15769577026366 62.03554534912112
L 24.44275588989258 40.280615234375006 24.44275588989258 62.03554534912112 8.482807159423814 62.03554534912112 8.00780868530272 10.308211517334001 21.40276565551757 11.305708312988287 41.16270217895507 34.01063537597659 41.06770248413086 9.358214569091814 56.69515228271484 8.88321609497072 56.69515228271484 62.03554534912112 43.15769577026366 62.03554534912112 Z
M 76.2650894165039 48.49808883666995
L 101.01250991821288 47.21559295654296 101.01250991821288 62.03554534912112 62.72763290405273 62.03554534912112 59.49764328002929 10.450711059570324 97.73502044677734 8.88321609497072 98.73251724243164 22.895671081542986 74.55509490966796 23.37066955566408 75.07759323120116 29.118151092529303 94.98002929687499 27.69315567016602 95.74002685546874 40.94561309814455 75.93259048461914 42.32310867309573 76.2650894165039 48.49808883666995 Z"/>
</g>
</g>

<g transform="matrix( 0.9499969482421875, 0, 0, 0.9499969482421875, 104.1,231.8) ">
<g>
<g>
<path fill="url(#Gradient_1)" stroke="none" d="
M -29.65 -199.45
L -8.8 -200.9 -9.6 -214.85 -30.55 -213.35 -31.1 -219.4 -5.65 -219.9 -6.7 -234.65 -46.95 -233 -43.55 -178.7 -3.25 -178.7 -3.25 -194.3 -29.3 -192.95 -29.65 -199.45
M -87.05 -232.1
L -101.15 -233.15 -100.65 -178.7 -83.85 -178.7 -83.85 -201.6 -64.15 -178.7 -49.9 -178.7 -49.9 -234.65 -66.35 -234.15 -66.25 -208.2 -87.05 -232.1
M 51.65 -233.65
L 52.7 -219.2 67.75 -219.95 67.45 -177.35 83.9 -179 84.2 -220.45 98.45 -221.2 97.25 -235.6 51.65 -233.65
M 36.8 -235.25
L 24.8 -218.85 13.4 -234.75 0.65 -226.55 14.75 -206.45 -1.4 -184.05 12.35 -175.2 25.25 -193 38.7 -175.2 51.7 -183.2 35.3 -205.4 50.6 -226.3 36.8 -235.25 Z"/>
</g>
</g>
</g>
</g>
</svg>
