
<svg xmlns="http://www.w3.org/2000/svg" version="1.1" xmlns:xlink="http://www.w3.org/1999/xlink" preserveAspectRatio="none" x="0px" y="0px" width="195px" height="71px" viewBox="0 0 195 71">
<defs>
<linearGradient id="Gradient_1" gradientUnits="userSpaceOnUse" x1="-30.9" y1="-234.2" x2="-30.9" y2="-177" spreadMethod="pad">
<stop  offset="0%" stop-color="#FFE465"/>

<stop  offset="100%" stop-color="#E0BA00"/>
</linearGradient>

<linearGradient id="Gradient_2" gradientUnits="userSpaceOnUse" x1="-74.05" y1="-233.9" x2="-74.05" y2="-178.70000000000002" spreadMethod="pad">
<stop  offset="0%" stop-color="#FFE465"/>

<stop  offset="100%" stop-color="#E0BA00"/>
</linearGradient>

<linearGradient id="Gradient_3" gradientUnits="userSpaceOnUse" x1="69.2" y1="-235.625" x2="69.2" y2="-177.375" spreadMethod="pad">
<stop  offset="0%" stop-color="#FFE465"/>

<stop  offset="100%" stop-color="#E0BA00"/>
</linearGradient>

<linearGradient id="Gradient_4" gradientUnits="userSpaceOnUse" x1="22.45" y1="-234.675" x2="22.45" y2="-178.125" spreadMethod="pad">
<stop  offset="0%" stop-color="#FFE465"/>

<stop  offset="100%" stop-color="#E0BA00"/>
</linearGradient>
</defs>

<g id="Layer_2"/>

<g id="Layer_1"/>

<g id="Layer_5"/>

<g id="Layer_4">
<g transform="matrix( 0.9499969482421875, 0, 0, 0.9499969482421875, 99.15,231.8) ">
<g>
<g>
<path fill="url(#Gradient_1)" stroke="none" d="
M -10.15 -207.4
Q -12.55 -214.05 -14.9 -220.7 -17.25 -227.4 -19.3 -234.05
L -36.55 -234.2 -60.7 -184 -46.45 -178.15 -39.95 -190.55 -21.2 -190.55 -16.9 -177 -1.1 -180.8
Q -3.1 -187.5 -5.45 -194.1 -7.75 -200.75 -10.15 -207.4
M -23.35 -204.2
L -35.05 -204.2 -28.5 -218.6 -23.35 -204.2 Z"/>

<path fill="url(#Gradient_2)" stroke="none" d="
M -86 -232.75
Q -91.25 -231.65 -95.95 -229.4
L -93.4 -178.7 -78.55 -178.7 -79.15 -193
Q -78.05 -192.65 -76.85 -192.55 -75.65 -192.45 -74.45 -192.45 -70.3 -192.45 -66.3 -194.1 -62.25 -195.75 -59.1 -198.6 -55.95 -201.5 -54.05 -205.3 -52.15 -209.15 -52.15 -213.5 -52.15 -218 -54.15 -221.75 -56.2 -225.5 -59.55 -228.2 -62.9 -230.9 -67.1 -232.4 -71.3 -233.9 -75.55 -233.9 -80.7 -233.9 -86 -232.75
M -67.15 -213.35
Q -67.15 -211.6 -67.85 -210.4 -68.55 -209.2 -69.65 -208.45 -70.7 -207.7 -72.1 -207.35 -73.55 -207.05 -75.05 -207.05 -77.7 -207.05 -79.9 -207.9
L -80.35 -218.75
Q -78.25 -219.55 -75.7 -219.55 -74.15 -219.55 -72.6 -219.2 -71.05 -218.85 -69.9 -218.05 -68.7 -217.35 -67.9 -216.15 -67.15 -215 -67.15 -213.35 Z"/>

<path fill="url(#Gradient_3)" stroke="none" d="
M 45.8 -233.65
L 46.85 -219.2 61.9 -219.95 61.6 -177.35 78.05 -179 78.35 -220.45 92.6 -221.2 91.4 -235.6 45.8 -233.65 Z"/>

<path fill="url(#Gradient_4)" stroke="none" d="
M 34.95 -232.35
Q 29.5 -234.5 23.7 -234.65 20 -234.65 16.15 -233.6 12.35 -232.55 9.2 -230.4 6.05 -228.3 4 -225 2 -221.7 2 -217.25 2 -213.25 3.7 -209.95 5.45 -206.7 8.25 -204.3 11 -201.95 14.5 -200.6 18.05 -199.25 21.65 -199.15 22.25 -199.15 23.05 -199.2 23.9 -199.25 24.7 -199.25 25.7 -199.25 26.7 -199.15 27.7 -199 28.5 -198.75 29.3 -198.5 29.8 -197.95 30.25 -197.4 30.25 -196.45 30.25 -195.5 29.45 -194.8 28.6 -194.1 27.4 -193.65 26.15 -193.15 24.75 -193 23.4 -192.8 22.3 -192.8 18.9 -192.8 15.6 -194.3 12.35 -195.8 9.95 -198.45
L -0.1 -187.65
Q 2 -185.2 4.8 -183.4 7.55 -181.65 10.55 -180.45 13.6 -179.3 16.85 -178.7 20.05 -178.1 23.15 -178.1 27.05 -178.1 30.85 -179.45 34.7 -180.8 37.8 -183.3 40.95 -185.75 42.85 -189.3 44.8 -192.85 44.95 -197.25 44.95 -201.55 43.15 -204.7 41.3 -207.85 38.35 -209.95 35.45 -212 31.8 -212.95 28.15 -213.95 24.55 -213.95 23.7 -213.95 23 -213.85 22.3 -213.8 21.5 -213.8 20.75 -213.8 19.9 -213.95 19.05 -214.1 18.4 -214.5 17.75 -214.85 17.25 -215.35 16.85 -215.9 16.75 -216.8 16.75 -217.85 17.4 -218.5 18.1 -219.15 19.15 -219.45 20.15 -219.75 21.25 -219.85 22.4 -219.9 23.3 -219.9 27.1 -219.75 30.25 -218.3 33.35 -216.9 36.3 -214.9
L 44.65 -226.05
Q 40.4 -230.15 34.95 -232.35 Z"/>
</g>
</g>

<g transform="matrix( 1.0526275634765625, 0, 0, 1.0526275634765625, -104.35,-244) ">
<path stroke="#0E35A1" stroke-width="16" stroke-linejoin="round" stroke-linecap="round" fill="none" d="
M 133.6348892211914 27.645655822753923
Q 130.83239822387696 25.74566192626955 127.88740768432618 24.415666198730463 124.89491729736329 23.03817062377931 121.28492889404298 22.895671081542986 120.429931640625 22.895671081542986 119.33743515014649 22.943170928955084 118.29243850708008 23.03817062377931 117.34244155883789 23.32316970825198 116.3449447631836 23.608168792724626 115.67994689941406 24.225666809082043 115.06244888305665 24.84316482543946 115.06244888305665 25.840661621093744 115.15744857788087 26.695658874511736 115.53744735717774 27.218157196044928 116.01244583129883 27.69315567016602 116.62994384765625 28.025654602050793 117.24744186401368 28.405653381347662 118.05493927001953 28.548152923584013 118.8624366760254 28.690652465820307 119.57493438720704 28.690652465820307 120.33493194580079 28.690652465820307 120.99992980957032 28.64315261840821 121.66492767333985 28.548152923584013 122.47242507934571 28.548152923584013 125.89241409301758 28.548152923584013 129.35990295410156 29.4981498718262 132.82739181518556 30.40064697265626 135.5823829650879 32.34814071655276 138.38487396240234 34.343134307861334 140.1423683166504 37.33562469482425 141.85236282348635 40.328115081787104 141.85236282348635 44.41310195922853 141.70986328125 48.593088531494146 139.85736923217775 51.9655776977539 138.0523750305176 55.33806686401368 135.05988464355468 57.665559387207026 132.11489410400392 60.040551757812494 128.4574058532715 61.32304763793948 124.84741744995118 62.60554351806641 121.14242935180664 62.60554351806641 118.19743881225587 62.60554351806641 115.15744857788087 62.03554534912112 112.06995849609376 61.465547180175776 109.17246780395509 60.373050689697294 106.32247695922852 59.23305435180666 103.70998535156251 57.57055969238283 101.04999389648438 55.8605651855469 99.05500030517578 53.53307266235353
L 108.60246963500977 43.27310562133792
Q 110.88246231079103 45.79059753417968 113.96995239257814 47.21559295654296 117.10494232177734 48.640588378906244 120.33493194580079 48.640588378906244 121.37992858886719 48.640588378906244 122.66242446899415 48.450588989257824 123.9924201965332 48.3080894470215 125.17991638183594 47.83309097290041 126.31991271972657 47.40559234619141 127.12741012573242 46.74059448242187 127.88740768432618 46.075596618652355 127.88740768432618 45.173099517822294 127.88740768432618 44.270602416992205 127.4599090576172 43.74810409545901 126.9849105834961 43.22560577392579 126.22491302490235 42.988106536865246 125.4649154663086 42.7506072998047 124.51491851806641 42.608107757568376 123.56492156982422 42.51310806274415 122.61492462158203 42.51310806274415 121.85492706298828 42.51310806274415 121.04742965698243 42.56060791015628 120.28743209838868 42.608107757568376 119.71743392944336 42.608107757568376 116.2974449157715 42.51310806274415 112.92495574951172 41.23061218261719 109.59996643066407 39.94811630249026 106.98747482299805 37.71562347412109 104.32748336791992 35.43563079833987 102.6649887084961 32.34814071655276 101.04999389648438 29.213150787353527 101.04999389648438 25.413162994384777 101.04999389648438 21.18567657470706 102.94998779296876 18.050686645507824 104.89748153686524 14.915696716308588 107.88997192382813 12.920703125000017 110.88246231079103 10.878209686279291 114.49245071411133 9.880712890625006 118.14993896484376 8.88321609497072 121.66492767333985 8.88321609497072 127.17490997314454 9.025715637207043 132.35239334106447 11.06820907592774 137.52987670898438 13.158202362060564 141.56736373901367 17.05318984985351
L 133.6348892211914 27.645655822753923 Z
M 187.11971740722657 21.660675048828153
L 173.5822608947754 22.373172760009794 173.29726181030276 61.75054626464845 157.66981201171876 63.31804122924805 157.9548110961914 22.848171234130888 143.6573570251465 23.56066894531253 142.65986022949218 9.833213043212908 185.97972106933594 7.980718994140631 187.11971740722657 21.660675048828153 Z
M 24.527739715576175 62.03554534912112
L 10.420285034179685 62.03554534912112 7.997792816162118 13.870700073242205
Q 12.462778472900396 11.733206939697283 17.45026245117188 10.68821029663087 22.485246276855477 9.59571380615236 27.377730560302737 9.59571380615236 31.415217590332034 9.59571380615236 35.40520477294923 11.020709228515642 39.39519195556641 12.445704650878923 42.577681732177744 15.010696411132841 45.760171508789064 17.57568817138673 47.70766525268555 21.138176727294933 49.607659149169926 24.700665283203136 49.607659149169926 28.97565155029298 49.607659149169926 33.1081382751465 47.802664947509776 36.7656265258789 45.99767074584961 40.37561492919923 43.005180358886726 43.13060607910157 40.012689971923834 45.83809738159181 36.16520233154298 47.40559234619141 32.36521453857422 48.973087310791044 28.42272720336915 48.973087310791044 27.282730865478513 48.973087310791044 26.142734527587905 48.87808761596679 25.00273818969727 48.783087921142595 23.957741546630857 48.450588989257824
L 24.527739715576175 62.03554534912112 Z
M 23.245243835449216 34.295634460449236
Q 25.33523712158204 35.10313186645507 27.85272903442383 35.10313186645507 29.277724456787112 35.10313186645507 30.655220031738295 34.81813278198243 31.985215759277352 34.485633850097685 32.98271255493164 33.773136138916044 34.02770919799805 33.0606384277344 34.69270706176759 31.920642089843767 35.35770492553711 30.78064575195313 35.35770492553711 29.118151092529303 35.35770492553711 27.5506561279297 34.645207214355466 26.45815963745119 33.88520965576173 25.318163299560553 32.74521331787109 24.65316543579101 31.65271682739258 23.89316787719727 30.1802215576172 23.56066894531253 28.707726287841794 23.22817001342773 27.235231018066415 23.22817001342773 24.812738800048834 23.22817001342773 22.81774520874025 23.988167572021496
L 23.245243835449216 34.295634460449236 Z
M 79.01006469726563 50.778081512451166
L 61.19762191772461 50.778081512451166 55.02264175415039 62.558043670654314 41.48518524169922 57.00056152343751 64.42761154174806 9.310714721679716 80.81505889892578 9.45321426391601
Q 82.76255264282227 15.77069396972658 84.99504547119142 22.135673522949247 87.22753829956055 28.45315322875976 89.50753097534181 34.77063293457033 91.78752365112305 41.08811264038087 93.97251663208009 47.40559234619141 96.20500946044922 53.675572204589855 98.1050033569336 60.040551757812494
L 83.09505157470704 63.650540161132824 79.01006469726563 50.778081512451166 Z
M 76.96757125854492 37.81062316894534
L 72.07508697509766 24.130667114257818 65.85260696411135 37.81062316894534 76.96757125854492 37.81062316894534 Z"/>
</g>
</g>

<g transform="matrix( 0.9499969482421875, 0, 0, 0.9499969482421875, 99.15,231.8) ">
<g>
<g>
<path fill="url(#Gradient_1)" stroke="none" d="
M -10.15 -207.4
Q -12.55 -214.05 -14.9 -220.7 -17.25 -227.4 -19.3 -234.05
L -36.55 -234.2 -60.7 -184 -46.45 -178.15 -39.95 -190.55 -21.2 -190.55 -16.9 -177 -1.1 -180.8
Q -3.1 -187.5 -5.45 -194.1 -7.75 -200.75 -10.15 -207.4
M -23.35 -204.2
L -35.05 -204.2 -28.5 -218.6 -23.35 -204.2 Z"/>

<path fill="url(#Gradient_2)" stroke="none" d="
M -86 -232.75
Q -91.25 -231.65 -95.95 -229.4
L -93.4 -178.7 -78.55 -178.7 -79.15 -193
Q -78.05 -192.65 -76.85 -192.55 -75.65 -192.45 -74.45 -192.45 -70.3 -192.45 -66.3 -194.1 -62.25 -195.75 -59.1 -198.6 -55.95 -201.5 -54.05 -205.3 -52.15 -209.15 -52.15 -213.5 -52.15 -218 -54.15 -221.75 -56.2 -225.5 -59.55 -228.2 -62.9 -230.9 -67.1 -232.4 -71.3 -233.9 -75.55 -233.9 -80.7 -233.9 -86 -232.75
M -67.15 -213.35
Q -67.15 -211.6 -67.85 -210.4 -68.55 -209.2 -69.65 -208.45 -70.7 -207.7 -72.1 -207.35 -73.55 -207.05 -75.05 -207.05 -77.7 -207.05 -79.9 -207.9
L -80.35 -218.75
Q -78.25 -219.55 -75.7 -219.55 -74.15 -219.55 -72.6 -219.2 -71.05 -218.85 -69.9 -218.05 -68.7 -217.35 -67.9 -216.15 -67.15 -215 -67.15 -213.35 Z"/>

<path fill="url(#Gradient_3)" stroke="none" d="
M 45.8 -233.65
L 46.85 -219.2 61.9 -219.95 61.6 -177.35 78.05 -179 78.35 -220.45 92.6 -221.2 91.4 -235.6 45.8 -233.65 Z"/>

<path fill="url(#Gradient_4)" stroke="none" d="
M 34.95 -232.35
Q 29.5 -234.5 23.7 -234.65 20 -234.65 16.15 -233.6 12.35 -232.55 9.2 -230.4 6.05 -228.3 4 -225 2 -221.7 2 -217.25 2 -213.25 3.7 -209.95 5.45 -206.7 8.25 -204.3 11 -201.95 14.5 -200.6 18.05 -199.25 21.65 -199.15 22.25 -199.15 23.05 -199.2 23.9 -199.25 24.7 -199.25 25.7 -199.25 26.7 -199.15 27.7 -199 28.5 -198.75 29.3 -198.5 29.8 -197.95 30.25 -197.4 30.25 -196.45 30.25 -195.5 29.45 -194.8 28.6 -194.1 27.4 -193.65 26.15 -193.15 24.75 -193 23.4 -192.8 22.3 -192.8 18.9 -192.8 15.6 -194.3 12.35 -195.8 9.95 -198.45
L -0.1 -187.65
Q 2 -185.2 4.8 -183.4 7.55 -181.65 10.55 -180.45 13.6 -179.3 16.85 -178.7 20.05 -178.1 23.15 -178.1 27.05 -178.1 30.85 -179.45 34.7 -180.8 37.8 -183.3 40.95 -185.75 42.85 -189.3 44.8 -192.85 44.95 -197.25 44.95 -201.55 43.15 -204.7 41.3 -207.85 38.35 -209.95 35.45 -212 31.8 -212.95 28.15 -213.95 24.55 -213.95 23.7 -213.95 23 -213.85 22.3 -213.8 21.5 -213.8 20.75 -213.8 19.9 -213.95 19.05 -214.1 18.4 -214.5 17.75 -214.85 17.25 -215.35 16.85 -215.9 16.75 -216.8 16.75 -217.85 17.4 -218.5 18.1 -219.15 19.15 -219.45 20.15 -219.75 21.25 -219.85 22.4 -219.9 23.3 -219.9 27.1 -219.75 30.25 -218.3 33.35 -216.9 36.3 -214.9
L 44.65 -226.05
Q 40.4 -230.15 34.95 -232.35 Z"/>
</g>
</g>

<g transform="matrix( 1.0526275634765625, 0, 0, 1.0526275634765625, -104.35,-244) ">
<path stroke="#FFFFFF" stroke-width="8" stroke-linejoin="round" stroke-linecap="round" fill="none" d="
M 133.6348892211914 27.645655822753923
Q 130.83239822387696 25.74566192626955 127.88740768432618 24.415666198730463 124.89491729736329 23.03817062377931 121.28492889404298 22.895671081542986 120.429931640625 22.895671081542986 119.33743515014649 22.943170928955084 118.29243850708008 23.03817062377931 117.34244155883789 23.32316970825198 116.3449447631836 23.608168792724626 115.67994689941406 24.225666809082043 115.06244888305665 24.84316482543946 115.06244888305665 25.840661621093744 115.15744857788087 26.695658874511736 115.53744735717774 27.218157196044928 116.01244583129883 27.69315567016602 116.62994384765625 28.025654602050793 117.24744186401368 28.405653381347662 118.05493927001953 28.548152923584013 118.8624366760254 28.690652465820307 119.57493438720704 28.690652465820307 120.33493194580079 28.690652465820307 120.99992980957032 28.64315261840821 121.66492767333985 28.548152923584013 122.47242507934571 28.548152923584013 125.89241409301758 28.548152923584013 129.35990295410156 29.4981498718262 132.82739181518556 30.40064697265626 135.5823829650879 32.34814071655276 138.38487396240234 34.343134307861334 140.1423683166504 37.33562469482425 141.85236282348635 40.328115081787104 141.85236282348635 44.41310195922853 141.70986328125 48.593088531494146 139.85736923217775 51.9655776977539 138.0523750305176 55.33806686401368 135.05988464355468 57.665559387207026 132.11489410400392 60.040551757812494 128.4574058532715 61.32304763793948 124.84741744995118 62.60554351806641 121.14242935180664 62.60554351806641 118.19743881225587 62.60554351806641 115.15744857788087 62.03554534912112 112.06995849609376 61.465547180175776 109.17246780395509 60.373050689697294 106.32247695922852 59.23305435180666 103.70998535156251 57.57055969238283 101.04999389648438 55.8605651855469 99.05500030517578 53.53307266235353
L 108.60246963500977 43.27310562133792
Q 110.88246231079103 45.79059753417968 113.96995239257814 47.21559295654296 117.10494232177734 48.640588378906244 120.33493194580079 48.640588378906244 121.37992858886719 48.640588378906244 122.66242446899415 48.450588989257824 123.9924201965332 48.3080894470215 125.17991638183594 47.83309097290041 126.31991271972657 47.40559234619141 127.12741012573242 46.74059448242187 127.88740768432618 46.075596618652355 127.88740768432618 45.173099517822294 127.88740768432618 44.270602416992205 127.4599090576172 43.74810409545901 126.9849105834961 43.22560577392579 126.22491302490235 42.988106536865246 125.4649154663086 42.7506072998047 124.51491851806641 42.608107757568376 123.56492156982422 42.51310806274415 122.61492462158203 42.51310806274415 121.85492706298828 42.51310806274415 121.04742965698243 42.56060791015628 120.28743209838868 42.608107757568376 119.71743392944336 42.608107757568376 116.2974449157715 42.51310806274415 112.92495574951172 41.23061218261719 109.59996643066407 39.94811630249026 106.98747482299805 37.71562347412109 104.32748336791992 35.43563079833987 102.6649887084961 32.34814071655276 101.04999389648438 29.213150787353527 101.04999389648438 25.413162994384777 101.04999389648438 21.18567657470706 102.94998779296876 18.050686645507824 104.89748153686524 14.915696716308588 107.88997192382813 12.920703125000017 110.88246231079103 10.878209686279291 114.49245071411133 9.880712890625006 118.14993896484376 8.88321609497072 121.66492767333985 8.88321609497072 127.17490997314454 9.025715637207043 132.35239334106447 11.06820907592774 137.52987670898438 13.158202362060564 141.56736373901367 17.05318984985351
L 133.6348892211914 27.645655822753923 Z
M 187.11971740722657 21.660675048828153
L 173.5822608947754 22.373172760009794 173.29726181030276 61.75054626464845 157.66981201171876 63.31804122924805 157.9548110961914 22.848171234130888 143.6573570251465 23.56066894531253 142.65986022949218 9.833213043212908 185.97972106933594 7.980718994140631 187.11971740722657 21.660675048828153 Z
M 24.527739715576175 62.03554534912112
L 10.420285034179685 62.03554534912112 7.997792816162118 13.870700073242205
Q 12.462778472900396 11.733206939697283 17.45026245117188 10.68821029663087 22.485246276855477 9.59571380615236 27.377730560302737 9.59571380615236 31.415217590332034 9.59571380615236 35.40520477294923 11.020709228515642 39.39519195556641 12.445704650878923 42.577681732177744 15.010696411132841 45.760171508789064 17.57568817138673 47.70766525268555 21.138176727294933 49.607659149169926 24.700665283203136 49.607659149169926 28.97565155029298 49.607659149169926 33.1081382751465 47.802664947509776 36.7656265258789 45.99767074584961 40.37561492919923 43.005180358886726 43.13060607910157 40.012689971923834 45.83809738159181 36.16520233154298 47.40559234619141 32.36521453857422 48.973087310791044 28.42272720336915 48.973087310791044 27.282730865478513 48.973087310791044 26.142734527587905 48.87808761596679 25.00273818969727 48.783087921142595 23.957741546630857 48.450588989257824
L 24.527739715576175 62.03554534912112 Z
M 23.245243835449216 34.295634460449236
Q 25.33523712158204 35.10313186645507 27.85272903442383 35.10313186645507 29.277724456787112 35.10313186645507 30.655220031738295 34.81813278198243 31.985215759277352 34.485633850097685 32.98271255493164 33.773136138916044 34.02770919799805 33.0606384277344 34.69270706176759 31.920642089843767 35.35770492553711 30.78064575195313 35.35770492553711 29.118151092529303 35.35770492553711 27.5506561279297 34.645207214355466 26.45815963745119 33.88520965576173 25.318163299560553 32.74521331787109 24.65316543579101 31.65271682739258 23.89316787719727 30.1802215576172 23.56066894531253 28.707726287841794 23.22817001342773 27.235231018066415 23.22817001342773 24.812738800048834 23.22817001342773 22.81774520874025 23.988167572021496
L 23.245243835449216 34.295634460449236 Z
M 76.96757125854492 37.81062316894534
L 72.07508697509766 24.130667114257818 65.85260696411135 37.81062316894534 76.96757125854492 37.81062316894534 Z
M 79.01006469726563 50.778081512451166
L 61.19762191772461 50.778081512451166 55.02264175415039 62.558043670654314 41.48518524169922 57.00056152343751 64.42761154174806 9.310714721679716 80.81505889892578 9.45321426391601
Q 82.76255264282227 15.77069396972658 84.99504547119142 22.135673522949247 87.22753829956055 28.45315322875976 89.50753097534181 34.77063293457033 91.78752365112305 41.08811264038087 93.97251663208009 47.40559234619141 96.20500946044922 53.675572204589855 98.1050033569336 60.040551757812494
L 83.09505157470704 63.650540161132824 79.01006469726563 50.778081512451166 Z"/>
</g>
</g>

<g transform="matrix( 0.9499969482421875, 0, 0, 0.9499969482421875, 99.15,231.8) ">
<g>
<g>
<path fill="url(#Gradient_1)" stroke="none" d="
M -10.15 -207.4
Q -12.55 -214.05 -14.9 -220.7 -17.25 -227.4 -19.3 -234.05
L -36.55 -234.2 -60.7 -184 -46.45 -178.15 -39.95 -190.55 -21.2 -190.55 -16.9 -177 -1.1 -180.8
Q -3.1 -187.5 -5.45 -194.1 -7.75 -200.75 -10.15 -207.4
M -23.35 -204.2
L -35.05 -204.2 -28.5 -218.6 -23.35 -204.2 Z"/>

<path fill="url(#Gradient_2)" stroke="none" d="
M -86 -232.75
Q -91.25 -231.65 -95.95 -229.4
L -93.4 -178.7 -78.55 -178.7 -79.15 -193
Q -78.05 -192.65 -76.85 -192.55 -75.65 -192.45 -74.45 -192.45 -70.3 -192.45 -66.3 -194.1 -62.25 -195.75 -59.1 -198.6 -55.95 -201.5 -54.05 -205.3 -52.15 -209.15 -52.15 -213.5 -52.15 -218 -54.15 -221.75 -56.2 -225.5 -59.55 -228.2 -62.9 -230.9 -67.1 -232.4 -71.3 -233.9 -75.55 -233.9 -80.7 -233.9 -86 -232.75
M -67.15 -213.35
Q -67.15 -211.6 -67.85 -210.4 -68.55 -209.2 -69.65 -208.45 -70.7 -207.7 -72.1 -207.35 -73.55 -207.05 -75.05 -207.05 -77.7 -207.05 -79.9 -207.9
L -80.35 -218.75
Q -78.25 -219.55 -75.7 -219.55 -74.15 -219.55 -72.6 -219.2 -71.05 -218.85 -69.9 -218.05 -68.7 -217.35 -67.9 -216.15 -67.15 -215 -67.15 -213.35 Z"/>

<path fill="url(#Gradient_3)" stroke="none" d="
M 45.8 -233.65
L 46.85 -219.2 61.9 -219.95 61.6 -177.35 78.05 -179 78.35 -220.45 92.6 -221.2 91.4 -235.6 45.8 -233.65 Z"/>

<path fill="url(#Gradient_4)" stroke="none" d="
M 34.95 -232.35
Q 29.5 -234.5 23.7 -234.65 20 -234.65 16.15 -233.6 12.35 -232.55 9.2 -230.4 6.05 -228.3 4 -225 2 -221.7 2 -217.25 2 -213.25 3.7 -209.95 5.45 -206.7 8.25 -204.3 11 -201.95 14.5 -200.6 18.05 -199.25 21.65 -199.15 22.25 -199.15 23.05 -199.2 23.9 -199.25 24.7 -199.25 25.7 -199.25 26.7 -199.15 27.7 -199 28.5 -198.75 29.3 -198.5 29.8 -197.95 30.25 -197.4 30.25 -196.45 30.25 -195.5 29.45 -194.8 28.6 -194.1 27.4 -193.65 26.15 -193.15 24.75 -193 23.4 -192.8 22.3 -192.8 18.9 -192.8 15.6 -194.3 12.35 -195.8 9.95 -198.45
L -0.1 -187.65
Q 2 -185.2 4.8 -183.4 7.55 -181.65 10.55 -180.45 13.6 -179.3 16.85 -178.7 20.05 -178.1 23.15 -178.1 27.05 -178.1 30.85 -179.45 34.7 -180.8 37.8 -183.3 40.95 -185.75 42.85 -189.3 44.8 -192.85 44.95 -197.25 44.95 -201.55 43.15 -204.7 41.3 -207.85 38.35 -209.95 35.45 -212 31.8 -212.95 28.15 -213.95 24.55 -213.95 23.7 -213.95 23 -213.85 22.3 -213.8 21.5 -213.8 20.75 -213.8 19.9 -213.95 19.05 -214.1 18.4 -214.5 17.75 -214.85 17.25 -215.35 16.85 -215.9 16.75 -216.8 16.75 -217.85 17.4 -218.5 18.1 -219.15 19.15 -219.45 20.15 -219.75 21.25 -219.85 22.4 -219.9 23.3 -219.9 27.1 -219.75 30.25 -218.3 33.35 -216.9 36.3 -214.9
L 44.65 -226.05
Q 40.4 -230.15 34.95 -232.35 Z"/>
</g>
</g>
</g>
</g>
</svg>
