
<svg xmlns="http://www.w3.org/2000/svg" version="1.1" xmlns:xlink="http://www.w3.org/1999/xlink" preserveAspectRatio="none" x="0px" y="0px" width="100px" height="117px" viewBox="0 0 100 117">
<defs>
<linearGradient id="Gradient_1" gradientUnits="userSpaceOnUse" x1="50.1" y1="3.3999999999999986" x2="50.1" y2="97.80000000000001" spreadMethod="pad">
<stop  offset="0%" stop-color="#1FD6FC"/>

<stop  offset="100%" stop-color="#0261E6"/>
</linearGradient>
</defs>

<g id="Layer_2"/>

<g id="Layer_1">
<g>
<g>
<g>
<path fill="url(#Gradient_1)" stroke="none" d="
M 56.85 83.6
Q 53.805078125 84.2107421875 50.55 84.25 46.843359375 87.3994140625 46.7 97.8 48.3798828125 97.9 50.1 97.9 56.553515625 97.9 62.4 96.4 60.6166015625 93.4818359375 59.4 88.55 58.524609375 85.0013671875 56.85 83.6
M 83.8 83.95
Q 97.75 69.95 97.75 50.2 97.75 30.45 83.8 16.45 69.8 2.5 50.1 2.5 30.4 2.5 16.45 16.45 2.45 30.45 2.45 50.2 2.45 69.95 16.45 83.95 21.66484375 89.16484375 27.65 92.4 27.3771484375 82.894140625 23.3 74.7 21.1818359375 70.4634765625 19.8 65.7 16.25 58.76015625 16.25 50.35 16.25 36.3 26.15 26.4 36.1 16.4 50.1 16.4 64.15 16.4 74.05 26.4 83.95 36.3 83.95 50.35 83.95 61.545703125 77.6 70.15 74.6111328125 77.8447265625 75 86.7 75.1046875 89.0634765625 74.95 91 79.637109375 88.098046875 83.8 83.95 Z"/>
</g>
</g>
</g>
</g>
</svg>
