
<svg xmlns="http://www.w3.org/2000/svg" version="1.1" xmlns:xlink="http://www.w3.org/1999/xlink" preserveAspectRatio="none" x="0px" y="0px" width="87px" height="102px" viewBox="0 0 87 102">
<defs>
<linearGradient id="Gradient_1" gradientUnits="userSpaceOnUse" x1="-0.15" y1="57.5875" x2="-0.15" y2="30.7125" spreadMethod="pad">
<stop  offset="0%" stop-color="#1FD6FC"/>

<stop  offset="100%" stop-color="#0261E6"/>
</linearGradient>

<linearGradient id="Gradient_2" gradientUnits="userSpaceOnUse" x1="-0.15" y1="82.125" x2="-0.15" y2="2.5749999999999957" spreadMethod="pad">
<stop  offset="0%" stop-color="#FFE465"/>

<stop  offset="100%" stop-color="#E0BA00"/>
</linearGradient>

<linearGradient id="Gradient_3" gradientUnits="userSpaceOnUse" x1="-0.1" y1="26.924999999999997" x2="-0.1" y2="76.875" spreadMethod="pad">
<stop  offset="0%" stop-color="#FFFFFF"/>

<stop  offset="100%" stop-color="#FFE465"/>
</linearGradient>
</defs>

<g id="Layer_1">
<g id="Layer_3" transform="matrix( 1.084442138671875, 0, 0, 1.084442138671875, 43.8,-2.2) ">
<g transform="matrix( -1, 0, 0, -1, -0.35,84.65) ">
<g>
<g>
<path fill="url(#Gradient_1)" stroke="none" d="
M 38.05 42.35
Q 38.05 26.5 26.9 15.25 15.7 4.05 -0.15 4.05 -16 4.05 -27.2 15.25 -38.35 26.5 -38.35 42.35 -38.35 58.2 -27.2 69.35 -16 80.6 -0.15 80.6 15.7 80.6 26.9 69.35 38.05 58.2 38.05 42.35
M 19.05 23.15
Q 27 31.15 27 42.4 27 53.65 19.05 61.6 11.1 69.6 -0.15 69.6 -11.4 69.6 -19.35 61.6 -27.3 53.65 -27.3 42.4 -27.3 31.15 -19.35 23.15 -11.4 15.2 -0.15 15.2 11.1 15.2 19.05 23.15 Z"/>
</g>
</g>

<g transform="matrix( -1, 0, 0, -1, -0.35,84.65) ">
<path stroke="url(#Gradient_2)" stroke-width="3" stroke-linejoin="miter" stroke-linecap="square" stroke-miterlimit="3" fill="none" d="
M 38 42.300000000000004
Q 38 26.450000000000003 26.849999999999998 15.300000000000011 15.65 4.050000000000011 -0.19999999999999998 4.050000000000011 -16.05 4.050000000000011 -27.25 15.300000000000011 -38.4 26.450000000000003 -38.4 42.300000000000004 -38.4 58.150000000000006 -27.25 69.4 -16.05 80.60000000000001 -0.19999999999999998 80.60000000000001 15.65 80.60000000000001 26.849999999999998 69.4 38 58.150000000000006 38 42.300000000000004 Z
M -27.35 42.25000000000001
Q -27.35 31.000000000000007 -19.400000000000002 23.025000000000006 -11.45 15.050000000000011 -0.19999999999999998 15.050000000000011 11.05 15.050000000000011 19 23.025000000000006 26.95 31.000000000000007 26.95 42.25000000000001 26.95 53.50000000000001 19 61.47500000000001 11.05 69.45 -0.19999999999999998 69.45 -11.45 69.45 -19.400000000000002 61.47500000000001 -27.35 53.50000000000001 -27.35 42.25000000000001 Z"/>
</g>
</g>
</g>

<g id="Layer_6" transform="matrix( 1.084442138671875, 0, 0, 1.084442138671875, 43.8,-2.2) "/>

<g id="Layer_5" transform="matrix( 1.084442138671875, 0, 0, 1.084442138671875, 43.8,-2.2) "/>

<g id="Layer_2" transform="matrix( 1.084442138671875, 0, 0, 1.084442138671875, 43.8,-2.2) ">
<g>
<g>
<g>
<path fill="url(#Gradient_3)" stroke="none" d="
M 26.05 44.5
Q 26.1068359375 44.0287109375 26.1 43.55 26.15 42.9060546875 26.15 42.25 26.15 31.35 18.45 23.65 10.75 15.95 -0.1 15.95 -10.95 15.95 -18.65 23.65 -26.35 31.35 -26.35 42.25 -26.35 42.754296875 -26.35 43.25 -26.2755859375 44.9275390625 -26.05 46.5 -25.09609375 55.0630859375 -21.65 61.95 -17.548046875 70.136328125 -18.25 80 -18.903515625 89.9244140625 -15.25 93.25 -11.5888671875 96.5671875 -7.25 94.45 -2.870703125 92.3841796875 -2.9 81.5 -2.9287109375 70.6212890625 1.4 68.8 5.7794921875 67.0318359375 7.3 73.05 8.81796875 79.0556640625 11.3 81.35 13.7763671875 83.654296875 16.95 81.65 20.1720703125 79.6912109375 19.8 71.5 19.4359375 63.3619140625 22.7 56.4 25.74921875 49.99140625 26.05 44.5 Z"/>
</g>
</g>
</g>

<g>
<g>
<path fill="#FFFFFF" stroke="none" d="
M 26.15 45.25
L 26.15 43.55
Q 26.2 43.45 26.1 43.45
L 26 43.5 25.85 44.85 25.85 45.25 24.85 49.95
Q 24.6 50.85 23.7 53.2
L 22 56.9
Q 21.05 58.8 20.35 61.3
L 20.15 61.9 19.1 68.5 19.1 72.1
Q 19.1 74 19 75 18.95 76.45 18.55 77.85
L 18.2 78.85 18.1 79 18.05 79.15 17.95 79.3 17.9 79.45 17.4 80.2 16.75 80.85 16.7 80.85 16.7 80.9 16.6 80.95 16.55 80.95 16.45 81 16.3 81.1
Q 15.8 81.45 15 81.6 14.3 81.75 13.75 81.7 13.1 81.55 12.55 81.2
L 12.25 81 12.15 80.9 12 80.8 11.6 80.4 11.5 80.25
Q 11 79.75 10.6 79.05 10.15 78.35 9.85 77.65
L 9.05 75.8 7.75 71.3 7.6 71 7.55 70.75 6.8 69.45
Q 6.65 69.15 6.15 68.65 5.85 68.3 5.25 67.95 4.65 67.6 4.15 67.55 3.5 67.4 3 67.45
L 1.95 67.6 1.7 67.7 1.45 67.75 1.4 67.8 1.3 67.8 1.1 67.9 1.05 67.9 1 67.95 0.75 68.05 0.5 68.2 0.25 68.3 -0.15 68.6 -0.35 68.8 -0.45 68.85 -1.1 69.5 -1.4 69.9 -1.95 70.8
Q -2.4 71.5 -2.75 72.55 -3.2 73.85 -3.6 76.25 -3.75 77.55 -3.85 79.95
L -4.2 86.95
Q -4.45 88.8 -5 90.25 -5.2 90.85 -5.65 91.7 -6.05 92.4 -6.55 92.85
L -6.7 93 -7 93.2 -7.1 93.3 -7.2 93.35 -7.3 93.45 -7.35 93.45 -7.4 93.5 -7.6 93.6 -7.65 93.65 -7.75 93.65 -8.45 93.95 -9.2 94.15
Q -10.65 94.5 -12.15 94.05
L -13.5 93.4 -14.1 92.95 -14.2 92.9 -14.55 92.55 -14.6 92.55 -14.7 92.45
Q -15.7 91.55 -16.35 89.95 -16.95 88.3 -17.15 86.95 -17.35 85.4 -17.45 83.8
L -17.4 80.25 -17.35 80.05 -17.8 71.8 -17.8 71.6 -17.85 71.4
Q -18.35 68.55 -19.3 65.9
L -20.15 63.7 -20.6 62.8 -20.7 62.5 -21.4 61.15
Q -22.35 59.25 -23.25 56.9 -23.85 55.3 -24.5 53.05
L -24.95 51.3 -25 50.9 -25.3 49.5 -25.35 49.35 -26.2 43.2
Q -26.2 43.05 -26.3 43.15 -26.45 43.15 -26.35 43.25
L -26.35 44.55 -25.9 49.4 -25.8 49.8 -25.7 50.6 -25.65 50.8 -25.65 51 -25.2 53.25
Q -24.7 55.35 -24.1 57.2 -23.5 59.05 -22.4 61.6
L -21.85 62.7 -21.75 63 -21.6 63.3 -20.45 66.3
Q -19.55 69.2 -19.25 71.65
L -19.2 71.8 -19.2 72 -18.95 74.15 -18.95 79.75 -19 79.95 -19.05 81.35 -19.1 81.75 -19.1 83.85
Q -19.1 85.75 -18.85 87.2 -18.6 89.15 -18 90.6 -17.8 91.2 -17.2 92.3 -16.5 93.3 -16 93.8
L -15.9 93.85 -15.65 94.1 -15.55 94.15 -15.35 94.35 -15.25 94.4 -14.5 94.95
Q -14.25 95.15 -13.65 95.45
L -12.75 95.8
Q -12.1 96 -11.8 96.1
L -9.8 96.2 -8.8 96.05 -6.95 95.45 -6.85 95.4 -6.8 95.35 -6.5 95.2 -6.45 95.2 -6.4 95.15 -6.25 95.1 -6.15 95 -5.8 94.8 -5.6 94.6 -5.4 94.45 -4.85 93.9 -3.95 92.7
Q -3.35 91.5 -3.15 90.9 -2.6 89.45 -2.25 87.25 -2 85.65 -1.9 83.6
L -1.85 80
Q -1.85 78.4 -1.6 76.5 -1.35 74.55 -0.9 73.2
L 0.1 71.1 0.35 70.8 0.45 70.65 0.6 70.55 0.7 70.4 0.8 70.35 0.85 70.3 1.6 69.8 1.75 69.75 1.8 69.75 1.85 69.7 1.95 69.7 2.05 69.65 2.1 69.6 2.45 69.5 3.15 69.4
Q 3.75 69.35 4.3 69.65 4.8 69.95 5.25 70.55
L 5.75 71.45 5.8 71.5 5.85 71.7 5.95 71.9 5.95 72 6 72.05 7.15 76 7.8 77.65 9.05 80
Q 9.55 80.75 10.15 81.45
L 10.75 82.05 10.85 82.1 10.95 82.2 11.05 82.25 11.2 82.4 11.6 82.7
Q 12.6 83.3 13.5 83.35 14.4 83.5 15.45 83.25 16.3 83.05 17.1 82.55
L 17.4 82.4 17.5 82.3 17.6 82.25 17.7 82.15 17.8 82.1 18.85 81 19.1 80.6 19.5 79.8 20.05 78.25
Q 20.3 77.2 20.5 75.1 20.6 73.55 20.5 72.05
L 20.45 70.6 20.4 70.3 20.55 66.55
Q 20.95 61.65 22.8 57.25
L 24.35 53.45
Q 24.85 52.15 25.35 50.1
L 25.55 49.35 25.6 49 25.7 48.65 26.15 45.25 Z"/>
</g>

<use xlink:href="#Circle_icon1_kryssen_0_Layer3_1_STROKES_1_FILL"/>
</g>
</g>

<mask id="Mask_Mask_1">
<g>
<g>
<g>
<path fill="#FFFFFF" stroke="none" d="
M 26.05 44.5
Q 26.1068359375 44.0287109375 26.1 43.55 26.15 42.9060546875 26.15 42.25 26.15 31.35 18.45 23.65 10.75 15.95 -0.1 15.95 -10.95 15.95 -18.65 23.65 -26.35 31.35 -26.35 42.25 -26.35 42.754296875 -26.35 43.25 -26.2755859375 44.9275390625 -26.05 46.5 -25.09609375 55.0630859375 -21.65 61.95 -17.548046875 70.136328125 -18.25 80 -18.903515625 89.9244140625 -15.25 93.25 -11.5888671875 96.5671875 -7.25 94.45 -2.870703125 92.3841796875 -2.9 81.5 -2.9287109375 70.6212890625 1.4 68.8 5.7794921875 67.0318359375 7.3 73.05 8.81796875 79.0556640625 11.3 81.35 13.7763671875 83.654296875 16.95 81.65 20.1720703125 79.6912109375 19.8 71.5 19.4359375 63.3619140625 22.7 56.4 25.74921875 49.99140625 26.05 44.5 Z"/>
</g>
</g>
</g>
</mask>

<g id="Layer_4" mask="url(#Mask_Mask_1)"/>

<g id="Layer_8" transform="matrix( 1.084442138671875, 0, 0, 1.084442138671875, 43.8,-2.2) "/>
</g>
</svg>
