
<svg xmlns="http://www.w3.org/2000/svg" version="1.1" xmlns:xlink="http://www.w3.org/1999/xlink" preserveAspectRatio="none" x="0px" y="0px" width="946px" height="702px" viewBox="0 0 946 702">
<defs>
<linearGradient id="Gradient_1" gradientUnits="userSpaceOnUse" x1="478.45" y1="437.7375" x2="478.45" y2="4.162499999999966" spreadMethod="pad">
<stop  offset="0%" stop-color="#1FD6FC"/>

<stop  offset="100%" stop-color="#0261E6"/>
</linearGradient>

<linearGradient id="Gradient_2" gradientUnits="userSpaceOnUse" x1="-340.75000000000006" y1="218.9" x2="1297.65" y2="218.9" spreadMethod="pad">
<stop  offset="0%" stop-color="#1FD6FC" stop-opacity="0.2"/>

<stop  offset="100%" stop-color="#0261E6" stop-opacity="0.2"/>
</linearGradient>

<linearGradient id="Gradient_3" gradientUnits="userSpaceOnUse" x1="475.1" y1="137.89999999999998" x2="475.1" y2="717.9" spreadMethod="pad">
<stop  offset="0%" stop-color="#FFE465"/>

<stop  offset="100%" stop-color="#E0BA00"/>
</linearGradient>
</defs>

<g id="Layer_5">
<g transform="matrix( 1, 0, 0, 1, -2,-2) ">
<g>
<g>
<path fill="url(#Gradient_1)" stroke="none" d="
M 940.95 9.7
L 940.9 9.65
Q 933.4025390625 1.991796875 922.8 2
L 27.45 2
Q 16.8021484375 1.99296875 9.35 9.65
L 9.4 9.65
Q 2.00703125 17.2576171875 2 27.95
L 2 28.75 14 28.75 14 28.65 14 27.95
Q 13.992578125 22.1423828125 18 18
L 18 18
Q 21.8974609375 14.00703125 27.45 14
L 922.8 14
Q 928.3623046875 14.008203125 932.3 18 932.3494140625 18.0255859375 932.35 18.05 936.269921875 22.1615234375 936.25 27.95
L 936.25 28.95 948.25 28.95 948.25 27.95
Q 948.2298828125 17.274609375 940.95 9.7 Z"/>

<path fill="url(#Gradient_2)" stroke="none" d="
M 936.25 28.95
L 936.25 28.95 936.25 27.95
Q 936.269921875 22.1615234375 932.35 18.05 932.3494140625 18.0255859375 932.3 18 928.3623046875 14.008203125 922.8 14
L 27.45 14
Q 21.8974609375 14.00703125 18 18
L 18 18
Q 13.992578125 22.1423828125 14 27.95
L 14 28.65 936.25 28.95 Z"/>
</g>
</g>
</g>

<g transform="matrix( 1, 0, 0, 1, -2,-2) ">
<g>
<g>
<path fill="url(#Gradient_3)" stroke="none" d="
M 932.5 18.1
Q 936.4 22.15 936.4 27.95
L 936.4 28.95 942.2 28.95 942.2 27.95
Q 942.2 19.7 936.6 13.85 930.85 8 922.75 8
L 27.4 8
Q 19.3 8 13.65 13.85 7.95 19.7 7.95 27.95
L 7.95 28.75 13.75 28.75 13.75 27.95
Q 13.75 22.15 17.7 18.1
L 17.75 18.05
Q 21.7 13.95 27.4 13.95
L 922.75 13.95
Q 928.45 13.95 932.5 18.1 Z"/>
</g>
</g>
</g>
</g>
</svg>
