
<svg xmlns="http://www.w3.org/2000/svg" version="1.1" xmlns:xlink="http://www.w3.org/1999/xlink" preserveAspectRatio="none" x="0px" y="0px" width="67px" height="17px" viewBox="0 0 67 17">
<defs/>

<g id="Layer_1"/>

<g id="Layer_2">
<g id="Layer_2" transform="matrix( 1, 0, 0, 1, 33.9,8.5) ">
<g>
<g>
<g>
<path fill="#FFFFFF" stroke="none" d="
M 19.75 -2.5
Q 18.2 -2.5 17.15 -1.3
L 17.15 -2.35 15.25 -2.35 15.25 4.7 17.3 4.7 17.3 1.5
Q 17.3 0.3 17.5 -0.1 17.65 -0.55 18.05 -0.85 18.5 -1.1 19 -1.1 19.45 -1.1 19.75 -0.9 20.05 -0.7 20.15 -0.4 20.3 -0.05 20.3 1.1
L 20.3 4.7 22.35 4.7 22.35 0.3
Q 22.35 -0.5 22.25 -0.95 22.1 -1.4 21.85 -1.75 21.55 -2.1 21 -2.3 20.4 -2.5 19.75 -2.5
M 11.1 -3.3
L 13.15 -3.3 13.15 -5.05 11.1 -5.05 11.1 -3.3
M 13.15 -2.35
L 11.1 -2.35 11.1 4.7 13.15 4.7 13.15 -2.35
M 0.4 -0.85
Q 0.75 -1.1 1.25 -1.1 1.65 -1.1 1.9 -0.95 2.1 -0.8 2.2 -0.5 2.35 -0.2 2.35 0.85
L 2.35 4.7 4.4 4.7 4.4 1.3
Q 4.4 0.3 4.55 -0.15 4.7 -0.6 5.1 -0.85 5.5 -1.1 5.9 -1.1 6.5 -1.1 6.8 -0.7 7 -0.4 7 0.65
L 7 4.7 9.05 4.7 9.05 0.2
Q 9.05 -0.85 8.85 -1.3 8.55 -1.9 7.95 -2.2 7.35 -2.5 6.5 -2.5 5.85 -2.5 5.25 -2.25 4.65 -1.95 4.15 -1.4 3.8 -1.95 3.25 -2.25 2.7 -2.5 1.95 -2.5 0.55 -2.5 -0.5 -1.4
L -0.5 -2.35 -2.4 -2.35 -2.4 4.7 -0.3 4.7 -0.3 1.25
Q -0.3 0.25 -0.15 -0.2 0 -0.65 0.4 -0.85
M -4.3 -5.05
L -6.35 -5.05 -6.35 -1.55
Q -7.3 -2.5 -8.6 -2.5 -10 -2.5 -10.95 -1.6 -11.9 -0.65 -11.9 1.15 -11.9 2.9 -10.95 3.9 -9.95 4.85 -8.65 4.85 -7.95 4.85 -7.3 4.55 -6.7 4.25 -6.2 3.65
L -6.2 4.7 -4.3 4.7 -4.3 -5.05
M -9.3 -0.55
Q -8.8 -1.1 -8.05 -1.1 -7.3 -1.1 -6.8 -0.55 -6.35 0 -6.35 1.2 -6.35 2.3 -6.85 2.85 -7.35 3.4 -8.05 3.4 -8.95 3.4 -9.45 2.65 -9.8 2.15 -9.8 1 -9.8 -0.05 -9.3 -0.55
M -16.85 -5.05
L -19.1 -5.05 -23.3 4.7 -21 4.7 -20.1 2.5 -15.8 2.5 -14.9 4.7 -12.55 4.7 -16.85 -5.05
M -16.5 0.85
L -19.45 0.85 -18 -2.75 -16.5 0.85 Z"/>
</g>
</g>
</g>
</g>
</g>
</svg>
