
<svg xmlns="http://www.w3.org/2000/svg" version="1.1" xmlns:xlink="http://www.w3.org/1999/xlink" preserveAspectRatio="none" x="0px" y="0px" width="950px" height="706px" viewBox="0 0 950 706">
<defs>
<linearGradient id="Gradient_1" gradientUnits="userSpaceOnUse" x1="0" y1="-81" x2="0" y2="499" spreadMethod="pad">
<stop  offset="0%" stop-color="#FFE465"/>

<stop  offset="100%" stop-color="#E0BA00"/>
</linearGradient>

<linearGradient id="Gradient_2" gradientUnits="userSpaceOnUse" x1="-815.9000000000001" y1="0" x2="822.5" y2="0" spreadMethod="pad">
<stop  offset="0%" stop-color="#1FD6FC" stop-opacity="0.2"/>

<stop  offset="100%" stop-color="#0261E6" stop-opacity="0.2"/>
</linearGradient>

<linearGradient id="Gradient_3" gradientUnits="userSpaceOnUse" x1="3.3" y1="218.83750000000003" x2="3.3" y2="-214.7375" spreadMethod="pad">
<stop  offset="0%" stop-color="#1FD6FC"/>

<stop  offset="100%" stop-color="#0261E6"/>
</linearGradient>

<linearGradient id="Gradient_4" gradientUnits="userSpaceOnUse" x1="-3.3" y1="-81" x2="-3.3" y2="499" spreadMethod="pad">
<stop  offset="0%" stop-color="#FFE465"/>

<stop  offset="100%" stop-color="#E0BA00"/>
</linearGradient>
</defs>

<g id="Layer_1">
<g transform="matrix( 1, 0, 0, 1, 475.15,218.9) ">
<g>
<g>
<path fill="url(#Gradient_1)" stroke="none" d="
M 461.5 -205.05
Q 455.75 -210.9 447.65 -210.9
L -447.7 -210.9
Q -455.8 -210.9 -461.45 -205.05 -467.15 -199.2 -467.15 -190.95
L -467.15 459.45
Q -467.15 467.7 -461.45 473.6 -455.8 479.4 -447.7 479.4
L 447.65 479.4
Q 455.75 479.4 461.45 473.6
L 461.5 473.55
Q 467.1 467.7 467.1 459.45
L 467.1 -190.95
Q 467.1 -199.2 461.5 -205.05
M 447.65 -204.95
Q 453.35 -204.95 457.4 -200.8 461.3 -196.75 461.3 -190.95
L 461.3 459.45
Q 461.3 465.25 457.4 469.4 453.35 473.4 447.65 473.4
L -447.7 473.4
Q -453.4 473.4 -457.35 469.4 -461.35 465.25 -461.35 459.45
L -461.35 -190.95
Q -461.35 -196.75 -457.4 -200.8
L -457.35 -200.85
Q -453.4 -204.95 -447.7 -204.95
L 447.65 -204.95 Z"/>

<path fill="url(#Gradient_2)" stroke="none" d="
M 457.4 -200.8
Q 453.35 -204.95 447.65 -204.95
L -447.7 -204.95
Q -453.4 -204.95 -457.35 -200.85
L -457.4 -200.8
Q -461.35 -196.75 -461.35 -190.95
L -461.35 459.45
Q -461.35 465.25 -457.35 469.4 -453.4 473.4 -447.7 473.4
L 447.65 473.4
Q 453.35 473.4 457.4 469.4 461.3 465.25 461.3 459.45
L 461.3 -190.95
Q 461.3 -196.75 457.4 -200.8 Z"/>
</g>
</g>

<g>
<path stroke="url(#Gradient_3)" stroke-width="12" stroke-linejoin="miter" stroke-linecap="square" stroke-miterlimit="3" fill="none" d="
M -447.7 -210.9
Q -455.8 -210.9 -461.45 -205.05 -467.15 -199.2 -467.15 -190.95
L -467.15 459.45
Q -467.15 467.7 -461.45 473.6 -455.8 479.4 -447.7 479.4
L 447.65 479.4
Q 455.75 479.4 461.45 473.6
L 461.5 473.55
Q 467.1 467.7 467.1 459.45
L 467.1 -190.95
Q 467.1 -199.2 461.5 -205.05 455.75 -210.9 447.65 -210.9
L -447.7 -210.9 Z"/>
</g>
</g>

<g transform="matrix( 1, 0, 0, 1, 478.45,218.9) ">
<g>
<g>
<path fill="url(#Gradient_4)" stroke="none" d="
M -451 -210.9
Q -459.1 -210.9 -464.75 -205.05 -470.45 -199.2 -470.45 -190.95
L -470.45 459.45
Q -470.45 467.7 -464.75 473.6 -459.1 479.4 -451 479.4
L 444.35 479.4
Q 452.45 479.4 458.15 473.6
L 458.2 473.55
Q 463.8 467.7 463.8 459.45
L 463.8 -190.95
Q 463.8 -199.2 458.2 -205.05 452.45 -210.9 444.35 -210.9
L -451 -210.9
M -460.65 -200.85
Q -456.7 -204.95 -451 -204.95
L 444.35 -204.95
Q 450.05 -204.95 454.1 -200.8 458 -196.75 458 -190.95
L 458 459.45
Q 458 465.25 454.1 469.4 450.05 473.4 444.35 473.4
L -451 473.4
Q -456.7 473.4 -460.65 469.4 -464.65 465.25 -464.65 459.45
L -464.65 -190.95
Q -464.65 -196.75 -460.7 -200.8
L -460.65 -200.85 Z"/>
</g>
</g>
</g>
</g>
</svg>
