
<svg xmlns="http://www.w3.org/2000/svg" version="1.1" xmlns:xlink="http://www.w3.org/1999/xlink" preserveAspectRatio="none" x="0px" y="0px" width="84px" height="17px" viewBox="0 0 84 17">
<defs>
<linearGradient id="Gradient_1" gradientUnits="userSpaceOnUse" x1="0" y1="-6.700000000000001" x2="0" y2="8.4" spreadMethod="pad">
<stop  offset="0%" stop-color="#FFE465"/>

<stop  offset="100%" stop-color="#E0BA00"/>
</linearGradient>
</defs>

<g id="Layer_1"/>

<g id="Layer_2">
<g id="Layer_1" transform="matrix( 1, 0, 0, 1, 42.45,8.5) ">
<g>
<g>
<g>
<path fill="url(#Gradient_1)" stroke="none" d="
M 42.5 -8.5
L -42.45 -8.5 -42.45 8.55 42.5 8.55 42.5 -8.5
M 1.05 -2.5
Q 1.9 -2.5 2.5 -2.2 3.1 -1.9 3.4 -1.3 3.6 -0.85 3.6 0.2
L 3.6 4.7 1.55 4.7 1.55 0.65
Q 1.55 -0.4 1.35 -0.7 1.05 -1.1 0.45 -1.1 0.05 -1.1 -0.35 -0.85 -0.75 -0.6 -0.9 -0.15 -1.05 0.3 -1.05 1.3
L -1.05 4.7 -3.1 4.7 -3.1 0.85
Q -3.1 -0.2 -3.25 -0.5 -3.35 -0.8 -3.55 -0.95 -3.8 -1.1 -4.2 -1.1 -4.7 -1.1 -5.05 -0.85 -5.45 -0.65 -5.6 -0.2 -5.75 0.25 -5.75 1.25
L -5.75 4.7 -7.85 4.7 -7.85 -2.35 -5.95 -2.35 -5.95 -1.4
Q -4.9 -2.5 -3.5 -2.5 -2.75 -2.5 -2.2 -2.25 -1.65 -1.95 -1.3 -1.4 -0.8 -1.95 -0.2 -2.25 0.4 -2.5 1.05 -2.5
M 8.55 -1.1
Q 8 -1.1 7.7 -0.9 7.4 -0.7 7.2 -0.2
L 5.35 -0.5
Q 5.65 -1.55 6.45 -2.05 7.2 -2.5 8.7 -2.5 10.1 -2.5 10.75 -2.2 11.45 -1.95 11.7 -1.45 12 -1 12 0.2
L 11.95 2.4
Q 11.95 3.3 12.05 3.75 12.15 4.2 12.45 4.7
L 10.4 4.7
Q 10.3 4.5 10.2 4.15 10.15 4 10.15 3.95 9.6 4.4 9 4.65 8.4 4.85 7.7 4.85 6.5 4.85 5.85 4.25 5.15 3.7 5.15 2.75 5.15 2.15 5.45 1.7 5.75 1.25 6.35 1 6.9 0.75 7.95 0.55 9.4 0.3 9.95 0.1
L 9.95 -0.1
Q 9.95 -0.65 9.7 -0.85 9.4 -1.1 8.55 -1.1
M 14.1 -0.85
L 13.2 -0.85 13.2 -2.35 14.1 -2.35 14.1 -3.75 16.2 -4.85 16.2 -2.35 17.6 -2.35 17.6 -0.85 16.2 -0.85 16.2 1.95
Q 16.2 2.85 16.25 3 16.25 3.1 16.4 3.2 16.55 3.3 16.75 3.3 17.05 3.3 17.6 3.15
L 17.75 4.6
Q 17.05 4.85 16.15 4.85 15.6 4.85 15.15 4.7 14.7 4.5 14.5 4.25 14.25 4 14.2 3.5 14.1 3.2 14.1 2.2
L 14.1 -0.85
M 20.5 -2.05
Q 21.4 -2.5 22.55 -2.5 24.3 -2.5 25.45 -1.5 26.6 -0.45 26.6 1.15 26.6 2.75 25.45 3.8 24.3 4.85 22.55 4.85 21.5 4.85 20.55 4.4 19.55 4 19.05 3.15 18.55 2.3 18.55 1.05 18.55 0.15 19.05 -0.75 19.55 -1.6 20.5 -2.05
M 28.1 -2.35
L 30 -2.35 30 -1.35
Q 30.5 -2.05 30.9 -2.3 31.25 -2.5 31.75 -2.5 32.5 -2.5 33.15 -2.15
L 32.5 -0.55
Q 31.95 -0.85 31.5 -0.85 31.1 -0.85 30.8 -0.65 30.5 -0.4 30.3 0.15 30.15 0.7 30.15 2.5
L 30.15 4.7 28.1 4.7 28.1 -2.35
M -28.7 -5.05
L -26.45 -5.05 -22.15 4.7 -24.5 4.7 -25.4 2.5 -29.7 2.5 -30.6 4.7 -32.9 4.7 -28.7 -5.05
M -16.1 -0.4
Q -16.2 -0.7 -16.5 -0.9 -16.8 -1.1 -17.25 -1.1 -17.75 -1.1 -18.2 -0.85 -18.6 -0.55 -18.75 -0.1 -18.95 0.3 -18.95 1.5
L -18.95 4.7 -21 4.7 -21 -2.35 -19.1 -2.35 -19.1 -1.3
Q -18.05 -2.5 -16.5 -2.5 -15.85 -2.5 -15.25 -2.3 -14.7 -2.1 -14.4 -1.75 -14.15 -1.4 -14 -0.95 -13.9 -0.5 -13.9 0.3
L -13.9 4.7 -15.95 4.7 -15.95 1.1
Q -15.95 -0.05 -16.1 -0.4
M -11.8 -3.3
L -11.8 -5.05 -9.75 -5.05 -9.75 -3.3 -11.8 -3.3
M -11.8 -2.35
L -9.75 -2.35 -9.75 4.7 -11.8 4.7 -11.8 -2.35
M -29.05 0.85
L -26.1 0.85 -27.6 -2.75 -29.05 0.85
M 23.9 -0.45
Q 23.35 -1 22.55 -1 21.75 -1 21.2 -0.45 20.65 0.1 20.65 1.15 20.65 2.2 21.2 2.8 21.75 3.35 22.55 3.35 23.35 3.35 23.9 2.8 24.45 2.2 24.45 1.15 24.45 0.1 23.9 -0.45
M 8.7 1.6
Q 7.85 1.75 7.6 1.9 7.2 2.2 7.2 2.6 7.2 2.95 7.5 3.25 7.85 3.55 8.35 3.55 8.9 3.55 9.4 3.2 9.75 2.95 9.9 2.6 9.95 2.35 9.95 1.7
L 9.95 1.3
Q 9.55 1.45 8.7 1.6 Z"/>

<path fill="#FFFFFF" stroke="none" d="
M -9.75 -2.35
L -11.8 -2.35 -11.8 4.7 -9.75 4.7 -9.75 -2.35
M -11.8 -5.05
L -11.8 -3.3 -9.75 -3.3 -9.75 -5.05 -11.8 -5.05
M -16.5 -0.9
Q -16.2 -0.7 -16.1 -0.4 -15.95 -0.05 -15.95 1.1
L -15.95 4.7 -13.9 4.7 -13.9 0.3
Q -13.9 -0.5 -14 -0.95 -14.15 -1.4 -14.4 -1.75 -14.7 -2.1 -15.25 -2.3 -15.85 -2.5 -16.5 -2.5 -18.05 -2.5 -19.1 -1.3
L -19.1 -2.35 -21 -2.35 -21 4.7 -18.95 4.7 -18.95 1.5
Q -18.95 0.3 -18.75 -0.1 -18.6 -0.55 -18.2 -0.85 -17.75 -1.1 -17.25 -1.1 -16.8 -1.1 -16.5 -0.9
M -26.45 -5.05
L -28.7 -5.05 -32.9 4.7 -30.6 4.7 -29.7 2.5 -25.4 2.5 -24.5 4.7 -22.15 4.7 -26.45 -5.05
M -26.1 0.85
L -29.05 0.85 -27.6 -2.75 -26.1 0.85
M 30 -2.35
L 28.1 -2.35 28.1 4.7 30.15 4.7 30.15 2.5
Q 30.15 0.7 30.3 0.15 30.5 -0.4 30.8 -0.65 31.1 -0.85 31.5 -0.85 31.95 -0.85 32.5 -0.55
L 33.15 -2.15
Q 32.5 -2.5 31.75 -2.5 31.25 -2.5 30.9 -2.3 30.5 -2.05 30 -1.35
L 30 -2.35
M 22.55 -2.5
Q 21.4 -2.5 20.5 -2.05 19.55 -1.6 19.05 -0.75 18.55 0.15 18.55 1.05 18.55 2.3 19.05 3.15 19.55 4 20.55 4.4 21.5 4.85 22.55 4.85 24.3 4.85 25.45 3.8 26.6 2.75 26.6 1.15 26.6 -0.45 25.45 -1.5 24.3 -2.5 22.55 -2.5
M 22.55 -1
Q 23.35 -1 23.9 -0.45 24.45 0.1 24.45 1.15 24.45 2.2 23.9 2.8 23.35 3.35 22.55 3.35 21.75 3.35 21.2 2.8 20.65 2.2 20.65 1.15 20.65 0.1 21.2 -0.45 21.75 -1 22.55 -1
M 13.2 -0.85
L 14.1 -0.85 14.1 2.2
Q 14.1 3.2 14.2 3.5 14.25 4 14.5 4.25 14.7 4.5 15.15 4.7 15.6 4.85 16.15 4.85 17.05 4.85 17.75 4.6
L 17.6 3.15
Q 17.05 3.3 16.75 3.3 16.55 3.3 16.4 3.2 16.25 3.1 16.25 3 16.2 2.85 16.2 1.95
L 16.2 -0.85 17.6 -0.85 17.6 -2.35 16.2 -2.35 16.2 -4.85 14.1 -3.75 14.1 -2.35 13.2 -2.35 13.2 -0.85
M 7.7 -0.9
Q 8 -1.1 8.55 -1.1 9.4 -1.1 9.7 -0.85 9.95 -0.65 9.95 -0.1
L 9.95 0.1
Q 9.4 0.3 7.95 0.55 6.9 0.75 6.35 1 5.75 1.25 5.45 1.7 5.15 2.15 5.15 2.75 5.15 3.7 5.85 4.25 6.5 4.85 7.7 4.85 8.4 4.85 9 4.65 9.6 4.4 10.15 3.95 10.15 4 10.2 4.15 10.3 4.5 10.4 4.7
L 12.45 4.7
Q 12.15 4.2 12.05 3.75 11.95 3.3 11.95 2.4
L 12 0.2
Q 12 -1 11.7 -1.45 11.45 -1.95 10.75 -2.2 10.1 -2.5 8.7 -2.5 7.2 -2.5 6.45 -2.05 5.65 -1.55 5.35 -0.5
L 7.2 -0.2
Q 7.4 -0.7 7.7 -0.9
M 7.6 1.9
Q 7.85 1.75 8.7 1.6 9.55 1.45 9.95 1.3
L 9.95 1.7
Q 9.95 2.35 9.9 2.6 9.75 2.95 9.4 3.2 8.9 3.55 8.35 3.55 7.85 3.55 7.5 3.25 7.2 2.95 7.2 2.6 7.2 2.2 7.6 1.9
M 2.5 -2.2
Q 1.9 -2.5 1.05 -2.5 0.4 -2.5 -0.2 -2.25 -0.8 -1.95 -1.3 -1.4 -1.65 -1.95 -2.2 -2.25 -2.75 -2.5 -3.5 -2.5 -4.9 -2.5 -5.95 -1.4
L -5.95 -2.35 -7.85 -2.35 -7.85 4.7 -5.75 4.7 -5.75 1.25
Q -5.75 0.25 -5.6 -0.2 -5.45 -0.65 -5.05 -0.85 -4.7 -1.1 -4.2 -1.1 -3.8 -1.1 -3.55 -0.95 -3.35 -0.8 -3.25 -0.5 -3.1 -0.2 -3.1 0.85
L -3.1 4.7 -1.05 4.7 -1.05 1.3
Q -1.05 0.3 -0.9 -0.15 -0.75 -0.6 -0.35 -0.85 0.05 -1.1 0.45 -1.1 1.05 -1.1 1.35 -0.7 1.55 -0.4 1.55 0.65
L 1.55 4.7 3.6 4.7 3.6 0.2
Q 3.6 -0.85 3.4 -1.3 3.1 -1.9 2.5 -2.2 Z"/>
</g>
</g>
</g>
</g>
</g>
</svg>
