
<svg xmlns="http://www.w3.org/2000/svg" version="1.1" xmlns:xlink="http://www.w3.org/1999/xlink" preserveAspectRatio="none" x="0px" y="0px" width="176px" height="55px" viewBox="0 0 176 55">
<defs>
<linearGradient id="Gradient_1" gradientUnits="userSpaceOnUse" x1="-4" y1="-9.475000000000001" x2="-4" y2="14.975000000000001" spreadMethod="pad">
<stop  offset="0%" stop-color="#1FD6FC"/>

<stop  offset="100%" stop-color="#0261E6"/>
</linearGradient>
</defs>

<g id="Layer_1">
<g id="Layer_1" transform="matrix( 1.6351165771484375, 0, 0, 1.6351165771484375, 88.4,27.55) ">
<g transform="matrix( 1, 0, 0, 1, 4,0) ">
<g>
<g>
<path fill="url(#Gradient_1)" stroke="none" d="
M 45.8 -12.6
Q 44.05 -14.35 41.55 -14.35
L -49.55 -14.35
Q -52.05 -14.35 -53.8 -12.6 -55.55 -10.85 -55.55 -8.35
L -55.55 8.35
Q -55.55 10.85 -53.8 12.6 -52.05 14.35 -49.55 14.35
L 41.55 14.35
Q 44.05 14.35 45.8 12.6 47.55 10.85 47.55 8.35
L 47.55 -8.35
Q 47.55 -10.85 45.8 -12.6 Z"/>
</g>
</g>

<g>
<path stroke="#FFFFFF" stroke-width="5" stroke-linejoin="round" stroke-linecap="round" fill="none" d="
M 41.55 -14.35
L -49.55 -14.35
Q -52.05 -14.35 -53.8 -12.6 -55.55 -10.85 -55.55 -8.35
L -55.55 8.35
Q -55.55 10.85 -53.8 12.6 -52.05 14.35 -49.55 14.35
L 41.55 14.35
Q 44.05 14.35 45.8 12.6 47.55 10.85 47.55 8.35
L 47.55 -8.35
Q 47.55 -10.85 45.8 -12.6 44.05 -14.35 41.55 -14.35 Z"/>
</g>
</g>
</g>

<g id="Layer_3" transform="matrix( 1.6351165771484375, 0, 0, 1.6351165771484375, 88.4,27.55) ">
<g transform="matrix( 1, 0, 0, 1, 4,0) ">
<g>
<g>
<path fill="url(#Gradient_1)" stroke="none" d="
M 45.8 -12.6
Q 44.05 -14.35 41.55 -14.35
L -49.55 -14.35
Q -52.05 -14.35 -53.8 -12.6 -55.55 -10.85 -55.55 -8.35
L -55.55 8.35
Q -55.55 10.85 -53.8 12.6 -52.05 14.35 -49.55 14.35
L 41.55 14.35
Q 44.05 14.35 45.8 12.6 47.55 10.85 47.55 8.35
L 47.55 -8.35
Q 47.55 -10.85 45.8 -12.6 Z"/>
</g>
</g>
</g>
</g>

<g id="Layer_5" transform="matrix( 1.6351165771484375, 0, 0, 1.6351165771484375, 88.4,27.55) "/>

<g id="Layer_2" transform="matrix( 1.6351165771484375, 0, 0, 1.6351165771484375, 88.4,27.55) "/>

<g id="Layer_4" transform="matrix( 1.6351165771484375, 0, 0, 1.6351165771484375, 88.4,27.55) ">
<g transform="matrix( 1, 0, 0, 1, 0.1,0) ">
<g>
<g>
<path fill="#FFFFFF" stroke="none" d="
M 41.1 -0.45
L 36.7 -4.85 36.7 3.95 41.1 -0.45
M -18.75 -0.45
Q -19.15 -1.5 -19.5 -2.55 -19.9 -3.65 -20.2 -4.7
L -22.95 -4.7 -26.75 3.25 -24.5 4.2 -23.5 2.2 -20.5 2.2 -19.8 4.35 -17.3 3.75
Q -17.65 2.7 -18 1.65 -18.35 0.6 -18.75 -0.45
M -20.85 0.05
L -22.7 0.05 -21.65 -2.25 -20.85 0.05
M -15.45 -4.6
Q -15.95 -4.55 -16.4 -4.35
L -16.75 4.1
Q -16.25 4.15 -15.8 4.2 -15.35 4.2 -14.95 4.2 -12.15 4.2 -10.75 3.2 -9.3 2.15 -9.3 0.05 -9.3 -1.05 -9.75 -1.95 -10.2 -2.8 -10.9 -3.45 -11.65 -4.05 -12.55 -4.4 -13.5 -4.7 -14.45 -4.7 -14.95 -4.7 -15.45 -4.6
M -14 -2.05
Q -13.05 -2.05 -12.45 -1.55 -11.85 -1.1 -11.85 -0.25 -11.85 0.25 -12.05 0.65 -12.2 1.05 -12.55 1.3 -12.85 1.55 -13.2 1.7 -13.6 1.8 -14 1.8 -14.1 1.8 -14.2 1.8 -14.25 1.8 -14.35 1.8
L -14.15 -2.05 -14 -2.05
M -31.5 -1.4
L -31.6 -2.35 -27.55 -2.45 -27.7 -4.8 -34.1 -4.5 -33.55 4.1 -27.15 4.1 -27.15 1.6 -31.3 1.85 -31.35 0.8 -28.05 0.6 -28.2 -1.65 -31.5 -1.4
M -36.15 -4.15
Q -36.55 -4.4 -37 -4.6 -37.45 -4.75 -37.85 -4.8 -38.3 -4.85 -38.65 -4.9 -38.85 -4.9 -39.15 -4.85 -39.45 -4.85 -39.75 -4.8 -40.1 -4.75 -40.5 -4.65 -40.85 -4.55 -41.2 -4.4
L -41.35 4 -38.8 4 -38.8 1.75 -38.7 1.75
Q -38.55 2.4 -38.2 3 -37.8 3.55 -37.3 4 -36.8 4.4 -36.15 4.65 -35.55 4.9 -34.9 4.9 -34.8 4.9 -34.75 4.9 -34.7 4.9 -34.6 4.9
L -34.6 2.45 -34.7 2.45
Q -35.25 2.45 -35.65 2.1 -36.05 1.75 -36.25 1.3 -35.9 1.1 -35.6 0.85 -35.3 0.55 -35.05 0.2 -34.85 -0.15 -34.7 -0.55 -34.6 -0.95 -34.6 -1.35
L -34.6 -1.5
Q -34.6 -2.15 -34.85 -2.7 -35.05 -3.2 -35.4 -3.55 -35.7 -3.95 -36.15 -4.15
M -38.8 -0.65
L -38.7 -2.55
Q -38.6 -2.6 -38.45 -2.6 -38.35 -2.6 -38.2 -2.6 -37.75 -2.6 -37.45 -2.35 -37.1 -2.1 -37.1 -1.6 -37.1 -1.35 -37.2 -1.15 -37.3 -0.95 -37.45 -0.8 -37.65 -0.7 -37.85 -0.65 -38.1 -0.6 -38.3 -0.6 -38.6 -0.6 -38.8 -0.65
M 27.85 -4.8
L 21.45 -4.5 22 4.1 28.4 4.1 28.4 1.6 24.25 1.85 24.2 0.8 27.5 0.6 27.35 -1.65 24.05 -1.4 23.95 -2.35 28 -2.45 27.85 -4.8
M 15.05 -4.65
Q 14.7 -4.55 14.35 -4.4
L 14.2 4 16.75 4 16.75 1.75 16.85 1.75
Q 17 2.4 17.35 3 17.75 3.55 18.25 4 18.75 4.4 19.4 4.65 20 4.9 20.65 4.9 20.75 4.9 20.8 4.9 20.85 4.9 20.95 4.9
L 20.95 2.45 20.85 2.45
Q 20.3 2.45 19.9 2.1 19.5 1.75 19.3 1.3 19.65 1.1 19.95 0.85 20.25 0.55 20.5 0.2 20.7 -0.15 20.85 -0.55 20.95 -0.95 20.95 -1.35
L 20.95 -1.5
Q 20.95 -2.15 20.7 -2.7 20.5 -3.2 20.15 -3.55 19.85 -3.95 19.4 -4.15 19 -4.4 18.55 -4.6 18.1 -4.75 17.7 -4.8 17.25 -4.85 16.9 -4.9 16.7 -4.9 16.4 -4.85 16.1 -4.85 15.8 -4.8 15.45 -4.75 15.05 -4.65
M 16.85 -2.55
Q 16.95 -2.6 17.1 -2.6 17.2 -2.6 17.35 -2.6 17.8 -2.6 18.1 -2.35 18.45 -2.1 18.45 -1.6 18.45 -1.35 18.35 -1.15 18.25 -0.95 18.1 -0.8 17.9 -0.7 17.7 -0.65 17.45 -0.6 17.25 -0.6 16.95 -0.6 16.75 -0.65
L 16.85 -2.55
M 4.8 -2.05
Q 4.4 -1.2 4.4 -0.3 4.4 0.65 4.8 1.45 5.2 2.25 5.8 2.85 6.45 3.45 7.3 3.8 8.1 4.15 9 4.15 9.9 4.15 10.75 3.8 11.6 3.45 12.25 2.85 12.9 2.25 13.3 1.45 13.65 0.6 13.65 -0.35 13.65 -1.25 13.3 -2.05 12.9 -2.85 12.25 -3.45 11.65 -4.05 10.8 -4.4 9.95 -4.75 9.05 -4.75 8.15 -4.75 7.3 -4.4 6.45 -4.05 5.8 -3.45 5.2 -2.85 4.8 -2.05
M 8.95 -2.2
Q 9.3 -2.2 9.65 -2.05 10 -1.9 10.3 -1.6 10.55 -1.35 10.7 -1 10.85 -0.65 10.85 -0.3 10.85 0.05 10.7 0.4 10.55 0.75 10.25 1 10 1.25 9.65 1.4 9.35 1.55 9 1.55 8.6 1.55 8.25 1.4 7.9 1.25 7.65 1 7.35 0.75 7.2 0.45 7 0.1 7 -0.25 7 -0.65 7.15 -1 7.3 -1.35 7.6 -1.6 7.85 -1.85 8.2 -2 8.55 -2.2 8.95 -2.2
M 3.9 -4.5
L 0.7 -4.55 -0.45 -0.05 -2.05 -4.55 -5.35 -4.75 -5.35 4 -2.85 4 -2.85 -0.4 -1.45 4.1 0.6 4.1 2 -0.8 2 4.05 4.55 4.05 3.9 -4.5 Z"/>
</g>
</g>

<g>
<path stroke="#FFFFFF" stroke-width="3" stroke-linejoin="round" stroke-linecap="round" fill="none" d="
M 36.7 -4.85
L 36.7 3.95 41.1 -0.45 36.7 -4.85 Z"/>
</g>
</g>
</g>
</g>
</svg>
