
<svg xmlns="http://www.w3.org/2000/svg" version="1.1" xmlns:xlink="http://www.w3.org/1999/xlink" preserveAspectRatio="none" x="0px" y="0px" width="67px" height="17px" viewBox="0 0 67 17">
<defs>
<linearGradient id="Gradient_1" gradientUnits="userSpaceOnUse" x1="0" y1="-6.700000000000001" x2="0" y2="8.4" spreadMethod="pad">
<stop  offset="0%" stop-color="#FFE465"/>

<stop  offset="100%" stop-color="#E0BA00"/>
</linearGradient>
</defs>

<g id="Layer_1"/>

<g id="Layer_2">
<g id="Layer_1" transform="matrix( 1, 0, 0, 1, 33.9,8.5) ">
<g>
<g>
<g>
<path fill="url(#Gradient_1)" stroke="none" d="
M 33.95 -8.5
L -33.9 -8.5 -33.9 8.55 33.95 8.55 33.95 -8.5
M 1.25 -1.1
Q 0.75 -1.1 0.4 -0.85 0 -0.65 -0.15 -0.2 -0.3 0.25 -0.3 1.25
L -0.3 4.7 -2.4 4.7 -2.4 -2.35 -0.5 -2.35 -0.5 -1.4
Q 0.55 -2.5 1.95 -2.5 2.7 -2.5 3.25 -2.25 3.8 -1.95 4.15 -1.4 4.65 -1.95 5.25 -2.25 5.85 -2.5 6.5 -2.5 7.35 -2.5 7.95 -2.2 8.55 -1.9 8.85 -1.3 9.05 -0.85 9.05 0.2
L 9.05 4.7 7 4.7 7 0.65
Q 7 -0.4 6.8 -0.7 6.5 -1.1 5.9 -1.1 5.5 -1.1 5.1 -0.85 4.7 -0.6 4.55 -0.15 4.4 0.3 4.4 1.3
L 4.4 4.7 2.35 4.7 2.35 0.85
Q 2.35 -0.2 2.2 -0.5 2.1 -0.8 1.9 -0.95 1.65 -1.1 1.25 -1.1
M 11.1 -3.3
L 11.1 -5.05 13.15 -5.05 13.15 -3.3 11.1 -3.3
M 11.1 -2.35
L 13.15 -2.35 13.15 4.7 11.1 4.7 11.1 -2.35
M 18.05 -0.85
Q 17.65 -0.55 17.5 -0.1 17.3 0.3 17.3 1.5
L 17.3 4.7 15.25 4.7 15.25 -2.35 17.15 -2.35 17.15 -1.3
Q 18.2 -2.5 19.75 -2.5 20.4 -2.5 21 -2.3 21.55 -2.1 21.85 -1.75 22.1 -1.4 22.25 -0.95 22.35 -0.5 22.35 0.3
L 22.35 4.7 20.3 4.7 20.3 1.1
Q 20.3 -0.05 20.15 -0.4 20.05 -0.7 19.75 -0.9 19.45 -1.1 19 -1.1 18.5 -1.1 18.05 -0.85
M -19.1 -5.05
L -16.85 -5.05 -12.55 4.7 -14.9 4.7 -15.8 2.5 -20.1 2.5 -21 4.7 -23.3 4.7 -19.1 -5.05
M -8.6 -2.5
Q -7.3 -2.5 -6.35 -1.55
L -6.35 -5.05 -4.3 -5.05 -4.3 4.7 -6.2 4.7 -6.2 3.65
Q -6.7 4.25 -7.3 4.55 -7.95 4.85 -8.65 4.85 -9.95 4.85 -10.95 3.9 -11.9 2.9 -11.9 1.15 -11.9 -0.65 -10.95 -1.6 -10 -2.5 -8.6 -2.5
M -6.8 -0.55
Q -7.3 -1.1 -8.05 -1.1 -8.8 -1.1 -9.3 -0.55 -9.8 -0.05 -9.8 1 -9.8 2.15 -9.45 2.65 -8.95 3.4 -8.05 3.4 -7.35 3.4 -6.85 2.85 -6.35 2.3 -6.35 1.2 -6.35 0 -6.8 -0.55
M -19.45 0.85
L -16.5 0.85 -18 -2.75 -19.45 0.85 Z"/>

<path fill="#FFFFFF" stroke="none" d="
M -6.35 -1.55
Q -7.3 -2.5 -8.6 -2.5 -10 -2.5 -10.95 -1.6 -11.9 -0.65 -11.9 1.15 -11.9 2.9 -10.95 3.9 -9.95 4.85 -8.65 4.85 -7.95 4.85 -7.3 4.55 -6.7 4.25 -6.2 3.65
L -6.2 4.7 -4.3 4.7 -4.3 -5.05 -6.35 -5.05 -6.35 -1.55
M -8.05 -1.1
Q -7.3 -1.1 -6.8 -0.55 -6.35 0 -6.35 1.2 -6.35 2.3 -6.85 2.85 -7.35 3.4 -8.05 3.4 -8.95 3.4 -9.45 2.65 -9.8 2.15 -9.8 1 -9.8 -0.05 -9.3 -0.55 -8.8 -1.1 -8.05 -1.1
M -16.85 -5.05
L -19.1 -5.05 -23.3 4.7 -21 4.7 -20.1 2.5 -15.8 2.5 -14.9 4.7 -12.55 4.7 -16.85 -5.05
M -16.5 0.85
L -19.45 0.85 -18 -2.75 -16.5 0.85
M 17.5 -0.1
Q 17.65 -0.55 18.05 -0.85 18.5 -1.1 19 -1.1 19.45 -1.1 19.75 -0.9 20.05 -0.7 20.15 -0.4 20.3 -0.05 20.3 1.1
L 20.3 4.7 22.35 4.7 22.35 0.3
Q 22.35 -0.5 22.25 -0.95 22.1 -1.4 21.85 -1.75 21.55 -2.1 21 -2.3 20.4 -2.5 19.75 -2.5 18.2 -2.5 17.15 -1.3
L 17.15 -2.35 15.25 -2.35 15.25 4.7 17.3 4.7 17.3 1.5
Q 17.3 0.3 17.5 -0.1
M 13.15 -2.35
L 11.1 -2.35 11.1 4.7 13.15 4.7 13.15 -2.35
M 11.1 -5.05
L 11.1 -3.3 13.15 -3.3 13.15 -5.05 11.1 -5.05
M 0.4 -0.85
Q 0.75 -1.1 1.25 -1.1 1.65 -1.1 1.9 -0.95 2.1 -0.8 2.2 -0.5 2.35 -0.2 2.35 0.85
L 2.35 4.7 4.4 4.7 4.4 1.3
Q 4.4 0.3 4.55 -0.15 4.7 -0.6 5.1 -0.85 5.5 -1.1 5.9 -1.1 6.5 -1.1 6.8 -0.7 7 -0.4 7 0.65
L 7 4.7 9.05 4.7 9.05 0.2
Q 9.05 -0.85 8.85 -1.3 8.55 -1.9 7.95 -2.2 7.35 -2.5 6.5 -2.5 5.85 -2.5 5.25 -2.25 4.65 -1.95 4.15 -1.4 3.8 -1.95 3.25 -2.25 2.7 -2.5 1.95 -2.5 0.55 -2.5 -0.5 -1.4
L -0.5 -2.35 -2.4 -2.35 -2.4 4.7 -0.3 4.7 -0.3 1.25
Q -0.3 0.25 -0.15 -0.2 0 -0.65 0.4 -0.85 Z"/>
</g>
</g>
</g>
</g>
</g>
</svg>
