
<svg xmlns="http://www.w3.org/2000/svg" version="1.1" xmlns:xlink="http://www.w3.org/1999/xlink" preserveAspectRatio="none" x="0px" y="0px" width="121px" height="17px" viewBox="0 0 121 17">
<defs>
<linearGradient id="Gradient_1" gradientUnits="userSpaceOnUse" x1="0" y1="-6.700000000000001" x2="0" y2="8.4" spreadMethod="pad">
<stop  offset="0%" stop-color="#FFE465"/>

<stop  offset="100%" stop-color="#E0BA00"/>
</linearGradient>
</defs>

<g id="Layer_1"/>

<g id="Layer_2">
<g id="Layer_1" transform="matrix( 1, 0, 0, 1, 60.75,8.5) ">
<g>
<g>
<g>
<path fill="url(#Gradient_1)" stroke="none" d="
M 60.75 -8.5
L -60.75 -8.5 -60.75 8.55 60.75 8.55 60.75 -8.5
M 0.15 -1.9
Q 0.95 -2.5 2.6 -2.5 4.2 -2.5 5 -2.05 5.75 -1.6 6.05 -0.65
L 4.1 -0.35
Q 4 -0.75 3.65 -0.95 3.3 -1.2 2.65 -1.2 1.85 -1.2 1.5 -0.95 1.25 -0.85 1.25 -0.6 1.25 -0.4 1.45 -0.25 1.75 -0.05 3.4 0.25 5 0.6 5.65 1.1 6.3 1.6 6.3 2.5 6.3 3.45 5.4 4.15 4.55 4.85 2.8 4.85 1.2 4.85 0.25 4.25 -0.65 3.7 -0.95 2.7
L 1.1 2.4
Q 1.25 2.95 1.65 3.25 2.05 3.5 2.8 3.5 3.6 3.5 4 3.25 4.25 3.05 4.25 2.75 4.25 2.55 4.1 2.4 3.95 2.25 3.4 2.15 0.95 1.65 0.25 1.25 -0.65 0.65 -0.65 -0.35 -0.65 -1.25 0.15 -1.9
M 7.7 -0.35
Q 7.7 -1.25 8.5 -1.9 9.3 -2.5 10.95 -2.5 12.55 -2.5 13.35 -2.05 14.1 -1.6 14.4 -0.65
L 12.45 -0.35
Q 12.35 -0.75 12 -0.95 11.65 -1.2 11 -1.2 10.2 -1.2 9.85 -0.95 9.6 -0.85 9.6 -0.6 9.6 -0.4 9.8 -0.25 10.1 -0.05 11.75 0.25 13.35 0.6 14 1.1 14.65 1.6 14.65 2.5 14.65 3.45 13.75 4.15 12.9 4.85 11.15 4.85 9.55 4.85 8.6 4.25 7.7 3.7 7.4 2.7
L 9.45 2.4
Q 9.6 2.95 10 3.25 10.4 3.5 11.15 3.5 11.95 3.5 12.35 3.25 12.6 3.05 12.6 2.75 12.6 2.55 12.45 2.4 12.3 2.25 11.75 2.15 9.3 1.65 8.6 1.25 7.7 0.65 7.7 -0.35
M 18.55 -3.3
L 16.5 -3.3 16.5 -5.05 18.55 -5.05 18.55 -3.3
M 16.5 -2.35
L 18.55 -2.35 18.55 4.7 16.5 4.7 16.5 -2.35
M 20.7 -0.75
Q 21.2 -1.6 22.15 -2.05 23.05 -2.5 24.2 -2.5 25.95 -2.5 27.1 -1.5 28.25 -0.45 28.25 1.15 28.25 2.75 27.1 3.8 25.95 4.85 24.2 4.85 23.15 4.85 22.2 4.4 21.2 4 20.7 3.15 20.2 2.3 20.2 1.05 20.2 0.15 20.7 -0.75
M 34.7 -0.4
Q 34.6 -0.7 34.3 -0.9 34 -1.1 33.55 -1.1 33.05 -1.1 32.6 -0.85 32.2 -0.55 32.05 -0.1 31.85 0.3 31.85 1.5
L 31.85 4.7 29.8 4.7 29.8 -2.35 31.7 -2.35 31.7 -1.3
Q 32.75 -2.5 34.3 -2.5 34.95 -2.5 35.55 -2.3 36.1 -2.1 36.4 -1.75 36.65 -1.4 36.8 -0.95 36.9 -0.5 36.9 0.3
L 36.9 4.7 34.85 4.7 34.85 1.1
Q 34.85 -0.05 34.7 -0.4
M 47.25 -2.35
L 49.15 -2.35 49.15 -1.35
Q 49.65 -2.05 50.05 -2.3 50.4 -2.5 50.9 -2.5 51.65 -2.5 52.3 -2.15
L 51.65 -0.55
Q 51.1 -0.85 50.65 -0.85 50.25 -0.85 49.95 -0.65 49.65 -0.4 49.45 0.15 49.3 0.7 49.3 2.5
L 49.3 4.7 47.25 4.7 47.25 -2.35
M 41.95 -2.5
Q 43.7 -2.5 44.7 -1.5 45.7 -0.45 45.65 1.7
L 40.5 1.7
Q 40.5 2.55 41 3 41.45 3.45 42.15 3.45 42.65 3.45 43 3.2 43.3 3 43.5 2.45
L 45.55 2.75
Q 45.15 3.8 44.3 4.35 43.45 4.85 42.15 4.85 40.1 4.85 39.15 3.65 38.4 2.7 38.4 1.2 38.4 -0.55 39.4 -1.5 40.4 -2.5 41.95 -2.5
M -50 -3.85
Q -48.6 -5.2 -46.35 -5.2 -44.4 -5.2 -43.15 -4.15 -42.45 -3.55 -42.05 -2.35
L -44.2 -1.9
Q -44.4 -2.65 -45 -3.1 -45.6 -3.55 -46.45 -3.55 -47.65 -3.55 -48.4 -2.75 -49.15 -2 -49.15 -0.25 -49.15 1.6 -48.4 2.4 -47.7 3.2 -46.5 3.2 -45.65 3.2 -45.05 2.7 -44.4 2.2 -44.15 1.1
L -42.05 1.7
Q -42.5 3.3 -43.65 4.1 -44.75 4.85 -46.5 4.85 -48.65 4.85 -50 3.55 -51.4 2.2 -51.4 -0.1 -51.4 -2.5 -50 -3.85
M -40.2 -0.75
Q -39.7 -1.6 -38.75 -2.05 -37.85 -2.5 -36.7 -2.5 -34.95 -2.5 -33.8 -1.5 -32.65 -0.45 -32.65 1.15 -32.65 2.75 -33.8 3.8 -34.95 4.85 -36.7 4.85 -37.75 4.85 -38.7 4.4 -39.7 4 -40.2 3.15 -40.7 2.3 -40.7 1.05 -40.7 0.15 -40.2 -0.75
M -28.4 -0.85
Q -28.8 -0.65 -28.95 -0.2 -29.1 0.25 -29.1 1.25
L -29.1 4.7 -31.2 4.7 -31.2 -2.35 -29.3 -2.35 -29.3 -1.4
Q -28.25 -2.5 -26.85 -2.5 -26.1 -2.5 -25.55 -2.25 -25 -1.95 -24.65 -1.4 -24.15 -1.95 -23.55 -2.25 -22.95 -2.5 -22.3 -2.5 -21.45 -2.5 -20.85 -2.2 -20.25 -1.9 -19.95 -1.3 -19.75 -0.85 -19.75 0.2
L -19.75 4.7 -21.8 4.7 -21.8 0.65
Q -21.8 -0.4 -22 -0.7 -22.3 -1.1 -22.9 -1.1 -23.3 -1.1 -23.7 -0.85 -24.1 -0.6 -24.25 -0.15 -24.4 0.3 -24.4 1.3
L -24.4 4.7 -26.45 4.7 -26.45 0.85
Q -26.45 -0.2 -26.6 -0.5 -26.7 -0.8 -26.9 -0.95 -27.15 -1.1 -27.55 -1.1 -28.05 -1.1 -28.4 -0.85
M -17.9 -2.35
L -16 -2.35 -16 -1.4
Q -14.95 -2.5 -13.55 -2.5 -12.8 -2.5 -12.25 -2.25 -11.7 -1.95 -11.35 -1.4 -10.85 -1.95 -10.25 -2.25 -9.65 -2.5 -9 -2.5 -8.15 -2.5 -7.55 -2.2 -6.95 -1.9 -6.65 -1.3 -6.45 -0.85 -6.45 0.2
L -6.45 4.7 -8.5 4.7 -8.5 0.65
Q -8.5 -0.4 -8.7 -0.7 -9 -1.1 -9.6 -1.1 -10 -1.1 -10.4 -0.85 -10.8 -0.6 -10.95 -0.15 -11.1 0.3 -11.1 1.3
L -11.1 4.7 -13.15 4.7 -13.15 0.85
Q -13.15 -0.2 -13.3 -0.5 -13.4 -0.8 -13.6 -0.95 -13.85 -1.1 -14.25 -1.1 -14.75 -1.1 -15.1 -0.85 -15.5 -0.65 -15.65 -0.2 -15.8 0.25 -15.8 1.25
L -15.8 4.7 -17.9 4.7 -17.9 -2.35
M -4.35 -3.3
L -4.35 -5.05 -2.3 -5.05 -2.3 -3.3 -4.35 -3.3
M -4.35 -2.35
L -2.3 -2.35 -2.3 4.7 -4.35 4.7 -4.35 -2.35
M -35.35 -0.45
Q -35.9 -1 -36.7 -1 -37.5 -1 -38.05 -0.45 -38.6 0.1 -38.6 1.15 -38.6 2.2 -38.05 2.8 -37.5 3.35 -36.7 3.35 -35.9 3.35 -35.35 2.8 -34.8 2.2 -34.8 1.15 -34.8 0.1 -35.35 -0.45
M 43.15 -0.65
Q 42.7 -1.1 42.05 -1.1 41.4 -1.1 40.95 -0.65 40.5 -0.2 40.5 0.55
L 43.6 0.55
Q 43.6 -0.25 43.15 -0.65
M 25.55 -0.45
Q 25 -1 24.2 -1 23.4 -1 22.85 -0.45 22.3 0.1 22.3 1.15 22.3 2.2 22.85 2.8 23.4 3.35 24.2 3.35 25 3.35 25.55 2.8 26.1 2.2 26.1 1.15 26.1 0.1 25.55 -0.45 Z"/>

<path fill="#FFFFFF" stroke="none" d="
M -2.3 -2.35
L -4.35 -2.35 -4.35 4.7 -2.3 4.7 -2.3 -2.35
M -4.35 -5.05
L -4.35 -3.3 -2.3 -3.3 -2.3 -5.05 -4.35 -5.05
M -16 -2.35
L -17.9 -2.35 -17.9 4.7 -15.8 4.7 -15.8 1.25
Q -15.8 0.25 -15.65 -0.2 -15.5 -0.65 -15.1 -0.85 -14.75 -1.1 -14.25 -1.1 -13.85 -1.1 -13.6 -0.95 -13.4 -0.8 -13.3 -0.5 -13.15 -0.2 -13.15 0.85
L -13.15 4.7 -11.1 4.7 -11.1 1.3
Q -11.1 0.3 -10.95 -0.15 -10.8 -0.6 -10.4 -0.85 -10 -1.1 -9.6 -1.1 -9 -1.1 -8.7 -0.7 -8.5 -0.4 -8.5 0.65
L -8.5 4.7 -6.45 4.7 -6.45 0.2
Q -6.45 -0.85 -6.65 -1.3 -6.95 -1.9 -7.55 -2.2 -8.15 -2.5 -9 -2.5 -9.65 -2.5 -10.25 -2.25 -10.85 -1.95 -11.35 -1.4 -11.7 -1.95 -12.25 -2.25 -12.8 -2.5 -13.55 -2.5 -14.95 -2.5 -16 -1.4
L -16 -2.35
M -28.95 -0.2
Q -28.8 -0.65 -28.4 -0.85 -28.05 -1.1 -27.55 -1.1 -27.15 -1.1 -26.9 -0.95 -26.7 -0.8 -26.6 -0.5 -26.45 -0.2 -26.45 0.85
L -26.45 4.7 -24.4 4.7 -24.4 1.3
Q -24.4 0.3 -24.25 -0.15 -24.1 -0.6 -23.7 -0.85 -23.3 -1.1 -22.9 -1.1 -22.3 -1.1 -22 -0.7 -21.8 -0.4 -21.8 0.65
L -21.8 4.7 -19.75 4.7 -19.75 0.2
Q -19.75 -0.85 -19.95 -1.3 -20.25 -1.9 -20.85 -2.2 -21.45 -2.5 -22.3 -2.5 -22.95 -2.5 -23.55 -2.25 -24.15 -1.95 -24.65 -1.4 -25 -1.95 -25.55 -2.25 -26.1 -2.5 -26.85 -2.5 -28.25 -2.5 -29.3 -1.4
L -29.3 -2.35 -31.2 -2.35 -31.2 4.7 -29.1 4.7 -29.1 1.25
Q -29.1 0.25 -28.95 -0.2
M -38.75 -2.05
Q -39.7 -1.6 -40.2 -0.75 -40.7 0.15 -40.7 1.05 -40.7 2.3 -40.2 3.15 -39.7 4 -38.7 4.4 -37.75 4.85 -36.7 4.85 -34.95 4.85 -33.8 3.8 -32.65 2.75 -32.65 1.15 -32.65 -0.45 -33.8 -1.5 -34.95 -2.5 -36.7 -2.5 -37.85 -2.5 -38.75 -2.05
M -36.7 -1
Q -35.9 -1 -35.35 -0.45 -34.8 0.1 -34.8 1.15 -34.8 2.2 -35.35 2.8 -35.9 3.35 -36.7 3.35 -37.5 3.35 -38.05 2.8 -38.6 2.2 -38.6 1.15 -38.6 0.1 -38.05 -0.45 -37.5 -1 -36.7 -1
M -46.35 -5.2
Q -48.6 -5.2 -50 -3.85 -51.4 -2.5 -51.4 -0.1 -51.4 2.2 -50 3.55 -48.65 4.85 -46.5 4.85 -44.75 4.85 -43.65 4.1 -42.5 3.3 -42.05 1.7
L -44.15 1.1
Q -44.4 2.2 -45.05 2.7 -45.65 3.2 -46.5 3.2 -47.7 3.2 -48.4 2.4 -49.15 1.6 -49.15 -0.25 -49.15 -2 -48.4 -2.75 -47.65 -3.55 -46.45 -3.55 -45.6 -3.55 -45 -3.1 -44.4 -2.65 -44.2 -1.9
L -42.05 -2.35
Q -42.45 -3.55 -43.15 -4.15 -44.4 -5.2 -46.35 -5.2
M 44.7 -1.5
Q 43.7 -2.5 41.95 -2.5 40.4 -2.5 39.4 -1.5 38.4 -0.55 38.4 1.2 38.4 2.7 39.15 3.65 40.1 4.85 42.15 4.85 43.45 4.85 44.3 4.35 45.15 3.8 45.55 2.75
L 43.5 2.45
Q 43.3 3 43 3.2 42.65 3.45 42.15 3.45 41.45 3.45 41 3 40.5 2.55 40.5 1.7
L 45.65 1.7
Q 45.7 -0.45 44.7 -1.5
M 42.05 -1.1
Q 42.7 -1.1 43.15 -0.65 43.6 -0.25 43.6 0.55
L 40.5 0.55
Q 40.5 -0.2 40.95 -0.65 41.4 -1.1 42.05 -1.1
M 49.15 -2.35
L 47.25 -2.35 47.25 4.7 49.3 4.7 49.3 2.5
Q 49.3 0.7 49.45 0.15 49.65 -0.4 49.95 -0.65 50.25 -0.85 50.65 -0.85 51.1 -0.85 51.65 -0.55
L 52.3 -2.15
Q 51.65 -2.5 50.9 -2.5 50.4 -2.5 50.05 -2.3 49.65 -2.05 49.15 -1.35
L 49.15 -2.35
M 34.3 -0.9
Q 34.6 -0.7 34.7 -0.4 34.85 -0.05 34.85 1.1
L 34.85 4.7 36.9 4.7 36.9 0.3
Q 36.9 -0.5 36.8 -0.95 36.65 -1.4 36.4 -1.75 36.1 -2.1 35.55 -2.3 34.95 -2.5 34.3 -2.5 32.75 -2.5 31.7 -1.3
L 31.7 -2.35 29.8 -2.35 29.8 4.7 31.85 4.7 31.85 1.5
Q 31.85 0.3 32.05 -0.1 32.2 -0.55 32.6 -0.85 33.05 -1.1 33.55 -1.1 34 -1.1 34.3 -0.9
M 22.15 -2.05
Q 21.2 -1.6 20.7 -0.75 20.2 0.15 20.2 1.05 20.2 2.3 20.7 3.15 21.2 4 22.2 4.4 23.15 4.85 24.2 4.85 25.95 4.85 27.1 3.8 28.25 2.75 28.25 1.15 28.25 -0.45 27.1 -1.5 25.95 -2.5 24.2 -2.5 23.05 -2.5 22.15 -2.05
M 24.2 -1
Q 25 -1 25.55 -0.45 26.1 0.1 26.1 1.15 26.1 2.2 25.55 2.8 25 3.35 24.2 3.35 23.4 3.35 22.85 2.8 22.3 2.2 22.3 1.15 22.3 0.1 22.85 -0.45 23.4 -1 24.2 -1
M 18.55 -2.35
L 16.5 -2.35 16.5 4.7 18.55 4.7 18.55 -2.35
M 16.5 -3.3
L 18.55 -3.3 18.55 -5.05 16.5 -5.05 16.5 -3.3
M 8.5 -1.9
Q 7.7 -1.25 7.7 -0.35 7.7 0.65 8.6 1.25 9.3 1.65 11.75 2.15 12.3 2.25 12.45 2.4 12.6 2.55 12.6 2.75 12.6 3.05 12.35 3.25 11.95 3.5 11.15 3.5 10.4 3.5 10 3.25 9.6 2.95 9.45 2.4
L 7.4 2.7
Q 7.7 3.7 8.6 4.25 9.55 4.85 11.15 4.85 12.9 4.85 13.75 4.15 14.65 3.45 14.65 2.5 14.65 1.6 14 1.1 13.35 0.6 11.75 0.25 10.1 -0.05 9.8 -0.25 9.6 -0.4 9.6 -0.6 9.6 -0.85 9.85 -0.95 10.2 -1.2 11 -1.2 11.65 -1.2 12 -0.95 12.35 -0.75 12.45 -0.35
L 14.4 -0.65
Q 14.1 -1.6 13.35 -2.05 12.55 -2.5 10.95 -2.5 9.3 -2.5 8.5 -1.9
M 2.6 -2.5
Q 0.95 -2.5 0.15 -1.9 -0.65 -1.25 -0.65 -0.35 -0.65 0.65 0.25 1.25 0.95 1.65 3.4 2.15 3.95 2.25 4.1 2.4 4.25 2.55 4.25 2.75 4.25 3.05 4 3.25 3.6 3.5 2.8 3.5 2.05 3.5 1.65 3.25 1.25 2.95 1.1 2.4
L -0.95 2.7
Q -0.65 3.7 0.25 4.25 1.2 4.85 2.8 4.85 4.55 4.85 5.4 4.15 6.3 3.45 6.3 2.5 6.3 1.6 5.65 1.1 5 0.6 3.4 0.25 1.75 -0.05 1.45 -0.25 1.25 -0.4 1.25 -0.6 1.25 -0.85 1.5 -0.95 1.85 -1.2 2.65 -1.2 3.3 -1.2 3.65 -0.95 4 -0.75 4.1 -0.35
L 6.05 -0.65
Q 5.75 -1.6 5 -2.05 4.2 -2.5 2.6 -2.5 Z"/>
</g>
</g>
</g>
</g>
</g>
</svg>
