
<svg xmlns="http://www.w3.org/2000/svg" version="1.1" xmlns:xlink="http://www.w3.org/1999/xlink" preserveAspectRatio="none" x="0px" y="0px" width="67px" height="17px" viewBox="0 0 67 17">
<defs>
<linearGradient id="Gradient_1" gradientUnits="userSpaceOnUse" x1="0" y1="-6.700000000000001" x2="0" y2="8.4" spreadMethod="pad">
<stop  offset="0%" stop-color="#FFE465"/>

<stop  offset="100%" stop-color="#E0BA00"/>
</linearGradient>
</defs>

<g id="Layer_1"/>

<g id="Layer_2">
<g id="Layer_1" transform="matrix( 1, 0, 0, 1, 33.9,8.5) ">
<g>
<g>
<g>
<path fill="url(#Gradient_1)" stroke="none" d="
M 33.95 -8.5
L -33.9 -8.5 -33.9 8.55 33.95 8.55 33.95 -8.5
M 1.35 -5.05
L 1.35 -3.3 -0.7 -3.3 -0.7 -5.05 1.35 -5.05
M 3.5 -0.85
L 2.6 -0.85 2.6 -2.35 3.5 -2.35 3.5 -3.75 5.6 -4.85 5.6 -2.35 7 -2.35 7 -0.85 5.6 -0.85 5.6 1.95
Q 5.6 2.85 5.65 3 5.65 3.1 5.8 3.2 5.95 3.3 6.15 3.3 6.45 3.3 7 3.15
L 7.15 4.6
Q 6.45 4.85 5.55 4.85 5 4.85 4.55 4.7 4.1 4.5 3.9 4.25 3.65 4 3.6 3.5 3.5 3.2 3.5 2.2
L 3.5 -0.85
M 11.4 -2.5
Q 13.15 -2.5 14.15 -1.5 15.15 -0.45 15.1 1.7
L 9.95 1.7
Q 9.95 2.55 10.45 3 10.9 3.45 11.6 3.45 12.1 3.45 12.45 3.2 12.75 3 12.95 2.45
L 15 2.75
Q 14.6 3.8 13.75 4.35 12.9 4.85 11.6 4.85 9.55 4.85 8.6 3.65 7.85 2.7 7.85 1.2 7.85 -0.55 8.85 -1.5 9.85 -2.5 11.4 -2.5
M 16.7 -2.35
L 18.6 -2.35 18.6 -1.35
Q 19.1 -2.05 19.5 -2.3 19.85 -2.5 20.35 -2.5 21.1 -2.5 21.75 -2.15
L 21.1 -0.55
Q 20.55 -0.85 20.1 -0.85 19.7 -0.85 19.4 -0.65 19.1 -0.4 18.9 0.15 18.75 0.7 18.75 2.5
L 18.75 4.7 16.7 4.7 16.7 -2.35
M -15.65 -5.05
L -13.05 -5.05 -11.2 1.75 -9.55 -5.05 -7.35 -5.05 -9.95 4.7 -12.25 4.7 -14.4 -2.6 -16.55 4.7 -18.9 4.7 -21.45 -5.05 -19.25 -5.05 -17.6 1.65 -15.65 -5.05
M -3.25 -0.85
Q -3.65 -0.85 -3.95 -0.65 -4.25 -0.4 -4.45 0.15 -4.6 0.7 -4.6 2.5
L -4.6 4.7 -6.65 4.7 -6.65 -2.35 -4.75 -2.35 -4.75 -1.35
Q -4.25 -2.05 -3.85 -2.3 -3.5 -2.5 -3 -2.5 -2.25 -2.5 -1.6 -2.15
L -2.25 -0.55
Q -2.8 -0.85 -3.25 -0.85
M -0.7 4.7
L -0.7 -2.35 1.35 -2.35 1.35 4.7 -0.7 4.7
M 12.6 -0.65
Q 12.15 -1.1 11.5 -1.1 10.85 -1.1 10.4 -0.65 9.95 -0.2 9.95 0.55
L 13.05 0.55
Q 13.05 -0.25 12.6 -0.65 Z"/>

<path fill="#FFFFFF" stroke="none" d="
M -0.7 -2.35
L -0.7 4.7 1.35 4.7 1.35 -2.35 -0.7 -2.35
M -3.95 -0.65
Q -3.65 -0.85 -3.25 -0.85 -2.8 -0.85 -2.25 -0.55
L -1.6 -2.15
Q -2.25 -2.5 -3 -2.5 -3.5 -2.5 -3.85 -2.3 -4.25 -2.05 -4.75 -1.35
L -4.75 -2.35 -6.65 -2.35 -6.65 4.7 -4.6 4.7 -4.6 2.5
Q -4.6 0.7 -4.45 0.15 -4.25 -0.4 -3.95 -0.65
M -13.05 -5.05
L -15.65 -5.05 -17.6 1.65 -19.25 -5.05 -21.45 -5.05 -18.9 4.7 -16.55 4.7 -14.4 -2.6 -12.25 4.7 -9.95 4.7 -7.35 -5.05 -9.55 -5.05 -11.2 1.75 -13.05 -5.05
M 18.6 -2.35
L 16.7 -2.35 16.7 4.7 18.75 4.7 18.75 2.5
Q 18.75 0.7 18.9 0.15 19.1 -0.4 19.4 -0.65 19.7 -0.85 20.1 -0.85 20.55 -0.85 21.1 -0.55
L 21.75 -2.15
Q 21.1 -2.5 20.35 -2.5 19.85 -2.5 19.5 -2.3 19.1 -2.05 18.6 -1.35
L 18.6 -2.35
M 14.15 -1.5
Q 13.15 -2.5 11.4 -2.5 9.85 -2.5 8.85 -1.5 7.85 -0.55 7.85 1.2 7.85 2.7 8.6 3.65 9.55 4.85 11.6 4.85 12.9 4.85 13.75 4.35 14.6 3.8 15 2.75
L 12.95 2.45
Q 12.75 3 12.45 3.2 12.1 3.45 11.6 3.45 10.9 3.45 10.45 3 9.95 2.55 9.95 1.7
L 15.1 1.7
Q 15.15 -0.45 14.15 -1.5
M 11.5 -1.1
Q 12.15 -1.1 12.6 -0.65 13.05 -0.25 13.05 0.55
L 9.95 0.55
Q 9.95 -0.2 10.4 -0.65 10.85 -1.1 11.5 -1.1
M 2.6 -0.85
L 3.5 -0.85 3.5 2.2
Q 3.5 3.2 3.6 3.5 3.65 4 3.9 4.25 4.1 4.5 4.55 4.7 5 4.85 5.55 4.85 6.45 4.85 7.15 4.6
L 7 3.15
Q 6.45 3.3 6.15 3.3 5.95 3.3 5.8 3.2 5.65 3.1 5.65 3 5.6 2.85 5.6 1.95
L 5.6 -0.85 7 -0.85 7 -2.35 5.6 -2.35 5.6 -4.85 3.5 -3.75 3.5 -2.35 2.6 -2.35 2.6 -0.85
M 1.35 -3.3
L 1.35 -5.05 -0.7 -5.05 -0.7 -3.3 1.35 -3.3 Z"/>
</g>
</g>
</g>
</g>
</g>
</svg>
