
<svg xmlns="http://www.w3.org/2000/svg" version="1.1" xmlns:xlink="http://www.w3.org/1999/xlink" preserveAspectRatio="none" x="0px" y="0px" width="946px" height="702px" viewBox="0 0 946 702">
<defs>
<linearGradient id="Gradient_1" gradientUnits="userSpaceOnUse" x1="-340.75000000000006" y1="218.9" x2="1297.65" y2="218.9" spreadMethod="pad">
<stop  offset="0%" stop-color="#1FD6FC" stop-opacity="0.2"/>

<stop  offset="100%" stop-color="#0261E6" stop-opacity="0.2"/>
</linearGradient>

<linearGradient id="Gradient_2" gradientUnits="userSpaceOnUse" x1="478.45" y1="437.7375" x2="478.45" y2="4.162499999999966" spreadMethod="pad">
<stop  offset="0%" stop-color="#1FD6FC"/>

<stop  offset="100%" stop-color="#0261E6"/>
</linearGradient>

<linearGradient id="Gradient_3" gradientUnits="userSpaceOnUse" x1="475.1" y1="137.89999999999998" x2="475.1" y2="717.9" spreadMethod="pad">
<stop  offset="0%" stop-color="#FFE465"/>

<stop  offset="100%" stop-color="#E0BA00"/>
</linearGradient>
</defs>

<g id="Layer_2">
<g transform="matrix( 1, 0, 0, 1, -2,-2) ">
<g>
<g>
<path fill="url(#Gradient_1)" stroke="none" d="
M 922.8 692.3
L 927.95 691.3
Q 930.357421875 690.299609375 932.3 688.3 936.2701171875 684.1744140625 936.25 678.35
L 936.25 677.15 14 677.45 14 678.35
Q 14.0001953125 684.1669921875 18 688.3
L 18 688.3
Q 19.86171875 690.2337890625 22.1 691.25
L 27 692.3
Q 27.1259765625 692.2984375 27.25 692.3 27.3453125 692.3 27.45 692.3
L 922.8 692.3 Z"/>

<path fill="url(#Gradient_2)" stroke="none" d="
M 927.95 691.3
L 922.8 692.3 27.45 692.3
Q 27.3453125 692.3 27.25 692.3 27.1259765625 692.2984375 27 692.3
L 22.1 691.25
Q 19.86171875 690.2337890625 18 688.3
L 18 688.3
Q 14.0001953125 684.1669921875 14 678.35
L 14 677.45 14 677.4 2 677.4 2 678.35
Q 1.9998046875 689.0328125 9.35 696.65
L 9.4 696.65
Q 16.8171875 704.2939453125 27.45 704.3
L 922.8 704.3
Q 933.41015625 704.3005859375 940.85 696.7
L 942.6 692.5 942.65 692.45 940.95 696.6
Q 948.2298828125 689.0251953125 948.25 678.35
L 948.25 677.15 936.25 677.15 936.25 678.35
Q 936.2701171875 684.1744140625 932.3 688.3 930.357421875 690.299609375 927.95 691.3
M 930.65 692.45
L 930.6 692.5 931.1 691.25 930.65 692.45 Z"/>
</g>
</g>
</g>

<g transform="matrix( 1, 0, 0, 1, -2,-2) ">
<g>
<g>
<path fill="url(#Gradient_3)" stroke="none" d="
M 936.4 678.35
Q 936.4 684.15 932.5 688.3 928.45 692.3 922.75 692.3
L 27.4 692.3
Q 21.7 692.3 17.75 688.3 13.75 684.15 13.75 678.35
L 13.75 677.4 7.95 677.4 7.95 678.35
Q 7.95 686.6 13.65 692.5 19.3 698.3 27.4 698.3
L 922.75 698.3
Q 930.85 698.3 936.55 692.5
L 936.6 692.45
Q 942.2 686.6 942.2 678.35
L 942.2 677.2 936.4 677.2 936.4 678.35 Z"/>
</g>
</g>
</g>
</g>
</svg>
