
<svg xmlns="http://www.w3.org/2000/svg" version="1.1" xmlns:xlink="http://www.w3.org/1999/xlink" preserveAspectRatio="none" x="0px" y="0px" width="35px" height="276px" viewBox="0 0 35 276">
<defs/>

<g id="Layer_1"/>

<g id="Layer_2">
<g id="Layer_30" transform="matrix( 1, 0, 0, 1, 17.7,138.25) ">
<g transform="matrix( 1, 0, 0, 1, -357.9,248.35) ">
<g>
<g>
<path fill="#FFFFFF" stroke="none" d="
M 362.7 -138.8
L 358.35 -130.5 354.45 -139.7 346.9 -136.85 354.5 -124.8 354.5 -115.15 361.85 -115.15 361.85 -124.25 369.8 -137.25 362.7 -138.8
M 354.05 -201.1
L 362.05 -201.1 363.9 -195.3 370.65 -196.95
Q 369.8 -199.8 368.8 -202.65 367.8 -205.45 366.8 -208.3 365.75 -211.15 364.75 -214 363.75 -216.85 362.85 -219.7
L 355.5 -219.75 345.2 -198.3 351.25 -195.8 354.05 -201.1
M 361.15 -206.95
L 356.15 -206.95 358.95 -213.1 361.15 -206.95
M 354.55 -317.3
L 361.4 -317.3 361.6 -340.95 354.8 -340.95 354.55 -317.3
M 365.85 -357.65
L 365.85 -364.8 357.9 -364.8 357.9 -381.6 350.75 -381.6 350.75 -357.65 365.85 -357.65 Z"/>

<path fill="#0E35A1" stroke="none" d="
M 367.9 -173.85
Q 367.3 -175.2 366.4 -176.2 365.5 -177.2 364.4 -177.9 363.3 -178.55 362.1 -179 360.9 -179.45 359.75 -179.6 358.55 -179.75 357.6 -179.8 357.15 -179.8 356.35 -179.75 355.55 -179.7 354.6 -179.55 353.65 -179.45 352.65 -179.2 351.7 -178.95 350.75 -178.55
L 350.35 -155.85 357.15 -155.85 357.15 -161.9 357.5 -161.9
Q 357.9 -160.1 358.9 -158.6 359.9 -157.05 361.25 -155.9 362.65 -154.75 364.3 -154.05 365.95 -153.4 367.75 -153.4 367.95 -153.4 368.1 -153.4 368.3 -153.4 368.45 -153.45
L 368.45 -160.05 368.2 -160.05
Q 366.8 -160.05 365.7 -160.95 364.6 -161.9 364.1 -163.15 365 -163.65 365.85 -164.4 366.7 -165.2 367.25 -166.15 367.85 -167.05 368.2 -168.1 368.55 -169.15 368.55 -170.3
L 368.55 -170.7
Q 368.45 -172.5 367.9 -173.85
M 358.15 -173.65
Q 358.5 -173.7 358.8 -173.7 360 -173.7 360.9 -173 361.8 -172.25 361.85 -170.9 361.85 -170.2 361.55 -169.7 361.3 -169.15 360.8 -168.85 360.35 -168.5 359.75 -168.35 359.15 -168.2 358.5 -168.2 357.75 -168.2 357.25 -168.4
L 357.5 -173.5
Q 357.8 -173.6 358.15 -173.65
M 358.8 -173.7
Q 358.5 -173.7 358.15 -173.65 357.8 -173.6 357.5 -173.5
L 357.25 -168.4
Q 357.75 -168.2 358.5 -168.2 359.15 -168.2 359.75 -168.35 360.35 -168.5 360.8 -168.85 361.3 -169.15 361.55 -169.7 361.85 -170.2 361.85 -170.9 361.8 -172.25 360.9 -173 360 -173.7 358.8 -173.7
M 367.85 -251.55
Q 367.75 -253.35 367.2 -254.7 366.6 -256.05 365.7 -257.05 364.8 -258.05 363.7 -258.75 362.6 -259.4 361.4 -259.85 360.2 -260.3 359.05 -260.45 357.85 -260.6 356.9 -260.65 356.45 -260.65 355.65 -260.6 354.85 -260.55 353.9 -260.4 352.95 -260.3 351.95 -260.05 351 -259.8 350.05 -259.4
L 349.65 -236.7 356.45 -236.7 356.45 -242.75 356.8 -242.75
Q 357.2 -240.95 358.2 -239.45 359.2 -237.9 360.55 -236.75 361.95 -235.6 363.6 -234.9 365.25 -234.25 367.05 -234.25 367.25 -234.25 367.4 -234.25 367.6 -234.25 367.75 -234.3
L 367.75 -240.9 367.5 -240.9
Q 366.1 -240.9 365 -241.8 363.9 -242.75 363.4 -244 364.3 -244.5 365.15 -245.25 366 -246.05 366.55 -247 367.15 -247.9 367.5 -248.95 367.85 -250 367.85 -251.15
L 367.85 -251.55
M 356.8 -254.35
Q 357.1 -254.45 357.45 -254.5 357.8 -254.55 358.1 -254.55 359.3 -254.55 360.2 -253.85 361.1 -253.1 361.15 -251.75 361.15 -251.05 360.85 -250.55 360.6 -250 360.1 -249.7 359.65 -249.35 359.05 -249.2 358.45 -249.05 357.8 -249.05 357.05 -249.05 356.55 -249.25
L 356.8 -254.35
M 357.45 -254.5
Q 357.1 -254.45 356.8 -254.35
L 356.55 -249.25
Q 357.05 -249.05 357.8 -249.05 358.45 -249.05 359.05 -249.2 359.65 -249.35 360.1 -249.7 360.6 -250 360.85 -250.55 361.15 -251.05 361.15 -251.75 361.1 -253.1 360.2 -253.85 359.3 -254.55 358.1 -254.55 357.8 -254.55 357.45 -254.5
M 363.75 -298.6
Q 362.4 -299.55 360.75 -300.05 359.05 -300.55 357.45 -300.55 355.5 -300.55 353.4 -300.3 351.35 -300 349.55 -299.1
L 349.55 -276.8 353.75 -276.8
Q 355.05 -276.8 356.55 -276.85 358.05 -276.9 359.5 -277.05 361 -277.25 362.35 -277.65 363.7 -278.05 364.75 -278.8 365.8 -279.55 366.45 -280.75 367.05 -281.9 367.1 -283.6 367.1 -285.05 366.55 -286.35 366 -287.65 364.85 -288.55 365.75 -289.3 366.3 -290.5 366.8 -291.7 366.8 -293 366.8 -294.85 365.95 -296.25 365.1 -297.65 363.75 -298.6
M 360.65 -293.2
Q 360.65 -292.5 360.3 -291.95 359.9 -291.45 359.35 -291.1 358.8 -290.8 358.1 -290.6 357.35 -290.45 356.7 -290.45 356.15 -290.45 355.75 -290.5
L 355.75 -294.65
Q 356 -294.85 356.45 -294.95 356.95 -295.1 357.55 -295.1 358.1 -295.1 358.65 -295 359.2 -294.9 359.65 -294.65 360.1 -294.45 360.4 -294.05 360.65 -293.7 360.65 -293.2
M 355.75 -286.8
Q 356.5 -287.05 357.5 -287.05 358.1 -287.05 358.75 -286.9 359.4 -286.8 359.9 -286.5 360.4 -286.25 360.7 -285.8 361 -285.35 361 -284.7 361 -284 360.65 -283.5 360.3 -282.95 359.7 -282.55 359.1 -282.15 358.35 -281.95 357.65 -281.8 356.95 -281.8 356.2 -281.8 355.75 -282
L 355.75 -286.8
M 357.5 -287.05
Q 356.5 -287.05 355.75 -286.8
L 355.75 -282
Q 356.2 -281.8 356.95 -281.8 357.65 -281.8 358.35 -281.95 359.1 -282.15 359.7 -282.55 360.3 -282.95 360.65 -283.5 361 -284 361 -284.7 361 -285.35 360.7 -285.8 360.4 -286.25 359.9 -286.5 359.4 -286.8 358.75 -286.9 358.1 -287.05 357.5 -287.05
M 360.3 -291.95
Q 360.65 -292.5 360.65 -293.2 360.65 -293.7 360.4 -294.05 360.1 -294.45 359.65 -294.65 359.2 -294.9 358.65 -295 358.1 -295.1 357.55 -295.1 356.95 -295.1 356.45 -294.95 356 -294.85 355.75 -294.65
L 355.75 -290.5
Q 356.15 -290.45 356.7 -290.45 357.35 -290.45 358.1 -290.6 358.8 -290.8 359.35 -291.1 359.9 -291.45 360.3 -291.95 Z"/>
</g>
</g>

<g>
<path stroke="#0E35A1" stroke-width="10" stroke-linejoin="round" stroke-linecap="round" fill="none" d="
M 365.85 -364.8
L 365.85 -357.65 350.75 -357.65 350.75 -381.6 357.9 -381.6 357.9 -364.8 365.85 -364.8 Z
M 364.85 -288.55
Q 366 -287.65 366.55 -286.35 367.1 -285.05 367.1 -283.6 367.05 -281.9 366.45 -280.75 365.8 -279.55 364.75 -278.8 363.7 -278.05 362.35 -277.65 361 -277.25 359.5 -277.05 358.05 -276.9 356.55 -276.85 355.05 -276.8 353.75 -276.8
L 349.55 -276.8 349.55 -299.1
Q 351.35 -300 353.4 -300.3 355.5 -300.55 357.45 -300.55 359.05 -300.55 360.75 -300.05 362.4 -299.55 363.75 -298.6 365.1 -297.65 365.95 -296.25 366.8 -294.85 366.8 -293 366.8 -291.7 366.3 -290.5 365.75 -289.3 364.85 -288.55 Z
M 354.55 -317.3
L 354.8 -340.95 361.6 -340.95 361.4 -317.3 354.55 -317.3 Z
M 367.85 -251.55
L 367.85 -251.15
Q 367.85 -250 367.5 -248.95 367.15 -247.9 366.55 -247 366 -246.05 365.15 -245.25 364.3 -244.5 363.4 -244 363.9 -242.75 365 -241.8 366.1 -240.9 367.5 -240.9
L 367.75 -240.9 367.75 -234.3
Q 367.6 -234.25 367.4 -234.25 367.25 -234.25 367.05 -234.25 365.25 -234.25 363.6 -234.9 361.95 -235.6 360.55 -236.75 359.2 -237.9 358.2 -239.45 357.2 -240.95 356.8 -242.75
L 356.45 -242.75 356.45 -236.7 349.65 -236.7 350.05 -259.4
Q 351 -259.8 351.95 -260.05 352.95 -260.3 353.9 -260.4 354.85 -260.55 355.65 -260.6 356.45 -260.65 356.9 -260.65 357.85 -260.6 359.05 -260.45 360.2 -260.3 361.4 -259.85 362.6 -259.4 363.7 -258.75 364.8 -258.05 365.7 -257.05 366.6 -256.05 367.2 -254.7 367.75 -253.35 367.85 -251.55 Z
M 355.75 -290.5
Q 356.15 -290.45 356.7 -290.45 357.35 -290.45 358.1 -290.6 358.8 -290.8 359.35 -291.1 359.9 -291.45 360.3 -291.95 360.65 -292.5 360.65 -293.2 360.65 -293.7 360.4 -294.05 360.1 -294.45 359.65 -294.65 359.2 -294.9 358.65 -295 358.1 -295.1 357.55 -295.1 356.95 -295.1 356.45 -294.95 356 -294.85 355.75 -294.65
L 355.75 -290.5 Z
M 355.75 -282
Q 356.2 -281.8 356.95 -281.8 357.65 -281.8 358.35 -281.95 359.1 -282.15 359.7 -282.55 360.3 -282.95 360.65 -283.5 361 -284 361 -284.7 361 -285.35 360.7 -285.8 360.4 -286.25 359.9 -286.5 359.4 -286.8 358.75 -286.9 358.1 -287.05 357.5 -287.05 356.5 -287.05 355.75 -286.8
L 355.75 -282 Z
M 356.55 -249.25
Q 357.05 -249.05 357.8 -249.05 358.45 -249.05 359.05 -249.2 359.65 -249.35 360.1 -249.7 360.6 -250 360.85 -250.55 361.15 -251.05 361.15 -251.75 361.1 -253.1 360.2 -253.85 359.3 -254.55 358.1 -254.55 357.8 -254.55 357.45 -254.5 357.1 -254.45 356.8 -254.35
L 356.55 -249.25 Z
M 361.15 -206.95
L 358.95 -213.1 356.15 -206.95 361.15 -206.95 Z
M 362.05 -201.1
L 354.05 -201.1 351.25 -195.8 345.2 -198.3 355.5 -219.75 362.85 -219.7
Q 363.75 -216.85 364.75 -214 365.75 -211.15 366.8 -208.3 367.8 -205.45 368.8 -202.65 369.8 -199.8 370.65 -196.95
L 363.9 -195.3 362.05 -201.1 Z
M 368.55 -170.7
L 368.55 -170.3
Q 368.55 -169.15 368.2 -168.1 367.85 -167.05 367.25 -166.15 366.7 -165.2 365.85 -164.4 365 -163.65 364.1 -163.15 364.6 -161.9 365.7 -160.95 366.8 -160.05 368.2 -160.05
L 368.45 -160.05 368.45 -153.45
Q 368.3 -153.4 368.1 -153.4 367.95 -153.4 367.75 -153.4 365.95 -153.4 364.3 -154.05 362.65 -154.75 361.25 -155.9 359.9 -157.05 358.9 -158.6 357.9 -160.1 357.5 -161.9
L 357.15 -161.9 357.15 -155.85 350.35 -155.85 350.75 -178.55
Q 351.7 -178.95 352.65 -179.2 353.65 -179.45 354.6 -179.55 355.55 -179.7 356.35 -179.75 357.15 -179.8 357.6 -179.8 358.55 -179.75 359.75 -179.6 360.9 -179.45 362.1 -179 363.3 -178.55 364.4 -177.9 365.5 -177.2 366.4 -176.2 367.3 -175.2 367.9 -173.85 368.45 -172.5 368.55 -170.7 Z
M 357.25 -168.4
Q 357.75 -168.2 358.5 -168.2 359.15 -168.2 359.75 -168.35 360.35 -168.5 360.8 -168.85 361.3 -169.15 361.55 -169.7 361.85 -170.2 361.85 -170.9 361.8 -172.25 360.9 -173 360 -173.7 358.8 -173.7 358.5 -173.7 358.15 -173.65 357.8 -173.6 357.5 -173.5
L 357.25 -168.4 Z
M 369.8 -137.25
L 361.85 -124.25 361.85 -115.15 354.5 -115.15 354.5 -124.8 346.9 -136.85 354.45 -139.7 358.35 -130.5 362.7 -138.8 369.8 -137.25 Z"/>
</g>
</g>
</g>

<g id="Layer_8" transform="matrix( 1, 0, 0, 1, 17.7,138.25) ">
<g transform="matrix( 1, 0, 0, 1, -357.9,248.35) ">
<g>
<g>
<path fill="#FFFFFF" stroke="none" d="
M 362.7 -138.8
L 358.35 -130.5 354.45 -139.7 346.9 -136.85 354.5 -124.8 354.5 -115.15 361.85 -115.15 361.85 -124.25 369.8 -137.25 362.7 -138.8
M 367.9 -173.85
Q 367.3 -175.2 366.4 -176.2 365.5 -177.2 364.4 -177.9 363.3 -178.55 362.1 -179 360.9 -179.45 359.75 -179.6 358.55 -179.75 357.6 -179.8 357.15 -179.8 356.35 -179.75 355.55 -179.7 354.6 -179.55 353.65 -179.45 352.65 -179.2 351.7 -178.95 350.75 -178.55
L 350.35 -155.85 357.15 -155.85 357.15 -161.9 357.5 -161.9
Q 357.9 -160.1 358.9 -158.6 359.9 -157.05 361.25 -155.9 362.65 -154.75 364.3 -154.05 365.95 -153.4 367.75 -153.4 367.95 -153.4 368.1 -153.4 368.3 -153.4 368.45 -153.45
L 368.45 -160.05 368.2 -160.05
Q 366.8 -160.05 365.7 -160.95 364.6 -161.9 364.1 -163.15 365 -163.65 365.85 -164.4 366.7 -165.2 367.25 -166.15 367.85 -167.05 368.2 -168.1 368.55 -169.15 368.55 -170.3
L 368.55 -170.7
Q 368.45 -172.5 367.9 -173.85
M 358.15 -173.65
Q 358.5 -173.7 358.8 -173.7 360 -173.7 360.9 -173 361.8 -172.25 361.85 -170.9 361.85 -170.2 361.55 -169.7 361.3 -169.15 360.8 -168.85 360.35 -168.5 359.75 -168.35 359.15 -168.2 358.5 -168.2 357.75 -168.2 357.25 -168.4
L 357.5 -173.5
Q 357.8 -173.6 358.15 -173.65
M 362.85 -219.7
L 355.5 -219.75 345.2 -198.3 351.25 -195.8 354.05 -201.1 362.05 -201.1 363.9 -195.3 370.65 -196.95
Q 369.8 -199.8 368.8 -202.65 367.8 -205.45 366.8 -208.3 365.75 -211.15 364.75 -214 363.75 -216.85 362.85 -219.7
M 358.95 -213.1
L 361.15 -206.95 356.15 -206.95 358.95 -213.1
M 367.85 -251.55
Q 367.75 -253.35 367.2 -254.7 366.6 -256.05 365.7 -257.05 364.8 -258.05 363.7 -258.75 362.6 -259.4 361.4 -259.85 360.2 -260.3 359.05 -260.45 357.85 -260.6 356.9 -260.65 356.45 -260.65 355.65 -260.6 354.85 -260.55 353.9 -260.4 352.95 -260.3 351.95 -260.05 351 -259.8 350.05 -259.4
L 349.65 -236.7 356.45 -236.7 356.45 -242.75 356.8 -242.75
Q 357.2 -240.95 358.2 -239.45 359.2 -237.9 360.55 -236.75 361.95 -235.6 363.6 -234.9 365.25 -234.25 367.05 -234.25 367.25 -234.25 367.4 -234.25 367.6 -234.25 367.75 -234.3
L 367.75 -240.9 367.5 -240.9
Q 366.1 -240.9 365 -241.8 363.9 -242.75 363.4 -244 364.3 -244.5 365.15 -245.25 366 -246.05 366.55 -247 367.15 -247.9 367.5 -248.95 367.85 -250 367.85 -251.15
L 367.85 -251.55
M 356.8 -254.35
Q 357.1 -254.45 357.45 -254.5 357.8 -254.55 358.1 -254.55 359.3 -254.55 360.2 -253.85 361.1 -253.1 361.15 -251.75 361.15 -251.05 360.85 -250.55 360.6 -250 360.1 -249.7 359.65 -249.35 359.05 -249.2 358.45 -249.05 357.8 -249.05 357.05 -249.05 356.55 -249.25
L 356.8 -254.35
M 363.75 -298.6
Q 362.4 -299.55 360.75 -300.05 359.05 -300.55 357.45 -300.55 355.5 -300.55 353.4 -300.3 351.35 -300 349.55 -299.1
L 349.55 -276.8 353.75 -276.8
Q 355.05 -276.8 356.55 -276.85 358.05 -276.9 359.5 -277.05 361 -277.25 362.35 -277.65 363.7 -278.05 364.75 -278.8 365.8 -279.55 366.45 -280.75 367.05 -281.9 367.1 -283.6 367.1 -285.05 366.55 -286.35 366 -287.65 364.85 -288.55 365.75 -289.3 366.3 -290.5 366.8 -291.7 366.8 -293 366.8 -294.85 365.95 -296.25 365.1 -297.65 363.75 -298.6
M 360.65 -293.2
Q 360.65 -292.5 360.3 -291.95 359.9 -291.45 359.35 -291.1 358.8 -290.8 358.1 -290.6 357.35 -290.45 356.7 -290.45 356.15 -290.45 355.75 -290.5
L 355.75 -294.65
Q 356 -294.85 356.45 -294.95 356.95 -295.1 357.55 -295.1 358.1 -295.1 358.65 -295 359.2 -294.9 359.65 -294.65 360.1 -294.45 360.4 -294.05 360.65 -293.7 360.65 -293.2
M 355.75 -286.8
Q 356.5 -287.05 357.5 -287.05 358.1 -287.05 358.75 -286.9 359.4 -286.8 359.9 -286.5 360.4 -286.25 360.7 -285.8 361 -285.35 361 -284.7 361 -284 360.65 -283.5 360.3 -282.95 359.7 -282.55 359.1 -282.15 358.35 -281.95 357.65 -281.8 356.95 -281.8 356.2 -281.8 355.75 -282
L 355.75 -286.8
M 354.55 -317.3
L 361.4 -317.3 361.6 -340.95 354.8 -340.95 354.55 -317.3
M 365.85 -357.65
L 365.85 -364.8 357.9 -364.8 357.9 -381.6 350.75 -381.6 350.75 -357.65 365.85 -357.65 Z"/>
</g>
</g>
</g>
</g>
</g>
</svg>
