
<svg xmlns="http://www.w3.org/2000/svg" version="1.1" xmlns:xlink="http://www.w3.org/1999/xlink" preserveAspectRatio="none" x="0px" y="0px" width="760px" height="980px" viewBox="0 0 760 980">
<defs>
<linearGradient id="Gradient_1" gradientUnits="userSpaceOnUse" x1="495.05" y1="87.92499999999995" x2="495.05" y2="749.975" spreadMethod="pad">
<stop  offset="0%" stop-color="#1FD6FC"/>

<stop  offset="100%" stop-color="#0261E6"/>
</linearGradient>

<linearGradient id="Gradient_2" gradientUnits="userSpaceOnUse" x1="2.55" y1="-486.6" x2="2.55" y2="508.20000000000005" spreadMethod="pad">
<stop  offset="0%" stop-color="#1FD6FC"/>

<stop  offset="100%" stop-color="#0261E6"/>
</linearGradient>
</defs>

<g id="Layer_1"/>

<g id="Layer_2"/>

<g id="Layer_5">
<g transform="matrix( 0, 1, -1, 0, 755.95,-4.95) ">
<g>
<g>
<path fill="#0E35A1" stroke="none" d="
M 98.95 -2.1
L 32.2 -2.1
Q 23.1 -1.9 16.55 4.25 10 10.35 9.75 18.9
L 9.75 130.65 121.4 130.65 121.4 18.9
Q 121.2 10.35 114.65 4.25 108.1 -1.9 98.95 -2.1 Z"/>
</g>
</g>

<g transform="matrix( 0, -1, 1, 0, 4.95,755.95) ">
<path stroke="#FFFFFF" stroke-width="4" stroke-linejoin="round" stroke-linecap="round" fill="none" d="
M 625.3000000000001 116.45
L 625.3000000000001 4.8 737.0500000000001 4.8
Q 745.6 5.05 751.7 11.600000000000001 757.85 18.150000000000002 758.0500000000001 27.250000000000004
L 758.0500000000001 94
Q 757.85 103.14999999999999 751.7 109.7 745.6 116.25 737.0500000000001 116.45
L 625.3000000000001 116.45 Z"/>
</g>
</g>

<g transform="matrix( 0, 1, -1, 0, 752.8,-4.95) ">
<g>
<g>
<path fill="url(#Gradient_1)" stroke="none" d="
M 979.1 75.75
Q 979.1 67.6 972.9 61.8 966.75 56 958 56
L 32.05 56
Q 23.35 56 17.15 61.8 10.95 67.6 10.95 75.75
L 10.95 683.05
Q 10.95 691.25 17.15 697 23.35 702.8 32.05 702.8
L 958 702.8
Q 966.75 702.8 972.9 697 979.1 691.25 979.1 683.05
L 979.1 75.75 Z"/>
</g>
</g>

<g transform="matrix( 0, -1, 1, 0, 4.95,752.8) ">
<path stroke="#0E35A1" stroke-width="12" stroke-linejoin="round" stroke-linecap="round" fill="none" d="
M 696.8 953.05
L 696.8 27.099999999999998
Q 696.8 18.400000000000002 691 12.2 685.1999999999999 5.999999999999999 677.05 5.999999999999999
L 69.75 5.999999999999999
Q 61.549999999999955 5.999999999999999 55.799999999999955 12.2 50 18.400000000000002 50 27.099999999999998
L 50 953.05
Q 50 961.8 55.799999999999955 967.9499999999999 61.549999999999955 974.15 69.75 974.15
L 677.05 974.15
Q 685.1999999999999 974.15 691 967.9499999999999 696.8 961.8 696.8 953.05 Z"/>
</g>
</g>

<g transform="matrix( 1, 0, 0, 1, 370.85,518.2) ">
<g>
<g>
<path fill="url(#Gradient_2)" stroke="none" d="
M 320.15 -506
Q 314.35 -512.2 306.2 -512.2
L -348.1 -512.2
Q -356.3 -512.2 -362.05 -506 -367.85 -499.8 -367.85 -491.1
L -367.85 434.85
Q -367.85 443.6 -362.05 449.75 -356.3 455.95 -348.1 455.95
L 306.2 455.95
Q 314.35 455.95 320.15 449.75 325.95 443.6 325.95 434.85
L 325.95 -491.1
Q 325.95 -499.8 320.15 -506 Z"/>
</g>
</g>

<g>
<path stroke="#FFFFFF" stroke-width="6" stroke-linejoin="round" stroke-linecap="round" fill="none" d="
M 325.95 434.85
L 325.95 -491.1
Q 325.95 -499.8 320.15 -506 314.35 -512.2 306.2 -512.2
L -348.1 -512.2
Q -356.3 -512.2 -362.05 -506 -367.85 -499.8 -367.85 -491.1
L -367.85 434.85
Q -367.85 443.6 -362.05 449.75 -356.3 455.95 -348.1 455.95
L 306.2 455.95
Q 314.35 455.95 320.15 449.75 325.95 443.6 325.95 434.85 Z"/>
</g>
</g>
</g>
</svg>
