
<svg xmlns="http://www.w3.org/2000/svg" version="1.1" xmlns:xlink="http://www.w3.org/1999/xlink" preserveAspectRatio="none" x="0px" y="0px" width="67px" height="17px" viewBox="0 0 67 17">
<defs>
<linearGradient id="Gradient_1" gradientUnits="userSpaceOnUse" x1="0" y1="-6.700000000000001" x2="0" y2="8.4" spreadMethod="pad">
<stop  offset="0%" stop-color="#FFE465"/>

<stop  offset="100%" stop-color="#E0BA00"/>
</linearGradient>
</defs>

<g id="Layer_1"/>

<g id="Layer_2">
<g id="Layer_1" transform="matrix( 1, 0, 0, 1, 33.9,8.5) ">
<g>
<g>
<g>
<path fill="url(#Gradient_1)" stroke="none" d="
M 33.95 -8.5
L -33.9 -8.5 -33.9 8.55 33.95 8.55 33.95 -8.5
M 0.2 -2.05
Q 0.95 -2.5 2.45 -2.5 3.85 -2.5 4.5 -2.2 5.2 -1.95 5.45 -1.45 5.75 -1 5.75 0.2
L 5.7 2.4
Q 5.7 3.3 5.8 3.75 5.9 4.2 6.2 4.7
L 4.15 4.7
Q 4.05 4.5 3.95 4.15 3.9 4 3.9 3.95 3.35 4.4 2.75 4.65 2.15 4.85 1.45 4.85 0.25 4.85 -0.4 4.25 -1.1 3.7 -1.1 2.75 -1.1 2.15 -0.8 1.7 -0.5 1.25 0.1 1 0.65 0.75 1.7 0.55 3.15 0.3 3.7 0.1
L 3.7 -0.1
Q 3.7 -0.65 3.45 -0.85 3.15 -1.1 2.3 -1.1 1.75 -1.1 1.45 -0.9 1.15 -0.7 0.95 -0.2
L -0.9 -0.5
Q -0.6 -1.55 0.2 -2.05
M 6.95 -0.85
L 6.95 -2.35 7.85 -2.35 7.85 -3.75 9.95 -4.85 9.95 -2.35 11.35 -2.35 11.35 -0.85 9.95 -0.85 9.95 1.95
Q 9.95 2.85 10 3 10 3.1 10.15 3.2 10.3 3.3 10.5 3.3 10.8 3.3 11.35 3.15
L 11.5 4.6
Q 10.8 4.85 9.9 4.85 9.35 4.85 8.9 4.7 8.45 4.5 8.25 4.25 8 4 7.95 3.5 7.85 3.2 7.85 2.2
L 7.85 -0.85 6.95 -0.85
M 12.8 -0.75
Q 13.3 -1.6 14.25 -2.05 15.15 -2.5 16.3 -2.5 18.05 -2.5 19.2 -1.5 20.35 -0.45 20.35 1.15 20.35 2.75 19.2 3.8 18.05 4.85 16.3 4.85 15.25 4.85 14.3 4.4 13.3 4 12.8 3.15 12.3 2.3 12.3 1.05 12.3 0.15 12.8 -0.75
M 21.85 -2.35
L 23.75 -2.35 23.75 -1.35
Q 24.25 -2.05 24.65 -2.3 25 -2.5 25.5 -2.5 26.25 -2.5 26.9 -2.15
L 26.25 -0.55
Q 25.7 -0.85 25.25 -0.85 24.85 -0.85 24.55 -0.65 24.25 -0.4 24.05 0.15 23.9 0.7 23.9 2.5
L 23.9 4.7 21.85 4.7 21.85 -2.35
M -26 -0.1
Q -26 -2.5 -24.6 -3.85 -23.2 -5.2 -20.95 -5.2 -19 -5.2 -17.75 -4.15 -17.05 -3.55 -16.65 -2.35
L -18.8 -1.9
Q -19 -2.65 -19.6 -3.1 -20.2 -3.55 -21.05 -3.55 -22.25 -3.55 -23 -2.75 -23.75 -2 -23.75 -0.25 -23.75 1.6 -23 2.4 -22.3 3.2 -21.1 3.2 -20.25 3.2 -19.65 2.7 -19 2.2 -18.75 1.1
L -16.65 1.7
Q -17.1 3.3 -18.25 4.1 -19.35 4.85 -21.1 4.85 -23.25 4.85 -24.6 3.55 -26 2.2 -26 -0.1
M -11.45 -0.85
Q -11.85 -0.85 -12.15 -0.65 -12.45 -0.4 -12.65 0.15 -12.8 0.7 -12.8 2.5
L -12.8 4.7 -14.85 4.7 -14.85 -2.35 -12.95 -2.35 -12.95 -1.35
Q -12.45 -2.05 -12.05 -2.3 -11.7 -2.5 -11.2 -2.5 -10.45 -2.5 -9.8 -2.15
L -10.45 -0.55
Q -11 -0.85 -11.45 -0.85
M -8.5 -1.5
Q -7.5 -2.5 -5.95 -2.5 -4.2 -2.5 -3.2 -1.5 -2.2 -0.45 -2.25 1.7
L -7.4 1.7
Q -7.4 2.55 -6.9 3 -6.45 3.45 -5.75 3.45 -5.25 3.45 -4.9 3.2 -4.6 3 -4.4 2.45
L -2.35 2.75
Q -2.75 3.8 -3.6 4.35 -4.45 4.85 -5.75 4.85 -7.8 4.85 -8.75 3.65 -9.5 2.7 -9.5 1.2 -9.5 -0.55 -8.5 -1.5
M -4.75 -0.65
Q -5.2 -1.1 -5.85 -1.1 -6.5 -1.1 -6.95 -0.65 -7.4 -0.2 -7.4 0.55
L -4.3 0.55
Q -4.3 -0.25 -4.75 -0.65
M 17.65 -0.45
Q 17.1 -1 16.3 -1 15.5 -1 14.95 -0.45 14.4 0.1 14.4 1.15 14.4 2.2 14.95 2.8 15.5 3.35 16.3 3.35 17.1 3.35 17.65 2.8 18.2 2.2 18.2 1.15 18.2 0.1 17.65 -0.45
M 3.7 1.7
L 3.7 1.3
Q 3.3 1.45 2.45 1.6 1.6 1.75 1.35 1.9 0.95 2.2 0.95 2.6 0.95 2.95 1.25 3.25 1.6 3.55 2.1 3.55 2.65 3.55 3.15 3.2 3.5 2.95 3.65 2.6 3.7 2.35 3.7 1.7 Z"/>

<path fill="#FFFFFF" stroke="none" d="
M -5.95 -2.5
Q -7.5 -2.5 -8.5 -1.5 -9.5 -0.55 -9.5 1.2 -9.5 2.7 -8.75 3.65 -7.8 4.85 -5.75 4.85 -4.45 4.85 -3.6 4.35 -2.75 3.8 -2.35 2.75
L -4.4 2.45
Q -4.6 3 -4.9 3.2 -5.25 3.45 -5.75 3.45 -6.45 3.45 -6.9 3 -7.4 2.55 -7.4 1.7
L -2.25 1.7
Q -2.2 -0.45 -3.2 -1.5 -4.2 -2.5 -5.95 -2.5
M -5.85 -1.1
Q -5.2 -1.1 -4.75 -0.65 -4.3 -0.25 -4.3 0.55
L -7.4 0.55
Q -7.4 -0.2 -6.95 -0.65 -6.5 -1.1 -5.85 -1.1
M -12.15 -0.65
Q -11.85 -0.85 -11.45 -0.85 -11 -0.85 -10.45 -0.55
L -9.8 -2.15
Q -10.45 -2.5 -11.2 -2.5 -11.7 -2.5 -12.05 -2.3 -12.45 -2.05 -12.95 -1.35
L -12.95 -2.35 -14.85 -2.35 -14.85 4.7 -12.8 4.7 -12.8 2.5
Q -12.8 0.7 -12.65 0.15 -12.45 -0.4 -12.15 -0.65
M -24.6 -3.85
Q -26 -2.5 -26 -0.1 -26 2.2 -24.6 3.55 -23.25 4.85 -21.1 4.85 -19.35 4.85 -18.25 4.1 -17.1 3.3 -16.65 1.7
L -18.75 1.1
Q -19 2.2 -19.65 2.7 -20.25 3.2 -21.1 3.2 -22.3 3.2 -23 2.4 -23.75 1.6 -23.75 -0.25 -23.75 -2 -23 -2.75 -22.25 -3.55 -21.05 -3.55 -20.2 -3.55 -19.6 -3.1 -19 -2.65 -18.8 -1.9
L -16.65 -2.35
Q -17.05 -3.55 -17.75 -4.15 -19 -5.2 -20.95 -5.2 -23.2 -5.2 -24.6 -3.85
M 23.75 -2.35
L 21.85 -2.35 21.85 4.7 23.9 4.7 23.9 2.5
Q 23.9 0.7 24.05 0.15 24.25 -0.4 24.55 -0.65 24.85 -0.85 25.25 -0.85 25.7 -0.85 26.25 -0.55
L 26.9 -2.15
Q 26.25 -2.5 25.5 -2.5 25 -2.5 24.65 -2.3 24.25 -2.05 23.75 -1.35
L 23.75 -2.35
M 14.25 -2.05
Q 13.3 -1.6 12.8 -0.75 12.3 0.15 12.3 1.05 12.3 2.3 12.8 3.15 13.3 4 14.3 4.4 15.25 4.85 16.3 4.85 18.05 4.85 19.2 3.8 20.35 2.75 20.35 1.15 20.35 -0.45 19.2 -1.5 18.05 -2.5 16.3 -2.5 15.15 -2.5 14.25 -2.05
M 16.3 -1
Q 17.1 -1 17.65 -0.45 18.2 0.1 18.2 1.15 18.2 2.2 17.65 2.8 17.1 3.35 16.3 3.35 15.5 3.35 14.95 2.8 14.4 2.2 14.4 1.15 14.4 0.1 14.95 -0.45 15.5 -1 16.3 -1
M 6.95 -2.35
L 6.95 -0.85 7.85 -0.85 7.85 2.2
Q 7.85 3.2 7.95 3.5 8 4 8.25 4.25 8.45 4.5 8.9 4.7 9.35 4.85 9.9 4.85 10.8 4.85 11.5 4.6
L 11.35 3.15
Q 10.8 3.3 10.5 3.3 10.3 3.3 10.15 3.2 10 3.1 10 3 9.95 2.85 9.95 1.95
L 9.95 -0.85 11.35 -0.85 11.35 -2.35 9.95 -2.35 9.95 -4.85 7.85 -3.75 7.85 -2.35 6.95 -2.35
M 2.45 -2.5
Q 0.95 -2.5 0.2 -2.05 -0.6 -1.55 -0.9 -0.5
L 0.95 -0.2
Q 1.15 -0.7 1.45 -0.9 1.75 -1.1 2.3 -1.1 3.15 -1.1 3.45 -0.85 3.7 -0.65 3.7 -0.1
L 3.7 0.1
Q 3.15 0.3 1.7 0.55 0.65 0.75 0.1 1 -0.5 1.25 -0.8 1.7 -1.1 2.15 -1.1 2.75 -1.1 3.7 -0.4 4.25 0.25 4.85 1.45 4.85 2.15 4.85 2.75 4.65 3.35 4.4 3.9 3.95 3.9 4 3.95 4.15 4.05 4.5 4.15 4.7
L 6.2 4.7
Q 5.9 4.2 5.8 3.75 5.7 3.3 5.7 2.4
L 5.75 0.2
Q 5.75 -1 5.45 -1.45 5.2 -1.95 4.5 -2.2 3.85 -2.5 2.45 -2.5
M 3.7 1.3
L 3.7 1.7
Q 3.7 2.35 3.65 2.6 3.5 2.95 3.15 3.2 2.65 3.55 2.1 3.55 1.6 3.55 1.25 3.25 0.95 2.95 0.95 2.6 0.95 2.2 1.35 1.9 1.6 1.75 2.45 1.6 3.3 1.45 3.7 1.3 Z"/>
</g>
</g>
</g>
</g>
</g>
</svg>
