
<svg xmlns="http://www.w3.org/2000/svg" version="1.1" xmlns:xlink="http://www.w3.org/1999/xlink" preserveAspectRatio="none" x="0px" y="0px" width="26px" height="26px" viewBox="0 0 26 26">
<defs>
<filter id="Filter_1" x="-20%" y="-20%" width="140%" height="140%" color-interpolation-filters="sRGB">
<feColorMatrix in="SourceGraphic" type="matrix" values="0 0 0 0 1 0 0 0 0 1 0 0 0 0 1 0 0 0 1 0" result="result1"/>
</filter>
</defs>

<g id="Layer_1">
<g id="Layer_1" transform="matrix( 0.64300537109375, 0, 0, 0.64300537109375, 13,13.05) ">
<g transform="matrix( 0.899993896484375, 0, 0, 0.899993896484375, -361.3,71.95) ">
<g filter="url(#Filter_1)" transform="matrix( 1.111114501953125, 0, 0, 1.111114501953125, 401.4,-79.9) ">
<path stroke="#FFE465" stroke-width="5" stroke-linejoin="round" stroke-linecap="round" fill="none" d="
M 6.887503051757847 -17.824391174316403
L 17.822428894042957 -17.824391174316403 17.822428894042957 -6.889465332031236
M -17.727330017089855 -6.889465332031236
L -17.727330017089855 -17.824391174316403 -6.792404174804744 -17.824391174316403
M -6.792404174804744 17.72536773681641
L -17.727330017089855 17.72536773681641 -17.727330017089855 6.7904418945312415
M 17.822428894042957 6.7904418945312415
L 17.822428894042957 17.72536773681641 6.887503051757847 17.72536773681641"/>
</g>
</g>
</g>

<g id="Layer_2" transform="matrix( 0.64300537109375, 0, 0, 0.64300537109375, 13,13.05) "/>

<g id="Layer_3" transform="matrix( 0.64300537109375, 0, 0, 0.64300537109375, 13,13.05) "/>
</g>
</svg>
