
<svg xmlns="http://www.w3.org/2000/svg" version="1.1" xmlns:xlink="http://www.w3.org/1999/xlink" preserveAspectRatio="none" x="0px" y="0px" width="244px" height="433px" viewBox="0 0 244 433">
<defs>
<linearGradient id="Gradient_1" gradientUnits="userSpaceOnUse" x1="-133.3" y1="65" x2="113.2" y2="65" spreadMethod="pad">
<stop  offset="0%" stop-color="#1FD6FC"/>

<stop  offset="100%" stop-color="#0261E6"/>
</linearGradient>

<linearGradient id="Gradient_2" gradientUnits="userSpaceOnUse" x1="-126.575" y1="61.7" x2="107.575" y2="61.7" spreadMethod="pad">
<stop  offset="0%" stop-color="#1FD6FC"/>

<stop  offset="100%" stop-color="#0261E6"/>
</linearGradient>
</defs>

<g id="Layer_1">
<g transform="matrix( 1, 0, 0, 1, 131.65,162.3) ">
<g>
<g>
<path fill="url(#Gradient_1)" stroke="none" d="
M 102.05 -153
Q 96.55 -157.3 88.75 -157.3
L -86.55 -157.3
Q -94.35 -157.3 -99.85 -153 -105.35 -148.65 -105.35 -142.5
L -105.35 14.3 -124.9 48.45
Q -126.65 51.4 -126.65 54.6 -126.65 57.75 -124.9 60.75
L -105.35 94.95 -105.35 251.75
Q -105.35 257.9 -99.85 262.25 -94.35 266.55 -86.55 266.55
L 88.75 266.55
Q 96.55 266.55 102.05 262.25 107.55 257.9 107.55 251.75
L 107.55 -142.5
Q 107.55 -148.65 102.05 -153
M 44.55 4.1
L 46.55 32.85 47 35.25 43.35 38.9 42.1 38.9 39.7 40.5
Q 38.9 40.45 38.25 40.85 36.75 41.7 35.25 42.55
L 33.6 42.55 28.75 45 26.75 45 25.9 45.8 17.8 45.4 17 44.55 12.15 43.75
Q 12.4 42.9 11.95 42.6 10.75 41.95 10.15 40.95 7.6 30.7 10.55 19.85 11.05 19.8 11.35 19.05 12.6 16.25 13.75 13.8
L 14.6 13.4 15 12.2 16.2 11.35 17 10.15 18.25 9.75 19.05 8.55 23.1 6.5
Q 23.3 6.5 23.5 6.5 33.2 4.3 44.55 4.1 Z"/>

<path fill="url(#Gradient_2)" stroke="none" d="
M 46.55 32.85
L 44.55 4.1
Q 33.2 4.3 23.5 6.5 23.3 6.5 23.1 6.5
L 19.05 8.55 18.25 9.75 17 10.15 16.2 11.35 15 12.2 14.6 13.4 13.75 13.8
Q 12.6 16.25 11.35 19.05 11.05 19.8 10.55 19.85 7.6 30.7 10.15 40.95 10.75 41.95 11.95 42.6 12.4 42.9 12.15 43.75
L 17 44.55 17.8 45.4 25.9 45.8 26.75 45 28.75 45 33.6 42.55 35.25 42.55
Q 36.75 41.7 38.25 40.85 38.9 40.45 39.7 40.5
L 42.1 38.9 43.35 38.9 47 35.25 46.55 32.85 Z"/>
</g>
</g>

<g>
<path stroke="#0E35A1" stroke-width="10" stroke-linejoin="round" stroke-linecap="round" fill="none" d="
M -105.35 -142.5
Q -105.35 -148.65 -99.85 -153 -94.35 -157.3 -86.55 -157.3
L 88.75 -157.3
Q 96.55 -157.3 102.05 -153 107.55 -148.65 107.55 -142.5
L 107.55 251.75
Q 107.55 257.9 102.05 262.25 96.55 266.55 88.75 266.55
L -86.55 266.55
Q -94.35 266.55 -99.85 262.25 -105.35 257.9 -105.35 251.75
L -105.35 94.95 -124.9 60.75
Q -126.65 57.75 -126.65 54.6 -126.65 51.4 -124.9 48.45
L -105.35 14.3 -105.35 -142.5 Z"/>
</g>
</g>

<g transform="matrix( 1, 0, 0, 1, 131.65,162.3) ">
<g>
<g>
<path fill="url(#Gradient_1)" stroke="none" d="
M 102.05 -153
Q 96.55 -157.3 88.75 -157.3
L -86.55 -157.3
Q -94.35 -157.3 -99.85 -153 -105.35 -148.65 -105.35 -142.5
L -105.35 14.3 -124.9 48.45
Q -126.65 51.4 -126.65 54.6 -126.65 57.75 -124.9 60.75
L -105.35 94.95 -105.35 251.75
Q -105.35 257.9 -99.85 262.25 -94.35 266.55 -86.55 266.55
L 88.75 266.55
Q 96.55 266.55 102.05 262.25 107.55 257.9 107.55 251.75
L 107.55 -142.5
Q 107.55 -148.65 102.05 -153
M 44.55 4.1
L 46.55 32.85 47 35.25 43.35 38.9 42.1 38.9 39.7 40.5
Q 38.9 40.45 38.25 40.85 36.75 41.7 35.25 42.55
L 33.6 42.55 28.75 45 26.75 45 25.9 45.8 17.8 45.4 17 44.55 12.15 43.75
Q 12.4 42.9 11.95 42.6 10.75 41.95 10.15 40.95 7.6 30.7 10.55 19.85 11.05 19.8 11.35 19.05 12.6 16.25 13.75 13.8
L 14.6 13.4 15 12.2 16.2 11.35 17 10.15 18.25 9.75 19.05 8.55 23.1 6.5
Q 23.3 6.5 23.5 6.5 33.2 4.3 44.55 4.1 Z"/>

<path fill="url(#Gradient_2)" stroke="none" d="
M 46.55 32.85
L 44.55 4.1
Q 33.2 4.3 23.5 6.5 23.3 6.5 23.1 6.5
L 19.05 8.55 18.25 9.75 17 10.15 16.2 11.35 15 12.2 14.6 13.4 13.75 13.8
Q 12.6 16.25 11.35 19.05 11.05 19.8 10.55 19.85 7.6 30.7 10.15 40.95 10.75 41.95 11.95 42.6 12.4 42.9 12.15 43.75
L 17 44.55 17.8 45.4 25.9 45.8 26.75 45 28.75 45 33.6 42.55 35.25 42.55
Q 36.75 41.7 38.25 40.85 38.9 40.45 39.7 40.5
L 42.1 38.9 43.35 38.9 47 35.25 46.55 32.85 Z"/>
</g>
</g>

<g>
<path stroke="#FFFFFF" stroke-width="3" stroke-linejoin="round" stroke-linecap="round" fill="none" d="
M -105.35 -142.5
Q -105.35 -148.65 -99.85 -153 -94.35 -157.3 -86.55 -157.3
L 88.75 -157.3
Q 96.55 -157.3 102.05 -153 107.55 -148.65 107.55 -142.5
L 107.55 251.75
Q 107.55 257.9 102.05 262.25 96.55 266.55 88.75 266.55
L -86.55 266.55
Q -94.35 266.55 -99.85 262.25 -105.35 257.9 -105.35 251.75
L -105.35 94.95 -124.9 60.75
Q -126.65 57.75 -126.65 54.6 -126.65 51.4 -124.9 48.45
L -105.35 14.3 -105.35 -142.5 Z"/>
</g>
</g>
</g>
</svg>
