
<svg xmlns="http://www.w3.org/2000/svg" version="1.1" xmlns:xlink="http://www.w3.org/1999/xlink" preserveAspectRatio="none" x="0px" y="0px" width="708px" height="161px" viewBox="0 0 708 161">
<defs>
<linearGradient id="Gradient_1" gradientUnits="userSpaceOnUse" x1="1238.7" y1="86.625" x2="1238.7" y2="132.275" spreadMethod="pad">
<stop  offset="0%" stop-color="#FCFCFC"/>

<stop  offset="100%" stop-color="#1FD6FC"/>
</linearGradient>

<linearGradient id="Gradient_2" gradientUnits="userSpaceOnUse" x1="0" y1="153.725" x2="0" y2="4.974999999999994" spreadMethod="pad">
<stop  offset="0%" stop-color="#1FD6FC"/>

<stop  offset="100%" stop-color="#0261E6"/>
</linearGradient>
</defs>

<g id="Layer_1">
<g id="Layer_4" transform="matrix( 1, 0, 0, 1, 354,0) "/>

<g id="Layer_1" transform="matrix( 1, 0, 0, 1, 354,0) ">
<g id="Layer_1" transform="matrix( 1, 0, 0, 1, 0,88.9) ">
<g transform="matrix( 0.765350341796875, 0, 0, 0.765350341796875, -948,-83.75) ">
<g>
<g>
<path fill="url(#Gradient_1)" stroke="none" d="
M 1251.1 108.95
Q 1246.7248046875 107.1462890625 1243.3 101.3 1239.6091796875 94.973046875 1238.7 86.6 1237.778515625 94.973046875 1234.05 101.3 1230.659765625 107.1462890625 1226.3 108.95 1225.54140625 109.259765625 1224.75 109.45 1225.5427734375 109.6392578125 1226.3 109.95 1230.65 111.75 1234.05 117.55 1237.8 123.9 1238.7 132.3 1239.6 123.9 1243.3 117.55 1246.7 111.75 1251.1 109.95 1251.8572265625 109.639453125 1252.65 109.45 1251.85859375 109.2599609375 1251.1 108.95 Z"/>
</g>
</g>
</g>
</g>

<g>
<g>
<g>
<path fill="url(#Gradient_2)" stroke="none" d="
M 352.5 33.1
Q 352.5 26.6 347.95 22.05 343.4 17.5 336.9 17.5
L -336.9 17.5
Q -343.4 17.5 -347.95 22.05 -352.5 26.6 -352.5 33.1
L -352.5 126.8
Q -352.5 133.25 -347.95 137.85 -343.4 142.4 -336.9 142.4
L -42.4 142.4 -6.45 158.65
Q -3.35 160.05 0 160.05 3.3 160.05 6.45 158.65
L 42.45 142.4 336.9 142.4
Q 343.4 142.4 347.95 137.85 352.5 133.25 352.5 126.8
L 352.5 33.1 Z"/>
</g>
</g>

<g>
<path stroke="#FFFFFF" stroke-width="3" stroke-linejoin="round" stroke-linecap="round" fill="none" d="
M -6.45 158.65
L -42.4 142.4 -336.9 142.4
Q -343.4 142.4 -347.95 137.85 -352.5 133.25 -352.5 126.8
L -352.5 33.1
Q -352.5 26.6 -347.95 22.05 -343.4 17.5 -336.9 17.5
L 336.9 17.5
Q 343.4 17.5 347.95 22.05 352.5 26.6 352.5 33.1
L 352.5 126.8
Q 352.5 133.25 347.95 137.85 343.4 142.4 336.9 142.4
L 42.45 142.4 6.45 158.65
Q 3.3 160.05 0 160.05 -3.35 160.05 -6.45 158.65 Z"/>
</g>
</g>
</g>

<g id="Layer_2" transform="matrix( 1, 0, 0, 1, 354,0) "/>

<g id="Layer_3" transform="matrix( 1, 0, 0, 1, 354,0) "/>
</g>
</svg>
