
<svg xmlns="http://www.w3.org/2000/svg" version="1.1" xmlns:xlink="http://www.w3.org/1999/xlink" preserveAspectRatio="none" x="0px" y="0px" width="49px" height="29px" viewBox="0 0 49 29">
<defs>
<filter id="Filter_1" x="-20%" y="-20%" width="140%" height="140%" color-interpolation-filters="sRGB">
<feColorMatrix in="SourceGraphic" type="matrix" values="0 0 0 0 1 0 0 0 0 0.8941176470588236 0 0 0 0 0.396078431372549 0 0 0 1 0" result="result1"/>
</filter>
</defs>

<g id="Layer_1">
<g id="Layer_1" transform="matrix( 1.3229217529296875, 0, 0, 1.3229217529296875, 1.45,14.95) "/>

<g id="Layer_2" transform="matrix( 1.3229217529296875, 0, 0, 1.3229217529296875, 1.45,14.95) ">
<g transform="matrix( -1.3370361328125, 0, 0, 0.9999847412109375, 59.55,0) ">
<g filter="url(#Filter_1)" transform="matrix( -0.7479095458984375, 0, 0, 1.0000152587890625, 44.5,0) ">
<path stroke="#FFFFFF" stroke-width="3.5" stroke-linejoin="miter" stroke-linecap="square" stroke-miterlimit="3" fill="none" d="
M 18.56984252929687 0
Q 18.56984252929687 3.7499427795410156 20.842803955078125 6.349903106689453 23.115765380859372 8.999862670898438 26.324652099609374 8.999862670898438 29.53353881835937 8.999862670898438 31.806500244140622 6.349903106689453 34.07946166992187 3.7499427795410156 34.07946166992187 0 34.07946166992187 -3.7499427795410156 31.806500244140622 -6.39990234375 29.53353881835937 -8.999862670898438 26.324652099609374 -8.999862670898438 23.115765380859372 -8.999862670898438 20.842803955078125 -6.39990234375 18.56984252929687 -3.7499427795410156 18.56984252929687 0 Z"/>
</g>
</g>

<g transform="matrix( 1.3370361328125, 0, 0, 0.9999847412109375, -24.15,0) ">
<g filter="url(#Filter_1)" transform="matrix( 0.7479095458984375, 0, 0, 1.0000152587890625, 18.05,0) ">
<path stroke="#FFFFFF" stroke-width="3.5" stroke-linejoin="miter" stroke-linecap="square" stroke-miterlimit="3" fill="none" d="
M 16.830157470703128 0
Q 16.830157470703128 3.7499427795410156 14.557196044921874 6.349903106689453 12.284234619140626 8.999862670898438 9.075347900390625 8.999862670898438 5.866461181640627 8.999862670898438 3.5934997558593764 6.349903106689453 1.3205383300781257 3.7499427795410156 1.3205383300781257 0 1.3205383300781257 -3.7499427795410156 3.5934997558593764 -6.39990234375 5.866461181640627 -8.999862670898438 9.075347900390625 -8.999862670898438 12.284234619140626 -8.999862670898438 14.557196044921874 -6.39990234375 16.830157470703128 -3.7499427795410156 16.830157470703128 0 Z"/>
</g>
</g>
</g>

<g id="Layer_3" transform="matrix( 1.3229217529296875, 0, 0, 1.3229217529296875, 1.45,14.95) ">
<g transform="matrix( -1, 0, 0, 1, 52.7,0) ">
<g filter="url(#Filter_1)">
<g>
<path fill="#FFFFFF" stroke="none" d="
M 32.45 -2.6
Q 31.5 -3.75 30.1 -3.75 28.65 -3.75 27.65 -2.6 26.65 -1.55 26.65 0.05 26.65 1.55 27.65 2.7 28.65 3.8 30.1 3.8 31.5 3.8 32.45 2.7 33.45 1.55 33.45 0.05 33.45 -1.55 32.45 -2.6
M 30.4 -1.8
Q 31.15 -1.8 31.7 -1.25 32.25 -0.7 32.25 0.1 32.25 0.85 31.7 1.4 31.15 1.95 30.4 1.95 29.6 1.95 29.05 1.4 28.5 0.85 28.5 0.1 28.5 -0.7 29.05 -1.25 29.6 -1.8 30.4 -1.8 Z"/>
</g>
</g>

<g filter="url(#Filter_1)" transform="matrix( -1, 0, 0, 1, 52.7,0) ">
<path stroke="#FFFFFF" stroke-width="2.5" stroke-linejoin="miter" stroke-linecap="square" stroke-miterlimit="3" fill="none" d="
M 19.25 0.05
Q 19.25 1.55 20.25 2.7 21.200000000000003 3.8 22.6 3.8 24.050000000000004 3.8 25.050000000000004 2.7 26.050000000000004 1.55 26.050000000000004 0.05 26.050000000000004 -1.55 25.050000000000004 -2.6 24.050000000000004 -3.75 22.6 -3.75 21.200000000000003 -3.75 20.25 -2.6 19.25 -1.55 19.25 0.05 Z"/>
</g>
</g>

<g>
<g filter="url(#Filter_1)">
<g>
<path fill="#FFFFFF" stroke="none" d="
M 15.15 -2.6
Q 14.2 -3.75 12.8 -3.75 11.35 -3.75 10.35 -2.6 9.35 -1.55 9.35 0.05 9.35 1.55 10.35 2.7 11.35 3.8 12.8 3.8 14.2 3.8 15.15 2.7 16.15 1.55 16.15 0.05 16.15 -1.55 15.15 -2.6
M 13.15 -1.8
Q 13.9 -1.8 14.45 -1.25 15 -0.7 15 0.1 15 0.85 14.45 1.4 13.9 1.95 13.15 1.95 12.35 1.95 11.8 1.4 11.25 0.85 11.25 0.1 11.25 -0.7 11.8 -1.25 12.35 -1.8 13.15 -1.8 Z"/>
</g>
</g>

<g filter="url(#Filter_1)">
<path stroke="#FFFFFF" stroke-width="2.5" stroke-linejoin="miter" stroke-linecap="square" stroke-miterlimit="3" fill="none" d="
M 16.15 0.05
Q 16.15 1.55 15.15 2.7 14.2 3.8 12.8 3.8 11.35 3.8 10.35 2.7 9.35 1.55 9.35 0.05 9.35 -1.55 10.35 -2.6 11.35 -3.75 12.8 -3.75 14.2 -3.75 15.15 -2.6 16.15 -1.55 16.15 0.05 Z"/>
</g>
</g>
</g>

<g id="Layer_4" transform="matrix( 1.3229217529296875, 0, 0, 1.3229217529296875, 1.45,14.95) "/>
</g>
</svg>
