
<svg xmlns="http://www.w3.org/2000/svg" version="1.1" xmlns:xlink="http://www.w3.org/1999/xlink" preserveAspectRatio="none" x="0px" y="0px" width="38px" height="38px" viewBox="0 0 38 38">
<defs>
<filter id="Filter_1" x="-20%" y="-20%" width="140%" height="140%" color-interpolation-filters="sRGB">
<feColorMatrix in="SourceGraphic" type="matrix" values="0 0 0 0 1 0 0 0 0 0.8941176470588236 0 0 0 0 0.396078431372549 0 0 0 1 0" result="result1"/>
</filter>
</defs>

<g id="Layer_1">
<g id="Layer_1" transform="matrix( 1.25994873046875, 0, 0, 1.25994873046875, 19.3,19.3) "/>

<g id="Layer_2" transform="matrix( 1.25994873046875, 0, 0, 1.25994873046875, 19.3,19.3) "/>

<g id="Layer_3" transform="matrix( 1.25994873046875, 0, 0, 1.25994873046875, 19.3,19.3) "/>

<g id="Layer_5" transform="matrix( 1.25994873046875, 0, 0, 1.25994873046875, 19.3,19.3) "/>

<g id="Layer_7" transform="matrix( 1.25994873046875, 0, 0, 1.25994873046875, 19.3,19.3) ">
<g transform="matrix( 0.634979248046875, 0, 0, 0.634979248046875, 44.45,93.5) ">
<g filter="url(#Filter_1)">
<g>
<path fill="#FFFFFF" stroke="none" d="
M -60.4 -156.85
Q -57.75 -156.45 -55.25 -155.8 -54.85 -156.4 -54.45 -156.95 -57.95 -158.25 -61.75 -159 -61.05 -157.95 -60.4 -156.85
M -50.45 -151.85
Q -54.45 -153.35 -58.9 -154.15 -58.35 -153.05 -57.8 -151.95 -54.4 -151.5 -51.2 -150.7 -50.8 -151.3 -50.45 -151.85
M -66.25 -161.15
Q -70.25 -156.1 -73.05 -149.7 -80 -149 -86.05 -146.75 -85.7984375 -146.37265625 -85.55 -146 -86.8 -139.65 -86.55 -133.65 -85.7 -133.9 -84.85 -134.15 -84.55 -138.15 -83.65 -142.3
L -83.45 -143.2
Q -82.52421875 -142.0146484375 -81.5 -140.9 -82.75 -134.55 -82.5 -128.55 -81.65 -128.8 -80.8 -129.05 -80.5 -133.05 -79.6 -137.2
L -79.3 -138.65
Q -78.35 -137.65 -77.3 -136.7 -78.75 -129.9 -78.5 -123.45 -72.3 -125.2 -66.25 -128.7 -60.2 -125.2 -54 -123.45 -53.75 -129.9 -55.2 -136.7 -50 -141.4 -46.4 -146.75 -52.45 -149 -59.4 -149.7 -62.25 -156.1 -66.25 -161.15
M -71.9 -168.05
Q -73.05 -169.75 -74.3 -171.35 -78.3 -166.3 -81.1 -159.9 -88.1 -159.2 -94.1 -156.95 -93.05 -155.3 -91.8 -153.75
L -90.9 -154.1
Q -85.2 -156.2 -78.7 -157.05 -75.95 -162.95 -72.15 -167.75
L -71.9 -168.05
M -70.25 -166.25
Q -74.25 -161.2 -77.1 -154.8 -84.05 -154.1 -90.1 -151.85 -89 -150.2 -87.8 -148.65
L -86.9 -149
Q -81.2 -151.1 -74.7 -151.95 -71.9 -157.85 -68.1 -162.65
L -67.9 -162.95
Q -69 -164.65 -70.25 -166.25 Z"/>
</g>
</g>
</g>
</g>

<g id="Layer_4" transform="matrix( 1.25994873046875, 0, 0, 1.25994873046875, 19.3,19.3) "/>

<g id="Layer_6" transform="matrix( 1.25994873046875, 0, 0, 1.25994873046875, 19.3,19.3) "/>
</g>
</svg>
