
<svg xmlns="http://www.w3.org/2000/svg" version="1.1" xmlns:xlink="http://www.w3.org/1999/xlink" preserveAspectRatio="none" x="0px" y="0px" width="25px" height="24px" viewBox="0 0 25 24">
<defs/>

<g id="Layer_1">
<g id="Layer_4" transform="matrix( 0.44219970703125, 0, 0, 0.44219970703125, 12.95,12.05) ">
<g transform="matrix( -0.79998779296875, 0, 0, -0.79998779296875, 0,0) ">
<g transform="matrix( -1.2500152587890625, 0, 0, -1.2500152587890625, 0,0) ">
<path stroke="#FFFFFF" stroke-width="9" stroke-linejoin="round" stroke-linecap="round" fill="none" d="
M -21.59967041015625 -7.3998870849609375
Q -19.99969482421875 -12.239813232421875 -16.119754028320312 -16.119754028320312 -9.43985595703125 -22.759652709960935 0 -22.759652709960935 9.43985595703125 -22.759652709960935 16.079754638671876 -16.119754028320312 19.95969543457031 -12.239813232421875 21.59967041015625 -7.3998870849609375"/>
</g>
</g>

<g transform="matrix( 0.79998779296875, 0, 0, 0.79998779296875, 0,0) ">
<g transform="matrix( 1.2500152587890625, 0, 0, 1.2500152587890625, 0,0) ">
<path stroke="#FFFFFF" stroke-width="9" stroke-linejoin="round" stroke-linecap="round" fill="none" d="
M 21.59967041015625 7.3998870849609375
Q 19.99969482421875 12.239813232421875 16.119754028320312 16.119754028320312 9.43985595703125 22.759652709960935 0 22.759652709960935 -9.43985595703125 22.759652709960935 -16.079754638671876 16.119754028320312 -19.95969543457031 12.239813232421875 -21.59967041015625 7.3998870849609375"/>
</g>
</g>

<g transform="matrix( -0.611968994140625, 0, 0, -0.611968994140625, 25.95,-21.95) ">
<g>
<g>
<path fill="#FFFFFF" stroke="none" d="
M 85.35 -45
L 85.35 -67.05 63.3 -45 85.35 -45 Z"/>
</g>
</g>

<g transform="matrix( -1.634063720703125, 0, 0, -1.634063720703125, 42.4,-35.85) ">
<path stroke="#FFFFFF" stroke-width="6" stroke-linejoin="miter" stroke-linecap="round" stroke-miterlimit="3" fill="none" d="
M -12.78763732910156 5.588604736328126
L -26.28155364990234 5.588604736328126 -26.28155364990234 19.082521057128904 -12.78763732910156 5.588604736328126 Z"/>
</g>
</g>
</g>

<g id="Layer_3" transform="matrix( 0.44219970703125, 0, 0, 0.44219970703125, 12.95,12.05) ">
<g transform="matrix( 0.611968994140625, 0, 0, 0.611968994140625, -25.95,21.95) ">
<g>
<g>
<path fill="#FFFFFF" stroke="none" d="
M 85.35 -45
L 85.35 -67.05 63.3 -45 85.35 -45 Z"/>
</g>
</g>

<g transform="matrix( 1.634063720703125, 0, 0, 1.634063720703125, 42.4,-35.85) ">
<path stroke="#FFFFFF" stroke-width="6" stroke-linejoin="miter" stroke-linecap="round" stroke-miterlimit="3" fill="none" d="
M 12.78763732910156 -5.588604736328126
L 26.28155364990234 -5.588604736328126 26.28155364990234 -19.082521057128904 12.78763732910156 -5.588604736328126 Z"/>
</g>
</g>
</g>
</g>
</svg>
