
<svg xmlns="http://www.w3.org/2000/svg" version="1.1" xmlns:xlink="http://www.w3.org/1999/xlink" preserveAspectRatio="none" x="0px" y="0px" width="723px" height="441px" viewBox="0 0 723 441">
<defs>
<linearGradient id="Gradient_1" gradientUnits="userSpaceOnUse" x1="0" y1="-204.45000000000002" x2="0" y2="217.75000000000003" spreadMethod="pad">
<stop  offset="0%" stop-color="#1FD6FC" stop-opacity="0.2"/>

<stop  offset="100%" stop-color="#0261E6" stop-opacity="0.2"/>
</linearGradient>

<linearGradient id="Gradient_2" gradientUnits="userSpaceOnUse" x1="0" y1="222.20000000000002" x2="0" y2="-221.9" spreadMethod="pad">
<stop  offset="0%" stop-color="#1FD6FC"/>

<stop  offset="100%" stop-color="#0261E6"/>
</linearGradient>

<linearGradient id="Gradient_3" gradientUnits="userSpaceOnUse" x1="0" y1="-189.175" x2="0" y2="194.77500000000003" spreadMethod="pad">
<stop  offset="0%" stop-color="#FFE465"/>

<stop  offset="100%" stop-color="#E0BA00"/>
</linearGradient>
</defs>

<g id="Layer_1">
<g transform="matrix( 0.95751953125, 0, 0, 0.976318359375, 361.95,220.75) ">
<g>
<g>
<path fill="url(#Gradient_1)" stroke="none" d="
M 363.8 -211.9
Q 357.8 -217.9 349.35 -217.9
L -349.35 -217.9
Q -357.8 -217.9 -363.7 -211.9 -369.65 -205.95 -369.65 -197.5
L -369.65 197.8
Q -369.65 206.25 -363.7 212.3 -357.8 218.2 -349.35 218.2
L 349.35 218.2
Q 357.8 218.2 363.75 212.3
L 363.8 212.25
Q 369.65 206.25 369.65 197.8
L 369.65 -197.5
Q 369.65 -205.95 363.8 -211.9 Z"/>
</g>
</g>

<g transform="matrix( 1.0443572998046875, 0, 0, 1.0242462158203125, -378,-226.1) ">
<path stroke="url(#Gradient_2)" stroke-width="12" stroke-linejoin="miter" stroke-linecap="square" stroke-miterlimit="3" fill="none" d="
M 696.4594482421876 8.010229492187506
L 27.440551757812443 8.010229492187506
Q 19.349511718749966 8.010229492187506 13.700146484375011 13.868139648437506 8.002905273437534 19.677233886718767 8.002905273437534 27.9271240234375
L 8.002905273437534 413.86577148437505
Q 8.002905273437534 422.11566162109375 13.700146484375011 428.02238769531255 19.349511718749966 433.78266601562495 27.440551757812443 433.78266601562495
L 696.4594482421876 433.78266601562495
Q 704.55048828125 433.78266601562495 710.2477294921875 428.02238769531255
L 710.29560546875 427.97357177734375
Q 715.8970947265625 422.11566162109375 715.8970947265625 413.86577148437505
L 715.8970947265625 27.9271240234375
Q 715.8970947265625 19.677233886718767 710.29560546875 13.868139648437506 704.55048828125 8.010229492187506 696.4594482421876 8.010229492187506 Z"/>
</g>
</g>

<g transform="matrix( 0.95751953125, 0, 0, 0.976318359375, 361.95,220.65) ">
<g>
<g>
<path fill="url(#Gradient_3)" stroke="none" d="
M 363.8 -211.9
Q 357.8 -217.9 349.35 -217.9
L -349.35 -217.9
Q -357.8 -217.9 -363.7 -211.9 -369.65 -205.95 -369.65 -197.5
L -369.65 197.8
Q -369.65 206.25 -363.7 212.3 -357.8 218.2 -349.35 218.2
L 349.35 218.2
Q 357.8 218.2 363.75 212.3
L 363.8 212.25
Q 369.65 206.25 369.65 197.8
L 369.65 -197.5
Q 369.65 -205.95 363.8 -211.9
M 349.35 -211.8
Q 355.3 -211.8 359.5 -207.55 363.6 -203.4 363.6 -197.5
L 363.6 197.8
Q 363.6 203.75 359.5 207.95 355.3 212.05 349.35 212.05
L -349.35 212.05
Q -355.3 212.05 -359.4 207.95 -363.6 203.75 -363.6 197.8
L -363.6 -197.5
Q -363.6 -203.4 -359.45 -207.55
L -359.4 -207.6
Q -355.3 -211.8 -349.35 -211.8
L 349.35 -211.8 Z"/>
</g>
</g>
</g>
</g>
</svg>
