
<svg xmlns="http://www.w3.org/2000/svg" version="1.1" xmlns:xlink="http://www.w3.org/1999/xlink" preserveAspectRatio="none" x="0px" y="0px" width="35px" height="35px" viewBox="0 0 35 35">
<defs>
<filter id="Filter_1" x="-20%" y="-20%" width="140%" height="140%" color-interpolation-filters="sRGB">
<feColorMatrix in="SourceGraphic" type="matrix" values="0 0 0 0 1 0 0 0 0 0.8941176470588236 0 0 0 0 0.396078431372549 0 0 0 1 0" result="result1"/>
</filter>
</defs>

<g id="Layer_1">
<g id="Layer_1" transform="matrix( 1.3229217529296875, 0, 0, 1.3229217529296875, 8.25,22.35) "/>

<g id="Layer_6" transform="matrix( 1.3229217529296875, 0, 0, 1.3229217529296875, 8.25,22.35) ">
<g>
<g filter="url(#Filter_1)">
<g>
<path fill="#FFFFFF" stroke="none" d="
M 12.6 -13.8
Q 12.275390625 -15.1361328125 11.3 -16.1 10.3201171875 -17.0021484375 9 -16.85 7.730078125 -16.6583984375 7.85 -15.25 8.01484375 -13.8419921875 7.8 -12.5 7.6283203125 -11.1072265625 6.6 -9.45 5.6232421875 -7.736328125 3.7 -6.45 1.833984375 -5.1751953125 1.55 -3.6
L 1.55 6.6
Q 3.7 8.75 6.5 9.6 9.205859375 10.29609375 13 10.05 16.8322265625 9.80859375 18.1 7.8 18.99765625 6.384375 18.5 5.05
L 15.75 5.05
Q 15.35 5.05 15.05 4.75 14.75 4.45 14.75 4.05 14.75 3.65 15.05 3.35 15.35 3.05 15.75 3.05
L 19.45 3.05
Q 20.1130859375 2.4337890625 20.2 1.6 20.4326171875 0.05390625 19.85 -0.8 19.68125 -1.0435546875 19.45 -1.25
L 15.75 -1.25
Q 15.35 -1.25 15.05 -1.55 14.75 -1.85 14.75 -2.25 14.75 -2.65 15.05 -2.95 15.35 -3.25 15.75 -3.25
L 18.65 -3.25
Q 19.3279296875 -4.5833984375 18.15 -5.8 16.5142578125 -7.490234375 11.15 -6.95 11.6 -7.75 11.9 -8.4 12.544140625 -9.694921875 12.75 -11.1 12.9689453125 -12.465234375 12.6 -13.8 Z"/>
</g>
</g>

<g filter="url(#Filter_1)">
<path stroke="#FFFFFF" stroke-width="0.1" stroke-linejoin="round" stroke-linecap="round" fill="none" d="
M 18.675 -3.25
Q 19.3279296875 -4.5833984375 18.175 -5.775 16.5142578125 -7.490234375 11.15 -6.95 11.6 -7.75 11.9 -8.4 12.544140625 -9.694921875 12.75 -11.075 12.9689453125 -12.465234375 12.625 -13.8 12.275390625 -15.1361328125 11.3 -16.075 10.3201171875 -17.0021484375 9.025 -16.825 7.730078125 -16.6583984375 7.875 -15.25 8.01484375 -13.8419921875 7.825 -12.475 7.6283203125 -11.1072265625 6.625 -9.425 5.6232421875 -7.736328125 3.725 -6.45 1.833984375 -5.1751953125 1.55 -3.6
L 1.55 6.6
Q 3.7 8.75 6.5 9.6 9.205859375 10.29609375 13.025 10.05 16.8322265625 9.80859375 18.1 7.8 18.99765625 6.384375 18.525 5.05
M 19.45 3.05
Q 20.1130859375 2.4337890625 20.225 1.6 20.4326171875 0.05390625 19.85 -0.8 19.68125 -1.0435546875 19.45 -1.25"/>
</g>
</g>
</g>

<g id="Layer_5" transform="matrix( 1.3229217529296875, 0, 0, 1.3229217529296875, 8.25,22.35) ">
<g>
<g filter="url(#Filter_1)">
<g>
<path fill="#FFFFFF" stroke="none" d="
M -0.8 -5.85
Q -0.9 -6.05 -1.35 -6.05
L -5.45 -6.05
Q -5.9 -6.05 -6 -5.85 -6.25 -5.6 -6.25 -5.3
L -6.25 6.75
Q -6.25 7.05 -6.05 7.25 -5.85 7.5 -5.45 7.5
L -1.35 7.5
Q -0.95 7.5 -0.75 7.25 -0.55 7.05 -0.55 6.75
L -0.55 -5.3
Q -0.55 -5.6 -0.8 -5.85 Z"/>
</g>
</g>
</g>
</g>

<g id="Layer_4" transform="matrix( 1.3229217529296875, 0, 0, 1.3229217529296875, 8.25,22.35) "/>

<g id="Layer_2" transform="matrix( 1.3229217529296875, 0, 0, 1.3229217529296875, 8.25,22.35) "/>

<g id="Layer_3" transform="matrix( 1.3229217529296875, 0, 0, 1.3229217529296875, 8.25,22.35) "/>
</g>
</svg>
