
<svg xmlns="http://www.w3.org/2000/svg" version="1.1" xmlns:xlink="http://www.w3.org/1999/xlink" preserveAspectRatio="none" x="0px" y="0px" width="286px" height="86px" viewBox="0 0 286 86">
<defs>
<linearGradient id="Gradient_1" gradientUnits="userSpaceOnUse" x1="292.1" y1="161.4375" x2="288.5" y2="-36.13750000000001" spreadMethod="pad">
<stop  offset="0%" stop-color="#2B4183"/>

<stop  offset="52.549019607843135%" stop-color="#5480FF"/>
</linearGradient>

<image id="Bitmap_79" x="0" y="0" width="2560" height="1440" xlink:href="./images/Bitmap_79.png"/>

<filter id="Filter_1" x="-20%" y="-51.41134390141189%" width="140%" height="202.8226878028238%" color-interpolation-filters="sRGB">
<feFlood flood-color="#000000" flood-opacity="0.2980392156862745" in="SourceGraphic" result="result1"/>

<feComposite in2="SourceGraphic" in="result1" operator="in" result="result2"/>

<feGaussianBlur in="result2" stdDeviation="5,5" result="result3"/>

<feOffset dx="0.4357793769950268" dy="4.980973432431238" in="result3" result="result4"/>

<feComposite in2="result4" in="SourceGraphic" operator="over" result="result5"/>
</filter>

<filter id="Filter_2" x="-20%" y="-20%" width="140%" height="140%" color-interpolation-filters="sRGB">
<feColorMatrix in="SourceGraphic" type="matrix" values="3.0742000000000003 -1.8282000000000003 -0.246 0 0 -0.9258 2.1717999999999997 -0.246 0 0 -0.9258 -1.8282000000000003 3.754 0 0 0 0 0 1 0 " result="result1"/>

<feColorMatrix in="result1" type="matrix" values="1 0 0 0 0 0 1 0 0 0 0 0 1 0 0 0 0 0 0.3 0" result="result2"/>
</filter>
</defs>

<g id="Layer_1">
<g filter="url(#Filter_1)" transform="matrix( 1, 0, 0, 1, 0,0) ">
<g id="Layer_23" transform="matrix( 0.405059814453125, 0, 0, 0.405059814453125, 15.15,18.1) ">
<g transform="matrix( 0.74749755859375, 0, 0, 0.7913818359375, 275.1,135.75) ">
<g>
<g>
<path fill="#5480FF" stroke="none" d="
M -335 -155.35
Q -349.3958984375 -157.4671875 -358.45 -152.8 -369.447265625 -147.1015625 -373 -134.8 -374.15 -130.7 -373.25 -126.5 -370.55 -113.95 -359 -108.7 -355.75 -107.3 -352.25 -107.3 -342.55 -106.85 -336.3 -113.6 -334.35 -115.75 -333.35 -118.35 -332.2 -121.4 -332.35 -124.65 -335.35 -117.1 -343.6 -116.15 -346 -116.35 -347.95 -117.8 -354.25 -122.55 -352.2 -129.8 -351.4 -132.6 -349.1 -134.55 -342.35 -140.3 -333.75 -137.9 -330.78125 -137.0095703125 -327.6 -135.1 -327.4626953125 -135.0095703125 -327.35 -134.95 -326.43984375 -134.380859375 -325.6 -133.8 -324.417578125 -132.882421875 -323.35 -131.9 -321.725390625 -130.4232421875 -320.35 -128.8 -309.2 -111.1 -315.15 -90.8 -318.55 -79.05 -323.25 -67.9 -331.15 -49.4 -330.05 -29.3 -329.9 -26.3 -329.45 -23.35 -305.333984375 -35.15234375 -289.75 -37.5 -279.3 -39.05 -270.55 -36.1 -266.25 -34.7 -262.35 -32.1 -250.55 -24.4 -243.8 -32.15 -226.551171875 -51.4576171875 -238.9 -74.4 -243.85 -58.5 -263.1 -64.4 -266.8 -66 -270.55 -66.65 -287.137109375 -69.751953125 -300.2 -55.8 -269.3541015625 -120.8017578125 -298.45 -166.15 -306.8224609375 -176.7634765625 -314 -168.4 -321.1296875 -160.03984375 -326.5 -157.45 -331.82578125 -154.8548828125 -335 -155.35 Z"/>
</g>
</g>

<g transform="matrix( 1.3377838134765625, 0, 0, 1.26361083984375, -368,-171.5) ">
<path stroke="#3A59B1" stroke-width="18" stroke-linejoin="round" stroke-linecap="round" fill="none" d="
M 52.00935363769534 4.261907958984381
Q 45.75095952749254 -4.137404608726484 40.404454040527355 2.4812988281250057 35.05634260177615 9.097374629974368 31.06073455810548 11.146929931640628 27.06103863716129 13.200658535957345 24.688317871093773 12.828616333007815 13.927418935298931 11.133328056335458 7.178187561035145 14.826855468749997 -1.060929083824135 19.336495399475098 -3.7165893554687273 29.071728515624997 -4.576211547851528 32.31639404296875 -3.9034637451171648 35.64019775390625 -1.8852203369140739 45.57203979492188 6.748376464843773 49.72679443359375 9.17774353027346 50.83472900390625 11.793984985351585 50.83472900390625 19.044711303710926 51.19085083007813 23.716571044921892 45.84902343750001 25.1741912841797 44.147552490234375 25.92168884277345 42.08995971679688 26.78131103515628 39.67624511718749 26.6691864013672 37.10425415039062 24.42669372558595 43.07918701171876 18.25983886718751 43.83099975585937 16.465844726562523 43.67272338867188 15.008224487304744 42.5252197265625 10.298989868164085 38.76615600585937 11.831359863281307 33.0286376953125 12.429357910156284 30.81276855468751 14.148602294921886 29.269573974609372 19.1942108154297 24.719128417968747 25.62268981933596 26.61844482421874 27.841823196411156 27.323114705085757 30.21979980468751 28.83431396484376 30.322434723377256 28.905878376960757 30.42536163330081 28.97280578613281 31.08701376914979 29.40342879295349 31.71479492187501 29.863110351562497 32.59865238666538 30.58926501274108 33.39666442871095 31.36673583984374 34.611055970191984 32.535415148735055 35.6391571044922 33.82001953125 43.97375488281253 47.82747802734376 39.52614440917972 63.892529296875 36.984652709960955 73.19126586914064 33.471414184570335 82.01517333984376 27.56618347167972 96.6557373046875 28.38843078613283 112.56251220703125 28.50055541992191 114.93665771484375 28.83692932128909 117.29101867675782 46.86359212398531 107.9310736656189 58.51258239746096 106.07318115234375 66.32393188476564 104.84653930664062 72.86453552246095 107.18111572265624 76.07877502441409 108.28905029296875 78.9940155029297 110.34664306640624 87.81448669433595 116.440283203125 92.86009521484377 110.30707397460938 105.7535521268845 95.0273764371872 96.52283325195313 76.87119140625 92.8227203369141 89.45416259765625 78.43339233398439 84.785009765625 75.66765136718752 83.518798828125 72.86453552246095 83.00440063476563 60.465711760520946 80.54957127571106 50.70123291015628 91.59089355468751 73.7584666848183 40.149683117866516 52.00935363769534 4.261907958984381 Z"/>
</g>
</g>

<g transform="matrix( -1.0357818603515625, 0, 0, -0.9561767578125, -78.15,16.75) ">
<g>
<g>
<path fill="#5480FF" stroke="none" d="
M -179.65 -67.6
Q -180.0275390625 -80.3341796875 -189.95 -88.8 -199.8314453125 -97.2767578125 -201.45 -105.35 -203.331640625 -97.63125 -212.85 -89.5 -222.7 -81.05 -223.1 -68.25 -223.5 -55.5 -213.95 -47.9 -204.4 -40.35 -201.2 -31.75 -197.974609375 -39.9484375 -188.8 -47.25 -179.2654296875 -54.80546875 -179.65 -67.6
M -201.45 -56.05
Q -201.75 -57.5 -202.45 -58.8 -203.2 -60.15 -204.5 -61.15 -205.15 -61.65 -205.5 -62.25 -206.35 -63.65 -206.25 -65.15 -206.15 -66.5 -205.4 -67.75 -205.2 -68.05 -205.05 -68.35 -201.65 -73.1 -197.9 -68.35 -197.7 -68.05 -197.5 -67.75 -196.8 -66.5 -196.7 -65.15 -196.6 -63.65 -197.4 -62.25 -197.8 -61.65 -198.4 -61.15 -199.7 -60.15 -200.45 -58.8 -201.2 -57.5 -201.45 -56.05 Z"/>
</g>
</g>

<g transform="matrix( -0.9654541015625, 0, 0, -1.0458221435546875, -75.45,17.5) ">
<path stroke="#3A59B1" stroke-width="18" stroke-linejoin="round" stroke-linecap="round" fill="none" d="
M 117.405615234375 61.90544738769531
Q 107.52988025844095 69.1537154197693 107.9282112121582 81.36364440917968 108.31925932466984 93.56367547512055 118.57086982727051 101.65849609375 128.83178618252276 109.76377489566802 130.50825576782225 117.48322143554687 132.45722499489784 110.10273208618163 142.31616897583007 102.32781982421875 152.51862030029295 94.24812622070313 152.93293304443358 82.00906372070312 153.3472457885742 69.81781005859375 143.45552902221678 62.55086669921875 133.56381225585938 55.331732177734374 130.24931030273436 47.108612060546875 126.90850920081138 54.94776744842529 117.405615234375 61.90544738769531 Z
M 130.50825576782225 70.34370727539061
Q 130.24931030273436 71.73016357421875 129.4724739074707 72.97319335937499 128.695637512207 74.26403198242187 127.34912109375 75.22020874023437 126.72765197753907 75.69829711914062 126.31333923339844 76.27200317382812 125.48471374511718 77.61065063476562 125.58829193115233 79.04491577148438 125.6918701171875 80.33575439453125 126.41691741943359 81.53097534179688 126.62407379150389 81.81782836914063 126.83123016357422 82.10468139648437 130.71541213989258 86.64652099609374 134.2370704650879 82.10468139648437 134.3924377441406 81.81782836914063 134.59959411621094 81.53097534179688 135.3764305114746 80.33575439453125 135.48000869750976 79.04491577148438 135.5835868835449 77.61065063476562 134.7031723022461 76.27200317382812 134.34064865112305 75.69829711914062 133.66739044189453 75.22020874023437 132.32087402343748 74.26403198242187 131.5440376281738 72.97319335937499 130.81899032592773 71.73016357421875 130.50825576782225 70.34370727539061 Z"/>
</g>
</g>

<g transform="matrix( 1.0125579833984375, 0, 0, 1.0074615478515625, 303.3,142.15) ">
<g>
<g>
<path fill="#5480FF" stroke="none" d="
M -104.7 -82.85
Q -109 -86.7 -114.75 -87.55 -120.45 -88.3 -126.1 -87.15 -129.2 -86.5 -132.45 -85.75 -137.1 -84.35 -141.1 -86.7 -145.55 -89.45 -147.55 -92.05 -149.5 -78.4 -138.85 -69.45 -127.5193359375 -60.254296875 -144.55 -24.5 -140.3 -26.95 -136.6 -30.15 -133.45 -33 -130.85 -36.4 -128.1 -40.05 -126.55 -44.25 -125.20625 -47.8994140625 -124.65 -52.3 -124.0818359375 -56.70703125 -124.95 -61.95 -125.7654296875 -67.1330078125 -125.05 -69.05 -124.341015625 -70.9216796875 -123.55 -71.35 -118.1 -74.4 -112.9 -70.85 -107.7 -67.35 -116.25 -64.15 -110.05 -61.1 -104.15 -64.6 -99.4 -67.35 -99.85 -73 -100.3 -78.9 -104.7 -82.85 Z"/>
</g>
</g>

<g transform="matrix( 0.9875946044921875, 0, 0, 0.992584228515625, -299.5,-141.05) ">
<path stroke="#3A59B1" stroke-width="18" stroke-linejoin="round" stroke-linecap="round" fill="none" d="
M 162.70632400512696 72.18179550170899
Q 174.1792783588171 81.44611280560494 156.93474349975585 117.46719207763672 161.2381149291992 114.9989112854004 164.98457946777344 111.7750343322754 168.17413711547854 108.90376892089844 170.80678787231446 105.47839965820313 173.59132232666016 101.80116500854493 175.16078720092776 97.56982650756837 176.5214119911194 93.89318216741086 177.08464736938475 89.45976104736329 177.65994642674923 85.01984652280808 176.80619392395022 79.762943649292 175.95521013438702 74.51607603728772 176.6796241760254 72.6099666595459 177.39751196503641 70.69913480579854 178.19846115112307 70.26761856079102 183.71690216064457 67.19486083984376 188.9822036743164 70.7713493347168 194.24750518798828 74.29746475219727 185.59013442993165 77.52134170532227 191.86799392700198 80.59409942626954 197.84208602905272 77.06798400878907 202.6517364501953 74.29746475219727 202.19608535766605 68.60530700683594 201.74043426513674 62.661283874511724 197.2851791381836 58.68181076049805 192.93117980957032 54.80308380126954 187.1089714050293 53.94674148559571 181.3373908996582 53.19114532470704 175.61643829345707 54.349726104736334 172.4775085449219 55.00457611083985 169.18669509887698 55.76017227172852 164.47830047607422 57.17061843872071 160.42806854248047 54.80308380126954 155.92218551635742 52.03256454467774 153.89706954956054 49.41316452026368 151.9225814819336 63.165014648437506 162.70632400512696 72.18179550170899 Z"/>
</g>
</g>

<g transform="matrix( 1.0125579833984375, 0, 0, 1.0125579833984375, 304.7,141.55) ">
<g>
<g>
<path fill="#5480FF" stroke="none" d="
M -96.8 -65.8
Q -100.2 -58.8 -100.7 -50.9 -101.1 -42.9 -97.6 -35.8 -93.95 -28.4 -86.4 -25.5 -82.4 -24.1 -78.25 -24.95 -71.1 -26.25 -67.25 -32.5 -58.35 -23.4 -45.85 -24.3 -41 -24.95 -36.25 -26.4 -51.65 -28.25 -57.6 -43.2 -61.3 -52.4 -61.2 -62.55 -61.15 -71.6 -59.3 -80.5 -58.95 -81.8 -58.7 -83.15 -61.5 -79.75 -65.8 -81.2 -67.75 -81.8 -68.35 -83.7 -69.3 -86.5 -67.4 -89.1 -75.3 -87.65 -81.7 -83.25 -84.9 -81 -87.7 -78.3 -93.35 -72.8 -96.8 -65.8
M -73.25 -52.15
Q -74.65 -50.3 -76.8 -50.3 -78.35 -50.5 -79.2 -51.55 -81.05 -53.8 -81.15 -56.7 -81.2 -59.25 -80 -61.65 -78.8 -63.9 -76.8 -65.3 -74.55 -66.75 -71.85 -67.1 -75.15 -59.95 -73.25 -52.15 Z"/>
</g>
</g>

<g transform="matrix( 0.9875946044921875, 0, 0, 0.9875946044921875, -300.9,-139.75) ">
<path stroke="#3A59B1" stroke-width="18" stroke-linejoin="round" stroke-linecap="round" fill="none" d="
M 267.99477310180663 114.81846923828127
Q 252.4013801574707 112.94523696899415 246.37666015624998 97.8074951171875 242.63019561767578 88.49196166992189 242.7314514160156 78.21449813842776 242.78207931518554 69.0508483886719 244.65531158447266 60.03908233642579 245.0097068786621 58.72275695800782 245.2628463745117 57.355803680419925 242.42768402099608 60.79850082397462 238.0736846923828 59.33029174804689 236.09919662475585 58.72275695800782 235.4916618347168 56.798896789550795 234.52973175048828 53.96373443603517 236.45359191894528 51.33108367919924 228.45438385009766 52.799292755126956 221.97401275634763 57.25454788208009 218.73382720947262 59.532803344726574 215.898664855957 62.26670989990235 210.17771224975587 67.83577880859376 206.68438720703125 74.92368469238282 203.24169006347654 82.0115905761719 202.73541107177732 90.01079864501955 202.33038787841798 98.11126251220705 205.8743408203125 105.30042419433596 209.57017745971677 112.79335327148439 217.21499023437497 115.72977142333986 221.26522216796872 117.14735260009766 225.46733779907225 116.286678314209 232.7071273803711 114.97035293579103 236.60547561645507 108.64186553955079 245.61724166870115 117.85614318847658 258.27421646118165 116.94484100341798 263.18512268066405 116.286678314209 267.99477310180663 114.81846923828127 Z
M 230.53012771606444 88.7451011657715
Q 228.6062675476074 80.84714889526367 231.94770889282228 73.60735931396486 229.21380233764648 73.96175460815431 226.935546875 75.42996368408204 224.91043090820312 76.84754486083986 223.695361328125 79.12580032348635 222.48029174804685 81.55593948364259 222.53091964721676 84.1379623413086 222.63217544555664 87.07438049316409 224.50540771484373 89.35263595581057 225.36608200073243 90.41582183837892 226.935546875 90.61833343505862 229.1125465393066 90.61833343505862 230.53012771606444 88.7451011657715 Z"/>
</g>
</g>

<g transform="matrix( 1.0125579833984375, 0, 0, 1.0379638671875, 304.95,141.4) ">
<g>
<g>
<path fill="#5480FF" stroke="none" d="
M 72.4 -63.5
Q 72.3720703125 -59.3890625 74.2 -54.45 82.0408203125 -32.7728515625 70.95 -23.5 89.92109375 -29.9337890625 90 -44.5 90.0185546875 -48.803125 88.35 -53.75 80.9611328125 -75.612109375 93.35 -81.9 72.384375 -77.3001953125 72.4 -63.5 Z"/>
</g>
</g>

<g transform="matrix( 0.9875946044921875, 0, 0, 0.9634246826171875, -301.15,-136.2) ">
<path stroke="#3A59B1" stroke-width="18" stroke-linejoin="round" stroke-linecap="round" fill="none" d="
M 394.4094978332519 85.60944213867188
Q 386.92784137427805 62.917362546920785 399.4976016998291 56.39075927734375 378.2433767795563 61.165190339088454 378.2845119476318 75.51524353027344 378.2309175699949 79.75629901885986 380.08180236816406 84.90881652832033 388.02108757197857 107.3829642534256 376.79098892211914 117.03379821777344 396.0003213524818 110.32980854511261 396.08021850585936 95.23655700683594 396.09900620281695 90.74411964416504 394.4094978332519 85.60944213867188 Z"/>
</g>
</g>

<g transform="matrix( 0.956512451171875, 0, 0, 0.90313720703125, 309.65,141.2) ">
<g>
<g>
<path fill="#5480FF" stroke="none" d="
M 144.2 -62.8
Q 145.6951171875 -58.951953125 144.45 -55.3 142.4974609375 -49.31171875 136.2 -47.85 134.7615234375 -47.58046875 133.3 -47.85 125.225390625 -49.808984375 122.15 -57.3 119.1869140625 -64.5712890625 122.4 -71.8 124.7474609375 -77.2388671875 130.35 -79.55 134.3564453125 -81.261328125 138.35 -79.85 146.4560546875 -77.2677734375 149.6 -69.8 150.1212890625 -71.74296875 150.1 -73.65 150.127734375 -84.1421875 141.9 -91.4 133.5453125 -98.778125 122.9 -99.65 128.019140625 -93.42421875 125.15 -92.45 122.1923828125 -91.969140625 119.5 -90.85 108.6599609375 -86.4125 104.2 -75.5 101.228515625 -68.11640625 101.15 -60.55 101.093359375 -56.921875 101.75 -53.2 103.6658203125 -41.3693359375 112.5 -33.1 119.23046875 -26.6419921875 127.55 -26.15 130.5935546875 -25.9828125 133.9 -26.55 146.758984375 -28.907421875 150.45 -41.15 151.42734375 -44.67265625 151.4 -47.8 151.417578125 -56.3630859375 144.2 -62.8 Z"/>
</g>
</g>

<g transform="matrix( 1.0454559326171875, 0, 0, 1.10723876953125, -323.7,-156.3) ">
<path stroke="#3A59B1" stroke-width="18" stroke-linejoin="round" stroke-linecap="round" fill="none" d="
M 445.40302963256835 58.653259277343736
Q 453.2490471959114 65.20805978775023 453.2464317321777 74.68394470214842 453.24288217425345 76.40625557899473 452.7442626953125 78.16102294921873 449.7370398581028 71.41659890413284 442.0074104309082 69.08449401855468 438.1636128365993 67.80987107753752 434.3553108215332 69.35543518066406 428.97249963879585 71.44270521402358 426.72712402343745 76.35474853515625 423.6537673175335 82.88326634168624 426.5119087219238 89.47281646728516 429.42964533567425 96.2156529664993 437.1531097412109 97.98488464355466 438.5510751068592 98.2283083438873 439.9509086608887 97.98488464355466 445.95059564709663 96.66475205421446 447.84213638305664 91.27909088134766 449.00919366478917 87.95829770565032 447.57909545898434 84.50556182861328 454.4827988028526 90.29639998674392 454.48989791870116 98.03004150390623 454.49213974475856 100.85446200370788 453.55729827880856 104.03590393066406 450.02679587602614 115.09263174533842 437.75093002319335 117.2217071533203 434.5643611013889 117.73395528793334 431.6770759582519 117.60554046630858 423.6954279184341 117.13862558603286 417.2576507568359 111.3287368774414 408.8076478898525 103.83781348466871 406.97514190673826 93.17567901611326 406.34705697298045 89.79173679351806 406.4012344360351 86.5150421142578 406.4763356089592 79.681539106369 409.3425102233887 73.01314086914061 413.5846055805683 63.1576560974121 423.9771507263183 59.14998474121093 426.52853559851644 58.13924720287322 429.38144607543944 57.70496520996092 432.10190199613567 56.82511200904845 427.2053802490234 51.22495574951171 437.38775420188904 51.98980007171629 445.40302963256835 58.653259277343736 Z"/>
</g>
</g>

<g transform="matrix( 0.84796142578125, 0, 0, 0.8369598388671875, 331.05,137.3) ">
<g>
<g>
<path fill="#5480FF" stroke="none" d="
M 242.35 -62.85
Q 241.744921875 -75.585546875 233.55 -87.4 225.4076171875 -99.223046875 213.7 -98.05 202.0392578125 -96.8697265625 199.5 -84.5 198.0625 -75.5818359375 210 -68.45 211.6359375 -67.6021484375 212.9 -67.6 210.871484375 -80.198046875 217.45 -79.2 222.4658203125 -77.2498046875 224.45 -67.3 226.43359375 -57.3486328125 223.25 -49.8 220.0658203125 -42.2541015625 216.2 -43.45 212.334765625 -44.5919921875 209.65 -51 207.0115234375 -57.375390625 210 -68.45 198.0625 -75.5818359375 199.5 -84.5 198.6 -82.8 197.65 -81 191.6 -70 190.8 -57.2 189.945703125 -44.2517578125 197.75 -33.55 205.562890625 -22.7953125 218.65 -24.25 231.737109375 -25.6548828125 237.35 -37.8 242.954296875 -49.9484375 242.35 -62.85 Z"/>
</g>
</g>

<g transform="matrix( 1.179290771484375, 0, 0, 1.194793701171875, -390.4,-164) ">
<path stroke="#3A59B1" stroke-width="18" stroke-linejoin="round" stroke-linecap="round" fill="none" d="
M 500.23950347900393 66.57689361572267
Q 502.3714971184731 56.22392926514149 512.2805557250977 55.23608779907228 522.1869644522667 54.254294675588625 529.1125900268555 64.14971008300782 536.0403686285019 74.03793286681176 536.5534515380859 84.69707412719728 537.0658719778062 95.49516379833223 532.3136444091797 105.66291809082033 527.5541296720505 115.82789341509343 516.4567657470703 117.0246479034424 505.35940182209015 118.22123892307283 498.7343719482422 109.24092140197754 492.11662924289703 100.2630559116602 492.84104003906253 89.42589721679688 493.5194091796875 78.71281127929689 498.6495758056641 69.50625305175782 499.45513916015625 67.99972534179689 500.23950347900393 66.57689361572267 Z
M 500.23950347900393 66.57689361572267
Q 498.99935989379884 74.0410387724638 509.1218994140625 80.01009902954102 510.50911130905155 80.71971673667431 511.58098754882815 80.72151489257814 509.8608845472336 70.17745561003686 515.4392120361329 71.01278076171876 519.6924341797828 72.6450159162283 521.3749420166016 80.9726028442383 523.0569530010223 89.30149752199651 520.357388305664 95.61940002441408 517.6573267579079 101.93501396477224 514.3792602539063 100.9550189971924 511.10169060230254 99.97829340398313 508.8463119506836 94.63597221374513 506.58778656721114 89.27910230755808 509.1218994140625 80.01009902954102"/>
</g>
</g>

<g>
<g>
<g>
<path fill="#5480FF" stroke="none" d="
M 567.2 94.45
Q 567.1 94.5 567.05 94.5 565.4 93.9 563.6 92.25 558.25 87.5 556.95 80.25 554.35 67.1 562.25 55.15 547.05 61.45 543.85 75.1 543.5 79.4 543.85 83.7 543.95 85.1 544.25 86.5 544.45 87.8 544.65 89.15 548.25 106.05 567.05 116.5 585.8 106.05 589.4 89.15 589.65 87.8 589.85 86.5 590.15 85.1 590.2 83.7 590.65 79.25 590.2 74.7 586.95 60.3 571.65 54.75 579.8 67.15 577.25 80.25 575.85 87.5 570.55 92.25 568.8 93.85 567.2 94.45 Z"/>
</g>
</g>

<g>
<path stroke="#3A59B1" stroke-width="18" stroke-linejoin="round" stroke-linecap="round" fill="none" d="
M 589.4 89.15
Q 589.65 87.8 589.85 86.5 590.15 85.1 590.2 83.7 590.65 79.25 590.2 74.7 586.95 60.3 571.65 54.75 579.8 67.15 577.25 80.25 575.85 87.5 570.55 92.25 568.8 93.85 567.2 94.45 567.1 94.5 567.05 94.5 565.4 93.9 563.6 92.25 558.25 87.5 556.95 80.25 554.35 67.1 562.25 55.15 547.05 61.45 543.85 75.1 543.5 79.4 543.85 83.7 543.95 85.1 544.25 86.5 544.45 87.8 544.65 89.15 548.25 106.05 567.05 116.5 585.8 106.05 589.4 89.15 Z"/>
</g>
</g>

<g>
<g>
<g>
<path fill="#5480FF" stroke="none" d="
M 597.75 75.25
Q 598.15 81.65 602.4 86.55 604.6 89.05 607.9 90.55 611.25 92.1 614 94.55 616.6 96.85 616.95 100.15 617.4 104.55 614.1 107.7 611 110.65 606.5 111.25 602.65 111.7 598.8 110.9 603.7 116.35 610.95 117.1 617.75 117.95 624.25 115.05 631 111.95 634.25 105.45 637.85 98.5 634.7 91.25 631.8 84.7 625.35 81.55 623.65 80.75 622.15 79.7 620.6 78.55 619.4 77.15 616.55 73.5 617.4 69.1 617.95 66.05 620.3 64 621.55 63 623.3 62.8 628.9 61.3 634.05 63.95 631 58.25 624.45 55.75 618 53.3 611.55 55.9 605.45 58.25 601.45 63.45 597.45 68.85 597.75 75.25 Z"/>
</g>
</g>

<g>
<path stroke="#3A59B1" stroke-width="18" stroke-linejoin="round" stroke-linecap="round" fill="none" d="
M 634.05 63.95
Q 631 58.25 624.45 55.75 618 53.3 611.55 55.9 605.45 58.25 601.45 63.45 597.45 68.85 597.75 75.25 598.15 81.65 602.4 86.55 604.6 89.05 607.9 90.55 611.25 92.1 614 94.55 616.6 96.85 616.95 100.15 617.4 104.55 614.1 107.7 611 110.65 606.5 111.25 602.65 111.7 598.8 110.9 603.7 116.35 610.95 117.1 617.75 117.95 624.25 115.05 631 111.95 634.25 105.45 637.85 98.5 634.7 91.25 631.8 84.7 625.35 81.55 623.65 80.75 622.15 79.7 620.6 78.55 619.4 77.15 616.55 73.5 617.4 69.1 617.95 66.05 620.3 64 621.55 63 623.3 62.8 628.9 61.3 634.05 63.95 Z"/>
</g>
</g>

<g transform="matrix( -0.182037353515625, 0.0079498291015625, 0.0079498291015625, 0.182037353515625, 546,-313.25) ">
<g>
<g>
<path fill="#5480FF" stroke="none" d="
M 1002.5 1871.4
Q 1002.65 1870.9498046875 1002.85 1870.55 1003.0880859375 1870.0658203125 1003.4 1869.65 1004.05 1868.6 1004.95 1867.8 1008.839453125 1864.2060546875 1012.95 1867.7 1013.329296875 1865.380078125 1014.2 1863.65 1015.76796875 1860.420703125 1019.15 1859.25 1020.4 1858.8 1021.55 1858.9 1022.25 1858.9 1022.95 1859 1023.5 1859.15 1023.95 1859.4 1026.6 1860.5 1028.1 1863.3 1028.2 1863.55 1028.35 1863.75 1029.2 1865.45 1029.2 1867.7 1029.12734375 1871.3255859375 1026.85 1876.1 1026.773046875 1876.3552734375 1026.65 1876.6 1052.64609375 1837.603125 1104.85 1824.85 1051.4328125 1813.863671875 993.95 1843.7 987.6369140625 1871.925390625 956.15 1895.9 980.874609375 1880.7408203125 1007.3 1884.8 1002.69609375 1882.366796875 1002 1878.5 1001.9 1878.3 1001.8 1878.15 1001.25 1875.25 1002.15 1872.35 1002.3 1871.85 1002.5 1871.4 Z"/>
</g>
</g>

<g transform="matrix( -5.48291015625, 0.23944091796875, 0.23944091796875, 5.48291015625, 3068.65,1586.75) ">
<path stroke="#3A59B1" stroke-width="18" stroke-linejoin="round" stroke-linecap="round" fill="none" d="
M 378.3098419189453 35.232656478881836
Q 378.26720317304137 35.146211686730396 378.2071174621582 35.07299652099607 378.08044586181643 34.887024688720714 377.9102523803711 34.7485496520996 377.1736553758383 34.12523784637449 376.44860763549804 34.79414329528811 376.365669387579 34.37464745640756 376.18906288146974 34.07138023376467 375.8823138296604 33.491242980957054 375.25735092163086 33.30501785278318 375.02622680664064 33.2330383300781 374.8176788330078 33.260384368896496 374.69025268554685 33.26594924926758 374.5636215209961 33.28971786499022 374.4646934509277 33.32139587402344 374.38476409912107 33.370482635498036 373.9111099243164 33.5917907714844 373.6603134155274 34.11342010498049 373.6440971374512 34.15972442626952 373.61838150024414 34.19732437133791 373.4771644592285 34.51354522705077 373.495051574707 34.923129272460926 373.5371005147696 35.582543736696266 373.9852657318115 36.438310623168945 374.00565564334386 36.47941848039625 374.0254493713379 36.523188400268566 368.9877217054367 29.63076623678205 359.38327560424807 27.724233245849632 369.01985961794855 25.29965363740922 379.7210723876953 30.274001312255848 381.0946768760681 35.361888769269 387.0170654296875 39.4758476257324 382.39575008451936 36.91286709308622 377.61761169433595 37.86186676025392 378.4363510549068 37.38233263492583 378.5323257446289 36.67289733886719 378.54893951416017 36.63569488525388 378.56595077514646 36.60759429931642 378.64301681518555 36.075313568115234 378.456128692627 35.554560089111305 378.42484817504885 35.46473388671876 378.38486328125 35.38440704345703 378.35397870242593 35.3036471545696 378.3098419189453 35.232656478881836 Z"/>
</g>
</g>

<g transform="matrix( 0.182037353515625, -0.0079498291015625, 0.0079498291015625, 0.182037353515625, 200.1,-298.15) ">
<g>
<g>
<path fill="#5480FF" stroke="none" d="
M 1002.5 1871.4
Q 1002.65 1870.9498046875 1002.85 1870.55 1003.0880859375 1870.0658203125 1003.4 1869.65 1004.05 1868.6 1004.95 1867.8 1008.839453125 1864.2060546875 1012.95 1867.7 1013.329296875 1865.380078125 1014.2 1863.65 1015.76796875 1860.420703125 1019.15 1859.25 1020.4 1858.8 1021.55 1858.9 1022.25 1858.9 1022.95 1859 1023.5 1859.15 1023.95 1859.4 1026.6 1860.5 1028.1 1863.3 1028.2 1863.55 1028.35 1863.75 1029.2 1865.45 1029.2 1867.7 1029.12734375 1871.3255859375 1026.85 1876.1 1026.773046875 1876.3552734375 1026.65 1876.6 1052.64609375 1837.603125 1104.85 1824.85 1051.4328125 1813.863671875 993.95 1843.7 987.6369140625 1871.925390625 956.15 1895.9 980.874609375 1880.7408203125 1007.3 1884.8 1002.69609375 1882.366796875 1002 1878.5 1001.9 1878.3 1001.8 1878.15 1001.25 1875.25 1002.15 1872.35 1002.3 1871.85 1002.5 1871.4 Z"/>
</g>
</g>

<g transform="matrix( 5.48291015625, 0.23944091796875, -0.23944091796875, 5.48291015625, -1168.5,1586.8) ">
<path stroke="#3A59B1" stroke-width="18" stroke-linejoin="round" stroke-linecap="round" fill="none" d="
M 397.53126373291013 34.387286758422874
Q 397.56620418727397 34.29745397269727 397.61967849731445 34.219279479980514 397.72965545654296 34.02297286987306 397.88712921142576 33.870188140869175 398.56658371388914 33.18503535985951 399.34718399047847 33.78818702697754 399.3932362735271 33.363057988882076 399.54273262023924 33.045549392700195 399.7977394640445 32.440879464149475 400.4040885925293 32.200881195068405 400.6280578613281 32.10902709960942 400.83819580078125 32.11808853149415 400.9656219482422 32.11252365112307 401.0938430786133 32.12516250610355 401.1951560974121 32.14809570312502 401.27906036376953 32.19002761840824 401.7702041625976 32.36920166015625 402.06551971435545 32.866981506347656 402.0857109069824 32.91169586181644 402.11460647583004 32.9469108581543 402.28285293579097 33.249617004394565 402.3007400512695 33.65920104980472 402.31633668839925 34.319770723581314 401.9444805145264 35.211349105834984 401.9277518719435 35.25407798290257 401.9118492126465 35.29940681457521 406.3295398950577 27.994053137302444 415.73121566772454 25.257495880126953 405.91995279192923 23.682231295108807 395.6931274414062 29.5705360412598 394.76829701662064 34.75879940688611 389.2270965576172 39.3733894348145 393.6073861271143 36.41729606390004 398.45006408691404 36.946141052246105 397.5926376283169 36.539807462692295 397.43518218994143 35.84143981933596 397.4153884887695 35.805827331543014 397.39599227905273 35.77931671142579 397.27281723022463 35.25578079223635 397.41359634399413 34.720717620849655 397.4369270324707 34.628506469726574 397.4697570800781 34.54499969482424 397.49348370730877 34.46185485720639 397.53126373291013 34.387286758422874 Z"/>
</g>
</g>

<g transform="matrix( -0.854949951171875, 0.3153076171875, 0.3153076171875, 0.854949951171875, 495.3,110.9) ">
<g>
<g>
<path fill="#5480FF" stroke="none" d="
M 86.15 -101.05
Q 90.3 -104.6 87.3 -109 89.25 -108.8 90.9 -107.85 97.2 -103.85 93.25 -97.55 95.25 -98.5 96.35 -100.3 99.85 -106 96.85 -111.95 95.35 -114.8 92.6 -116.65 92.2 -116.95 91.75 -117.2 90.45 -118 89.05 -118.45 84.9 -119.85 80.25 -118.3 79.7 -118.15 79.15 -117.9 78.05 -117.45 77.15 -116.8 75.15 -115.4 74 -113.2 71.2 -108 74.35 -103.1 75.65 -101.1 77.85 -100 82.4 -97.85 86.15 -101.05 Z"/>
</g>
</g>

<g transform="matrix( -1.02960205078125, 0.3797149658203125, 0.3797149658203125, 1.02960205078125, 467.85,-302.25) ">
<path stroke="#3A59B1" stroke-width="18" stroke-linejoin="round" stroke-linecap="round" fill="none" d="
M 390.4559432983399 35.05799865722656
Q 389.9068939208985 35.01768035888672 389.3893753051758 35.06285705566407 384.9251312255859 35.20386505126953 381.81851959228516 37.70932159423829 380.7634780883789 38.53547973632813 379.90428924560547 39.62933959960938 379.598388671875 39.98496551513672 379.35100097656255 40.36757354736329 377.58320770263674 42.816326904296886 377.1994094848633 45.72589569091798 376.5106399536133 51.75877075195313 381.3002182006836 55.52840881347657 382.80821685791017 56.72048034667969 384.81765899658205 56.902067565917974 379.45416870117185 52.761347961425784 383.57912292480466 47.35511016845704 384.6902481079102 46.02265014648438 386.2943389892578 45.23681030273438 385.11684265136716 49.94451293945313 389.7842269897461 51.67105865478516 393.9992736816406 53.22449493408204 397.21138458251954 49.95170288085938 398.7454360961914 48.31758117675782 399.2262557983399 46.197781372070324 400.3743408203125 41.0153076171875 396.34088134765625 37.452429199218756 394.66401214599614 35.93414306640625 392.51268157958987 35.367828369140625 391.5382766723633 35.095887756347665 390.4559432983399 35.05799865722656 Z"/>
</g>
</g>

<g transform="matrix( 0.9619140625, 0, 0, 0.9619140625, 307.8,140.15) ">
<g>
<g>
<path fill="#5480FF" stroke="none" d="
M 35.5 -147.25
Q 39.180859375 -139.821875 39.7 -132.6 40.65 -118.95 37.85 -112.4 35 -105.95 35.95 -92.1 36.8 -78.3 30.35 -60 20.276171875 -94.9376953125 12.4 -105.25 4.561328125 -115.5228515625 2.3 -123.45 0.055078125 -131.3220703125 3.5 -145.9 -25.48828125 -136.72578125 -33.05 -119 -25.5 -111.55 -23.1 -93.35 -20.7 -75.15 -16.5 -77.1 -12.4 -79.05 -16.95 -89.5 -21.55 -99.95 -14.5 -96.25 10.8767578125 -77.9916015625 26.5 -25.25 42.7541015625 -42.02890625 51.8 -87.75 52.519140625 -88.730859375 52.55 -85.95 52.65 -77.25 52.95 -73.65 53.3 -70.05 55.25 -69.45 57.2 -68.85 57.5 -72.2 57.7 -75.55 56.55 -80.75 55.4 -85.9 55.6 -95.05 55.75 -104.2 61.8 -112.2 67.8 -120.25 74 -122 63.7265625 -139.929296875 35.5 -147.25 Z"/>
</g>
</g>

<g transform="matrix( 1.039581298828125, 0, 0, 1.039581298828125, -319.95,-145.65) ">
<path stroke="#3A59B1" stroke-width="18" stroke-linejoin="round" stroke-linecap="round" fill="none" d="
M 363.11005859375 70.6998046875
Q 362.821484375 73.922216796875 360.945751953125 73.345068359375 359.07001953125 72.767919921875 358.733349609375 69.305029296875 358.444775390625 65.842138671875 358.348583984375 57.473486328125006 358.31889991760255 54.798538589477545 357.6271484375 55.742041015625006 348.925771522522 99.72180404663087 333.29072265625 115.861669921875 318.2625062942505 65.12878170013428 293.85224609375 47.565771484375006 287.070751953125 44.006689453125006 291.495556640625 54.058691406250006 295.872265625 64.110693359375 291.92841796875 65.98642578125 287.88837890625 67.862158203125 285.57978515625 50.355322265625006 283.27119140625 32.848486328125006 276.008740234375 25.682226562500006 283.28246383666993 8.631548309326178 311.1907470703125 -0.16921386718749432 307.85298042297364 13.8294538497925 310.01240234375 21.425756835937506 312.18760566711427 29.026944541931158 319.7517822265625 38.932592773437506 327.3039348602295 48.828095817565924 336.994091796875 82.43515625 343.1984375 64.83212890625 342.380810546875 51.557714843750006 341.4669921875 38.235205078125006 344.208447265625 32.030859375000006 346.901806640625 25.730322265625006 345.98798828125 12.600195312500006 345.4886196136475 5.653372192382818 341.94794921875 -1.4677978515624943 369.09947662353517 5.550041580200201 378.981640625 22.796484375000006 373.0177734375 24.479833984375006 367.2462890625 32.223242187500006 361.426708984375 39.918554687500006 361.282421875 48.720068359375006 361.0900390625 57.521582031250006 362.196240234375 62.475439453125006 363.30244140625 67.477392578125 363.11005859375 70.6998046875 Z"/>
</g>
</g>

<g transform="matrix( 1.0125579833984375, 0, 0, 1.0506591796875, 390.85,140.8) ">
<g>
<g>
<path fill="#5480FF" stroke="none" d="
M 74.25 -54.55
Q 82.15 -32.8 70.95 -23.5 95.55 -31.75 88.3 -53.4 80.95 -75.1 93 -80.45 66.35 -76.3 74.25 -54.55 Z"/>
</g>
</g>

<g transform="matrix( 0.9875946044921875, 0, 0, 0.9517822265625, -386,-134) ">
<path stroke="#3A59B1" stroke-width="18" stroke-linejoin="round" stroke-linecap="round" fill="none" d="
M 480.25886993408204 84.6947998046875
Q 472.81656875610355 61.89549560546877 485.0178924560547 56.27446899414063 458.0332221984863 60.634704589843764 466.032430267334 83.48654174804689 474.0316383361817 106.33837890625001 462.6909889221192 116.10950927734376 487.5999153137207 107.44157104492189 480.25886993408204 84.6947998046875 Z"/>
</g>
</g>

<g transform="matrix( -0.18212890625, -0.0049896240234375, -0.0049896240234375, 0.18212890625, 657.6,-301.55) ">
<g>
<g>
<path fill="#5480FF" stroke="none" d="
M 1002.5 1871.4
Q 1002.65 1870.9498046875 1002.85 1870.55 1003.0880859375 1870.0658203125 1003.4 1869.65 1004.05 1868.6 1004.95 1867.8 1008.839453125 1864.2060546875 1012.95 1867.7 1013.329296875 1865.380078125 1014.2 1863.65 1015.76796875 1860.420703125 1019.15 1859.25 1020.4 1858.8 1021.55 1858.9 1022.25 1858.9 1022.95 1859 1023.5 1859.15 1023.95 1859.4 1026.6 1860.5 1028.1 1863.3 1028.2 1863.55 1028.35 1863.75 1029.2 1865.45 1029.2 1867.7 1029.12734375 1871.3255859375 1026.85 1876.1 1026.773046875 1876.3552734375 1026.65 1876.6 1052.64609375 1837.603125 1104.85 1824.85 1051.4328125 1813.863671875 993.95 1843.7 987.6369140625 1871.925390625 956.15 1895.9 980.874609375 1880.7408203125 1007.3 1884.8 1002.69609375 1882.366796875 1002 1878.5 1001.9 1878.3 1001.8 1878.15 1001.25 1875.25 1002.15 1872.35 1002.3 1871.85 1002.5 1871.4 Z"/>
</g>
</g>

<g transform="matrix( -5.4864959716796875, -0.150299072265625, -0.150299072265625, 5.4864959716796875, 3562.55,1753.25) ">
<path stroke="#3A59B1" stroke-width="18" stroke-linejoin="round" stroke-linecap="round" fill="none" d="
M 465.61413192749023 34.12725639343262
Q 465.57773869335654 34.0380100578069 465.52300491333006 33.960720825195324 465.4098602294922 33.76624221801751 465.24993591308595 33.61604843139651 464.55948650538926 32.94208019375799 463.78885040283205 33.55779380798339 463.73589823842053 33.13350116610525 463.5812725067139 32.81848793029786 463.31649101376536 32.218087565898884 462.7063667297364 31.98799362182615 462.4809509277344 31.899798583984364 462.27100372314453 31.912273406982422 462.14351348876954 31.90878067016604 462.01552429199216 31.92350082397462 461.9146049499512 31.94807586669924 461.83139953613284 31.991362762451217 461.34326934814453 32.17848205566406 461.05610504150394 32.68095855712892 461.03664474487306 32.725991821289085 461.00832748413086 32.76166915893555 460.8450355529785 33.067047119140625 460.8338088989258 33.476837158203125 460.8289513915778 34.1375236868858 461.2152210235596 35.022874069213856 461.2326406568289 35.0653222262859 461.24927673339846 35.11038322448724 456.7137695789337 27.8783390402794 447.26956253051765 25.295148468017544 457.05319411158564 23.560752224922112 467.3736038208008 29.281627655029297 468.3825651705265 34.453787103295326 473.9976181030273 38.977364349365246 469.57019064724443 36.093073028326046 464.73710937500005 36.70051422119138 465.58775455355646 36.280329358577774 465.7338272094727 35.579547119140614 465.75303802490237 35.54362030029296 465.77199935913086 35.51679992675781 465.88664016723635 34.99137039184569 465.7371940612793 34.45870590209955 465.71236953735354 34.366893005371026 465.6781890869141 34.28393707275393 465.65311605632303 34.2011950492859 465.61413192749023 34.12725639343262 Z"/>
</g>
</g>

<g transform="matrix( 0.18212890625, 0.0049896240234375, -0.0049896240234375, 0.18212890625, 311.5,-311.15) ">
<g>
<g>
<path fill="#5480FF" stroke="none" d="
M 1002.5 1871.4
Q 1002.65 1870.9498046875 1002.85 1870.55 1003.0880859375 1870.0658203125 1003.4 1869.65 1004.05 1868.6 1004.95 1867.8 1008.839453125 1864.2060546875 1012.95 1867.7 1013.329296875 1865.380078125 1014.2 1863.65 1015.76796875 1860.420703125 1019.15 1859.25 1020.4 1858.8 1021.55 1858.9 1022.25 1858.9 1022.95 1859 1023.5 1859.15 1023.95 1859.4 1026.6 1860.5 1028.1 1863.3 1028.2 1863.55 1028.35 1863.75 1029.2 1865.45 1029.2 1867.7 1029.12734375 1871.3255859375 1026.85 1876.1 1026.773046875 1876.3552734375 1026.65 1876.6 1052.64609375 1837.603125 1104.85 1824.85 1051.4328125 1813.863671875 993.95 1843.7 987.6369140625 1871.925390625 956.15 1895.9 980.874609375 1880.7408203125 1007.3 1884.8 1002.69609375 1882.366796875 1002 1878.5 1001.9 1878.3 1001.8 1878.15 1001.25 1875.25 1002.15 1872.35 1002.3 1871.85 1002.5 1871.4 Z"/>
</g>
</g>

<g transform="matrix( 5.4864959716796875, -0.150299072265625, 0.150299072265625, 5.4864959716796875, -1662.25,1753.9) ">
<path stroke="#3A59B1" stroke-width="18" stroke-linejoin="round" stroke-linecap="round" fill="none" d="
M 484.8191856384277 34.53519477844242
Q 484.8604106217623 34.44807488024236 484.9192939758301 34.373898315429756 485.0429168701172 34.18590621948243 485.21082458496096 34.04469375610353 485.937138864398 33.409539335966144 486.6729080200195 34.0665225982666 486.74901126027106 33.64576557278639 486.92065238952637 33.33969078063967 487.2179093182087 32.75468808412552 487.8397163391113 32.55834426879886 488.0696228027344 32.48262329101567 488.27857208251953 32.50657424926766 488.4060623168945 32.51006698608404 488.53305358886723 32.53177261352539 488.63247604370116 32.56183624267584 488.7131866455078 32.60961380004886 489.19033966064455 32.82317810058595 489.4495620727539 33.34062347412112 489.46652755737307 33.38665466308595 489.4928489685059 33.423828887939464 489.6391761779785 33.737689208984364 489.6279495239258 34.147479248046864 489.59662640988824 34.807440721988655 489.16246223449707 35.670314407348656 489.14274464547634 35.711745148897194 489.12366638183596 35.75582771301271 494.04833302497866 28.782955515384742 503.61980667114256 26.7207206726074 493.9458103835583 24.453261065483105 483.3276565551758 29.60050125122069 482.03702703118324 34.70966084897526 476.18272552490237 38.919022369384834 480.76143019497397 36.28146405816085 485.55400390625 37.15261077880865 484.72764026522634 36.68648239374164 484.62015533447266 35.9787536621094 484.60294036865236 35.94182891845708 484.58547592163086 35.91401062011727 484.4997749328613 35.38309249877932 484.67816085815434 34.85940933227539 484.70797500610354 34.76909332275392 484.74664611816405 34.68813323974615 484.7762117594481 34.606888103485176 484.8191856384277 34.53519477844242 Z"/>
</g>
</g>

<g transform="matrix( -0.8752899169921875, 0.25347900390625, 0.25347900390625, 0.8752899169921875, 576.7,117.85) ">
<g>
<g>
<path fill="#5480FF" stroke="none" d="
M 86.15 -101.05
Q 90.3 -104.6 87.3 -109 89.25 -108.8 90.9 -107.85 97.2 -103.85 93.25 -97.55 95.25 -98.5 96.35 -100.3 99.85 -106 96.85 -111.95 95.35 -114.8 92.6 -116.65 92.2 -116.95 91.75 -117.2 90.45 -118 89.05 -118.45 84.9 -119.85 80.25 -118.3 79.7 -118.15 79.15 -117.9 78.05 -117.45 77.15 -116.8 75.15 -115.4 74 -113.2 71.2 -108 74.35 -103.1 75.65 -101.1 77.85 -100 82.4 -97.85 86.15 -101.05 Z"/>
</g>
</g>

<g transform="matrix( -1.0540771484375, 0.3052520751953125, 0.3052520751953125, 1.0540771484375, 571.9,-300.25) ">
<path stroke="#3A59B1" stroke-width="18" stroke-linejoin="round" stroke-linecap="round" fill="none" d="
M 477.53562850952153 34.71618194580077
Q 476.9908493041993 34.63677291870117 476.4714179992676 34.644892883300784 472.0084274291993 34.46687088012695 468.7308448791504 36.74421463012693 467.61950454711916 37.49296569824219 466.68441085815437 38.52272033691405 466.3539001464844 38.85560836791991 466.0798278808594 39.21958694458007 464.1417167663575 41.53594055175782 463.551197052002 44.41073532104491 462.4335273742676 50.379147338867185 466.9418724060059 54.48112335205079 468.36095352172856 55.77781829833984 470.35233840942385 56.102385711669925 465.29802551269535 51.58930130004883 469.79843597412116 46.4912239074707 471.0018592834473 45.241458129882815 472.65797882080085 44.572116088867176 471.14741668701174 49.183828735351554 475.6797203063965 51.23917007446289 479.77319030761726 53.08955154418945 483.21077957153324 50.05434875488281 484.8575904846192 48.53387603759765 485.48850936889653 46.453773498535156 487.0036254882813 41.36639404296875 483.2347229003907 37.52462768554686 481.6704856872559 35.89049072265624 479.56503524780277 35.17204284667969 478.61251296997074 34.83123550415037 477.53562850952153 34.71618194580077 Z"/>
</g>
</g>
</g>

<g id="Layer_14" transform="matrix( 0.405059814453125, 0, 0, 0.405059814453125, 15.15,18.1) ">
<g transform="matrix( 0.74749755859375, 0, 0, 0.7913818359375, 275.1,135.75) ">
<g>
<g>
<path fill="#5480FF" stroke="none" d="
M -335 -155.35
Q -349.3958984375 -157.4671875 -358.45 -152.8 -369.447265625 -147.1015625 -373 -134.8 -374.15 -130.7 -373.25 -126.5 -370.55 -113.95 -359 -108.7 -355.75 -107.3 -352.25 -107.3 -342.55 -106.85 -336.3 -113.6 -334.35 -115.75 -333.35 -118.35 -332.2 -121.4 -332.35 -124.65 -335.35 -117.1 -343.6 -116.15 -346 -116.35 -347.95 -117.8 -354.25 -122.55 -352.2 -129.8 -351.4 -132.6 -349.1 -134.55 -342.35 -140.3 -333.75 -137.9 -330.78125 -137.0095703125 -327.6 -135.1 -327.4626953125 -135.0095703125 -327.35 -134.95 -326.43984375 -134.380859375 -325.6 -133.8 -324.417578125 -132.882421875 -323.35 -131.9 -321.725390625 -130.4232421875 -320.35 -128.8 -309.2 -111.1 -315.15 -90.8 -318.55 -79.05 -323.25 -67.9 -331.15 -49.4 -330.05 -29.3 -329.9 -26.3 -329.45 -23.35 -305.333984375 -35.15234375 -289.75 -37.5 -279.3 -39.05 -270.55 -36.1 -266.25 -34.7 -262.35 -32.1 -250.55 -24.4 -243.8 -32.15 -226.551171875 -51.4576171875 -238.9 -74.4 -243.85 -58.5 -263.1 -64.4 -266.8 -66 -270.55 -66.65 -287.137109375 -69.751953125 -300.2 -55.8 -269.3541015625 -120.8017578125 -298.45 -166.15 -306.8224609375 -176.7634765625 -314 -168.4 -321.1296875 -160.03984375 -326.5 -157.45 -331.82578125 -154.8548828125 -335 -155.35 Z"/>
</g>
</g>

<g transform="matrix( 1.3377838134765625, 0, 0, 1.26361083984375, -368,-171.5) ">
<path stroke="#FFFFFF" stroke-width="7" stroke-linejoin="round" stroke-linecap="round" fill="none" d="
M 52.00935363769534 4.261907958984381
Q 45.75095952749254 -4.137404608726484 40.404454040527355 2.4812988281250057 35.05634260177615 9.097374629974368 31.06073455810548 11.146929931640628 27.06103863716129 13.200658535957345 24.688317871093773 12.828616333007815 13.927418935298931 11.133328056335458 7.178187561035145 14.826855468749997 -1.060929083824135 19.336495399475098 -3.7165893554687273 29.071728515624997 -4.576211547851528 32.31639404296875 -3.9034637451171648 35.64019775390625 -1.8852203369140739 45.57203979492188 6.748376464843773 49.72679443359375 9.17774353027346 50.83472900390625 11.793984985351585 50.83472900390625 19.044711303710926 51.19085083007813 23.716571044921892 45.84902343750001 25.1741912841797 44.147552490234375 25.92168884277345 42.08995971679688 26.78131103515628 39.67624511718749 26.6691864013672 37.10425415039062 24.42669372558595 43.07918701171876 18.25983886718751 43.83099975585937 16.465844726562523 43.67272338867188 15.008224487304744 42.5252197265625 10.298989868164085 38.76615600585937 11.831359863281307 33.0286376953125 12.429357910156284 30.81276855468751 14.148602294921886 29.269573974609372 19.1942108154297 24.719128417968747 25.62268981933596 26.61844482421874 27.841823196411156 27.323114705085757 30.21979980468751 28.83431396484376 30.322434723377256 28.905878376960757 30.42536163330081 28.97280578613281 31.08701376914979 29.40342879295349 31.71479492187501 29.863110351562497 32.59865238666538 30.58926501274108 33.39666442871095 31.36673583984374 34.611055970191984 32.535415148735055 35.6391571044922 33.82001953125 43.97375488281253 47.82747802734376 39.52614440917972 63.892529296875 36.984652709960955 73.19126586914064 33.471414184570335 82.01517333984376 27.56618347167972 96.6557373046875 28.38843078613283 112.56251220703125 28.50055541992191 114.93665771484375 28.83692932128909 117.29101867675782 46.86359212398531 107.9310736656189 58.51258239746096 106.07318115234375 66.32393188476564 104.84653930664062 72.86453552246095 107.18111572265624 76.07877502441409 108.28905029296875 78.9940155029297 110.34664306640624 87.81448669433595 116.440283203125 92.86009521484377 110.30707397460938 105.7535521268845 95.0273764371872 96.52283325195313 76.87119140625 92.8227203369141 89.45416259765625 78.43339233398439 84.785009765625 75.66765136718752 83.518798828125 72.86453552246095 83.00440063476563 60.465711760520946 80.54957127571106 50.70123291015628 91.59089355468751 73.7584666848183 40.149683117866516 52.00935363769534 4.261907958984381 Z"/>
</g>
</g>
</g>

<g id="Layer_13" transform="matrix( 0.405059814453125, 0, 0, 0.405059814453125, 15.15,18.1) ">
<g transform="matrix( -1.0357818603515625, 0, 0, -0.9561767578125, -78.15,16.75) ">
<g>
<g>
<path fill="#5480FF" stroke="none" d="
M -179.65 -67.6
Q -180.0275390625 -80.3341796875 -189.95 -88.8 -199.8314453125 -97.2767578125 -201.45 -105.35 -203.331640625 -97.63125 -212.85 -89.5 -222.7 -81.05 -223.1 -68.25 -223.5 -55.5 -213.95 -47.9 -204.4 -40.35 -201.2 -31.75 -197.974609375 -39.9484375 -188.8 -47.25 -179.2654296875 -54.80546875 -179.65 -67.6
M -201.45 -56.05
Q -201.75 -57.5 -202.45 -58.8 -203.2 -60.15 -204.5 -61.15 -205.15 -61.65 -205.5 -62.25 -206.35 -63.65 -206.25 -65.15 -206.15 -66.5 -205.4 -67.75 -205.2 -68.05 -205.05 -68.35 -201.65 -73.1 -197.9 -68.35 -197.7 -68.05 -197.5 -67.75 -196.8 -66.5 -196.7 -65.15 -196.6 -63.65 -197.4 -62.25 -197.8 -61.65 -198.4 -61.15 -199.7 -60.15 -200.45 -58.8 -201.2 -57.5 -201.45 -56.05 Z"/>
</g>
</g>

<g transform="matrix( -0.9654541015625, 0, 0, -1.0458221435546875, -75.45,17.5) ">
<path stroke="#FFFFFF" stroke-width="7" stroke-linejoin="round" stroke-linecap="round" fill="none" d="
M 117.405615234375 61.90544738769531
Q 107.52988025844095 69.1537154197693 107.9282112121582 81.36364440917968 108.31925932466984 93.56367547512055 118.57086982727051 101.65849609375 128.83178618252276 109.76377489566802 130.50825576782225 117.48322143554687 132.45722499489784 110.10273208618163 142.31616897583007 102.32781982421875 152.51862030029295 94.24812622070313 152.93293304443358 82.00906372070312 153.3472457885742 69.81781005859375 143.45552902221678 62.55086669921875 133.56381225585938 55.331732177734374 130.24931030273436 47.108612060546875 126.90850920081138 54.94776744842529 117.405615234375 61.90544738769531 Z
M 130.50825576782225 70.34370727539061
Q 130.24931030273436 71.73016357421875 129.4724739074707 72.97319335937499 128.695637512207 74.26403198242187 127.34912109375 75.22020874023437 126.72765197753907 75.69829711914062 126.31333923339844 76.27200317382812 125.48471374511718 77.61065063476562 125.58829193115233 79.04491577148438 125.6918701171875 80.33575439453125 126.41691741943359 81.53097534179688 126.62407379150389 81.81782836914063 126.83123016357422 82.10468139648437 130.71541213989258 86.64652099609374 134.2370704650879 82.10468139648437 134.3924377441406 81.81782836914063 134.59959411621094 81.53097534179688 135.3764305114746 80.33575439453125 135.48000869750976 79.04491577148438 135.5835868835449 77.61065063476562 134.7031723022461 76.27200317382812 134.34064865112305 75.69829711914062 133.66739044189453 75.22020874023437 132.32087402343748 74.26403198242187 131.5440376281738 72.97319335937499 130.81899032592773 71.73016357421875 130.50825576782225 70.34370727539061 Z"/>
</g>
</g>
</g>

<g id="Layer_12" transform="matrix( 0.405059814453125, 0, 0, 0.405059814453125, 15.15,18.1) ">
<g transform="matrix( 1.0125579833984375, 0, 0, 1.0074615478515625, 303.3,142.15) ">
<g>
<g>
<path fill="#5480FF" stroke="none" d="
M -104.7 -82.85
Q -109 -86.7 -114.75 -87.55 -120.45 -88.3 -126.1 -87.15 -129.2 -86.5 -132.45 -85.75 -137.1 -84.35 -141.1 -86.7 -145.55 -89.45 -147.55 -92.05 -149.5 -78.4 -138.85 -69.45 -127.5193359375 -60.254296875 -144.55 -24.5 -140.3 -26.95 -136.6 -30.15 -133.45 -33 -130.85 -36.4 -128.1 -40.05 -126.55 -44.25 -125.20625 -47.8994140625 -124.65 -52.3 -124.0818359375 -56.70703125 -124.95 -61.95 -125.7654296875 -67.1330078125 -125.05 -69.05 -124.341015625 -70.9216796875 -123.55 -71.35 -118.1 -74.4 -112.9 -70.85 -107.7 -67.35 -116.25 -64.15 -110.05 -61.1 -104.15 -64.6 -99.4 -67.35 -99.85 -73 -100.3 -78.9 -104.7 -82.85 Z"/>
</g>
</g>

<g transform="matrix( 0.9875946044921875, 0, 0, 0.992584228515625, -299.5,-141.05) ">
<path stroke="#FFFFFF" stroke-width="7" stroke-linejoin="round" stroke-linecap="round" fill="none" d="
M 162.70632400512696 72.18179550170899
Q 174.1792783588171 81.44611280560494 156.93474349975585 117.46719207763672 161.2381149291992 114.9989112854004 164.98457946777344 111.7750343322754 168.17413711547854 108.90376892089844 170.80678787231446 105.47839965820313 173.59132232666016 101.80116500854493 175.16078720092776 97.56982650756837 176.5214119911194 93.89318216741086 177.08464736938475 89.45976104736329 177.65994642674923 85.01984652280808 176.80619392395022 79.762943649292 175.95521013438702 74.51607603728772 176.6796241760254 72.6099666595459 177.39751196503641 70.69913480579854 178.19846115112307 70.26761856079102 183.71690216064457 67.19486083984376 188.9822036743164 70.7713493347168 194.24750518798828 74.29746475219727 185.59013442993165 77.52134170532227 191.86799392700198 80.59409942626954 197.84208602905272 77.06798400878907 202.6517364501953 74.29746475219727 202.19608535766605 68.60530700683594 201.74043426513674 62.661283874511724 197.2851791381836 58.68181076049805 192.93117980957032 54.80308380126954 187.1089714050293 53.94674148559571 181.3373908996582 53.19114532470704 175.61643829345707 54.349726104736334 172.4775085449219 55.00457611083985 169.18669509887698 55.76017227172852 164.47830047607422 57.17061843872071 160.42806854248047 54.80308380126954 155.92218551635742 52.03256454467774 153.89706954956054 49.41316452026368 151.9225814819336 63.165014648437506 162.70632400512696 72.18179550170899 Z"/>
</g>
</g>
</g>

<g id="Layer_11" transform="matrix( 0.405059814453125, 0, 0, 0.405059814453125, 15.15,18.1) ">
<g transform="matrix( 1.0125579833984375, 0, 0, 1.0125579833984375, 304.7,141.55) ">
<g>
<g>
<path fill="#5480FF" stroke="none" d="
M -96.8 -65.8
Q -100.2 -58.8 -100.7 -50.9 -101.1 -42.9 -97.6 -35.8 -93.95 -28.4 -86.4 -25.5 -82.4 -24.1 -78.25 -24.95 -71.1 -26.25 -67.25 -32.5 -58.35 -23.4 -45.85 -24.3 -41 -24.95 -36.25 -26.4 -51.65 -28.25 -57.6 -43.2 -61.3 -52.4 -61.2 -62.55 -61.15 -71.6 -59.3 -80.5 -58.95 -81.8 -58.7 -83.15 -61.5 -79.75 -65.8 -81.2 -67.75 -81.8 -68.35 -83.7 -69.3 -86.5 -67.4 -89.1 -75.3 -87.65 -81.7 -83.25 -84.9 -81 -87.7 -78.3 -93.35 -72.8 -96.8 -65.8
M -73.25 -52.15
Q -74.65 -50.3 -76.8 -50.3 -78.35 -50.5 -79.2 -51.55 -81.05 -53.8 -81.15 -56.7 -81.2 -59.25 -80 -61.65 -78.8 -63.9 -76.8 -65.3 -74.55 -66.75 -71.85 -67.1 -75.15 -59.95 -73.25 -52.15 Z"/>
</g>
</g>

<g transform="matrix( 0.9875946044921875, 0, 0, 0.9875946044921875, -300.9,-139.75) ">
<path stroke="#FFFFFF" stroke-width="7" stroke-linejoin="round" stroke-linecap="round" fill="none" d="
M 267.99477310180663 114.81846923828127
Q 252.4013801574707 112.94523696899415 246.37666015624998 97.8074951171875 242.63019561767578 88.49196166992189 242.7314514160156 78.21449813842776 242.78207931518554 69.0508483886719 244.65531158447266 60.03908233642579 245.0097068786621 58.72275695800782 245.2628463745117 57.355803680419925 242.42768402099608 60.79850082397462 238.0736846923828 59.33029174804689 236.09919662475585 58.72275695800782 235.4916618347168 56.798896789550795 234.52973175048828 53.96373443603517 236.45359191894528 51.33108367919924 228.45438385009766 52.799292755126956 221.97401275634763 57.25454788208009 218.73382720947262 59.532803344726574 215.898664855957 62.26670989990235 210.17771224975587 67.83577880859376 206.68438720703125 74.92368469238282 203.24169006347654 82.0115905761719 202.73541107177732 90.01079864501955 202.33038787841798 98.11126251220705 205.8743408203125 105.30042419433596 209.57017745971677 112.79335327148439 217.21499023437497 115.72977142333986 221.26522216796872 117.14735260009766 225.46733779907225 116.286678314209 232.7071273803711 114.97035293579103 236.60547561645507 108.64186553955079 245.61724166870115 117.85614318847658 258.27421646118165 116.94484100341798 263.18512268066405 116.286678314209 267.99477310180663 114.81846923828127 Z
M 230.53012771606444 88.7451011657715
Q 228.6062675476074 80.84714889526367 231.94770889282228 73.60735931396486 229.21380233764648 73.96175460815431 226.935546875 75.42996368408204 224.91043090820312 76.84754486083986 223.695361328125 79.12580032348635 222.48029174804685 81.55593948364259 222.53091964721676 84.1379623413086 222.63217544555664 87.07438049316409 224.50540771484373 89.35263595581057 225.36608200073243 90.41582183837892 226.935546875 90.61833343505862 229.1125465393066 90.61833343505862 230.53012771606444 88.7451011657715 Z"/>
</g>
</g>
</g>

<g id="Layer_10" transform="matrix( 0.405059814453125, 0, 0, 0.405059814453125, 15.15,18.1) "/>

<g id="Layer_9" transform="matrix( 0.405059814453125, 0, 0, 0.405059814453125, 15.15,18.1) ">
<g transform="matrix( 1.0125579833984375, 0, 0, 1.0379638671875, 304.95,141.4) ">
<g>
<g>
<path fill="#5480FF" stroke="none" d="
M 72.4 -63.5
Q 72.3720703125 -59.3890625 74.2 -54.45 82.0408203125 -32.7728515625 70.95 -23.5 89.92109375 -29.9337890625 90 -44.5 90.0185546875 -48.803125 88.35 -53.75 80.9611328125 -75.612109375 93.35 -81.9 72.384375 -77.3001953125 72.4 -63.5 Z"/>
</g>
</g>

<g transform="matrix( 0.9875946044921875, 0, 0, 0.9634246826171875, -301.15,-136.2) ">
<path stroke="#FFFFFF" stroke-width="7" stroke-linejoin="round" stroke-linecap="round" fill="none" d="
M 394.4094978332519 85.60944213867188
Q 386.92784137427805 62.917362546920785 399.4976016998291 56.39075927734375 378.2433767795563 61.165190339088454 378.2845119476318 75.51524353027344 378.2309175699949 79.75629901885986 380.08180236816406 84.90881652832033 388.02108757197857 107.3829642534256 376.79098892211914 117.03379821777344 396.0003213524818 110.32980854511261 396.08021850585936 95.23655700683594 396.09900620281695 90.74411964416504 394.4094978332519 85.60944213867188 Z"/>
</g>
</g>
</g>

<g id="Layer_8" transform="matrix( 0.405059814453125, 0, 0, 0.405059814453125, 15.15,18.1) ">
<g transform="matrix( 0.956512451171875, 0, 0, 0.90313720703125, 309.65,141.2) ">
<g>
<g>
<path fill="#5480FF" stroke="none" d="
M 144.2 -62.8
Q 145.6951171875 -58.951953125 144.45 -55.3 142.4974609375 -49.31171875 136.2 -47.85 134.7615234375 -47.58046875 133.3 -47.85 125.225390625 -49.808984375 122.15 -57.3 119.1869140625 -64.5712890625 122.4 -71.8 124.7474609375 -77.2388671875 130.35 -79.55 134.3564453125 -81.261328125 138.35 -79.85 146.4560546875 -77.2677734375 149.6 -69.8 150.1212890625 -71.74296875 150.1 -73.65 150.127734375 -84.1421875 141.9 -91.4 133.5453125 -98.778125 122.9 -99.65 128.019140625 -93.42421875 125.15 -92.45 122.1923828125 -91.969140625 119.5 -90.85 108.6599609375 -86.4125 104.2 -75.5 101.228515625 -68.11640625 101.15 -60.55 101.093359375 -56.921875 101.75 -53.2 103.6658203125 -41.3693359375 112.5 -33.1 119.23046875 -26.6419921875 127.55 -26.15 130.5935546875 -25.9828125 133.9 -26.55 146.758984375 -28.907421875 150.45 -41.15 151.42734375 -44.67265625 151.4 -47.8 151.417578125 -56.3630859375 144.2 -62.8 Z"/>
</g>
</g>

<g transform="matrix( 1.0454559326171875, 0, 0, 1.10723876953125, -323.7,-156.3) ">
<path stroke="#FFFFFF" stroke-width="7" stroke-linejoin="round" stroke-linecap="round" fill="none" d="
M 445.40302963256835 58.653259277343736
Q 453.2490471959114 65.20805978775023 453.2464317321777 74.68394470214842 453.24288217425345 76.40625557899473 452.7442626953125 78.16102294921873 449.7370398581028 71.41659890413284 442.0074104309082 69.08449401855468 438.1636128365993 67.80987107753752 434.3553108215332 69.35543518066406 428.97249963879585 71.44270521402358 426.72712402343745 76.35474853515625 423.6537673175335 82.88326634168624 426.5119087219238 89.47281646728516 429.42964533567425 96.2156529664993 437.1531097412109 97.98488464355466 438.5510751068592 98.2283083438873 439.9509086608887 97.98488464355466 445.95059564709663 96.66475205421446 447.84213638305664 91.27909088134766 449.00919366478917 87.95829770565032 447.57909545898434 84.50556182861328 454.4827988028526 90.29639998674392 454.48989791870116 98.03004150390623 454.49213974475856 100.85446200370788 453.55729827880856 104.03590393066406 450.02679587602614 115.09263174533842 437.75093002319335 117.2217071533203 434.5643611013889 117.73395528793334 431.6770759582519 117.60554046630858 423.6954279184341 117.13862558603286 417.2576507568359 111.3287368774414 408.8076478898525 103.83781348466871 406.97514190673826 93.17567901611326 406.34705697298045 89.79173679351806 406.4012344360351 86.5150421142578 406.4763356089592 79.681539106369 409.3425102233887 73.01314086914061 413.5846055805683 63.1576560974121 423.9771507263183 59.14998474121093 426.52853559851644 58.13924720287322 429.38144607543944 57.70496520996092 432.10190199613567 56.82511200904845 427.2053802490234 51.22495574951171 437.38775420188904 51.98980007171629 445.40302963256835 58.653259277343736 Z"/>
</g>
</g>

<g transform="matrix( 0.84796142578125, 0, 0, 0.8369598388671875, 331.05,137.3) ">
<g>
<g>
<path fill="#5480FF" stroke="none" d="
M 242.35 -62.85
Q 241.744921875 -75.585546875 233.55 -87.4 225.4076171875 -99.223046875 213.7 -98.05 202.0392578125 -96.8697265625 199.5 -84.5 198.0625 -75.5818359375 210 -68.45 211.6359375 -67.6021484375 212.9 -67.6 210.871484375 -80.198046875 217.45 -79.2 222.4658203125 -77.2498046875 224.45 -67.3 226.43359375 -57.3486328125 223.25 -49.8 220.0658203125 -42.2541015625 216.2 -43.45 212.334765625 -44.5919921875 209.65 -51 207.0115234375 -57.375390625 210 -68.45 198.0625 -75.5818359375 199.5 -84.5 198.6 -82.8 197.65 -81 191.6 -70 190.8 -57.2 189.945703125 -44.2517578125 197.75 -33.55 205.562890625 -22.7953125 218.65 -24.25 231.737109375 -25.6548828125 237.35 -37.8 242.954296875 -49.9484375 242.35 -62.85 Z"/>
</g>
</g>

<g transform="matrix( 1.179290771484375, 0, 0, 1.194793701171875, -390.4,-164) ">
<path stroke="#FFFFFF" stroke-width="7" stroke-linejoin="round" stroke-linecap="round" fill="none" d="
M 500.23950347900393 66.57689361572267
Q 502.3714971184731 56.22392926514149 512.2805557250977 55.23608779907228 522.1869644522667 54.254294675588625 529.1125900268555 64.14971008300782 536.0403686285019 74.03793286681176 536.5534515380859 84.69707412719728 537.0658719778062 95.49516379833223 532.3136444091797 105.66291809082033 527.5541296720505 115.82789341509343 516.4567657470703 117.0246479034424 505.35940182209015 118.22123892307283 498.7343719482422 109.24092140197754 492.11662924289703 100.2630559116602 492.84104003906253 89.42589721679688 493.5194091796875 78.71281127929689 498.6495758056641 69.50625305175782 499.45513916015625 67.99972534179689 500.23950347900393 66.57689361572267 Z
M 500.23950347900393 66.57689361572267
Q 498.99935989379884 74.0410387724638 509.1218994140625 80.01009902954102 510.50911130905155 80.71971673667431 511.58098754882815 80.72151489257814 509.8608845472336 70.17745561003686 515.4392120361329 71.01278076171876 519.6924341797828 72.6450159162283 521.3749420166016 80.9726028442383 523.0569530010223 89.30149752199651 520.357388305664 95.61940002441408 517.6573267579079 101.93501396477224 514.3792602539063 100.9550189971924 511.10169060230254 99.97829340398313 508.8463119506836 94.63597221374513 506.58778656721114 89.27910230755808 509.1218994140625 80.01009902954102"/>
</g>
</g>

<g>
<g>
<g>
<path fill="#5480FF" stroke="none" d="
M 567.2 94.45
Q 567.1 94.5 567.05 94.5 565.4 93.9 563.6 92.25 558.25 87.5 556.95 80.25 554.35 67.1 562.25 55.15 547.05 61.45 543.85 75.1 543.5 79.4 543.85 83.7 543.95 85.1 544.25 86.5 544.45 87.8 544.65 89.15 548.25 106.05 567.05 116.5 585.8 106.05 589.4 89.15 589.65 87.8 589.85 86.5 590.15 85.1 590.2 83.7 590.65 79.25 590.2 74.7 586.95 60.3 571.65 54.75 579.8 67.15 577.25 80.25 575.85 87.5 570.55 92.25 568.8 93.85 567.2 94.45 Z"/>
</g>
</g>

<g>
<path stroke="#FFFFFF" stroke-width="7" stroke-linejoin="round" stroke-linecap="round" fill="none" d="
M 589.4 89.15
Q 589.65 87.8 589.85 86.5 590.15 85.1 590.2 83.7 590.65 79.25 590.2 74.7 586.95 60.3 571.65 54.75 579.8 67.15 577.25 80.25 575.85 87.5 570.55 92.25 568.8 93.85 567.2 94.45 567.1 94.5 567.05 94.5 565.4 93.9 563.6 92.25 558.25 87.5 556.95 80.25 554.35 67.1 562.25 55.15 547.05 61.45 543.85 75.1 543.5 79.4 543.85 83.7 543.95 85.1 544.25 86.5 544.45 87.8 544.65 89.15 548.25 106.05 567.05 116.5 585.8 106.05 589.4 89.15 Z"/>
</g>
</g>

<g>
<g>
<g>
<path fill="#5480FF" stroke="none" d="
M 597.75 75.25
Q 598.15 81.65 602.4 86.55 604.6 89.05 607.9 90.55 611.25 92.1 614 94.55 616.6 96.85 616.95 100.15 617.4 104.55 614.1 107.7 611 110.65 606.5 111.25 602.65 111.7 598.8 110.9 603.7 116.35 610.95 117.1 617.75 117.95 624.25 115.05 631 111.95 634.25 105.45 637.85 98.5 634.7 91.25 631.8 84.7 625.35 81.55 623.65 80.75 622.15 79.7 620.6 78.55 619.4 77.15 616.55 73.5 617.4 69.1 617.95 66.05 620.3 64 621.55 63 623.3 62.8 628.9 61.3 634.05 63.95 631 58.25 624.45 55.75 618 53.3 611.55 55.9 605.45 58.25 601.45 63.45 597.45 68.85 597.75 75.25 Z"/>
</g>
</g>

<g>
<path stroke="#FFFFFF" stroke-width="7" stroke-linejoin="round" stroke-linecap="round" fill="none" d="
M 634.05 63.95
Q 631 58.25 624.45 55.75 618 53.3 611.55 55.9 605.45 58.25 601.45 63.45 597.45 68.85 597.75 75.25 598.15 81.65 602.4 86.55 604.6 89.05 607.9 90.55 611.25 92.1 614 94.55 616.6 96.85 616.95 100.15 617.4 104.55 614.1 107.7 611 110.65 606.5 111.25 602.65 111.7 598.8 110.9 603.7 116.35 610.95 117.1 617.75 117.95 624.25 115.05 631 111.95 634.25 105.45 637.85 98.5 634.7 91.25 631.8 84.7 625.35 81.55 623.65 80.75 622.15 79.7 620.6 78.55 619.4 77.15 616.55 73.5 617.4 69.1 617.95 66.05 620.3 64 621.55 63 623.3 62.8 628.9 61.3 634.05 63.95 Z"/>
</g>
</g>
</g>

<g id="Layer_7" transform="matrix( 0.405059814453125, 0, 0, 0.405059814453125, 15.15,18.1) ">
<g transform="matrix( -0.182037353515625, 0.0079498291015625, 0.0079498291015625, 0.182037353515625, 546,-313.25) ">
<g>
<g>
<path fill="#5480FF" stroke="none" d="
M 1002.5 1871.4
Q 1002.65 1870.9498046875 1002.85 1870.55 1003.0880859375 1870.0658203125 1003.4 1869.65 1004.05 1868.6 1004.95 1867.8 1008.839453125 1864.2060546875 1012.95 1867.7 1013.329296875 1865.380078125 1014.2 1863.65 1015.76796875 1860.420703125 1019.15 1859.25 1020.4 1858.8 1021.55 1858.9 1022.25 1858.9 1022.95 1859 1023.5 1859.15 1023.95 1859.4 1026.6 1860.5 1028.1 1863.3 1028.2 1863.55 1028.35 1863.75 1029.2 1865.45 1029.2 1867.7 1029.12734375 1871.3255859375 1026.85 1876.1 1026.773046875 1876.3552734375 1026.65 1876.6 1052.64609375 1837.603125 1104.85 1824.85 1051.4328125 1813.863671875 993.95 1843.7 987.6369140625 1871.925390625 956.15 1895.9 980.874609375 1880.7408203125 1007.3 1884.8 1002.69609375 1882.366796875 1002 1878.5 1001.9 1878.3 1001.8 1878.15 1001.25 1875.25 1002.15 1872.35 1002.3 1871.85 1002.5 1871.4 Z"/>
</g>
</g>

<g transform="matrix( -5.48291015625, 0.23944091796875, 0.23944091796875, 5.48291015625, 3068.65,1586.75) ">
<path stroke="#FFFFFF" stroke-width="7" stroke-linejoin="round" stroke-linecap="round" fill="none" d="
M 378.3098419189453 35.232656478881836
Q 378.26720317304137 35.146211686730396 378.2071174621582 35.07299652099607 378.08044586181643 34.887024688720714 377.9102523803711 34.7485496520996 377.1736553758383 34.12523784637449 376.44860763549804 34.79414329528811 376.365669387579 34.37464745640756 376.18906288146974 34.07138023376467 375.8823138296604 33.491242980957054 375.25735092163086 33.30501785278318 375.02622680664064 33.2330383300781 374.8176788330078 33.260384368896496 374.69025268554685 33.26594924926758 374.5636215209961 33.28971786499022 374.4646934509277 33.32139587402344 374.38476409912107 33.370482635498036 373.9111099243164 33.5917907714844 373.6603134155274 34.11342010498049 373.6440971374512 34.15972442626952 373.61838150024414 34.19732437133791 373.4771644592285 34.51354522705077 373.495051574707 34.923129272460926 373.5371005147696 35.582543736696266 373.9852657318115 36.438310623168945 374.00565564334386 36.47941848039625 374.0254493713379 36.523188400268566 368.9877217054367 29.63076623678205 359.38327560424807 27.724233245849632 369.01985961794855 25.29965363740922 379.7210723876953 30.274001312255848 381.0946768760681 35.361888769269 387.0170654296875 39.4758476257324 382.39575008451936 36.91286709308622 377.61761169433595 37.86186676025392 378.4363510549068 37.38233263492583 378.5323257446289 36.67289733886719 378.54893951416017 36.63569488525388 378.56595077514646 36.60759429931642 378.64301681518555 36.075313568115234 378.456128692627 35.554560089111305 378.42484817504885 35.46473388671876 378.38486328125 35.38440704345703 378.35397870242593 35.3036471545696 378.3098419189453 35.232656478881836 Z"/>
</g>
</g>

<g transform="matrix( 0.182037353515625, -0.0079498291015625, 0.0079498291015625, 0.182037353515625, 200.1,-298.15) ">
<g>
<g>
<path fill="#5480FF" stroke="none" d="
M 1002.5 1871.4
Q 1002.65 1870.9498046875 1002.85 1870.55 1003.0880859375 1870.0658203125 1003.4 1869.65 1004.05 1868.6 1004.95 1867.8 1008.839453125 1864.2060546875 1012.95 1867.7 1013.329296875 1865.380078125 1014.2 1863.65 1015.76796875 1860.420703125 1019.15 1859.25 1020.4 1858.8 1021.55 1858.9 1022.25 1858.9 1022.95 1859 1023.5 1859.15 1023.95 1859.4 1026.6 1860.5 1028.1 1863.3 1028.2 1863.55 1028.35 1863.75 1029.2 1865.45 1029.2 1867.7 1029.12734375 1871.3255859375 1026.85 1876.1 1026.773046875 1876.3552734375 1026.65 1876.6 1052.64609375 1837.603125 1104.85 1824.85 1051.4328125 1813.863671875 993.95 1843.7 987.6369140625 1871.925390625 956.15 1895.9 980.874609375 1880.7408203125 1007.3 1884.8 1002.69609375 1882.366796875 1002 1878.5 1001.9 1878.3 1001.8 1878.15 1001.25 1875.25 1002.15 1872.35 1002.3 1871.85 1002.5 1871.4 Z"/>
</g>
</g>

<g transform="matrix( 5.48291015625, 0.23944091796875, -0.23944091796875, 5.48291015625, -1168.5,1586.8) ">
<path stroke="#FFFFFF" stroke-width="7" stroke-linejoin="round" stroke-linecap="round" fill="none" d="
M 397.53126373291013 34.387286758422874
Q 397.56620418727397 34.29745397269727 397.61967849731445 34.219279479980514 397.72965545654296 34.02297286987306 397.88712921142576 33.870188140869175 398.56658371388914 33.18503535985951 399.34718399047847 33.78818702697754 399.3932362735271 33.363057988882076 399.54273262023924 33.045549392700195 399.7977394640445 32.440879464149475 400.4040885925293 32.200881195068405 400.6280578613281 32.10902709960942 400.83819580078125 32.11808853149415 400.9656219482422 32.11252365112307 401.0938430786133 32.12516250610355 401.1951560974121 32.14809570312502 401.27906036376953 32.19002761840824 401.7702041625976 32.36920166015625 402.06551971435545 32.866981506347656 402.0857109069824 32.91169586181644 402.11460647583004 32.9469108581543 402.28285293579097 33.249617004394565 402.3007400512695 33.65920104980472 402.31633668839925 34.319770723581314 401.9444805145264 35.211349105834984 401.9277518719435 35.25407798290257 401.9118492126465 35.29940681457521 406.3295398950577 27.994053137302444 415.73121566772454 25.257495880126953 405.91995279192923 23.682231295108807 395.6931274414062 29.5705360412598 394.76829701662064 34.75879940688611 389.2270965576172 39.3733894348145 393.6073861271143 36.41729606390004 398.45006408691404 36.946141052246105 397.5926376283169 36.539807462692295 397.43518218994143 35.84143981933596 397.4153884887695 35.805827331543014 397.39599227905273 35.77931671142579 397.27281723022463 35.25578079223635 397.41359634399413 34.720717620849655 397.4369270324707 34.628506469726574 397.4697570800781 34.54499969482424 397.49348370730877 34.46185485720639 397.53126373291013 34.387286758422874 Z"/>
</g>
</g>
</g>

<g id="Layer_6" transform="matrix( 0.405059814453125, 0, 0, 0.405059814453125, 15.15,18.1) ">
<g transform="matrix( -0.854949951171875, 0.3153076171875, 0.3153076171875, 0.854949951171875, 495.3,110.9) ">
<g>
<g>
<path fill="#5480FF" stroke="none" d="
M 86.15 -101.05
Q 90.3 -104.6 87.3 -109 89.25 -108.8 90.9 -107.85 97.2 -103.85 93.25 -97.55 95.25 -98.5 96.35 -100.3 99.85 -106 96.85 -111.95 95.35 -114.8 92.6 -116.65 92.2 -116.95 91.75 -117.2 90.45 -118 89.05 -118.45 84.9 -119.85 80.25 -118.3 79.7 -118.15 79.15 -117.9 78.05 -117.45 77.15 -116.8 75.15 -115.4 74 -113.2 71.2 -108 74.35 -103.1 75.65 -101.1 77.85 -100 82.4 -97.85 86.15 -101.05 Z"/>
</g>
</g>

<g transform="matrix( -1.02960205078125, 0.3797149658203125, 0.3797149658203125, 1.02960205078125, 467.85,-302.25) ">
<path stroke="#FFFFFF" stroke-width="7" stroke-linejoin="round" stroke-linecap="round" fill="none" d="
M 390.4559432983399 35.05799865722656
Q 389.9068939208985 35.01768035888672 389.3893753051758 35.06285705566407 384.9251312255859 35.20386505126953 381.81851959228516 37.70932159423829 380.7634780883789 38.53547973632813 379.90428924560547 39.62933959960938 379.598388671875 39.98496551513672 379.35100097656255 40.36757354736329 377.58320770263674 42.816326904296886 377.1994094848633 45.72589569091798 376.5106399536133 51.75877075195313 381.3002182006836 55.52840881347657 382.80821685791017 56.72048034667969 384.81765899658205 56.902067565917974 379.45416870117185 52.761347961425784 383.57912292480466 47.35511016845704 384.6902481079102 46.02265014648438 386.2943389892578 45.23681030273438 385.11684265136716 49.94451293945313 389.7842269897461 51.67105865478516 393.9992736816406 53.22449493408204 397.21138458251954 49.95170288085938 398.7454360961914 48.31758117675782 399.2262557983399 46.197781372070324 400.3743408203125 41.0153076171875 396.34088134765625 37.452429199218756 394.66401214599614 35.93414306640625 392.51268157958987 35.367828369140625 391.5382766723633 35.095887756347665 390.4559432983399 35.05799865722656 Z"/>
</g>
</g>
</g>

<g id="Layer_5" transform="matrix( 0.405059814453125, 0, 0, 0.405059814453125, 15.15,18.1) ">
<g transform="matrix( 0.9619140625, 0, 0, 0.9619140625, 307.8,140.15) ">
<g>
<g>
<path fill="#5480FF" stroke="none" d="
M 35.5 -147.25
Q 39.180859375 -139.821875 39.7 -132.6 40.65 -118.95 37.85 -112.4 35 -105.95 35.95 -92.1 36.8 -78.3 30.35 -60 20.276171875 -94.9376953125 12.4 -105.25 4.561328125 -115.5228515625 2.3 -123.45 0.055078125 -131.3220703125 3.5 -145.9 -25.48828125 -136.72578125 -33.05 -119 -25.5 -111.55 -23.1 -93.35 -20.7 -75.15 -16.5 -77.1 -12.4 -79.05 -16.95 -89.5 -21.55 -99.95 -14.5 -96.25 10.8767578125 -77.9916015625 26.5 -25.25 42.7541015625 -42.02890625 51.8 -87.75 52.519140625 -88.730859375 52.55 -85.95 52.65 -77.25 52.95 -73.65 53.3 -70.05 55.25 -69.45 57.2 -68.85 57.5 -72.2 57.7 -75.55 56.55 -80.75 55.4 -85.9 55.6 -95.05 55.75 -104.2 61.8 -112.2 67.8 -120.25 74 -122 63.7265625 -139.929296875 35.5 -147.25 Z"/>
</g>
</g>

<g transform="matrix( 1.039581298828125, 0, 0, 1.039581298828125, -319.95,-145.65) ">
<path stroke="#FFFFFF" stroke-width="7" stroke-linejoin="round" stroke-linecap="round" fill="none" d="
M 363.11005859375 70.6998046875
Q 362.821484375 73.922216796875 360.945751953125 73.345068359375 359.07001953125 72.767919921875 358.733349609375 69.305029296875 358.444775390625 65.842138671875 358.348583984375 57.473486328125006 358.31889991760255 54.798538589477545 357.6271484375 55.742041015625006 348.925771522522 99.72180404663087 333.29072265625 115.861669921875 318.2625062942505 65.12878170013428 293.85224609375 47.565771484375006 287.070751953125 44.006689453125006 291.495556640625 54.058691406250006 295.872265625 64.110693359375 291.92841796875 65.98642578125 287.88837890625 67.862158203125 285.57978515625 50.355322265625006 283.27119140625 32.848486328125006 276.008740234375 25.682226562500006 283.28246383666993 8.631548309326178 311.1907470703125 -0.16921386718749432 307.85298042297364 13.8294538497925 310.01240234375 21.425756835937506 312.18760566711427 29.026944541931158 319.7517822265625 38.932592773437506 327.3039348602295 48.828095817565924 336.994091796875 82.43515625 343.1984375 64.83212890625 342.380810546875 51.557714843750006 341.4669921875 38.235205078125006 344.208447265625 32.030859375000006 346.901806640625 25.730322265625006 345.98798828125 12.600195312500006 345.4886196136475 5.653372192382818 341.94794921875 -1.4677978515624943 369.09947662353517 5.550041580200201 378.981640625 22.796484375000006 373.0177734375 24.479833984375006 367.2462890625 32.223242187500006 361.426708984375 39.918554687500006 361.282421875 48.720068359375006 361.0900390625 57.521582031250006 362.196240234375 62.475439453125006 363.30244140625 67.477392578125 363.11005859375 70.6998046875 Z"/>
</g>
</g>
</g>

<g id="Layer_4" transform="matrix( 0.405059814453125, 0, 0, 0.405059814453125, 15.15,18.1) ">
<g transform="matrix( 1.0125579833984375, 0, 0, 1.0506591796875, 390.85,140.8) ">
<g>
<g>
<path fill="#5480FF" stroke="none" d="
M 74.25 -54.55
Q 82.15 -32.8 70.95 -23.5 95.55 -31.75 88.3 -53.4 80.95 -75.1 93 -80.45 66.35 -76.3 74.25 -54.55 Z"/>
</g>
</g>

<g transform="matrix( 0.9875946044921875, 0, 0, 0.9517822265625, -386,-134) ">
<path stroke="#FFFFFF" stroke-width="7" stroke-linejoin="round" stroke-linecap="round" fill="none" d="
M 480.25886993408204 84.6947998046875
Q 472.81656875610355 61.89549560546877 485.0178924560547 56.27446899414063 458.0332221984863 60.634704589843764 466.032430267334 83.48654174804689 474.0316383361817 106.33837890625001 462.6909889221192 116.10950927734376 487.5999153137207 107.44157104492189 480.25886993408204 84.6947998046875 Z"/>
</g>
</g>
</g>

<g id="Layer_3" transform="matrix( 0.405059814453125, 0, 0, 0.405059814453125, 15.15,18.1) ">
<g transform="matrix( -0.18212890625, -0.0049896240234375, -0.0049896240234375, 0.18212890625, 657.6,-301.55) ">
<g>
<g>
<path fill="#5480FF" stroke="none" d="
M 1002.5 1871.4
Q 1002.65 1870.9498046875 1002.85 1870.55 1003.0880859375 1870.0658203125 1003.4 1869.65 1004.05 1868.6 1004.95 1867.8 1008.839453125 1864.2060546875 1012.95 1867.7 1013.329296875 1865.380078125 1014.2 1863.65 1015.76796875 1860.420703125 1019.15 1859.25 1020.4 1858.8 1021.55 1858.9 1022.25 1858.9 1022.95 1859 1023.5 1859.15 1023.95 1859.4 1026.6 1860.5 1028.1 1863.3 1028.2 1863.55 1028.35 1863.75 1029.2 1865.45 1029.2 1867.7 1029.12734375 1871.3255859375 1026.85 1876.1 1026.773046875 1876.3552734375 1026.65 1876.6 1052.64609375 1837.603125 1104.85 1824.85 1051.4328125 1813.863671875 993.95 1843.7 987.6369140625 1871.925390625 956.15 1895.9 980.874609375 1880.7408203125 1007.3 1884.8 1002.69609375 1882.366796875 1002 1878.5 1001.9 1878.3 1001.8 1878.15 1001.25 1875.25 1002.15 1872.35 1002.3 1871.85 1002.5 1871.4 Z"/>
</g>
</g>

<g transform="matrix( -5.4864959716796875, -0.150299072265625, -0.150299072265625, 5.4864959716796875, 3562.55,1753.25) ">
<path stroke="#FFFFFF" stroke-width="7" stroke-linejoin="round" stroke-linecap="round" fill="none" d="
M 465.61413192749023 34.12725639343262
Q 465.57773869335654 34.0380100578069 465.52300491333006 33.960720825195324 465.4098602294922 33.76624221801751 465.24993591308595 33.61604843139651 464.55948650538926 32.94208019375799 463.78885040283205 33.55779380798339 463.73589823842053 33.13350116610525 463.5812725067139 32.81848793029786 463.31649101376536 32.218087565898884 462.7063667297364 31.98799362182615 462.4809509277344 31.899798583984364 462.27100372314453 31.912273406982422 462.14351348876954 31.90878067016604 462.01552429199216 31.92350082397462 461.9146049499512 31.94807586669924 461.83139953613284 31.991362762451217 461.34326934814453 32.17848205566406 461.05610504150394 32.68095855712892 461.03664474487306 32.725991821289085 461.00832748413086 32.76166915893555 460.8450355529785 33.067047119140625 460.8338088989258 33.476837158203125 460.8289513915778 34.1375236868858 461.2152210235596 35.022874069213856 461.2326406568289 35.0653222262859 461.24927673339846 35.11038322448724 456.7137695789337 27.8783390402794 447.26956253051765 25.295148468017544 457.05319411158564 23.560752224922112 467.3736038208008 29.281627655029297 468.3825651705265 34.453787103295326 473.9976181030273 38.977364349365246 469.57019064724443 36.093073028326046 464.73710937500005 36.70051422119138 465.58775455355646 36.280329358577774 465.7338272094727 35.579547119140614 465.75303802490237 35.54362030029296 465.77199935913086 35.51679992675781 465.88664016723635 34.99137039184569 465.7371940612793 34.45870590209955 465.71236953735354 34.366893005371026 465.6781890869141 34.28393707275393 465.65311605632303 34.2011950492859 465.61413192749023 34.12725639343262 Z"/>
</g>
</g>

<g transform="matrix( 0.18212890625, 0.0049896240234375, -0.0049896240234375, 0.18212890625, 311.5,-311.15) ">
<g>
<g>
<path fill="#5480FF" stroke="none" d="
M 1002.5 1871.4
Q 1002.65 1870.9498046875 1002.85 1870.55 1003.0880859375 1870.0658203125 1003.4 1869.65 1004.05 1868.6 1004.95 1867.8 1008.839453125 1864.2060546875 1012.95 1867.7 1013.329296875 1865.380078125 1014.2 1863.65 1015.76796875 1860.420703125 1019.15 1859.25 1020.4 1858.8 1021.55 1858.9 1022.25 1858.9 1022.95 1859 1023.5 1859.15 1023.95 1859.4 1026.6 1860.5 1028.1 1863.3 1028.2 1863.55 1028.35 1863.75 1029.2 1865.45 1029.2 1867.7 1029.12734375 1871.3255859375 1026.85 1876.1 1026.773046875 1876.3552734375 1026.65 1876.6 1052.64609375 1837.603125 1104.85 1824.85 1051.4328125 1813.863671875 993.95 1843.7 987.6369140625 1871.925390625 956.15 1895.9 980.874609375 1880.7408203125 1007.3 1884.8 1002.69609375 1882.366796875 1002 1878.5 1001.9 1878.3 1001.8 1878.15 1001.25 1875.25 1002.15 1872.35 1002.3 1871.85 1002.5 1871.4 Z"/>
</g>
</g>

<g transform="matrix( 5.4864959716796875, -0.150299072265625, 0.150299072265625, 5.4864959716796875, -1662.25,1753.9) ">
<path stroke="#FFFFFF" stroke-width="7" stroke-linejoin="round" stroke-linecap="round" fill="none" d="
M 484.8191856384277 34.53519477844242
Q 484.8604106217623 34.44807488024236 484.9192939758301 34.373898315429756 485.0429168701172 34.18590621948243 485.21082458496096 34.04469375610353 485.937138864398 33.409539335966144 486.6729080200195 34.0665225982666 486.74901126027106 33.64576557278639 486.92065238952637 33.33969078063967 487.2179093182087 32.75468808412552 487.8397163391113 32.55834426879886 488.0696228027344 32.48262329101567 488.27857208251953 32.50657424926766 488.4060623168945 32.51006698608404 488.53305358886723 32.53177261352539 488.63247604370116 32.56183624267584 488.7131866455078 32.60961380004886 489.19033966064455 32.82317810058595 489.4495620727539 33.34062347412112 489.46652755737307 33.38665466308595 489.4928489685059 33.423828887939464 489.6391761779785 33.737689208984364 489.6279495239258 34.147479248046864 489.59662640988824 34.807440721988655 489.16246223449707 35.670314407348656 489.14274464547634 35.711745148897194 489.12366638183596 35.75582771301271 494.04833302497866 28.782955515384742 503.61980667114256 26.7207206726074 493.9458103835583 24.453261065483105 483.3276565551758 29.60050125122069 482.03702703118324 34.70966084897526 476.18272552490237 38.919022369384834 480.76143019497397 36.28146405816085 485.55400390625 37.15261077880865 484.72764026522634 36.68648239374164 484.62015533447266 35.9787536621094 484.60294036865236 35.94182891845708 484.58547592163086 35.91401062011727 484.4997749328613 35.38309249877932 484.67816085815434 34.85940933227539 484.70797500610354 34.76909332275392 484.74664611816405 34.68813323974615 484.7762117594481 34.606888103485176 484.8191856384277 34.53519477844242 Z"/>
</g>
</g>
</g>

<g id="Layer_2" transform="matrix( 0.405059814453125, 0, 0, 0.405059814453125, 15.15,18.1) ">
<g transform="matrix( -0.8752899169921875, 0.25347900390625, 0.25347900390625, 0.8752899169921875, 576.7,117.85) ">
<g>
<g>
<path fill="#5480FF" stroke="none" d="
M 86.15 -101.05
Q 90.3 -104.6 87.3 -109 89.25 -108.8 90.9 -107.85 97.2 -103.85 93.25 -97.55 95.25 -98.5 96.35 -100.3 99.85 -106 96.85 -111.95 95.35 -114.8 92.6 -116.65 92.2 -116.95 91.75 -117.2 90.45 -118 89.05 -118.45 84.9 -119.85 80.25 -118.3 79.7 -118.15 79.15 -117.9 78.05 -117.45 77.15 -116.8 75.15 -115.4 74 -113.2 71.2 -108 74.35 -103.1 75.65 -101.1 77.85 -100 82.4 -97.85 86.15 -101.05 Z"/>
</g>
</g>

<g transform="matrix( -1.0540771484375, 0.3052520751953125, 0.3052520751953125, 1.0540771484375, 571.9,-300.25) ">
<path stroke="#FFFFFF" stroke-width="7" stroke-linejoin="round" stroke-linecap="round" fill="none" d="
M 477.53562850952153 34.71618194580077
Q 476.9908493041993 34.63677291870117 476.4714179992676 34.644892883300784 472.0084274291993 34.46687088012695 468.7308448791504 36.74421463012693 467.61950454711916 37.49296569824219 466.68441085815437 38.52272033691405 466.3539001464844 38.85560836791991 466.0798278808594 39.21958694458007 464.1417167663575 41.53594055175782 463.551197052002 44.41073532104491 462.4335273742676 50.379147338867185 466.9418724060059 54.48112335205079 468.36095352172856 55.77781829833984 470.35233840942385 56.102385711669925 465.29802551269535 51.58930130004883 469.79843597412116 46.4912239074707 471.0018592834473 45.241458129882815 472.65797882080085 44.572116088867176 471.14741668701174 49.183828735351554 475.6797203063965 51.23917007446289 479.77319030761726 53.08955154418945 483.21077957153324 50.05434875488281 484.8575904846192 48.53387603759765 485.48850936889653 46.453773498535156 487.0036254882813 41.36639404296875 483.2347229003907 37.52462768554686 481.6704856872559 35.89049072265624 479.56503524780277 35.17204284667969 478.61251296997074 34.83123550415037 477.53562850952153 34.71618194580077 Z"/>
</g>
</g>
</g>

<g id="Layer_17" transform="matrix( 0.405059814453125, 0, 0, 0.405059814453125, 15.15,18.1) "/>

<mask id="Mask_Mask_1">
<g>
<g>
<g>
<path fill="#FFFFFF" stroke="none" d="
M 40.4 2.5
Q 35.05 9.1 31.05 11.15 27.05 13.2 24.7 12.85 13.9 11.15 7.2 14.8 -1.05 19.35 -3.7 29.05 -4.6 32.3 -3.9 35.65 -1.9 45.55 6.75 49.75 9.15 50.85 11.8 50.85 19.05 51.2 23.7 45.85 25.15 44.15 25.9 42.1 26.8 39.65 26.65 37.1 24.4 43.1 18.25 43.85 16.45 43.65 15 42.5 10.3 38.75 11.85 33.05 12.4 30.8 14.15 29.25 19.2 24.7 25.6 26.6 27.8 27.35 30.2 28.85 30.35 28.9 30.45 29 31.05 29.4 31.7 29.85 32.6 30.55 33.4 31.35 34.6 32.55 35.65 33.8 43.95 47.85 39.5 63.9 37 73.2 33.45 82 27.55 96.65 28.4 112.55 28.5 114.95 28.85 117.3 46.85 107.95 58.5 106.05 66.3 104.85 72.85 107.2 76.05 108.3 79 110.35 87.8 116.45 92.85 110.3 105.75 95.05 96.5 76.85 92.8 89.45 78.45 84.8 75.65 83.5 72.85 83 60.45 80.55 50.7 91.6 73.75 40.15 52 4.25 45.75 -4.15 40.4 2.5
M 117.4 61.9
Q 107.5 69.15 107.95 81.35 108.35 93.6 118.55 101.65 128.85 109.8 130.5 117.5 132.5 110.1 142.3 102.35 152.5 94.25 152.95 82 153.35 69.8 143.45 62.55 133.55 55.35 130.25 47.1 126.9 54.95 117.4 61.9
M 130.5 70.35
Q 130.8 71.75 131.55 72.95 132.3 74.25 133.65 75.2 134.35 75.7 134.7 76.25 135.6 77.6 135.5 79.05 135.4 80.35 134.6 81.55 134.4 81.8 134.25 82.1 130.7 86.65 126.85 82.1 126.65 81.8 126.4 81.55 125.7 80.35 125.6 79.05 125.5 77.6 126.3 76.25 126.75 75.7 127.35 75.2 128.7 74.25 129.5 72.95 130.25 71.75 130.5 70.35
M 197.3 58.7
Q 192.95 54.8 187.1 53.95 181.35 53.2 175.6 54.35 172.5 55 169.2 55.75 164.5 57.15 160.45 54.8 155.9 52.05 153.9 49.4 151.9 63.15 162.7 72.2 174.2 81.45 156.95 117.45 161.25 115 165 111.75 168.15 108.9 170.8 105.5 173.6 101.8 175.15 97.55 176.55 93.9 177.1 89.45 177.65 85.05 176.85 79.8 175.95 74.5 176.7 72.65 177.4 70.7 178.2 70.25 183.7 67.2 189 70.75 194.25 74.3 185.6 77.5 191.85 80.6 197.85 77.05 202.65 74.3 202.2 68.6 201.75 62.65 197.3 58.7
M 244.65 60.05
Q 245 58.7 245.25 57.35 242.45 60.8 238.05 59.35 236.1 58.7 235.5 56.8 234.55 53.95 236.45 51.35 228.45 52.8 221.95 57.25 218.75 59.55 215.9 62.25 210.2 67.85 206.7 74.9 203.25 82 202.75 90 202.35 98.1 205.85 105.3 209.55 112.8 217.2 115.75 221.25 117.15 225.45 116.3 232.7 114.95 236.6 108.65 245.6 117.85 258.25 116.95 263.2 116.3 268 114.8 252.4 112.95 246.4 97.8 242.65 88.5 242.75 78.2 242.8 69.05 244.65 60.05
M 230.55 88.75
Q 229.1 90.6 226.95 90.6 225.35 90.4 224.5 89.35 222.65 87.05 222.55 84.15 222.5 81.55 223.7 79.15 224.9 76.85 226.95 75.45 229.2 73.95 231.95 73.6 228.6 80.85 230.55 88.75
M 396.1 95.25
Q 396.1 90.75 394.4 85.6 386.9 62.95 399.5 56.4 378.25 61.15 378.3 75.55 378.2 79.75 380.1 84.95 388.05 107.4 376.8 117.05 396 110.3 396.1 95.25
M 374.85 33.25
Q 375.05 33.2 375.3 33.3 375.9 33.5 376.15 34.05 376.4 34.35 376.45 34.8 377.15 34.1 377.9 34.75 378.1 34.9 378.2 35.1 378.25 35.1 378.3 35.2 378.35 35.3 378.4 35.35 378.45 35.45 378.45 35.55 378.65 36.05 378.6 36.6 378.55 36.6 378.55 36.65 378.4 37.35 377.65 37.85 379.7708984375 37.42578125 381.85 37.7 381.830859375 37.724609375 381.8 37.75 380.75 38.5 379.9 39.65 379.55 39.95 379.35 40.35 377.6 42.8 377.2 45.75 376.55 51.8 381.3 55.55 382.8 56.75 384.85 56.9 379.45 52.75 383.6 47.35 384.7 46.05 386.3 45.25 385.1 49.9 389.8 51.65 394 53.25 397.2 49.95 398.7 48.3 399.25 46.2 400.4 41 396.35 37.45 396.0328125 37.1701171875 395.7 36.9 397.0560546875 36.7919921875 398.45 36.95 397.6 36.55 397.45 35.85 397.45 35.8 397.4 35.8 397.25 35.25 397.45 34.75 397.45 34.65 397.5 34.55 397.45 34.5 397.5 34.4 397.55 34.3 397.6 34.2 397.7 34 397.9 33.85 398.55 33.2 399.35 33.8 399.4 33.35 399.55 33.05 399.8 32.4 400.4 32.2 400.65 32.1 400.85 32.15 401 32.1 401.1 32.1 401.2 32.15 401.3 32.2 401.8 32.4 402.05 32.9 402.05 32.95 402.1 32.9 402.3 33.25 402.3 33.65 402.347265625 34.2654296875 402 35.15 406.396875 27.9716796875 415.7 25.25 405.9 23.7 395.7 29.55 395.1640625 32.6466796875 392.95 35.5 392.733203125 35.4595703125 392.5 35.4 391.5 35.1 390.45 35.05 389.9 35.05 389.4 35.05 386.090234375 35.1603515625 383.5 36.55 380.6275390625 33.6291015625 379.7 30.25 375.44765625 28.2828125 371.35 27.45 375.1326171875 23.895703125 379 22.8 369.1 5.55 341.95 -1.45 345.5 5.65 346 12.6 346.9 25.75 344.2 32.05 341.45 38.25 342.4 51.55 343.2 64.85 337 82.45 327.35 48.8 319.8 38.95 312.2 29.05 310 21.45 307.85 13.85 311.2 -0.15 283.25 8.6 276 25.7 283.25 32.85 285.6 50.35 287.9 67.85 291.95 66 295.85 64.1 291.5 54.05 287.05 44 293.85 47.55 318.3 65.1 333.3 115.85 348.9 99.7 357.65 55.75 358.3 54.8 358.35 57.45 358.45 65.85 358.75 69.3 359.05 72.75 360.95 73.35 362.8 73.9 363.1 70.7 363.3 67.5 362.2 62.5 361.1 57.5 361.3 48.7 361.45 39.9 367.25 32.2 367.695703125 31.603125 368.15 31.05 371.54765625 33.1572265625 373.9 36.4 373.5484375 35.5806640625 373.5 34.95 373.5 34.55 373.6 34.2 373.65 34.15 373.65 34.1 373.9 33.6 374.4 33.4 374.5 33.35 374.6 33.3 374.7 33.3 374.85 33.25
M 485 56.25
Q 458.05 60.65 466.05 83.5 474.05 106.35 462.7 116.1 487.6 107.45 480.25 84.7 472.8 61.9 485 56.25
M 445.45 58.65
Q 437.4 51.95 427.2 51.25 432.1 56.85 429.4 57.7 426.55 58.15 424 59.15 413.6 63.15 409.35 73 406.5 79.7 406.4 86.5 406.35 89.8 407 93.2 408.8 103.85 417.25 111.35 423.7 117.15 431.7 117.65 434.55 117.7 437.75 117.2 450 115.1 453.55 104.05 454.5 100.85 454.5 98.05 454.45 90.3 447.6 84.55 449 87.95 447.85 91.3 445.95 96.65 439.95 98 438.55 98.2 437.15 98 429.45 96.2 426.55 89.5 423.65 82.9 426.75 76.35 428.95 71.45 434.4 69.35 438.15 67.8 442.05 69.1 449.75 71.45 452.75 78.15 453.2 76.4 453.25 74.7 453.25 65.2 445.45 58.65
M 500.25 66.6
Q 499.45 68 498.65 69.5 493.5 78.7 492.85 89.45 492.1 100.25 498.75 109.25 505.35 118.2 516.45 117.05 527.55 115.85 532.3 105.65 537.05 95.5 536.55 84.7 536.05 74.05 529.15 64.15 522.2 54.25 512.3 55.25 502.4 56.25 500.25 66.6
M 508.85 94.65
Q 506.6 89.25 509.15 80 510.5 80.7 511.6 80.7 509.85 70.2 515.45 71 519.7 72.65 521.4 80.95 523.05 89.3 520.35 95.6 517.65 101.95 514.4 101 511.1 99.95 508.85 94.65
M 488.7 32.6
Q 489.15 32.8 489.45 33.35 489.45 33.4 489.5 33.45 489.65 33.75 489.65 34.15 489.6 34.85 489.2 35.65 489.15 35.7 489.15 35.75 494.05 28.8 503.65 26.7 493.95 24.45 483.35 29.6 482.5734375 32.6765625 480.15 35.4 479.8671875 35.26328125 479.55 35.15 478.65 34.85 477.5 34.7 477 34.65 476.45 34.65 473.1818359375 34.503125 470.55 35.65 467.993359375 32.612890625 467.35 29.3 457.05 23.55 447.25 25.3 456.75 27.9 461.25 35.15 461.25 35.1 461.2 35.05 460.8 34.15 460.85 33.45 460.85 33.05 461 32.75 461.05 32.7 461.05 32.65 461.35 32.2 461.8 32 461.9 31.95 462 31.95 462.1 31.9 462.25 31.9 462.5 31.9 462.7 31.95 463.3 32.25 463.6 32.85 463.75 33.15 463.8 33.55 464.55 32.9 465.25 33.65 465.45 33.8 465.5 33.95 465.55 34.05 465.6 34.15 465.65 34.2 465.65 34.3 465.7 34.35 465.75 34.45 465.9 35 465.8 35.5 465.8 35.55 465.75 35.6 465.6 36.3 464.75 36.7 466.7146484375 36.4544921875 468.6 36.8 467.5939453125 37.558984375 466.7 38.5 466.35 38.85 466.1 39.2 464.15 41.5 463.55 44.4 462.45 50.35 466.95 54.45 468.4 55.8 470.35 56.1 465.3 51.6 469.8 46.5 471 45.2 472.65 44.6 471.15 49.2 475.7 51.25 479.8 53.1 483.2 50.05 484.85 48.55 485.45 46.45 487 41.35 483.25 37.5 482.975 37.225 482.65 36.95 484.10625 36.929296875 485.55 37.2 484.7 36.7 484.65 36 484.6 35.95 484.6 35.9 484.5 35.4 484.65 34.85 484.7 34.75 484.75 34.7 484.75 34.6 484.8 34.55 484.85 34.45 484.9 34.35 485.05 34.2 485.25 34.05 485.95 33.4 486.7 34.05 486.75 33.65 486.9 33.35 487.2 32.75 487.8 32.55 488.1 32.5 488.25 32.5 488.4 32.5 488.5 32.55 488.6 32.55 488.7 32.6
M 597.75 75.25
Q 598.15 81.65 602.4 86.55 604.6 89.05 607.9 90.55 611.25 92.1 614 94.55 616.6 96.85 616.95 100.15 617.4 104.55 614.1 107.7 611 110.65 606.5 111.25 602.65 111.7 598.8 110.9 603.7 116.35 610.95 117.1 617.75 117.95 624.25 115.05 631 111.95 634.25 105.45 637.85 98.5 634.7 91.25 631.8 84.7 625.35 81.55 623.65 80.75 622.15 79.7 620.6 78.55 619.4 77.15 616.55 73.5 617.4 69.1 617.95 66.05 620.3 64 621.55 63 623.3 62.8 628.9 61.3 634.05 63.95 631 58.25 624.45 55.75 618 53.3 611.55 55.9 605.45 58.25 601.45 63.45 597.45 68.85 597.75 75.25
M 577.25 80.25
Q 575.85 87.5 570.55 92.25 568.8 93.85 567.2 94.45 567.1 94.5 567.05 94.5 565.4 93.9 563.6 92.25 558.25 87.5 556.95 80.25 554.35 67.1 562.25 55.15 547.05 61.45 543.85 75.1 543.5 79.4 543.85 83.7 543.95 85.1 544.25 86.5 544.45 87.8 544.65 89.15 548.25 106.05 567.05 116.5 585.8 106.05 589.4 89.15 589.65 87.8 589.85 86.5 590.15 85.1 590.2 83.7 590.65 79.25 590.2 74.7 586.95 60.3 571.65 54.75 579.8 67.15 577.25 80.25 Z"/>
</g>
</g>
</g>
</mask>

<g id="Layer_19" mask="url(#Mask_Mask_1)">
<g>
<g>
<g>
<path fill="url(#Gradient_1)" stroke="none" d="
M 718 159.25
L 718 -22.7 -137.15 -22.7 -137.15 159.25 718 159.25 Z"/>
</g>
</g>
</g>
</g>

<g id="Layer_22" mask="url(#Mask_Mask_1)">
<g filter="url(#Filter_2)" transform="matrix( 1, 0, 0, 1, 0,0) ">
<g id="Layer_1" transform="matrix( 0.99530029296875, 0.096649169921875, -0.096649169921875, 0.99530029296875, -14.5,-192.85) ">
<g transform="matrix( -0.344970703125, 0, 0, -0.344970703125, 821.1,499.75) ">
<use xlink:href="#Bitmap_79"/>
</g>
</g>
</g>
</g>
</g>
</g>
</svg>
