
<svg xmlns="http://www.w3.org/2000/svg" version="1.1" xmlns:xlink="http://www.w3.org/1999/xlink" preserveAspectRatio="none" x="0px" y="0px" width="144px" height="190px" viewBox="0 0 144 190">
<defs>
<linearGradient id="Gradient_1" gradientUnits="userSpaceOnUse" x1="0" y1="-28.625" x2="0" y2="36.425" spreadMethod="pad">
<stop  offset="0%" stop-color="#1FD6FC"/>

<stop  offset="100%" stop-color="#0261E6"/>
</linearGradient>

<linearGradient id="Gradient_2" gradientUnits="userSpaceOnUse" x1="-36" y1="28.35" x2="36" y2="28.35" spreadMethod="pad">
<stop  offset="0%" stop-color="#FFE465"/>

<stop  offset="100%" stop-color="#E0BA00"/>
</linearGradient>

<linearGradient id="Gradient_3" gradientUnits="userSpaceOnUse" x1="0" y1="-9.049999999999999" x2="0" y2="24.35" spreadMethod="pad">
<stop  offset="0%" stop-color="#FFE465"/>

<stop  offset="100%" stop-color="#E0BA00"/>
</linearGradient>

<linearGradient id="Gradient_4" gradientUnits="userSpaceOnUse" x1="30.35" y1="3.5" x2="30.35" y2="64.4" spreadMethod="pad">
<stop  offset="0%" stop-color="#1FD6FC"/>

<stop  offset="100%" stop-color="#0261E6"/>
</linearGradient>

<linearGradient id="Gradient_5" gradientUnits="userSpaceOnUse" x1="-36" y1="28.35" x2="36" y2="28.35" spreadMethod="pad">
<stop  offset="0%" stop-color="#1FD6FC"/>

<stop  offset="100%" stop-color="#0261E6"/>
</linearGradient>

<linearGradient id="Gradient_6" gradientUnits="userSpaceOnUse" x1="53.35" y1="4.65" x2="36.050000000000004" y2="4.65" spreadMethod="pad">
<stop  offset="0%" stop-color="#1FD6FC"/>

<stop  offset="100%" stop-color="#0261E6"/>
</linearGradient>

<linearGradient id="Gradient_7" gradientUnits="userSpaceOnUse" x1="32.3" y1="4.837499999999999" x2="32.3" y2="45.0625" spreadMethod="pad">
<stop  offset="0%" stop-color="#000000"/>

<stop  offset="100%" stop-color="#FFE465"/>
</linearGradient>

<linearGradient id="Gradient_8" gradientUnits="userSpaceOnUse" x1="54.8" y1="-48" x2="54.8" y2="-23.299999999999997" spreadMethod="pad">
<stop  offset="0%" stop-color="#FFE465"/>

<stop  offset="100%" stop-color="#E0BA00"/>
</linearGradient>
</defs>

<g id="Layer_1">
<g id="Layer_3" transform="matrix( 0.997650146484375, 0, 0, 0.997650146484375, 74.25,128.25) ">
<g id="Layer_14" transform="matrix( 1.2423095703125, 0.1086883544921875, -0.1086883544921875, 1.2423095703125, 3.65,-3.25) ">
<g id="Layer_1" transform="matrix( 0.9999847412109375, 0, 0, 1.1483917236328125, -32.25,14.45) ">
<g transform="matrix( 0.936309814453125, 0, 0, 0.993438720703125, 32.3,-17.65) ">
<g>
<g>
<path fill="url(#Gradient_1)" stroke="none" d="
M 24.4 35.9
Q 34.5 32.75 34.5 28.4 34.5 23.95 24.4 20.9 14.25 17.75 0 17.75 -14.25 17.75 -24.4 20.9 -34.5 23.95 -34.5 28.4 -34.5 32.75 -24.4 35.9 -14.25 38.95 0 38.95 14.25 38.95 24.4 35.9 Z"/>
</g>
</g>

<g transform="matrix( 1.0680084228515625, 0, 0, 1.006591796875, -34.45,17.75) ">
<path stroke="url(#Gradient_2)" stroke-width="3" stroke-linejoin="round" stroke-linecap="round" fill="none" d="
M 64.60268859863281 10.56365966796875
Q 64.60268859863281 6.1428573608398445 55.145959472656244 3.1128692626953125 45.64241485595703 -0.01646270751952983 32.3 -0.01646270751952983 18.957585144042966 -0.01646270751952983 9.45404052734375 3.1128692626953125 -0.002688598632815342 6.1428573608398445 -0.002688598632815342 10.56365966796875 -0.002688598632815342 14.885118103027345 9.45404052734375 18.014450073242188 18.957585144042966 21.044438171386723 32.3 21.044438171386723 45.64241485595703 21.044438171386723 55.145959472656244 18.014450073242188 64.60268859863281 14.885118103027345 64.60268859863281 10.56365966796875 Z"/>
</g>
</g>
</g>
</g>

<mask id="Mask_Mask_1">
<g>
<g>
<g>
<path fill="#FFFFFF" stroke="none" d="
M -31 -26.05
L -31 45.65 30.9 45.65 30.9 -26.05 -31 -26.05 Z"/>
</g>
</g>
</g>
</mask>

<g id="Layer_9" mask="url(#Mask_Mask_1)">
<g id="Layer_1" transform="matrix( 1, 0, 0, 1.1869049072265625, -30.35,-42.05) ">
<g transform="matrix( 0.936309814453125, 0, 0, 0.936309814453125, 30.35,30.3) ">
<g>
<g>
<path fill="url(#Gradient_1)" stroke="none" d="
M -32.4 25.2
Q -32.35 29.05 -22.9 31.9 -13.4 34.65 0 34.65 13.4 34.65 22.9 31.9 32.35 29.05 32.4 25.2
L 32.4 -32.35 -32.4 -32.35 -32.4 25.2 Z"/>
</g>
</g>

<g transform="matrix( 1.0680084228515625, 0, 0, 1.0680084228515625, -32.4,-32.35) ">
<path stroke="url(#Gradient_2)" stroke-width="3" stroke-linejoin="round" stroke-linecap="round" fill="none" d="
M 0.013562011718754263 53.89500732421875
L 0.013562011718754263 0.010377502441404118 60.68643798828125 0.010377502441404118 60.68643798828125 53.89500732421875
Q 60.6396224975586 57.49980010986329 51.79149475097656 60.16828308105468 42.89655151367188 62.743135070800776 30.35 62.743135070800776 17.803448486328126 62.743135070800776 8.908505249023442 60.16828308105468 0.06037750244140483 57.49980010986329 0.013562011718754263 53.89500732421875 Z"/>
</g>
</g>
</g>
</g>

<g id="Layer_12" mask="url(#Mask_Mask_1)">
<g id="Layer_1" transform="matrix( 1, 0, 0, 1.22552490234375, -30.3,-27.45) ">
<g transform="matrix( 0.936309814453125, 0, 0, 0.936309814453125, 30.35,18.65) ">
<g>
<g>
<path fill="url(#Gradient_3)" stroke="none" d="
M -22.9 -14.9
Q -32.35 -17.05 -32.4 -19.9
L -32.4 15.15
Q -32.3013671875 18.9646484375 -22.9 21.8 -13.4 24.55 0 24.55 13.4 24.55 22.9 21.8 32.3013671875 18.9646484375 32.4 15.15
L 32.4 -19.9
Q 32.35 -17.05 22.9 -14.9 13.4 -12.8 0 -12.8 -13.4 -12.8 -22.9 -14.9 Z"/>
</g>
</g>

<g transform="matrix( 1.0680084228515625, 0, 0, 1.0680084228515625, -32.4,-19.9) ">
<path stroke="#FFFFFF" stroke-width="3" stroke-linejoin="round" stroke-linecap="round" fill="none" d="
M 51.79149475097656 39.061553955078125
Q 42.89655151367188 41.63640594482422 30.35 41.63640594482422 17.803448486328126 41.63640594482422 8.908505249023442 39.061553955078125 0.10591288208961913 36.40678645968437 0.013562011718754263 32.83509368896485
L 0.013562011718754263 0.01743469238281392
Q 0.06037750244140483 2.685917663574216 8.908505249023442 4.698983764648435 17.803448486328126 6.665234374999997 30.35 6.665234374999997 42.89655151367188 6.665234374999997 51.79149475097656 4.698983764648435 60.6396224975586 2.685917663574216 60.68643798828125 0.01743469238281392
L 60.68643798828125 32.83509368896485
Q 60.594087117910384 36.40678645968437 51.79149475097656 39.061553955078125 Z"/>
</g>
</g>
</g>
</g>

<g id="Layer_22" mask="url(#Mask_Mask_1)">
<g id="Layer_1" transform="matrix( 1, 0, 0, 1.2902679443359375, -30.35,-32.55) ">
<g>
<g>
<g>
<path fill="url(#Gradient_4)" stroke="none" d="
M 51.45 14.85
Q 58.8509765625 13.2146484375 59.2 11.6 59.2072265625 11.0056640625 59.65 10.55 60.0931640625 10.149609375 60.7 10.15
L 60.7 0 0 0 0 10.15
Q 0.6068359375 10.149609375 1.05 10.55 1.4927734375 11.0056640625 1.5 11.6 1.8490234375 13.2146484375 9.2 14.85 17.990234375 16.7951171875 30.35 16.8 42.709765625 16.7951171875 51.45 14.85 Z"/>

<path fill="#FFFFFF" stroke="none" d="
M 60.7 10.15
L 60.7 10.15
Q 60.0931640625 10.149609375 59.65 10.55 59.2072265625 11.0056640625 59.2 11.6 58.8509765625 13.2146484375 51.45 14.85 42.709765625 16.7951171875 30.35 16.8 17.990234375 16.7951171875 9.2 14.85 1.8490234375 13.2146484375 1.5 11.6 1.4927734375 11.0056640625 1.05 10.55 0.6068359375 10.149609375 0 10.15
L -0.05 10.15
Q -0.221875 10.1521484375 -0.4 10.2
L -0.4 14.15
Q 1.834765625 16.2974609375 8.55 17.8 17.6099609375 19.8048828125 30.35 19.8 43.0900390625 19.8048828125 52.1 17.8 58.7916015625 16.3140625 61.05 14.2
L 61.05 10.15
Q 60.8947265625 10.151953125 60.7 10.15 Z"/>
</g>
</g>
</g>
</g>
</g>

<g id="Layer_16" transform="matrix( 1.2423095703125, 0.1086883544921875, -0.1086883544921875, 1.2423095703125, 3.65,-3.25) ">
<g id="Layer_1" transform="matrix( 0.9999847412109375, 0, 0, 0.944580078125, -30.3,-26.85) ">
<g transform="matrix( 0.936309814453125, 0, 0, 0.936309814453125, 30.35,30.3) ">
<g transform="matrix( 1.0680084228515625, 0, 0, 1.0680084228515625, -32.4,-32.35) ">
<path stroke="url(#Gradient_2)" stroke-width="3" stroke-linejoin="round" stroke-linecap="round" fill="none" d="
M 60.68643798828125 0.010377502441404118
L 60.68643798828125 53.89500732421875
M 0.013562011718754263 53.89500732421875
L 0.013562011718754263 0.010377502441404118"/>
</g>
</g>
</g>
</g>

<g id="Layer_18" transform="matrix( 1.2423095703125, 0.1086883544921875, -0.1086883544921875, 1.2423095703125, 3.65,-3.25) ">
<g id="Layer_3" transform="matrix( 0.9999847412109375, 0, 0, 0.944580078125, -23.2,-0.7) ">
<g transform="matrix( 0.9499969482421875, 0, 0, 0.9499969482421875, 1.15,0.4) ">
<g>
<g>
<path fill="#0981EC" stroke="none" d="
M 15.95 6.4
Q 14.95 6.7 14.95 7.35 14.85 7.9 15.35 8.1 15.6 8.2 16.5 8.1 17.1 7.95 19.2 7.85 19.9 7.75 20.1 7.5 20.35 7.3 20.35 6.9 20.3 6.55 20 6.35 19.8 6.2 19.1 6.2
L 15.95 6.4 Z"/>
</g>
</g>
</g>
</g>

<g id="Layer_2" transform="matrix( 0.9999847412109375, 0, 0, 0.944580078125, -23.2,-0.7) ">
<g transform="matrix( 0.9499969482421875, 0, 0, 0.9499969482421875, 1.3,0.55) ">
<g>
<g>
<path fill="#0099FF" stroke="none" d="
M 11.35 11.25
L 11.35 3.25 8.35 3.25 8.6 11.25 11.35 11.25
M 21.3 11.45
Q 21.3 9.35 21.2 7.3 21.1 5.25 21 3.1
L 18.65 3.1 18.65 4
Q 17.95 3.35 17.15 3.15 16.4 2.95 15.65 3.05 14.95 3.15 14.3 3.5 13.65 3.9 13.2 4.5 12.7 5.05 12.45 5.8 12.2 6.5 12.2 7.25 12.15 8.05 12.5 8.7 12.8 9.35 13.35 9.8 13.9 10.3 14.6 10.55 15.3 10.8 16 10.85 16.7 10.85 17.35 10.6 17.95 10.35 18.4 9.8 18.45 10.15 18.5 10.7 18.6 11.2 18.5 11.75 18.4 12.25 18.1 12.7 17.85 13.1 17.15 13.2 16.7 13.25 16.3 13.15 15.9 13.1 15.6 12.9 15.3 12.7 15.1 12.4 14.9 12.1 14.9 11.7
L 12.2 11.05
Q 12.1 12 12.5 12.85 12.85 13.7 13.5 14.35 14.15 15 15 15.4 15.9 15.8 16.8 15.8 18.1 15.8 18.85 15.5 19.6 15.25 20.15 14.7 20.7 14.15 21 13.35 21.3 12.55 21.3 11.45
M 15.2 5.8
Q 15.4 5.65 15.7 5.5 16 5.35 16.35 5.35 16.7 5.3 17 5.4 17.35 5.5 17.55 5.8 17.7 6 17.8 6.35 17.85 6.65 17.85 7 17.8 7.3 17.7 7.65 17.55 7.95 17.35 8.2 17.2 8.35 16.9 8.45 16.65 8.5 16.3 8.45 16 8.45 15.7 8.3 15.4 8.15 15.2 7.9 15.1 7.7 15 7.45 14.9 7.15 14.9 6.9 14.9 6.6 14.95 6.3 15.05 6 15.2 5.8
M 25.7 5.85
Q 25.95 5.8 26.2 5.8 26.7 5.8 27 6.15 27.3 6.5 27.3 7.05
L 27.2 11.3 29.95 11.3 29.95 6.05
Q 29.95 5.55 29.75 5 29.55 4.45 29.2 4 28.85 3.6 28.35 3.3 27.85 3.05 27.3 3.05 26.55 3.05 25.8 3.45 25.1 3.85 24.65 4.4
L 24.65 3.15 22 3.15 22 11.3 24.65 11.3
Q 24.65 10.2 24.7 9.05 24.7 7.95 24.7 6.85 24.75 6.65 24.85 6.45 25 6.25 25.25 6.1 25.45 5.95 25.7 5.85
M 46.9 4
Q 46.55 3.6 46.05 3.3 45.55 3.05 45 3.05 44.25 3.05 43.5 3.45 42.8 3.85 42.35 4.4
L 42.35 3.15 39.7 3.15 39.7 11.3 42.35 11.3
Q 42.35 10.2 42.4 9.05 42.4 7.95 42.4 6.85 42.45 6.65 42.55 6.45 42.7 6.25 42.95 6.1 43.15 5.95 43.4 5.85 43.65 5.8 43.9 5.8 44.4 5.8 44.7 6.15 45 6.5 45 7.05
L 44.9 11.3 47.65 11.3 47.65 6.05
Q 47.65 5.55 47.45 5 47.25 4.45 46.9 4
M 5.85 -0.05
Q 4.7 -0.55 3.45 -0.55 2.65 -0.55 1.85 -0.35 1.05 -0.1 0.4 0.35 -0.3 0.8 -0.7 1.5 -1.15 2.2 -1.15 3.15 -1.15 3.95 -0.8 4.65 -0.4 5.35 0.15 5.9 0.75 6.35 1.5 6.65 2.25 6.95 3 6.95 3.15 6.95 3.3 6.95 3.5 6.95 3.65 6.95 3.85 6.95 4.1 6.95 4.3 7 4.45 7.05 4.65 7.1 4.75 7.25 4.85 7.35 4.85 7.55 4.85 7.75 4.65 7.9 4.5 8.05 4.25 8.15 3.95 8.25 3.65 8.25 3.4 8.3 3.15 8.3 2.45 8.3 1.75 8 1.05 7.7 0.55 7.1
L -1.6 9.4
Q -1.15 9.9 -0.55 10.3 0 10.7 0.65 10.95 1.3 11.15 2 11.3 2.7 11.4 3.35 11.4 4.15 11.4 4.95 11.15 5.8 10.85 6.45 10.35 7.1 9.8 7.5 9.05 7.9 8.3 7.95 7.35 7.95 6.45 7.55 5.8 7.2 5.1 6.55 4.7 5.95 4.25 5.15 4.05 4.4 3.85 3.65 3.85 3.45 3.85 3.3 3.85 3.15 3.85 3 3.85 2.8 3.85 2.65 3.85 2.45 3.8 2.35 3.7 2.2 3.65 2.1 3.55 2 3.4 2 3.25 2 3 2.1 2.85 2.25 2.75 2.5 2.65 2.7 2.6 2.95 2.6 3.15 2.55 3.35 2.55 4.15 2.6 4.85 2.9 5.5 3.2 6.1 3.65
L 7.9 1.25
Q 7 0.4 5.85 -0.05
M 9.85 -0.75
Q 9.35 -0.75 9.1 -0.55 8.8 -0.4 8.6 -0.15 8.4 0.15 8.3 0.45 8.25 0.75 8.25 1 8.25 1.25 8.35 1.6 8.45 1.9 8.65 2.15 8.85 2.4 9.2 2.6 9.55 2.75 10.05 2.75 10.5 2.75 10.75 2.6 11.05 2.4 11.25 2.15 11.4 1.85 11.5 1.6 11.6 1.35 11.6 1.2 11.6 -0.75 9.85 -0.75
M 38.85 -0.45
L 35.45 -0.45 35.35 11.3 38.7 11.3 38.85 -0.45 Z"/>
</g>
</g>

<g transform="matrix( 1.0526275634765625, 0, 0, 1.0526275634765625, -1.35,-0.55) ">
<path stroke="url(#Gradient_5)" stroke-width="4" stroke-linejoin="round" stroke-linecap="round" fill="none" d="
M 34.882392120361324 11.28496551513672
L 34.97739181518555 0.12250137329101568 38.20738143920898 0.12250137329101568 38.06488189697266 11.28496551513672 34.882392120361324 11.28496551513672 Z
M 9.137474822998048 1.4999969482421875
Q 9.137474822998048 1.2624977111816407 9.184974670410158 0.9774986267089845 9.279974365234375 0.6924995422363281 9.469973754882814 0.40750045776367194 9.659973144531252 0.170001220703125 9.944972229003907 0.027501678466796853 10.182471466064454 -0.16249771118164058 10.657469940185548 -0.16249771118164058 12.319964599609376 -0.16249771118164058 12.319964599609376 1.689996337890625 12.319964599609376 1.8324958801269533 12.224964904785157 2.0699951171875 12.129965209960938 2.307494354248047 11.98746566772461 2.5924934387207035 11.797466278076174 2.8299926757812504 11.512467193603516 3.0199920654296877 11.27496795654297 3.1624916076660154 10.847469329833986 3.1624916076660154 10.372470855712892 3.1624916076660154 10.039971923828125 3.0199920654296877 9.70747299194336 2.8299926757812504 9.517473602294922 2.5924934387207035 9.327474212646484 2.354994201660156 9.232474517822265 2.0699951171875 9.137474822998048 1.7374961853027344 9.137474822998048 1.4999969482421875 Z
M 7.094981384277343 4.017488861083985
Q 6.524983215332031 3.5899902343750005 5.907485198974609 3.304991149902344 5.2424873352050785 3.0199920654296877 4.482489776611328 2.972492218017578 4.292490386962891 2.972492218017578 4.102490997314454 3.0199920654296877 3.864991760253907 3.0199920654296877 3.6749923706054686 3.0674919128417972 3.4374931335449217 3.1624916076660154 3.294993591308594 3.2574913024902346 3.199993896484375 3.3999908447265623 3.199993896484375 3.637490081787109 3.199993896484375 3.779989624023438 3.294993591308594 3.9224891662597656 3.389993286132813 4.017488861083985 3.532492828369141 4.064988708496094 3.62749252319336 4.1599884033203125 3.8174919128417972 4.207488250732422 3.959991455078125 4.207488250732422 4.149990844726562 4.207488250732422 4.292490386962891 4.207488250732422 4.434989929199219 4.207488250732422 4.577489471435547 4.207488250732422 4.767488861083985 4.207488250732422 5.479986572265625 4.207488250732422 6.192484283447266 4.397487640380859 6.952481842041015 4.587487030029297 7.522480010986328 5.014985656738281 8.13997802734375 5.3949844360351555 8.472476959228516 6.0599822998046875 8.85247573852539 6.677480316162109 8.85247573852539 7.532477569580077 8.804975891113282 8.434974670410158 8.424977111816407 9.147472381591799 8.04497833251953 9.85997009277344 7.427480316162109 10.382468414306642 6.8099822998046875 10.857466888427735 6.002484893798828 11.142465972900391 5.2424873352050785 11.379965209960938 4.482489776611328 11.379965209960938 3.864991760253907 11.379965209960938 3.199993896484375 11.28496551513672 2.5349960327148438 11.142465972900391 1.9174980163574218 10.952466583251953 1.3 10.714967346191406 0.7775016784667969 10.334968566894533 0.20750350952148455 9.954969787597657 -0.2199951171875001 9.479971313476563
L 1.8224983215332031 7.2949783325195305
Q 2.297496795654297 7.864976501464843 2.962494659423828 8.1499755859375 3.62749252319336 8.434974670410158 4.292490386962891 8.434974670410158 4.529989624023438 8.434974670410158 4.767488861083985 8.387474822998048 5.052487945556641 8.387474822998048 5.337487030029297 8.292475128173828 5.574986267089844 8.197475433349611 5.717485809326172 8.054975891113282 5.907485198974609 7.912476348876953 5.907485198974609 7.722476959228516 5.907485198974609 7.532477569580077 5.8124855041503904 7.437477874755859 5.717485809326172 7.2949783325195305 5.527486419677734 7.247478485107422 5.384986877441406 7.199978637695312 5.194987487792968 7.152478790283203 4.957488250732422 7.152478790283203 4.767488861083985 7.152478790283203 4.624989318847656 7.152478790283203 4.434989929199219 7.152478790283203 4.292490386962891 7.152478790283203 4.149990844726562 7.152478790283203 3.4374931335449217 7.152478790283203 2.724995422363281 6.867479705810547 2.0124977111816404 6.58248062133789 1.4424995422363283 6.154981994628907 0.920001220703125 5.632483673095702 0.54000244140625 4.967485809326172 0.20750350952148455 4.302487945556641 0.20750350952148455 3.542490386962891 0.20750350952148455 2.639993286132813 0.6350021362304689 1.9749954223632813 1.0150009155273438 1.30999755859375 1.6799987792968751 0.8824989318847656 2.297496795654297 0.45500030517578127 3.057494354248047 0.21750106811523445 3.8174919128417972 0.027501678466796853 4.577489471435547 0.027501678466796853 5.764985656738281 0.027501678466796853 6.857482147216796 0.5025001525878907 7.949978637695312 0.9299987792968751 8.804975891113282 1.7374961853027344
L 7.094981384277343 4.017488861083985 Z
M 39.014878845214845 3.542490386962891
L 41.532370758056636 3.542490386962891 41.532370758056636 4.729986572265625
Q 41.95986938476562 4.207488250732422 42.62486724853515 3.8274894714355474 43.337364959716794 3.447490692138672 44.049862670898435 3.447490692138672 44.57236099243163 3.447490692138672 45.04735946655273 3.6849899291992188 45.52235794067382 3.969989013671875 45.85485687255859 4.34998779296875 46.18735580444336 4.777486419677734 46.3773551940918 5.299984741210937 46.56735458374023 5.822483062744141 46.56735458374023 6.297481536865234
L 46.56735458374023 11.28496551513672 43.95486297607422 11.28496551513672 44.049862670898435 7.247478485107422
Q 44.049862670898435 6.724980163574219 43.76486358642578 6.3924812316894535 43.479864501953124 6.0599822998046875 43.00486602783203 6.0599822998046875 42.76736679077148 6.0599822998046875 42.529867553710936 6.107482147216796 42.29236831665039 6.202481842041015 42.102368927001955 6.344981384277343 41.86486968994141 6.487480926513672 41.72237014770507 6.677480316162109 41.62737045288086 6.867479705810547 41.57987060546875 7.057479095458984 41.57987060546875 8.10247573852539 41.57987060546875 9.147472381591799 41.532370758056636 10.239968872070312 41.532370758056636 11.28496551513672
L 39.014878845214845 11.28496551513672 39.014878845214845 3.542490386962891 Z
M 22.199932861328126 3.542490386962891
L 24.71742477416992 3.542490386962891 24.71742477416992 4.729986572265625
Q 25.14492340087891 4.207488250732422 25.809921264648438 3.8274894714355474 26.522418975830078 3.447490692138672 27.23491668701172 3.447490692138672 27.757415008544925 3.447490692138672 28.23241348266602 3.6849899291992188 28.707411956787112 3.969989013671875 29.039910888671876 4.34998779296875 29.37240982055664 4.777486419677734 29.56240921020508 5.299984741210937 29.752408599853517 5.822483062744141 29.752408599853517 6.297481536865234
L 29.752408599853517 11.28496551513672 27.1399169921875 11.28496551513672 27.23491668701172 7.247478485107422
Q 27.23491668701172 6.724980163574219 26.949917602539063 6.3924812316894535 26.664918518066408 6.0599822998046875 26.189920043945314 6.0599822998046875 25.952420806884767 6.0599822998046875 25.71492156982422 6.107482147216796 25.477422332763673 6.202481842041015 25.287422943115235 6.344981384277343 25.049923706054688 6.487480926513672 24.907424163818362 6.677480316162109 24.81242446899414 6.867479705810547 24.764924621582033 7.057479095458984 24.764924621582033 8.10247573852539 24.764924621582033 9.147472381591799 24.71742477416992 10.239968872070312 24.71742477416992 11.28496551513672
L 22.199932861328126 11.28496551513672 22.199932861328126 3.542490386962891 Z
M 21.249935913085938 3.4949905395507814
Q 21.34493560791016 5.537483978271484 21.439935302734376 7.484977722167969 21.534934997558594 9.432471466064454 21.534934997558594 11.427465057373047 21.534934997558594 12.472461700439455 21.249935913085938 13.232459259033204 20.964936828613283 13.992456817626953 20.442438507080077 14.514955139160156 19.919940185546878 15.03745346069336 19.207442474365237 15.274952697753907 18.494944763183597 15.559951782226564 17.25994873046875 15.559951782226564 16.40495147705078 15.559951782226564 15.549954223632813 15.179953002929688 14.742456817626953 14.799954223632813 14.124958801269532 14.182456207275392 13.50746078491211 13.564958190917968 13.174961853027344 12.75746078491211 12.79496307373047 11.94996337890625 12.889962768554687 11.047466278076174
L 15.454954528808594 11.664964294433593
Q 15.454954528808594 12.04496307373047 15.644953918457032 12.329962158203125 15.83495330810547 12.614961242675781 16.119952392578124 12.804960632324219 16.40495147705078 12.994960021972657 16.784950256347656 13.042459869384766 17.16494903564453 13.137459564208985 17.592447662353514 13.089959716796875 18.25744552612305 12.994960021972657 18.494944763183597 12.614961242675781 18.77994384765625 12.187462615966798 18.87494354248047 11.712464141845704 18.96994323730469 11.1899658203125 18.87494354248047 10.714967346191406 18.82744369506836 10.192469024658203 18.77994384765625 9.85997009277344 18.352445220947267 10.382468414306642 17.782447052001956 10.619967651367189 17.16494903564453 10.857466888427735 16.499951171875 10.857466888427735 15.83495330810547 10.809967041015627 15.169955444335939 10.57246780395508 14.504957580566407 10.334968566894533 13.982459259033204 9.85997009277344 13.459960937500002 9.432471466064454 13.174961853027344 8.814973449707031 12.842462921142578 8.197475433349611 12.889962768554687 7.437477874755859 12.889962768554687 6.724980163574219 13.127462005615234 6.0599822998046875 13.364961242675781 5.347484588623047 13.839959716796875 4.824986267089844 14.26745834350586 4.254988098144532 14.884956359863283 3.874989318847656 15.502454376220703 3.542490386962891 16.167452239990233 3.447490692138672 16.879949951171874 3.3524909973144537 17.592447662353514 3.542490386962891 18.352445220947267 3.7324897766113283 19.017443084716795 4.34998779296875
L 19.017443084716795 3.4949905395507814 21.249935913085938 3.4949905395507814 Z
M 17.782447052001956 8.339974975585937
Q 17.97244644165039 8.10247573852539 18.11494598388672 7.817476654052735 18.209945678710938 7.484977722167969 18.25744552612305 7.199978637695312 18.25744552612305 6.867479705810547 18.209945678710938 6.58248062133789 18.11494598388672 6.249981689453125 17.97244644165039 6.0599822998046875 17.782447052001956 5.774983215332031 17.449948120117188 5.679983520507813 17.16494903564453 5.584983825683594 16.83245010375977 5.632483673095702 16.499951171875 5.632483673095702 16.21495208740234 5.774983215332031 15.929953002929688 5.91748275756836 15.73995361328125 6.0599822998046875 15.597454071044924 6.249981689453125 15.502454376220703 6.534980773925781 15.454954528808594 6.819979858398437 15.454954528808594 7.104978942871094 15.454954528808594 7.342478179931641 15.549954223632813 7.6274772644042965 15.644953918457032 7.864976501464843 15.73995361328125 8.054975891113282 15.929953002929688 8.292475128173828 16.21495208740234 8.434974670410158 16.499951171875 8.577474212646484 16.784950256347656 8.577474212646484 17.11744918823242 8.624974060058594 17.354948425292967 8.577474212646484 17.639947509765626 8.482474517822265 17.782447052001956 8.339974975585937 Z
M 9.232474517822265 3.637490081787109
L 12.08246536254883 3.637490081787109 12.08246536254883 11.23746566772461 9.469973754882814 11.23746566772461 9.232474517822265 3.637490081787109 Z"/>
</g>
</g>
</g>
</g>

<g id="Layer_2" transform="matrix( 1.2423095703125, 0.1086883544921875, -0.1086883544921875, 1.2423095703125, 3.65,-3.25) "/>

<g id="Layer_11" transform="matrix( 1.2423095703125, 0.1086883544921875, -0.1086883544921875, 1.2423095703125, 3.65,-3.25) ">
<g id="Layer_1" transform="matrix( 0.9999847412109375, 0, 0, 0.944580078125, -48.5,-6.5) ">
<g>
<g>
<g>
<path fill="#FFFFFF" stroke="none" d="
M 37.25 9.45
L 34.4 9.45 34.65 17.05 37.25 17.05 37.25 9.45
M 32.7 10.8
Q 32.15 10.4 31.4 10.2 30.65 10 29.95 10 29.75 10 29.65 10 29.5 10.05 29.3 10.05 29.15 10.05 29 10 28.85 10 28.7 9.9 28.55 9.8 28.45 9.7 28.4 9.6 28.35 9.45 28.35 9.2 28.5 9.1 28.65 8.95 28.85 8.9 29.05 8.85 29.3 8.8 29.5 8.8 29.7 8.8 30.45 8.85 31.1 9.1 31.7 9.4 32.3 9.8
L 34 7.55
Q 33.15 6.75 32.05 6.3 30.95 5.85 29.75 5.85 29 5.85 28.25 6.05 27.5 6.25 26.85 6.7 26.2 7.1 25.8 7.8 25.4 8.45 25.4 9.35 25.4 10.15 25.75 10.8 26.1 11.45 26.65 11.95 27.2 12.4 27.9 12.7 28.65 12.95 29.35 13 29.5 13 29.65 12.95 29.8 12.95 29.95 12.95 30.15 12.95 30.4 13 30.6 13 30.75 13.05 30.9 13.1 31 13.25 31.1 13.35 31.1 13.5 31.1 13.7 30.9 13.85 30.75 14 30.5 14.1 30.25 14.2 30 14.2 29.7 14.25 29.5 14.25 28.8 14.25 28.15 13.95 27.5 13.65 27 13.15
L 25 15.3
Q 25.4 15.8 25.95 16.15 26.5 16.5 27.15 16.75 27.75 16.95 28.4 17.1 29.05 17.2 29.65 17.2 30.45 17.2 31.2 16.95 32 16.65 32.6 16.2 33.25 15.7 33.65 14.95 34 14.25 34.05 13.35 34.05 12.5 33.7 11.85 33.3 11.25 32.7 10.8
M 34.65 6.25
Q 34.45 6.5 34.4 6.8 34.3 7.1 34.3 7.35 34.3 7.6 34.4 7.85 34.5 8.15 34.7 8.4 34.85 8.65 35.2 8.85 35.55 9 36.05 9 36.45 9 36.7 8.8 36.95 8.65 37.15 8.4 37.3 8.15 37.4 7.9 37.45 7.65 37.45 7.5 37.45 5.65 35.8 5.65 35.35 5.65 35.1 5.85 34.8 6 34.65 6.25
M 42.8 9.35
Q 42.1 9.15 41.4 9.25 40.7 9.35 40.1 9.7 39.45 10.1 39.05 10.65 38.6 11.15 38.35 11.85 38.1 12.55 38.1 13.25 38.05 14 38.4 14.65 38.7 15.25 39.2 15.7 39.75 16.15 40.4 16.4 41.05 16.65 41.7 16.65 42.4 16.7 43 16.45 43.6 16.2 44 15.7 44.05 16 44.1 16.5 44.15 17.05 44.1 17.55 44 18 43.75 18.4 43.45 18.8 42.8 18.9 42.4 18.95 42 18.85 41.6 18.8 41.3 18.6 41.05 18.45 40.85 18.15 40.7 17.85 40.65 17.45
L 38.1 16.9
Q 38.05 17.75 38.35 18.55 38.7 19.35 39.35 20 39.95 20.6 40.8 21 41.6 21.35 42.45 21.35 43.7 21.35 44.4 21.1 45.1 20.85 45.65 20.3 46.15 19.8 46.45 19.05 46.75 18.25 46.75 17.25 46.75 15.25 46.65 13.3 46.55 11.35 46.5 9.3
L 44.25 9.3 44.25 10.15
Q 43.55 9.55 42.8 9.35
M 40.75 12.35
Q 40.8 12.1 40.95 11.9 41.1 11.7 41.4 11.6 41.7 11.45 42.05 11.45 42.35 11.4 42.7 11.5 43 11.6 43.15 11.85 43.35 12.1 43.4 12.4 43.45 12.7 43.45 13 43.45 13.3 43.3 13.6 43.2 13.9 43 14.15 42.85 14.3 42.6 14.4 42.3 14.45 42 14.4 41.7 14.4 41.4 14.25 41.15 14.1 40.95 13.9 40.85 13.7 40.75 13.45 40.7 13.2 40.65 12.9 40.65 12.6 40.75 12.35
M 50.85 11.95
Q 51.1 11.85 51.35 11.85 51.8 11.85 52.1 12.2 52.4 12.55 52.4 13.1
L 52.3 17.1 54.9 17.1 54.9 12.15
Q 54.9 11.6 54.7 11.1 54.5 10.6 54.2 10.2 53.85 9.8 53.35 9.5 52.9 9.25 52.35 9.25 51.65 9.25 51 9.65 50.3 10 49.85 10.55
L 49.85 9.35 47.35 9.4 47.35 17.1 49.9 17.1
Q 49.9 16.05 49.9 15 49.9 13.9 49.95 12.85 49.95 12.65 50.1 12.5 50.2 12.3 50.4 12.15 50.6 12.05 50.85 11.95
M 63.25 17.1
L 63.35 5.95 60.15 5.95 60.05 17.1 63.25 17.1
M 71.75 12.15
Q 71.75 11.6 71.55 11.1 71.35 10.6 71.05 10.2 70.7 9.8 70.2 9.5 69.75 9.25 69.2 9.25 68.5 9.25 67.85 9.65 67.15 10 66.7 10.55
L 66.7 9.35 64.2 9.4 64.2 17.1 66.75 17.1
Q 66.75 16.05 66.75 15 66.75 13.9 66.8 12.85 66.8 12.65 66.95 12.5 67.05 12.3 67.25 12.15 67.45 12.05 67.7 11.95 67.95 11.85 68.2 11.85 68.65 11.85 68.95 12.2 69.25 12.55 69.25 13.1
L 69.15 17.1 71.75 17.1 71.75 12.15 Z"/>
</g>
</g>
</g>
</g>
</g>

<g id="Layer_5" transform="matrix( 1.2423095703125, 0.1086883544921875, -0.1086883544921875, 1.2423095703125, 3.65,-3.25) ">
<g id="Layer_1" transform="matrix( 1, 0, 0, 1.30145263671875, -32.3,-39.55) ">
<g transform="matrix( 0.936309814453125, 0, 0, 0.980133056640625, 32.3,40.9) ">
<g>
<g>
<path fill="url(#Gradient_1)" stroke="none" d="
M 24.4 -27.1
Q 34.5 -29.65 34.5 -33.15 34.5 -36.75 24.4 -39.2 14.25 -41.75 0 -41.75 -14.25 -41.75 -24.4 -39.2 -34.5 -36.75 -34.5 -33.15 -34.5 -29.65 -24.4 -27.1 -14.25 -24.65 0 -24.65 14.25 -24.65 24.4 -27.1 Z"/>
</g>
</g>

<g transform="matrix( 1.0680084228515625, 0, 0, 1.020263671875, -34.45,-41.7) ">
<path stroke="url(#Gradient_2)" stroke-width="3" stroke-linejoin="round" stroke-linecap="round" fill="none" d="
M 64.60268859863281 8.408589172363278
Q 64.60268859863281 4.88011016845703 55.145959472656244 2.4787841796874943 45.64241485595703 -0.02055511474609517 32.3 -0.02055511474609517 18.957585144042966 -0.02055511474609517 9.45404052734375 2.4787841796874943 -0.002688598632815342 4.88011016845703 -0.002688598632815342 8.408589172363278 -0.002688598632815342 11.83905487060547 9.45404052734375 14.338394165039059 18.957585144042966 16.739720153808594 32.3 16.739720153808594 45.64241485595703 16.739720153808594 55.145959472656244 14.338394165039059 64.60268859863281 11.83905487060547 64.60268859863281 8.408589172363278 Z"/>
</g>
</g>
</g>
</g>

<g id="Layer_19" transform="matrix( 1.2423095703125, 0.1086883544921875, -0.1086883544921875, 1.2423095703125, 3.65,-3.25) ">
<g id="Layer_1" transform="matrix( 1, 0, 0, 1.4080047607421875, -32.3,-39.6) ">
<g>
<g>
<g>
<path fill="url(#Gradient_6)" stroke="none" d="
M 48.55 9.25
Q 52.65 8.45 54.25 7.55 55.25 6.9 55.25 6.2 55.25 4.35 48.55 3 41.8 1.8 32.3 1.8 22.8 1.8 16.05 3 9.35 4.35 9.35 6.2 9.35 6.9 10.4 7.55 11.95 8.45 16.05 9.25 22.8 10.45 32.3 10.45 41.8 10.45 48.55 9.25 Z"/>
</g>
</g>
</g>
</g>
</g>

<g id="Layer_20" transform="matrix( 1.2423095703125, 0.1086883544921875, -0.1086883544921875, 1.2423095703125, 3.65,-3.25) ">
<g id="Layer_1" transform="matrix( 1, 0, 0, 1.5218353271484375, -32.3,-40.45) ">
<g>
<g>
<g>
<path fill="url(#Gradient_7)" stroke="none" d="
M 54.25 7.55
Q 52.65 6.5 48.55 5.65 41.8 4.45 32.3 4.45 22.8 4.45 16.05 5.65 11.95 6.5 10.4 7.55 11.95 8.45 16.05 9.25 22.8 10.45 32.3 10.45 41.8 10.45 48.55 9.25 52.65 8.45 54.25 7.55 Z"/>
</g>
</g>
</g>
</g>
</g>
</g>

<g id="Layer_4" transform="matrix( 0.997650146484375, 0, 0, 0.997650146484375, 74.25,128.25) ">
<g>
<g>
<g>
<path fill="url(#Gradient_8)" stroke="none" d="
M 24.1 -39.75
Q 23.571875 -37.10546875 21.35 -36.45 19.1322265625 -35.7455078125 16.1 -36.55 13.052734375 -37.3552734375 9.25 -38.6 5.512109375 -39.7859375 -0.55 -41.15 -8.603125 -42.9046875 -18.15 -42.45 -23.3572265625 -42.134375 -22.85 -40.55 -23.0998046875 -40.498828125 -21.95 -39.2 -20.8060546875 -37.9046875 -15.8 -35.7 -10.7931640625 -33.49453125 -8.6 -31.35 -7.0349609375 -29.425 -10.65 -27.7 -14.21015625 -25.922265625 -15.15 -25.2 -16.0982421875 -24.430859375 -16.5 -23.15 -16.83828125 -21.821484375 -15.4 -20.7 -13.9306640625 -19.5283203125 -9.65 -19.5 -8.5505859375 -19.4994140625 -7.35 -19.45 -4.679296875 -19.5025390625 -1.9 -19.7 2.78203125 -20.131640625 7.5 -20.7 11.508984375 -21.0267578125 15.2 -21.8 19.5322265625 -22.736328125 23.4 -24.2 29.8126953125 -26.604296875 34.05 -30.35 38.340234375 -34.0869140625 37.8 -37.5 37.250390625 -40.870703125 35.25 -43.1 33.261328125 -45.3291015625 30.4 -46.15 27.5751953125 -46.9259765625 26.35 -46.05 25.175390625 -45.1158203125 24.9 -43.75 24.6796875 -42.3462890625 24.1 -39.75 Z"/>
</g>
</g>

<g>
<path stroke="#E0BA00" stroke-width="3" stroke-linejoin="round" stroke-linecap="round" fill="none" d="
M 16.1 -36.55
Q 19.1322265625 -35.7455078125 21.35 -36.425 23.571875 -37.10546875 24.125 -39.725 24.6796875 -42.3462890625 24.925 -43.725 25.175390625 -45.1158203125 26.375 -46.025 27.5751953125 -46.9259765625 30.425 -46.125 33.261328125 -45.3291015625 35.25 -43.1 37.250390625 -40.870703125 37.8 -37.475 38.340234375 -34.0869140625 34.075 -30.35 29.8126953125 -26.604296875 23.425 -24.2 19.5322265625 -22.736328125 15.2 -21.775 11.508984375 -21.0267578125 7.525 -20.7 2.78203125 -20.131640625 -1.875 -19.7 -4.679296875 -19.5025390625 -7.35 -19.45 -8.5505859375 -19.4994140625 -9.65 -19.5 -13.9306640625 -19.5283203125 -15.375 -20.675 -16.83828125 -21.821484375 -16.475 -23.125 -16.0982421875 -24.430859375 -15.15 -25.175 -14.21015625 -25.922265625 -10.625 -27.675 -7.0349609375 -29.425 -8.6 -31.35 -10.7931640625 -33.49453125 -15.8 -35.7 -20.8060546875 -37.9046875 -21.95 -39.2 -23.0998046875 -40.498828125 -22.85 -40.55 -23.3572265625 -42.134375 -18.15 -42.45 -8.603125 -42.9046875 -0.55 -41.125 5.512109375 -39.7859375 9.275 -38.575 13.052734375 -37.3552734375 16.1 -36.55 Z"/>
</g>
</g>
</g>

<g id="Layer_5" transform="matrix( 0.997650146484375, 0, 0, 0.997650146484375, 74.25,128.25) ">
<g>
<g>
<g>
<path fill="url(#Gradient_8)" stroke="none" d="
M -49.2 -50.1
Q -49.2 -50.55 -49.45 -50.8
L -49.6 -51.1 -50.1 -51.45
Q -50.55 -51.75 -51.1 -51.5 -51.65 -51.25 -51.65 -50.7 -51.65 -50.25 -51.2 -49.6
L -50.95 -49.3
Q -50.65 -49 -50.15 -49 -49.75 -49.05 -49.4 -49.4 -49.2 -49.7 -49.2 -50.1 Z"/>
</g>
</g>

<g>
<path stroke="#E0BA00" stroke-width="3" stroke-linejoin="round" stroke-linecap="round" fill="none" d="
M -51.2 -49.6
Q -51.65 -50.25 -51.65 -50.7 -51.65 -51.25 -51.1 -51.5 -50.55 -51.75 -50.1 -51.45
L -49.6 -51.1 -49.45 -50.8
Q -49.2 -50.55 -49.2 -50.1 -49.2 -49.7 -49.4 -49.4 -49.75 -49.05 -50.15 -49 -50.65 -49 -50.95 -49.3
L -51.2 -49.6 Z"/>
</g>
</g>
</g>

<g id="Layer_6" transform="matrix( 0.997650146484375, 0, 0, 0.997650146484375, 74.25,128.25) ">
<g>
<g>
<g>
<path fill="url(#Gradient_8)" stroke="none" d="
M -40.75 -46.2
L -40.8 -45.95 -40.75 -45.6
Q -40.65 -45.35 -40.45 -45.2 -40.05 -44.8 -39.4 -44.95 -38.8 -45.15 -38.7 -45.7 -38.55 -46.35 -39 -46.75 -39.5 -47.1 -40.05 -46.95 -40.7 -46.7 -40.75 -46.2 Z"/>
</g>
</g>

<g>
<path stroke="#E0BA00" stroke-width="3" stroke-linejoin="round" stroke-linecap="round" fill="none" d="
M -40.05 -46.95
Q -39.5 -47.1 -39 -46.75 -38.55 -46.35 -38.7 -45.7 -38.8 -45.15 -39.4 -44.95 -40.05 -44.8 -40.45 -45.2 -40.65 -45.35 -40.75 -45.6
L -40.8 -45.95 -40.75 -46.2
Q -40.7 -46.7 -40.05 -46.95 Z"/>
</g>
</g>
</g>

<g id="Layer_7" transform="matrix( 0.997650146484375, 0, 0, 0.997650146484375, 74.25,128.25) ">
<g>
<g>
<g>
<path fill="url(#Gradient_8)" stroke="none" d="
M -34.4 -34.3
Q -35 -33.8 -35.4 -33.15 -36.25 -31.9 -35.15 -30.7 -33.9 -29.35 -32.15 -29.6 -31.55 -29.95 -31.3 -30.35 -30.1 -32.3 -31.9 -33.7 -32 -33.95 -32.1 -34.15 -32.3 -34.5 -32.5 -34.75 -32.75 -35.15 -33.2 -35.1 -33.85 -34.75 -34.4 -34.3 Z"/>
</g>
</g>

<g>
<path stroke="#E0BA00" stroke-width="3" stroke-linejoin="round" stroke-linecap="round" fill="none" d="
M -31.9 -33.7
Q -30.1 -32.3 -31.3 -30.35 -31.55 -29.95 -32.15 -29.6 -33.9 -29.35 -35.15 -30.7 -36.25 -31.9 -35.4 -33.15 -35 -33.8 -34.4 -34.3 -33.85 -34.75 -33.2 -35.1 -32.75 -35.15 -32.5 -34.75 -32.3 -34.5 -32.1 -34.15 -32 -33.95 -31.9 -33.7 Z"/>
</g>
</g>
</g>

<g id="Layer_8" transform="matrix( 0.997650146484375, 0, 0, 0.997650146484375, 74.25,128.25) "/>

<g id="Layer_9" transform="matrix( 0.997650146484375, 0, 0, 0.997650146484375, 74.25,128.25) "/>

<g id="Layer_10" transform="matrix( 0.997650146484375, 0, 0, 0.997650146484375, 74.25,128.25) "/>

<g id="Layer_11" transform="matrix( 0.997650146484375, 0, 0, 0.997650146484375, 74.25,128.25) "/>

<g id="Layer_12" transform="matrix( 0.997650146484375, 0, 0, 0.997650146484375, 74.25,128.25) "/>

<g id="Layer_13" transform="matrix( 0.997650146484375, 0, 0, 0.997650146484375, 74.25,128.25) "/>

<g id="Layer_14" transform="matrix( 0.997650146484375, 0, 0, 0.997650146484375, 74.25,128.25) "/>

<g id="Layer_15" transform="matrix( 0.997650146484375, 0, 0, 0.997650146484375, 74.25,128.25) "/>

<g id="Layer_16" transform="matrix( 0.997650146484375, 0, 0, 0.997650146484375, 74.25,128.25) "/>
</g>
</svg>
