
<svg xmlns="http://www.w3.org/2000/svg" version="1.1" xmlns:xlink="http://www.w3.org/1999/xlink" preserveAspectRatio="none" x="0px" y="0px" width="85px" height="85px" viewBox="0 0 85 85">
<defs/>

<g id="Layer_2"/>

<g id="Layer_1"/>

<g id="Layer_5"/>

<g id="Layer_4">
<g id="Layer_2" transform="matrix( 1, 0, 0, 1, 42.5,42.55) "/>

<g id="Layer_3" transform="matrix( 1, 0, 0, 1, 42.5,42.55) "/>

<g id="Layer_1" transform="matrix( 1, 0, 0, 1, 42.5,42.55) ">
<g transform="matrix( 1, 0, 0, 1, 0,-1.85) ">
<g>
<g>
<path fill="#FFE465" stroke="none" d="
M -4.3 -19.35
L -20.8 -19.35 -20.8 23 -4.3 23 -4.3 -19.35
M 20.85 -19.35
L 4.4 -19.35 4.4 23 20.85 23 20.85 -19.35 Z"/>
</g>
</g>

<g>
<path stroke="#FFE465" stroke-width="6" stroke-linejoin="round" stroke-linecap="round" fill="none" d="
M 39.5 1.85
Q 39.5 18.25 28 29.85 16.4 41.4 0 41.4 -16.4 41.4 -27.95 29.85 -39.5 18.25 -39.5 1.85 -39.5 -14.55 -27.95 -26.15 -16.4 -37.7 0 -37.7 16.4 -37.7 28 -26.15 39.5 -14.55 39.5 1.85 Z"/>
</g>
</g>
</g>
</g>
</svg>
