
<svg xmlns="http://www.w3.org/2000/svg" version="1.1" xmlns:xlink="http://www.w3.org/1999/xlink" preserveAspectRatio="none" x="0px" y="0px" width="89px" height="57px" viewBox="0 0 89 57">
<defs>
<linearGradient id="Gradient_1" gradientUnits="userSpaceOnUse" x1="-0.05" y1="-26.7" x2="-0.05" y2="73.8" spreadMethod="pad">
<stop  offset="0%" stop-color="#FFE465"/>

<stop  offset="100%" stop-color="#E0BA00"/>
</linearGradient>

<linearGradient id="Gradient_2" gradientUnits="userSpaceOnUse" x1="-94.875" y1="0.05" x2="94.67500000000001" y2="0.05" spreadMethod="pad">
<stop  offset="0%" stop-color="#1FD6FC"/>

<stop  offset="100%" stop-color="#0261E6"/>
</linearGradient>

<linearGradient id="Gradient_3" gradientUnits="userSpaceOnUse" x1="29.95" y1="-16.1" x2="29.95" y2="13.4" spreadMethod="pad">
<stop  offset="0%" stop-color="#FFE465"/>

<stop  offset="100%" stop-color="#E0BA00"/>
</linearGradient>

<linearGradient id="Gradient_4" gradientUnits="userSpaceOnUse" x1="0" y1="222.20000000000002" x2="0" y2="-221.9" spreadMethod="pad">
<stop  offset="0%" stop-color="#1FD6FC"/>

<stop  offset="100%" stop-color="#0261E6"/>
</linearGradient>

<linearGradient id="Gradient_5" gradientUnits="userSpaceOnUse" x1="0" y1="-23.575" x2="0" y2="65.175" spreadMethod="pad">
<stop  offset="0%" stop-color="#FFE465"/>

<stop  offset="100%" stop-color="#E0BA00"/>
</linearGradient>
</defs>

<g id="Layer_2"/>

<g id="Layer_1"/>

<g id="Layer_5"/>

<g id="Layer_4">
<g id="Layer_4" transform="matrix( 0.47027587890625, 0, 0, 0.47027587890625, 44.9,28.7) ">
<g>
<g>
<g>
<path fill="url(#Gradient_1)" stroke="none" d="
M 91.6 -53.45
Q 92.35 -54.85 91.45 -56.25 90.45 -57.65 88.4 -58.15 86.3 -58.7 84.25 -58.1
L 30.05 -42.7
Q 16.35 -46.95 -0.05 -46.95 -16.45 -46.95 -30.15 -42.7
L -84.35 -58.1
Q -86.4 -58.7 -88.5 -58.15 -90.55 -57.65 -91.55 -56.25 -92.45 -54.85 -91.7 -53.45
L -73.95 -19.05 -90.95 -4.55
Q -92.15 -3.35 -92.65 -1.7 -93.05 0 -92.65 1.8 -92.15 3.45 -90.95 4.55
L -73.95 19.1 -91.7 53.5
Q -92.45 54.9 -91.55 56.35 -90.55 57.7 -88.5 58.25 -86.4 58.75 -84.35 58.2
L -29.7 42.7
Q -16.2 46.75 -0.05 46.75 16.1 46.75 29.6 42.7
L 84.25 58.2
Q 86.3 58.75 88.4 58.25 90.45 57.7 91.45 56.35 92.35 54.9 91.6 53.5
L 73.8 19.05 90.75 4.55
Q 91.95 3.45 92.45 1.8 92.9 0 92.45 -1.7 91.95 -3.35 90.75 -4.55
L 73.8 -19 91.6 -53.45
M 28.65 -27.65
L 38.2 -27.65
Q 41.5 -27.65 43.85 -25.3 43.95 -25.2 44 -25.15 45.45 -28 48.45 -29.05 51.55 -30.2 54.6 -28.75
L 66.65 -23.05
Q 69.6 -21.65 70.75 -18.55 71.8 -15.6 70.6 -12.75
L 57.1 21.9
Q 55.9 24.95 52.85 26.3 51.1 27.05 49.3 27 47.65 27.1 41.65 26.95
L 37.15 26.95
Q 34.3 26.95 32.2 25.2 31 25.75 29.8 25.9 28.45 26.15 20.8 25.95
L 15.8 25.95
Q 12.6 25.95 10.3 23.75
L 10.25 23.75
Q 7.9 26.1 4.6 26.1
L -23.3 26.1
Q -25.5 26.1 -27.3 25.05 -29.1 26.1 -31.3 26.1
L -37.65 26.1
Q -40.95 26.1 -43.3 23.75 -44 23.05 -44.45 22.3 -44.95 23.05 -45.65 23.75 -47.7 25.85 -50.55 26.1
L -63.1 26.1
Q -66.25 26.05 -68.5 23.8 -70.9 21.5 -70.95 18.2
L -71.3 -19.55
Q -71.35 -22.85 -69 -25.2 -66.7 -27.6 -63.35 -27.65 -62.6 -27.65 -61.85 -27.5 -60.3 -27.6 -54.85 -27
L -53.05 -26.9
Q -49.75 -26.7 -47.55 -24.2 -47.05 -23.65 -46.65 -23.05 -46.1 -24.65 -44.8 -25.95 -42.5 -28.3 -34.8 -28.65 -27.5 -29 -25.55 -27.55
L -6 -28.35
Q 0.15 -28.75 2.05 -28.7 5.1 -28.8 7.5 -26.7 7.75 -26.5 7.95 -26.3
L 8 -26.3 14 -28.15
Q 16.05 -28.85 18.2 -28.35 20.35 -27.85 21.95 -26.3 22.5 -25.8 22.9 -25.2 22.95 -25.25 23 -25.3 25.35 -27.65 28.65 -27.65 Z"/>
</g>
</g>

<g>
<path stroke="url(#Gradient_2)" stroke-width="4" stroke-linejoin="round" stroke-linecap="square" fill="none" d="
M -84.35 -58.1
L -30.15 -42.7
Q -16.45 -46.95 -0.05 -46.95 16.35 -46.95 30.05 -42.7
L 84.25 -58.1
Q 86.3 -58.7 88.4 -58.15 90.45 -57.65 91.45 -56.25 92.35 -54.85 91.6 -53.45
L 73.8 -19 90.75 -4.55
Q 91.95 -3.35 92.45 -1.7 92.9 0 92.45 1.8 91.95 3.45 90.75 4.55
L 73.825 19.075 91.6 53.5
Q 92.35 54.9 91.45 56.35 90.45 57.7 88.4 58.25 86.3 58.75 84.25 58.2
L 29.6 42.7
Q 16.1 46.75 -0.05 46.75 -16.2 46.75 -29.7 42.7
L -84.35 58.2
Q -86.4 58.75 -88.5 58.25 -90.55 57.7 -91.55 56.35 -92.45 54.9 -91.7 53.5
L -73.925 19.1 -90.95 4.55
Q -92.15 3.45 -92.65 1.8 -93.05 0 -92.65 -1.7 -92.15 -3.35 -90.95 -4.55
L -73.925 -19.05 -91.7 -53.45
Q -92.45 -54.85 -91.55 -56.25 -90.55 -57.65 -88.5 -58.15 -86.4 -58.7 -84.35 -58.1 Z"/>
</g>
</g>
</g>

<g id="Layer_5" transform="matrix( 0.47027587890625, 0, 0, 0.47027587890625, 44.9,28.7) "/>

<g id="Layer_2" transform="matrix( 0.47027587890625, 0, 0, 0.47027587890625, 44.9,28.7) ">
<g transform="matrix( 1, 0, 0, 1, 4.15,0) ">
<g>
<g>
<path fill="url(#Gradient_3)" stroke="none" d="
M -43.25 -20.35
L -43.2 -2.35 -57.6 -18.9 -67.4 -19.65 -67.05 18.1 -55.4 18.1 -55.4 2.25 -41.75 18.1 -31.85 18.1 -31.85 -20.7 -43.25 -20.35
M 0.5 18.1
L 0.5 7.3 -17.55 8.2 -17.8 3.7 -3.35 2.7 -3.9 -6.95 -18.45 -5.9 -18.8 -10.15 -1.15 -10.45 -1.85 -20.7 -29.8 -19.55 -27.4 18.1 0.5 18.1
M 12.3 -20.55
L 0.75 -17 11.7 17.95 24.7 17.95 28.95 0.1 33.05 18.95 45.55 18.95 59.1 -15.85 47.05 -21.55 39 2.9 34.1 -19.65 24.55 -19.65 18.45 1.2 12.3 -20.55 Z"/>
</g>
</g>

<g>
<path stroke="url(#Gradient_4)" stroke-width="8" stroke-linejoin="round" stroke-linecap="square" fill="none" d="
M 24.55 -19.65
L 34.1 -19.65 39 2.9 47.05 -21.55 59.1 -15.85 45.55 18.95 33.05 18.95 28.95 0.1 24.7 17.95 11.7 17.95 0.75 -17 12.3 -20.55 18.45 1.2 24.55 -19.65 Z
M -17.55 8.2
L 0.5 7.3 0.5 18.1 -27.4 18.1 -29.8 -19.55 -1.85 -20.7 -1.15 -10.45 -18.8 -10.15 -18.45 -5.9 -3.9 -6.95 -3.35 2.7 -17.8 3.7 -17.55 8.2 Z
M -41.75 18.1
L -55.4 2.25 -55.4 18.1 -67.05 18.1 -67.4 -19.65 -57.6 -18.9 -43.2 -2.35 -43.25 -20.35 -31.85 -20.7 -31.85 18.1 -41.75 18.1 Z"/>
</g>
</g>

<g transform="matrix( 1, 0, 0, 1, 4.15,0) ">
<g>
<g>
<path fill="url(#Gradient_5)" stroke="none" d="
M -43.25 -20.35
L -43.2 -2.35 -57.6 -18.9 -67.4 -19.65 -67.05 18.1 -55.4 18.1 -55.4 2.25 -41.75 18.1 -31.85 18.1 -31.85 -20.7 -43.25 -20.35
M 0.5 18.1
L 0.5 7.3 -17.55 8.2 -17.8 3.7 -3.35 2.7 -3.9 -6.95 -18.45 -5.9 -18.8 -10.15 -1.15 -10.45 -1.85 -20.7 -29.8 -19.55 -27.4 18.1 0.5 18.1
M 34.1 -19.65
L 24.55 -19.65 18.45 1.2 12.3 -20.55 0.75 -17 11.7 17.95 24.7 17.95 28.95 0.1 33.05 18.95 45.55 18.95 59.1 -15.85 47.05 -21.55 39 2.9 34.1 -19.65 Z"/>
</g>
</g>

<g>
<path stroke="#FFFFFF" stroke-width="3" stroke-linejoin="round" stroke-linecap="square" fill="none" d="
M 59.1 -15.85
L 45.55 18.95 33.05 18.95 28.95 0.1 24.7 17.95 11.7 17.95 0.75 -17 12.3 -20.55 18.45 1.2 24.55 -19.65 34.1 -19.65 39 2.9 47.05 -21.55 59.1 -15.85 Z
M -17.55 8.2
L 0.5 7.3 0.5 18.1 -27.4 18.1 -29.8 -19.55 -1.85 -20.7 -1.15 -10.45 -18.8 -10.15 -18.45 -5.9 -3.9 -6.95 -3.35 2.7 -17.8 3.7 -17.55 8.2 Z
M -41.75 18.1
L -55.4 2.25 -55.4 18.1 -67.05 18.1 -67.4 -19.65 -57.6 -18.9 -43.2 -2.35 -43.25 -20.35 -31.85 -20.7 -31.85 18.1 -41.75 18.1 Z"/>
</g>
</g>
</g>

<g id="Layer_3" transform="matrix( 0.47027587890625, 0, 0, 0.47027587890625, 44.9,28.7) "/>
</g>
</svg>
