
<svg xmlns="http://www.w3.org/2000/svg" version="1.1" xmlns:xlink="http://www.w3.org/1999/xlink" preserveAspectRatio="none" x="0px" y="0px" width="38px" height="38px" viewBox="0 0 38 38">
<defs/>

<g id="Layer_2"/>

<g id="Layer_1"/>

<g id="Layer_5"/>

<g id="Layer_4">
<g id="Layer_1" transform="matrix( 0.9499969482421875, 0, 0, 0.9499969482421875, 19.25,19.3) ">
<g transform="matrix( 0.899993896484375, 0, 0, 0.899993896484375, 0,0) ">
<g>
<g>
<path fill="#FFE465" stroke="none" d="
M -13.6 -3.75
L -13.55 -3.75
Q -12.35 -3.65 -11.4 -2.7 -10.3 -1.6 -10.3 -0.05 -10.3 1.5 -11.4 2.65 -12.35 3.55 -13.55 3.7
L -13.6 3.7
Q -12.674609375 7.175390625 -9.95 9.9
L -9.95 9.9 -9.9 9.9
Q -9.15 8.9 -7.9 8.6 -6.4 8.15 -5.05 8.95 -3.7 9.75 -3.3 11.25 -2.95 12.5 -3.4 13.6 -3.4109375 13.62734375 -3.45 13.65 -1.78984375 14.05 0 14.05 1.78203125 14.05 3.4 13.65 3 12.5 3.3 11.3 3.7 9.85 5.05 9.05 6.4 8.25 7.9 8.65 9.1 8.95 9.85 9.95 9.8751953125 9.9251953125 9.9 9.9 12.658984375 7.1744140625 13.55 3.7 12.3439453125 3.4943359375 11.45 2.65 10.35 1.5 10.35 -0.05 10.35 -1.6 11.45 -2.7 12.33984375 -3.58984375 13.55 -3.75 12.641796875 -7.208203125 9.9 -9.95
L 9.85 -10
Q 9.13203125 -8.994921875 7.9 -8.65 6.4 -8.25 5.05 -9.05 3.7 -9.85 3.3 -11.3 2.956640625 -12.5263671875 3.4 -13.65 1.7978515625 -14.05 0 -14.05 -1.7708984375 -14.05 -3.4 -13.7 -2.9548828125 -12.5328125 -3.3 -11.3 -3.7 -9.8 -5.05 -9 -6.4 -8.2 -7.9 -8.65 -9.1818359375 -8.945703125 -9.95 -10
L -9.95 -9.95
Q -12.65546875 -7.2115234375 -13.6 -3.75
M -4.2 -0.05
Q -4.2 -1.8 -3 -3.05 -1.75 -4.25 0 -4.25 1.75 -4.25 2.95 -3.05 4.2 -1.8 4.2 -0.05 4.2 1.7 2.95 2.9 1.75 4.15 0 4.15 -1.75 4.15 -3 2.9 -4.2 1.7 -4.2 -0.05 Z"/>
</g>
</g>
</g>

<g transform="matrix( 0.899993896484375, 0, 0, 0.899993896484375, -361.3,71.95) ">
<g transform="matrix( 1.111114501953125, 0, 0, 1.111114501953125, 401.4,-79.9) ">
<path stroke="#FFE465" stroke-width="5" stroke-linejoin="round" stroke-linecap="round" fill="none" d="
M -17.727330017089855 -17.824391174316403
L 17.822428894042957 -17.824391174316403 17.822428894042957 17.72536773681641 -17.727330017089855 17.72536773681641 -17.727330017089855 -17.824391174316403 Z"/>
</g>
</g>
</g>

<g id="Layer_2" transform="matrix( 0.9499969482421875, 0, 0, 0.9499969482421875, 19.25,19.3) "/>

<g id="Layer_3" transform="matrix( 0.9499969482421875, 0, 0, 0.9499969482421875, 19.25,19.3) "/>
</g>
</svg>
