
<svg xmlns="http://www.w3.org/2000/svg" version="1.1" xmlns:xlink="http://www.w3.org/1999/xlink" preserveAspectRatio="none" x="0px" y="0px" width="718px" height="436px" viewBox="0 0 718 436">
<defs>
<linearGradient id="Gradient_1" gradientUnits="userSpaceOnUse" x1="0" y1="-204.45000000000002" x2="0" y2="217.75000000000003" spreadMethod="pad">
<stop  offset="0%" stop-color="#1FD6FC" stop-opacity="0.2"/>

<stop  offset="100%" stop-color="#0261E6" stop-opacity="0.2"/>
</linearGradient>

<linearGradient id="Gradient_2" gradientUnits="userSpaceOnUse" x1="0" y1="222.20000000000002" x2="0" y2="-221.9" spreadMethod="pad">
<stop  offset="0%" stop-color="#1FD6FC"/>

<stop  offset="100%" stop-color="#0261E6"/>
</linearGradient>

<linearGradient id="Gradient_3" gradientUnits="userSpaceOnUse" x1="0" y1="-189.175" x2="0" y2="194.77500000000003" spreadMethod="pad">
<stop  offset="0%" stop-color="#FFE465"/>

<stop  offset="100%" stop-color="#E0BA00"/>
</linearGradient>
</defs>

<g id="Layer_2"/>

<g id="Layer_1"/>

<g id="Layer_5"/>

<g id="Layer_4">
<g transform="matrix( 0.95751953125, 0, 0, 0.976318359375, 359.25,218.05) ">
<g>
<g>
<path fill="url(#Gradient_1)" stroke="none" d="
M 363.8 -211.9
Q 357.8 -217.9 349.35 -217.9
L -349.35 -217.9
Q -357.8 -217.9 -363.7 -211.9 -369.65 -205.95 -369.65 -197.5
L -369.65 197.8
Q -369.65 206.25 -363.7 212.3 -357.8 218.2 -349.35 218.2
L 349.35 218.2
Q 357.8 218.2 363.75 212.3
L 363.8 212.25
Q 369.65 206.25 369.65 197.8
L 369.65 -197.5
Q 369.65 -205.95 363.8 -211.9 Z"/>
</g>
</g>

<g transform="matrix( 1.0443572998046875, 0, 0, 1.0242462158203125, -375.15,-223.3) ">
<path stroke="url(#Gradient_2)" stroke-width="8" stroke-linejoin="miter" stroke-linecap="square" stroke-miterlimit="3" fill="none" d="
M 693.7594482421875 5.310229492187517
L 24.740551757812455 5.310229492187517
Q 16.649511718749977 5.310229492187517 11.000146484375023 11.168139648437517 5.3029052734375455 16.97723388671878 5.3029052734375455 25.22712402343751
L 5.3029052734375455 411.165771484375
Q 5.3029052734375455 419.41566162109376 11.000146484375023 425.3223876953125 16.649511718749977 431.082666015625 24.740551757812455 431.082666015625
L 693.7594482421875 431.082666015625
Q 701.85048828125 431.082666015625 707.5477294921875 425.3223876953125
L 707.59560546875 425.27357177734376
Q 713.1970947265625 419.41566162109376 713.1970947265625 411.165771484375
L 713.1970947265625 25.22712402343751
Q 713.1970947265625 16.97723388671878 707.59560546875 11.168139648437517 701.85048828125 5.310229492187517 693.7594482421875 5.310229492187517 Z"/>
</g>
</g>

<g transform="matrix( 0.95751953125, 0, 0, 0.976318359375, 359.25,217.95) ">
<g>
<g>
<path fill="url(#Gradient_3)" stroke="none" d="
M 363.8 -211.9
Q 357.8 -217.9 349.35 -217.9
L -349.35 -217.9
Q -357.8 -217.9 -363.7 -211.9 -369.65 -205.95 -369.65 -197.5
L -369.65 197.8
Q -369.65 206.25 -363.7 212.3 -357.8 218.2 -349.35 218.2
L 349.35 218.2
Q 357.8 218.2 363.75 212.3
L 363.8 212.25
Q 369.65 206.25 369.65 197.8
L 369.65 -197.5
Q 369.65 -205.95 363.8 -211.9
M 349.35 -211.8
Q 355.3 -211.8 359.5 -207.55 363.6 -203.4 363.6 -197.5
L 363.6 197.8
Q 363.6 203.75 359.5 207.95 355.3 212.05 349.35 212.05
L -349.35 212.05
Q -355.3 212.05 -359.4 207.95 -363.6 203.75 -363.6 197.8
L -363.6 -197.5
Q -363.6 -203.4 -359.45 -207.55
L -359.4 -207.6
Q -355.3 -211.8 -349.35 -211.8
L 349.35 -211.8 Z"/>
</g>
</g>
</g>
</g>
</svg>
