
<svg xmlns="http://www.w3.org/2000/svg" version="1.1" xmlns:xlink="http://www.w3.org/1999/xlink" preserveAspectRatio="none" x="0px" y="0px" width="20px" height="35px" viewBox="0 0 20 35">
<defs/>

<g id="Layer_2"/>

<g id="Layer_1"/>

<g id="Layer_5"/>

<g id="Layer_4">
<g transform="matrix( 0.6925048828125, 0, 0, 0.6925048828125, 122.1,-137.2) ">
<g>
<g>
<path fill="#FFE465" stroke="none" d="
M -163.8 199
Q -165.9 198.45 -167.95 198.1 -165.85 199.6 -164.3 201.8 -162.85 203.9 -162.3 206.4 -161.7 209 -162.3 211.55 -162.85 214.15 -164.7 216 -166.6 217.95 -169.4 217.7 -172.2 217.25 -173.85 215.05 -175.05 213.55 -175.35 211.65 -176 214.8 -176.25 218 -176.45 221.3 -175.75 224.45 -175.05 227.6 -173.55 230.35 -173.05 231.25 -172.45 232.1 -172.05 232.9 -171.45 233.65 -169.8 235.75 -167.5 237.85 -165.3 239.95 -165.95 242.7 -166.65 245.35 -166.05 247.4 -165.5 249.35 -163.5 249.9 -161.45 250.45 -160.2 248.3 -159 246.2 -160.25 242.7 -161.5 239.2 -160 237.05 -158.55 234.9 -156.3 234.75 -155.7 234.7 -155.2 234.9 -154.35 235.3 -154.05 235.9 -153.75 236.6 -153.7 237.6 -153.75 238.5 -153.65 239.15 -153.55 239.8 -153.15 240.5 -152.75 241.1 -151.95 241.6 -151.15 242.05 -150.3 242.05 -149.45 242 -148.75 241.35 -148.05 240.65 -147.95 239.4 -147.9 238.05 -148.55 236.55 -149.2 235.05 -149.3 234.2 -149.45 233.4 -149.4 232.55 -149.2 231.8 -148.85 230.9
L -148.85 230.8
Q -148.8 230.75 -148.75 230.7 -148.75 230.6 -148.75 230.55 -148.65 230.4 -148.6 230.2 -147.6 227.1 -147.35 223.9 -147.05 220.55 -147.65 217.45 -148.25 214.25 -149.65 211.4 -151.1 208.5 -153.25 206 -155.25 203.55 -157.95 201.75 -160.65 200 -163.8 199 Z"/>
</g>
</g>
</g>
</g>
</svg>
