
<svg xmlns="http://www.w3.org/2000/svg" version="1.1" xmlns:xlink="http://www.w3.org/1999/xlink" preserveAspectRatio="none" x="0px" y="0px" width="38px" height="38px" viewBox="0 0 38 38">
<defs/>

<g id="Layer_2"/>

<g id="Layer_1"/>

<g id="Layer_5"/>

<g id="Layer_4">
<g id="Layer_1" transform="matrix( 0.9499969482421875, 0, 0, 0.9499969482421875, 19.2,19.3) ">
<g transform="matrix( 0.899993896484375, 0, 0, 0.899993896484375, -361.3,71.95) ">
<g transform="matrix( 1.111114501953125, 0, 0, 1.111114501953125, 401.4,-79.9) ">
<path stroke="#FFE465" stroke-width="5" stroke-linejoin="round" stroke-linecap="round" fill="none" d="
M -17.727330017089855 -17.824391174316403
L 17.822428894042957 -17.824391174316403 17.822428894042957 17.72536773681641 -17.727330017089855 17.72536773681641 -17.727330017089855 -17.824391174316403 Z"/>
</g>
</g>
</g>

<g id="Layer_2" transform="matrix( 0.9499969482421875, 0, 0, 0.9499969482421875, 19.2,19.3) ">
<g transform="matrix( 0.381072998046875, 0, 0, 0.500396728515625, -4.6,0) ">
<g>
<g>
<path fill="#FFE465" stroke="none" d="
M -3.4 -7.65
L -17.4 -7.65 -17.4 7.6 -3.4 7.6 -3.4 -7.65 Z"/>
</g>
</g>

<g transform="matrix( 2.6241607666015625, 0, 0, 1.9984130859375, 12.05,0) ">
<path stroke="#FFE465" stroke-width="4" stroke-linejoin="round" stroke-linecap="round" fill="none" d="
M -11.230670166015624 -3.8280349731445313
L -5.895648193359374 -3.8280349731445313 -5.895648193359374 3.80301513671875 -11.230670166015624 3.80301513671875 -11.230670166015624 -3.8280349731445313 Z"/>
</g>
</g>

<g transform="matrix( 0.381072998046875, 0, 0, 0.6075439453125, -5.2,-1.3) ">
<g>
<g>
<path fill="#FFE465" stroke="none" d="
M -3.4 -3.9
L -3.4 8.9 10.6 18.1 10.6 -13.1 -3.4 -3.9 Z"/>
</g>
</g>

<g transform="matrix( 2.6241607666015625, 0, 0, 1.645965576171875, 13.6,2.1) ">
<path stroke="#FFE465" stroke-width="4" stroke-linejoin="round" stroke-linecap="round" fill="none" d="
M -6.495648193359375 -3.66942138671875
L -1.1606262207031257 -9.25882568359375 -1.1606262207031257 9.69654541015625 -6.495648193359375 4.1071411132812505 -6.495648193359375 -3.66942138671875 Z"/>
</g>
</g>

<g transform="matrix( 0.6839599609375, 0, 0, 0.82733154296875, 0.4,0) ">
<g transform="matrix( 1.462066650390625, 0, 0, 1.2086944580078125, -0.55,0) ">
<path stroke="#FFE465" stroke-width="4" stroke-linejoin="round" stroke-linecap="round" fill="none" d="
M 4.0933837890625 -3.598892211914062
Q 5.119323730468751 -2.0831949710845947 5.119323730468751 -0.0413665771484375 5.119323730468751 2.0004618167877197 4.0933837890625 3.5368423461914067"/>
</g>
</g>

<g transform="matrix( 0.6839599609375, 0, 0, 0.82733154296875, 0.4,0) ">
<g transform="matrix( 1.462066650390625, 0, 0, 1.2086944580078125, -0.55,0) ">
<path stroke="#FFE465" stroke-width="4" stroke-linejoin="round" stroke-linecap="round" fill="none" d="
M 8.162945556640624 -9.348846435546875
Q 11.309161376953124 -5.5017547607421875 11.309161376953124 -0.082733154296875 11.309161376953124 5.377655029296875 8.162945556640624 9.224746704101562"/>
</g>
</g>
</g>

<g id="Layer_3" transform="matrix( 0.9499969482421875, 0, 0, 0.9499969482421875, 19.2,19.3) "/>
</g>
</svg>
