
<svg xmlns="http://www.w3.org/2000/svg" version="1.1" xmlns:xlink="http://www.w3.org/1999/xlink" preserveAspectRatio="none" x="0px" y="0px" width="52px" height="38px" viewBox="0 0 52 38">
<defs/>

<g id="Layer_2"/>

<g id="Layer_1"/>

<g id="Layer_5"/>

<g id="Layer_4">
<g id="Layer_1" transform="matrix( 0.9499969482421875, 0, 0, 0.9499969482421875, 25.95,19.3) ">
<g transform="matrix( 1.2579498291015625, 0, 0, 0.899993896484375, -505,71.95) ">
<g transform="matrix( 0.7949371337890625, 0, 0, 1.111114501953125, 401.4,-79.9) ">
<path stroke="#FFE465" stroke-width="5" stroke-linejoin="round" stroke-linecap="round" fill="none" d="
M -24.777652740478516 -17.824391174316403
L 24.911365509033203 -17.824391174316403 24.911365509033203 17.72536773681641 -24.777652740478516 17.72536773681641 -24.777652740478516 -17.824391174316403 Z"/>
</g>
</g>

<g transform="matrix( 0.85498046875, 0, 0, 0.85498046875, -0.1,-0.6) ">
<g>
<g>
<path fill="#FFE465" stroke="none" d="
M -2.7 -3.45
Q -2.45 -3.45 -2.25 -4 -2 -4.5 -1.3 -7.1 -0.55 -9.75 -0.55 -10.1 -0.55 -10.4 -1.2 -10.75 -4.1 -12.4 -7.85 -12.4 -13.4 -12.4 -17.05 -8.6 -20.7 -4.8 -20.7 0.75 -20.7 6.35 -17.1 10.15 -13.45 13.9 -7.85 13.9 -6.35 13.9 -3.95 13.35 -0.8 12.65 -0.8 11.7 -0.8 10.75 -1.35 7.8 -2.05 4.55 -2.5 4.55 -2.4 4.55 -3.8 5.15 -5.2 5.7 -6.3 5.7 -8.7 5.7 -10.15 4.4 -11.6 3.05 -11.6 0.7 -11.6 -1.55 -10.25 -2.9 -8.95 -4.25 -6.65 -4.25 -5.75 -4.25 -4.2 -3.85
L -2.7 -3.45
M 17.45 -3.85
L 18.95 -3.45
Q 19.2 -3.45 19.4 -4 19.65 -4.5 20.35 -7.1 21.1 -9.75 21.1 -10.1 21.1 -10.4 20.45 -10.75 17.55 -12.4 13.8 -12.4 8.25 -12.4 4.6 -8.6 0.95 -4.8 0.95 0.75 0.95 6.35 4.55 10.15 8.2 13.9 13.8 13.9 15.3 13.9 17.7 13.35 20.85 12.65 20.85 11.7 20.85 10.75 20.3 7.8 19.6 4.55 19.15 4.55 19.25 4.55 17.85 5.15 16.45 5.7 15.35 5.7 12.95 5.7 11.5 4.4 10.05 3.05 10.05 0.7 10.05 -1.55 11.4 -2.9 12.7 -4.25 15 -4.25 15.9 -4.25 17.45 -3.85 Z"/>
</g>
</g>
</g>
</g>

<g id="Layer_2" transform="matrix( 0.9499969482421875, 0, 0, 0.9499969482421875, 25.95,19.3) "/>

<g id="Layer_3" transform="matrix( 0.9499969482421875, 0, 0, 0.9499969482421875, 25.95,19.3) "/>
</g>
</svg>
