
<svg xmlns="http://www.w3.org/2000/svg" version="1.1" xmlns:xlink="http://www.w3.org/1999/xlink" preserveAspectRatio="none" x="0px" y="0px" width="231px" height="100px" viewBox="0 0 231 100">
<defs>
<linearGradient id="Gradient_1" gradientUnits="userSpaceOnUse" x1="175.525" y1="-7" x2="250.475" y2="-7" spreadMethod="pad">
<stop  offset="0%" stop-color="#FAF79B"/>

<stop  offset="100%" stop-color="#FAD396"/>
</linearGradient>

<linearGradient id="Gradient_2" gradientUnits="userSpaceOnUse" x1="-476.3" y1="137.125" x2="-476.3" y2="-249.52500000000003" spreadMethod="pad">
<stop  offset="0%" stop-color="#FAD396"/>

<stop  offset="88.23529411764706%" stop-color="#FAF79B"/>
</linearGradient>

<linearGradient id="Gradient_3" gradientUnits="userSpaceOnUse" x1="-321.725" y1="116.07500000000002" x2="-326.975" y2="-82.875" spreadMethod="pad">
<stop  offset="0%" stop-color="#457DD7"/>

<stop  offset="88.23529411764706%" stop-color="#88F2F0"/>
</linearGradient>

<linearGradient id="Gradient_4" gradientUnits="userSpaceOnUse" x1="-318.425" y1="115.98750000000001" x2="-323.675" y2="-82.7875" spreadMethod="pad">
<stop  offset="0%" stop-color="#457DD7"/>

<stop  offset="88.23529411764706%" stop-color="#88F2F0"/>
</linearGradient>

<linearGradient id="Gradient_5" gradientUnits="userSpaceOnUse" x1="-321.725" y1="115.95" x2="-326.975" y2="-82.95" spreadMethod="pad">
<stop  offset="0%" stop-color="#457DD7"/>

<stop  offset="88.23529411764706%" stop-color="#88F2F0"/>
</linearGradient>

<linearGradient id="Gradient_6" gradientUnits="userSpaceOnUse" x1="-476.3" y1="137.075" x2="-476.3" y2="-249.47500000000002" spreadMethod="pad">
<stop  offset="0%" stop-color="#FAD396"/>

<stop  offset="88.23529411764706%" stop-color="#FAF79B"/>
</linearGradient>

<linearGradient id="Gradient_7" gradientUnits="userSpaceOnUse" x1="-319.3125" y1="116.025" x2="-324.48749999999995" y2="-82.82500000000002" spreadMethod="pad">
<stop  offset="0%" stop-color="#457DD7"/>

<stop  offset="88.23529411764706%" stop-color="#88F2F0"/>
</linearGradient>

<linearGradient id="Gradient_8" gradientUnits="userSpaceOnUse" x1="-321.95000000000005" y1="116.375" x2="-327.25" y2="-83.67500000000001" spreadMethod="pad">
<stop  offset="0%" stop-color="#457DD7"/>

<stop  offset="88.23529411764706%" stop-color="#88F2F0"/>
</linearGradient>

<linearGradient id="Gradient_9" gradientUnits="userSpaceOnUse" x1="-478.05" y1="137.60000000000002" x2="-478.05" y2="-251.2" spreadMethod="pad">
<stop  offset="0%" stop-color="#FAD396"/>

<stop  offset="88.23529411764706%" stop-color="#FAF79B"/>
</linearGradient>

<linearGradient id="Gradient_10" gradientUnits="userSpaceOnUse" x1="-476.3" y1="137.125" x2="-476.3" y2="-249.52500000000003" spreadMethod="pad">
<stop  offset="0%" stop-color="#457DD7"/>

<stop  offset="88.23529411764706%" stop-color="#88F2F0"/>
</linearGradient>

<linearGradient id="Gradient_11" gradientUnits="userSpaceOnUse" x1="-476.3" y1="137.075" x2="-476.3" y2="-249.47500000000002" spreadMethod="pad">
<stop  offset="0%" stop-color="#457DD7"/>

<stop  offset="88.23529411764706%" stop-color="#88F2F0"/>
</linearGradient>

<linearGradient id="Gradient_12" gradientUnits="userSpaceOnUse" x1="-478.05" y1="137.60000000000002" x2="-478.05" y2="-251.2" spreadMethod="pad">
<stop  offset="0%" stop-color="#457DD7"/>

<stop  offset="88.23529411764706%" stop-color="#88F2F0"/>
</linearGradient>

<linearGradient id="Gradient_13" gradientUnits="userSpaceOnUse" x1="175.525" y1="-7" x2="250.475" y2="-7" spreadMethod="pad">
<stop  offset="51.372549019607845%" stop-color="#FAF8D0"/>

<stop  offset="100%" stop-color="#FAD89D"/>
</linearGradient>

<linearGradient id="Gradient_14" gradientUnits="userSpaceOnUse" x1="-321.725" y1="116.225" x2="-326.975" y2="-83.025" spreadMethod="pad">
<stop  offset="0%" stop-color="#457DD7"/>

<stop  offset="88.23529411764706%" stop-color="#88F2F0"/>
</linearGradient>

<linearGradient id="Gradient_15" gradientUnits="userSpaceOnUse" x1="340.625" y1="-43.8" x2="426.475" y2="-43.8" spreadMethod="pad">
<stop  offset="0%" stop-color="#FAF79B"/>

<stop  offset="100%" stop-color="#FAD396"/>
</linearGradient>

<linearGradient id="Gradient_16" gradientUnits="userSpaceOnUse" x1="340.625" y1="-43.8" x2="426.475" y2="-43.8" spreadMethod="pad">
<stop  offset="36.86274509803921%" stop-color="#FAF8D0"/>

<stop  offset="100%" stop-color="#FADFA8"/>
</linearGradient>

<linearGradient id="Gradient_17" gradientUnits="userSpaceOnUse" x1="324.77500000000003" y1="-47.35" x2="372.325" y2="-47.35" spreadMethod="pad">
<stop  offset="0%" stop-color="#FAF79B"/>

<stop  offset="100%" stop-color="#FAD396"/>
</linearGradient>

<linearGradient id="Gradient_18" gradientUnits="userSpaceOnUse" x1="324.77500000000003" y1="-47.35" x2="372.325" y2="-47.35" spreadMethod="pad">
<stop  offset="36.86274509803921%" stop-color="#FAF8D0"/>

<stop  offset="100%" stop-color="#FADFA8"/>
</linearGradient>

<filter id="Filter_1" x="-20%" y="-28.28495084504519%" width="140%" height="156.56990169009038%" color-interpolation-filters="sRGB">
<feFlood flood-color="#000000" flood-opacity="0.4980392156862745" in="SourceGraphic" result="result1"/>

<feComposite in2="SourceGraphic" in="result1" operator="in" result="result2"/>

<feGaussianBlur in="result2" stdDeviation="0.6666666666666666,0.6666666666666666" result="result3"/>

<feOffset dx="0.7071067811865476" dy="0.7071067811865476" in="result3" result="result4"/>

<feComposite in2="result4" in="SourceGraphic" operator="over" result="result5"/>

<feFlood flood-color="#FFFFFF" flood-opacity="1" in="result5" result="result6"/>

<feComposite in2="result5" in="result6" operator="in" result="result7"/>

<feGaussianBlur in="result7" stdDeviation="4,4" result="result8"/>

<feFlood flood-color="#000000" flood-opacity="0.4980392156862745" in="result5" result="result9"/>

<feComposite in2="result5" in="result9" operator="in" result="result10"/>

<feGaussianBlur in="result10" stdDeviation="4,4" result="result11"/>

<feOffset dx="0.7071067811865476" dy="0.7071067811865476" in="result8" result="result12"/>

<feOffset dx="-0.7071067811865476" dy="-0.7071067811865476" in="result8" result="result13"/>

<feOffset dx="-0.7071067811865476" dy="-0.7071067811865476" in="result11" result="result14"/>

<feOffset dx="0.7071067811865476" dy="0.7071067811865476" in="result11" result="result15"/>

<feColorMatrix in="result5" type="matrix" values="0 0 0 0 255 0 0 0 0 255 0 0 0 0 255 0 0 0 255 0" result="result16"/>

<feFlood flood-color="#000000" flood-opacity="0" in="result5" result="result17"/>

<feComposite in2="result13" in="result12" operator="arithmetic" k1="0" k2="-1" k3="1" k4="0" result="result18"/>

<feComposite in2="result15" in="result14" operator="arithmetic" k1="0" k2="-1" k3="1" k4="0" result="result19"/>

<feComposite in2="result17" in="result18" operator="xor" result="result20"/>

<feComposite in2="result20" in="result19" operator="xor" result="result21"/>

<feComposite in2="result16" in="result21" operator="in" result="result22"/>

<feBlend mode="normal" in2="result5" in="result22" result="result23"/>
</filter>
</defs>

<g id="Layer_2"/>

<g id="Layer_1">
<g filter="url(#Filter_1)" transform="matrix( 1, 0, 0, 1, 0,0) ">
<g id="Layer_5" transform="matrix( 0.18115234375, 0, 0, 0.18115234375, 116.45,50.8) "/>

<g id="Layer_3" transform="matrix( 0.18115234375, 0, 0, 0.18115234375, 116.45,50.8) "/>

<g id="Layer_9" transform="matrix( 0.18115234375, 0, 0, 0.18115234375, 116.45,50.8) ">
<g transform="matrix( 0.99969482421875, -0.0246734619140625, 0.0246734619140625, 0.99969482421875, -2.15,5.5) ">
<g>
<g>
<path fill="url(#Gradient_1)" stroke="none" d="
M 201.8 -129.95
Q 185.683203125 -125.9451171875 179.45 -111.55 173.1248046875 -97.1349609375 182.2 -80.4 191.3251953125 -63.5798828125 199 -43.55 206.7087890625 -23.3498046875 210.35 1.75 213.9939453125 27.0376953125 214.65 47.8 215.3150390625 68.741796875 215.15 88.2 214.9541015625 107.7595703125 220.25 114.75 225.639453125 121.81875 232.55 113.35 235.9826171875 109.1408203125 239.05 102.05 245.5712890625 85.7001953125 249.1 68.15 252.7599609375 50.3859375 254.65 32.7 256.53671875 15.3078125 256.55 -2.2 256.556640625 -19.4615234375 255.3 -36.75 254.0609375 -54.3501953125 250.1 -71.75 249.5130859375 -74.163671875 248.9 -76.5 242.609375 -101.8052734375 230.3 -117.9 217.9818359375 -133.918359375 201.8 -129.95 Z"/>
</g>
</g>

<g transform="matrix( 0.99969482421875, 0.0246734619140625, -0.0246734619140625, 0.99969482421875, 2.25,-5.4) ">
<path stroke="url(#Gradient_2)" stroke-width="46" stroke-linejoin="round" stroke-linecap="round" fill="none" d="
M 174.49352836608884 -110.41861801147462
Q 168.52531543076037 -95.87690597474575 178.03625984191893 -79.34659309387207 187.5480716794729 -62.78113469183445 195.71535758972166 -42.92173614501953 203.91958602964877 -22.94290032684803 208.17960166931152 2.084395599365234 212.44575308859348 27.249472603201866 213.61450233459473 48.01424636840821 214.79542823433877 68.90825112760068 215.11115760803222 88.38958053588867 215.39730443060398 107.92302286326886 220.8896739959717 114.80502662658692 226.42628371715543 121.71426741480826 233.15076065063474 113.07697792053222 236.4534828811884 108.7850050598383 239.3699668884277 101.62004890441894 245.46086715757846 85.1149478405714 248.5810863494873 67.50741844177246 251.77602022886276 49.63409766256809 253.22910919189454 31.90692367553711 254.6861266851425 14.473491966724396 254.2680423736572 -3.004312896728516 253.84816259443758 -20.285724753141402 252.19033126831053 -37.53853645324707 250.49239678084848 -55.10217181444168 246.10397148132324 -72.37394409179687 245.45706605315206 -74.7973905414343 244.81151428222657 -77.11849555969238 237.8734479576349 -102.26021810770035 225.17071685791015 -118.04631805419922 212.46108362078667 -133.75585726201533 196.40770835876464 -129.36507148742677 180.3690350562334 -124.9881292283535 174.49352836608884 -110.41861801147462 Z"/>
</g>
</g>

<g transform="matrix( 1.04150390625, 0, 0, 1, 13.05,0) ">
<g>
<g>
<path fill="url(#Gradient_3)" stroke="none" d="
M -596.8 -159.45
Q -576.15 -104.75 -504.4 -75.45 -491.65 13 -523.25 116.55 -523.702734375 118.4951171875 -525.3 124.3 -526.844140625 130.1609375 -523.6 133.45 -520.30390625 136.7837890625 -515.4 135.2 -510.4529296875 133.6669921875 -508.5 125.45 -506.5453125 117.23046875 -501.2 114.7 -495.7978515625 112.21953125 -490.9 114.95 -485.9552734375 117.7345703125 -483.15 126.6 -480.2984375 135.5046875 -483.75 147.45 -487.2 159.3 -490.45 171.1 -493.7 182.65 -493.1 194.35 -492.396484375 207.1451171875 -484.3 215.4 -476.210546875 223.664453125 -468.35 214.8 -460.439453125 205.9353515625 -460.2 193 -459.903515625 180.1046875 -462.8 168.2 -465.6501953125 156.3521484375 -466.45 144.25 -467.2 132.14296875 -460.75 118.85 -454.3001953125 105.6091796875 -445.9 106.35 -439.9966796875 106.8810546875 -436.8 115.95 -433.6162109375 125.0046875 -429.35 124.6 -425.0763671875 124.20546875 -424.7 116.55 -419.75 17 -439.75 -75.45 -380.25 -100.85 -354.75 -159.45 -371.65 -221.65 -426.6 -235.05 -433.5 -182.5 -474.95 -159.45 -518 -174.45 -533.3 -235.05 -584.05 -220.1 -596.8 -159.45 Z"/>
</g>
</g>

<g transform="matrix( 0.96014404296875, 0, 0, 1, -12.5,0) ">
<path stroke="url(#Gradient_2)" stroke-width="46" stroke-linejoin="round" stroke-linecap="round" fill="none" d="
M -531.9169189453125 116.55
Q -499.00539550781247 13 -512.2845703125 -75.45 -587.0124755859375 -104.75 -608.51953125 -159.45 -595.2403564453125 -220.1 -542.384033203125 -235.05 -526.4490234375 -174.45 -481.6122802734375 -159.45 -438.441943359375 -182.5 -431.25556640625 -235.05 -374.02492675781247 -221.65 -356.4235107421875 -159.45 -382.9818603515625 -100.85 -444.9513427734375 -75.45 -424.1212646484375 17 -429.276708984375 116.55 -429.6686968803406 124.20546875 -434.1197021484375 124.6 -438.5629775047302 125.0046875 -441.87890625 115.95 -445.20826063156125 106.8810546875 -451.35659179687497 106.35 -460.1054280281067 105.6091796875 -466.8229248046875 118.875 -473.540625 132.14296875 -472.73345947265625 144.25 -471.92649736404417 156.3521484375 -468.9580078125 168.2 -465.9413080215454 180.1046875 -466.22406005859375 193.025 -466.49948902130126 205.9353515625 -474.7123168945312 214.8 -482.9251447677612 223.664453125 -491.350341796875 215.4 -499.7828619003296 207.1451171875 -500.515576171875 194.35 -501.1404785156249 182.65 -497.7555908203125 171.1 -494.370703125 159.3 -490.7775146484375 147.45 -487.18269882202145 135.5046875 -490.12657470703124 126.625 -493.0743155479431 117.7345703125 -498.19822998046874 114.975 -503.3253991127014 112.21953125 -508.9257202148438 114.725 -514.518921661377 117.23046875 -516.554736328125 125.45 -518.5887202262878 133.6669921875 -523.7150756835938 135.225 -528.8485507965088 136.7837890625 -532.2554077148438 133.475 -535.6602304458619 130.1609375 -534.0259643554688 124.325 -532.3884435653687 118.4951171875 -531.9169189453125 116.55 Z"/>
</g>
</g>

<g transform="matrix( 1, 0, 0, 1.001556396484375, 0,0) ">
<g>
<g>
<path fill="url(#Gradient_3)" stroke="none" d="
M 318 -150.4
Q 317.2 -130.8 321 -111.25 324.75 -92.15 327.35 -72.6 329.95 -53.15 329.35 -33.7 328.75 -13.7 324.2 5.65 319.7 24.8 313.5 43.8 307.3 62.9 299.7 81.25 292.05 99.65 281.3 116.5 273.68125 129.227734375 280.3 137.65 286.9638671875 146.1197265625 300.2 130.05 313.489453125 113.9837890625 321.55 118.7 329.6095703125 123.4185546875 324.85 142.15 320.091796875 160.881640625 318.65 166.9 317.20234375 172.9560546875 316.3 178.5 315.4 184.1 316.3 191.5 316.8 195.35 317.75 199 319.2 204.55 323.25 208.55 328.85 214.15 336.75 213.7 342.7 213.3 346.4 208.95 351.4 203.15 351.8 195.4 352.2 187.95 351.2 180.6 350.25 173.3 348.7 165.95 343.2740234375 129.515234375 357.65 118.05 372.0740234375 106.577734375 384.85 121.25 397.6763671875 135.9244140625 405 132.3 412.375390625 128.676953125 408.9 116.55 369.95 22.7 370 -52.6 370 -127.9 392.65 -135.45 415.3 -143 431.3 -100.6 476.5 -115.4 486.15 -159.45 483.25 -168.5 479.35 -177.1 471.3 -195 458 -209.4 444.45 -224 425.4 -230.2 406.7 -236.4 387.1 -234 367.05 -231.7 351.35 -218.95 335.8 -206.35 327.3 -188.2 318.85 -170.3 318 -150.4 Z"/>
</g>
</g>

<g>
<path stroke="url(#Gradient_2)" stroke-width="46" stroke-linejoin="round" stroke-linecap="round" fill="none" d="
M 408.9 116.55
Q 412.375390625 128.676953125 405.025 132.3 397.6763671875 135.9244140625 384.875 121.25 372.0740234375 106.577734375 357.675 118.05 343.2740234375 129.515234375 348.725 165.95 350.25 173.3 351.2 180.6 352.2 187.95 351.8 195.4 351.4 203.15 346.4 208.95 342.7 213.3 336.75 213.7 328.85 214.15 323.25 208.55 319.2 204.55 317.75 199 316.8 195.35 316.3 191.5 315.4 184.1 316.3 178.525 317.20234375 172.9560546875 318.65 166.925 320.091796875 160.881640625 324.85 142.15 329.6095703125 123.4185546875 321.55 118.7 313.489453125 113.9837890625 300.225 130.05 286.9638671875 146.1197265625 280.325 137.675 273.68125 129.227734375 281.3 116.5 292.05 99.65 299.7 81.25 307.3 62.9 313.5 43.8 319.7 24.8 324.2 5.65 328.75 -13.7 329.35 -33.7 329.95 -53.15 327.35 -72.6 324.75 -92.15 321 -111.25 317.2 -130.8 318 -150.4 318.85 -170.3 327.3 -188.2 335.8 -206.35 351.35 -218.95 367.05 -231.7 387.1 -234 406.7 -236.4 425.4 -230.2 444.45 -224 458 -209.4 471.3 -195 479.35 -177.1 483.25 -168.5 486.15 -159.45 476.5 -115.4 431.3 -100.6 415.3 -143 392.65 -135.45 370 -127.9 370 -52.6 369.95 22.7 408.9 116.55 Z"/>
</g>
</g>

<g transform="matrix( 0.999755859375, -0.0218505859375, 0.0220947265625, 0.9887542724609375, 2.35,2.4) ">
<g>
<g>
<path fill="url(#Gradient_3)" stroke="none" d="
M 219.25 -198.6
Q 212.15 -208.55 202.55 -216.65 193.4 -224.45 182.2 -229.6 171.1 -234.55 158.7 -236.15 150.7 -237 142.6 -237 151.4931640625 -232.700390625 158.55 -225.35 165.47109375 -218.2419921875 169.05 -209.25 172.83046875 -199.8443359375 172.35 -189.85 171.87265625 -179.830078125 166.25 -171.65 160.4130859375 -162.91015625 149.7 -162.15 139.1416015625 -161.8890625 131.5 -169.15 126.1740234375 -174.2197265625 123.85 -181.1 123.35 -168.75 124.6 -156.4 125.85 -143.9 130.4 -132.65 135 -121.2 142.4 -111.7 144.833203125 -108.607421875 147.5 -105.9 149.7095703125 -103.1455078125 152.3 -100.75 159.726171875 -93.78515625 169.55 -87.35 179.4248046875 -80.866796875 178.6 -70.25 177.7685546875 -59.62578125 181.15 -52.4 184.588671875 -45.1775390625 192.4 -44.55 200.253125 -43.874609375 203.5 -52.6 206.6498046875 -61.3931640625 199.8 -73.85 192.9384765625 -86.25 197.05 -95.25 201.162890625 -104.31015625 209.65 -106.35 211.7533203125 -106.862109375 213.55 -106.45 216.9826171875 -105.6123046875 218.6 -103.3 220.2111328125 -100.946875 220.8 -97.35 221.33359375 -93.702734375 222.2 -91.4 223.012890625 -89.0578125 224.9 -86.8 226.745703125 -84.6 230.05 -83.35 233.3509765625 -82.0958984375 236.5 -82.75 239.6990234375 -83.35703125 241.85 -86.3 243.94140625 -89.255078125 243.45 -94.25 242.9578125 -99.23984375 239.5 -104.5 236.0978515625 -109.763671875 235.05 -112.85 234.000390625 -115.9451171875 234 -118.95 234.0025390625 -121.9990234375 234.85 -125.6 234.8978515625 -125.6748046875 234.9 -125.9 234.948046875 -126.1427734375 235 -126.4 235.046484375 -126.6365234375 235.1 -126.9 235.23046875 -127.6982421875 235.35 -128.5 237.15 -140.75 236.1 -153 235 -165.65 230.7 -177.1 226.35 -188.75 219.25 -198.6 Z"/>
</g>
</g>

<g transform="matrix( 0.999755859375, 0.0220794677734375, -0.0223388671875, 1.0108795166015625, -2.25,-2.45) ">
<path stroke="url(#Gradient_2)" stroke-width="46" stroke-linejoin="round" stroke-linecap="round" fill="none" d="
M 147.49970397949218 -105.50786628723144
Q 149.74404833316802 -102.85680336654185 152.38732604980467 -100.52011833190916 159.9650188446045 -93.82058438062667 169.9541778564453 -87.64827995300293 179.94427003860474 -81.47792802453041 179.35424194335937 -70.96250228881836 178.75773882865906 -60.43959304094315 182.32300415039063 -53.36950378417969 185.89542090892792 -46.30285540521145 193.74425354003907 -45.828882980346684 201.58483757972718 -45.35685558915139 204.66312866210936 -54.055615234375 207.59288790225983 -62.81817258298397 200.47007751464844 -74.9605312347412 193.33570227622985 -87.09587476253509 197.27236328125 -96.08504867553711 201.1590742111206 -105.13263968229295 209.59904174804686 -107.33499221801756 211.6905336380005 -107.8873013317585 213.49588012695312 -107.51908493041991 216.94616792201995 -106.76581480801104 218.6397918701172 -104.49068183898926 220.27697672843934 -102.22339622974395 220.97016601562498 -98.6803840637207 221.5592209339142 -95.08524766564369 222.47684631347656 -92.80262184143066 223.34073610305785 -90.52925493717193 225.2772705078125 -88.33806762695312 227.17113142013548 -86.20313792228697 230.5277862548828 -85.01522331237793 233.83011968135833 -83.87152589857578 236.98946838378905 -84.56290702819823 240.14875235557557 -85.25718489885331 242.23473205566407 -88.18933906555176 244.25978369712828 -91.18160249590873 243.6831298828125 -96.11016159057617 243.05581941604615 -101.03259006738664 239.50817565917967 -106.13386421203612 235.96501216888427 -111.2881759226322 234.87421874999998 -114.3174461364746 233.73148596286774 -117.35427563488483 233.66470336914062 -120.3253578186035 233.5998744726181 -123.34014824926852 234.3931121826172 -126.89497413635254 234.41375300884246 -126.99415576755999 234.41092529296876 -127.21686553955078 234.45359642505645 -127.45795866549014 234.50040588378906 -127.68870887756347 234.54110062122345 -127.94830700457095 234.58878173828126 -128.20998992919922 234.7015816926956 -129.00210612118244 234.803369140625 -129.79745941162108 236.33226928710937 -141.94903030395508 235.011865234375 -154.03832702636717 233.63263549804688 -166.52203292846679 229.08070068359373 -177.7493118286133 224.47435913085937 -189.17324905395506 217.15845947265623 -198.75733947753906 209.84035034179686 -208.44030532836916 200.06372680664063 -216.23944931030272 190.74362182617188 -223.7517997741699 179.43256835937498 -228.59915771484376 168.2259094238281 -233.25094985961914 155.79358520507813 -234.56200942993163 147.7767578125 -235.22764587402344 139.70428161621092 -235.0264835357666 148.66472692489623 -230.9937198340893 155.9077911376953 -223.8560131072998 162.95869839191437 -217.00334255993363 166.76095275878905 -208.16650047302247 170.72276785373688 -198.97338799536226 170.48823242187498 -189.08149337768555 170.20739874839782 -179.16327630877495 164.79239807128906 -170.92815818786622 159.12446722984313 -162.1832329392433 148.4557861328125 -161.19808425903318 137.88073687553404 -160.70882773399353 130.10556640625 -167.72168350219727 124.64388201236724 -172.61747532784938 122.16896057128906 -179.3448749542236 121.94140014648437 -167.1475532531738 123.46396484374999 -154.9637512207031 124.98984374999999 -142.63163604736326 129.78729858398438 -131.60757064819336 134.63916015625 -120.38684692382812 142.24725341796875 -111.15537567138671 144.7481921672821 -108.15074275135993 147.49970397949218 -105.50786628723144 Z"/>
</g>
</g>

<g transform="matrix( 0.99993896484375, 0.0093841552734375, -0.0074920654296875, 0.8114471435546875, -0.25,-18.05) ">
<g>
<g>
<path fill="#CC9966" stroke="none" d="
M 292.45 -102.75
Q 283.85 -105.35 278.25 -100.75 272.7 -96.15 269.75 -83.35 266.8 -70.55 266.3 -53.25 265.7 -32.1 267.75 -12.9 269.75 6.3 275.3 10 280.9 13.65 292.85 9.5 304.9 5.25 323.05 -8.45 329.382421875 -13.247265625 335.35 -19.2 341.2638671875 -13.5794921875 348.8 -13.35 356.58046875 -13.1904296875 362.95 -19.2 368.8189453125 -12.9244140625 375.1 -7.85 392.8 6.4 404.7 11 416.6 15.5 422.3 12.05 427.9 8.5 430.55 -10.6 433.1 -29.75 433.15 -50.9 433.2 -68.25 430.7 -81.1 428.15 -94 422.7 -98.75 417.25 -103.5 408.55 -101.2 390.4126953125 -95.9587890625 366.15 -71.6 359.8833984375 -79.722265625 349.75 -79.9 339.9341796875 -80.159375 333.2 -72.7 310.1623046875 -97.0494140625 292.45 -102.75 Z"/>
</g>
</g>

<g transform="matrix( 0.999969482421875, -0.0115509033203125, 0.0092315673828125, 1.2322540283203125, 0.4,22.2) ">
<path stroke="url(#Gradient_2)" stroke-width="46" stroke-linejoin="round" stroke-linecap="round" fill="none" d="
M 409.03326110839845 -96.33455429077148
Q 417.74996185302734 -98.11924057006836 423.16404190063474 -94.21372299194336 428.57812194824214 -90.30820541381836 431.0313186645508 -79.81660766601561 433.43489303588865 -69.3660514831543 433.25490875244134 -55.287912750244146 433.0464546203614 -38.12627487182617 430.3531372070313 -22.610991668701175 427.56020050048824 -7.137219238281251 421.9339454650879 -4.309133148193359 416.20844573974614 -1.563130187988282 404.34288635253904 -5.326313781738282 392.47807617187505 -9.17064208984375 374.88591842651374 -20.89986343383789 368.64326494634145 -25.076424622535704 362.8215076446533 -30.203519821166992 356.40752836763863 -25.407130005955697 348.6287300109864 -25.60962600708008 341.09477653801446 -25.86656702756882 335.2233795166016 -30.482808685302736 329.2115673482418 -25.708480060100555 322.8435905456543 -21.875177001953126 304.59205703735347 -10.928673553466798 292.5109512329102 -7.593102264404298 280.5305885314941 -4.337737274169923 274.9582763671875 -7.352070617675782 269.4363357543945 -10.406507110595705 267.580305480957 -26.005060577392577 265.67427825927734 -41.60408325195313 266.4326988220215 -58.7605598449707 267.062281036377 -72.79390335083008 270.10799942016604 -83.15274353027343 273.15371780395503 -93.5115837097168 278.73784255981445 -97.19215850830078 284.3719642639161 -100.87226409912108 292.95195999145506 -98.68179779052734 310.6204744428396 -93.88985859751702 333.4991474151612 -73.8948860168457 340.2639910340309 -79.90510074794292 350.07726898193357 -79.60251846313477 360.20871732830994 -79.36320302784443 366.41408386230466 -72.71360702514649 390.8577959388494 -92.25179193019866 409.03326110839845 -96.33455429077148 Z"/>
</g>
</g>

<g>
<g>
<g>
<path fill="url(#Gradient_4)" stroke="none" d="
M 591.95 -23.25
Q 586.25 -36.8 576.6 -48.3 553.75 -75.5 519.8 -75.4 485.8 -75.5 463.1 -49.1 439.999609375 -22.44609375 438.5 8.8 437.001171875 40.0869140625 443.8 64.25 450.648046875 88.41796875 450.25 106.4 449.8525390625 124.433203125 456.7 132 463.5880859375 139.623828125 470.7 136.25 477.8751953125 132.8703125 479.4 116.8 480.96171875 100.741015625 490.55 97.6 500.1921875 94.508984375 510.6 106.65 521.0078125 118.836328125 512.7 153.75 504.384375 188.6763671875 517.4 198.45 530.47890625 208.2158203125 540.9 195.7 551.313671875 183.18828125 545.6 153.55 539.8837890625 123.9615234375 555.55 109.75 571.20546875 95.5896484375 577.45 86.95 583.704296875 78.305859375 588.6 68.7 594.05 58 596.85 46.05 569.7 28.3 537.55 35.15 537.3 35.5 537.05 35.85 529.4 47.25 517.75 47.15 506.15 47.05 498.8 35.4 497.4 33.2 496.35 30.95 532.1 11.7 599 3.9 597.2 -10.6 591.95 -23.25
M 500.2 -17.2
Q 507.55 -27.5 518.6 -27.45 529.6 -27.5 537 -16.9 537.35 -16.45 537.65 -15.95 511.25 -8.85 492.55 3.25 494 -8.6 500.2 -17.2 Z"/>
</g>
</g>

<g>
<path stroke="url(#Gradient_2)" stroke-width="46" stroke-linejoin="round" stroke-linecap="round" fill="none" d="
M 500.2 -17.2
Q 507.55 -27.5 518.6 -27.45 529.6 -27.5 537 -16.9 537.35 -16.45 537.65 -15.95 511.25 -8.85 492.55 3.25 494 -8.6 500.2 -17.2 Z
M 577.45 86.95
Q 571.20546875 95.5896484375 555.55 109.775 539.8837890625 123.9615234375 545.6 153.575 551.313671875 183.18828125 540.9 195.7 530.47890625 208.2158203125 517.425 198.45 504.384375 188.6763671875 512.7 153.75 521.0078125 118.836328125 510.6 106.675 500.1921875 94.508984375 490.575 97.625 480.96171875 100.741015625 479.425 116.8 477.8751953125 132.8703125 470.725 136.25 463.5880859375 139.623828125 456.725 132.025 449.8525390625 124.433203125 450.25 106.425 450.648046875 88.41796875 443.825 64.25 437.001171875 40.0869140625 438.5 8.825 439.999609375 -22.44609375 463.1 -49.1 485.8 -75.5 519.8 -75.4 553.75 -75.5 576.6 -48.3 586.25 -36.8 591.95 -23.25 597.2 -10.6 599 3.9 532.1 11.7 496.35 30.95 497.4 33.2 498.8 35.4 506.15 47.05 517.75 47.15 529.4 47.25 537.05 35.85 537.3 35.5 537.55 35.15 569.7 28.3 596.85 46.05 594.05 58 588.6 68.7 583.704296875 78.305859375 577.45 86.95 Z"/>
</g>
</g>

<g>
<g>
<g>
<path fill="url(#Gradient_5)" stroke="none" d="
M -29.9 -159.45
Q -28.1 -155.05 -26.45 -150.7 -23 -141.7 -19.75 -132.55 -16.45 -123.45 -13.6 -114.05 -10.85 -104.9 -8.3 -95.6 -5.75 -86.2 -3.65 -76.55 -1.5 -66.65 0.15 -56.65 1.8 -46.65 2.8 -36.7 3.8 -26.85 4.4 -17 5 -7.05 4.95 2.9 4.9 12.65 4.2 22.4 3.5 32.1 2.1 41.85 0.65 51.65 -1.4 61.2 -3.4 70.75 -6.15 80.15 -8.95 89.55 -12.55 98.5 -16.05 107.25 -19.6 116.15 -23.2 125.05 -24.25 135.1 -24.7 139.6 -23.4 143.85 -21.15 151.25 -13.9 153.2 -7.85 154.8 -2.75 151.45 1.15 148.95 4 145.25 10.15 137.3 12.75 127.65 15.35 117.95 16.3 107.35 19.15 84.15 29.05 80.85 38.9 77.55 45.8 95.65 52.75 113.65 66 119.7 79.2 125.7 93.4 117.1 100.5208984375 112.044140625 107.05 111.75 113.59453125 111.5294921875 116.65 120.45 119.754296875 129.4115234375 112.5 161 105.235546875 192.592578125 111.9 208.45 118.6310546875 224.3041015625 131.15 222.55 143.6615234375 220.7908203125 148.95 202.3 154.24453125 183.81640625 146.75 151.85 139.2544921875 119.8763671875 152.5 122.25 165.7841796875 124.638671875 171.25 116.45 197.7 59.65 177.8 3.7 127.05 -16.35 69.95 -0.75 85.7 -125.35 39.7 -235.05 -14.55 -223.2 -29.9 -159.45 Z"/>
</g>
</g>

<g>
<path stroke="url(#Gradient_6)" stroke-width="46" stroke-linejoin="round" stroke-linecap="round" fill="none" d="
M 93.4 117.1
Q 79.2 125.7 66 119.7 52.75 113.65 45.8 95.65 38.9 77.55 29.05 80.85 19.15 84.15 16.3 107.35 15.35 117.95 12.75 127.65 10.15 137.3 4 145.25 1.15 148.95 -2.75 151.45 -7.85 154.8 -13.9 153.2 -21.15 151.25 -23.4 143.85 -24.7 139.6 -24.25 135.1 -23.2 125.05 -19.6 116.15 -16.05 107.25 -12.55 98.5 -8.95 89.55 -6.15 80.15 -3.4 70.75 -1.4 61.2 0.65 51.65 2.1 41.85 3.5 32.1 4.2 22.4 4.9 12.65 4.95 2.9 5 -7.05 4.4 -17 3.8 -26.85 2.8 -36.7 1.8 -46.65 0.15 -56.65 -1.5 -66.65 -3.65 -76.55 -5.75 -86.2 -8.3 -95.6 -10.85 -104.9 -13.6 -114.05 -16.45 -123.45 -19.75 -132.55 -23 -141.7 -26.45 -150.7 -28.1 -155.05 -29.9 -159.45 -14.55 -223.2 39.7 -235.05 85.7 -125.35 69.95 -0.75 127.05 -16.35 177.8 3.7 197.7 59.65 171.25 116.45 165.7841796875 124.638671875 152.525 122.25 139.2544921875 119.8763671875 146.75 151.85 154.24453125 183.81640625 148.95 202.3 143.6615234375 220.7908203125 131.15 222.55 118.6310546875 224.3041015625 111.925 208.45 105.235546875 192.592578125 112.5 161 119.754296875 129.4115234375 116.675 120.475 113.59453125 111.5294921875 107.05 111.775 100.5208984375 112.044140625 93.4 117.1 Z"/>
</g>
</g>

<g>
<g>
<g>
<path fill="url(#Gradient_7)" stroke="none" d="
M -151.2 123.45
Q -144.6 119.6 -139.05 107.7 -133.5515625 95.7966796875 -124.7 96.4 -115.7904296875 97.0060546875 -110.85 111.25 -105.9115234375 125.53828125 -112.15 151.45 -118.382421875 177.3724609375 -115.2 192 -112.0205078125 206.6708984375 -101.4 209.65 -90.787109375 212.67421875 -83.1 202.9 -75.3578125 193.176171875 -80.4 163.35 -85.3916015625 133.57734375 -69.55 115.65 -63.45 109.05 -57.6 101.9 -24.3 63.35 -21 3.8 -30 -47.4 -80.75 -75.35 -74.2 -26.8 -100.4 3.8 -111.35 -13.45 -125.4 -23.15 -139.45 -13.45 -150.4 3.8 -176.6 -26.8 -170.05 -75.35 -220.8 -47.4 -229.8 3.8 -226.8 41 -216.65 64.25 -206.555859375 87.544140625 -195.25 105.15 -183.934375 122.7626953125 -187.95 136.35 -191.968359375 149.9408203125 -188.25 157.65 -184.53515625 165.4056640625 -178 166.7 -171.453515625 167.99140625 -166.1 162.7 -160.7087890625 157.4654296875 -161.6 146.75 -162.4388671875 136.0857421875 -160.15 131.7 -157.80390625 127.3044921875 -151.2 123.45 Z"/>
</g>
</g>

<g>
<path stroke="url(#Gradient_2)" stroke-width="46" stroke-linejoin="round" stroke-linecap="round" fill="none" d="
M -57.6 101.9
Q -24.3 63.35 -21 3.8 -30 -47.4 -80.75 -75.35 -74.2 -26.8 -100.4 3.8 -111.35 -13.45 -125.4 -23.15 -139.45 -13.45 -150.4 3.8 -176.6 -26.8 -170.05 -75.35 -220.8 -47.4 -229.8 3.8 -226.8 41 -216.65 64.25 -206.555859375 87.544140625 -195.25 105.15 -183.934375 122.7626953125 -187.95 136.35 -191.968359375 149.9408203125 -188.25 157.675 -184.53515625 165.4056640625 -178 166.7 -171.453515625 167.99140625 -166.075 162.725 -160.7087890625 157.4654296875 -161.575 146.775 -162.4388671875 136.0857421875 -160.125 131.7 -157.80390625 127.3044921875 -151.2 123.45 -144.6 119.6 -139.05 107.7 -133.5515625 95.7966796875 -124.675 96.4 -115.7904296875 97.0060546875 -110.85 111.275 -105.9115234375 125.53828125 -112.15 151.45 -118.382421875 177.3724609375 -115.2 192.025 -112.0205078125 206.6708984375 -101.4 209.675 -90.787109375 212.67421875 -83.075 202.925 -75.3578125 193.176171875 -80.375 163.375 -85.3916015625 133.57734375 -69.55 115.65 -63.45 109.05 -57.6 101.9 Z"/>
</g>
</g>

<g>
<g>
<g>
<path fill="url(#Gradient_8)" stroke="none" d="
M -331.3 -74.55
Q -361.85 -69.55 -382.75 -41.6 -403.75 -13.8 -404.55 20.2 -404.8 28.55 -404.35 36 -403.955078125 44.0943359375 -401.9 54.2 -399.8443359375 64.299609375 -394.75 77.35 -389.660546875 90.4123046875 -394.25 108.85 -398.8404296875 127.3337890625 -393.85 138.35 -388.805859375 149.3578125 -378.4 151.05 -367.9375 152.7921875 -361.65 143.05 -355.3775390625 133.3029296875 -356.9 113.9 -358.4146484375 94.5068359375 -339.95 102 -321.429296875 109.4712890625 -319.75 128.95 -318.027734375 148.483203125 -324.15 168.25 -330.2677734375 188.023828125 -329.9 200.75 -329.4802734375 213.5166015625 -323.4 222.25 -317.2591796875 230.9869140625 -306.95 229.95 -296.5947265625 228.9599609375 -290.45 214.15 -284.3125 199.390234375 -289.35 174.55 -294.3736328125 149.7123046875 -292.5 132.1 -289.2 109.7 -269.9 86.05 -243.6 53.65 -244.75 11.45 -245.95 -30.75 -271.3 -55.6 -295.45 -79.35 -331.3 -74.55
M -347.5 -35
Q -342 -41.85 -334.3 -43.1 -326.7 -44.4 -321.15 -38.5 -315.6 -32.6 -315.55 -23.35 -315.5 -14.05 -320.95 -6.7 -326.55 0.45 -334.8 1.35 -343.1 2.25 -348.5 -3.85 -353.8 -10 -353.45 -19.2 -353 -28.2 -347.5 -35 Z"/>
</g>
</g>

<g>
<path stroke="url(#Gradient_9)" stroke-width="46" stroke-linejoin="round" stroke-linecap="round" fill="none" d="
M -315.55 -23.35
Q -315.5 -14.05 -320.95 -6.7 -326.55 0.45 -334.8 1.35 -343.1 2.25 -348.5 -3.85 -353.8 -10 -353.45 -19.2 -353 -28.2 -347.5 -35 -342 -41.85 -334.3 -43.1 -326.7 -44.4 -321.15 -38.5 -315.6 -32.6 -315.55 -23.35 Z
M -244.75 11.45
Q -243.6 53.65 -269.9 86.05 -289.2 109.7 -292.5 132.1 -294.3736328125 149.7123046875 -289.35 174.55 -284.3125 199.390234375 -290.45 214.175 -296.5947265625 228.9599609375 -306.925 229.975 -317.2591796875 230.9869140625 -323.375 222.25 -329.4802734375 213.5166015625 -329.875 200.775 -330.2677734375 188.023828125 -324.15 168.25 -318.027734375 148.483203125 -319.725 128.975 -321.429296875 109.4712890625 -339.925 102 -358.4146484375 94.5068359375 -356.9 113.9 -355.3775390625 133.3029296875 -361.65 143.05 -367.9375 152.7921875 -378.375 151.075 -388.805859375 149.3578125 -393.825 138.35 -398.8404296875 127.3337890625 -394.25 108.875 -389.660546875 90.4123046875 -394.75 77.35 -399.8443359375 64.299609375 -401.9 54.2 -403.955078125 44.0943359375 -404.35 36 -404.8 28.55 -404.55 20.2 -403.75 -13.8 -382.75 -41.6 -361.85 -69.55 -331.3 -74.55 -295.45 -79.35 -271.3 -55.6 -245.95 -30.75 -244.75 11.45 Z"/>
</g>
</g>
</g>

<g id="Layer_7" transform="matrix( 0.18115234375, 0, 0, 0.18115234375, 116.45,50.8) ">
<g transform="matrix( 0.99969482421875, -0.0246734619140625, 0.0246734619140625, 0.99969482421875, -2.15,5.5) ">
<g>
<g>
<path fill="url(#Gradient_1)" stroke="none" d="
M 201.8 -129.95
Q 185.683203125 -125.9451171875 179.45 -111.55 173.1248046875 -97.1349609375 182.2 -80.4 191.3251953125 -63.5798828125 199 -43.55 206.7087890625 -23.3498046875 210.35 1.75 213.9939453125 27.0376953125 214.65 47.8 215.3150390625 68.741796875 215.15 88.2 214.9541015625 107.7595703125 220.25 114.75 225.639453125 121.81875 232.55 113.35 235.9826171875 109.1408203125 239.05 102.05 245.5712890625 85.7001953125 249.1 68.15 252.7599609375 50.3859375 254.65 32.7 256.53671875 15.3078125 256.55 -2.2 256.556640625 -19.4615234375 255.3 -36.75 254.0609375 -54.3501953125 250.1 -71.75 249.5130859375 -74.163671875 248.9 -76.5 242.609375 -101.8052734375 230.3 -117.9 217.9818359375 -133.918359375 201.8 -129.95 Z"/>
</g>
</g>

<g transform="matrix( 0.99969482421875, 0.0246734619140625, -0.0246734619140625, 0.99969482421875, 2.25,-5.4) ">
<path stroke="url(#Gradient_10)" stroke-width="29" stroke-linejoin="round" stroke-linecap="round" fill="none" d="
M 174.49352836608884 -110.41861801147462
Q 168.52531543076037 -95.87690597474575 178.03625984191893 -79.34659309387207 187.5480716794729 -62.78113469183445 195.71535758972166 -42.92173614501953 203.91958602964877 -22.94290032684803 208.17960166931152 2.084395599365234 212.44575308859348 27.249472603201866 213.61450233459473 48.01424636840821 214.79542823433877 68.90825112760068 215.11115760803222 88.38958053588867 215.39730443060398 107.92302286326886 220.8896739959717 114.80502662658692 226.42628371715543 121.71426741480826 233.15076065063474 113.07697792053222 236.4534828811884 108.7850050598383 239.3699668884277 101.62004890441894 245.46086715757846 85.1149478405714 248.5810863494873 67.50741844177246 251.77602022886276 49.63409766256809 253.22910919189454 31.90692367553711 254.6861266851425 14.473491966724396 254.2680423736572 -3.004312896728516 253.84816259443758 -20.285724753141402 252.19033126831053 -37.53853645324707 250.49239678084848 -55.10217181444168 246.10397148132324 -72.37394409179687 245.45706605315206 -74.7973905414343 244.81151428222657 -77.11849555969238 237.8734479576349 -102.26021810770035 225.17071685791015 -118.04631805419922 212.46108362078667 -133.75585726201533 196.40770835876464 -129.36507148742677 180.3690350562334 -124.9881292283535 174.49352836608884 -110.41861801147462 Z"/>
</g>
</g>

<g transform="matrix( 1.04150390625, 0, 0, 1, 13.05,0) ">
<g>
<g>
<path fill="url(#Gradient_3)" stroke="none" d="
M -596.8 -159.45
Q -576.15 -104.75 -504.4 -75.45 -491.65 13 -523.25 116.55 -523.702734375 118.4951171875 -525.3 124.3 -526.844140625 130.1609375 -523.6 133.45 -520.30390625 136.7837890625 -515.4 135.2 -510.4529296875 133.6669921875 -508.5 125.45 -506.5453125 117.23046875 -501.2 114.7 -495.7978515625 112.21953125 -490.9 114.95 -485.9552734375 117.7345703125 -483.15 126.6 -480.2984375 135.5046875 -483.75 147.45 -487.2 159.3 -490.45 171.1 -493.7 182.65 -493.1 194.35 -492.396484375 207.1451171875 -484.3 215.4 -476.210546875 223.664453125 -468.35 214.8 -460.439453125 205.9353515625 -460.2 193 -459.903515625 180.1046875 -462.8 168.2 -465.6501953125 156.3521484375 -466.45 144.25 -467.2 132.14296875 -460.75 118.85 -454.3001953125 105.6091796875 -445.9 106.35 -439.9966796875 106.8810546875 -436.8 115.95 -433.6162109375 125.0046875 -429.35 124.6 -425.0763671875 124.20546875 -424.7 116.55 -419.75 17 -439.75 -75.45 -380.25 -100.85 -354.75 -159.45 -371.65 -221.65 -426.6 -235.05 -433.5 -182.5 -474.95 -159.45 -518 -174.45 -533.3 -235.05 -584.05 -220.1 -596.8 -159.45 Z"/>
</g>
</g>

<g transform="matrix( 0.96014404296875, 0, 0, 1, -12.5,0) ">
<path stroke="url(#Gradient_10)" stroke-width="29" stroke-linejoin="round" stroke-linecap="round" fill="none" d="
M -531.9169189453125 116.55
Q -499.00539550781247 13 -512.2845703125 -75.45 -587.0124755859375 -104.75 -608.51953125 -159.45 -595.2403564453125 -220.1 -542.384033203125 -235.05 -526.4490234375 -174.45 -481.6122802734375 -159.45 -438.441943359375 -182.5 -431.25556640625 -235.05 -374.02492675781247 -221.65 -356.4235107421875 -159.45 -382.9818603515625 -100.85 -444.9513427734375 -75.45 -424.1212646484375 17 -429.276708984375 116.55 -429.6686968803406 124.20546875 -434.1197021484375 124.6 -438.5629775047302 125.0046875 -441.87890625 115.95 -445.20826063156125 106.8810546875 -451.35659179687497 106.35 -460.1054280281067 105.6091796875 -466.8229248046875 118.875 -473.540625 132.14296875 -472.73345947265625 144.25 -471.92649736404417 156.3521484375 -468.9580078125 168.2 -465.9413080215454 180.1046875 -466.22406005859375 193.025 -466.49948902130126 205.9353515625 -474.7123168945312 214.8 -482.9251447677612 223.664453125 -491.350341796875 215.4 -499.7828619003296 207.1451171875 -500.515576171875 194.35 -501.1404785156249 182.65 -497.7555908203125 171.1 -494.370703125 159.3 -490.7775146484375 147.45 -487.18269882202145 135.5046875 -490.12657470703124 126.625 -493.0743155479431 117.7345703125 -498.19822998046874 114.975 -503.3253991127014 112.21953125 -508.9257202148438 114.725 -514.518921661377 117.23046875 -516.554736328125 125.45 -518.5887202262878 133.6669921875 -523.7150756835938 135.225 -528.8485507965088 136.7837890625 -532.2554077148438 133.475 -535.6602304458619 130.1609375 -534.0259643554688 124.325 -532.3884435653687 118.4951171875 -531.9169189453125 116.55 Z"/>
</g>
</g>

<g transform="matrix( 1, 0, 0, 1.001556396484375, 0,0) ">
<g>
<g>
<path fill="url(#Gradient_3)" stroke="none" d="
M 318 -150.4
Q 317.2 -130.8 321 -111.25 324.75 -92.15 327.35 -72.6 329.95 -53.15 329.35 -33.7 328.75 -13.7 324.2 5.65 319.7 24.8 313.5 43.8 307.3 62.9 299.7 81.25 292.05 99.65 281.3 116.5 273.68125 129.227734375 280.3 137.65 286.9638671875 146.1197265625 300.2 130.05 313.489453125 113.9837890625 321.55 118.7 329.6095703125 123.4185546875 324.85 142.15 320.091796875 160.881640625 318.65 166.9 317.20234375 172.9560546875 316.3 178.5 315.4 184.1 316.3 191.5 316.8 195.35 317.75 199 319.2 204.55 323.25 208.55 328.85 214.15 336.75 213.7 342.7 213.3 346.4 208.95 351.4 203.15 351.8 195.4 352.2 187.95 351.2 180.6 350.25 173.3 348.7 165.95 343.2740234375 129.515234375 357.65 118.05 372.0740234375 106.577734375 384.85 121.25 397.6763671875 135.9244140625 405 132.3 412.375390625 128.676953125 408.9 116.55 369.95 22.7 370 -52.6 370 -127.9 392.65 -135.45 415.3 -143 431.3 -100.6 476.5 -115.4 486.15 -159.45 483.25 -168.5 479.35 -177.1 471.3 -195 458 -209.4 444.45 -224 425.4 -230.2 406.7 -236.4 387.1 -234 367.05 -231.7 351.35 -218.95 335.8 -206.35 327.3 -188.2 318.85 -170.3 318 -150.4 Z"/>
</g>
</g>

<g>
<path stroke="url(#Gradient_10)" stroke-width="29" stroke-linejoin="round" stroke-linecap="round" fill="none" d="
M 408.9 116.55
Q 412.375390625 128.676953125 405.025 132.3 397.6763671875 135.9244140625 384.875 121.25 372.0740234375 106.577734375 357.675 118.05 343.2740234375 129.515234375 348.725 165.95 350.25 173.3 351.2 180.6 352.2 187.95 351.8 195.4 351.4 203.15 346.4 208.95 342.7 213.3 336.75 213.7 328.85 214.15 323.25 208.55 319.2 204.55 317.75 199 316.8 195.35 316.3 191.5 315.4 184.1 316.3 178.525 317.20234375 172.9560546875 318.65 166.925 320.091796875 160.881640625 324.85 142.15 329.6095703125 123.4185546875 321.55 118.7 313.489453125 113.9837890625 300.225 130.05 286.9638671875 146.1197265625 280.325 137.675 273.68125 129.227734375 281.3 116.5 292.05 99.65 299.7 81.25 307.3 62.9 313.5 43.8 319.7 24.8 324.2 5.65 328.75 -13.7 329.35 -33.7 329.95 -53.15 327.35 -72.6 324.75 -92.15 321 -111.25 317.2 -130.8 318 -150.4 318.85 -170.3 327.3 -188.2 335.8 -206.35 351.35 -218.95 367.05 -231.7 387.1 -234 406.7 -236.4 425.4 -230.2 444.45 -224 458 -209.4 471.3 -195 479.35 -177.1 483.25 -168.5 486.15 -159.45 476.5 -115.4 431.3 -100.6 415.3 -143 392.65 -135.45 370 -127.9 370 -52.6 369.95 22.7 408.9 116.55 Z"/>
</g>
</g>

<g transform="matrix( 0.999755859375, -0.0218505859375, 0.0220947265625, 0.9887542724609375, 2.35,2.4) ">
<g>
<g>
<path fill="url(#Gradient_3)" stroke="none" d="
M 219.25 -198.6
Q 212.15 -208.55 202.55 -216.65 193.4 -224.45 182.2 -229.6 171.1 -234.55 158.7 -236.15 150.7 -237 142.6 -237 151.4931640625 -232.700390625 158.55 -225.35 165.47109375 -218.2419921875 169.05 -209.25 172.83046875 -199.8443359375 172.35 -189.85 171.87265625 -179.830078125 166.25 -171.65 160.4130859375 -162.91015625 149.7 -162.15 139.1416015625 -161.8890625 131.5 -169.15 126.1740234375 -174.2197265625 123.85 -181.1 123.35 -168.75 124.6 -156.4 125.85 -143.9 130.4 -132.65 135 -121.2 142.4 -111.7 144.833203125 -108.607421875 147.5 -105.9 149.7095703125 -103.1455078125 152.3 -100.75 159.726171875 -93.78515625 169.55 -87.35 179.4248046875 -80.866796875 178.6 -70.25 177.7685546875 -59.62578125 181.15 -52.4 184.588671875 -45.1775390625 192.4 -44.55 200.253125 -43.874609375 203.5 -52.6 206.6498046875 -61.3931640625 199.8 -73.85 192.9384765625 -86.25 197.05 -95.25 201.162890625 -104.31015625 209.65 -106.35 211.7533203125 -106.862109375 213.55 -106.45 216.9826171875 -105.6123046875 218.6 -103.3 220.2111328125 -100.946875 220.8 -97.35 221.33359375 -93.702734375 222.2 -91.4 223.012890625 -89.0578125 224.9 -86.8 226.745703125 -84.6 230.05 -83.35 233.3509765625 -82.0958984375 236.5 -82.75 239.6990234375 -83.35703125 241.85 -86.3 243.94140625 -89.255078125 243.45 -94.25 242.9578125 -99.23984375 239.5 -104.5 236.0978515625 -109.763671875 235.05 -112.85 234.000390625 -115.9451171875 234 -118.95 234.0025390625 -121.9990234375 234.85 -125.6 234.8978515625 -125.6748046875 234.9 -125.9 234.948046875 -126.1427734375 235 -126.4 235.046484375 -126.6365234375 235.1 -126.9 235.23046875 -127.6982421875 235.35 -128.5 237.15 -140.75 236.1 -153 235 -165.65 230.7 -177.1 226.35 -188.75 219.25 -198.6 Z"/>
</g>
</g>

<g transform="matrix( 0.999755859375, 0.0220794677734375, -0.0223388671875, 1.0108795166015625, -2.25,-2.45) ">
<path stroke="url(#Gradient_10)" stroke-width="29" stroke-linejoin="round" stroke-linecap="round" fill="none" d="
M 147.49970397949218 -105.50786628723144
Q 149.74404833316802 -102.85680336654185 152.38732604980467 -100.52011833190916 159.9650188446045 -93.82058438062667 169.9541778564453 -87.64827995300293 179.94427003860474 -81.47792802453041 179.35424194335937 -70.96250228881836 178.75773882865906 -60.43959304094315 182.32300415039063 -53.36950378417969 185.89542090892792 -46.30285540521145 193.74425354003907 -45.828882980346684 201.58483757972718 -45.35685558915139 204.66312866210936 -54.055615234375 207.59288790225983 -62.81817258298397 200.47007751464844 -74.9605312347412 193.33570227622985 -87.09587476253509 197.27236328125 -96.08504867553711 201.1590742111206 -105.13263968229295 209.59904174804686 -107.33499221801756 211.6905336380005 -107.8873013317585 213.49588012695312 -107.51908493041991 216.94616792201995 -106.76581480801104 218.6397918701172 -104.49068183898926 220.27697672843934 -102.22339622974395 220.97016601562498 -98.6803840637207 221.5592209339142 -95.08524766564369 222.47684631347656 -92.80262184143066 223.34073610305785 -90.52925493717193 225.2772705078125 -88.33806762695312 227.17113142013548 -86.20313792228697 230.5277862548828 -85.01522331237793 233.83011968135833 -83.87152589857578 236.98946838378905 -84.56290702819823 240.14875235557557 -85.25718489885331 242.23473205566407 -88.18933906555176 244.25978369712828 -91.18160249590873 243.6831298828125 -96.11016159057617 243.05581941604615 -101.03259006738664 239.50817565917967 -106.13386421203612 235.96501216888427 -111.2881759226322 234.87421874999998 -114.3174461364746 233.73148596286774 -117.35427563488483 233.66470336914062 -120.3253578186035 233.5998744726181 -123.34014824926852 234.3931121826172 -126.89497413635254 234.41375300884246 -126.99415576755999 234.41092529296876 -127.21686553955078 234.45359642505645 -127.45795866549014 234.50040588378906 -127.68870887756347 234.54110062122345 -127.94830700457095 234.58878173828126 -128.20998992919922 234.7015816926956 -129.00210612118244 234.803369140625 -129.79745941162108 236.33226928710937 -141.94903030395508 235.011865234375 -154.03832702636717 233.63263549804688 -166.52203292846679 229.08070068359373 -177.7493118286133 224.47435913085937 -189.17324905395506 217.15845947265623 -198.75733947753906 209.84035034179686 -208.44030532836916 200.06372680664063 -216.23944931030272 190.74362182617188 -223.7517997741699 179.43256835937498 -228.59915771484376 168.2259094238281 -233.25094985961914 155.79358520507813 -234.56200942993163 147.7767578125 -235.22764587402344 139.70428161621092 -235.0264835357666 148.66472692489623 -230.9937198340893 155.9077911376953 -223.8560131072998 162.95869839191437 -217.00334255993363 166.76095275878905 -208.16650047302247 170.72276785373688 -198.97338799536226 170.48823242187498 -189.08149337768555 170.20739874839782 -179.16327630877495 164.79239807128906 -170.92815818786622 159.12446722984313 -162.1832329392433 148.4557861328125 -161.19808425903318 137.88073687553404 -160.70882773399353 130.10556640625 -167.72168350219727 124.64388201236724 -172.61747532784938 122.16896057128906 -179.3448749542236 121.94140014648437 -167.1475532531738 123.46396484374999 -154.9637512207031 124.98984374999999 -142.63163604736326 129.78729858398438 -131.60757064819336 134.63916015625 -120.38684692382812 142.24725341796875 -111.15537567138671 144.7481921672821 -108.15074275135993 147.49970397949218 -105.50786628723144 Z"/>
</g>
</g>

<g transform="matrix( 0.99993896484375, 0.0093841552734375, -0.0074920654296875, 0.8114471435546875, -0.25,-18.05) ">
<g>
<g>
<path fill="#CC9966" stroke="none" d="
M 292.45 -102.75
Q 283.85 -105.35 278.25 -100.75 272.7 -96.15 269.75 -83.35 266.8 -70.55 266.3 -53.25 265.7 -32.1 267.75 -12.9 269.75 6.3 275.3 10 280.9 13.65 292.85 9.5 304.9 5.25 323.05 -8.45 329.382421875 -13.247265625 335.35 -19.2 341.2638671875 -13.5794921875 348.8 -13.35 356.58046875 -13.1904296875 362.95 -19.2 368.8189453125 -12.9244140625 375.1 -7.85 392.8 6.4 404.7 11 416.6 15.5 422.3 12.05 427.9 8.5 430.55 -10.6 433.1 -29.75 433.15 -50.9 433.2 -68.25 430.7 -81.1 428.15 -94 422.7 -98.75 417.25 -103.5 408.55 -101.2 390.4126953125 -95.9587890625 366.15 -71.6 359.8833984375 -79.722265625 349.75 -79.9 339.9341796875 -80.159375 333.2 -72.7 310.1623046875 -97.0494140625 292.45 -102.75 Z"/>
</g>
</g>

<g transform="matrix( 0.999969482421875, -0.0115509033203125, 0.0092315673828125, 1.2322540283203125, 0.4,22.2) ">
<path stroke="url(#Gradient_10)" stroke-width="29" stroke-linejoin="round" stroke-linecap="round" fill="none" d="
M 409.03326110839845 -96.33455429077148
Q 417.74996185302734 -98.11924057006836 423.16404190063474 -94.21372299194336 428.57812194824214 -90.30820541381836 431.0313186645508 -79.81660766601561 433.43489303588865 -69.3660514831543 433.25490875244134 -55.287912750244146 433.0464546203614 -38.12627487182617 430.3531372070313 -22.610991668701175 427.56020050048824 -7.137219238281251 421.9339454650879 -4.309133148193359 416.20844573974614 -1.563130187988282 404.34288635253904 -5.326313781738282 392.47807617187505 -9.17064208984375 374.88591842651374 -20.89986343383789 368.64326494634145 -25.076424622535704 362.8215076446533 -30.203519821166992 356.40752836763863 -25.407130005955697 348.6287300109864 -25.60962600708008 341.09477653801446 -25.86656702756882 335.2233795166016 -30.482808685302736 329.2115673482418 -25.708480060100555 322.8435905456543 -21.875177001953126 304.59205703735347 -10.928673553466798 292.5109512329102 -7.593102264404298 280.5305885314941 -4.337737274169923 274.9582763671875 -7.352070617675782 269.4363357543945 -10.406507110595705 267.580305480957 -26.005060577392577 265.67427825927734 -41.60408325195313 266.4326988220215 -58.7605598449707 267.062281036377 -72.79390335083008 270.10799942016604 -83.15274353027343 273.15371780395503 -93.5115837097168 278.73784255981445 -97.19215850830078 284.3719642639161 -100.87226409912108 292.95195999145506 -98.68179779052734 310.6204744428396 -93.88985859751702 333.4991474151612 -73.8948860168457 340.2639910340309 -79.90510074794292 350.07726898193357 -79.60251846313477 360.20871732830994 -79.36320302784443 366.41408386230466 -72.71360702514649 390.8577959388494 -92.25179193019866 409.03326110839845 -96.33455429077148 Z"/>
</g>
</g>

<g>
<g>
<g>
<path fill="url(#Gradient_4)" stroke="none" d="
M 591.95 -23.25
Q 586.25 -36.8 576.6 -48.3 553.75 -75.5 519.8 -75.4 485.8 -75.5 463.1 -49.1 439.999609375 -22.44609375 438.5 8.8 437.001171875 40.0869140625 443.8 64.25 450.648046875 88.41796875 450.25 106.4 449.8525390625 124.433203125 456.7 132 463.5880859375 139.623828125 470.7 136.25 477.8751953125 132.8703125 479.4 116.8 480.96171875 100.741015625 490.55 97.6 500.1921875 94.508984375 510.6 106.65 521.0078125 118.836328125 512.7 153.75 504.384375 188.6763671875 517.4 198.45 530.47890625 208.2158203125 540.9 195.7 551.313671875 183.18828125 545.6 153.55 539.8837890625 123.9615234375 555.55 109.75 571.20546875 95.5896484375 577.45 86.95 583.704296875 78.305859375 588.6 68.7 594.05 58 596.85 46.05 569.7 28.3 537.55 35.15 537.3 35.5 537.05 35.85 529.4 47.25 517.75 47.15 506.15 47.05 498.8 35.4 497.4 33.2 496.35 30.95 532.1 11.7 599 3.9 597.2 -10.6 591.95 -23.25
M 500.2 -17.2
Q 507.55 -27.5 518.6 -27.45 529.6 -27.5 537 -16.9 537.35 -16.45 537.65 -15.95 511.25 -8.85 492.55 3.25 494 -8.6 500.2 -17.2 Z"/>
</g>
</g>

<g>
<path stroke="url(#Gradient_10)" stroke-width="29" stroke-linejoin="round" stroke-linecap="round" fill="none" d="
M 500.2 -17.2
Q 507.55 -27.5 518.6 -27.45 529.6 -27.5 537 -16.9 537.35 -16.45 537.65 -15.95 511.25 -8.85 492.55 3.25 494 -8.6 500.2 -17.2 Z
M 577.45 86.95
Q 571.20546875 95.5896484375 555.55 109.775 539.8837890625 123.9615234375 545.6 153.575 551.313671875 183.18828125 540.9 195.7 530.47890625 208.2158203125 517.425 198.45 504.384375 188.6763671875 512.7 153.75 521.0078125 118.836328125 510.6 106.675 500.1921875 94.508984375 490.575 97.625 480.96171875 100.741015625 479.425 116.8 477.8751953125 132.8703125 470.725 136.25 463.5880859375 139.623828125 456.725 132.025 449.8525390625 124.433203125 450.25 106.425 450.648046875 88.41796875 443.825 64.25 437.001171875 40.0869140625 438.5 8.825 439.999609375 -22.44609375 463.1 -49.1 485.8 -75.5 519.8 -75.4 553.75 -75.5 576.6 -48.3 586.25 -36.8 591.95 -23.25 597.2 -10.6 599 3.9 532.1 11.7 496.35 30.95 497.4 33.2 498.8 35.4 506.15 47.05 517.75 47.15 529.4 47.25 537.05 35.85 537.3 35.5 537.55 35.15 569.7 28.3 596.85 46.05 594.05 58 588.6 68.7 583.704296875 78.305859375 577.45 86.95 Z"/>
</g>
</g>

<g>
<g>
<g>
<path fill="url(#Gradient_5)" stroke="none" d="
M -29.9 -159.45
Q -28.1 -155.05 -26.45 -150.7 -23 -141.7 -19.75 -132.55 -16.45 -123.45 -13.6 -114.05 -10.85 -104.9 -8.3 -95.6 -5.75 -86.2 -3.65 -76.55 -1.5 -66.65 0.15 -56.65 1.8 -46.65 2.8 -36.7 3.8 -26.85 4.4 -17 5 -7.05 4.95 2.9 4.9 12.65 4.2 22.4 3.5 32.1 2.1 41.85 0.65 51.65 -1.4 61.2 -3.4 70.75 -6.15 80.15 -8.95 89.55 -12.55 98.5 -16.05 107.25 -19.6 116.15 -23.2 125.05 -24.25 135.1 -24.7 139.6 -23.4 143.85 -21.15 151.25 -13.9 153.2 -7.85 154.8 -2.75 151.45 1.15 148.95 4 145.25 10.15 137.3 12.75 127.65 15.35 117.95 16.3 107.35 19.15 84.15 29.05 80.85 38.9 77.55 45.8 95.65 52.75 113.65 66 119.7 79.2 125.7 93.4 117.1 100.5208984375 112.044140625 107.05 111.75 113.59453125 111.5294921875 116.65 120.45 119.754296875 129.4115234375 112.5 161 105.235546875 192.592578125 111.9 208.45 118.6310546875 224.3041015625 131.15 222.55 143.6615234375 220.7908203125 148.95 202.3 154.24453125 183.81640625 146.75 151.85 139.2544921875 119.8763671875 152.5 122.25 165.7841796875 124.638671875 171.25 116.45 197.7 59.65 177.8 3.7 127.05 -16.35 69.95 -0.75 85.7 -125.35 39.7 -235.05 -14.55 -223.2 -29.9 -159.45 Z"/>
</g>
</g>

<g>
<path stroke="url(#Gradient_11)" stroke-width="29" stroke-linejoin="round" stroke-linecap="round" fill="none" d="
M 45.8 95.65
Q 38.9 77.55 29.05 80.85 19.15 84.15 16.3 107.35 15.35 117.95 12.75 127.65 10.15 137.3 4 145.25 1.15 148.95 -2.75 151.45 -7.85 154.8 -13.9 153.2 -21.15 151.25 -23.4 143.85 -24.7 139.6 -24.25 135.1 -23.2 125.05 -19.6 116.15 -16.05 107.25 -12.55 98.5 -8.95 89.55 -6.15 80.15 -3.4 70.75 -1.4 61.2 0.65 51.65 2.1 41.85 3.5 32.1 4.2 22.4 4.9 12.65 4.95 2.9 5 -7.05 4.4 -17 3.8 -26.85 2.8 -36.7 1.8 -46.65 0.15 -56.65 -1.5 -66.65 -3.65 -76.55 -5.75 -86.2 -8.3 -95.6 -10.85 -104.9 -13.6 -114.05 -16.45 -123.45 -19.75 -132.55 -23 -141.7 -26.45 -150.7 -28.1 -155.05 -29.9 -159.45 -14.55 -223.2 39.7 -235.05 85.7 -125.35 69.95 -0.75 127.05 -16.35 177.8 3.7 197.7 59.65 171.25 116.45 165.7841796875 124.638671875 152.525 122.25 139.2544921875 119.8763671875 146.75 151.85 154.24453125 183.81640625 148.95 202.3 143.6615234375 220.7908203125 131.15 222.55 118.6310546875 224.3041015625 111.925 208.45 105.235546875 192.592578125 112.5 161 119.754296875 129.4115234375 116.675 120.475 113.59453125 111.5294921875 107.05 111.775 100.5208984375 112.044140625 93.4 117.1 79.2 125.7 66 119.7 52.75 113.65 45.8 95.65 Z"/>
</g>
</g>

<g>
<g>
<g>
<path fill="url(#Gradient_7)" stroke="none" d="
M -151.2 123.45
Q -144.6 119.6 -139.05 107.7 -133.5515625 95.7966796875 -124.7 96.4 -115.7904296875 97.0060546875 -110.85 111.25 -105.9115234375 125.53828125 -112.15 151.45 -118.382421875 177.3724609375 -115.2 192 -112.0205078125 206.6708984375 -101.4 209.65 -90.787109375 212.67421875 -83.1 202.9 -75.3578125 193.176171875 -80.4 163.35 -85.3916015625 133.57734375 -69.55 115.65 -63.45 109.05 -57.6 101.9 -24.3 63.35 -21 3.8 -30 -47.4 -80.75 -75.35 -74.2 -26.8 -100.4 3.8 -111.35 -13.45 -125.4 -23.15 -139.45 -13.45 -150.4 3.8 -176.6 -26.8 -170.05 -75.35 -220.8 -47.4 -229.8 3.8 -226.8 41 -216.65 64.25 -206.555859375 87.544140625 -195.25 105.15 -183.934375 122.7626953125 -187.95 136.35 -191.968359375 149.9408203125 -188.25 157.65 -184.53515625 165.4056640625 -178 166.7 -171.453515625 167.99140625 -166.1 162.7 -160.7087890625 157.4654296875 -161.6 146.75 -162.4388671875 136.0857421875 -160.15 131.7 -157.80390625 127.3044921875 -151.2 123.45 Z"/>
</g>
</g>

<g>
<path stroke="url(#Gradient_10)" stroke-width="29" stroke-linejoin="round" stroke-linecap="round" fill="none" d="
M -57.6 101.9
Q -24.3 63.35 -21 3.8 -30 -47.4 -80.75 -75.35 -74.2 -26.8 -100.4 3.8 -111.35 -13.45 -125.4 -23.15 -139.45 -13.45 -150.4 3.8 -176.6 -26.8 -170.05 -75.35 -220.8 -47.4 -229.8 3.8 -226.8 41 -216.65 64.25 -206.555859375 87.544140625 -195.25 105.15 -183.934375 122.7626953125 -187.95 136.35 -191.968359375 149.9408203125 -188.25 157.675 -184.53515625 165.4056640625 -178 166.7 -171.453515625 167.99140625 -166.075 162.725 -160.7087890625 157.4654296875 -161.575 146.775 -162.4388671875 136.0857421875 -160.125 131.7 -157.80390625 127.3044921875 -151.2 123.45 -144.6 119.6 -139.05 107.7 -133.5515625 95.7966796875 -124.675 96.4 -115.7904296875 97.0060546875 -110.85 111.275 -105.9115234375 125.53828125 -112.15 151.45 -118.382421875 177.3724609375 -115.2 192.025 -112.0205078125 206.6708984375 -101.4 209.675 -90.787109375 212.67421875 -83.075 202.925 -75.3578125 193.176171875 -80.375 163.375 -85.3916015625 133.57734375 -69.55 115.65 -63.45 109.05 -57.6 101.9 Z"/>
</g>
</g>

<g>
<g>
<g>
<path fill="url(#Gradient_8)" stroke="none" d="
M -331.3 -74.55
Q -361.85 -69.55 -382.75 -41.6 -403.75 -13.8 -404.55 20.2 -404.8 28.55 -404.35 36 -403.955078125 44.0943359375 -401.9 54.2 -399.8443359375 64.299609375 -394.75 77.35 -389.660546875 90.4123046875 -394.25 108.85 -398.8404296875 127.3337890625 -393.85 138.35 -388.805859375 149.3578125 -378.4 151.05 -367.9375 152.7921875 -361.65 143.05 -355.3775390625 133.3029296875 -356.9 113.9 -358.4146484375 94.5068359375 -339.95 102 -321.429296875 109.4712890625 -319.75 128.95 -318.027734375 148.483203125 -324.15 168.25 -330.2677734375 188.023828125 -329.9 200.75 -329.4802734375 213.5166015625 -323.4 222.25 -317.2591796875 230.9869140625 -306.95 229.95 -296.5947265625 228.9599609375 -290.45 214.15 -284.3125 199.390234375 -289.35 174.55 -294.3736328125 149.7123046875 -292.5 132.1 -289.2 109.7 -269.9 86.05 -243.6 53.65 -244.75 11.45 -245.95 -30.75 -271.3 -55.6 -295.45 -79.35 -331.3 -74.55
M -347.5 -35
Q -342 -41.85 -334.3 -43.1 -326.7 -44.4 -321.15 -38.5 -315.6 -32.6 -315.55 -23.35 -315.5 -14.05 -320.95 -6.7 -326.55 0.45 -334.8 1.35 -343.1 2.25 -348.5 -3.85 -353.8 -10 -353.45 -19.2 -353 -28.2 -347.5 -35 Z"/>
</g>
</g>

<g>
<path stroke="url(#Gradient_12)" stroke-width="29" stroke-linejoin="round" stroke-linecap="round" fill="none" d="
M -315.55 -23.35
Q -315.5 -14.05 -320.95 -6.7 -326.55 0.45 -334.8 1.35 -343.1 2.25 -348.5 -3.85 -353.8 -10 -353.45 -19.2 -353 -28.2 -347.5 -35 -342 -41.85 -334.3 -43.1 -326.7 -44.4 -321.15 -38.5 -315.6 -32.6 -315.55 -23.35 Z
M -244.75 11.45
Q -243.6 53.65 -269.9 86.05 -289.2 109.7 -292.5 132.1 -294.3736328125 149.7123046875 -289.35 174.55 -284.3125 199.390234375 -290.45 214.175 -296.5947265625 228.9599609375 -306.925 229.975 -317.2591796875 230.9869140625 -323.375 222.25 -329.4802734375 213.5166015625 -329.875 200.775 -330.2677734375 188.023828125 -324.15 168.25 -318.027734375 148.483203125 -319.725 128.975 -321.429296875 109.4712890625 -339.925 102 -358.4146484375 94.5068359375 -356.9 113.9 -355.3775390625 133.3029296875 -361.65 143.05 -367.9375 152.7921875 -378.375 151.075 -388.805859375 149.3578125 -393.825 138.35 -398.8404296875 127.3337890625 -394.25 108.875 -389.660546875 90.4123046875 -394.75 77.35 -399.8443359375 64.299609375 -401.9 54.2 -403.955078125 44.0943359375 -404.35 36 -404.8 28.55 -404.55 20.2 -403.75 -13.8 -382.75 -41.6 -361.85 -69.55 -331.3 -74.55 -295.45 -79.35 -271.3 -55.6 -245.95 -30.75 -244.75 11.45 Z"/>
</g>
</g>
</g>

<g id="YowLife_Title_MAIN" transform="matrix( 0.18115234375, 0, 0, 0.18115234375, 116.45,50.8) ">
<g transform="matrix( 0.99969482421875, -0.0246734619140625, 0.0246734619140625, 0.99969482421875, -2.15,5.5) ">
<g>
<g>
<path fill="url(#Gradient_13)" stroke="none" d="
M 201.8 -129.95
Q 185.683203125 -125.9451171875 179.45 -111.55 173.1248046875 -97.1349609375 182.2 -80.4 191.3251953125 -63.5798828125 199 -43.55 206.7087890625 -23.3498046875 210.35 1.75 213.9939453125 27.0376953125 214.65 47.8 215.3150390625 68.741796875 215.15 88.2 214.9541015625 107.7595703125 220.25 114.75 225.639453125 121.81875 232.55 113.35 235.9826171875 109.1408203125 239.05 102.05 245.5712890625 85.7001953125 249.1 68.15 252.7599609375 50.3859375 254.65 32.7 256.53671875 15.3078125 256.55 -2.2 256.556640625 -19.4615234375 255.3 -36.75 254.0609375 -54.3501953125 250.1 -71.75 249.5130859375 -74.163671875 248.9 -76.5 242.609375 -101.8052734375 230.3 -117.9 217.9818359375 -133.918359375 201.8 -129.95 Z"/>
</g>
</g>

<g transform="matrix( 0.99969482421875, 0.0246734619140625, -0.0246734619140625, 0.99969482421875, 2.25,-5.4) ">
<path stroke="#FFFFFF" stroke-width="14" stroke-linejoin="round" stroke-linecap="round" fill="none" d="
M 174.49352836608884 -110.41861801147462
Q 168.52531543076037 -95.87690597474575 178.03625984191893 -79.34659309387207 187.5480716794729 -62.78113469183445 195.71535758972166 -42.92173614501953 203.91958602964877 -22.94290032684803 208.17960166931152 2.084395599365234 212.44575308859348 27.249472603201866 213.61450233459473 48.01424636840821 214.79542823433877 68.90825112760068 215.11115760803222 88.38958053588867 215.39730443060398 107.92302286326886 220.8896739959717 114.80502662658692 226.42628371715543 121.71426741480826 233.15076065063474 113.07697792053222 236.4534828811884 108.7850050598383 239.3699668884277 101.62004890441894 245.46086715757846 85.1149478405714 248.5810863494873 67.50741844177246 251.77602022886276 49.63409766256809 253.22910919189454 31.90692367553711 254.6861266851425 14.473491966724396 254.2680423736572 -3.004312896728516 253.84816259443758 -20.285724753141402 252.19033126831053 -37.53853645324707 250.49239678084848 -55.10217181444168 246.10397148132324 -72.37394409179687 245.45706605315206 -74.7973905414343 244.81151428222657 -77.11849555969238 237.8734479576349 -102.26021810770035 225.17071685791015 -118.04631805419922 212.46108362078667 -133.75585726201533 196.40770835876464 -129.36507148742677 180.3690350562334 -124.9881292283535 174.49352836608884 -110.41861801147462 Z"/>
</g>
</g>

<g transform="matrix( 1.04150390625, 0, 0, 1, 13.05,0) ">
<g>
<g>
<path fill="url(#Gradient_3)" stroke="none" d="
M -596.8 -159.45
Q -576.15 -104.75 -504.4 -75.45 -491.65 13 -523.25 116.55 -523.702734375 118.4951171875 -525.3 124.3 -526.844140625 130.1609375 -523.6 133.45 -520.30390625 136.7837890625 -515.4 135.2 -510.4529296875 133.6669921875 -508.5 125.45 -506.5453125 117.23046875 -501.2 114.7 -495.7978515625 112.21953125 -490.9 114.95 -485.9552734375 117.7345703125 -483.15 126.6 -480.2984375 135.5046875 -483.75 147.45 -487.2 159.3 -490.45 171.1 -493.7 182.65 -493.1 194.35 -492.396484375 207.1451171875 -484.3 215.4 -476.210546875 223.664453125 -468.35 214.8 -460.439453125 205.9353515625 -460.2 193 -459.903515625 180.1046875 -462.8 168.2 -465.6501953125 156.3521484375 -466.45 144.25 -467.2 132.14296875 -460.75 118.85 -454.3001953125 105.6091796875 -445.9 106.35 -439.9966796875 106.8810546875 -436.8 115.95 -433.6162109375 125.0046875 -429.35 124.6 -425.0763671875 124.20546875 -424.7 116.55 -419.75 17 -439.75 -75.45 -380.25 -100.85 -354.75 -159.45 -371.65 -221.65 -426.6 -235.05 -433.5 -182.5 -474.95 -159.45 -518 -174.45 -533.3 -235.05 -584.05 -220.1 -596.8 -159.45 Z"/>
</g>
</g>

<g transform="matrix( 0.96014404296875, 0, 0, 1, -12.5,0) ">
<path stroke="#FFFFFF" stroke-width="14" stroke-linejoin="round" stroke-linecap="round" fill="none" d="
M -531.9169189453125 116.55
Q -499.00539550781247 13 -512.2845703125 -75.45 -587.0124755859375 -104.75 -608.51953125 -159.45 -595.2403564453125 -220.1 -542.384033203125 -235.05 -526.4490234375 -174.45 -481.6122802734375 -159.45 -438.441943359375 -182.5 -431.25556640625 -235.05 -374.02492675781247 -221.65 -356.4235107421875 -159.45 -382.9818603515625 -100.85 -444.9513427734375 -75.45 -424.1212646484375 17 -429.276708984375 116.55 -429.6686968803406 124.20546875 -434.1197021484375 124.6 -438.5629775047302 125.0046875 -441.87890625 115.95 -445.20826063156125 106.8810546875 -451.35659179687497 106.35 -460.1054280281067 105.6091796875 -466.8229248046875 118.875 -473.540625 132.14296875 -472.73345947265625 144.25 -471.92649736404417 156.3521484375 -468.9580078125 168.2 -465.9413080215454 180.1046875 -466.22406005859375 193.025 -466.49948902130126 205.9353515625 -474.7123168945312 214.8 -482.9251447677612 223.664453125 -491.350341796875 215.4 -499.7828619003296 207.1451171875 -500.515576171875 194.35 -501.1404785156249 182.65 -497.7555908203125 171.1 -494.370703125 159.3 -490.7775146484375 147.45 -487.18269882202145 135.5046875 -490.12657470703124 126.625 -493.0743155479431 117.7345703125 -498.19822998046874 114.975 -503.3253991127014 112.21953125 -508.9257202148438 114.725 -514.518921661377 117.23046875 -516.554736328125 125.45 -518.5887202262878 133.6669921875 -523.7150756835938 135.225 -528.8485507965088 136.7837890625 -532.2554077148438 133.475 -535.6602304458619 130.1609375 -534.0259643554688 124.325 -532.3884435653687 118.4951171875 -531.9169189453125 116.55 Z"/>
</g>
</g>

<g>
<g>
<g>
<path fill="url(#Gradient_14)" stroke="none" d="
M 318 -150.65
Q 317.2 -131 321 -111.4 324.75 -92.3 327.35 -72.7 329.95 -53.25 329.35 -33.75 328.75 -13.7 324.2 5.65 319.7 24.85 313.5 43.85 307.3 63 299.7 81.4 292.05 99.8 281.3 116.7 273.7 129.45 280.35 137.9 286.95 146.35 300.25 130.25 313.5 114.2 321.55 118.9 329.6 123.6 324.85 142.35 320.1 161.15 318.65 167.2 317.2 173.2 316.3 178.85 315.4 184.4 316.3 191.8 316.8 195.65 317.75 199.3 319.2 204.85 323.25 208.85 328.85 214.5 336.75 214.05 342.7 213.65 346.4 209.3 351.4 203.45 351.8 195.7 352.2 188.25 351.2 180.9 350.25 173.55 348.75 166.2 343.25 129.7 357.7 118.25 372.05 106.75 384.9 121.45 397.7 136.1 405.05 132.5 412.4 128.9 408.9 116.75 369.95 22.75 370 -52.7 370 -128.1 392.65 -135.65 415.3 -143.2 431.3 -100.75 476.5 -115.6 486.15 -159.7 483.25 -168.75 479.35 -177.4 471.3 -195.3 458 -209.75 444.45 -224.35 425.4 -230.55 406.7 -236.75 387.1 -234.35 367.05 -232.05 351.35 -219.3 335.8 -206.65 327.3 -188.5 318.85 -170.55 318 -150.65 Z"/>
</g>
</g>

<g>
<path stroke="#FFFFFF" stroke-width="14" stroke-linejoin="round" stroke-linecap="round" fill="none" d="
M 408.9 116.75
Q 412.4 128.9 405.05 132.5 397.7 136.1 384.9 121.45 372.05 106.75 357.7 118.25 343.25 129.7 348.75 166.2 350.25 173.55 351.2 180.9 352.2 188.25 351.8 195.7 351.4 203.45 346.4 209.3 342.7 213.65 336.75 214.05 328.85 214.5 323.25 208.85 319.2 204.85 317.75 199.3 316.8 195.65 316.3 191.8 315.4 184.4 316.3 178.85 317.2 173.2 318.65 167.2 320.1 161.15 324.85 142.35 329.6 123.6 321.55 118.9 313.5 114.2 300.25 130.25 286.95 146.35 280.35 137.9 273.7 129.45 281.3 116.7 292.05 99.8 299.7 81.4 307.3 63 313.5 43.85 319.7 24.85 324.2 5.65 328.75 -13.7 329.35 -33.75 329.95 -53.25 327.35 -72.7 324.75 -92.3 321 -111.4 317.2 -131 318 -150.65 318.85 -170.55 327.3 -188.5 335.8 -206.65 351.35 -219.3 367.05 -232.05 387.1 -234.35 406.7 -236.75 425.4 -230.55 444.45 -224.35 458 -209.75 471.3 -195.3 479.35 -177.4 483.25 -168.75 486.15 -159.7 476.5 -115.6 431.3 -100.75 415.3 -143.2 392.65 -135.65 370 -128.1 370 -52.7 369.95 22.75 408.9 116.75 Z"/>
</g>
</g>

<g transform="matrix( 0.999755859375, -0.0218505859375, 0.0220947265625, 0.9887542724609375, 2.35,2.4) ">
<g>
<g>
<path fill="url(#Gradient_3)" stroke="none" d="
M 219.25 -198.6
Q 212.15 -208.55 202.55 -216.65 193.4 -224.45 182.2 -229.6 171.1 -234.55 158.7 -236.15 150.7 -237 142.6 -237 151.4931640625 -232.700390625 158.55 -225.35 165.47109375 -218.2419921875 169.05 -209.25 172.83046875 -199.8443359375 172.35 -189.85 171.87265625 -179.830078125 166.25 -171.65 160.4130859375 -162.91015625 149.7 -162.15 139.1416015625 -161.8890625 131.5 -169.15 126.1740234375 -174.2197265625 123.85 -181.1 123.35 -168.75 124.6 -156.4 125.85 -143.9 130.4 -132.65 135 -121.2 142.4 -111.7 144.833203125 -108.607421875 147.5 -105.9 149.7095703125 -103.1455078125 152.3 -100.75 159.726171875 -93.78515625 169.55 -87.35 179.4248046875 -80.866796875 178.6 -70.25 177.7685546875 -59.62578125 181.15 -52.4 184.588671875 -45.1775390625 192.4 -44.55 200.253125 -43.874609375 203.5 -52.6 206.6498046875 -61.3931640625 199.8 -73.85 192.9384765625 -86.25 197.05 -95.25 201.162890625 -104.31015625 209.65 -106.35 211.7533203125 -106.862109375 213.55 -106.45 216.9826171875 -105.6123046875 218.6 -103.3 220.2111328125 -100.946875 220.8 -97.35 221.33359375 -93.702734375 222.2 -91.4 223.012890625 -89.0578125 224.9 -86.8 226.745703125 -84.6 230.05 -83.35 233.3509765625 -82.0958984375 236.5 -82.75 239.6990234375 -83.35703125 241.85 -86.3 243.94140625 -89.255078125 243.45 -94.25 242.9578125 -99.23984375 239.5 -104.5 236.0978515625 -109.763671875 235.05 -112.85 234.000390625 -115.9451171875 234 -118.95 234.0025390625 -121.9990234375 234.85 -125.6 234.8978515625 -125.6748046875 234.9 -125.9 234.948046875 -126.1427734375 235 -126.4 235.046484375 -126.6365234375 235.1 -126.9 235.23046875 -127.6982421875 235.35 -128.5 237.15 -140.75 236.1 -153 235 -165.65 230.7 -177.1 226.35 -188.75 219.25 -198.6 Z"/>
</g>
</g>

<g transform="matrix( 0.999755859375, 0.0220794677734375, -0.0223388671875, 1.0108795166015625, -2.25,-2.45) ">
<path stroke="#FFFFFF" stroke-width="14" stroke-linejoin="round" stroke-linecap="round" fill="none" d="
M 139.70428161621092 -235.0264835357666
Q 148.66472692489623 -230.9937198340893 155.9077911376953 -223.8560131072998 162.95869839191437 -217.00334255993363 166.76095275878905 -208.16650047302247 170.72276785373688 -198.97338799536226 170.48823242187498 -189.08149337768555 170.20739874839782 -179.16327630877495 164.79239807128906 -170.92815818786622 159.12446722984313 -162.1832329392433 148.4557861328125 -161.19808425903318 137.88073687553404 -160.70882773399353 130.10556640625 -167.72168350219727 124.64388201236724 -172.61747532784938 122.16896057128906 -179.3448749542236 121.94140014648437 -167.1475532531738 123.46396484374999 -154.9637512207031 124.98984374999999 -142.63163604736326 129.78729858398438 -131.60757064819336 134.63916015625 -120.38684692382812 142.24725341796875 -111.15537567138671 144.7481921672821 -108.15074275135993 147.49970397949218 -105.50786628723144 149.74404833316802 -102.85680336654185 152.38732604980467 -100.52011833190916 159.9650188446045 -93.82058438062667 169.9541778564453 -87.64827995300293 179.94427003860474 -81.47792802453041 179.35424194335937 -70.96250228881836 178.75773882865906 -60.43959304094315 182.32300415039063 -53.36950378417969 185.89542090892792 -46.30285540521145 193.74425354003907 -45.828882980346684 201.58483757972718 -45.35685558915139 204.66312866210936 -54.055615234375 207.59288790225983 -62.81817258298397 200.47007751464844 -74.9605312347412 193.33570227622985 -87.09587476253509 197.27236328125 -96.08504867553711 201.1590742111206 -105.13263968229295 209.59904174804686 -107.33499221801756 211.6905336380005 -107.8873013317585 213.49588012695312 -107.51908493041991 216.94616792201995 -106.76581480801104 218.6397918701172 -104.49068183898926 220.27697672843934 -102.22339622974395 220.97016601562498 -98.6803840637207 221.5592209339142 -95.08524766564369 222.47684631347656 -92.80262184143066 223.34073610305785 -90.52925493717193 225.2772705078125 -88.33806762695312 227.17113142013548 -86.20313792228697 230.5277862548828 -85.01522331237793 233.83011968135833 -83.87152589857578 236.98946838378905 -84.56290702819823 240.14875235557557 -85.25718489885331 242.23473205566407 -88.18933906555176 244.25978369712828 -91.18160249590873 243.6831298828125 -96.11016159057617 243.05581941604615 -101.03259006738664 239.50817565917967 -106.13386421203612 235.96501216888427 -111.2881759226322 234.87421874999998 -114.3174461364746 233.73148596286774 -117.35427563488483 233.66470336914062 -120.3253578186035 233.5998744726181 -123.34014824926852 234.3931121826172 -126.89497413635254 234.41375300884246 -126.99415576755999 234.41092529296876 -127.21686553955078 234.45359642505645 -127.45795866549014 234.50040588378906 -127.68870887756347 234.54110062122345 -127.94830700457095 234.58878173828126 -128.20998992919922 234.7015816926956 -129.00210612118244 234.803369140625 -129.79745941162108 236.33226928710937 -141.94903030395508 235.011865234375 -154.03832702636717 233.63263549804688 -166.52203292846679 229.08070068359373 -177.7493118286133 224.47435913085937 -189.17324905395506 217.15845947265623 -198.75733947753906 209.84035034179686 -208.44030532836916 200.06372680664063 -216.23944931030272 190.74362182617188 -223.7517997741699 179.43256835937498 -228.59915771484376 168.2259094238281 -233.25094985961914 155.79358520507813 -234.56200942993163 147.7767578125 -235.22764587402344 139.70428161621092 -235.0264835357666 Z"/>
</g>
</g>

<g>
<g>
<g>
<path fill="url(#Gradient_8)" stroke="none" d="
M -331.3 -74.55
Q -361.85 -69.55 -382.75 -41.6 -403.75 -13.8 -404.55 20.2 -404.8 28.55 -404.35 36 -403.955078125 44.0943359375 -401.9 54.2 -399.8443359375 64.299609375 -394.75 77.35 -389.660546875 90.4123046875 -394.25 108.85 -398.8404296875 127.3337890625 -393.85 138.35 -388.805859375 149.3578125 -378.4 151.05 -367.9375 152.7921875 -361.65 143.05 -355.3775390625 133.3029296875 -356.9 113.9 -358.4146484375 94.5068359375 -339.95 102 -321.429296875 109.4712890625 -319.75 128.95 -318.027734375 148.483203125 -324.15 168.25 -330.2677734375 188.023828125 -329.9 200.75 -329.4802734375 213.5166015625 -323.4 222.25 -317.2591796875 230.9869140625 -306.95 229.95 -296.5947265625 228.9599609375 -290.45 214.15 -284.3125 199.390234375 -289.35 174.55 -294.3736328125 149.7123046875 -292.5 132.1 -289.2 109.7 -269.9 86.05 -243.6 53.65 -244.75 11.45 -245.95 -30.75 -271.3 -55.6 -295.45 -79.35 -331.3 -74.55
M -347.5 -35
Q -342 -41.85 -334.3 -43.1 -326.7 -44.4 -321.15 -38.5 -315.6 -32.6 -315.55 -23.35 -315.5 -14.05 -320.95 -6.7 -326.55 0.45 -334.8 1.35 -343.1 2.25 -348.5 -3.85 -353.8 -10 -353.45 -19.2 -353 -28.2 -347.5 -35 Z"/>
</g>
</g>

<g>
<path stroke="#FFFFFF" stroke-width="14" stroke-linejoin="round" stroke-linecap="round" fill="none" d="
M -315.55 -23.35
Q -315.5 -14.05 -320.95 -6.7 -326.55 0.45 -334.8 1.35 -343.1 2.25 -348.5 -3.85 -353.8 -10 -353.45 -19.2 -353 -28.2 -347.5 -35 -342 -41.85 -334.3 -43.1 -326.7 -44.4 -321.15 -38.5 -315.6 -32.6 -315.55 -23.35 Z
M -244.75 11.45
Q -243.6 53.65 -269.9 86.05 -289.2 109.7 -292.5 132.1 -294.3736328125 149.7123046875 -289.35 174.55 -284.3125 199.390234375 -290.45 214.175 -296.5947265625 228.9599609375 -306.925 229.975 -317.2591796875 230.9869140625 -323.375 222.25 -329.4802734375 213.5166015625 -329.875 200.775 -330.2677734375 188.023828125 -324.15 168.25 -318.027734375 148.483203125 -319.725 128.975 -321.429296875 109.4712890625 -339.925 102 -358.4146484375 94.5068359375 -356.9 113.9 -355.3775390625 133.3029296875 -361.65 143.05 -367.9375 152.7921875 -378.375 151.075 -388.805859375 149.3578125 -393.825 138.35 -398.8404296875 127.3337890625 -394.25 108.875 -389.660546875 90.4123046875 -394.75 77.35 -399.8443359375 64.299609375 -401.9 54.2 -403.955078125 44.0943359375 -404.35 36 -404.8 28.55 -404.55 20.2 -403.75 -13.8 -382.75 -41.6 -361.85 -69.55 -331.3 -74.55 -295.45 -79.35 -271.3 -55.6 -245.95 -30.75 -244.75 11.45 Z"/>
</g>
</g>

<g>
<g>
<g>
<path fill="url(#Gradient_5)" stroke="none" d="
M -29.9 -159.45
Q -28.1 -155.05 -26.45 -150.7 -23 -141.7 -19.75 -132.55 -16.45 -123.45 -13.6 -114.05 -10.85 -104.9 -8.3 -95.6 -5.75 -86.2 -3.65 -76.55 -1.5 -66.65 0.15 -56.65 1.8 -46.65 2.8 -36.7 3.8 -26.85 4.4 -17 5 -7.05 4.95 2.9 4.9 12.65 4.2 22.4 3.5 32.1 2.1 41.85 0.65 51.65 -1.4 61.2 -3.4 70.75 -6.15 80.15 -8.95 89.55 -12.55 98.5 -16.05 107.25 -19.6 116.15 -23.2 125.05 -24.25 135.1 -24.7 139.6 -23.4 143.85 -21.15 151.25 -13.9 153.2 -7.85 154.8 -2.75 151.45 1.15 148.95 4 145.25 10.15 137.3 12.75 127.65 15.35 117.95 16.3 107.35 19.15 84.15 29.05 80.85 38.9 77.55 45.8 95.65 52.75 113.65 66 119.7 79.2 125.7 93.4 117.1 100.5208984375 112.044140625 107.05 111.75 113.59453125 111.5294921875 116.65 120.45 119.754296875 129.4115234375 112.5 161 105.235546875 192.592578125 111.9 208.45 118.6310546875 224.3041015625 131.15 222.55 143.6615234375 220.7908203125 148.95 202.3 154.24453125 183.81640625 146.75 151.85 139.2544921875 119.8763671875 152.5 122.25 165.7841796875 124.638671875 171.25 116.45 197.7 59.65 177.8 3.7 127.05 -16.35 69.95 -0.75 85.7 -125.35 39.7 -235.05 -14.55 -223.2 -29.9 -159.45 Z"/>
</g>
</g>

<g>
<path stroke="#FFFFFF" stroke-width="14" stroke-linejoin="round" stroke-linecap="round" fill="none" d="
M 45.8 95.65
Q 38.9 77.55 29.05 80.85 19.15 84.15 16.3 107.35 15.35 117.95 12.75 127.65 10.15 137.3 4 145.25 1.15 148.95 -2.75 151.45 -7.85 154.8 -13.9 153.2 -21.15 151.25 -23.4 143.85 -24.7 139.6 -24.25 135.1 -23.2 125.05 -19.6 116.15 -16.05 107.25 -12.55 98.5 -8.95 89.55 -6.15 80.15 -3.4 70.75 -1.4 61.2 0.65 51.65 2.1 41.85 3.5 32.1 4.2 22.4 4.9 12.65 4.95 2.9 5 -7.05 4.4 -17 3.8 -26.85 2.8 -36.7 1.8 -46.65 0.15 -56.65 -1.5 -66.65 -3.65 -76.55 -5.75 -86.2 -8.3 -95.6 -10.85 -104.9 -13.6 -114.05 -16.45 -123.45 -19.75 -132.55 -23 -141.7 -26.45 -150.7 -28.1 -155.05 -29.9 -159.45 -14.55 -223.2 39.7 -235.05 85.7 -125.35 69.95 -0.75 127.05 -16.35 177.8 3.7 197.7 59.65 171.25 116.45 165.7841796875 124.638671875 152.525 122.25 139.2544921875 119.8763671875 146.75 151.85 154.24453125 183.81640625 148.95 202.3 143.6615234375 220.7908203125 131.15 222.55 118.6310546875 224.3041015625 111.925 208.45 105.235546875 192.592578125 112.5 161 119.754296875 129.4115234375 116.675 120.475 113.59453125 111.5294921875 107.05 111.775 100.5208984375 112.044140625 93.4 117.1 79.2 125.7 66 119.7 52.75 113.65 45.8 95.65 Z"/>
</g>
</g>

<g>
<g>
<g>
<path fill="url(#Gradient_4)" stroke="none" d="
M 591.95 -23.25
Q 586.25 -36.8 576.6 -48.3 553.75 -75.5 519.8 -75.4 485.8 -75.5 463.1 -49.1 439.999609375 -22.44609375 438.5 8.8 437.001171875 40.0869140625 443.8 64.25 450.648046875 88.41796875 450.25 106.4 449.8525390625 124.433203125 456.7 132 463.5880859375 139.623828125 470.7 136.25 477.8751953125 132.8703125 479.4 116.8 480.96171875 100.741015625 490.55 97.6 500.1921875 94.508984375 510.6 106.65 521.0078125 118.836328125 512.7 153.75 504.384375 188.6763671875 517.4 198.45 530.47890625 208.2158203125 540.9 195.7 551.313671875 183.18828125 545.6 153.55 539.8837890625 123.9615234375 555.55 109.75 571.20546875 95.5896484375 577.45 86.95 583.704296875 78.305859375 588.6 68.7 594.05 58 596.85 46.05 569.7 28.3 537.55 35.15 537.3 35.5 537.05 35.85 529.4 47.25 517.75 47.15 506.15 47.05 498.8 35.4 497.4 33.2 496.35 30.95 532.1 11.7 599 3.9 597.2 -10.6 591.95 -23.25
M 500.2 -17.2
Q 507.55 -27.5 518.6 -27.45 529.6 -27.5 537 -16.9 537.35 -16.45 537.65 -15.95 511.25 -8.85 492.55 3.25 494 -8.6 500.2 -17.2 Z"/>
</g>
</g>

<g>
<path stroke="#FFFFFF" stroke-width="14" stroke-linejoin="round" stroke-linecap="round" fill="none" d="
M 500.2 -17.2
Q 507.55 -27.5 518.6 -27.45 529.6 -27.5 537 -16.9 537.35 -16.45 537.65 -15.95 511.25 -8.85 492.55 3.25 494 -8.6 500.2 -17.2 Z
M 577.45 86.95
Q 571.20546875 95.5896484375 555.55 109.775 539.8837890625 123.9615234375 545.6 153.575 551.313671875 183.18828125 540.9 195.7 530.47890625 208.2158203125 517.425 198.45 504.384375 188.6763671875 512.7 153.75 521.0078125 118.836328125 510.6 106.675 500.1921875 94.508984375 490.575 97.625 480.96171875 100.741015625 479.425 116.8 477.8751953125 132.8703125 470.725 136.25 463.5880859375 139.623828125 456.725 132.025 449.8525390625 124.433203125 450.25 106.425 450.648046875 88.41796875 443.825 64.25 437.001171875 40.0869140625 438.5 8.825 439.999609375 -22.44609375 463.1 -49.1 485.8 -75.5 519.8 -75.4 553.75 -75.5 576.6 -48.3 586.25 -36.8 591.95 -23.25 597.2 -10.6 599 3.9 532.1 11.7 496.35 30.95 497.4 33.2 498.8 35.4 506.15 47.05 517.75 47.15 529.4 47.25 537.05 35.85 537.3 35.5 537.55 35.15 569.7 28.3 596.85 46.05 594.05 58 588.6 68.7 583.704296875 78.305859375 577.45 86.95 Z"/>
</g>
</g>

<g>
<g>
<g>
<path fill="url(#Gradient_7)" stroke="none" d="
M -151.2 123.45
Q -144.6 119.6 -139.05 107.7 -133.5515625 95.7966796875 -124.7 96.4 -115.7904296875 97.0060546875 -110.85 111.25 -105.9115234375 125.53828125 -112.15 151.45 -118.382421875 177.3724609375 -115.2 192 -112.0205078125 206.6708984375 -101.4 209.65 -90.787109375 212.67421875 -83.1 202.9 -75.3578125 193.176171875 -80.4 163.35 -85.3916015625 133.57734375 -69.55 115.65 -63.45 109.05 -57.6 101.9 -24.3 63.35 -21 3.8 -30 -47.4 -80.75 -75.35 -74.2 -26.8 -100.4 3.8 -111.35 -13.45 -125.4 -23.15 -139.45 -13.45 -150.4 3.8 -176.6 -26.8 -170.05 -75.35 -220.8 -47.4 -229.8 3.8 -226.8 41 -216.65 64.25 -206.555859375 87.544140625 -195.25 105.15 -183.934375 122.7626953125 -187.95 136.35 -191.968359375 149.9408203125 -188.25 157.65 -184.53515625 165.4056640625 -178 166.7 -171.453515625 167.99140625 -166.1 162.7 -160.7087890625 157.4654296875 -161.6 146.75 -162.4388671875 136.0857421875 -160.15 131.7 -157.80390625 127.3044921875 -151.2 123.45 Z"/>
</g>
</g>

<g>
<path stroke="#FFFFFF" stroke-width="14" stroke-linejoin="round" stroke-linecap="round" fill="none" d="
M -57.6 101.9
Q -24.3 63.35 -21 3.8 -30 -47.4 -80.75 -75.35 -74.2 -26.8 -100.4 3.8 -111.35 -13.45 -125.4 -23.15 -139.45 -13.45 -150.4 3.8 -176.6 -26.8 -170.05 -75.35 -220.8 -47.4 -229.8 3.8 -226.8 41 -216.65 64.25 -206.555859375 87.544140625 -195.25 105.15 -183.934375 122.7626953125 -187.95 136.35 -191.968359375 149.9408203125 -188.25 157.675 -184.53515625 165.4056640625 -178 166.7 -171.453515625 167.99140625 -166.075 162.725 -160.7087890625 157.4654296875 -161.575 146.775 -162.4388671875 136.0857421875 -160.125 131.7 -157.80390625 127.3044921875 -151.2 123.45 -144.6 119.6 -139.05 107.7 -133.5515625 95.7966796875 -124.675 96.4 -115.7904296875 97.0060546875 -110.85 111.275 -105.9115234375 125.53828125 -112.15 151.45 -118.382421875 177.3724609375 -115.2 192.025 -112.0205078125 206.6708984375 -101.4 209.675 -90.787109375 212.67421875 -83.075 202.925 -75.3578125 193.176171875 -80.375 163.375 -85.3916015625 133.57734375 -69.55 115.65 -63.45 109.05 -57.6 101.9 Z"/>
</g>
</g>

<g transform="matrix( 1.0499267578125, 0.00982666015625, -0.0078582763671875, 0.85198974609375, -14.9,-16.75) ">
<g>
<g>
<path fill="url(#Gradient_15)" stroke="none" d="
M 388.05 -31.3
Q 366.878125 -44.039453125 340.6 -45.35 354.3693359375 -22.8126953125 371.2 -9.2 388.026953125 4.411328125 399.35 8.7 410.7234375 13.05390625 416.1 9.7 421.5232421875 6.387890625 423.95 -11.85 426.43046875 -30.0447265625 426.5 -50.25 426.54609375 -66.6859375 424.1 -79 421.706640625 -91.253515625 416.5 -95.8 411.3390625 -100.30078125 403.05 -98.1 378.00390625 -90.8650390625 340.6 -45.35 368.2408203125 -46.4099609375 390.85 -59.2 368.2408203125 -46.4099609375 340.6 -45.35 366.878125 -44.039453125 388.05 -31.3 Z"/>
</g>
</g>

<g transform="matrix( 0.952362060546875, -0.0109710693359375, 0.0087738037109375, 1.173614501953125, 14.3,19.45) ">
<path stroke="#FFFFFF" stroke-width="14" stroke-linejoin="round" stroke-linecap="round" fill="none" d="
M 392.77004241943365 -39.604043579101564
Q 370.6412344872952 -50.66597583293915 343.0876747131348 -52.04052886962891 357.34111641347414 -32.703915452957155 374.9051086425781 -20.9406494140625 392.4652154028416 -9.17858467102051 404.3459354400635 -5.391867065429688 416.2269458889961 -1.5921660900115953 421.9243503570557 -4.37528076171875 427.61833320260047 -7.165417039394379 430.3356212615967 -22.658520507812497 433.0568592518568 -38.157411658763884 433.28844413757326 -55.35011444091797 433.4661937952042 -69.37421145439147 431.0207935333252 -79.86815795898437 428.5781812846661 -90.35309176445008 423.17336921691896 -94.25626831054689 417.7640795111657 -98.16314797401428 409.0438766479493 -96.3695587158203 382.69045831859114 -90.45156563520432 343.0876747131348 -52.04052886962891 372.0905928641558 -52.67223343849182 395.92908325195316 -63.34704284667969"/>
</g>
</g>

<g transform="matrix( -1.04913330078125, -0.0360260009765625, -0.0401458740234375, 0.85125732421875, 711.85,-0.8) ">
<g>
<g>
<path fill="url(#Gradient_15)" stroke="none" d="
M 388.05 -31.3
Q 366.878125 -44.039453125 340.6 -45.35 354.3693359375 -22.8126953125 371.2 -9.2 388.026953125 4.411328125 399.35 8.7 410.7234375 13.05390625 416.1 9.7 421.5232421875 6.387890625 423.95 -11.85 426.43046875 -30.0447265625 426.5 -50.25 426.54609375 -66.6859375 424.1 -79 421.706640625 -91.253515625 416.5 -95.8 411.3390625 -100.30078125 403.05 -98.1 378.00390625 -90.8650390625 340.6 -45.35 368.2408203125 -46.4099609375 390.85 -59.2 368.2408203125 -46.4099609375 340.6 -45.35 366.878125 -44.039453125 388.05 -31.3 Z"/>
</g>
</g>

<g transform="matrix( -0.9516143798828125, -0.0402679443359375, -0.0448760986328125, 1.172821044921875, 677.35,29.6) ">
<path stroke="#FFFFFF" stroke-width="14" stroke-linejoin="round" stroke-linecap="round" fill="none" d="
M 305.99038848876955 -41.42424392700195
Q 328.71394407153133 -51.50605871677399 356.30958480834965 -51.675876235961915 340.9851644843817 -32.98598401248455 322.78106079101565 -22.004418945312498 304.5809052526951 -11.023884016275405 292.5021152496338 -7.760663986206055 280.4223038315773 -4.484489655494689 274.8889865875244 -7.5128421783447275 269.35948211550715 -10.548058053851129 267.51843376159667 -26.14024162292481 265.6737665742636 -41.73837802410125 266.41097373962407 -58.919488525390626 267.02345397472385 -72.93364270925521 270.05685920715337 -83.30757484436035 273.08697230219843 -93.67262738347053 278.7047229766846 -97.33490028381347 284.327154147625 -101.00067613124847 292.93513336181644 -98.82862319946288 318.9213705390692 -91.76749911308289 356.30958480834965 -51.675876235961915 327.37946114838127 -53.57306331694126 304.1728851318359 -65.27519607543945"/>
</g>
</g>

<g transform="matrix( 1.0499267578125, 0.00982666015625, -0.0078582763671875, 0.85198974609375, -14.9,-16.75) ">
<g>
<g>
<path fill="url(#Gradient_16)" stroke="none" d="
M 340.6 -45.35
Q 354.3693359375 -22.8126953125 371.2 -9.2 388.026953125 4.411328125 399.35 8.7 410.7234375 13.05390625 416.1 9.7 421.5232421875 6.387890625 423.95 -11.85 426.43046875 -30.0447265625 426.5 -50.25 426.54609375 -66.6859375 424.1 -79 421.706640625 -91.253515625 416.5 -95.8 411.3390625 -100.30078125 403.05 -98.1 378.00390625 -90.8650390625 340.6 -45.35 Z"/>
</g>
</g>
</g>

<g transform="matrix( -1.04913330078125, -0.0360260009765625, -0.0401458740234375, 0.85125732421875, 711.85,-0.8) ">
<g>
<g>
<path fill="url(#Gradient_16)" stroke="none" d="
M 340.6 -45.35
Q 354.3693359375 -22.8126953125 371.2 -9.2 388.026953125 4.411328125 399.35 8.7 410.7234375 13.05390625 416.1 9.7 421.5232421875 6.387890625 423.95 -11.85 426.43046875 -30.0447265625 426.5 -50.25 426.54609375 -66.6859375 424.1 -79 421.706640625 -91.253515625 416.5 -95.8 411.3390625 -100.30078125 403.05 -98.1 378.00390625 -90.8650390625 340.6 -45.35 Z"/>
</g>
</g>
</g>

<g transform="matrix( 1.04461669921875, 0.0238189697265625, -0.0251312255859375, 0.84759521484375, -16.15,-20.85) ">
<g>
<g>
<path fill="url(#Gradient_17)" stroke="none" d="
M 348.75 -79.2
Q 337.8619140625 -79.3044921875 331.1 -69.6 324.4130859375 -60.0177734375 324.85 -46.7 325.2853515625 -33.6732421875 332.4 -24.6 339.4734375 -15.59375 348.85 -15.5 358.1763671875 -15.4501953125 365.25 -24.6 372.375390625 -33.8697265625 372.3 -46.8 372.2640625 -59.9685546875 366 -69.5 359.649609375 -79.1494140625 348.75 -79.2 Z"/>
</g>
</g>

<g transform="matrix( 0.956634521484375, -0.0268707275390625, 0.028350830078125, 1.1790008544921875, 16,24.1) ">
<path stroke="#FFFFFF" stroke-width="14" stroke-linejoin="round" stroke-linecap="round" fill="none" d="
M 373.963053894043 -51.649058151245114
Q 373.6907391637564 -40.688220006227496 366.0144775390625 -33.0009635925293 358.3952967733145 -25.414119568467143 348.654069519043 -25.678478240966797 338.86151180267336 -25.98128035068512 331.72493438720704 -33.78282127380371 324.4947600990534 -41.64331700503826 324.3673629760742 -52.6951042175293 324.2456472188235 -63.99359209835529 331.4717224121094 -71.95616607666015 338.77921654284 -80.02058539092542 350.1504669189453 -79.67267532348635 361.5351096004248 -79.37018145918847 367.9263320922852 -71.04012451171874 374.23033948242664 -62.812113559246065 373.963053894043 -51.649058151245114 Z"/>
</g>
</g>

<g transform="matrix( 0.99993896484375, 0.0093841552734375, -0.0074920654296875, 0.8114471435546875, -0.25,-18.05) ">
<g>
<path fill="#FFFFFF" stroke="none" d="
M 302.65 -61.55
L 302.65 -61.45 305.2 -58.9 309.85 -55.25 315.5 -51.9 315.75 -51.8 316 -51.65 325.45 -47.9 334.95 -45.9 333.9 -45.8 333.65 -45.75 333.4 -45.75 325.25 -44 322.8 -43.2 322.55 -43.15 317.7 -41.2 312.75 -38.6 308 -35.3 306.55 -34.1 305.05 -32.65 304.7 -32.25
Q 304.65 -32.15 304.7 -32.1
L 304.75 -32.1 306.35 -32.4 306.8 -32.55 307.9 -32.8 308.15 -32.9 308.45 -32.95 315.85 -35 316.05 -35.1 316.3 -35.15 319.6 -36.1 319.85 -36.15 320.1 -36.25 321.55 -36.7 322.1 -36.8 326.9 -38.25 327.15 -38.3 342.55 -42.75 342.65 -42.7 344.15 -42.75 345.35 -42.95 345.5 -43 345.6 -43.05 345.85 -43.1 346.35 -43.25 347.45 -43.75 347.55 -43.75 347.6 -43.8 348.75 -44.55 349 -44.3 349.1 -44.25 349.75 -43.75 350.45 -43.35 350.8 -43.2 350.85 -43.15 350.9 -43.15 352.35 -42.65 352.8 -42.55 353.05 -42.55 353.5 -42.45 354.75 -42.45 354.75 -42.5 355 -42.45
Q 355.4392578125 -42.3927734375 355.85 -42.5
L 357.55 -41.85
Q 357.8 -41.7 358.35 -41.55
L 370.25 -37.5 370.5 -37.45 375.05 -35.9 375.55 -35.8 376 -35.6 377.15 -35.25 377.4 -35.15 380.5 -34.15 380.75 -34.05 380.95 -34 381.35 -33.85 391.4 -30.95
Q 391.55 -30.95 391.55 -31
L 391.55 -31.1 389.8 -32.95 388.5 -34.15 384.1 -37.5 379.5 -40.15 379.25 -40.25 379.05 -40.4 372.4 -43.15 372.15 -43.2 368.05 -44.4 361.5 -45.6 366.85 -46.35 373.15 -47.95 380.5 -50.75 380.75 -50.9 381.25 -51.1 387.55 -54.65 391.5 -57.55
Q 391.7 -57.65 391.75 -57.75 391.95 -57.85 392 -57.95
L 394.45 -60.25 394.5 -60.4 394.4 -60.4 390.85 -59.5 390.5 -59.45 385.95 -58.1 385.55 -57.95 382.75 -57.15 382.55 -57.05 382.3 -57 378.55 -55.85 378.3 -55.8 353.9 -48.45 352.85 -48.45 351.4 -48.25 351.35 -48.2 351.3 -48.2 351.2 -48.15 350.25 -47.9 350 -47.75 349.35 -47.5 349.3 -47.45 349.25 -47.45 348.05 -46.7 347.9 -46.85 347.85 -46.85 347.85 -46.9 347.8 -46.9 346.75 -47.6 346.05 -47.95 345.9 -48 345.8 -48.05 344.45 -48.5 344.35 -48.5 343.85 -48.6 343.75 -48.65 343.35 -48.65 343.1 -48.7 342.35 -48.7 342.1 -48.75 341.9 -48.7 341.6 -48.7
Q 341.420703125 -48.7150390625 341.25 -48.7
L 341.15 -48.75 332.55 -51.8 332.3 -51.85 325.2 -54.3 324.95 -54.35 318.15 -56.75 317.9 -56.8 306.2 -60.7 305.9 -60.75 302.8 -61.6 302.75 -61.6
Q 302.65 -61.7 302.65 -61.55 Z"/>
</g>

<use xlink:href="#YowLife_Title_2024_0_Layer10_13_STROKES_1_FILL"/>
</g>

<g transform="matrix( 1.04461669921875, 0.0238189697265625, -0.0251312255859375, 0.84759521484375, -16.15,-20.85) ">
<g>
<g>
<path fill="url(#Gradient_18)" stroke="none" d="
M 348.75 -79.2
Q 337.8619140625 -79.3044921875 331.1 -69.6 324.4130859375 -60.0177734375 324.85 -46.7 325.2853515625 -33.6732421875 332.4 -24.6 339.4734375 -15.59375 348.85 -15.5 358.1763671875 -15.4501953125 365.25 -24.6 372.375390625 -33.8697265625 372.3 -46.8 372.2640625 -59.9685546875 366 -69.5 359.649609375 -79.1494140625 348.75 -79.2 Z"/>
</g>
</g>
</g>
</g>

<g id="Layer_14" transform="matrix( 0.18115234375, 0, 0, 0.18115234375, 116.45,50.8) "/>

<g id="BowTie" transform="matrix( 0.18115234375, 0, 0, 0.18115234375, 116.45,50.8) "/>

<g id="Layer_6" transform="matrix( 0.18115234375, 0, 0, 0.18115234375, 116.45,50.8) "/>

<g id="Layer_8" transform="matrix( 0.18115234375, 0, 0, 0.18115234375, 116.45,50.8) "/>
</g>
</g>
</svg>
