
<svg xmlns="http://www.w3.org/2000/svg" version="1.1" xmlns:xlink="http://www.w3.org/1999/xlink" preserveAspectRatio="none" x="0px" y="0px" width="280px" height="119px" viewBox="0 0 280 119">
<defs>
<linearGradient id="Gradient_1" gradientUnits="userSpaceOnUse" x1="175.525" y1="-7" x2="250.475" y2="-7" spreadMethod="pad">
<stop  offset="0%" stop-color="#FAF79B"/>

<stop  offset="100%" stop-color="#FAD396"/>
</linearGradient>

<linearGradient id="Gradient_2" gradientUnits="userSpaceOnUse" x1="-476.3" y1="137.125" x2="-476.3" y2="-249.52500000000003" spreadMethod="pad">
<stop  offset="0%" stop-color="#FAD396"/>

<stop  offset="88.23529411764706%" stop-color="#FAF79B"/>
</linearGradient>

<linearGradient id="Gradient_3" gradientUnits="userSpaceOnUse" x1="-321.725" y1="116.07500000000002" x2="-326.975" y2="-82.875" spreadMethod="pad">
<stop  offset="0%" stop-color="#457DD7"/>

<stop  offset="88.23529411764706%" stop-color="#88F2F0"/>
</linearGradient>

<linearGradient id="Gradient_4" gradientUnits="userSpaceOnUse" x1="-318.425" y1="115.98750000000001" x2="-323.675" y2="-82.7875" spreadMethod="pad">
<stop  offset="0%" stop-color="#457DD7"/>

<stop  offset="88.23529411764706%" stop-color="#88F2F0"/>
</linearGradient>

<linearGradient id="Gradient_5" gradientUnits="userSpaceOnUse" x1="-321.725" y1="115.95" x2="-326.975" y2="-82.95" spreadMethod="pad">
<stop  offset="0%" stop-color="#457DD7"/>

<stop  offset="88.23529411764706%" stop-color="#88F2F0"/>
</linearGradient>

<linearGradient id="Gradient_6" gradientUnits="userSpaceOnUse" x1="-476.3" y1="137.075" x2="-476.3" y2="-249.47500000000002" spreadMethod="pad">
<stop  offset="0%" stop-color="#FAD396"/>

<stop  offset="88.23529411764706%" stop-color="#FAF79B"/>
</linearGradient>

<linearGradient id="Gradient_7" gradientUnits="userSpaceOnUse" x1="-319.3125" y1="116.025" x2="-324.48749999999995" y2="-82.82500000000002" spreadMethod="pad">
<stop  offset="0%" stop-color="#457DD7"/>

<stop  offset="88.23529411764706%" stop-color="#88F2F0"/>
</linearGradient>

<linearGradient id="Gradient_8" gradientUnits="userSpaceOnUse" x1="-321.95000000000005" y1="116.375" x2="-327.25" y2="-83.67500000000001" spreadMethod="pad">
<stop  offset="0%" stop-color="#457DD7"/>

<stop  offset="88.23529411764706%" stop-color="#88F2F0"/>
</linearGradient>

<linearGradient id="Gradient_9" gradientUnits="userSpaceOnUse" x1="-478.05" y1="137.60000000000002" x2="-478.05" y2="-251.2" spreadMethod="pad">
<stop  offset="0%" stop-color="#FAD396"/>

<stop  offset="88.23529411764706%" stop-color="#FAF79B"/>
</linearGradient>

<linearGradient id="Gradient_10" gradientUnits="userSpaceOnUse" x1="-476.3" y1="137.125" x2="-476.3" y2="-249.52500000000003" spreadMethod="pad">
<stop  offset="0%" stop-color="#457DD7"/>

<stop  offset="88.23529411764706%" stop-color="#88F2F0"/>
</linearGradient>

<linearGradient id="Gradient_11" gradientUnits="userSpaceOnUse" x1="-476.3" y1="137.075" x2="-476.3" y2="-249.47500000000002" spreadMethod="pad">
<stop  offset="0%" stop-color="#457DD7"/>

<stop  offset="88.23529411764706%" stop-color="#88F2F0"/>
</linearGradient>

<linearGradient id="Gradient_12" gradientUnits="userSpaceOnUse" x1="-478.05" y1="137.60000000000002" x2="-478.05" y2="-251.2" spreadMethod="pad">
<stop  offset="0%" stop-color="#457DD7"/>

<stop  offset="88.23529411764706%" stop-color="#88F2F0"/>
</linearGradient>

<linearGradient id="Gradient_13" gradientUnits="userSpaceOnUse" x1="173.1375" y1="-5.8375" x2="248.0625" y2="-7.6625" spreadMethod="pad">
<stop  offset="51.372549019607845%" stop-color="#FAF8D0"/>

<stop  offset="100%" stop-color="#FAD89D"/>
</linearGradient>

<image id="An_1000_F_186223454_W1Hc6V5e2op5zwU77zPpyx3QJ6ibc3gy_out_jpg" x="0" y="0" width="4000" height="3112" xlink:href="./images/An_1000_F_186223454_W1Hc6V5e2op5zwU77zPpyx3QJ6ibc3gy_out_jpg.jpg"/>

<image id="An_1000_F_186223454_W1Hc6V5e2op5zwU77zPpyx3QJ6ibc3gy_out2_jpg" x="0" y="0" width="4000" height="3112" xlink:href="./images/An_1000_F_186223454_W1Hc6V5e2op5zwU77zPpyx3QJ6ibc3gy_out2_jpg.jpg"/>

<filter id="Filter_1" x="-20%" y="-20%" width="140%" height="140%" color-interpolation-filters="sRGB">
<feColorMatrix in="SourceGraphic" type="matrix" values="1.9844833335145697 1.2981774992525905 -2.282660832767161 0 0.12941176470588237 -0.7130585103504804 1.1233334650382432 0.5897250453122371 0 0.12941176470588234 1.4928199922208156 -2.093657187496822 1.6008371952760059 0 0.1294117647058824 0 0 0 1 0 " result="result1"/>

<feColorMatrix in="result1" type="matrix" values="1 0 0 0 0 0 1 0 0 0 0 0 1 0 0 0 0 0 0.5 0" result="result2"/>
</filter>

<filter id="Filter_2" x="-20%" y="-20%" width="140%" height="140%" color-interpolation-filters="sRGB">
<feColorMatrix in="SourceGraphic" type="matrix" values="1 0 0 0 0 0 1 0 0 0 0 0 1 0 0 0 0 0 0.5 0" result="result1"/>
</filter>

<filter id="Filter_3" x="-20%" y="-20%" width="140%" height="140%" color-interpolation-filters="sRGB">
<feColorMatrix in="SourceGraphic" type="matrix" values="1.0179532943308414 0.07865469604805686 -0.0966079903788981 0 0.207843137254902 -0.01378073396071666 0.9838047553224865 0.029975978638230243 0 0.207843137254902 0.08343073687820106 -0.07082100642468758 0.9873902695464866 0 0.20784313725490197 0 0 0 1 0 " result="result1"/>

<feColorMatrix in="result1" type="matrix" values="1 0 0 0 0 0 1 0 0 0 0 0 1 0 0 0 0 0 0.5 0" result="result2"/>
</filter>
</defs>

<g id="Layer_1">
<g id="Layer_5" transform="matrix( 0.2037811279296875, 0, 0, 0.2037811279296875, 139.4,64.95) "/>

<g id="YowLife_Title_MAIN" transform="matrix( 0.2037811279296875, 0, 0, 0.2037811279296875, 139.4,64.95) "/>

<g id="Layer_9" transform="matrix( 0.2037811279296875, 0, 0, 0.2037811279296875, 139.4,64.95) ">
<g transform="matrix( 0.99969482421875, -0.0246734619140625, 0.0246734619140625, 0.99969482421875, -2.15,5.5) ">
<g>
<g>
<path fill="url(#Gradient_1)" stroke="none" d="
M 201.8 -129.95
Q 185.683203125 -125.9451171875 179.45 -111.55 173.1248046875 -97.1349609375 182.2 -80.4 191.3251953125 -63.5798828125 199 -43.55 206.7087890625 -23.3498046875 210.35 1.75 213.9939453125 27.0376953125 214.65 47.8 215.3150390625 68.741796875 215.15 88.2 214.9541015625 107.7595703125 220.25 114.75 225.639453125 121.81875 232.55 113.35 235.9826171875 109.1408203125 239.05 102.05 245.5712890625 85.7001953125 249.1 68.15 252.7599609375 50.3859375 254.65 32.7 256.53671875 15.3078125 256.55 -2.2 256.556640625 -19.4615234375 255.3 -36.75 254.0609375 -54.3501953125 250.1 -71.75 249.5130859375 -74.163671875 248.9 -76.5 242.609375 -101.8052734375 230.3 -117.9 217.9818359375 -133.918359375 201.8 -129.95 Z"/>
</g>
</g>

<g transform="matrix( 0.99969482421875, 0.0246734619140625, -0.0246734619140625, 0.99969482421875, 2.25,-5.4) ">
<path stroke="url(#Gradient_2)" stroke-width="46" stroke-linejoin="round" stroke-linecap="round" fill="none" d="
M 174.49352836608884 -110.41861801147462
Q 168.52531543076037 -95.87690597474575 178.03625984191893 -79.34659309387207 187.5480716794729 -62.78113469183445 195.71535758972166 -42.92173614501953 203.91958602964877 -22.94290032684803 208.17960166931152 2.084395599365234 212.44575308859348 27.249472603201866 213.61450233459473 48.01424636840821 214.79542823433877 68.90825112760068 215.11115760803222 88.38958053588867 215.39730443060398 107.92302286326886 220.8896739959717 114.80502662658692 226.42628371715543 121.71426741480826 233.15076065063474 113.07697792053222 236.4534828811884 108.7850050598383 239.3699668884277 101.62004890441894 245.46086715757846 85.1149478405714 248.5810863494873 67.50741844177246 251.77602022886276 49.63409766256809 253.22910919189454 31.90692367553711 254.6861266851425 14.473491966724396 254.2680423736572 -3.004312896728516 253.84816259443758 -20.285724753141402 252.19033126831053 -37.53853645324707 250.49239678084848 -55.10217181444168 246.10397148132324 -72.37394409179687 245.45706605315206 -74.7973905414343 244.81151428222657 -77.11849555969238 237.8734479576349 -102.26021810770035 225.17071685791015 -118.04631805419922 212.46108362078667 -133.75585726201533 196.40770835876464 -129.36507148742677 180.3690350562334 -124.9881292283535 174.49352836608884 -110.41861801147462 Z"/>
</g>
</g>

<g transform="matrix( 1.04150390625, 0, 0, 1, 13.05,0) ">
<g>
<g>
<path fill="url(#Gradient_3)" stroke="none" d="
M -596.8 -159.45
Q -576.15 -104.75 -504.4 -75.45 -491.65 13 -523.25 116.55 -523.702734375 118.4951171875 -525.3 124.3 -526.844140625 130.1609375 -523.6 133.45 -520.30390625 136.7837890625 -515.4 135.2 -510.4529296875 133.6669921875 -508.5 125.45 -506.5453125 117.23046875 -501.2 114.7 -495.7978515625 112.21953125 -490.9 114.95 -485.9552734375 117.7345703125 -483.15 126.6 -480.2984375 135.5046875 -483.75 147.45 -487.2 159.3 -490.45 171.1 -493.7 182.65 -493.1 194.35 -492.396484375 207.1451171875 -484.3 215.4 -476.210546875 223.664453125 -468.35 214.8 -460.439453125 205.9353515625 -460.2 193 -459.903515625 180.1046875 -462.8 168.2 -465.6501953125 156.3521484375 -466.45 144.25 -467.2 132.14296875 -460.75 118.85 -454.3001953125 105.6091796875 -445.9 106.35 -439.9966796875 106.8810546875 -436.8 115.95 -433.6162109375 125.0046875 -429.35 124.6 -425.0763671875 124.20546875 -424.7 116.55 -419.75 17 -439.75 -75.45 -380.25 -100.85 -354.75 -159.45 -371.65 -221.65 -426.6 -235.05 -433.5 -182.5 -474.95 -159.45 -518 -174.45 -533.3 -235.05 -584.05 -220.1 -596.8 -159.45 Z"/>
</g>
</g>

<g transform="matrix( 0.96014404296875, 0, 0, 1, -12.5,0) ">
<path stroke="url(#Gradient_2)" stroke-width="46" stroke-linejoin="round" stroke-linecap="round" fill="none" d="
M -531.9169189453125 116.55
Q -499.00539550781247 13 -512.2845703125 -75.45 -587.0124755859375 -104.75 -608.51953125 -159.45 -595.2403564453125 -220.1 -542.384033203125 -235.05 -526.4490234375 -174.45 -481.6122802734375 -159.45 -438.441943359375 -182.5 -431.25556640625 -235.05 -374.02492675781247 -221.65 -356.4235107421875 -159.45 -382.9818603515625 -100.85 -444.9513427734375 -75.45 -424.1212646484375 17 -429.276708984375 116.55 -429.6686968803406 124.20546875 -434.1197021484375 124.6 -438.5629775047302 125.0046875 -441.87890625 115.95 -445.20826063156125 106.8810546875 -451.35659179687497 106.35 -460.1054280281067 105.6091796875 -466.8229248046875 118.875 -473.540625 132.14296875 -472.73345947265625 144.25 -471.92649736404417 156.3521484375 -468.9580078125 168.2 -465.9413080215454 180.1046875 -466.22406005859375 193.025 -466.49948902130126 205.9353515625 -474.7123168945312 214.8 -482.9251447677612 223.664453125 -491.350341796875 215.4 -499.7828619003296 207.1451171875 -500.515576171875 194.35 -501.1404785156249 182.65 -497.7555908203125 171.1 -494.370703125 159.3 -490.7775146484375 147.45 -487.18269882202145 135.5046875 -490.12657470703124 126.625 -493.0743155479431 117.7345703125 -498.19822998046874 114.975 -503.3253991127014 112.21953125 -508.9257202148438 114.725 -514.518921661377 117.23046875 -516.554736328125 125.45 -518.5887202262878 133.6669921875 -523.7150756835938 135.225 -528.8485507965088 136.7837890625 -532.2554077148438 133.475 -535.6602304458619 130.1609375 -534.0259643554688 124.325 -532.3884435653687 118.4951171875 -531.9169189453125 116.55 Z"/>
</g>
</g>

<g transform="matrix( 0.999755859375, -0.0218505859375, 0.0220947265625, 0.9887542724609375, 2.35,2.4) ">
<g>
<g>
<path fill="url(#Gradient_3)" stroke="none" d="
M 219.25 -198.6
Q 212.15 -208.55 202.55 -216.65 193.4 -224.45 182.2 -229.6 171.1 -234.55 158.7 -236.15 150.7 -237 142.6 -237 151.4931640625 -232.700390625 158.55 -225.35 165.47109375 -218.2419921875 169.05 -209.25 172.83046875 -199.8443359375 172.35 -189.85 171.87265625 -179.830078125 166.25 -171.65 160.4130859375 -162.91015625 149.7 -162.15 139.1416015625 -161.8890625 131.5 -169.15 126.1740234375 -174.2197265625 123.85 -181.1 123.35 -168.75 124.6 -156.4 125.85 -143.9 130.4 -132.65 135 -121.2 142.4 -111.7 144.833203125 -108.607421875 147.5 -105.9 149.7095703125 -103.1455078125 152.3 -100.75 159.726171875 -93.78515625 169.55 -87.35 179.4248046875 -80.866796875 178.6 -70.25 177.7685546875 -59.62578125 181.15 -52.4 184.588671875 -45.1775390625 192.4 -44.55 200.253125 -43.874609375 203.5 -52.6 206.6498046875 -61.3931640625 199.8 -73.85 192.9384765625 -86.25 197.05 -95.25 201.162890625 -104.31015625 209.65 -106.35 211.7533203125 -106.862109375 213.55 -106.45 216.9826171875 -105.6123046875 218.6 -103.3 220.2111328125 -100.946875 220.8 -97.35 221.33359375 -93.702734375 222.2 -91.4 223.012890625 -89.0578125 224.9 -86.8 226.745703125 -84.6 230.05 -83.35 233.3509765625 -82.0958984375 236.5 -82.75 239.6990234375 -83.35703125 241.85 -86.3 243.94140625 -89.255078125 243.45 -94.25 242.9578125 -99.23984375 239.5 -104.5 236.0978515625 -109.763671875 235.05 -112.85 234.000390625 -115.9451171875 234 -118.95 234.0025390625 -121.9990234375 234.85 -125.6 234.8978515625 -125.6748046875 234.9 -125.9 234.948046875 -126.1427734375 235 -126.4 235.046484375 -126.6365234375 235.1 -126.9 235.23046875 -127.6982421875 235.35 -128.5 237.15 -140.75 236.1 -153 235 -165.65 230.7 -177.1 226.35 -188.75 219.25 -198.6 Z"/>
</g>
</g>

<g transform="matrix( 0.999755859375, 0.0220794677734375, -0.0223388671875, 1.0108795166015625, -2.25,-2.45) ">
<path stroke="url(#Gradient_2)" stroke-width="46" stroke-linejoin="round" stroke-linecap="round" fill="none" d="
M 147.49970397949218 -105.50786628723144
Q 149.74404833316802 -102.85680336654185 152.38732604980467 -100.52011833190916 159.9650188446045 -93.82058438062667 169.9541778564453 -87.64827995300293 179.94427003860474 -81.47792802453041 179.35424194335937 -70.96250228881836 178.75773882865906 -60.43959304094315 182.32300415039063 -53.36950378417969 185.89542090892792 -46.30285540521145 193.74425354003907 -45.828882980346684 201.58483757972718 -45.35685558915139 204.66312866210936 -54.055615234375 207.59288790225983 -62.81817258298397 200.47007751464844 -74.9605312347412 193.33570227622985 -87.09587476253509 197.27236328125 -96.08504867553711 201.1590742111206 -105.13263968229295 209.59904174804686 -107.33499221801756 211.6905336380005 -107.8873013317585 213.49588012695312 -107.51908493041991 216.94616792201995 -106.76581480801104 218.6397918701172 -104.49068183898926 220.27697672843934 -102.22339622974395 220.97016601562498 -98.6803840637207 221.5592209339142 -95.08524766564369 222.47684631347656 -92.80262184143066 223.34073610305785 -90.52925493717193 225.2772705078125 -88.33806762695312 227.17113142013548 -86.20313792228697 230.5277862548828 -85.01522331237793 233.83011968135833 -83.87152589857578 236.98946838378905 -84.56290702819823 240.14875235557557 -85.25718489885331 242.23473205566407 -88.18933906555176 244.25978369712828 -91.18160249590873 243.6831298828125 -96.11016159057617 243.05581941604615 -101.03259006738664 239.50817565917967 -106.13386421203612 235.96501216888427 -111.2881759226322 234.87421874999998 -114.3174461364746 233.73148596286774 -117.35427563488483 233.66470336914062 -120.3253578186035 233.5998744726181 -123.34014824926852 234.3931121826172 -126.89497413635254 234.41375300884246 -126.99415576755999 234.41092529296876 -127.21686553955078 234.45359642505645 -127.45795866549014 234.50040588378906 -127.68870887756347 234.54110062122345 -127.94830700457095 234.58878173828126 -128.20998992919922 234.7015816926956 -129.00210612118244 234.803369140625 -129.79745941162108 236.33226928710937 -141.94903030395508 235.011865234375 -154.03832702636717 233.63263549804688 -166.52203292846679 229.08070068359373 -177.7493118286133 224.47435913085937 -189.17324905395506 217.15845947265623 -198.75733947753906 209.84035034179686 -208.44030532836916 200.06372680664063 -216.23944931030272 190.74362182617188 -223.7517997741699 179.43256835937498 -228.59915771484376 168.2259094238281 -233.25094985961914 155.79358520507813 -234.56200942993163 147.7767578125 -235.22764587402344 139.70428161621092 -235.0264835357666 148.66472692489623 -230.9937198340893 155.9077911376953 -223.8560131072998 162.95869839191437 -217.00334255993363 166.76095275878905 -208.16650047302247 170.72276785373688 -198.97338799536226 170.48823242187498 -189.08149337768555 170.20739874839782 -179.16327630877495 164.79239807128906 -170.92815818786622 159.12446722984313 -162.1832329392433 148.4557861328125 -161.19808425903318 137.88073687553404 -160.70882773399353 130.10556640625 -167.72168350219727 124.64388201236724 -172.61747532784938 122.16896057128906 -179.3448749542236 121.94140014648437 -167.1475532531738 123.46396484374999 -154.9637512207031 124.98984374999999 -142.63163604736326 129.78729858398438 -131.60757064819336 134.63916015625 -120.38684692382812 142.24725341796875 -111.15537567138671 144.7481921672821 -108.15074275135993 147.49970397949218 -105.50786628723144 Z"/>
</g>
</g>

<g transform="matrix( 1, 0, 0, 1, 20.15,0) ">
<g>
<g>
<path fill="url(#Gradient_4)" stroke="none" d="
M 591.95 -23.25
Q 586.25 -36.8 576.6 -48.3 553.75 -75.5 519.8 -75.4 485.8 -75.5 463.1 -49.1 439.999609375 -22.44609375 438.5 8.8 437.001171875 40.0869140625 443.8 64.25 450.648046875 88.41796875 450.25 106.4 449.8525390625 124.433203125 456.7 132 463.5880859375 139.623828125 470.7 136.25 477.8751953125 132.8703125 479.4 116.8 480.96171875 100.741015625 490.55 97.6 500.1921875 94.508984375 510.6 106.65 521.0078125 118.836328125 512.7 153.75 504.384375 188.6763671875 517.4 198.45 530.47890625 208.2158203125 540.9 195.7 551.313671875 183.18828125 545.6 153.55 539.8837890625 123.9615234375 555.55 109.75 571.20546875 95.5896484375 577.45 86.95 583.704296875 78.305859375 588.6 68.7 594.05 58 596.85 46.05 569.7 28.3 537.55 35.15 537.3 35.5 537.05 35.85 529.4 47.25 517.75 47.15 506.15 47.05 498.8 35.4 497.4 33.2 496.35 30.95 532.1 11.7 599 3.9 597.2 -10.6 591.95 -23.25
M 500.2 -17.2
Q 507.55 -27.5 518.6 -27.45 529.6 -27.5 537 -16.9 537.35 -16.45 537.65 -15.95 511.25 -8.85 492.55 3.25 494 -8.6 500.2 -17.2 Z"/>
</g>
</g>

<g>
<path stroke="url(#Gradient_2)" stroke-width="46" stroke-linejoin="round" stroke-linecap="round" fill="none" d="
M 500.2 -17.2
Q 507.55 -27.5 518.6 -27.45 529.6 -27.5 537 -16.9 537.35 -16.45 537.65 -15.95 511.25 -8.85 492.55 3.25 494 -8.6 500.2 -17.2 Z
M 577.45 86.95
Q 571.20546875 95.5896484375 555.55 109.775 539.8837890625 123.9615234375 545.6 153.575 551.313671875 183.18828125 540.9 195.7 530.47890625 208.2158203125 517.425 198.45 504.384375 188.6763671875 512.7 153.75 521.0078125 118.836328125 510.6 106.675 500.1921875 94.508984375 490.575 97.625 480.96171875 100.741015625 479.425 116.8 477.8751953125 132.8703125 470.725 136.25 463.5880859375 139.623828125 456.725 132.025 449.8525390625 124.433203125 450.25 106.425 450.648046875 88.41796875 443.825 64.25 437.001171875 40.0869140625 438.5 8.825 439.999609375 -22.44609375 463.1 -49.1 485.8 -75.5 519.8 -75.4 553.75 -75.5 576.6 -48.3 586.25 -36.8 591.95 -23.25 597.2 -10.6 599 3.9 532.1 11.7 496.35 30.95 497.4 33.2 498.8 35.4 506.15 47.05 517.75 47.15 529.4 47.25 537.05 35.85 537.3 35.5 537.55 35.15 569.7 28.3 596.85 46.05 594.05 58 588.6 68.7 583.704296875 78.305859375 577.45 86.95 Z"/>
</g>
</g>

<g>
<g>
<g>
<path fill="url(#Gradient_5)" stroke="none" d="
M -29.9 -159.45
Q -28.1 -155.05 -26.45 -150.7 -23 -141.7 -19.75 -132.55 -16.45 -123.45 -13.6 -114.05 -10.85 -104.9 -8.3 -95.6 -5.75 -86.2 -3.65 -76.55 -1.5 -66.65 0.15 -56.65 1.8 -46.65 2.8 -36.7 3.8 -26.85 4.4 -17 5 -7.05 4.95 2.9 4.9 12.65 4.2 22.4 3.5 32.1 2.1 41.85 0.65 51.65 -1.4 61.2 -3.4 70.75 -6.15 80.15 -8.95 89.55 -12.55 98.5 -16.05 107.25 -19.6 116.15 -23.2 125.05 -24.25 135.1 -24.7 139.6 -23.4 143.85 -21.15 151.25 -13.9 153.2 -7.85 154.8 -2.75 151.45 1.15 148.95 4 145.25 10.15 137.3 12.75 127.65 15.35 117.95 16.3 107.35 19.15 84.15 29.05 80.85 38.9 77.55 45.8 95.65 52.75 113.65 66 119.7 79.2 125.7 93.4 117.1 100.5208984375 112.044140625 107.05 111.75 113.59453125 111.5294921875 116.65 120.45 119.754296875 129.4115234375 112.5 161 105.235546875 192.592578125 111.9 208.45 118.6310546875 224.3041015625 131.15 222.55 143.6615234375 220.7908203125 148.95 202.3 154.24453125 183.81640625 146.75 151.85 139.2544921875 119.8763671875 152.5 122.25 165.7841796875 124.638671875 171.25 116.45 197.7 59.65 177.8 3.7 127.05 -16.35 69.95 -0.75 85.7 -125.35 39.7 -235.05 -14.55 -223.2 -29.9 -159.45 Z"/>
</g>
</g>

<g>
<path stroke="url(#Gradient_6)" stroke-width="46" stroke-linejoin="round" stroke-linecap="round" fill="none" d="
M 93.4 117.1
Q 79.2 125.7 66 119.7 52.75 113.65 45.8 95.65 38.9 77.55 29.05 80.85 19.15 84.15 16.3 107.35 15.35 117.95 12.75 127.65 10.15 137.3 4 145.25 1.15 148.95 -2.75 151.45 -7.85 154.8 -13.9 153.2 -21.15 151.25 -23.4 143.85 -24.7 139.6 -24.25 135.1 -23.2 125.05 -19.6 116.15 -16.05 107.25 -12.55 98.5 -8.95 89.55 -6.15 80.15 -3.4 70.75 -1.4 61.2 0.65 51.65 2.1 41.85 3.5 32.1 4.2 22.4 4.9 12.65 4.95 2.9 5 -7.05 4.4 -17 3.8 -26.85 2.8 -36.7 1.8 -46.65 0.15 -56.65 -1.5 -66.65 -3.65 -76.55 -5.75 -86.2 -8.3 -95.6 -10.85 -104.9 -13.6 -114.05 -16.45 -123.45 -19.75 -132.55 -23 -141.7 -26.45 -150.7 -28.1 -155.05 -29.9 -159.45 -14.55 -223.2 39.7 -235.05 85.7 -125.35 69.95 -0.75 127.05 -16.35 177.8 3.7 197.7 59.65 171.25 116.45 165.7841796875 124.638671875 152.525 122.25 139.2544921875 119.8763671875 146.75 151.85 154.24453125 183.81640625 148.95 202.3 143.6615234375 220.7908203125 131.15 222.55 118.6310546875 224.3041015625 111.925 208.45 105.235546875 192.592578125 112.5 161 119.754296875 129.4115234375 116.675 120.475 113.59453125 111.5294921875 107.05 111.775 100.5208984375 112.044140625 93.4 117.1 Z"/>
</g>
</g>

<g>
<g>
<g>
<path fill="url(#Gradient_7)" stroke="none" d="
M -151.2 123.45
Q -144.6 119.6 -139.05 107.7 -133.5515625 95.7966796875 -124.7 96.4 -115.7904296875 97.0060546875 -110.85 111.25 -105.9115234375 125.53828125 -112.15 151.45 -118.382421875 177.3724609375 -115.2 192 -112.0205078125 206.6708984375 -101.4 209.65 -90.787109375 212.67421875 -83.1 202.9 -75.3578125 193.176171875 -80.4 163.35 -85.3916015625 133.57734375 -69.55 115.65 -63.45 109.05 -57.6 101.9 -24.3 63.35 -21 3.8 -30 -47.4 -80.75 -75.35 -74.2 -26.8 -100.4 3.8 -111.35 -13.45 -125.4 -23.15 -139.45 -13.45 -150.4 3.8 -176.6 -26.8 -170.05 -75.35 -220.8 -47.4 -229.8 3.8 -226.8 41 -216.65 64.25 -206.555859375 87.544140625 -195.25 105.15 -183.934375 122.7626953125 -187.95 136.35 -191.968359375 149.9408203125 -188.25 157.65 -184.53515625 165.4056640625 -178 166.7 -171.453515625 167.99140625 -166.1 162.7 -160.7087890625 157.4654296875 -161.6 146.75 -162.4388671875 136.0857421875 -160.15 131.7 -157.80390625 127.3044921875 -151.2 123.45 Z"/>
</g>
</g>

<g>
<path stroke="url(#Gradient_2)" stroke-width="46" stroke-linejoin="round" stroke-linecap="round" fill="none" d="
M -57.6 101.9
Q -24.3 63.35 -21 3.8 -30 -47.4 -80.75 -75.35 -74.2 -26.8 -100.4 3.8 -111.35 -13.45 -125.4 -23.15 -139.45 -13.45 -150.4 3.8 -176.6 -26.8 -170.05 -75.35 -220.8 -47.4 -229.8 3.8 -226.8 41 -216.65 64.25 -206.555859375 87.544140625 -195.25 105.15 -183.934375 122.7626953125 -187.95 136.35 -191.968359375 149.9408203125 -188.25 157.675 -184.53515625 165.4056640625 -178 166.7 -171.453515625 167.99140625 -166.075 162.725 -160.7087890625 157.4654296875 -161.575 146.775 -162.4388671875 136.0857421875 -160.125 131.7 -157.80390625 127.3044921875 -151.2 123.45 -144.6 119.6 -139.05 107.7 -133.5515625 95.7966796875 -124.675 96.4 -115.7904296875 97.0060546875 -110.85 111.275 -105.9115234375 125.53828125 -112.15 151.45 -118.382421875 177.3724609375 -115.2 192.025 -112.0205078125 206.6708984375 -101.4 209.675 -90.787109375 212.67421875 -83.075 202.925 -75.3578125 193.176171875 -80.375 163.375 -85.3916015625 133.57734375 -69.55 115.65 -63.45 109.05 -57.6 101.9 Z"/>
</g>
</g>

<g>
<g>
<g>
<path fill="url(#Gradient_8)" stroke="none" d="
M -331.3 -74.55
Q -361.85 -69.55 -382.75 -41.6 -403.75 -13.8 -404.55 20.2 -404.8 28.55 -404.35 36 -403.955078125 44.0943359375 -401.9 54.2 -399.8443359375 64.299609375 -394.75 77.35 -389.660546875 90.4123046875 -394.25 108.85 -398.8404296875 127.3337890625 -393.85 138.35 -388.805859375 149.3578125 -378.4 151.05 -367.9375 152.7921875 -361.65 143.05 -355.3775390625 133.3029296875 -356.9 113.9 -358.4146484375 94.5068359375 -339.95 102 -321.429296875 109.4712890625 -319.75 128.95 -318.027734375 148.483203125 -324.15 168.25 -330.2677734375 188.023828125 -329.9 200.75 -329.4802734375 213.5166015625 -323.4 222.25 -317.2591796875 230.9869140625 -306.95 229.95 -296.5947265625 228.9599609375 -290.45 214.15 -284.3125 199.390234375 -289.35 174.55 -294.3736328125 149.7123046875 -292.5 132.1 -289.2 109.7 -269.9 86.05 -243.6 53.65 -244.75 11.45 -245.95 -30.75 -271.3 -55.6 -295.45 -79.35 -331.3 -74.55
M -347.5 -35
Q -342 -41.85 -334.3 -43.1 -326.7 -44.4 -321.15 -38.5 -315.6 -32.6 -315.55 -23.35 -315.5 -14.05 -320.95 -6.7 -326.55 0.45 -334.8 1.35 -343.1 2.25 -348.5 -3.85 -353.8 -10 -353.45 -19.2 -353 -28.2 -347.5 -35 Z"/>
</g>
</g>

<g>
<path stroke="url(#Gradient_9)" stroke-width="46" stroke-linejoin="round" stroke-linecap="round" fill="none" d="
M -315.55 -23.35
Q -315.5 -14.05 -320.95 -6.7 -326.55 0.45 -334.8 1.35 -343.1 2.25 -348.5 -3.85 -353.8 -10 -353.45 -19.2 -353 -28.2 -347.5 -35 -342 -41.85 -334.3 -43.1 -326.7 -44.4 -321.15 -38.5 -315.6 -32.6 -315.55 -23.35 Z
M -244.75 11.45
Q -243.6 53.65 -269.9 86.05 -289.2 109.7 -292.5 132.1 -294.3736328125 149.7123046875 -289.35 174.55 -284.3125 199.390234375 -290.45 214.175 -296.5947265625 228.9599609375 -306.925 229.975 -317.2591796875 230.9869140625 -323.375 222.25 -329.4802734375 213.5166015625 -329.875 200.775 -330.2677734375 188.023828125 -324.15 168.25 -318.027734375 148.483203125 -319.725 128.975 -321.429296875 109.4712890625 -339.925 102 -358.4146484375 94.5068359375 -356.9 113.9 -355.3775390625 133.3029296875 -361.65 143.05 -367.9375 152.7921875 -378.375 151.075 -388.805859375 149.3578125 -393.825 138.35 -398.8404296875 127.3337890625 -394.25 108.875 -389.660546875 90.4123046875 -394.75 77.35 -399.8443359375 64.299609375 -401.9 54.2 -403.955078125 44.0943359375 -404.35 36 -404.8 28.55 -404.55 20.2 -403.75 -13.8 -382.75 -41.6 -361.85 -69.55 -331.3 -74.55 -295.45 -79.35 -271.3 -55.6 -245.95 -30.75 -244.75 11.45 Z"/>
</g>
</g>

<g>
<g>
<g>
<path fill="url(#Gradient_4)" stroke="none" d="
M 309.3 -87.1
Q 262.3279296875 -60.5533203125 254.6 -9.4 295.8498046875 20.9955078125 312.9 77.35 315.1 86.05 316.25 95.05 318.047265625 108.7900390625 315.8 119 313.5638671875 129.266015625 310.35 139.3 307.1791015625 149.3427734375 307.05 157 306.9302734375 164.6533203125 311.05 171.2 315.160546875 177.7466796875 322.55 178.35 329.940625 179.0123046875 334.85 173.85 339.75234375 168.734765625 340.25 159.55 340.8064453125 150.4095703125 337.6 133.95 334.4416015625 117.5353515625 338.3 110.8 342.1552734375 104.075 351.35 106.3 356.97578125 107.60078125 360.95 112.9 364.983203125 118.208984375 366.3 128.4 367.6615234375 138.64296875 366.1 150.55 364.59453125 162.4943359375 360.85 173.5 357.1388671875 184.562890625 356.4 192.8 355.6548828125 201.095703125 357.9 207.5 362.3 220.2 375.4 222 379.2 222.5 382.7 221.3 392.35 218 396.85 208.65 400 202.05 400.15 194.5 400.35 184.55 397.6 174.8 396.287890625 170.1318359375 395 165.4 388.136328125 144.1126953125 391.3 114.35 392.1896484375 107.668359375 393.75 100.95 410.15625 32.150390625 464.95 -10.05 454.43671875 -62.3935546875 411.15 -86.7 375.06875 -61.3662109375 357.55 -9.15 342.393359375 -61.68515625 309.3 -87.1 Z"/>
</g>
</g>

<g>
<path stroke="url(#Gradient_2)" stroke-width="46" stroke-linejoin="round" stroke-linecap="round" fill="none" d="
M 309.3 -87.1
Q 342.393359375 -61.68515625 357.55 -9.15 375.06875 -61.3662109375 411.15 -86.7 454.43671875 -62.3935546875 464.95 -10.025 410.15625 32.150390625 393.775 100.975 392.1896484375 107.668359375 391.325 114.35 388.136328125 144.1126953125 395 165.4 396.287890625 170.1318359375 397.6 174.8 400.35 184.55 400.15 194.5 400 202.05 396.85 208.65 392.35 218 382.7 221.3 379.2 222.5 375.4 222.025 362.3 220.2 357.9 207.5 355.6548828125 201.095703125 356.4 192.825 357.1388671875 184.562890625 360.875 173.525 364.59453125 162.4943359375 366.125 150.575 367.6615234375 138.64296875 366.325 128.425 364.983203125 118.208984375 360.975 112.9 356.97578125 107.60078125 351.35 106.3 342.1552734375 104.075 338.3 110.8 334.4416015625 117.5353515625 337.625 133.975 340.8064453125 150.4095703125 340.275 159.575 339.75234375 168.734765625 334.85 173.875 329.940625 179.0123046875 322.55 178.375 315.160546875 177.7466796875 311.05 171.2 306.9302734375 164.6533203125 307.05 157 307.1791015625 149.3427734375 310.375 139.3 313.5638671875 129.266015625 315.8 119.025 318.047265625 108.7900390625 316.25 95.05 315.1 86.05 312.9 77.35 295.8498046875 20.9955078125 254.6 -9.4 262.3279296875 -60.5533203125 309.3 -87.1 Z"/>
</g>
</g>
</g>

<g id="Layer_7" transform="matrix( 0.2037811279296875, 0, 0, 0.2037811279296875, 139.4,64.95) ">
<g transform="matrix( 0.99969482421875, -0.0246734619140625, 0.0246734619140625, 0.99969482421875, -2.15,5.5) ">
<g>
<g>
<path fill="url(#Gradient_1)" stroke="none" d="
M 201.8 -129.95
Q 185.683203125 -125.9451171875 179.45 -111.55 173.1248046875 -97.1349609375 182.2 -80.4 191.3251953125 -63.5798828125 199 -43.55 206.7087890625 -23.3498046875 210.35 1.75 213.9939453125 27.0376953125 214.65 47.8 215.3150390625 68.741796875 215.15 88.2 214.9541015625 107.7595703125 220.25 114.75 225.639453125 121.81875 232.55 113.35 235.9826171875 109.1408203125 239.05 102.05 245.5712890625 85.7001953125 249.1 68.15 252.7599609375 50.3859375 254.65 32.7 256.53671875 15.3078125 256.55 -2.2 256.556640625 -19.4615234375 255.3 -36.75 254.0609375 -54.3501953125 250.1 -71.75 249.5130859375 -74.163671875 248.9 -76.5 242.609375 -101.8052734375 230.3 -117.9 217.9818359375 -133.918359375 201.8 -129.95 Z"/>
</g>
</g>

<g transform="matrix( 0.99969482421875, 0.0246734619140625, -0.0246734619140625, 0.99969482421875, 2.25,-5.4) ">
<path stroke="url(#Gradient_10)" stroke-width="29" stroke-linejoin="round" stroke-linecap="round" fill="none" d="
M 174.49352836608884 -110.41861801147462
Q 168.52531543076037 -95.87690597474575 178.03625984191893 -79.34659309387207 187.5480716794729 -62.78113469183445 195.71535758972166 -42.92173614501953 203.91958602964877 -22.94290032684803 208.17960166931152 2.084395599365234 212.44575308859348 27.249472603201866 213.61450233459473 48.01424636840821 214.79542823433877 68.90825112760068 215.11115760803222 88.38958053588867 215.39730443060398 107.92302286326886 220.8896739959717 114.80502662658692 226.42628371715543 121.71426741480826 233.15076065063474 113.07697792053222 236.4534828811884 108.7850050598383 239.3699668884277 101.62004890441894 245.46086715757846 85.1149478405714 248.5810863494873 67.50741844177246 251.77602022886276 49.63409766256809 253.22910919189454 31.90692367553711 254.6861266851425 14.473491966724396 254.2680423736572 -3.004312896728516 253.84816259443758 -20.285724753141402 252.19033126831053 -37.53853645324707 250.49239678084848 -55.10217181444168 246.10397148132324 -72.37394409179687 245.45706605315206 -74.7973905414343 244.81151428222657 -77.11849555969238 237.8734479576349 -102.26021810770035 225.17071685791015 -118.04631805419922 212.46108362078667 -133.75585726201533 196.40770835876464 -129.36507148742677 180.3690350562334 -124.9881292283535 174.49352836608884 -110.41861801147462 Z"/>
</g>
</g>

<g transform="matrix( 1.04150390625, 0, 0, 1, 13.05,0) ">
<g>
<g>
<path fill="url(#Gradient_3)" stroke="none" d="
M -596.8 -159.45
Q -576.15 -104.75 -504.4 -75.45 -491.65 13 -523.25 116.55 -523.702734375 118.4951171875 -525.3 124.3 -526.844140625 130.1609375 -523.6 133.45 -520.30390625 136.7837890625 -515.4 135.2 -510.4529296875 133.6669921875 -508.5 125.45 -506.5453125 117.23046875 -501.2 114.7 -495.7978515625 112.21953125 -490.9 114.95 -485.9552734375 117.7345703125 -483.15 126.6 -480.2984375 135.5046875 -483.75 147.45 -487.2 159.3 -490.45 171.1 -493.7 182.65 -493.1 194.35 -492.396484375 207.1451171875 -484.3 215.4 -476.210546875 223.664453125 -468.35 214.8 -460.439453125 205.9353515625 -460.2 193 -459.903515625 180.1046875 -462.8 168.2 -465.6501953125 156.3521484375 -466.45 144.25 -467.2 132.14296875 -460.75 118.85 -454.3001953125 105.6091796875 -445.9 106.35 -439.9966796875 106.8810546875 -436.8 115.95 -433.6162109375 125.0046875 -429.35 124.6 -425.0763671875 124.20546875 -424.7 116.55 -419.75 17 -439.75 -75.45 -380.25 -100.85 -354.75 -159.45 -371.65 -221.65 -426.6 -235.05 -433.5 -182.5 -474.95 -159.45 -518 -174.45 -533.3 -235.05 -584.05 -220.1 -596.8 -159.45 Z"/>
</g>
</g>

<g transform="matrix( 0.96014404296875, 0, 0, 1, -12.5,0) ">
<path stroke="url(#Gradient_10)" stroke-width="29" stroke-linejoin="round" stroke-linecap="round" fill="none" d="
M -531.9169189453125 116.55
Q -499.00539550781247 13 -512.2845703125 -75.45 -587.0124755859375 -104.75 -608.51953125 -159.45 -595.2403564453125 -220.1 -542.384033203125 -235.05 -526.4490234375 -174.45 -481.6122802734375 -159.45 -438.441943359375 -182.5 -431.25556640625 -235.05 -374.02492675781247 -221.65 -356.4235107421875 -159.45 -382.9818603515625 -100.85 -444.9513427734375 -75.45 -424.1212646484375 17 -429.276708984375 116.55 -429.6686968803406 124.20546875 -434.1197021484375 124.6 -438.5629775047302 125.0046875 -441.87890625 115.95 -445.20826063156125 106.8810546875 -451.35659179687497 106.35 -460.1054280281067 105.6091796875 -466.8229248046875 118.875 -473.540625 132.14296875 -472.73345947265625 144.25 -471.92649736404417 156.3521484375 -468.9580078125 168.2 -465.9413080215454 180.1046875 -466.22406005859375 193.025 -466.49948902130126 205.9353515625 -474.7123168945312 214.8 -482.9251447677612 223.664453125 -491.350341796875 215.4 -499.7828619003296 207.1451171875 -500.515576171875 194.35 -501.1404785156249 182.65 -497.7555908203125 171.1 -494.370703125 159.3 -490.7775146484375 147.45 -487.18269882202145 135.5046875 -490.12657470703124 126.625 -493.0743155479431 117.7345703125 -498.19822998046874 114.975 -503.3253991127014 112.21953125 -508.9257202148438 114.725 -514.518921661377 117.23046875 -516.554736328125 125.45 -518.5887202262878 133.6669921875 -523.7150756835938 135.225 -528.8485507965088 136.7837890625 -532.2554077148438 133.475 -535.6602304458619 130.1609375 -534.0259643554688 124.325 -532.3884435653687 118.4951171875 -531.9169189453125 116.55 Z"/>
</g>
</g>

<g transform="matrix( 0.999755859375, -0.0218505859375, 0.0220947265625, 0.9887542724609375, 2.35,2.4) ">
<g>
<g>
<path fill="url(#Gradient_3)" stroke="none" d="
M 219.25 -198.6
Q 212.15 -208.55 202.55 -216.65 193.4 -224.45 182.2 -229.6 171.1 -234.55 158.7 -236.15 150.7 -237 142.6 -237 151.4931640625 -232.700390625 158.55 -225.35 165.47109375 -218.2419921875 169.05 -209.25 172.83046875 -199.8443359375 172.35 -189.85 171.87265625 -179.830078125 166.25 -171.65 160.4130859375 -162.91015625 149.7 -162.15 139.1416015625 -161.8890625 131.5 -169.15 126.1740234375 -174.2197265625 123.85 -181.1 123.35 -168.75 124.6 -156.4 125.85 -143.9 130.4 -132.65 135 -121.2 142.4 -111.7 144.833203125 -108.607421875 147.5 -105.9 149.7095703125 -103.1455078125 152.3 -100.75 159.726171875 -93.78515625 169.55 -87.35 179.4248046875 -80.866796875 178.6 -70.25 177.7685546875 -59.62578125 181.15 -52.4 184.588671875 -45.1775390625 192.4 -44.55 200.253125 -43.874609375 203.5 -52.6 206.6498046875 -61.3931640625 199.8 -73.85 192.9384765625 -86.25 197.05 -95.25 201.162890625 -104.31015625 209.65 -106.35 211.7533203125 -106.862109375 213.55 -106.45 216.9826171875 -105.6123046875 218.6 -103.3 220.2111328125 -100.946875 220.8 -97.35 221.33359375 -93.702734375 222.2 -91.4 223.012890625 -89.0578125 224.9 -86.8 226.745703125 -84.6 230.05 -83.35 233.3509765625 -82.0958984375 236.5 -82.75 239.6990234375 -83.35703125 241.85 -86.3 243.94140625 -89.255078125 243.45 -94.25 242.9578125 -99.23984375 239.5 -104.5 236.0978515625 -109.763671875 235.05 -112.85 234.000390625 -115.9451171875 234 -118.95 234.0025390625 -121.9990234375 234.85 -125.6 234.8978515625 -125.6748046875 234.9 -125.9 234.948046875 -126.1427734375 235 -126.4 235.046484375 -126.6365234375 235.1 -126.9 235.23046875 -127.6982421875 235.35 -128.5 237.15 -140.75 236.1 -153 235 -165.65 230.7 -177.1 226.35 -188.75 219.25 -198.6 Z"/>
</g>
</g>

<g transform="matrix( 0.999755859375, 0.0220794677734375, -0.0223388671875, 1.0108795166015625, -2.25,-2.45) ">
<path stroke="url(#Gradient_10)" stroke-width="29" stroke-linejoin="round" stroke-linecap="round" fill="none" d="
M 147.49970397949218 -105.50786628723144
Q 149.74404833316802 -102.85680336654185 152.38732604980467 -100.52011833190916 159.9650188446045 -93.82058438062667 169.9541778564453 -87.64827995300293 179.94427003860474 -81.47792802453041 179.35424194335937 -70.96250228881836 178.75773882865906 -60.43959304094315 182.32300415039063 -53.36950378417969 185.89542090892792 -46.30285540521145 193.74425354003907 -45.828882980346684 201.58483757972718 -45.35685558915139 204.66312866210936 -54.055615234375 207.59288790225983 -62.81817258298397 200.47007751464844 -74.9605312347412 193.33570227622985 -87.09587476253509 197.27236328125 -96.08504867553711 201.1590742111206 -105.13263968229295 209.59904174804686 -107.33499221801756 211.6905336380005 -107.8873013317585 213.49588012695312 -107.51908493041991 216.94616792201995 -106.76581480801104 218.6397918701172 -104.49068183898926 220.27697672843934 -102.22339622974395 220.97016601562498 -98.6803840637207 221.5592209339142 -95.08524766564369 222.47684631347656 -92.80262184143066 223.34073610305785 -90.52925493717193 225.2772705078125 -88.33806762695312 227.17113142013548 -86.20313792228697 230.5277862548828 -85.01522331237793 233.83011968135833 -83.87152589857578 236.98946838378905 -84.56290702819823 240.14875235557557 -85.25718489885331 242.23473205566407 -88.18933906555176 244.25978369712828 -91.18160249590873 243.6831298828125 -96.11016159057617 243.05581941604615 -101.03259006738664 239.50817565917967 -106.13386421203612 235.96501216888427 -111.2881759226322 234.87421874999998 -114.3174461364746 233.73148596286774 -117.35427563488483 233.66470336914062 -120.3253578186035 233.5998744726181 -123.34014824926852 234.3931121826172 -126.89497413635254 234.41375300884246 -126.99415576755999 234.41092529296876 -127.21686553955078 234.45359642505645 -127.45795866549014 234.50040588378906 -127.68870887756347 234.54110062122345 -127.94830700457095 234.58878173828126 -128.20998992919922 234.7015816926956 -129.00210612118244 234.803369140625 -129.79745941162108 236.33226928710937 -141.94903030395508 235.011865234375 -154.03832702636717 233.63263549804688 -166.52203292846679 229.08070068359373 -177.7493118286133 224.47435913085937 -189.17324905395506 217.15845947265623 -198.75733947753906 209.84035034179686 -208.44030532836916 200.06372680664063 -216.23944931030272 190.74362182617188 -223.7517997741699 179.43256835937498 -228.59915771484376 168.2259094238281 -233.25094985961914 155.79358520507813 -234.56200942993163 147.7767578125 -235.22764587402344 139.70428161621092 -235.0264835357666 148.66472692489623 -230.9937198340893 155.9077911376953 -223.8560131072998 162.95869839191437 -217.00334255993363 166.76095275878905 -208.16650047302247 170.72276785373688 -198.97338799536226 170.48823242187498 -189.08149337768555 170.20739874839782 -179.16327630877495 164.79239807128906 -170.92815818786622 159.12446722984313 -162.1832329392433 148.4557861328125 -161.19808425903318 137.88073687553404 -160.70882773399353 130.10556640625 -167.72168350219727 124.64388201236724 -172.61747532784938 122.16896057128906 -179.3448749542236 121.94140014648437 -167.1475532531738 123.46396484374999 -154.9637512207031 124.98984374999999 -142.63163604736326 129.78729858398438 -131.60757064819336 134.63916015625 -120.38684692382812 142.24725341796875 -111.15537567138671 144.7481921672821 -108.15074275135993 147.49970397949218 -105.50786628723144 Z"/>
</g>
</g>

<g transform="matrix( 1, 0, 0, 1, 20.15,0) ">
<g>
<g>
<path fill="url(#Gradient_4)" stroke="none" d="
M 591.95 -23.25
Q 586.25 -36.8 576.6 -48.3 553.75 -75.5 519.8 -75.4 485.8 -75.5 463.1 -49.1 439.999609375 -22.44609375 438.5 8.8 437.001171875 40.0869140625 443.8 64.25 450.648046875 88.41796875 450.25 106.4 449.8525390625 124.433203125 456.7 132 463.5880859375 139.623828125 470.7 136.25 477.8751953125 132.8703125 479.4 116.8 480.96171875 100.741015625 490.55 97.6 500.1921875 94.508984375 510.6 106.65 521.0078125 118.836328125 512.7 153.75 504.384375 188.6763671875 517.4 198.45 530.47890625 208.2158203125 540.9 195.7 551.313671875 183.18828125 545.6 153.55 539.8837890625 123.9615234375 555.55 109.75 571.20546875 95.5896484375 577.45 86.95 583.704296875 78.305859375 588.6 68.7 594.05 58 596.85 46.05 569.7 28.3 537.55 35.15 537.3 35.5 537.05 35.85 529.4 47.25 517.75 47.15 506.15 47.05 498.8 35.4 497.4 33.2 496.35 30.95 532.1 11.7 599 3.9 597.2 -10.6 591.95 -23.25
M 500.2 -17.2
Q 507.55 -27.5 518.6 -27.45 529.6 -27.5 537 -16.9 537.35 -16.45 537.65 -15.95 511.25 -8.85 492.55 3.25 494 -8.6 500.2 -17.2 Z"/>
</g>
</g>

<g>
<path stroke="url(#Gradient_10)" stroke-width="29" stroke-linejoin="round" stroke-linecap="round" fill="none" d="
M 500.2 -17.2
Q 507.55 -27.5 518.6 -27.45 529.6 -27.5 537 -16.9 537.35 -16.45 537.65 -15.95 511.25 -8.85 492.55 3.25 494 -8.6 500.2 -17.2 Z
M 577.45 86.95
Q 571.20546875 95.5896484375 555.55 109.775 539.8837890625 123.9615234375 545.6 153.575 551.313671875 183.18828125 540.9 195.7 530.47890625 208.2158203125 517.425 198.45 504.384375 188.6763671875 512.7 153.75 521.0078125 118.836328125 510.6 106.675 500.1921875 94.508984375 490.575 97.625 480.96171875 100.741015625 479.425 116.8 477.8751953125 132.8703125 470.725 136.25 463.5880859375 139.623828125 456.725 132.025 449.8525390625 124.433203125 450.25 106.425 450.648046875 88.41796875 443.825 64.25 437.001171875 40.0869140625 438.5 8.825 439.999609375 -22.44609375 463.1 -49.1 485.8 -75.5 519.8 -75.4 553.75 -75.5 576.6 -48.3 586.25 -36.8 591.95 -23.25 597.2 -10.6 599 3.9 532.1 11.7 496.35 30.95 497.4 33.2 498.8 35.4 506.15 47.05 517.75 47.15 529.4 47.25 537.05 35.85 537.3 35.5 537.55 35.15 569.7 28.3 596.85 46.05 594.05 58 588.6 68.7 583.704296875 78.305859375 577.45 86.95 Z"/>
</g>
</g>

<g>
<g>
<g>
<path fill="url(#Gradient_5)" stroke="none" d="
M -29.9 -159.45
Q -28.1 -155.05 -26.45 -150.7 -23 -141.7 -19.75 -132.55 -16.45 -123.45 -13.6 -114.05 -10.85 -104.9 -8.3 -95.6 -5.75 -86.2 -3.65 -76.55 -1.5 -66.65 0.15 -56.65 1.8 -46.65 2.8 -36.7 3.8 -26.85 4.4 -17 5 -7.05 4.95 2.9 4.9 12.65 4.2 22.4 3.5 32.1 2.1 41.85 0.65 51.65 -1.4 61.2 -3.4 70.75 -6.15 80.15 -8.95 89.55 -12.55 98.5 -16.05 107.25 -19.6 116.15 -23.2 125.05 -24.25 135.1 -24.7 139.6 -23.4 143.85 -21.15 151.25 -13.9 153.2 -7.85 154.8 -2.75 151.45 1.15 148.95 4 145.25 10.15 137.3 12.75 127.65 15.35 117.95 16.3 107.35 19.15 84.15 29.05 80.85 38.9 77.55 45.8 95.65 52.75 113.65 66 119.7 79.2 125.7 93.4 117.1 100.5208984375 112.044140625 107.05 111.75 113.59453125 111.5294921875 116.65 120.45 119.754296875 129.4115234375 112.5 161 105.235546875 192.592578125 111.9 208.45 118.6310546875 224.3041015625 131.15 222.55 143.6615234375 220.7908203125 148.95 202.3 154.24453125 183.81640625 146.75 151.85 139.2544921875 119.8763671875 152.5 122.25 165.7841796875 124.638671875 171.25 116.45 197.7 59.65 177.8 3.7 127.05 -16.35 69.95 -0.75 85.7 -125.35 39.7 -235.05 -14.55 -223.2 -29.9 -159.45 Z"/>
</g>
</g>

<g>
<path stroke="url(#Gradient_11)" stroke-width="29" stroke-linejoin="round" stroke-linecap="round" fill="none" d="
M 45.8 95.65
Q 38.9 77.55 29.05 80.85 19.15 84.15 16.3 107.35 15.35 117.95 12.75 127.65 10.15 137.3 4 145.25 1.15 148.95 -2.75 151.45 -7.85 154.8 -13.9 153.2 -21.15 151.25 -23.4 143.85 -24.7 139.6 -24.25 135.1 -23.2 125.05 -19.6 116.15 -16.05 107.25 -12.55 98.5 -8.95 89.55 -6.15 80.15 -3.4 70.75 -1.4 61.2 0.65 51.65 2.1 41.85 3.5 32.1 4.2 22.4 4.9 12.65 4.95 2.9 5 -7.05 4.4 -17 3.8 -26.85 2.8 -36.7 1.8 -46.65 0.15 -56.65 -1.5 -66.65 -3.65 -76.55 -5.75 -86.2 -8.3 -95.6 -10.85 -104.9 -13.6 -114.05 -16.45 -123.45 -19.75 -132.55 -23 -141.7 -26.45 -150.7 -28.1 -155.05 -29.9 -159.45 -14.55 -223.2 39.7 -235.05 85.7 -125.35 69.95 -0.75 127.05 -16.35 177.8 3.7 197.7 59.65 171.25 116.45 165.7841796875 124.638671875 152.525 122.25 139.2544921875 119.8763671875 146.75 151.85 154.24453125 183.81640625 148.95 202.3 143.6615234375 220.7908203125 131.15 222.55 118.6310546875 224.3041015625 111.925 208.45 105.235546875 192.592578125 112.5 161 119.754296875 129.4115234375 116.675 120.475 113.59453125 111.5294921875 107.05 111.775 100.5208984375 112.044140625 93.4 117.1 79.2 125.7 66 119.7 52.75 113.65 45.8 95.65 Z"/>
</g>
</g>

<g>
<g>
<g>
<path fill="url(#Gradient_7)" stroke="none" d="
M -151.2 123.45
Q -144.6 119.6 -139.05 107.7 -133.5515625 95.7966796875 -124.7 96.4 -115.7904296875 97.0060546875 -110.85 111.25 -105.9115234375 125.53828125 -112.15 151.45 -118.382421875 177.3724609375 -115.2 192 -112.0205078125 206.6708984375 -101.4 209.65 -90.787109375 212.67421875 -83.1 202.9 -75.3578125 193.176171875 -80.4 163.35 -85.3916015625 133.57734375 -69.55 115.65 -63.45 109.05 -57.6 101.9 -24.3 63.35 -21 3.8 -30 -47.4 -80.75 -75.35 -74.2 -26.8 -100.4 3.8 -111.35 -13.45 -125.4 -23.15 -139.45 -13.45 -150.4 3.8 -176.6 -26.8 -170.05 -75.35 -220.8 -47.4 -229.8 3.8 -226.8 41 -216.65 64.25 -206.555859375 87.544140625 -195.25 105.15 -183.934375 122.7626953125 -187.95 136.35 -191.968359375 149.9408203125 -188.25 157.65 -184.53515625 165.4056640625 -178 166.7 -171.453515625 167.99140625 -166.1 162.7 -160.7087890625 157.4654296875 -161.6 146.75 -162.4388671875 136.0857421875 -160.15 131.7 -157.80390625 127.3044921875 -151.2 123.45 Z"/>
</g>
</g>

<g>
<path stroke="url(#Gradient_10)" stroke-width="29" stroke-linejoin="round" stroke-linecap="round" fill="none" d="
M -57.6 101.9
Q -24.3 63.35 -21 3.8 -30 -47.4 -80.75 -75.35 -74.2 -26.8 -100.4 3.8 -111.35 -13.45 -125.4 -23.15 -139.45 -13.45 -150.4 3.8 -176.6 -26.8 -170.05 -75.35 -220.8 -47.4 -229.8 3.8 -226.8 41 -216.65 64.25 -206.555859375 87.544140625 -195.25 105.15 -183.934375 122.7626953125 -187.95 136.35 -191.968359375 149.9408203125 -188.25 157.675 -184.53515625 165.4056640625 -178 166.7 -171.453515625 167.99140625 -166.075 162.725 -160.7087890625 157.4654296875 -161.575 146.775 -162.4388671875 136.0857421875 -160.125 131.7 -157.80390625 127.3044921875 -151.2 123.45 -144.6 119.6 -139.05 107.7 -133.5515625 95.7966796875 -124.675 96.4 -115.7904296875 97.0060546875 -110.85 111.275 -105.9115234375 125.53828125 -112.15 151.45 -118.382421875 177.3724609375 -115.2 192.025 -112.0205078125 206.6708984375 -101.4 209.675 -90.787109375 212.67421875 -83.075 202.925 -75.3578125 193.176171875 -80.375 163.375 -85.3916015625 133.57734375 -69.55 115.65 -63.45 109.05 -57.6 101.9 Z"/>
</g>
</g>

<g>
<g>
<g>
<path fill="url(#Gradient_8)" stroke="none" d="
M -331.3 -74.55
Q -361.85 -69.55 -382.75 -41.6 -403.75 -13.8 -404.55 20.2 -404.8 28.55 -404.35 36 -403.955078125 44.0943359375 -401.9 54.2 -399.8443359375 64.299609375 -394.75 77.35 -389.660546875 90.4123046875 -394.25 108.85 -398.8404296875 127.3337890625 -393.85 138.35 -388.805859375 149.3578125 -378.4 151.05 -367.9375 152.7921875 -361.65 143.05 -355.3775390625 133.3029296875 -356.9 113.9 -358.4146484375 94.5068359375 -339.95 102 -321.429296875 109.4712890625 -319.75 128.95 -318.027734375 148.483203125 -324.15 168.25 -330.2677734375 188.023828125 -329.9 200.75 -329.4802734375 213.5166015625 -323.4 222.25 -317.2591796875 230.9869140625 -306.95 229.95 -296.5947265625 228.9599609375 -290.45 214.15 -284.3125 199.390234375 -289.35 174.55 -294.3736328125 149.7123046875 -292.5 132.1 -289.2 109.7 -269.9 86.05 -243.6 53.65 -244.75 11.45 -245.95 -30.75 -271.3 -55.6 -295.45 -79.35 -331.3 -74.55
M -347.5 -35
Q -342 -41.85 -334.3 -43.1 -326.7 -44.4 -321.15 -38.5 -315.6 -32.6 -315.55 -23.35 -315.5 -14.05 -320.95 -6.7 -326.55 0.45 -334.8 1.35 -343.1 2.25 -348.5 -3.85 -353.8 -10 -353.45 -19.2 -353 -28.2 -347.5 -35 Z"/>
</g>
</g>

<g>
<path stroke="url(#Gradient_12)" stroke-width="29" stroke-linejoin="round" stroke-linecap="round" fill="none" d="
M -315.55 -23.35
Q -315.5 -14.05 -320.95 -6.7 -326.55 0.45 -334.8 1.35 -343.1 2.25 -348.5 -3.85 -353.8 -10 -353.45 -19.2 -353 -28.2 -347.5 -35 -342 -41.85 -334.3 -43.1 -326.7 -44.4 -321.15 -38.5 -315.6 -32.6 -315.55 -23.35 Z
M -244.75 11.45
Q -243.6 53.65 -269.9 86.05 -289.2 109.7 -292.5 132.1 -294.3736328125 149.7123046875 -289.35 174.55 -284.3125 199.390234375 -290.45 214.175 -296.5947265625 228.9599609375 -306.925 229.975 -317.2591796875 230.9869140625 -323.375 222.25 -329.4802734375 213.5166015625 -329.875 200.775 -330.2677734375 188.023828125 -324.15 168.25 -318.027734375 148.483203125 -319.725 128.975 -321.429296875 109.4712890625 -339.925 102 -358.4146484375 94.5068359375 -356.9 113.9 -355.3775390625 133.3029296875 -361.65 143.05 -367.9375 152.7921875 -378.375 151.075 -388.805859375 149.3578125 -393.825 138.35 -398.8404296875 127.3337890625 -394.25 108.875 -389.660546875 90.4123046875 -394.75 77.35 -399.8443359375 64.299609375 -401.9 54.2 -403.955078125 44.0943359375 -404.35 36 -404.8 28.55 -404.55 20.2 -403.75 -13.8 -382.75 -41.6 -361.85 -69.55 -331.3 -74.55 -295.45 -79.35 -271.3 -55.6 -245.95 -30.75 -244.75 11.45 Z"/>
</g>
</g>

<g>
<g>
<g>
<path fill="url(#Gradient_4)" stroke="none" d="
M 309.3 -87.1
Q 262.3279296875 -60.5533203125 254.6 -9.4 295.8498046875 20.9955078125 312.9 77.35 315.1 86.05 316.25 95.05 318.047265625 108.7900390625 315.8 119 313.5638671875 129.266015625 310.35 139.3 307.1791015625 149.3427734375 307.05 157 306.9302734375 164.6533203125 311.05 171.2 315.160546875 177.7466796875 322.55 178.35 329.940625 179.0123046875 334.85 173.85 339.75234375 168.734765625 340.25 159.55 340.8064453125 150.4095703125 337.6 133.95 334.4416015625 117.5353515625 338.3 110.8 342.1552734375 104.075 351.35 106.3 356.97578125 107.60078125 360.95 112.9 364.983203125 118.208984375 366.3 128.4 367.6615234375 138.64296875 366.1 150.55 364.59453125 162.4943359375 360.85 173.5 357.1388671875 184.562890625 356.4 192.8 355.6548828125 201.095703125 357.9 207.5 362.3 220.2 375.4 222 379.2 222.5 382.7 221.3 392.35 218 396.85 208.65 400 202.05 400.15 194.5 400.35 184.55 397.6 174.8 396.287890625 170.1318359375 395 165.4 388.136328125 144.1126953125 391.3 114.35 392.1896484375 107.668359375 393.75 100.95 410.15625 32.150390625 464.95 -10.05 454.43671875 -62.3935546875 411.15 -86.7 375.06875 -61.3662109375 357.55 -9.15 342.393359375 -61.68515625 309.3 -87.1 Z"/>
</g>
</g>

<g>
<path stroke="url(#Gradient_10)" stroke-width="29" stroke-linejoin="round" stroke-linecap="round" fill="none" d="
M 309.3 -87.1
Q 342.393359375 -61.68515625 357.55 -9.15 375.06875 -61.3662109375 411.15 -86.7 454.43671875 -62.3935546875 464.95 -10.025 410.15625 32.150390625 393.775 100.975 392.1896484375 107.668359375 391.325 114.35 388.136328125 144.1126953125 395 165.4 396.287890625 170.1318359375 397.6 174.8 400.35 184.55 400.15 194.5 400 202.05 396.85 208.65 392.35 218 382.7 221.3 379.2 222.5 375.4 222.025 362.3 220.2 357.9 207.5 355.6548828125 201.095703125 356.4 192.825 357.1388671875 184.562890625 360.875 173.525 364.59453125 162.4943359375 366.125 150.575 367.6615234375 138.64296875 366.325 128.425 364.983203125 118.208984375 360.975 112.9 356.97578125 107.60078125 351.35 106.3 342.1552734375 104.075 338.3 110.8 334.4416015625 117.5353515625 337.625 133.975 340.8064453125 150.4095703125 340.275 159.575 339.75234375 168.734765625 334.85 173.875 329.940625 179.0123046875 322.55 178.375 315.160546875 177.7466796875 311.05 171.2 306.9302734375 164.6533203125 307.05 157 307.1791015625 149.3427734375 310.375 139.3 313.5638671875 129.266015625 315.8 119.025 318.047265625 108.7900390625 316.25 95.05 315.1 86.05 312.9 77.35 295.8498046875 20.9955078125 254.6 -9.4 262.3279296875 -60.5533203125 309.3 -87.1 Z"/>
</g>
</g>
</g>

<g id="YowLife_Title_MAIN" transform="matrix( 0.2037811279296875, 0, 0, 0.2037811279296875, 139.4,64.95) ">
<g>
<g>
<g>
<path fill="url(#Gradient_13)" stroke="none" d="
M 196.45 -129.35
Q 180.4 -125 174.5 -110.4 168.5 -95.85 178.05 -79.35 187.6 -62.8 195.75 -42.9 203.9 -22.95 208.2 2.1 212.45 27.25 213.65 48.05 214.8 68.95 215.15 88.4 215.4 107.9 220.95 114.8 226.45 121.7 233.2 113.05 236.5 108.8 239.4 101.6 245.45 85.1 248.6 67.55 251.75 49.65 253.2 31.9 254.7 14.45 254.25 -3 253.8 -20.3 252.2 -37.55 250.45 -55.1 246.1 -72.35 245.4 -74.8 244.8 -77.15 237.9 -102.25 225.2 -118.05 212.5 -133.75 196.45 -129.35 Z"/>
</g>
</g>

<g>
<path stroke="#FFFFFF" stroke-width="14" stroke-linejoin="round" stroke-linecap="round" fill="none" d="
M 174.5 -110.4
Q 168.5 -95.85 178.05 -79.35 187.6 -62.8 195.75 -42.9 203.9 -22.95 208.2 2.1 212.45 27.25 213.65 48.05 214.8 68.95 215.15 88.4 215.4 107.9 220.95 114.8 226.45 121.7 233.2 113.05 236.5 108.8 239.4 101.6 245.45 85.1 248.6 67.55 251.75 49.65 253.2 31.9 254.7 14.45 254.25 -3 253.8 -20.3 252.2 -37.55 250.45 -55.1 246.1 -72.35 245.4 -74.8 244.8 -77.15 237.9 -102.25 225.2 -118.05 212.5 -133.75 196.45 -129.35 180.4 -125 174.5 -110.4 Z"/>
</g>
</g>

<g transform="matrix( 1.04150390625, 0, 0, 1, 13.05,0) ">
<g>
<g>
<path fill="url(#Gradient_3)" stroke="none" d="
M -596.8 -159.45
Q -576.15 -104.75 -504.4 -75.45 -491.65 13 -523.25 116.55 -523.702734375 118.4951171875 -525.3 124.3 -526.844140625 130.1609375 -523.6 133.45 -520.30390625 136.7837890625 -515.4 135.2 -510.4529296875 133.6669921875 -508.5 125.45 -506.5453125 117.23046875 -501.2 114.7 -495.7978515625 112.21953125 -490.9 114.95 -485.9552734375 117.7345703125 -483.15 126.6 -480.2984375 135.5046875 -483.75 147.45 -487.2 159.3 -490.45 171.1 -493.7 182.65 -493.1 194.35 -492.396484375 207.1451171875 -484.3 215.4 -476.210546875 223.664453125 -468.35 214.8 -460.439453125 205.9353515625 -460.2 193 -459.903515625 180.1046875 -462.8 168.2 -465.6501953125 156.3521484375 -466.45 144.25 -467.2 132.14296875 -460.75 118.85 -454.3001953125 105.6091796875 -445.9 106.35 -439.9966796875 106.8810546875 -436.8 115.95 -433.6162109375 125.0046875 -429.35 124.6 -425.0763671875 124.20546875 -424.7 116.55 -419.75 17 -439.75 -75.45 -380.25 -100.85 -354.75 -159.45 -371.65 -221.65 -426.6 -235.05 -433.5 -182.5 -474.95 -159.45 -518 -174.45 -533.3 -235.05 -584.05 -220.1 -596.8 -159.45 Z"/>
</g>
</g>

<g transform="matrix( 0.96014404296875, 0, 0, 1, -12.5,0) ">
<path stroke="#FFFFFF" stroke-width="14" stroke-linejoin="round" stroke-linecap="round" fill="none" d="
M -531.9169189453125 116.55
Q -499.00539550781247 13 -512.2845703125 -75.45 -587.0124755859375 -104.75 -608.51953125 -159.45 -595.2403564453125 -220.1 -542.384033203125 -235.05 -526.4490234375 -174.45 -481.6122802734375 -159.45 -438.441943359375 -182.5 -431.25556640625 -235.05 -374.02492675781247 -221.65 -356.4235107421875 -159.45 -382.9818603515625 -100.85 -444.9513427734375 -75.45 -424.1212646484375 17 -429.276708984375 116.55 -429.6686968803406 124.20546875 -434.1197021484375 124.6 -438.5629775047302 125.0046875 -441.87890625 115.95 -445.20826063156125 106.8810546875 -451.35659179687497 106.35 -460.1054280281067 105.6091796875 -466.8229248046875 118.875 -473.540625 132.14296875 -472.73345947265625 144.25 -471.92649736404417 156.3521484375 -468.9580078125 168.2 -465.9413080215454 180.1046875 -466.22406005859375 193.025 -466.49948902130126 205.9353515625 -474.7123168945312 214.8 -482.9251447677612 223.664453125 -491.350341796875 215.4 -499.7828619003296 207.1451171875 -500.515576171875 194.35 -501.1404785156249 182.65 -497.7555908203125 171.1 -494.370703125 159.3 -490.7775146484375 147.45 -487.18269882202145 135.5046875 -490.12657470703124 126.625 -493.0743155479431 117.7345703125 -498.19822998046874 114.975 -503.3253991127014 112.21953125 -508.9257202148438 114.725 -514.518921661377 117.23046875 -516.554736328125 125.45 -518.5887202262878 133.6669921875 -523.7150756835938 135.225 -528.8485507965088 136.7837890625 -532.2554077148438 133.475 -535.6602304458619 130.1609375 -534.0259643554688 124.325 -532.3884435653687 118.4951171875 -531.9169189453125 116.55 Z"/>
</g>
</g>

<g transform="matrix( 0.999755859375, -0.0218505859375, 0.0220947265625, 0.9887542724609375, 2.35,2.4) ">
<g>
<g>
<path fill="url(#Gradient_3)" stroke="none" d="
M 219.25 -198.6
Q 212.15 -208.55 202.55 -216.65 193.4 -224.45 182.2 -229.6 171.1 -234.55 158.7 -236.15 150.7 -237 142.6 -237 151.4931640625 -232.700390625 158.55 -225.35 165.47109375 -218.2419921875 169.05 -209.25 172.83046875 -199.8443359375 172.35 -189.85 171.87265625 -179.830078125 166.25 -171.65 160.4130859375 -162.91015625 149.7 -162.15 139.1416015625 -161.8890625 131.5 -169.15 126.1740234375 -174.2197265625 123.85 -181.1 123.35 -168.75 124.6 -156.4 125.85 -143.9 130.4 -132.65 135 -121.2 142.4 -111.7 144.833203125 -108.607421875 147.5 -105.9 149.7095703125 -103.1455078125 152.3 -100.75 159.726171875 -93.78515625 169.55 -87.35 179.4248046875 -80.866796875 178.6 -70.25 177.7685546875 -59.62578125 181.15 -52.4 184.588671875 -45.1775390625 192.4 -44.55 200.253125 -43.874609375 203.5 -52.6 206.6498046875 -61.3931640625 199.8 -73.85 192.9384765625 -86.25 197.05 -95.25 201.162890625 -104.31015625 209.65 -106.35 211.7533203125 -106.862109375 213.55 -106.45 216.9826171875 -105.6123046875 218.6 -103.3 220.2111328125 -100.946875 220.8 -97.35 221.33359375 -93.702734375 222.2 -91.4 223.012890625 -89.0578125 224.9 -86.8 226.745703125 -84.6 230.05 -83.35 233.3509765625 -82.0958984375 236.5 -82.75 239.6990234375 -83.35703125 241.85 -86.3 243.94140625 -89.255078125 243.45 -94.25 242.9578125 -99.23984375 239.5 -104.5 236.0978515625 -109.763671875 235.05 -112.85 234.000390625 -115.9451171875 234 -118.95 234.0025390625 -121.9990234375 234.85 -125.6 234.8978515625 -125.6748046875 234.9 -125.9 234.948046875 -126.1427734375 235 -126.4 235.046484375 -126.6365234375 235.1 -126.9 235.23046875 -127.6982421875 235.35 -128.5 237.15 -140.75 236.1 -153 235 -165.65 230.7 -177.1 226.35 -188.75 219.25 -198.6 Z"/>
</g>
</g>

<g transform="matrix( 0.999755859375, 0.0220794677734375, -0.0223388671875, 1.0108795166015625, -2.25,-2.45) ">
<path stroke="#FFFFFF" stroke-width="14" stroke-linejoin="round" stroke-linecap="round" fill="none" d="
M 139.70428161621092 -235.0264835357666
Q 148.66472692489623 -230.9937198340893 155.9077911376953 -223.8560131072998 162.95869839191437 -217.00334255993363 166.76095275878905 -208.16650047302247 170.72276785373688 -198.97338799536226 170.48823242187498 -189.08149337768555 170.20739874839782 -179.16327630877495 164.79239807128906 -170.92815818786622 159.12446722984313 -162.1832329392433 148.4557861328125 -161.19808425903318 137.88073687553404 -160.70882773399353 130.10556640625 -167.72168350219727 124.64388201236724 -172.61747532784938 122.16896057128906 -179.3448749542236 121.94140014648437 -167.1475532531738 123.46396484374999 -154.9637512207031 124.98984374999999 -142.63163604736326 129.78729858398438 -131.60757064819336 134.63916015625 -120.38684692382812 142.24725341796875 -111.15537567138671 144.7481921672821 -108.15074275135993 147.49970397949218 -105.50786628723144 149.74404833316802 -102.85680336654185 152.38732604980467 -100.52011833190916 159.9650188446045 -93.82058438062667 169.9541778564453 -87.64827995300293 179.94427003860474 -81.47792802453041 179.35424194335937 -70.96250228881836 178.75773882865906 -60.43959304094315 182.32300415039063 -53.36950378417969 185.89542090892792 -46.30285540521145 193.74425354003907 -45.828882980346684 201.58483757972718 -45.35685558915139 204.66312866210936 -54.055615234375 207.59288790225983 -62.81817258298397 200.47007751464844 -74.9605312347412 193.33570227622985 -87.09587476253509 197.27236328125 -96.08504867553711 201.1590742111206 -105.13263968229295 209.59904174804686 -107.33499221801756 211.6905336380005 -107.8873013317585 213.49588012695312 -107.51908493041991 216.94616792201995 -106.76581480801104 218.6397918701172 -104.49068183898926 220.27697672843934 -102.22339622974395 220.97016601562498 -98.6803840637207 221.5592209339142 -95.08524766564369 222.47684631347656 -92.80262184143066 223.34073610305785 -90.52925493717193 225.2772705078125 -88.33806762695312 227.17113142013548 -86.20313792228697 230.5277862548828 -85.01522331237793 233.83011968135833 -83.87152589857578 236.98946838378905 -84.56290702819823 240.14875235557557 -85.25718489885331 242.23473205566407 -88.18933906555176 244.25978369712828 -91.18160249590873 243.6831298828125 -96.11016159057617 243.05581941604615 -101.03259006738664 239.50817565917967 -106.13386421203612 235.96501216888427 -111.2881759226322 234.87421874999998 -114.3174461364746 233.73148596286774 -117.35427563488483 233.66470336914062 -120.3253578186035 233.5998744726181 -123.34014824926852 234.3931121826172 -126.89497413635254 234.41375300884246 -126.99415576755999 234.41092529296876 -127.21686553955078 234.45359642505645 -127.45795866549014 234.50040588378906 -127.68870887756347 234.54110062122345 -127.94830700457095 234.58878173828126 -128.20998992919922 234.7015816926956 -129.00210612118244 234.803369140625 -129.79745941162108 236.33226928710937 -141.94903030395508 235.011865234375 -154.03832702636717 233.63263549804688 -166.52203292846679 229.08070068359373 -177.7493118286133 224.47435913085937 -189.17324905395506 217.15845947265623 -198.75733947753906 209.84035034179686 -208.44030532836916 200.06372680664063 -216.23944931030272 190.74362182617188 -223.7517997741699 179.43256835937498 -228.59915771484376 168.2259094238281 -233.25094985961914 155.79358520507813 -234.56200942993163 147.7767578125 -235.22764587402344 139.70428161621092 -235.0264835357666 Z"/>
</g>
</g>

<g>
<g>
<g>
<path fill="url(#Gradient_8)" stroke="none" d="
M -331.3 -74.55
Q -361.85 -69.55 -382.75 -41.6 -403.75 -13.8 -404.55 20.2 -404.8 28.55 -404.35 36 -403.955078125 44.0943359375 -401.9 54.2 -399.8443359375 64.299609375 -394.75 77.35 -389.660546875 90.4123046875 -394.25 108.85 -398.8404296875 127.3337890625 -393.85 138.35 -388.805859375 149.3578125 -378.4 151.05 -367.9375 152.7921875 -361.65 143.05 -355.3775390625 133.3029296875 -356.9 113.9 -358.4146484375 94.5068359375 -339.95 102 -321.429296875 109.4712890625 -319.75 128.95 -318.027734375 148.483203125 -324.15 168.25 -330.2677734375 188.023828125 -329.9 200.75 -329.4802734375 213.5166015625 -323.4 222.25 -317.2591796875 230.9869140625 -306.95 229.95 -296.5947265625 228.9599609375 -290.45 214.15 -284.3125 199.390234375 -289.35 174.55 -294.3736328125 149.7123046875 -292.5 132.1 -289.2 109.7 -269.9 86.05 -243.6 53.65 -244.75 11.45 -245.95 -30.75 -271.3 -55.6 -295.45 -79.35 -331.3 -74.55
M -347.5 -35
Q -342 -41.85 -334.3 -43.1 -326.7 -44.4 -321.15 -38.5 -315.6 -32.6 -315.55 -23.35 -315.5 -14.05 -320.95 -6.7 -326.55 0.45 -334.8 1.35 -343.1 2.25 -348.5 -3.85 -353.8 -10 -353.45 -19.2 -353 -28.2 -347.5 -35 Z"/>
</g>
</g>

<g>
<path stroke="#FFFFFF" stroke-width="14" stroke-linejoin="round" stroke-linecap="round" fill="none" d="
M -315.55 -23.35
Q -315.5 -14.05 -320.95 -6.7 -326.55 0.45 -334.8 1.35 -343.1 2.25 -348.5 -3.85 -353.8 -10 -353.45 -19.2 -353 -28.2 -347.5 -35 -342 -41.85 -334.3 -43.1 -326.7 -44.4 -321.15 -38.5 -315.6 -32.6 -315.55 -23.35 Z
M -244.75 11.45
Q -243.6 53.65 -269.9 86.05 -289.2 109.7 -292.5 132.1 -294.3736328125 149.7123046875 -289.35 174.55 -284.3125 199.390234375 -290.45 214.175 -296.5947265625 228.9599609375 -306.925 229.975 -317.2591796875 230.9869140625 -323.375 222.25 -329.4802734375 213.5166015625 -329.875 200.775 -330.2677734375 188.023828125 -324.15 168.25 -318.027734375 148.483203125 -319.725 128.975 -321.429296875 109.4712890625 -339.925 102 -358.4146484375 94.5068359375 -356.9 113.9 -355.3775390625 133.3029296875 -361.65 143.05 -367.9375 152.7921875 -378.375 151.075 -388.805859375 149.3578125 -393.825 138.35 -398.8404296875 127.3337890625 -394.25 108.875 -389.660546875 90.4123046875 -394.75 77.35 -399.8443359375 64.299609375 -401.9 54.2 -403.955078125 44.0943359375 -404.35 36 -404.8 28.55 -404.55 20.2 -403.75 -13.8 -382.75 -41.6 -361.85 -69.55 -331.3 -74.55 -295.45 -79.35 -271.3 -55.6 -245.95 -30.75 -244.75 11.45 Z"/>
</g>
</g>

<g>
<g>
<g>
<path fill="url(#Gradient_5)" stroke="none" d="
M -29.9 -159.45
Q -28.1 -155.05 -26.45 -150.7 -23 -141.7 -19.75 -132.55 -16.45 -123.45 -13.6 -114.05 -10.85 -104.9 -8.3 -95.6 -5.75 -86.2 -3.65 -76.55 -1.5 -66.65 0.15 -56.65 1.8 -46.65 2.8 -36.7 3.8 -26.85 4.4 -17 5 -7.05 4.95 2.9 4.9 12.65 4.2 22.4 3.5 32.1 2.1 41.85 0.65 51.65 -1.4 61.2 -3.4 70.75 -6.15 80.15 -8.95 89.55 -12.55 98.5 -16.05 107.25 -19.6 116.15 -23.2 125.05 -24.25 135.1 -24.7 139.6 -23.4 143.85 -21.15 151.25 -13.9 153.2 -7.85 154.8 -2.75 151.45 1.15 148.95 4 145.25 10.15 137.3 12.75 127.65 15.35 117.95 16.3 107.35 19.15 84.15 29.05 80.85 38.9 77.55 45.8 95.65 52.75 113.65 66 119.7 79.2 125.7 93.4 117.1 100.5208984375 112.044140625 107.05 111.75 113.59453125 111.5294921875 116.65 120.45 119.754296875 129.4115234375 112.5 161 105.235546875 192.592578125 111.9 208.45 118.6310546875 224.3041015625 131.15 222.55 143.6615234375 220.7908203125 148.95 202.3 154.24453125 183.81640625 146.75 151.85 139.2544921875 119.8763671875 152.5 122.25 165.7841796875 124.638671875 171.25 116.45 197.7 59.65 177.8 3.7 127.05 -16.35 69.95 -0.75 85.7 -125.35 39.7 -235.05 -14.55 -223.2 -29.9 -159.45 Z"/>
</g>
</g>

<g>
<path stroke="#FFFFFF" stroke-width="14" stroke-linejoin="round" stroke-linecap="round" fill="none" d="
M 45.8 95.65
Q 38.9 77.55 29.05 80.85 19.15 84.15 16.3 107.35 15.35 117.95 12.75 127.65 10.15 137.3 4 145.25 1.15 148.95 -2.75 151.45 -7.85 154.8 -13.9 153.2 -21.15 151.25 -23.4 143.85 -24.7 139.6 -24.25 135.1 -23.2 125.05 -19.6 116.15 -16.05 107.25 -12.55 98.5 -8.95 89.55 -6.15 80.15 -3.4 70.75 -1.4 61.2 0.65 51.65 2.1 41.85 3.5 32.1 4.2 22.4 4.9 12.65 4.95 2.9 5 -7.05 4.4 -17 3.8 -26.85 2.8 -36.7 1.8 -46.65 0.15 -56.65 -1.5 -66.65 -3.65 -76.55 -5.75 -86.2 -8.3 -95.6 -10.85 -104.9 -13.6 -114.05 -16.45 -123.45 -19.75 -132.55 -23 -141.7 -26.45 -150.7 -28.1 -155.05 -29.9 -159.45 -14.55 -223.2 39.7 -235.05 85.7 -125.35 69.95 -0.75 127.05 -16.35 177.8 3.7 197.7 59.65 171.25 116.45 165.7841796875 124.638671875 152.525 122.25 139.2544921875 119.8763671875 146.75 151.85 154.24453125 183.81640625 148.95 202.3 143.6615234375 220.7908203125 131.15 222.55 118.6310546875 224.3041015625 111.925 208.45 105.235546875 192.592578125 112.5 161 119.754296875 129.4115234375 116.675 120.475 113.59453125 111.5294921875 107.05 111.775 100.5208984375 112.044140625 93.4 117.1 79.2 125.7 66 119.7 52.75 113.65 45.8 95.65 Z"/>
</g>
</g>

<g>
<g>
<g>
<path fill="url(#Gradient_4)" stroke="none" d="
M 309.3 -87.1
Q 262.3279296875 -60.5533203125 254.6 -9.4 295.8498046875 20.9955078125 312.9 77.35 315.1 86.05 316.25 95.05 318.047265625 108.7900390625 315.8 119 313.5638671875 129.266015625 310.35 139.3 307.1791015625 149.3427734375 307.05 157 306.9302734375 164.6533203125 311.05 171.2 315.160546875 177.7466796875 322.55 178.35 329.940625 179.0123046875 334.85 173.85 339.75234375 168.734765625 340.25 159.55 340.8064453125 150.4095703125 337.6 133.95 334.4416015625 117.5353515625 338.3 110.8 342.1552734375 104.075 351.35 106.3 356.97578125 107.60078125 360.95 112.9 364.983203125 118.208984375 366.3 128.4 367.6615234375 138.64296875 366.1 150.55 364.59453125 162.4943359375 360.85 173.5 357.1388671875 184.562890625 356.4 192.8 355.6548828125 201.095703125 357.9 207.5 362.3 220.2 375.4 222 379.2 222.5 382.7 221.3 392.35 218 396.85 208.65 400 202.05 400.15 194.5 400.35 184.55 397.6 174.8 396.287890625 170.1318359375 395 165.4 388.136328125 144.1126953125 391.3 114.35 392.1896484375 107.668359375 393.75 100.95 410.15625 32.150390625 464.95 -10.05 454.43671875 -62.3935546875 411.15 -86.7 375.06875 -61.3662109375 357.55 -9.15 342.393359375 -61.68515625 309.3 -87.1 Z"/>
</g>
</g>

<g>
<path stroke="#FFFFFF" stroke-width="14" stroke-linejoin="round" stroke-linecap="round" fill="none" d="
M 309.3 -87.1
Q 342.393359375 -61.68515625 357.55 -9.15 375.06875 -61.3662109375 411.15 -86.7 454.43671875 -62.3935546875 464.95 -10.025 410.15625 32.150390625 393.775 100.975 392.1896484375 107.668359375 391.325 114.35 388.136328125 144.1126953125 395 165.4 396.287890625 170.1318359375 397.6 174.8 400.35 184.55 400.15 194.5 400 202.05 396.85 208.65 392.35 218 382.7 221.3 379.2 222.5 375.4 222.025 362.3 220.2 357.9 207.5 355.6548828125 201.095703125 356.4 192.825 357.1388671875 184.562890625 360.875 173.525 364.59453125 162.4943359375 366.125 150.575 367.6615234375 138.64296875 366.325 128.425 364.983203125 118.208984375 360.975 112.9 356.97578125 107.60078125 351.35 106.3 342.1552734375 104.075 338.3 110.8 334.4416015625 117.5353515625 337.625 133.975 340.8064453125 150.4095703125 340.275 159.575 339.75234375 168.734765625 334.85 173.875 329.940625 179.0123046875 322.55 178.375 315.160546875 177.7466796875 311.05 171.2 306.9302734375 164.6533203125 307.05 157 307.1791015625 149.3427734375 310.375 139.3 313.5638671875 129.266015625 315.8 119.025 318.047265625 108.7900390625 316.25 95.05 315.1 86.05 312.9 77.35 295.8498046875 20.9955078125 254.6 -9.4 262.3279296875 -60.5533203125 309.3 -87.1 Z"/>
</g>
</g>

<g transform="matrix( 1, 0, 0, 1, 20.15,0) ">
<g>
<g>
<path fill="url(#Gradient_4)" stroke="none" d="
M 591.95 -23.25
Q 586.25 -36.8 576.6 -48.3 553.75 -75.5 519.8 -75.4 485.8 -75.5 463.1 -49.1 439.999609375 -22.44609375 438.5 8.8 437.001171875 40.0869140625 443.8 64.25 450.648046875 88.41796875 450.25 106.4 449.8525390625 124.433203125 456.7 132 463.5880859375 139.623828125 470.7 136.25 477.8751953125 132.8703125 479.4 116.8 480.96171875 100.741015625 490.55 97.6 500.1921875 94.508984375 510.6 106.65 521.0078125 118.836328125 512.7 153.75 504.384375 188.6763671875 517.4 198.45 530.47890625 208.2158203125 540.9 195.7 551.313671875 183.18828125 545.6 153.55 539.8837890625 123.9615234375 555.55 109.75 571.20546875 95.5896484375 577.45 86.95 583.704296875 78.305859375 588.6 68.7 594.05 58 596.85 46.05 569.7 28.3 537.55 35.15 537.3 35.5 537.05 35.85 529.4 47.25 517.75 47.15 506.15 47.05 498.8 35.4 497.4 33.2 496.35 30.95 532.1 11.7 599 3.9 597.2 -10.6 591.95 -23.25
M 500.2 -17.2
Q 507.55 -27.5 518.6 -27.45 529.6 -27.5 537 -16.9 537.35 -16.45 537.65 -15.95 511.25 -8.85 492.55 3.25 494 -8.6 500.2 -17.2 Z"/>
</g>
</g>

<g>
<path stroke="#FFFFFF" stroke-width="14" stroke-linejoin="round" stroke-linecap="round" fill="none" d="
M 500.2 -17.2
Q 507.55 -27.5 518.6 -27.45 529.6 -27.5 537 -16.9 537.35 -16.45 537.65 -15.95 511.25 -8.85 492.55 3.25 494 -8.6 500.2 -17.2 Z
M 577.45 86.95
Q 571.20546875 95.5896484375 555.55 109.775 539.8837890625 123.9615234375 545.6 153.575 551.313671875 183.18828125 540.9 195.7 530.47890625 208.2158203125 517.425 198.45 504.384375 188.6763671875 512.7 153.75 521.0078125 118.836328125 510.6 106.675 500.1921875 94.508984375 490.575 97.625 480.96171875 100.741015625 479.425 116.8 477.8751953125 132.8703125 470.725 136.25 463.5880859375 139.623828125 456.725 132.025 449.8525390625 124.433203125 450.25 106.425 450.648046875 88.41796875 443.825 64.25 437.001171875 40.0869140625 438.5 8.825 439.999609375 -22.44609375 463.1 -49.1 485.8 -75.5 519.8 -75.4 553.75 -75.5 576.6 -48.3 586.25 -36.8 591.95 -23.25 597.2 -10.6 599 3.9 532.1 11.7 496.35 30.95 497.4 33.2 498.8 35.4 506.15 47.05 517.75 47.15 529.4 47.25 537.05 35.85 537.3 35.5 537.55 35.15 569.7 28.3 596.85 46.05 594.05 58 588.6 68.7 583.704296875 78.305859375 577.45 86.95 Z"/>
</g>
</g>

<g>
<g>
<g>
<path fill="url(#Gradient_7)" stroke="none" d="
M -151.2 123.45
Q -144.6 119.6 -139.05 107.7 -133.5515625 95.7966796875 -124.7 96.4 -115.7904296875 97.0060546875 -110.85 111.25 -105.9115234375 125.53828125 -112.15 151.45 -118.382421875 177.3724609375 -115.2 192 -112.0205078125 206.6708984375 -101.4 209.65 -90.787109375 212.67421875 -83.1 202.9 -75.3578125 193.176171875 -80.4 163.35 -85.3916015625 133.57734375 -69.55 115.65 -63.45 109.05 -57.6 101.9 -24.3 63.35 -21 3.8 -30 -47.4 -80.75 -75.35 -74.2 -26.8 -100.4 3.8 -111.35 -13.45 -125.4 -23.15 -139.45 -13.45 -150.4 3.8 -176.6 -26.8 -170.05 -75.35 -220.8 -47.4 -229.8 3.8 -226.8 41 -216.65 64.25 -206.555859375 87.544140625 -195.25 105.15 -183.934375 122.7626953125 -187.95 136.35 -191.968359375 149.9408203125 -188.25 157.65 -184.53515625 165.4056640625 -178 166.7 -171.453515625 167.99140625 -166.1 162.7 -160.7087890625 157.4654296875 -161.6 146.75 -162.4388671875 136.0857421875 -160.15 131.7 -157.80390625 127.3044921875 -151.2 123.45 Z"/>
</g>
</g>

<g>
<path stroke="#FFFFFF" stroke-width="14" stroke-linejoin="round" stroke-linecap="round" fill="none" d="
M -57.6 101.9
Q -24.3 63.35 -21 3.8 -30 -47.4 -80.75 -75.35 -74.2 -26.8 -100.4 3.8 -111.35 -13.45 -125.4 -23.15 -139.45 -13.45 -150.4 3.8 -176.6 -26.8 -170.05 -75.35 -220.8 -47.4 -229.8 3.8 -226.8 41 -216.65 64.25 -206.555859375 87.544140625 -195.25 105.15 -183.934375 122.7626953125 -187.95 136.35 -191.968359375 149.9408203125 -188.25 157.675 -184.53515625 165.4056640625 -178 166.7 -171.453515625 167.99140625 -166.075 162.725 -160.7087890625 157.4654296875 -161.575 146.775 -162.4388671875 136.0857421875 -160.125 131.7 -157.80390625 127.3044921875 -151.2 123.45 -144.6 119.6 -139.05 107.7 -133.5515625 95.7966796875 -124.675 96.4 -115.7904296875 97.0060546875 -110.85 111.275 -105.9115234375 125.53828125 -112.15 151.45 -118.382421875 177.3724609375 -115.2 192.025 -112.0205078125 206.6708984375 -101.4 209.675 -90.787109375 212.67421875 -83.075 202.925 -75.3578125 193.176171875 -80.375 163.375 -85.3916015625 133.57734375 -69.55 115.65 -63.45 109.05 -57.6 101.9 Z"/>
</g>
</g>

<g>
<g>
<g>
<path fill="url(#Gradient_5)" stroke="none" d="
M -29.9 -159.45
Q -28.1 -155.05 -26.45 -150.7 -23 -141.7 -19.75 -132.55 -16.45 -123.45 -13.6 -114.05 -10.85 -104.9 -8.3 -95.6 -5.75 -86.2 -3.65 -76.55 -1.5 -66.65 0.15 -56.65 1.8 -46.65 2.8 -36.7 3.8 -26.85 4.4 -17 5 -7.05 4.95 2.9 4.9 12.65 4.2 22.4 3.5 32.1 2.1 41.85 0.65 51.65 -1.4 61.2 -3.4 70.75 -6.15 80.15 -8.95 89.55 -12.55 98.5 -16.05 107.25 -19.6 116.15 -23.2 125.05 -24.25 135.1 -24.7 139.6 -23.4 143.85 -21.15 151.25 -13.9 153.2 -7.85 154.8 -2.75 151.45 1.15 148.95 4 145.25 10.15 137.3 12.75 127.65 15.35 117.95 16.3 107.35 19.15 84.15 29.05 80.85 38.9 77.55 45.8 95.65 52.75 113.65 66 119.7 79.2 125.7 93.4 117.1 100.5208984375 112.044140625 107.05 111.75 113.59453125 111.5294921875 116.65 120.45 119.754296875 129.4115234375 112.5 161 105.235546875 192.592578125 111.9 208.45 118.6310546875 224.3041015625 131.15 222.55 143.6615234375 220.7908203125 148.95 202.3 154.24453125 183.81640625 146.75 151.85 139.2544921875 119.8763671875 152.5 122.25 165.7841796875 124.638671875 171.25 116.45 197.7 59.65 177.8 3.7 127.05 -16.35 69.95 -0.75 85.7 -125.35 39.7 -235.05 -14.55 -223.2 -29.9 -159.45 Z"/>
</g>
</g>

<g>
<path stroke="#FFFFFF" stroke-width="14" stroke-linejoin="round" stroke-linecap="round" fill="none" d="
M 45.8 95.65
Q 38.9 77.55 29.05 80.85 19.15 84.15 16.3 107.35 15.35 117.95 12.75 127.65 10.15 137.3 4 145.25 1.15 148.95 -2.75 151.45 -7.85 154.8 -13.9 153.2 -21.15 151.25 -23.4 143.85 -24.7 139.6 -24.25 135.1 -23.2 125.05 -19.6 116.15 -16.05 107.25 -12.55 98.5 -8.95 89.55 -6.15 80.15 -3.4 70.75 -1.4 61.2 0.65 51.65 2.1 41.85 3.5 32.1 4.2 22.4 4.9 12.65 4.95 2.9 5 -7.05 4.4 -17 3.8 -26.85 2.8 -36.7 1.8 -46.65 0.15 -56.65 -1.5 -66.65 -3.65 -76.55 -5.75 -86.2 -8.3 -95.6 -10.85 -104.9 -13.6 -114.05 -16.45 -123.45 -19.75 -132.55 -23 -141.7 -26.45 -150.7 -28.1 -155.05 -29.9 -159.45 -14.55 -223.2 39.7 -235.05 85.7 -125.35 69.95 -0.75 127.05 -16.35 177.8 3.7 197.7 59.65 171.25 116.45 165.7841796875 124.638671875 152.525 122.25 139.2544921875 119.8763671875 146.75 151.85 154.24453125 183.81640625 148.95 202.3 143.6615234375 220.7908203125 131.15 222.55 118.6310546875 224.3041015625 111.925 208.45 105.235546875 192.592578125 112.5 161 119.754296875 129.4115234375 116.675 120.475 113.59453125 111.5294921875 107.05 111.775 100.5208984375 112.044140625 93.4 117.1 79.2 125.7 66 119.7 52.75 113.65 45.8 95.65 Z"/>
</g>
</g>
</g>

<g id="Layer_14" transform="matrix( 0.2037811279296875, 0, 0, 0.2037811279296875, 139.4,64.95) "/>

<mask id="Mask_Mask_1">
<g>
<g>
<g>
<path fill="#FFFFFF" stroke="none" d="
M -151.2 123.45
Q -144.6 119.6 -139.05 107.7 -133.5515625 95.7966796875 -124.7 96.4 -115.7904296875 97.0060546875 -110.85 111.25 -105.9115234375 125.53828125 -112.15 151.45 -118.382421875 177.3724609375 -115.2 192 -112.0205078125 206.6708984375 -101.4 209.65 -90.787109375 212.67421875 -83.1 202.9 -75.3578125 193.176171875 -80.4 163.35 -85.3916015625 133.57734375 -69.55 115.65 -63.45 109.05 -57.6 101.9 -24.3 63.35 -21 3.8 -30 -47.4 -80.75 -75.35 -74.2 -26.8 -100.4 3.8 -111.35 -13.45 -125.4 -23.15 -139.45 -13.45 -150.4 3.8 -176.6 -26.8 -170.05 -75.35 -220.8 -47.4 -229.8 3.8 -226.8 41 -216.65 64.25 -206.555859375 87.544140625 -195.25 105.15 -183.934375 122.7626953125 -187.95 136.35 -191.968359375 149.9408203125 -188.25 157.65 -184.53515625 165.4056640625 -178 166.7 -171.453515625 167.99140625 -166.1 162.7 -160.7087890625 157.4654296875 -161.6 146.75 -162.4388671875 136.0857421875 -160.15 131.7 -157.80390625 127.3044921875 -151.2 123.45
M -331.3 -74.55
Q -361.85 -69.55 -382.75 -41.6 -403.75 -13.8 -404.55 20.2 -404.8 28.55 -404.35 36 -403.955078125 44.0943359375 -401.9 54.2 -399.8443359375 64.299609375 -394.75 77.35 -389.660546875 90.4123046875 -394.25 108.85 -398.8404296875 127.3337890625 -393.85 138.35 -388.805859375 149.3578125 -378.4 151.05 -367.9375 152.7921875 -361.65 143.05 -355.3775390625 133.3029296875 -356.9 113.9 -358.4146484375 94.5068359375 -339.95 102 -321.429296875 109.4712890625 -319.75 128.95 -318.027734375 148.483203125 -324.15 168.25 -330.2677734375 188.023828125 -329.9 200.75 -329.4802734375 213.5166015625 -323.4 222.25 -317.2591796875 230.9869140625 -306.95 229.95 -296.5947265625 228.9599609375 -290.45 214.15 -284.3125 199.390234375 -289.35 174.55 -294.3736328125 149.7123046875 -292.5 132.1 -289.2 109.7 -269.9 86.05 -243.6 53.65 -244.75 11.45 -245.95 -30.75 -271.3 -55.6 -295.45 -79.35 -331.3 -74.55
M -347.5 -35
Q -342 -41.85 -334.3 -43.1 -326.7 -44.4 -321.15 -38.5 -315.6 -32.6 -315.55 -23.35 -315.5 -14.05 -320.95 -6.7 -326.55 0.45 -334.8 1.35 -343.1 2.25 -348.5 -3.85 -353.8 -10 -353.45 -19.2 -353 -28.2 -347.5 -35
M -608.5 -159.45
Q -587 -104.75 -512.3 -75.45 -499 13 -531.9 116.55 -532.4 118.5 -534 124.35 -535.65 130.15 -532.25 133.5 -528.85 136.8 -523.7 135.25 -518.6 133.65 -516.55 125.45 -514.5 117.25 -508.9 114.75 -503.35 112.2 -498.15 115 -493.05 117.75 -490.1 126.65 -487.2 135.5 -490.8 147.45 -494.35 159.3 -497.75 171.1 -501.15 182.65 -500.5 194.35 -499.8 207.15 -491.35 215.4 -482.9 223.65 -474.7 214.8 -466.5 205.95 -466.2 193.05 -465.95 180.1 -468.95 168.2 -471.95 156.35 -472.7 144.25 -473.55 132.15 -466.8 118.9 -460.1 105.6 -451.35 106.35 -445.2 106.9 -441.9 115.95 -438.55 125 -434.1 124.6 -429.7 124.2 -429.3 116.55 -424.1 17 -444.95 -75.45 -383 -100.85 -356.4 -159.45 -374 -221.65 -431.25 -235.05 -438.45 -182.5 -481.6 -159.45 -526.45 -174.45 -542.4 -235.05 -595.25 -220.1 -608.5 -159.45
M 309.3 -87.1
Q 262.3279296875 -60.5533203125 254.6 -9.4 295.8498046875 20.9955078125 312.9 77.35 315.1 86.05 316.25 95.05 318.047265625 108.7900390625 315.8 119 313.5638671875 129.266015625 310.35 139.3 307.1791015625 149.3427734375 307.05 157 306.9302734375 164.6533203125 311.05 171.2 315.160546875 177.7466796875 322.55 178.35 329.940625 179.0123046875 334.85 173.85 339.75234375 168.734765625 340.25 159.55 340.8064453125 150.4095703125 337.6 133.95 334.4416015625 117.5353515625 338.3 110.8 342.1552734375 104.075 351.35 106.3 356.97578125 107.60078125 360.95 112.9 364.983203125 118.208984375 366.3 128.4 367.6615234375 138.64296875 366.1 150.55 364.59453125 162.4943359375 360.85 173.5 357.1388671875 184.562890625 356.4 192.8 355.6548828125 201.095703125 357.9 207.5 362.3 220.2 375.4 222 379.2 222.5 382.7 221.3 392.35 218 396.85 208.65 400 202.05 400.15 194.5 400.35 184.55 397.6 174.8 396.287890625 170.1318359375 395 165.4 388.136328125 144.1126953125 391.3 114.35 392.1896484375 107.668359375 393.75 100.95 409.5275390625 34.7916015625 460.8 -6.75 459.0310546875 0.896484375 458.65 8.85 457.15 40.1 464 64.25 470.8 88.4 470.4 106.45 470 124.45 476.9 132.05 483.75 139.6 490.9 136.25 498.05 132.85 499.6 116.8 501.1 100.75 510.75 97.65 520.35 94.5 530.75 106.7 541.15 118.85 532.85 153.75 524.55 188.7 537.6 198.45 550.65 208.2 561.05 195.7 571.45 183.2 565.75 153.6 560.05 123.95 575.7 109.8 591.35 95.6 597.6 86.95 603.85 78.3 608.75 68.7 614.2 58 617 46.05 589.85 28.3 557.7 35.15 557.45 35.5 557.2 35.85 549.55 47.25 537.9 47.15 526.3 47.05 518.95 35.4 517.55 33.2 516.5 30.95 552.25 11.7 619.15 3.9 617.35 -10.6 612.1 -23.25 606.4 -36.8 596.75 -48.3 573.9 -75.5 539.95 -75.4 505.95 -75.5 483.25 -49.1 469.6880859375 -33.45390625 463.55 -16.2 451.8435546875 -63.849609375 411.15 -86.7 375.06875 -61.3662109375 357.55 -9.15 342.393359375 -61.68515625 309.3 -87.1
M 557.15 -16.9
Q 557.5 -16.45 557.8 -15.95 531.4 -8.85 512.7 3.25 514.15 -8.6 520.35 -17.2 527.7 -27.5 538.75 -27.45 549.75 -27.5 557.15 -16.9
M 2.8 -36.7
Q 3.8 -26.85 4.4 -17 5 -7.05 4.95 2.9 4.9 12.65 4.2 22.4 3.5 32.1 2.1 41.85 0.65 51.65 -1.4 61.2 -3.4 70.75 -6.15 80.15 -8.95 89.55 -12.55 98.5 -16.05 107.25 -19.6 116.15 -23.2 125.05 -24.25 135.1 -24.7 139.6 -23.4 143.85 -21.15 151.25 -13.9 153.2 -7.85 154.8 -2.75 151.45 1.15 148.95 4 145.25 10.15 137.3 12.75 127.65 15.35 117.95 16.3 107.35 19.15 84.15 29.05 80.85 38.9 77.55 45.8 95.65 52.75 113.65 66 119.7 79.2 125.7 93.4 117.1 100.5208984375 112.044140625 107.05 111.75 113.59453125 111.5294921875 116.65 120.45 119.754296875 129.4115234375 112.5 161 105.235546875 192.592578125 111.9 208.45 118.6310546875 224.3041015625 131.15 222.55 143.6615234375 220.7908203125 148.95 202.3 154.24453125 183.81640625 146.75 151.85 139.2544921875 119.8763671875 152.5 122.25 165.7841796875 124.638671875 171.25 116.45 197.7 59.65 177.8 3.7 127.05 -16.35 69.95 -0.75 85.7 -125.35 39.7 -235.05 -14.55 -223.2 -29.9 -159.45 -28.1 -155.05 -26.45 -150.7 -23 -141.7 -19.75 -132.55 -16.45 -123.45 -13.6 -114.05 -10.85 -104.9 -8.3 -95.6 -5.75 -86.2 -3.65 -76.55 -1.5 -66.65 0.15 -56.65 1.8 -46.65 2.8 -36.7
M 200.05 -216.25
Q 190.75 -223.8 179.45 -228.6 168.2 -233.25 155.8 -234.55 147.75 -235.25 139.7 -235 148.65 -231 155.9 -223.8 162.95 -217 166.8 -208.15 170.75 -199 170.5 -189.05 170.2 -179.2 164.8 -170.9 159.1 -162.15 148.45 -161.2 137.85 -160.75 130.1 -167.7 124.6 -172.6 122.15 -179.3 121.9 -167.15 123.45 -154.95 124.95 -142.65 129.75 -131.6 134.6 -120.4 142.25 -111.15 144.75 -108.15 147.5 -105.45 149.7 -102.85 152.4 -100.5 160 -93.85 169.95 -87.6 179.9 -81.45 179.35 -70.95 178.75 -60.5 182.35 -53.35 185.9 -46.35 193.75 -45.8 201.6 -45.35 204.7 -54.05 207.6 -62.8 200.45 -74.9 193.35 -87.1 197.3 -96.1 201.15 -105.15 209.6 -107.35 211.7 -107.9 213.5 -107.5 216.95 -106.75 218.65 -104.5 220.25 -102.2 221 -98.7 221.6 -95.1 222.5 -92.75 223.35 -90.5 225.3 -88.3 227.2 -86.2 230.55 -85 233.85 -83.9 237 -84.5 240.15 -85.25 242.25 -88.2 244.3 -91.2 243.7 -96.1 243.05 -101.05 239.55 -106.15 236 -111.25 234.9 -114.35 233.75 -117.35 233.65 -120.3 233.6 -123.35 234.45 -126.9 234.4 -127 234.4 -127.25 234.45 -127.5 234.5 -127.7 234.55 -128 234.6 -128.2 234.75 -129 234.8 -129.8 236.35 -141.95 235 -154.05 233.65 -166.55 229.1 -177.75 224.5 -189.2 217.15 -198.75 209.85 -208.45 200.05 -216.25 Z"/>
</g>
</g>
</g>
</mask>

<g id="Layer_10" mask="url(#Mask_Mask_1)">
<g filter="url(#Filter_1)" transform="matrix( 1, 0, 0, 1, 0,0) ">
<g id="Layer_1" transform="matrix( 1.045135498046875, 0, 0, 1, -653.95,-464.85) ">
<g transform="matrix( 0.29998779296875, 0, 0, 0.29998779296875, 0,0) ">
<use xlink:href="#An_1000_F_186223454_W1Hc6V5e2op5zwU77zPpyx3QJ6ibc3gy_out_jpg"/>
</g>
</g>
</g>

<g filter="url(#Filter_1)" transform="matrix( 1, 0, 0, 1, 0,0) ">
<g id="Layer_1" transform="matrix( -1.045135498046875, 0, 0, 1, 1854.25,-464.85) ">
<g transform="matrix( 0.29998779296875, 0, 0, 0.29998779296875, 0,0) ">
<use xlink:href="#An_1000_F_186223454_W1Hc6V5e2op5zwU77zPpyx3QJ6ibc3gy_out_jpg"/>
</g>
</g>
</g>
</g>

<g id="Layer_17" mask="url(#Mask_Mask_1)">
<g id="Layer_1" transform="matrix( 0.998931884765625, -0.0454254150390625, 0.0454254150390625, 0.998931884765625, -665.75,27.85) ">
<g transform="matrix( 1, 0, 0, 1.6792144775390625, 0,10.3) ">
<g filter="url(#Filter_2)">
<g>
<path fill="#FFFFFF" stroke="none" d="
M 1328.15 -8.5
L 1328.15 -43.6 0 -43.6 0 -8.5 1328.15 -8.5 Z"/>
</g>
</g>
</g>
</g>
</g>

<g id="BowTie" transform="matrix( 0.2037811279296875, 0, 0, 0.2037811279296875, 139.4,64.95) "/>

<g id="Layer_6" transform="matrix( 0.2037811279296875, 0, 0, 0.2037811279296875, 139.4,64.95) "/>

<g id="Layer_2" transform="matrix( 0.2037811279296875, 0, 0, 0.2037811279296875, 139.4,64.95) "/>

<g id="Layer_4" transform="matrix( 0.2037811279296875, 0, 0, 0.2037811279296875, 139.4,64.95) "/>

<mask id="Mask_Mask_2">
<g>
<g>
<g>
<path fill="#FFFFFF" stroke="none" d="
M 213.5 -107.5
Q 211.7 -107.9 209.6 -107.35 201.15 -105.15 197.3 -96.1 193.35 -87.1 200.45 -74.9 207.6 -62.8 204.7 -54.05 201.7619140625 -45.804296875 194.55 -45.8 195.15703125 -44.3478515625 195.75 -42.9 203.9 -22.95 208.2 2.1 212.45 27.25 213.65 48.05 214.8 68.95 215.15 88.4 215.4 107.9 220.95 114.8 226.45 121.7 233.2 113.05 236.5 108.8 239.4 101.6 245.45 85.1 248.6 67.55 251.75 49.65 253.2 31.9 254.7 14.45 254.25 -3 253.8 -20.3 252.2 -37.55 250.45 -55.1 246.1 -72.35 245.4 -74.8 244.8 -77.15 243.3361328125 -82.4751953125 241.6 -87.4 239.687890625 -85.1400390625 237 -84.5 233.85 -83.9 230.55 -85 227.2 -86.2 225.3 -88.3 223.35 -90.5 222.5 -92.75 221.6 -95.1 221 -98.7 220.25 -102.2 218.65 -104.5 216.95 -106.75 213.5 -107.5 Z"/>
</g>
</g>
</g>
</mask>

<g id="Layer_12" mask="url(#Mask_Mask_2)">
<g filter="url(#Filter_3)" transform="matrix( 1, 0, 0, 1, 0,0) ">
<g id="Layer_1" transform="matrix( 1, 0, 0, 1, -197.95,-412.4) ">
<g transform="matrix( 0.25, 0, 0, 0.25, 0,0) ">
<use xlink:href="#An_1000_F_186223454_W1Hc6V5e2op5zwU77zPpyx3QJ6ibc3gy_out2_jpg"/>
</g>
</g>
</g>
</g>

<g id="Layer_8" transform="matrix( 0.2037811279296875, 0, 0, 0.2037811279296875, 139.4,64.95) "/>
</g>
</svg>
